<svg width="10" height="6" viewBox="0 0 10 6" fill="none" xmlns="http://www.w3.org/2000/svg">
<path d="M4.68847 5.8583L0.118841 0.766688C0.0425558 0.681732 0 0.568862 0 0.451488C0 0.334115 0.0425558 0.221246 0.118841 0.13629L0.124004 0.130807C0.160986 0.0894799 0.2055 0.056572 0.254839 0.0340843C0.304178 0.0115967 0.357311 0 0.411005 0C0.464698 0 0.517831 0.0115967 0.56717 0.0340843C0.616509 0.056572 0.661023 0.0894799 0.698005 0.130807L5.00086 4.92549L9.30199 0.130807C9.33898 0.0894799 9.38349 0.056572 9.43283 0.0340843C9.48217 0.0115967 9.5353 0 9.58899 0C9.64269 0 9.69582 0.0115967 9.74516 0.0340843C9.7945 0.056572 9.83901 0.0894799 9.87599 0.130807L9.88116 0.13629C9.95744 0.221246 10 0.334115 10 0.451488C10 0.568862 9.95744 0.681732 9.88116 0.766688L5.31153 5.8583C5.27134 5.90308 5.22301 5.93872 5.16946 5.96308C5.11591 5.98744 5.05826 6 5 6C4.94174 6 4.88409 5.98744 4.83054 5.96308C4.77699 5.93872 4.72866 5.90308 4.68847 5.8583Z" fill="black"/>
</svg>
