<svg width="20" height="20" viewBox="0 0 20 20" fill="none" xmlns="http://www.w3.org/2000/svg">
<path d="M5.51655 14.2238C3.25455 11.7918 3.29455 7.9798 5.64455 5.6128C6.56555 4.6811 7.76311 4.07215 9.05855 3.8768L8.98955 1.7998C7.17097 2.01938 5.48024 2.84801 4.19255 4.1508C1.04355 7.3208 1.00555 12.4398 4.06955 15.6818L2.32855 17.4338L7.83855 17.7348L7.82355 11.9008L5.51655 14.2238ZM12.1635 2.2648L12.1785 8.0988L14.4855 5.7768C16.7475 8.2108 16.7075 12.0228 14.3575 14.3878C13.4367 15.3197 12.2391 15.9287 10.9435 16.1238L11.0125 18.1998C12.8311 17.98 14.522 17.1518 15.8105 15.8498C18.9585 12.6778 18.9965 7.5588 15.9325 4.3188L17.6735 2.5648L12.1635 2.2648Z" fill="#00810D" fill-opacity="0.59"/>
</svg>
