<svg width="25" height="25" viewBox="0 0 25 25" fill="none" xmlns="http://www.w3.org/2000/svg">
<path d="M18.125 2.37485C18.4205 2.07938 18.7713 1.84499 19.1573 1.68508C19.5434 1.52518 19.9571 1.44287 20.375 1.44287C20.7929 1.44287 21.2066 1.52518 21.5927 1.68508C21.9787 1.84499 22.3295 2.07938 22.625 2.37485C22.9205 2.67033 23.1549 3.0211 23.3148 3.40716C23.4747 3.79322 23.557 4.20699 23.557 4.62485C23.557 5.04272 23.4747 5.45649 23.3148 5.84254C23.1549 6.2286 22.9205 6.57938 22.625 6.87485L7.4375 22.0624L1.25 23.7499L2.9375 17.5624L18.125 2.37485Z" stroke="#484848" stroke-width="2" stroke-linecap="round" stroke-linejoin="round"/>
</svg>
