<svg width="46" height="50" viewBox="0 0 46 50" fill="none" xmlns="http://www.w3.org/2000/svg">
<g filter="url(#filter0_d_1742_161)">
<path d="M39.7898 41.0001V36.5556C39.7898 34.1981 38.8471 31.9371 37.1692 30.2701C35.4912 28.6031 33.2154 27.6666 30.8424 27.6666H12.9475C10.5744 27.6666 8.29862 28.6031 6.62065 30.2701C4.94267 31.9371 4 34.1981 4 36.5556V41.0001" stroke="#313131" stroke-width="2" stroke-linecap="round" stroke-linejoin="round"/>
<path d="M21.8947 18.7779C26.8363 18.7779 30.8422 14.7982 30.8422 9.88896C30.8422 4.97972 26.8363 1 21.8947 1C16.9532 1 12.9473 4.97972 12.9473 9.88896C12.9473 14.7982 16.9532 18.7779 21.8947 18.7779Z" stroke="#313131" stroke-width="2" stroke-linecap="round" stroke-linejoin="round"/>
</g>
<defs>
<filter id="filter0_d_1742_161" x="0" y="0" width="45.7891" height="50.0001" filterUnits="userSpaceOnUse" color-interpolation-filters="sRGB">
<feFlood flood-opacity="0" result="BackgroundImageFix"/>
<feColorMatrix in="SourceAlpha" type="matrix" values="0 0 0 0 0 0 0 0 0 0 0 0 0 0 0 0 0 0 127 0" result="hardAlpha"/>
<feOffset dx="1" dy="4"/>
<feGaussianBlur stdDeviation="2"/>
<feComposite in2="hardAlpha" operator="out"/>
<feColorMatrix type="matrix" values="0 0 0 0 0 0 0 0 0 0 0 0 0 0 0 0 0 0 0.25 0"/>
<feBlend mode="normal" in2="BackgroundImageFix" result="effect1_dropShadow_1742_161"/>
<feBlend mode="normal" in="SourceGraphic" in2="effect1_dropShadow_1742_161" result="shape"/>
</filter>
</defs>
</svg>
