<svg id="Layer_1" data-name="Layer 1" xmlns="http://www.w3.org/2000/svg" viewBox="0 0 400 400"><defs><style>.cls-1,.cls-12{fill:#2b2b2b;}.cls-1,.cls-10,.cls-11,.cls-12,.cls-13,.cls-14,.cls-15,.cls-16,.cls-17,.cls-18,.cls-19,.cls-2,.cls-20,.cls-21,.cls-22,.cls-23,.cls-24,.cls-25,.cls-26,.cls-27,.cls-3,.cls-4,.cls-5,.cls-6,.cls-7,.cls-8,.cls-9{fill-rule:evenodd;}.cls-1{opacity:0.1;}.cls-2{fill:#636363;}.cls-3{fill:#858787;}.cls-4{fill:#474747;}.cls-5{fill:#f3d65d;}.cls-6{fill:#e1a842;}.cls-7{fill:#bb8e2d;}.cls-8{fill:#e4c728;}.cls-9{fill:#b48a00;}.cls-10{fill:#4f4f4f;}.cls-11{fill:#6b6e6e;}.cls-13{fill:#a19161;}.cls-14{fill:#9d7700;}.cls-15{fill:#846400;}.cls-16{fill:#755800;}.cls-17{fill:#c2b373;}.cls-18{fill:#e3d187;}.cls-19{fill:#f4c9b2;}.cls-20{fill:#fce3d4;}.cls-21{fill:#c1907d;}.cls-22{fill:#787a78;}.cls-23{fill:#be8e00;}.cls-24{fill:#595959;}.cls-25{fill:#404040;}.cls-26{fill:#fff;}.cls-27{fill:#ffefe7;}</style></defs><title>explorers_ESFP_famous_real_adele</title><polygon class="cls-1" points="121.48 387.53 93.1 373.35 145.95 374.86 184.87 356.98 212.44 376.23 232.26 376.29 279.57 368.98 287.47 392.58 172.93 400.5 121.48 387.53"/><polygon class="cls-2" points="264.31 369.99 258.22 385.77 287.47 392.58 292.24 381.57 286.6 373.9 281.68 370.05 264.31 369.99"/><polygon class="cls-3" points="266.91 375.64 279.65 377.37 279.65 384.18 265.75 381.43 266.91 375.64"/><polygon class="cls-4" points="309.31 380.05 287.47 392.58 286.61 373.9 290.24 367.21 304.99 364.05 309.31 380.05"/><polygon class="cls-5" points="280.67 363.18 264.31 369.99 286.6 373.9 304.99 364.05 280.67 363.18"/><polygon class="cls-6" points="273.1 358.11 273.58 369.33 285.81 370.5 289.18 364.78 285.75 359.79 284.26 357.3 273.1 358.11"/><polygon class="cls-7" points="295.43 356.17 288.51 356.86 285.75 359.79 285.81 370.5 295.83 366.21 295.43 356.17"/><polygon class="cls-5" points="284.52 354.81 273.1 358.11 285.75 359.79 295.43 356.17 284.52 354.81"/><polygon class="cls-6" points="301.44 355.27 295.63 361.19 292.86 357.13 298.01 349.33 302.65 352.82 301.44 355.27"/><polygon class="cls-7" points="305.24 351.39 301.44 355.27 297.52 350.08 298.81 349.56 305.24 351.39"/><polygon class="cls-8" points="307.95 348.42 305.24 351.39 293.88 349.46 291.98 343.35 296.2 341.58 307.95 348.42"/><polygon class="cls-9" points="274.65 335.51 287.62 337.79 295.25 344.83 293.88 349.46 276.45 351 274.65 335.51"/><polygon class="cls-6" points="288.14 325.25 274.65 335.51 286.42 340.84 295.25 344.83 296.2 341.58 288.14 325.25"/><polygon class="cls-10" points="264.31 369.99 258.22 385.77 269.44 388.38 275.45 371.95 277.52 370.04 264.31 369.99"/><polygon class="cls-11" points="266.91 375.64 273.76 376.57 271.56 382.58 265.75 381.43 266.91 375.64"/><polygon class="cls-6" points="278.38 364.14 264.31 369.99 275.45 371.95 277.84 369.74 278.38 364.14"/><polygon class="cls-7" points="273.16 359.69 273.58 369.33 277.84 369.74 278.7 360.75 273.16 359.69"/><polygon class="cls-2" points="231.9 371.07 233.11 388.61 263.65 382.15 263.29 369.69 254.61 364.94 248.29 363.49 231.9 371.07"/><polygon class="cls-3" points="236.84 375.24 249.6 371.27 252.59 377.68 238.29 381.2 236.84 375.24"/><polygon class="cls-4" points="278.7 360.75 263.65 382.15 254.61 364.94 255.09 357.04 267.6 347.58 278.7 360.75"/><polygon class="cls-5" points="244.31 357.46 231.9 371.07 254.61 364.94 267.6 347.58 244.31 357.46"/><polygon class="cls-6" points="234.95 356.01 240.34 366.37 252.37 362.08 253.03 355.22 247.6 352.03 245.11 350.34 234.95 356.01"/><polygon class="cls-7" points="255.13 344.36 248.92 348.06 247.6 352.03 252.37 362.08 259.92 353.64 255.13 344.36"/><polygon class="cls-5" points="244.26 347.88 234.95 356.01 247.6 352.03 255.13 344.37 244.26 347.88"/><polygon class="cls-6" points="260.39 340.87 257.52 349 253.12 346.4 254.55 336.78 260.45 338.03 260.39 340.87"/><polygon class="cls-7" points="262.26 335.55 260.39 340.87 254.41 337.71 255.41 336.65 262.26 335.55"/><polygon class="cls-8" points="263.51 331.56 262.26 335.55 250.72 338.72 246.24 333.81 249.44 330.29 263.51 331.56"/><polygon class="cls-9" points="226.47 334.05 239.69 330.49 249.97 333.77 250.72 338.72 234.98 347.85 226.47 334.05"/><polygon class="cls-6" points="234.66 318.45 226.47 334.05 239.9 333.89 249.97 333.77 249.44 330.29 234.66 318.45"/><polygon class="cls-2" points="95.51 360.75 88.69 378.06 121.48 387.53 126.82 375.49 120.5 366.53 114.99 361.91 95.51 360.75"/><polygon class="cls-3" points="98.43 367.25 112.72 370 112.72 377.62 97.13 373.67 98.43 367.25"/><polygon class="cls-4" points="145.95 374.85 121.48 387.53 120.5 366.53 124.58 359.26 141.12 356.65 145.95 374.85"/><polygon class="cls-5" points="113.85 354.15 95.51 360.75 120.5 366.53 141.12 356.65 113.85 354.15"/><polygon class="cls-6" points="105.36 347.98 105.91 360.6 119.62 362.67 123.39 356.47 119.54 350.66 117.88 347.78 105.36 347.98"/><polygon class="cls-7" points="130.4 347.21 122.64 347.56 119.54 350.66 119.62 362.67 130.84 358.49 130.4 347.21"/><polygon class="cls-5" points="118.17 345.01 105.36 347.98 119.54 350.66 130.4 347.21 118.17 345.01"/><polygon class="cls-6" points="137.13 346.58 130.62 352.85 127.51 348.13 133.29 339.7 138.49 343.91 137.13 346.58"/><polygon class="cls-7" points="141.4 342.48 137.13 346.58 132.74 340.51 134.19 340.02 141.4 342.48"/><polygon class="cls-8" points="144.44 339.32 141.4 342.48 128.66 339.59 126.53 332.63 131.27 330.91 144.44 339.32"/><polygon class="cls-9" points="107.1 322.75 121.65 326.13 130.19 334.49 128.66 339.59 109.13 340.23 107.1 322.75"/><polygon class="cls-6" points="122.22 312.1 107.1 322.75 120.3 329.46 130.19 334.49 131.27 330.91 122.22 312.1"/><polygon class="cls-12" points="170.84 390.25 166.41 377.78 177.17 372.56 178.5 390.37 170.84 390.25"/><polygon class="cls-4" points="136.82 390.15 154.83 370.04 165.75 363.56 177.17 372.56 156.81 390.5 136.82 390.15"/><polygon class="cls-4" points="194.49 367.71 191.21 393.74 215.29 393.3 211.01 367.63 194.49 367.71"/><polygon class="cls-13" points="227 148.03 254.43 158.94 230.23 168.96 227 148.03"/><polyline class="cls-13" points="135.76 128.32 153.07 155.39 163.89 159.48 178.07 143.9 173.74 125.61"/><polygon class="cls-14" points="233 264.47 174.94 249.39 138.74 268.49 144.96 307.72 169.91 328.82 219.46 339.08 233 264.47"/><polyline class="cls-15" points="150.81 233.81 145.85 246.76 138.74 268.49 233 264.47 210.13 233.81 195.55 217.22"/><path class="cls-16" d="M138.74,268.49m12.07-34.68-5,12.95-7.11,21.73,39.14-13.75L233,264.47l-22.88-30.66-14.57-16.59Z"/><polyline class="cls-15" points="153.07 155.38 126.19 194.38 134.25 222.57 147.5 213.87 176.61 181.02"/><polyline class="cls-15" points="230.23 168.96 243.42 210.38 236.46 225.65 221.68 225.84 215.14 217.65 213.48 188.56"/><polygon class="cls-16" points="141.49 195.1 144.85 207.71 148.71 225.09 177.73 233.81 212.83 225.09 218.08 208.17 182.18 189.68 141.49 195.1"/><polygon class="cls-14" points="218.17 151.36 167.38 150.2 153.07 155.38 145.69 176.35 185.6 190.69 225.49 184.25 230.23 168.96 218.17 151.36"/><path class="cls-17" d="M202.61,154.06,205,128.33l-2.43,25.73L230.23,169l7.86-27.36s-9.21-15.71-10.29-16S205,128.33,205,128.33Z"/><polyline class="cls-18" points="261.38 121.39 238.09 141.6 209.96 134.85 205.04 112.35 224.27 94.21"/><path class="cls-19" d="M224.28,37.11l-6.5,77.3-15.17,39.65-30.88,8.13-1.08-23.88,7.57-31.14s13.85-63.48,13.83-64.87S210.46,33,211.82,33s12.46,4.12,12.46,4.12"/><path class="cls-20" d="M222.11,103.08m.77-23.38-.77,23.38L211.2,99.25,218,83.78Z"/><polygon class="cls-21" points="153.17 136.18 162.51 148.74 171.73 162.19 191.13 140.31 170.65 138.31 174.9 130.5 153.17 136.18"/><polyline class="cls-21" points="222.11 103.08 215.63 100.81 209.26 108.59 217.04 116.34"/><path class="cls-13" d="M108.87,49.7m0,0,13.67,45.75,22.11-42.89-6.81-15.32"/><polygon class="cls-20" points="129.92 34.21 125.69 47.92 122.53 95.67 133.9 133.81 170.65 138.31 200 107.33 208.56 39.15 129.92 34.21"/><polygon class="cls-19" points="139.24 79.6 126.06 73.84 133.02 67 147.57 72.25 149.36 74.93 152.44 78.78 157.49 75.74 161.55 72.47 177.34 68.25 186.83 77.15 168.59 81.16 154.78 97.13 150.45 98.14 146.11 96.59 139.24 79.6"/><polyline class="cls-18" points="208.56 39.15 209.73 90.14 214.26 92.3 218.02 83.78 222.11 103.08 261.38 121.39 263.82 71.6 230.23 39.15"/><polygon class="cls-17" points="161.55 72.47 162.9 68.81 180.53 66.04 186.83 77.15 177.78 70.58 161.55 72.47"/><polygon class="cls-17" points="147.57 72.25 146.79 68.02 132.45 65.28 126.06 73.84 133.35 69.28 147.57 72.25"/><polygon class="cls-17" points="208.56 39.15 108.87 49.7 108.9 25.68 158.73 17.66 208.56 39.15"/><polygon class="cls-16" points="225.49 184.25 225.49 184.25 145.69 176.35 137.82 198.67 153.64 208.13 196.56 206.6 218.08 208.17 225.49 184.25"/><polygon class="cls-9" points="211.2 99.25 222.11 103.08 219.05 110.79 209.26 108.59 211.2 99.25"/><polygon class="cls-8" points="148.34 219.6 229.44 219.6 226.03 230.62 150.99 230.62 148.34 219.6"/><path class="cls-12" d="M139.56,74.93a3.56,3.56,0,1,1-3.82,3.27,3.55,3.55,0,0,1,3.82-3.27"/><path class="cls-12" d="M168.82,77.17A3.56,3.56,0,1,1,165,80.44a3.55,3.55,0,0,1,3.82-3.27"/><polygon class="cls-17" points="235.12 22.89 263.82 71.6 208.56 39.15 196.65 31.1 213.58 24.53 235.12 22.89"/><polygon class="cls-18" points="208.56 39.15 108.9 25.68 175.01 1.5 213.58 24.53 208.56 39.15"/><polygon class="cls-15" points="212.44 376.23 219.46 339.08 144.96 307.72 154.84 370.05 212.44 376.23"/><polygon class="cls-2" points="190.96 227.13 189.9 245.75 222.89 243.02 224.18 229.86 215.68 223.71 209.22 221.33 190.96 227.13"/><polygon class="cls-22" points="195.6 232.18 209.56 229.7 211.85 236.84 203.42 241.06 196.34 238.65 195.6 232.18"/><polygon class="cls-4" points="240.64 220.55 222.89 243.02 215.68 223.71 217.23 215.46 233.36 206.98 240.64 220.55"/><polygon class="cls-5" points="205.83 214.47 190.96 227.13 215.68 223.71 233.36 206.97 205.83 214.47"/><polygon class="cls-6" points="195.37 211.95 193.94 219.6 198.19 222.48 213.7 220.41 215.3 213.27 210.01 209.19 207.62 207.08 195.37 211.95"/><polygon class="cls-7" points="218.96 202.13 211.93 205.19 210.01 209.19 213.7 220.41 222.76 212.53 218.96 202.13"/><polygon class="cls-5" points="207.05 204.39 195.37 211.95 210.01 209.19 218.96 202.13 207.05 204.39"/><polygon class="cls-6" points="226.25 196.56 220.86 207.33 216.58 204.01 219.36 194.08 225.07 192.52 226.25 196.56"/><polygon class="cls-8" points="228.97 191.14 226.25 196.56 215.06 195.61 211.01 189.85 214.85 186.56 228.97 191.14"/><polygon class="cls-23" points="186.13 188.9 204.56 185.48 214.94 190.3 215.06 195.61 196.56 206.6 186.13 188.9"/><polygon class="cls-6" points="197.38 171.15 186.13 188.9 214.94 190.3 214.85 186.56 197.38 171.15"/><polygon class="cls-24" points="128.72 198.83 118.98 210.69 145.11 231 147.6 231.92 154.96 222.18 151.28 211.59 149.71 205.78 128.72 198.83"/><polygon class="cls-11" points="132.15 204.83 144.3 212.17 140.07 218.74 128.52 209.81 132.15 204.83"/><polygon class="cls-25" points="173.39 226.46 147.6 231.92 149.59 219.97 151.29 211.59 159.59 206.88 175.81 210.53 173.39 226.46"/><polygon class="cls-8" points="151.87 198.44 128.72 198.82 151.28 211.59 175.81 210.53 151.87 198.44"/><polygon class="cls-6" points="143.88 190.65 140.28 200.61 153.64 208.13 159.65 203.96 158.52 197.38 158.18 194.21 143.88 190.65"/><polygon class="cls-7" points="169.88 198.23 164.12 197.56 160.23 196.69 158.52 197.38 153.64 208.13 160.72 208.32 165.61 207.48 167.76 203.34 169.88 198.23"/><polygon class="cls-8" points="152.66 191.35 143.88 190.65 158.52 197.38 164.12 197.56 152.66 191.35"/><polygon class="cls-6" points="167.76 203.34 164.12 197.55 175.62 192.57 183.57 197.57 167.76 203.34"/><polygon class="cls-8" points="185.99 196.26 183.57 197.57 171.43 190.79 172.34 183.81 177.39 183.99 185.99 196.26"/><polygon class="cls-9" points="158.24 167.98 170.55 176.23 174.93 186.8 171.43 190.79 153.35 184.07 158.24 167.98"/><polygon class="cls-6" points="171.73 162.19 158.24 167.98 167.94 178.73 174.93 186.8 177.39 183.99 176.51 171.04 171.73 162.19"/><polygon class="cls-2" points="149.59 219.97 147.6 231.92 144.27 237.6 176.5 245.1 181.75 232.97 175.55 224.51 170.12 220.28 149.59 219.97"/><polygon class="cls-22" points="153.06 230.5 163 231.86 163.13 238.88 152.05 235.54 153.06 230.5"/><polygon class="cls-4" points="203.21 238.98 176.5 245.1 175.55 224.51 179.56 217.14 195.37 211.95 203.21 238.98"/><polygon class="cls-5" points="169 212.71 149.59 219.97 175.55 224.51 195.37 211.95 169 212.71"/><polygon class="cls-6" points="160.72 208.32 161.19 219.48 174.68 220.77 178.39 214.46 174.6 208.96 172.97 206.22 160.72 208.32"/><polygon class="cls-7" points="185.28 204.97 177.65 205.74 174.6 208.96 174.68 220.77 185.19 215.29 185.28 204.97"/><polygon class="cls-5" points="167.76 203.34 160.72 208.32 174.6 208.96 185.28 204.97 167.76 203.34"/><polygon class="cls-6" points="196.09 199.71 185.23 210.12 182.44 206.03 188.12 197.43 196.09 199.71"/><polygon class="cls-8" points="199.08 196.44 196.09 199.71 183.57 197.57 181.47 190.85 186.13 188.9 199.08 196.44"/><polygon class="cls-23" points="162.37 182.21 176.67 184.72 185.07 192.48 183.57 197.57 164.12 197.56 162.37 182.21"/><polygon class="cls-6" points="176.51 171.04 162.37 182.21 175.35 188.08 185.07 192.48 186.13 188.9 176.51 171.04"/><polygon class="cls-20" points="162.46 227.62 147.6 231.92 146.03 242.68 154.81 240.69 163 231.86 162.46 227.62"/><polygon class="cls-19" points="160.06 254.29 145.85 246.76 141.5 234.06 147.6 231.92 158.9 236.67 164.74 245.17 160.06 254.29"/><polygon class="cls-20" points="173.22 240.44 158.9 236.67 160.06 254.29 174.17 248.96 179.48 244.4 173.22 240.44"/><polygon class="cls-19" points="193.77 227.19 203.21 238.98 197.78 248.4 194.19 240.87 190.79 229.89 193.77 227.19"/><polygon class="cls-20" points="187.65 253.1 204.54 251.64 211.43 244.27 203.21 238.98 187.27 233.38 183 244.01 187.65 253.1"/><polygon class="cls-19" points="173.22 240.44 187.26 233.38 187.65 253.1 174.17 248.96 173.22 240.44"/><polygon class="cls-20" points="128.33 216.7 125.83 226.98 145.85 246.76 147.6 231.92 140.08 218.74 128.33 216.7"/><polygon class="cls-14" points="112.67 213.98 125.83 226.98 140.08 218.74 140.08 218.74 126.19 194.38 112.67 213.98"/><polygon class="cls-19" points="203.21 238.98 217.57 228.77 237.83 229.41 230.56 242.32 204.54 251.64 203.21 238.98"/><polygon class="cls-14" points="243.42 210.38 251.24 234.92 230.56 242.32 217.57 228.77 243.42 210.38"/><polygon class="cls-19" points="160.52 98.61 169.45 105.02 190.37 102.23 169.45 101.53 160.52 98.61"/><polygon class="cls-19" points="142.11 99.16 132.76 102.23 124.3 98.18 132.76 99.65 142.11 99.16"/><polygon class="cls-23" points="135.15 106.08 141.88 117.45 155.49 119.69 167.34 109.77 135.15 106.08"/><polygon class="cls-14" points="150.37 104.96 135.15 106.08 149.25 109.61 167.34 109.77 150.37 104.96"/><polygon class="cls-26" points="143.96 115.21 140.13 107.33 149.25 109.61 160.77 109.71 154.85 116.49 143.96 115.21"/><polyline class="cls-21" points="146.11 96.59 149.9 100.89 154.78 97.13 151.8 95.39"/><polygon class="cls-27" points="149.36 74.92 146.11 96.59 154.78 97.13 157.49 75.74 149.36 74.92"/><polygon class="cls-17" points="218.02 83.78 263.82 71.6 261.38 121.39 222.11 103.08 218.02 83.78"/></svg>