<svg id="Layer_1" data-name="Layer 1" xmlns="http://www.w3.org/2000/svg" viewBox="0 0 291.66 400"><defs><style>.cls-16{fill:#2b2b2b}.cls-2{fill:#795d88}.cls-3{fill:#594265}.cls-4{fill:#cecdcc}.cls-5{fill:#4f5353}.cls-7{fill:#a2a1a1}.cls-8{fill:#474748}.cls-9{fill:#d0ae95}.cls-10{fill:#dcdcdb}.cls-11{fill:#eed2c1}.cls-12{fill:#a8836c}.cls-15{fill:#ab913c}.cls-20{fill:#8e8e8e}.cls-21{fill:#6f7273}.cls-22{fill:#d1a0b8}.cls-23{fill:#734d61}.cls-24{fill:#95637c}.cls-25{fill:#b2879c}.cls-26{fill:none;stroke:#734d61;stroke-miterlimit:10}.cls-27{fill:#543042}</style></defs><g id="Avicii"><path style="opacity:.1;fill:#2b2b2b" d="m0 362.77 168.99-22.2 122.67 39.13L140.84 400l-40.79-.04L0 362.77z"/><path class="cls-2" d="m138.91 263.34 28.24 25.01 8.47 23.77 13.72 48.95 16.97-49.14 9.37-2.06 3.68-59.58-29.32 13.29-30.59.44-9.76 2.36-10.78-3.04z"/><path class="cls-2" d="m167.15 288.35-10.24 22.46-9.88 53.26-24.28-23.74-7.9-102.74 24.06 25.75 28.24 25.01z"/><path class="cls-3" d="m113.72 245.6 2.35 20.52 51.08 22.23 49.15-25.03.06-13.03-26.32 13.29-30.59.44-20.54-.68-25.19-17.74z"/><path class="cls-4" d="m213 361.07 9.21 19.63-39.79 1 6.92-20.63 15.12-7.31 8.54 7.31zM147.03 364.07l1.57 12.12H95.58l25.17-22.84 17.16-1.21 9.12 11.93z"/><path class="cls-5" d="m222.21 387.02-39.79 1v-6.32l39.79-1v6.32zM95.58 376.19h53.02v6.32H95.58z"/><path class="cls-3" d="m175.62 312.12 13.72 48.95H213l2.68-51.2-40.06 2.25zM120.75 353.35l26.28 10.72 9.88-53.26-38.88-13.51 2.72 56.05z"/><path class="cls-4" d="m195.56 134 20.57 11.28 18.18 15.12L218 221.28l-.46 30.46-95.16-11.62-4.34-65.25-6.11-27.99 10.76-19.33 23.45 3.11 49.42 3.34z"/><path style="fill:#c3c3c3" d="m218 221.28-97.69-12.45.51 28.19 98.54 13.27-1.36-29.01z"/><path class="cls-7" d="m88.33 139.75 16.53 9.7-4.67 9.82-12.04-2.79.18-16.73z"/><path class="cls-8" d="m169.44 182.52-8.9 97.04h4.03l6.77-99.53-1.9 2.49z"/><path class="cls-9" d="m89.14 113.91 17.71 7.49 3.09 40.45-48.55-32.03 27.75-15.91z"/><path class="cls-10" d="m106.85 121.4 15.84 6.15-4.84 47.31-29.7-18.38 9.61.65 9.09-35.73z"/><path class="cls-11" d="m74.09 57.69 9.92-8.36 12.81-11.09-12.96 4.8-5.26-.16-4.71-5.38-1.04-28.47-7.89-.17-.83 24.05-.67.39-11.12-18.09-4 1.36-3.33-4.76-10.66 10.93 8.96 15.52.43 8.15 12.04 14.06 18.31-2.78z"/><path class="cls-9" d="m39.85 17.1 11.11 19.84 12.5-3.64-11.12-18.09-4 1.36-3.33-4.76-5.16 5.29zM43.74 46.41l13.43 10.43 33.68-25.49 5.97 6.89-12.81 11.09-9.92 8.36-18.31 2.78-12.04-14.06z"/><path class="cls-11" d="m55.78 60.47 5.61 69.35 27.75-15.91-15.05-56.22-18.31 2.78z"/><path class="cls-3" d="m219.54 71.27 18.77 26.78-11.77 16.94-26.99 4.11-3.06-16.95 13.66-28.59 9.39-2.29z"/><path class="cls-9" d="m195.56 134 11.17-37.64 1.65-33.86-11.89 1.58-45.94 68.34-2.72 37.89L195.56 134z"/><path class="cls-12" d="m142.1 128.28 3.74 4.38 16.13 18.96 23.77-30.9-36.76.94-6.88 6.62z"/><path class="cls-11" d="m119.69 48.48-2.84 35.57 2.84 15.23 8.96 19.04 5.25 11.52 18.1 1.89 33.74-11.01 8.58-51.03 6.23-27.42-58.54-18.37-19.73 10.64-2.59 13.94z"/><path class="cls-9" d="m130.85 26.55 6.26-9.41 32.28-3.08v11.4l-38.54 1.09z"/><path class="cls-3" d="M162.1 32.18h-36.6l5.69-10.37 33.74-.89 2.29 8.3-5.12 2.96z"/><path style="fill:#8c7c2f" d="m136.09 18.28 33.3-2.85-6.61-7.72-21.68 2.93-5.01 7.64z"/><path class="cls-2" d="M203.35 8.43 170.18 0l-8.6 5.54 2.23 6.25-1.71 20.39 25.45 15.18 16.79 20.06 2.73-5.34L213 46.89l-9.65-38.46z"/><path class="cls-3" d="m219.54 71.27 7-18.23-1.48-21.88-21.71-22.73.79 51.44 3.85 11.52 11.55-.12z"/><path class="cls-11" d="m198.31 91.57 8.42 4.79 10.87-10.15.4-11.51-10.24-10.14-9.45 27.01z"/><path class="cls-12" d="m209.3 74.61-2.9 12.74 7.25-7.38-4.35-5.36zM198.31 91.57l6.45 11.44 1.97-6.65-8.42-4.79z"/><path style="fill:#8f759f" d="m144.48 2.6 25.7-2.6-6.37 11.79-23.17 1.36-4.55 2.28 8.39-12.83z"/><path class="cls-15" d="m187.55 47.36 5.52 17.95 17.37 14.66 9.1-8.7-31.99-23.91z"/><path class="cls-2" d="m119.69 48.48 10.82-16.3 10.13-19.03 3.84-10.55-19.89 21.15-4.9 11.28v13.45z"/><path class="cls-9" d="m181.12 57.78-18.96 8.58-8.45 20.28-19.34-.95-4.93-18.57-10.65-7.38.24-2.95 12.93 3.03 9.42 8.71 2.34 3.86 3.03-4.5 11.14-8.15L167 54.7l14.12 3.08z"/><ellipse class="cls-16" cx="129.84" cy="66.36" rx="4.27" ry="4.28"/><ellipse class="cls-16" cx="162.16" cy="66.36" rx="4.27" ry="4.28"/><path class="cls-15" d="m152.17 57.21 14.27-4.39 14.68 4.96-14.68-.74-8.55 2.7-5.72-2.53zM131.96 59.82l3.89-2.69-10.62-3.37-6.11 1.9-.15 1.86 12.99 2.3z"/><path class="cls-12" d="m134.37 85.69 10.76-7.91 8.58 8.86-10.11 4.22-9.23-5.17z"/><path style="fill:#ebebea" d="m134.25 99.89 1.23-.43 23.96-.01v.98l-8.15 10.96-12.2-1.61-4.84-9.89z"/><path class="cls-8" d="M135.5 103.3h21.72l-3.47 6.51h-13.03l-5.22-6.51z"/><path style="fill:#f6e5db" d="m134.37 85.69 7.01-17.16 5.37-.64 6.96 18.75-19.34-.95z"/><path class="cls-9" d="m133.43 99.9 7.33 13.63h11.96l8.54-13.72-1.82-.36-5.43 9.05-14.22-.27-5.35-8.78-1.01.45z"/><path class="cls-12" d="m133.43 99.9 7.13-4.07 4.91.67 5.03-.67 10.76 3.98-27.83.09z"/><circle class="cls-9" cx="130.24" cy="85.66" r=".97"/><path style="opacity:.15;fill:#a8836c" d="m193.07 65.31-16.51 46.22-21.91 8.25-3.83-3.53h-9.38l-5.16 4.67-16.59-21.64 8.96 19.04 5.25 11.52 18.1 1.89 33.74-11.01 9.22-53.82-1.89-1.59z"/><path class="cls-20" d="m78.42 80.36-19.41 2.59 8.52-4.57 10.89 1.98z"/><path class="cls-5" d="m87.66 108.41.09.31-1.42.45.66-.67-.37-.77.88.22.16.46zM84.54 109.1l.63-1.7-1.8-.37.7.66-1.03.5.23.39 1.09-.57.18 1.09zM86.92 105.62l-1.11.91.49-1.17-.08-1.15.44.76.13.16.13.49zM84.67 103.69l-.33 1.35-2.02 1.03.77-1.13-.57-.68.86-.22.29.51 1-.86z"/><path class="cls-20" d="m138.13 103.93.05.28-4.56.74-4.06 3.92 4.36 2.07 4.32-1.15.08.27-4.43 1.18-4.54-2.16-3 2.89-5.64.43-1.71-2.13.64-2.66 4.43-1.34 5.18 2.47 4.2-4Zm-9 5-5-2.38-4.17 1.26-.57 2.37 1.49 1.91 5.39-.42ZM125.81 88.38a7.39 7.39 0 1 1-6.34 8.3 7.38 7.38 0 0 1 6.34-8.3Zm1.91 14.37a7.11 7.11 0 1 0-8-6.11 7.11 7.11 0 0 0 8 6.11Z" transform="translate(-56.17 -.5)"/><path class="cls-20" d="M125.94 89.36a6.4 6.4 0 1 1-5.49 7.19 6.41 6.41 0 0 1 5.49-7.19Zm1.65 12.41a6.12 6.12 0 1 0-6.86-5.26 6.12 6.12 0 0 0 6.86 5.26Z" transform="translate(-56.17 -.5)"/><path class="cls-20" d="M126.07 90.33a5.42 5.42 0 1 1-4.65 6.09 5.43 5.43 0 0 1 4.65-6.09Zm1.39 10.47a5.14 5.14 0 1 0-5.77-4.42 5.14 5.14 0 0 0 5.77 4.42Z" transform="translate(-56.17 -.5)"/><path class="cls-20" d="M126.42 93a2.78 2.78 0 1 1-2.42 3.07 2.77 2.77 0 0 1 2.42-3.07Zm.7 5.23a2.5 2.5 0 1 0-2.81-2.23 2.5 2.5 0 0 0 2.81 2.18Z" transform="translate(-56.17 -.5)"/><path class="cls-20" transform="rotate(-10.57 96.218 400.752)" d="M126.8 89.59h.28v15.57h-.28z"/><path class="cls-20" d="m117.25 97.2 1.51-.16c.82-.09 1.66-.19 2.57-.27v.28c-.91.08-1.75.18-2.57.27l-1.51.16ZM132.08 95.62a14.17 14.17 0 0 0 2.4-.25 16.5 16.5 0 0 1 2.3-.25v.28a16.1 16.1 0 0 0-2.26.25 14.42 14.42 0 0 1-2.44.25Z" transform="translate(-56.17 -.5)"/><path class="cls-20" transform="rotate(-29.82 92.677 204.094)" d="M118.34 98.73h6.71v.28h-6.71z"/><path class="cls-20" transform="rotate(-74.83 105.954 134.411)" d="M134.23 95.32h.28v5.27h-.28z"/><path class="cls-21" d="m81.02 91.65-20.96 2.79 7.68-15.27 13.28 12.48z"/><path class="cls-5" d="m69.79 93.32-2.18 1.42 2.81 8.28.68.18.62 2.05.12 4.79-.77.51.1.78.59.16.06.51.44.18-.01.48 1.27-.03.61.47-.32.73-.84.11-.67.7-1.54.69-2-.86-.35-1.06 1.12-1.66-1.04-.61-.87-1.09-.49.2.6.33.03.76-2.72-1.12.3-.83.64-.08-.51-.45-.18-.59 1.12-.31.06-1.12.6-.7-.72-1.29.16-.59.38.52.35-3.3-2.16-6.2.04-1.96 4.4-.45.27.45z"/><path class="cls-5" d="m128.38 94.29.82 1-.56 2.17.36 2.46-1.49 1.19 1.66 1.63.43 1.73 1.41 3.9.33.43.12.91-.79.45.37.5-.55.52.42.29.47 1.72 1.26.21 1.18-.16 1-.71.31-.76.79-.52-.48-6.18-.89-.81v-.84l-.28-1 .89-1 .22.38.6-.11.14-.57-.63-3.12-.93.2.14 1-.46.17.18 1.34-.89-.19.11-1-1.9-.16-1.19-2.36.34-4-4.18.56.26.72Zm5.79 13.09.92 3.55-1.61-1.26Z" transform="translate(-56.17 -.5)"/><path class="cls-8" d="m133.59 131.65 1.88-1.65-1.57-.16-2.2-4.83-6.57 9.7 1.3 3.56 2.08.04-.14-3.37 3.66-2.21 3.15 3.24-5.81 2.35 3.94.07 4.24-3.24-3.96-3.5zM198.2 125.13l-2.24 7.53 1.21 3.6-7.51 6.06 1.18 2.52 7.98-5.03 4.27 3.56-5.66 8.61 2.11 1.48 7.7-11.75-9.04-16.58z"/><path class="cls-5" d="M185.2 140.76h3.91l10.43 12.7-18.25 26.57-11.85 2.49-1.66-17.44 17.42-24.32z"/><path class="cls-21" d="m124.66 148.59 1.77-10.32 11.38-5.58 21.56 7.01 8.76 19.02-4.14 14.31-10.54 2.25-28.79-26.69z"/><path class="cls-21" d="m185.2 140.76-5.57-2.49-14.81 26.34 4.62 17.91.83-16.37 14.93-25.39z"/><path class="cls-5" d="m124.66 148.59 14.58-10.93 19.07 7.73 5.68 18.15-10.54 11.74-10.31-1.42-18.48-25.27z"/><path class="cls-22" d="m190.53 153.69 5.93 6.71-15.17 19.63 9.24-26.34zM124.66 148.59l28.79 18.27-10.31 7-16-8.42-2.48-16.85z"/><path class="cls-5" d="m55.78 60.47 18.31-2.78.93 3.99-19.14 2.34-.1-3.55z"/><path class="cls-8" d="m193.78 364.77 18.9.65-9.45 4.67 7.46 3.1-8.87 2.16 7.74 2.16-16.91.65 5.96-3.87-4.83-1.94 6.12-2.26-6.12-5.32zM117.15 356.77l4.94 2.94-6.13 2.26 3.06 8.06-8.86-1.45v5l-7.35-3.79 14.34-13.02z"/></g><g id="table"><path class="cls-23" d="m146.93 283.33-4.15-2.01-8.28-4.19-2.04 118.25 8.38 4.62 4.78-7.43 1.31-109.24z"/><path class="cls-24" d="M142.78 278.32 140.84 400l8.35-3.99 2.85-118.6-9.26.91z"/><path class="cls-23" d="m30.5 242.67-2.75-1.86-5.49-3.88 1.18 126.67 5.55 4.24 3.39-7.16-1.88-118.01z"/><path class="cls-24" d="m27.75 240.81 1.24 127.03 5.71-3.96-.62-126.91-6.33 3.84z"/><path class="cls-23" d="m253.15 259.23-3.22-2-6.42-4.19-.8 127.87 6.51 4.59 3.56-7.66.37-118.61z"/><path class="cls-24" d="m249.93 257.23-.71 128.27 6.35-4.21 1.42-128.15-7.06 4.09zM129.93 227.5l.77 16.83-31.34-15.9 30.57-.93zM18.17 228.23l.29 42.21 123.78 41.42 5.11-22.46-5.88-22.5-54.15-30.01-69.15-8.66z"/><path class="cls-22" d="m46.63 238.62-28.46-10.39 63.11-7.01 48.65 6.28-6.95 2.69-29.92 12.09-46.43-3.66z"/><path class="cls-25" d="m46.63 238.62 83.3-11.12 36.2 4.16-33.39 14.44-59.68.82-26.43-8.3z"/><path class="cls-22" d="m142.38 266.93 120.41-21.31-96.66-13.96-92.19 15.29 68.44 19.98z"/><path class="cls-21" d="M278.89 243.86c.29 4.55-22.32 9-50.63 9.92-28.47.93-51.82-2.06-52-6.67l2.74-3.41c4.63-3.94 23.53-5.73 48.39-6.5 24.67-.76 43.39.11 48.39 3.71-.02 0 3.11 3.09 3.11 2.95ZM156.22 226c.12 3-14.41 6-32.63 6.75-18.42.72-33.57-1.17-33.65-4.24l1.83-2.28c3-2.64 15.35-3.89 31.45-4.47 15.9-.58 27.89-.05 31.05 2.31 0-.01 1.95 2.03 1.95 1.93Z" transform="translate(-56.17 -.5)"/><path class="cls-16" d="M276.23 242c.29 4.55-21.23 9-48.21 9.86-27.15.9-49.44-2.11-49.65-6.72s21.7-9 48.76-9.85c26.87-.88 48.87 2.13 49.1 6.71ZM152.7 224.94c.1 2.41-13.44 4.77-30.29 5.28s-30.74-1-30.81-3.46 13.62-4.79 30.51-5.28 30.5 1.06 30.59 3.46Z" transform="translate(-56.17 -.5)"/><path class="cls-22" d="M244.44 242c.1 1.8-7.39 3.51-16.74 3.81s-17.07-.92-17.16-2.73 7.44-3.52 16.8-3.81 16.99.92 17.1 2.73ZM132.6 225c0 1.09-4.57 2.11-10.29 2.28s-10.42-.57-10.45-1.66 4.59-2.11 10.31-2.28 10.39.59 10.43 1.66Z" transform="translate(-56.17 -.5)"/><path class="cls-10" d="m172.55 241.86-2.41.08-.23-4.19 2.42-.07.22 4.18zM66.89 224.8l-1.64.04-.09-2.8 1.64-.05.09 2.81z"/><path class="cls-16" d="M217.06 258.91c.11 2.19-5 4.15-11.36 4.37s-11.67-1.38-11.77-3.57l-.07-1.71a38.34 38.34 0 0 1 11.47-2.65c3.19-.11 9.53 1.21 11.65 1.86Z" transform="translate(-56.17 -.5)"/><path class="cls-23" d="M217 257.21c.1 2.19-5 4.14-11.36 4.36S194 260.19 193.86 258s5-4.14 11.39-4.36 11.62 1.36 11.75 3.57Z" transform="translate(-56.17 -.5)"/><path class="cls-23" d="m137.14 240.1 9.35 7.5 2.38-1.85-7.41-5.2-4.32-.45z"/><path class="cls-4" d="M210.46 249.86a5.09 5.09 0 0 1-5.15 5.1 5.25 5.25 0 0 1-5.61-4.74 5.09 5.09 0 0 1 5.16-5.09 5.25 5.25 0 0 1 5.6 4.73Z" transform="translate(-56.17 -.5)"/><path class="cls-24" d="M210.31 250.67a4.43 4.43 0 0 1-4.48 4.45 4.58 4.58 0 0 1-4.9-4.13 4.44 4.44 0 0 1 4.5-4.44 4.57 4.57 0 0 1 4.88 4.12Z" transform="translate(-56.17 -.5)"/><path class="cls-16" d="M205.43 246.55a4.57 4.57 0 0 1 4.88 4.12 4.43 4.43 0 0 1-4.48 4.45 4.58 4.58 0 0 1-4.9-4.13 4.44 4.44 0 0 1 4.5-4.44m0-.57a5 5 0 0 0-5.09 5 5.19 5.19 0 0 0 5.54 4.68 5 5 0 0 0 5.08-5 5.18 5.18 0 0 0-5.56-4.66Z" transform="translate(-56.17 -.5)"/><path class="cls-16" d="M207.68 250.68a2 2 0 0 1-2 2 2 2 0 0 1-2.17-1.83 2 2 0 0 1 2-2 2 2 0 0 1 2.17 1.83Z" transform="translate(-56.17 -.5)"/><path class="cls-24" d="m137.14 240.1 4.67-.93 3.59 3.07-1.32 1.56-6.94-3.7z"/><path class="cls-24" d="m137.14 240.1-3.41.51.03.78 5.66-.36-.79-1.18-1.49.25z"/><path class="cls-16" d="M113.31 235.28c0 1.12-2.51 2.1-5.67 2.2s-5.78-.73-5.81-1.85v-.87a18.63 18.63 0 0 1 5.71-1.32 24.67 24.67 0 0 1 5.77 1Z" transform="translate(-56.17 -.5)"/><path class="cls-23" d="M113.28 234.41c0 1.12-2.5 2.1-5.67 2.2s-5.77-.74-5.81-1.85 2.51-2.1 5.68-2.19 5.76.73 5.8 1.84Z" transform="translate(-56.17 -.5)"/><path class="cls-23" d="m45.5 223.34 4.57 5.89 1.19-.94-3.62-4.72-2.14-.23z"/><path class="cls-4" d="M110.09 230.65a2.68 2.68 0 1 1-2.74-2.43 2.59 2.59 0 0 1 2.74 2.43Z" transform="translate(-56.17 -.5)"/><path class="cls-24" d="M110 231.06a2.34 2.34 0 1 1-2.4-2.12 2.26 2.26 0 0 1 2.4 2.12Z" transform="translate(-56.17 -.5)"/><path class="cls-16" d="M107.62 228.94a2.2 2.2 0 1 1-2.26 2.26 2.27 2.27 0 0 1 2.26-2.26m0-.29a2.49 2.49 0 1 0 2.72 2.4 2.57 2.57 0 0 0-2.72-2.4Z" transform="translate(-56.17 -.5)"/><path class="cls-16" d="M108.71 231.06a1 1 0 0 1-1 1 1 1 0 1 1 1-1Z" transform="translate(-56.17 -.5)"/><path class="cls-24" d="m45.5 223.34 2.33-.47 1.76 1.57-.67.8-3.42-1.9z"/><path class="cls-24" d="m45.5 223.34-1.69.25.01.4 2.81-.18-.39-.6-.74.13z"/><path class="cls-25" d="m141.47 266.9.77 44.96 119.64-23.06-.06-43.21-120.35 21.31z"/><path class="cls-26" d="m79.68 244.04 68.25-10.81M72.67 242.19l67.16-9.86M66.17 240.79l67.23-9.86M61.35 239.22l67.27-9.85"/><path class="cls-27" d="m76.33 237.15-2.17.06-.11-3.21 2.16-.06.12 3.21z"/><path class="cls-4" d="m78.49 237.08-2.16.07-.12-3.21 2.17-.07.11 3.21z"/><path class="cls-27" d="m113.14 236.49-2.15.07-.14-3.2 2.15-.07.14 3.2z"/><path class="cls-4" d="m115.29 236.42-2.15.07-.14-3.2 2.15-.06.14 3.19z"/><path class="cls-27" d="m101.65 240.69-2.15.06-.13-3.2 2.15-.07.13 3.21z"/><path class="cls-4" d="m103.81 240.62-2.16.07-.13-3.21 2.16-.07.13 3.21z"/></g><g id="arm"><path class="cls-7" d="m184.8 207.17 13.86-4.56-2.53 17.01-5.04 1.13-6.29-13.58z"/><path class="cls-5" d="m161.32 196.42 18.14-12.09 28.91-6.32.66 27.8-51.47 19.39 1.69-13.6.16-.54 1.91-14.64z"/><path class="cls-11" d="m161.32 196.42-42.88 7.16-3.73 20.81 42.85.81 1.63-12.47.06-1.13 2.07-15.18z"/><path class="cls-21" d="m161.32 196.42-.02 2.9-.74 2.9-1.77-1.65.98 4.33-.28.49-2-6.77-.41.57 1.56 7.66-.29 8.73.42.56-.3 2.13-.66 1.19.3-2.1-2.35 4.27-.28-.33 2.24-6.02.61-5.67-1.57-8.5-1.59-2.98-.28 1.13.18.84.72 4.3-.78-1.69-.29-2.67-.4-1.05-.37 1.7-.8-2.96 8.17-1.31z"/><path class="cls-21" d="m159.57 206.15.12 2.71.24-1.82-.15-1.34-.21.45zM152.87 197.86l-11.6 1.91-.56.92.47.35-.21.78.25.44-.51 1.49.42.65-1.04 3.2.11 1.97 2.17-4.49 2.17-1.96.98-2.95-.44 2.3.43-.07-.02.9.37.02.45.14.28-1.25.15 1.41-.42.93.3.07.41.99.73.28.25-1.58-.02-1.29.96-1.63 1.02-.42.12-.87.59.41.98-.12.08-.48.89.19.31-.61-.07-1.63z"/><path class="cls-21" d="m148.65 200.63.33 1.85-1.03 2.22-.19 1.19.23.8-1.2 1.01-.92 3.02.66-.87.17 1.59.94-3.43 1.14 1.11.66-.32.3 1.41.47-.64.21 1.9.44-.54.16 1.96.26-1.1-.36-1.47.82.9-.72-3.97.89 2.97.26-2.76.69 1.67.52-.29.65-2.12-.65.03.28-1.49-1.09-.42.28-2.73.9-.05-.63-1.09-1.46-.58-1.79-1.07-1.22 1.31zM146.19 211.29l-.17 2.19 1.72 3.21-1.55-5.4zM150.7 213.1l.39.43-1.62 1.69-.03-.77 1.26-1.35zM153.66 208.98l.42.42-.31 3.08-.52-1.04.41-2.46z"/><path class="cls-21" d="m152.14 209.97.61 1.3-.44.55.25 1.28-.4 1.05-.16.78-1.21 1.99-.02-.89 1.1-2.72-.13-2.09.4-1.25z"/><path class="cls-21" d="m150.77 216.03-.33-.45-1.48 1.01-.63 1.26.77-.66-.67 1.14-.9 1.98 1.1-.94.51-1.39.54-.43-1.8 3.74-.66.08.12.93.61.13-.26.43.6.11.03-.49.54.07.86-.65.47.01.37-2.24-.59-.54.22-1.73.6-.48.37-.88-.39-.01zM153.25 213.57l-.43.51.53.96-.1-1.47zM153.5 215.5l-.57.04-.43 1.09.33.46.53-.76.32.21.36-.94-.52.33-.02-.43z"/><path class="cls-21" d="m152.5 216.63-.61 1.22-.48.32-.85 1.5-.86 1.1.49 1.14-1.21 1.19v1.94l5.75.1.11-.89.34.9.6.01v-.8l.53.81.97.02-.53-.9-4.98-.67.72-2.74-.73.27 1.64-2.5-.6.33.6-1.23v-.71l-1.2 1.4.63-1.35-.02-.86-.31.4z"/><path class="cls-21" d="m151.74 221.7 1.53-.11.08.59.47.43 1.66-1.31.69-.41-.41.74-.4 1.94 1.74-1.47.12.56-1.01 1.07.75.03.99-.89-.39 2.33h-.45l-1.1-.91-4.51-.45.24-2.14z"/><path class="cls-21" d="m157.84 221.28-.44.52-.13.45.52.18.05-1.15zM146.02 213.48l.32 2.61.59.11.17.38.64.11-1.43-4.05-.29.84zM148.98 223.1l-1.03-.67-.77.33.16-.46-.12-.93-.65-.78-1.5.75-.53-2.52-1.19-.08-1.01-2.15-.81-.79-.19 1.26 1.15 5.46.91.84.51-.19.23.22 5.11.27-.27-.56z"/><path class="cls-21" d="m148.34 223.44-.07.56-.85.11-.37-.91-2.75-.38-.16.57-.74-.03-.63-.12-.28-.72-.07-2.45-1.08-3.01-.28-.39-.09.52-.44-.2.01.65-.75-.39.24 1.6-.4 2.02.92.05.31.82.63.48.09.47.74 1.35.18.87 7.18.14.07-1.81-1.41.2z"/><path class="cls-21" d="m139.63 220.87.69 1.67 2.42 2.14-.66-1.74-.96-.49-1.06-2.04-.43.46z"/><path class="cls-21" d="m142.39 224.38-.53.29-.13-.29-.76.05v-.37l-1.34-1.63v-1.56l.83-1.86-.67-1.76.07-.47.33.16.34-1.21.53-.62.06-.73.13.37.16.56.22-1.64-.43.34-.43-.59.11.45-.38.07.2.4-.43.39.05.68-.22-.07-.99 1.76-.63.01-.44-.7.37 1.91-1.21-2.2 1.13 3.22.44 3.51.76 1.39-1.18-1.37.06.4-.7-.96-.04-.88-.7-1.71-.78-1.73-1.41-1.42.07.48 1.39 2.3.06.73.41.58.13.43-.17.44-1.29-2.74-1.75-2.24-1.98-.4-.09.62.53.69-.56.41.18 1.06-1.2.86 3.23.28.61.88.52.14 1 1.62.53-.3.6.39 1.14.48.69 1.57 4.46.08-.39-.74-.51.19zM148.15 217.02l-.72.32.31 1.27.41-1.59z"/><path class="cls-21" d="m139.72 214.41-.25 1-.83 1.42-.04-.38.68-1.4.44-.64zM139 214l-.03 1.09-.23.72-.31.73-.32-.97.42.18.2-.73.27-1.02zM137.41 215.59l.59.26-.15.58-.44-.84zM137 214.5l.03 1.02.58-.6-.61-.42zM134.82 215.42l.07-.43.93.71 1.75 2.78.53 3.06-.38-.35-.75-2.36-2.15-3.41zM133.44 215.62l.65-.11.53.67-.01.55-.44-.64-.42-.08.11-.32-.42-.07zM136.17 222.02l.49 1.09 1.87.35.3 1.39-1.13-.83-.22.15.64.66-1.59-.03.42-.56-.45.05.37-.62-1-.96.03-.8.27.11z"/><path class="cls-21" d="m177.36 219.4 1.23-.14.45 1.09 2.84-.16 1 .69 1.67-.57 1.92 1.13v-1.28l2.9-.45 1.53 2.27-1.17-.69.09 1.55-4.47-.82.87.91-3.24.19s-.7.94.24.79l.93-.14.26 1s.52-2.09.81-1.23l.29.86h1.86v-.9l3.19 1.45-1.56-1.77 1 .16 1.57 1.53 1.12-.08v.51l-19.32-.36 4.29-.71 1-.37-.76-.38-1.57.48 1.45-1.42-2.33.5.48-.84 1.64-.69-.41-.47-1 .46v-.63l-1.78 1.78-.24.65-.7-.41.35-1.46-.75.59-.66-1.18.92-3.4.54.06.19-.93.8.35.11.46.77-.5.13 1.48.46-.86.53.33 1.14-1.57.94 1Z" transform="translate(-56.17 -.5)"/><path class="cls-21" d="m126.01 219.12.33-.86 3.12.37-.88.89-2.57-.4zM123.02 211.91l3.12 2.69 1.88 2.51-.19.53-3.2-2.06-2.07-3.25.46-.42zM116.78 212.86l-.35 1.94 4.97.58.08-.52-1.71-.27-.35-.68-1.08.33-.14-.8-1.02.73-.4-1.31zM117.72 207.63l.69-.16.84 1.37-.97-.46-.25.93-.63-.06.32-1.62zM124.22 209.97l.48-.07.88 2.07 1.18 1.51.49.99-.15.22-1.48-1.74-.61-1.54-.38.2-.41-1.64zM122.88 208.63l-.17 1.04 1.45 2.64.2-.29-.01-.74-1.47-2.65z"/><path class="cls-21" d="m124.52 212.36-.13 1.36.69.6-.01-1.32-.55-.64zM128.01 216.09l-.38 1.42 1.3.24.73-.88-1.25.28-.4-1.06zM130.36 216.18l.12.86 1.48-.14-.56-.93-1.04.21zM128 214.38l-.62.84.73.14-.11-.98zM118.44 203.58l6.52-1.08.44 1.22-.52.89-.46-.78-.19 1.27-.96-2 1.06 5.22.31 1.29-.76-.87-.02 1.2-.62-1.73-1.14-3.38-.48 1.3-1.84-1.81.04 1.05 2.4 1.73.58 1.19-.39.91-1.2-1.65-1.43-.53-.9-.88.38 1.25.5 1.04-1.87-1.76.55-3.09zM139.72 207.67l.22.58-1.81 2.25-.37 1.45-.49.24-.51 1.67-1.01.06 1.79-3.6.23.19.33-1.18 1.62-1.66zM125.6 202.39l4.97-.83 1.17 1.19.8.13-.42.6.87 1.87-1.13-.53-.36.38-1.14-.76-1.06-.63 1.72-.19-1.68-.31-.37.29.06-1.35-1.25-.01v.64l.62.38-.1.75.45-.2.13 1.34-.21.71.58.62.32.62.85 1.09.01.56.58.07.38.37.18 1.24.74-.05-.12.78-1.36.07-1.25-1.69-.92-.56.25-.78-1.27-.75.24-1.02-.86-.88-.08-.68-.68-.4.12-.75-.78-1.33zM126.02 205.9l-.2 1.26-.32 1.36 1.64.31-.05-1.56-1.07-1.37z"/><path class="cls-21" d="m129.23 205.37 1.41 1.53 2.53.94.6 1.15v1.07l-1.65-1.1-1.11-1.09-1.03-.62-.73-1.13-.02-.75z"/><path class="cls-21" d="m130.31 205.31 1.08 1.59 2.12.54 1.35 1.46-.28-1.57.31-.56 1.57 1.68.03-1.26-3.5-1.84-.41.48-.72-.3-.37.61-.57-.86-.61.03zM137.22 207.1l-.22 1.32 1.52-.58v-.87l-1.3.13zM139.09 206.81l-.25.69.63-.23-.38-.46zM131.35 201.43l2.02-.34 2.79.51 2.4-1.38 2.1-.35.05.82.26 1.13-.94.28.45.5-.13.27-.97-.28.61.42-.58.56-.27-.05.14.69.42.4-.48.53-.47-.6-.1 1.68-2.44-.45-.37-.69-.47.37-1.34-.25-.29-.52-.75.67-1-1.18.98-1.54-.34-.28.43-.6-.88.11-.83-.43z"/><path class="cls-11" d="m151.03 202.13-2.01 2.27.5 2.95.52-1.87 1.57.29-.58-3.64zM150.51 198.6l-2.41 1.03 1.87 1.34.54-2.37zM133.37 201.09l5.19-.87-.11.49.15.61-.45.74.37.78-.75.91-.92-.72-2.12 1.2.21-1.12-.79-.22.79-.84-1.57-.96zM76.47 209.28l30.62-5.65 6.02 18.96-14.76 6.14-20.56-9.15-1.32-10.3z"/><path class="cls-9" d="m76.47 209.28 21.88 19.45-14.56 10.77-13.25-7.69 5.93-22.53z"/><path class="cls-2" d="m106.43 213.66 2.97 11.29 5.31-.56 2.36-13.13-4.91-1.78-5.73 4.18z"/><path style="fill:#a587b8" d="m104.74 208.36 2.07-6.17 7.18-1.64 4.45 3.03-1.37 7.68-10.64 2.4-1.69-5.3z"/><path class="cls-9" d="m175.5 186.97 1.19-.79 2.69 2.21-3.38 6.05-.46-.3-.04-7.17zM182.3 186.4l-.44.56 2.18 3.6.18-1.07-1.39-1.95.17-1.02-.7-.12zM185.28 190.24l1.07 1.73-.37-1.78-.7.05zM189.52 193.28l-.29 1.24.74.39-.45-1.63zM184.87 191.32l2.33 1.97-.09.76-1.2-.84-1.04-1.89zM182.63 190.7l.62 2.19-1.78 3.64-2.43-1.34 3.59-4.49zM179.55 189.06l-.37.68.17.55.55-.37-.35-.86z"/><path class="cls-9" d="m179.91 190.77.26 1.55-.79 1.22 1.03.19-.39.78-1.61-1.13 1.5-2.61zM183.07 191.53l1.09.4-.09.61-1.32-.24.32-.77z"/><path class="cls-9" d="m240.51 193.7.69 2.7 2.2.89-.18.75h-1l-.61.61 2.09 1.29.56-.38.69.44s-.91.49-.26.61l.64.12.16-1-.38-.63-1.34-.31.9-.28-.63-1 .45-.24 3.12 2.12-.25-3.11-1.31-.46-.6.5-1.88-1.53.55 1.35-1.19.42-.86-1.48Z" transform="translate(-56.17 -.5)"/><path class="cls-9" d="m190.06 199.44.88-.08-.46.89-.42-.81zM189.89 200.48l.02.93h.69l-.22-.68-.49-.25zM173.53 189.72l-2.34 1.91 2.04 3.64-.42-2.88 1.51.28-1.5-1.62.71-1.33zM169.7 197.2l.23.5 3.59-.13.3-.52-4.12.15zM162.43 201.04l1.54-1.96.73.26-1.61 2.25-.66-.55zM165.97 198.64l.13.83 2.06-.29-.82-.79-.76.07-.2.54-.41-.36zM168.43 199.14l-.21-.52.66-.29.59.17-1.04.64zM171.2 198.72l4.67-1.45.45-.62 3.3.08 7.86 3.3 3.14 2.56.11.64 1.79 2.6.3 1.69-1.86-1.75-1.22-.14-1.29-.96 3.91 4.31-.21.53-.88-1.05-.41.54.79 1.14-1.11-.21-.31.58-.16.81-1.72-3.21.11-.65-2.46-7.22-2.95-1.16-1.17-.52-3.04-.93-7.64 1.09z"/><path class="cls-9" d="m171.2 198.72-.08.47 1.62-.07 3.54-.66 2.33 1.47.49-.21.51.67 1.01.46 3.91 2.77 4.2 3.95-1.6-5.19-1.38-.03-.07-.56 1.3-.1-.85-1.07-5.52-1.4-.59.17-2.3-.93-.33-.3 1.15-.09 1.09.37.08-1.17-2.57.17-5.94 1.28z"/><path class="cls-9" d="m186.37 205.84.47.36.96 3.69.7.13-.39 3.05-.49.79-.15-.57-.53-.44-.16 1.66-.36-.06-.55-5.09-.34-.07-1.56-3.97v-.91l.3.62.48.73.15-.29-.37-.72.18-.28.79.37.31 1.3.56-.3zM162.81 196.25l.32-.51 3.43-1.19.09-.75 2.87.28.77.48-.53.18-.39.58 1.57.1-.04.38-4.76.82-.05.37-3.66 1.83-.85.05.56-.35.67-.55-.28-.14-.66.42-.27-.18.31-.85 1.21-.4-.31-.57zM191.51 210.67l.75.32-.15.86-.6-1.18z"/><path class="cls-9" d="m173.39 199.36.44.33.24 1.19.51-.87 2.01 3.38-1-2.73 1 .92-.05-.79.89.26-.14-.89.28-.01 1.06 1.9.27-.2-.84-1.81.55-.11 1.08 1.85.59-.14.28.37 1.42.64.96 1.35.1.59.46.81 1.83 4.51.24 2.87-.86.68-1.94-2.64v.68l.61.79-.41.15.25.54-.22.43-1.64-4.73-1.1-1.42.23 1.76.55 1.22.15 1.69.36.39-.21.44.54.84-.74 2.72-1.23-4.25-.33 3.23-.66-3.9-.37.33.04-2.92-.6-.53-.67-.07-2.98-3.68-1.12-4.15.17-1.02z"/><path class="cls-9" d="m182.91 214.53.83-.15-.18 1.13-.65-.98zM167.77 199.85l1.1-.28.56.19.83-.17.34.68.81-.01.58 1.13.7.64.6 1.92 1.55 3.54.6.4.3.43 1.88.84.56 1-.75 1.27-1.15.94-.25 1.16.24 1.15.1 1.58 1.22 1.3-.78.74-.63-.31-.52.09-.46-.54-.25.41-1.35-.4-1.42-2.18.67-.95 1.43-2.04-.19-.77-1.84 1.8-.84-.42-.06-2.43-1.29-.43.52-1.74-.2-.6-.08-.52.78-.22-.01-1.1-.15-.91.28-1-.5-1.2-.52-.82-1.54-1.1-.87-1.07z"/><path class="cls-9" d="m169.23 211.86.42.52.5.29.11 1.07.98.72.28-.08.66.99 1.41 1.06-.7.95-.87-1.43-1.3-.36-.44-.77-.8-.38-.02 1.16-.58.69.34 1.44-.6 1-1.06-2.34.17-1.05-.15-.81.86-.84.86.22.01-.76-.88-.56.36-.15.44-.58z"/><path class="cls-9" d="m171.17 204.96-.77-1.37-.95-.48-1.03 1.82-.18.94-.8.64-.85 1.33-.19 1.64-.65.81-.17 1.53-.16.57.04 1.54-.21 1.27-.7.13-.41-1.25-.54-1.01-.01-.68.65-1.7.49-.71.08-.66-2.17-1.46-.11 1.62-2.24 4.01-1.25.42.12 1.56.72-.28-.17.92-.64-.12.46.81.54-.24.24.41.84-.21.5-1.11.44.3.68-.45.9.36-.84.39.6 1.1-.65.13.62.64-.7 1.17 1.57.29.97-1.62 1.21-.93 1.05-3.94.56-.51v-1.02l.55.01.6-2.85 1.18-2.36.68-.41 1.05.2-.95-1.19zM158.67 216.74l2.12 1.7-.32.62-1.93-1.35.13-.97z"/><path class="cls-9" d="m159.99 212.68.5-1.03-.61-1.25 1.16-2.89-1.11-.47-.68 4.56.74 1.08zM160.91 205.14l.63 1.38 2.39-3.07 1.69-1.06-1.88-.34-.52.24.47.9-.78-.29-1.18 1.16-.82 1.08zM164.33 201.6l1.51-1.44-.09 1.4-1.42.04zM168.31 200.07l-1.09 1.15.33.74-.8-.15.04 1.12-1.14.17-1.9 2.96 1.04 1.4-.65.97.49.04.72.87.29-1.72.52-.7.21-1.72 2.1-2.09 1-2.61-1.16-.43z"/><path class="cls-10" d="m190.2 193.04 5.93 26.58 34.32-27.13 6.85-30.85-18.17-14.95-39.67 37.64 10.74 8.71z"/></g></svg>