<svg id="Layer_1" data-name="Layer 1" xmlns="http://www.w3.org/2000/svg" viewBox="0 0 400 400"><defs><style>.cls-1,.cls-24{fill:#2b2b2b;}.cls-1,.cls-10,.cls-11,.cls-12,.cls-13,.cls-14,.cls-15,.cls-16,.cls-17,.cls-18,.cls-19,.cls-2,.cls-20,.cls-21,.cls-22,.cls-23,.cls-24,.cls-3,.cls-4,.cls-5,.cls-6,.cls-7,.cls-8,.cls-9{fill-rule:evenodd;}.cls-1{opacity:0.1;}.cls-2{fill:#444648;}.cls-3{fill:#5e5e5f;}.cls-4{fill:#54af8a;}.cls-5{fill:#3f8e6f;}.cls-6{fill:#35785e;}.cls-7{fill:#44622d;}.cls-8{fill:#5a753d;}.cls-9{fill:#a8836c;}.cls-10{fill:#d0ae95;}.cls-11{fill:#dddddc;}.cls-12{fill:#372614;}.cls-13{fill:#eaeceb;}.cls-14{fill:#d8e156;}.cls-15{fill:#b7c644;}.cls-16{fill:#738c57;}.cls-17{fill:#bc8f2d;}.cls-18{fill:#e1a940;}.cls-19{fill:#e4c723;}.cls-20{fill:#eed2c1;}.cls-21{fill:#2d1f14;}.cls-22{fill:#4f3e2e;}.cls-23{fill:#f6e5db;}</style></defs><title>diplomats_ENFJ_famous_real_ben_affleck</title><polygon class="cls-1" points="129.72 385.06 214.08 373.66 296.37 387.34 213.6 400.11 129.72 385.06"/><polygon class="cls-2" points="151.47 382.12 202.06 381.98 202.06 375.49 195.26 372.03 162.95 372.03 151.47 375.49 151.47 382.12"/><polygon class="cls-2" points="234.68 391.13 271.79 391.13 271.79 384.32 266.8 380.68 243.1 380.68 234.68 384.32 234.68 391.13"/><polygon class="cls-3" points="176.49 359.04 151.47 375.49 202.06 375.49 201.83 359.06 196.96 355.59 180.38 355.59 176.49 359.04"/><polygon class="cls-3" points="245.63 363.26 240.16 366.84 234.68 384.32 271.79 384.32 264.56 366.84 259.45 363.69 245.63 363.26"/><polygon class="cls-4" points="151.89 272.38 176.49 359.04 187.54 359.04 190.65 355.62 180.59 284.08 164.22 274.41 151.89 272.38"/><polygon class="cls-5" points="180.59 284.08 175.91 285.43 187.54 359.04 201.83 359.06 206.31 301.96 198.74 294.16 180.59 284.08"/><polygon class="cls-5" points="210.39 295.23 206.31 301.96 240.16 366.84 253.4 366.84 256.21 361.67 239.35 283.17 210.39 295.23"/><polygon class="cls-4" points="253.4 366.84 235.96 285.41 251.47 277.24 258.8 279.05 264.47 366.84 253.4 366.84"/><polygon class="cls-6" points="187.61 254.56 200.36 254.56 207.59 271.57 229.37 271.8 258.8 279.05 206.31 301.96 151.89 272.38 157.42 267.93 179.53 268.74 187.61 254.56"/><polygon class="cls-7" points="153.17 182.84 160.33 177.5 176.55 151.24 179.01 139.44 154.37 98.1 148.44 100.12 135.74 119.23 134.97 130.85 153.17 182.84"/><polygon class="cls-8" points="179.01 139.44 196.96 149.22 196.11 154.08 160.82 183.25 153.17 182.84 179.01 139.44"/><polygon class="cls-8" points="119.69 87.21 121.7 81.15 134.03 74.67 140.3 74.5 154.37 98.1 134.97 130.85 119.69 87.21"/><polygon class="cls-9" points="188.62 138.71 196.17 136.43 249.05 144.19 245.49 150.62 218.04 157.69 208.03 157.69 192.81 146.96 188.62 138.71"/><polygon class="cls-10" points="263.53 59.73 257.16 61.46 242.61 108.55 252.72 118.2 244.08 134.46 235.34 132.97 240.28 147.51 238.99 152.29 241.06 159 246.28 161.78 278.42 117.78 279.63 105.93 270.03 88.27 274.69 70 263.53 59.73"/><polygon class="cls-11" points="251.84 154.17 240.28 147.51 239.34 157.26 249.31 168.39 255.93 167.14 251.84 154.17"/><polygon class="cls-12" points="252.72 107.66 240.33 112.61 229.99 132.45 240.28 147.51 270.98 101.53 272.01 91.03 268.56 87.62 252.72 107.66"/><polygon class="cls-7" points="271.79 175.96 265.84 183.65 259.34 236.39 262.83 247.07 268.87 255.26 274.79 254.74 290.16 234.5 290.27 226.01 271.79 175.96"/><polygon class="cls-11" points="188.63 172.66 185.66 179.51 194.84 214.04 203.34 215.26 232.66 182.72 233.02 174.64 230.97 169.07 219.5 162.99 204.62 162.18 191.86 167.45 188.63 172.66"/><polygon class="cls-13" points="207.61 162.34 203.47 166.84 193.29 208.23 194.84 214.04 203.34 215.26 208.67 209.34 218.19 168.56 215.04 162.75 207.61 162.34"/><polygon class="cls-7" points="126.41 240.31 118.3 243.21 151.89 272.38 157.42 267.93 161.67 242.81 126.41 240.31"/><polygon class="cls-8" points="228.42 276.84 258.8 279.05 271.79 175.96 246.28 161.78 244.16 170.69 253.94 197.02 234.61 247.11 228.42 276.84"/><polygon class="cls-14" points="188.63 172.66 199.09 207.56 203.34 215.26 200.79 247.67 193.99 254.56 183.05 274.2 151.89 272.38 156.14 247.67 159.54 226.6 181.27 176.53 188.63 172.66"/><polygon class="cls-15" points="233.02 174.64 199.09 207.56 193.99 254.56 203.41 275.38 228.42 276.84 234.61 247.11 236.5 177.98 233.02 174.64"/><polygon class="cls-8" points="153.17 182.84 156.57 187.3 159.54 226.6 156.14 247.67 118.3 243.21 153.17 182.84"/><polygon class="cls-16" points="153.17 182.84 184.63 159.34 189.49 159.55 191.86 167.45 188.63 172.66 156.14 247.67 153.17 182.84"/><polygon class="cls-16" points="246.28 161.78 263.82 200.05 228.42 276.84 233.02 174.64 236.76 166.31 246.28 161.78"/><polygon class="cls-5" points="240.28 147.51 220.77 154.08 216.94 158.94 230.97 165.42 246.28 161.78 240.28 147.51"/><polygon class="cls-6" points="233.02 174.64 218.19 168.56 216.94 158.94 246.28 161.78 233.02 174.64"/><polygon class="cls-5" points="192.81 146.96 205.89 154.08 207.59 158.94 194.41 162.59 184.63 159.34 192.81 146.96"/><polygon class="cls-6" points="188.63 172.66 184.63 159.34 207.59 158.94 203.47 166.84 188.63 172.66"/><polygon class="cls-4" points="205.89 154.08 203.47 166.84 218.19 168.56 220.77 154.08 205.89 154.08"/><polygon class="cls-8" points="290.27 226.01 268.87 255.26 286.9 279.69 292.2 280.08 304.53 273.19 305.46 267.14 290.27 226.01"/><polygon class="cls-17" points="105.91 58.9 114.61 72.69 119.58 73.05 129.36 44.69 126.38 42.26 106.13 52.76 105.91 58.9"/><polygon class="cls-10" points="98.99 47.72 100.45 52.79 105.91 58.9 117.88 51.98 127.66 31.72 98.99 47.72"/><path class="cls-17" d="M131.83,20.33l-4.17,11.39-1.81,3.74,7.33,14.09,4.68.81,11.06-1.62V41.45L139.56,24S131.7,20.56,131.83,20.33Z"/><polygon class="cls-18" points="131.83 20.33 148.92 48.74 160.4 40.64 148.49 24.83 131.83 20.33"/><polygon class="cls-19" points="146.82 13.04 131.83 20.33 160.4 40.64 156.57 24.43 146.82 13.04"/><polygon class="cls-18" points="159.98 20.13 146.82 13.04 160.4 40.64 162.52 27.27 163.37 23.62 159.98 20.13"/><polygon class="cls-17" points="163.02 14.45 159.98 20.13 162.52 27.27 169.32 27.27 170.18 19.97 163.02 14.45"/><polygon class="cls-19" points="171.94 9.59 163.02 14.45 169.32 27.27 178.32 23.39 179.53 14.3 171.94 9.59"/><polygon class="cls-20" points="137.86 50.36 127.66 31.72 113.84 45.31 117.88 51.98 124.68 47.93 114.61 72.69 119.58 73.05 131.06 66.97 137.86 50.36"/><polygon class="cls-11" points="114.61 72.69 132.99 62.25 140.3 74.5 119.69 87.21 114.61 72.69"/><polygon class="cls-19" points="79.37 49.91 98.99 47.72 110.81 56.07 108.05 62.52 97.89 63.32 89.82 62.11 83.21 57.8 79.37 49.91"/><polygon class="cls-18" points="94.92 71.43 97.89 63.32 110.81 56.07 114.61 72.69 102.19 86.37 97.89 81.96 94.92 71.43"/><polygon class="cls-17" points="83.44 74.67 79.37 49.91 97.89 63.32 102.19 86.37 83.44 74.67"/><polygon class="cls-21" points="180.97 39.14 188.94 42.58 219.56 39.19 231.89 35.55 198.3 16.1 179.53 14.3 180.97 39.14"/><polygon class="cls-22" points="179.53 14.3 220.77 35.89 224.96 38.53 242.43 44.44 247.36 42.47 247.62 29.87 229.34 10.43 214.03 -0.11 179.53 14.3"/><polygon class="cls-12" points="306.04 57.64 284.75 19.67 265.05 26.23 247.36 42.47 258.98 48.89 288.89 60.73 306.04 57.64"/><polygon class="cls-21" points="263.23 48.17 267.48 47.44 306.04 57.64 295.47 83.23 282.1 84.56 270.98 101.53 264.04 61.48 260.66 56.59 263.23 48.17"/><polygon class="cls-9" points="278.42 117.78 270.98 101.53 279.66 100.86 285.06 108.69 278.42 117.78"/><polygon class="cls-20" points="180.97 39.14 171.45 103.04 177.78 121.5 224.86 125.18 252.72 107.66 267.48 47.44 220.77 35.89 180.97 39.14"/><polygon class="cls-20" points="278.81 76.96 270.98 101.53 285.06 108.69 295.55 83.17 278.81 76.96"/><polygon class="cls-9" points="282.97 85.57 289.1 88 279.95 96.81 282.97 85.57"/><polygon class="cls-9" points="198.3 86.62 203.85 94.16 213.56 86.79 205.74 83.81 198.3 86.62"/><polygon class="cls-10" points="206.21 73.9 198.3 86.62 192.51 67.6 184.01 62.2 192.04 59.07 204.3 63.78 205.65 68.28 206.21 73.9"/><polygon class="cls-10" points="210.94 74.35 213.16 68.57 219.5 63.77 234.89 61.37 244.47 65.4 228.51 70.83 213.56 86.79 210.94 74.35"/><polygon class="cls-23" points="205.65 68.28 198.3 86.62 213.56 86.79 213.16 68.57 205.65 68.28"/><polygon class="cls-21" points="204.07 60.95 204.3 63.78 191.43 60.59 184.01 62.2 190.97 57.77 204.07 60.95"/><polygon class="cls-21" points="219.99 60.75 219.5 63.77 236.11 62.94 244.47 65.4 236.78 60.02 219.99 60.75"/><polygon class="cls-10" points="215.53 51.97 216.48 59.75 219.5 63.77 213.8 61.09 215.53 51.97"/><path class="cls-24" d="M193.57,72.13a3.6,3.6,0,1,0-3.78-3.6A3.69,3.69,0,0,0,193.57,72.13Z"/><path class="cls-24" d="M227.77,74.85a3.61,3.61,0,1,0-3.78-3.6A3.7,3.7,0,0,0,227.77,74.85Z"/><polygon class="cls-6" points="192.05 219.09 198.43 213.62 204.28 220.2 197.17 225.23 192.05 219.09"/><polygon class="cls-6" points="188.91 244.12 195.7 238.75 201.17 245.23 194.44 250.4 188.91 244.12"/><polygon class="cls-9" points="193.44 102.73 218.04 103.31 223.4 101.47 224.5 104.22 218.68 106.3 193.12 105.09 193.44 102.73"/><path class="cls-22" d="M171.45,103l10.57,7,4.8-13,17-3,24.24,4.21-1.46,15.83,26.09-6.54-16.43,28.12-5.68,3.48-41.69-7.14-17.51-5.43,0-23.65Zm52-1.57-33.18-.69-4.12,11.55,5.06,3,5.5-6.07,11.7,0L210,116.5l11.52-1.06Z"/><polygon class="cls-21" points="188.62 138.71 171.41 126.69 236.29 135.78 240.28 147.51 188.62 138.71"/><polygon class="cls-10" points="222.64 93.07 232.63 103.25 230.57 95.52 222.64 93.07"/><polygon class="cls-9" points="302.5 289.26 293.48 288.59 291.44 299.39 299.95 302.63 312.7 295.74 302.5 289.26"/><polygon class="cls-10" points="291.44 299.39 296.86 298.29 320.14 297.16 320.63 305.74 292.93 310.53 291.44 299.39"/><polygon class="cls-20" points="298.25 281.97 293.48 288.59 307.6 292.5 296.86 298.29 299.17 304.44 320.14 297.16 319.29 287.84 309.63 278.46 298.25 281.97"/><polygon class="cls-11" points="286.9 279.69 293.48 288.59 309.63 278.46 305.46 267.14 286.9 279.69"/><polygon class="cls-22" points="284.75 19.67 251.77 10.41 245.5 16.1 244.24 26.28 247.36 42.47 284.75 19.67"/><polygon class="cls-12" points="251.77 10.41 247.36 42.47 214.03 -0.11 251.77 10.41"/></svg>