<svg id="Layer_1" data-name="Layer 1" xmlns="http://www.w3.org/2000/svg" viewBox="0 0 400 400"><defs><style>.cls-1,.cls-11{fill:#2b2b2b;}.cls-1,.cls-10,.cls-11,.cls-12,.cls-13,.cls-14,.cls-15,.cls-16,.cls-17,.cls-18,.cls-2,.cls-3,.cls-4,.cls-5,.cls-6,.cls-7,.cls-8,.cls-9{fill-rule:evenodd;}.cls-1{opacity:0.1;}.cls-2{fill:#709c52;}.cls-3{fill:#98c16c;}.cls-4{fill:#a8836c;}.cls-5{fill:#f6e5db;}.cls-6{fill:#d0ae95;}.cls-7{fill:#eed2c1;}.cls-8{fill:#906a59;}.cls-9{fill:#bfda8e;}.cls-10{fill:#474748;}.cls-12{fill:#9ecd7e;}.cls-13{fill:#3f8e6f;}.cls-14{fill:#74c7a5;}.cls-15{fill:#35785e;}.cls-16{fill:#b7c644;}.cls-17{fill:#738c57;}.cls-18{fill:#c3c3c3;}</style></defs><title>diplomats_INFP_famous_real_bjork</title><polygon class="cls-1" points="129.89 391.45 196.53 382.81 263.11 390.93 198.05 400.02 129.89 391.45"/><polygon class="cls-2" points="186.24 370.14 192.06 369.2 187.94 389.33 183.35 378.1 186.24 370.14"/><polygon class="cls-3" points="150.61 388.77 161.94 376.96 169.16 374.71 185.09 359.14 192.06 369.2 174.9 389.58 150.61 388.77"/><polygon class="cls-4" points="161.94 376.96 174.9 389.58 185.09 359.14 177.4 353.57 169.66 359.43 161.94 376.96"/><polygon class="cls-5" points="279.65 280.27 285.58 275.72 282.97 268.22 266.85 260.99 265.87 273.39 270.53 280.32 279.65 280.27"/><polygon class="cls-6" points="272.64 291.43 266.85 260.99 258.82 266.72 259.46 277.22 260.94 285.62 269.73 292.41 272.64 291.43"/><polygon class="cls-7" points="279.65 280.27 282.97 268.22 290.86 274.13 298.93 280.17 279.65 280.27"/><polygon class="cls-4" points="165.59 311.01 152.52 310.03 168.14 355.05 176.98 357.61 185.13 354.47 186.59 323.84 182.16 318.27 165.59 311.01"/><polygon class="cls-4" points="218.22 348.83 193.91 322.93 197.18 316.68 212.97 308.58 220.64 308.24 231.37 338.05 226.28 346.04 218.22 348.83"/><polygon class="cls-8" points="186.6 323.84 186.99 315.56 180.98 311.42 164.38 308.18 152.52 310.03 186.6 323.84"/><polygon class="cls-8" points="193.91 322.93 186.99 315.56 189.89 310.18 210.54 305.34 220.64 308.24 193.91 322.93"/><polygon class="cls-9" points="185.13 354.47 168.14 355.05 169.66 359.43 185.09 359.14 185.13 354.47"/><polygon class="cls-10" points="130.65 80.13 147.3 30.82 121.23 27.59 111.94 73.09 116.8 96.03 130.65 80.13"/><polygon class="cls-9" points="106.46 263.45 113.28 281.88 119.3 281.12 130.49 258.8 135.9 241.8 106.46 263.45"/><polygon class="cls-4" points="252.66 224.4 244.5 203.35 237.78 207.16 227.19 221.4 225.81 228.16 230.58 234.75 236.71 235.34 249.15 230.3 252.66 224.4"/><polygon class="cls-8" points="225.81 228.16 244.5 203.35 227.55 210.58 220.83 221.28 225.81 228.16"/><polygon class="cls-11" points="233.41 142.97 265.82 130.17 274.81 130.58 251.05 175.01 242.24 171.44 233.41 142.97"/><polygon class="cls-10" points="257.69 95.56 248.5 108.45 236 141.81 238.87 145.67 274.81 130.58 257.69 95.56"/><polygon class="cls-11" points="226.7 106.33 215.07 131.72 225.91 148.81 235.66 154.21 257.69 95.56 249.32 90.97 232.93 92.39 226.7 106.33"/><polygon class="cls-10" points="242.44 28.91 231.84 51.96 232.63 83.8 232.15 97.38 257.69 95.56 242.44 28.91"/><polygon class="cls-11" points="210.66 42.58 214.84 55.34 226.11 93.87 232.15 97.38 242.44 28.91 231.15 26.58 210.66 42.58"/><polygon class="cls-10" points="200.95 9.28 206.45 34.64 216.4 38.95 242.44 28.91 199.76 -0.02 200.95 9.28"/><polygon class="cls-11" points="174.09 41.15 165.59 35.13 177.98 5.77 184.21 2.61 199.76 -0.02 216.4 38.95 208.92 44.67 174.09 41.15"/><polygon class="cls-10" points="142.21 25.61 159.7 5.92 184.21 2.61 170.53 35.82 156.89 39.97 139.14 33.81 142.21 25.61"/><polygon class="cls-11" points="117.91 135.67 107.54 123.52 126.06 68.53 130.18 75.49 135.02 122.62 117.91 135.67"/><polygon class="cls-10" points="107.54 123.52 129.62 119.64 140.48 129.59 149.16 147.04 136.84 155.51 127.37 156.72 107.54 123.52"/><polygon class="cls-11" points="141.18 119.64 129.62 119.64 141.42 152.36 153.04 145.79 156.61 137.86 154.34 128.87 141.18 119.64"/><polygon class="cls-8" points="252.66 224.4 230.58 234.75 245.07 251.72 261.32 260.89 266.85 260.99 252.66 224.4"/><polygon class="cls-12" points="266.85 260.99 230.58 234.74 238.41 253.8 249.15 268.85 259.46 277.22 266.85 260.99"/><polygon class="cls-8" points="124.71 203.23 134.41 211.31 152.26 202.22 136.88 193.62 124.63 184.95 124.71 203.23"/><polygon class="cls-4" points="124.63 184.95 142.37 229.57 141.04 237.52 135.9 241.8 101.08 203.01 124.63 184.95"/><polygon class="cls-8" points="182.62 207.34 204.88 193.32 202.01 184.94 152.94 193.14 145.62 205.61 150.5 229.63 159.26 231.58 176.45 228.55 182.62 207.34"/><polygon class="cls-4" points="213.52 146.91 178.37 157.5 161.94 178.78 162.67 187.78 166.07 194.11 200.63 190.22 210.84 162.97 213.52 146.91"/><polygon class="cls-8" points="170.09 145.47 177.27 147.4 182.78 157.61 182.16 162.28 168.02 179.51 149.97 173.07 148.08 166.93 158.05 150.39 170.09 145.47"/><polygon class="cls-12" points="150.5 229.63 151.58 236.53 159.75 243 169.24 236.72 171.91 226.23 150.5 229.63"/><polygon class="cls-9" points="183.11 242.29 182.13 258.35 154.65 248.51 155.37 241.31 160.99 240.04 171.91 226.23 183.11 242.29"/><polygon class="cls-12" points="194.66 250.05 213.76 237.28 211.97 232.04 196.34 224.56 182.04 223.35 171.91 226.23 182.13 258.35 194.66 250.05"/><polygon class="cls-3" points="230.58 234.74 211.97 232.04 182.13 258.35 192.57 259.22 227.99 245.47 230.58 234.74"/><polygon class="cls-3" points="178.73 203.84 172.02 226.24 211.97 232.04 196.19 211.25 178.73 203.84"/><polygon class="cls-12" points="200.63 190.22 178.73 203.84 211.97 232.04 209.38 204.81 200.63 190.22"/><polygon class="cls-9" points="244.5 203.35 227.88 192.65 200.63 190.22 211.97 232.04 244.5 203.35"/><polygon class="cls-3" points="251.05 175.01 244.5 203.35 200.63 190.22 229.33 175.62 251.05 175.01"/><polygon class="cls-12" points="238.87 145.67 218.14 164.91 200.63 190.22 251.05 175.01 238.87 145.67"/><polygon class="cls-9" points="222.52 148.85 210.36 153.23 200.63 190.22 238.87 145.67 222.52 148.85"/><polygon class="cls-12" points="220.21 128.3 211.82 133.77 210.36 153.23 238.87 145.67 220.21 128.3"/><polygon class="cls-12" points="178.18 153.86 172.4 131.34 156.61 137.86 155.06 150.65 162.75 159.96 178.18 153.86"/><polygon class="cls-9" points="127.37 156.72 156.61 137.86 162.75 159.96 152.3 170.26 134.44 171.72 127.37 156.72"/><polygon class="cls-12" points="124.63 184.95 127.37 156.72 152.3 170.26 142.23 182.43 124.63 184.95"/><polygon class="cls-9" points="145.62 205.61 124.63 184.95 152.3 170.26 168.02 179.51 166.07 194.11 145.62 205.61"/><polygon class="cls-12" points="142.34 189.32 145.62 205.61 155.37 197.52 154.4 189.24 150.99 186.81 142.34 189.32"/><polygon class="cls-13" points="152.94 193.14 145.62 205.61 172.02 226.24 158.6 196.49 152.94 193.14"/><polygon class="cls-14" points="166.07 194.11 158.29 191.68 154.64 189.04 152.94 193.14 172.02 226.24 166.07 194.11"/><polygon class="cls-15" points="157.11 185.41 150.99 186.81 152.94 193.14 158.29 191.68 157.11 185.41"/><polygon class="cls-6" points="142.37 229.57 150.5 229.63 148.07 235.96 141.41 241.01 135.9 241.8 142.37 229.57"/><polygon class="cls-7" points="150.5 229.63 135.9 241.8 154.65 248.51 160.99 240.04 150.5 229.63"/><polygon class="cls-4" points="207.61 132.92 174.44 133.84 170.33 137.26 182.16 162.28 193.87 153.65 207.61 132.92"/><polygon class="cls-6" points="227.99 108.63 210.36 153.23 182.16 162.28 201.4 136.2 177.86 136.93 179 129.18 198.92 114.95 201.43 54.11 226.26 90.66 227.99 108.63"/><polygon class="cls-7" points="203.5 118.36 177.86 136.93 156.61 137.86 129.62 119.64 126.06 68.53 135.11 58.46 161.53 40.17 170.39 35.87 183.48 40.98 208.49 62.09 205.5 67.86 203.5 118.36"/><polygon class="cls-4" points="159.29 107.23 154.01 101.73 157.46 100.32 162.34 101.54 159.29 107.23"/><polygon class="cls-6" points="174.5 78.97 162.34 101.54 159.09 88.53 161.5 79.6 164.46 71.86 178.68 67.86 190.64 70.75 174.5 78.97"/><polygon class="cls-6" points="151.24 72.59 154.21 79.59 156.65 88.13 154.01 101.73 141.61 80 130.37 72.3 139.18 69.03 151.24 72.59"/><polygon class="cls-11" points="216.8 67 205.48 68.32 219.89 94.55 226.18 87.5 225.16 74.01 216.8 67"/><polygon class="cls-11" points="179.22 66.24 190.64 70.75 177.74 69.08 164.46 71.86 165.59 68.62 179.22 66.24"/><polygon class="cls-11" points="130.37 72.3 139.06 67.86 149.74 69.43 151.24 72.59 139.55 70.56 130.37 72.3"/><polygon class="cls-5" points="154.01 101.73 154.21 79.59 161.5 79.6 162.34 101.54 158.16 103.28 154.01 101.73"/><polygon class="cls-1" points="162.75 159.96 152.3 170.26 160.16 174.89 178.18 153.86 162.75 159.96"/><polygon class="cls-16" points="146.08 112.11 158.32 118.98 164.59 118.86 177.79 110.48 161.92 114.83 146.08 112.11"/><polygon class="cls-17" points="160.92 111.87 155.84 112.67 146.08 112.11 161.18 116.12 177.79 110.48 166.61 112.44 160.92 111.87"/><polygon class="cls-4" points="227.99 108.63 219.89 94.55 226.11 93.87 232.15 97.38 227.99 108.63"/><polygon class="cls-7" points="232.15 97.38 229.62 88.94 227.94 86.54 227.67 82.42 225.16 74.01 219.89 94.55 232.15 97.38"/><polygon class="cls-4" points="227.67 82.42 226.26 90.66 229.62 88.94 227.67 82.42"/><polygon class="cls-6" points="140.34 112.51 150.69 103.99 143.08 104.4 140.34 112.51"/><polygon class="cls-6" points="183.02 109.5 167.51 103.28 178.18 103.28 183.02 109.5"/><polygon class="cls-10" points="170.53 35.82 205.48 68.32 225.16 74.01 216.4 38.95 170.53 35.82"/><polygon class="cls-11" points="126.06 68.53 148.93 59.68 170.53 35.82 139.14 33.81 126.06 68.53"/><polygon class="cls-11" points="121.23 27.59 139.14 33.81 159.7 5.92 121.23 27.59"/><polygon class="cls-18" points="167.56 327.22 166.28 328.65 167.78 329.82 168.95 328.32 167.56 327.22"/><polygon class="cls-18" points="169.98 339.02 168.7 340.45 170.2 341.62 171.37 340.11 169.98 339.02"/><polygon class="cls-18" points="165.17 316.72 163.89 318.15 165.39 319.32 166.56 317.81 165.17 316.72"/><polygon class="cls-18" points="172.32 349.86 171.03 351.29 172.53 352.46 173.7 350.95 172.32 349.86"/><polygon class="cls-18" points="203.43 320.64 202.87 322.47 204.72 322.9 205.15 321.05 203.43 320.64"/><polygon class="cls-18" points="210.57 330.33 210.01 332.17 211.86 332.6 212.29 330.74 210.57 330.33"/><polygon class="cls-18" points="217.24 339.19 216.67 341.03 218.53 341.46 218.96 339.61 217.24 339.19"/><polygon class="cls-18" points="112.54 201.66 111.26 203.09 112.76 204.25 113.93 202.75 112.54 201.66"/><polygon class="cls-18" points="118.01 209.35 116.72 210.78 118.23 211.95 119.39 210.45 118.01 209.35"/><polygon class="cls-18" points="124.49 217.65 123.2 219.08 124.7 220.25 125.87 218.75 124.49 217.65"/><polygon class="cls-18" points="130.85 225.34 129.57 226.77 131.07 227.94 132.24 226.44 130.85 225.34"/><polygon class="cls-18" points="238.82 213.64 237.53 215.07 239.04 216.24 240.2 214.73 238.82 213.64"/><polygon class="cls-18" points="242.43 223.34 241.15 224.77 242.65 225.94 243.81 224.44 242.43 223.34"/><polygon class="cls-18" points="246.95 233.58 245.67 235.01 247.17 236.18 248.34 234.67 246.95 233.58"/><polygon class="cls-18" points="179.17 170.87 177.88 172.3 179.38 173.47 180.55 171.97 179.17 170.87"/><polygon class="cls-18" points="173.41 164.08 172.12 165.51 173.62 166.68 174.79 165.18 173.41 164.08"/><polygon class="cls-18" points="189.23 168.59 187.95 170.01 189.45 171.18 190.62 169.68 189.23 168.59"/><polygon class="cls-3" points="135.9 241.8 182.13 258.35 177.99 270.05 148.4 301.74 139.66 307.97 136.73 295.9 133.82 255.88 135.9 241.8"/><polygon class="cls-3" points="186.99 315.56 235.33 305.04 234.24 302.97 191.32 262.55 182.13 258.35 180.49 269.22 183.68 308.92 186.99 315.56"/><polygon class="cls-3" points="269.73 292.41 235.33 305.04 230.57 290.43 228.49 243.42 230.58 234.75 269.73 292.41"/><polygon class="cls-12" points="106.67 293.58 135.9 241.8 139.66 307.97 106.67 293.58"/><polygon class="cls-12" points="186.99 315.56 139.66 307.97 182.13 258.35 186.99 315.56"/><polygon class="cls-12" points="230.58 234.75 182.13 258.35 235.33 305.04 230.58 234.75"/><polygon class="cls-18" points="251.39 243.51 250.11 244.93 251.61 246.1 252.78 244.6 251.39 243.51"/><path class="cls-11" d="M142.61,83.83a3.55,3.55,0,1,0-3.55-3.54A3.55,3.55,0,0,0,142.61,83.83Z"/><path class="cls-11" d="M174.5,83.83A3.55,3.55,0,1,0,171,80.29,3.55,3.55,0,0,0,174.5,83.83Z"/><polygon class="cls-2" points="241.5 361.03 238.2 352.64 241.62 345.08 251.56 363.07 241.5 361.03"/><polygon class="cls-3" points="232.9 342.31 235.94 367.46 222.69 370.14 219.49 385.61 241.37 380.1 241.62 345.08 232.9 342.31"/><polygon class="cls-4" points="222.69 370.14 241.37 380.1 232.9 342.31 222.25 347.44 220.95 352.08 222.69 370.14"/><polygon class="cls-9" points="231.37 338.05 218.22 348.83 220.96 352.08 232.9 342.31 231.37 338.05"/><polygon class="cls-18" points="198.65 165.57 197.37 167 198.87 168.16 200.04 166.66 198.65 165.57"/></svg>