<svg id="Layer_1" data-name="Layer 1" xmlns="http://www.w3.org/2000/svg" viewBox="0 0 400 400"><defs><style>.cls-1,.cls-17{fill:#2b2b2b;}.cls-1,.cls-10,.cls-15,.cls-22,.cls-23,.cls-24,.cls-26,.cls-27,.cls-3,.cls-33,.cls-4,.cls-5,.cls-6,.cls-7,.cls-8,.cls-9{fill-rule:evenodd;}.cls-1{opacity:0.1;}.cls-2,.cls-8{fill:#cfae95;}.cls-19,.cls-3{fill:#4f5253;}.cls-21,.cls-4{fill:#6f7173;}.cls-5{fill:#9d7700;}.cls-6{fill:#846400;}.cls-16,.cls-7{fill:#eed2c1;}.cls-9{fill:#f1bc68;}.cls-10{fill:#e1a842;}.cls-11{fill:#f3d65d;}.cls-12{fill:#e4c728;}.cls-13,.cls-33{fill:#a8836c;}.cls-14{fill:#ab913c;}.cls-15{fill:#cdcdcc;}.cls-18{fill:#f6e5db;}.cls-20{fill:#474747;}.cls-22,.cls-32{fill:#dcdcdb;}.cls-23{fill:#755800;}.cls-24,.cls-29{fill:#c3c3c3;}.cls-25{fill:#737373;}.cls-26{fill:#bb8e2d;}.cls-27{fill:#ebebea;}.cls-28{fill:#a2a2a2;}.cls-30{fill:#806400;}.cls-31{fill:#977700;}</style></defs><polygon class="cls-1" points="89.4 386.96 203.51 367.17 322.39 385.34 234.39 400 89.4 386.96"/><polygon class="cls-2" points="156.58 99.59 150.68 100.1 147.29 72.54 151.54 69.83 156.58 99.59"/><polygon class="cls-3" points="127.68 126.72 130.41 133.56 138.7 125.73 134.14 104.63 122.77 102.49 119.82 111.6 127.68 126.72"/><polygon class="cls-4" points="114.8 113.54 115.24 104.38 122.77 102.49 130.41 133.56 122.64 135.31 114.8 113.54"/><polygon class="cls-3" points="107.37 118.65 105.75 109.98 112.06 107.97 115.24 104.38 119.75 122 122.64 135.31 119.01 133.98 106.07 125.36 107.37 118.65"/><polygon class="cls-5" points="99.71 138.5 99.22 138.45 100.6 132.86 70 140.67 65.07 129.14 80.13 123.57 86.11 124.99 109.34 112.77 113.73 127.48 99.71 138.5"/><path class="cls-6" d="M109.34,112.77c0,.24-3.7,15.18-4.16,15.5s-19.71,4.53-19.71,4.53l-5.34-9.23,22.77-8.42Z"/><polygon class="cls-7" points="108.51 151.07 113.69 143.72 124.33 124.25 119.5 121.01 100.6 132.86 93.48 137.79 96.36 147.72 108.51 151.07"/><polygon class="cls-8" points="100.6 132.86 83.29 137.28 89.28 145.77 96.36 147.72 100.6 132.86"/><polygon class="cls-9" points="144.37 147.95 157.62 192.36 118.82 208.54 106.45 189.24 112.38 175.26 144.37 147.95"/><polygon class="cls-10" points="89.28 145.77 89.4 202.32 118.82 208.54 108.51 151.07 89.28 145.77"/><polygon class="cls-11" points="151.19 97.04 150.16 103.15 152.97 102.98 152.89 96.53 151.19 97.04"/><polygon class="cls-12" points="150.16 103.15 155.9 108.1 156.34 104.66 152.97 102.98 150.16 103.15"/><polygon class="cls-13" points="149.14 80.37 152.16 80.06 152.17 90.89 149.14 80.37"/><polygon class="cls-14" points="156.34 104.66 153.67 99.47 152.93 99.84 152.97 102.98 156.34 104.66"/><polygon class="cls-7" points="109.34 104.63 102.82 125.86 87.25 130.78 80.13 123.57 109.34 104.63"/><polygon class="cls-15" points="165.14 130.2 231.25 128.35 198.56 156.03 175.92 151.19 165.14 130.2"/><polygon class="cls-2" points="234.61 103.75 228.4 117.18 227.44 160.98 200.68 166.74 186.43 73.3 232.75 38.42 251.44 52.01 234.61 103.75"/><polygon class="cls-13" points="166.84 120.49 170.6 137.62 171.55 158.08 196.45 162.67 225.05 118.13 166.84 120.49"/><polygon class="cls-16" points="151.54 69.83 153.67 99.47 159.19 114.26 176.23 134.42 198.43 135.04 225.05 117.33 238.21 40.52 173.16 22.56 151.54 69.83"/><polygon class="cls-2" points="221.44 69.22 205.23 75.96 198.52 98.73 176.54 97.73 169.35 74.99 156.28 69.22 165.55 62.7 180.56 69.83 184.43 74.3 191.31 73.69 195.55 69.83 213.54 62.7 221.44 69.22"/><circle class="cls-17" cx="169.35" cy="74.99" r="3.81"/><circle class="cls-17" cx="205.23" cy="75.96" r="3.81"/><polygon class="cls-17" points="227.76 31.25 256.55 41.31 258.96 56.17 239.27 104.25 239.52 67.17 234.84 57.18 227.76 31.25"/><polygon class="cls-13" points="176.54 97.73 198.52 98.73 186.72 102.81 176.54 97.73"/><polygon class="cls-18" points="176.54 97.73 181.81 90.28 184.43 74.3 191.31 73.69 193.05 90.44 198.52 98.73 176.54 97.73"/><polygon class="cls-17" points="180.56 69.83 179.96 64.03 164.13 61.04 155.19 66.72 156.28 70.22 164.98 65.93 180.56 69.83"/><polygon class="cls-17" points="195.55 69.83 196.19 64.03 213.07 61.04 222.6 66.72 221.44 70.22 212.17 65.93 195.55 69.83"/><polygon class="cls-16" points="231.14 101.59 239.27 104.25 248.92 73.81 239.52 67.17 231.14 101.59"/><polygon class="cls-13" points="239.61 81.02 243.15 81.66 237.52 93.75 239.61 81.02"/><polygon class="cls-11" points="237.39 99.27 237.13 104.83 234.39 105.47 235.62 99.27 237.39 99.27"/><polygon class="cls-12" points="237.13 104.83 233.58 111.27 231.65 108.05 234.39 105.47 237.13 104.83"/><polygon class="cls-14" points="231.65 108.05 232.43 102.01 234.12 102.56 234.39 105.47 231.65 108.05"/><polygon class="cls-19" points="246.78 69.83 210.32 62.32 186.36 18.52 227.76 31.25 234.84 57.18 246.78 69.83"/><polygon class="cls-20" points="186.36 18.52 176.06 22.71 175.56 34.2 207.53 41.42 186.36 18.52"/><polygon class="cls-21" points="175.56 34.2 194.44 62.7 214.71 69.83 209.08 60.04 207.53 41.42 175.56 34.2"/><polygon class="cls-17" points="176.06 22.71 173.41 8.02 190.07 0 218.58 0 244.82 19.26 207.99 12.32 186.36 18.52 176.06 22.71"/><polygon class="cls-19" points="186.36 18.52 190.07 0 173.41 8.02 176.06 22.71 186.36 18.52"/><polygon class="cls-20" points="186.36 18.52 207.99 12.32 244.82 19.26 256.55 41.31 227.76 31.25 186.36 18.52"/><polygon class="cls-17" points="173.41 8.02 155.45 9.8 135.68 43.01 164.25 28.27 173.41 8.02"/><polygon class="cls-20" points="148.88 85.48 138.89 60.56 135.68 43.01 164.25 28.27 173.41 8.02 176.06 22.71 156.28 70.22 148.88 85.48"/><polygon class="cls-17" points="207.53 41.42 227.76 31.25 186.36 18.52 207.53 41.42"/><polygon class="cls-22" points="222.26 259.15 230.21 261.54 227.93 268.68 219.99 266.3 222.26 259.15"/><polygon class="cls-22" points="235.88 262.73 243.82 263.91 241.55 272.25 232.47 269.87 235.88 262.73"/><polygon class="cls-23" points="159.31 237.72 145.1 256.77 147.22 268.1 194.3 290.3 219.99 282.81 230.21 255.58 235.34 232.96 159.31 237.72"/><polygon class="cls-6" points="159.76 359.17 145.1 256.77 161.62 274.9 194.3 290.3 185.49 365.3 170.6 360.54 159.76 359.17"/><polygon class="cls-23" points="159.76 359.17 154.64 323.4 190 326.92 185.49 365.3 170.6 371.25 159.76 359.17"/><polygon class="cls-6" points="194.3 290.3 219.99 282.81 232.47 250.82 242.07 293.07 253.28 368.65 223.4 353.2 224.59 364.11 194.3 290.3"/><polygon class="cls-23" points="229.45 370.06 224.59 364.11 209.82 328.12 248 333.04 253.28 368.65 247.61 377.2 229.45 370.06"/><polygon class="cls-23" points="238.15 267.49 242.69 278.2 242.07 293.07 219.99 282.81 212.97 275.6 238.15 267.49"/><polygon class="cls-24" points="253.28 368.65 224.59 364.11 215.85 385.04 228.33 388.97 260.28 385.04 253.28 368.65"/><rect class="cls-25" x="215.85" y="385.04" width="44.43" height="5.49"/><polygon class="cls-24" points="185.49 365.3 186.62 381.96 152.45 384.34 132.59 381.96 159.76 359.17 185.49 365.3"/><rect class="cls-25" x="132.59" y="381.96" width="54.03" height="4.76"/><polygon class="cls-15" points="181.74 146.68 192.49 158.78 202.38 145.68 218.26 145.68 226.8 244.87 222.26 267.49 212.97 275.6 190.49 263.92 171.23 269.87 163.26 254.39 164.66 157.59 181.74 146.68"/><polygon class="cls-22" points="190.49 263.92 192.43 161.93 174.81 157.62 171.07 163.54 157.62 202.47 160.62 253.69 173.65 269.25 190.49 263.92"/><polygon class="cls-3" points="172.2 155.2 182.27 163.54 190.22 164.73 199.84 164.73 215.99 155.2 208.05 149.25 196.43 158.78 184.54 158.78 179.79 149.75 172.2 155.2"/><polygon class="cls-4" points="194.9 176.82 199.84 164.73 196.43 158.78 184.54 158.78 182.27 163.54 186.68 176.63 194.9 176.82"/><polygon class="cls-3" points="181.87 241.02 186.68 176.63 194.9 176.82 199.11 241.02 190.35 249.1 181.87 241.02"/><polygon class="cls-10" points="236.41 140.1 250.31 146.46 252.43 217.49 231.34 236.54 210.45 225.82 209.59 204.01 220.59 164.29 236.41 140.1"/><polygon class="cls-26" points="256.3 238.91 255.17 268.68 212.97 275.6 210.45 225.82 240.22 217.49 256.3 238.91"/><polygon class="cls-9" points="233.01 163.54 236.41 140.1 214.85 161.16 209.59 204.01 233.01 174.25 225.07 167.11 233.01 163.54"/><polygon class="cls-10" points="144.37 147.95 158.72 141.3 174.6 206.39 173.87 227.02 155.31 248.44 151.37 223.44 144.37 147.95"/><polygon class="cls-26" points="173.87 227.02 172.93 273.44 139.89 266.3 151.37 223.44 173.87 227.02"/><polygon class="cls-9" points="150.18 163.54 158.72 141.3 171.07 163.54 174.6 206.39 151.31 180.2 159.26 170.68 150.18 163.54"/><polygon class="cls-27" points="158.72 141.3 171.07 163.54 181.74 146.68 165.14 130.2 158.72 141.3"/><polygon class="cls-27" points="202.38 145.68 214.86 161.16 236.41 140.1 231.25 128.35 202.38 145.68"/><polygon class="cls-8" points="229.07 255.58 240.42 249.63 226.8 269.87 222.26 266.3 229.07 255.58"/><polygon class="cls-28" points="245.61 265.47 262.86 246.53 266.9 255.59 271.86 265.72 278.82 276.44 257.93 278.1 245.61 265.47"/><polygon class="cls-29" points="262.86 246.53 266.9 255.59 271.86 265.72 278.82 276.44 303.5 258.21 316.52 237.56 284.28 238.65 262.86 246.53"/><polygon class="cls-29" points="281.04 284.62 310.71 280.43 307.37 308.38 284.22 314.97 283.02 304.54 281.41 294.46 281.04 284.62"/><polygon class="cls-28" points="281.04 284.62 265.16 292.84 265.97 308.95 284.22 314.97 283.02 304.54 281.41 294.46 281.04 284.62"/><polygon class="cls-30" points="253.52 269.63 266.9 255.59 271.86 265.72 255.34 271.79 253.52 269.63"/><polygon class="cls-31" points="266.9 255.59 292.1 248.06 290.37 254.46 271.86 265.72 266.9 255.59"/><polygon class="cls-31" points="281.41 294.46 298.64 293.58 300.23 297.06 283.02 304.54 281.41 294.46"/><polygon class="cls-30" points="281.41 294.46 267.06 299.3 266.72 302.68 283.02 304.54 281.41 294.46"/><polygon class="cls-29" points="245.61 265.47 257.93 278.1 265.16 292.84 265.97 308.95 259.08 324.66 234.87 332.8 224.63 327.61 222.05 321.1 234.32 325.27 254.34 320.81 260.21 310.44 259.81 292.51 239.22 268.31 222.2 273.01 209.74 290.01 206.89 282.81 214.82 268.91 237.06 261.7 245.61 265.47"/><polygon class="cls-32" points="310.71 280.43 294.7 295.98 295.04 302.25 307.37 308.38 310.71 280.43"/><polygon class="cls-28" points="206.89 282.81 220.06 270.41 239.22 268.31 222.2 273.01 209.74 290.01 206.89 282.81"/><polygon class="cls-28" points="222.05 321.1 234.32 325.27 254.34 320.81 260.21 310.44 255.47 323.24 235.43 329.85 224.63 327.61 222.05 321.1"/><polygon class="cls-10" points="239.28 250.82 240.22 217.49 273.79 218.73 257.43 266.3 244.96 266.3 239.28 250.82"/><polygon class="cls-7" points="257.43 266.3 248.36 281.77 232.47 279.39 226.8 269.87 240.42 249.63 257.43 266.3"/><polygon class="cls-8" points="248.36 281.77 234.74 286.54 222.26 279.39 226.8 269.87 248.36 281.77"/><polygon class="cls-9" points="250.31 146.46 273.79 218.73 240.22 217.49 250.31 146.46"/><polygon class="cls-23" points="172.93 273.44 149.18 278.57 147.22 268.1 172.93 273.44"/><polygon class="cls-4" points="203.29 110.02 193.73 118.59 181.57 118.34 175.44 110.09 180.16 110.91 203.29 110.02"/><polygon class="cls-33" points="203.51 108.97 188.99 106.56 183.8 107.29 179.51 106.19 172.87 108.41 174.77 109.36 203.29 110.02 203.51 108.97"/><polygon class="cls-8" points="203.29 110.02 193.1 121.39 179.21 120.53 172.87 108.41 174.77 109.36 181.5 116.72 193.21 116.95 203.29 110.02"/><polygon class="cls-22" points="203.29 110.02 192.52 111.67 176.82 111.6 174.77 109.36 203.29 110.02"/><polygon class="cls-22" points="199.09 112.91 190.95 114.27 179.42 114.44 181.5 116.72 193.21 116.95 199.09 112.91"/><polygon class="cls-21" points="147.29 72.54 164.13 61.04 175.56 34.2 176.06 22.71 159.18 35.88 147.29 72.54"/><polygon class="cls-33" points="109.34 104.63 112.06 107.97 107.89 109.36 109.34 104.63"/></svg>