<svg id="Layer_1" data-name="Layer 1" xmlns="http://www.w3.org/2000/svg" viewBox="0 0 400 400"><defs><style>.cls-1,.cls-24,.cls-6{fill:#2b2b2b;}.cls-1{fill-opacity:0.15;}.cls-2{fill:#cececd;}.cls-3{fill:#ababab;}.cls-4{fill:#858686;}.cls-5{fill:#e6e6e6;}.cls-6{fill-opacity:0.1;}.cls-7{fill:#b2879c;}.cls-8{fill:#95637c;}.cls-9{fill:#fce3d4;}.cls-10{fill:#454444;}.cls-11{fill:#545657;}.cls-12{fill:#8f759f;}.cls-13{fill:#785d87;}.cls-14{fill:#594165;}.cls-15{fill:#6f7173;}.cls-16{fill:#f4c9b2;}.cls-17{fill:#8f8f8f;}.cls-18{fill:#734d60;}.cls-19{fill:#c1907d;}.cls-20{fill:#46382d;}.cls-21{fill:#5e5044;}.cls-22{fill:#ffefe7;}.cls-23{fill:#74665b;}</style></defs><title>analysts_INTJ_famous_real_elon_musk</title><g id="Layer_1-2" data-name="Layer_1"><polygon class="cls-1" points="67.02 373.44 172.18 399.51 236.94 388.82 332.98 362.37 315.65 357.94 229.38 357.68 204.76 360.42 67.02 373.44"/><polygon class="cls-2" points="272 334.87 235.64 340.48 272.52 352.86 311.61 340.09 310.05 338.65 308.23 339.69 294.02 337.74 292.72 336.31 291.28 337.48 272 334.87"/><polygon class="cls-3" points="229.38 357.68 235.64 340.48 273.04 345.82 311.61 340.09 315.65 357.94 272.65 365.5 229.38 357.68"/><polygon class="cls-2" points="245.54 101.35 269.26 91.71 292.85 102.92 292.33 139.93 269 142.4 245.54 141.1 245.54 101.35"/><polygon class="cls-2" points="254.53 193.75 260.01 180.84 254.8 169.77 254.93 149.57 270.17 144.1 284.9 148.92 285.55 169.9 281.25 179.93 286.46 194.4 290.5 312.72 273.3 316.89 253.49 312.85 254.53 193.75"/><path class="cls-4" d="M277,207.56l-9.51-.13v2.21h8.47l1.17.13V211l-.13,5.34v1.82l-11.47.27-.52-3.26,9.25.26.13-3.39-7.95.65-1.56.39v-7.69l.91-.26,10.43-.78Zm-12.38,86.92,4.69-3.39-3.65-4.56,2.87-1.57,3.39,3.91L282.16,283l-8.73,8.08,6,6.9-3.52.92-4.43-5.48-5,6.39Zm13.16-23.07-9-.39v1.69l7.56-.13-.91,3.65-6.78-.78v2.61l9.64.39-.52,3.65-11.86-.65-.65-12.65,12.25-.91Zm-1-16.94-8.47-.91.91,6.51,7.56-1,1.3,4.43H265.35v-1.69l.26-9.78v-1.17h11.6Zm-11.21-7.3.13-9.25v-1l.91-.26,5.35-1.83h.78l4.56,1.44,1,.26v.91l-.13,10-2.73-.26.13-3.52-7.17-.26.13,3.52Zm2.87-8.34v1.31l7,.78.13-2.48-3.26-1Zm-3.13-5.08V222.28l12.25-.65-.13,8.86-9.38-.65.26,3.78Zm2.35-9.25.13,2.6h7l-.52-2.73Z"/><path class="cls-4" d="M271.35,166.77l14.2,2.35.91,27.62L271.74,194l-17.2,2,.26-27.11Zm19.93,170.71-17.72,2.87-20.33-2.61.26-25.54,36.88-.13Z"/><polygon class="cls-3" points="245.54 141.1 270.17 136.41 292.33 139.93 284.9 148.92 270.3 146.96 254.93 149.57 245.54 141.1"/><polygon class="cls-5" points="245.54 101.35 269.26 96.79 292.85 102.92 268.74 80.5 245.54 101.35"/><path class="cls-6" d="M245.54,101.35l23.2-20.85.52,16.29.91,39.62.91,10.42,2.48,193.52-20.33-2.61,1.7-188.17-9.39-8.47ZM229.38,357.68l6.26-17.2,37.4,5.34-.39,19.68Z"/><polygon class="cls-7" points="119.53 169.64 96.99 227.37 111.19 231.8 126.31 226.06 124.48 176.28 119.53 169.64"/><polygon class="cls-8" points="119.53 169.64 150.42 155.69 143.12 196.35 128 210.16 120.18 207.56 119.53 169.64"/><polygon class="cls-9" points="109.63 224.63 120.18 207.56 135.43 197.78 137.65 210.29 123.05 225.8 109.63 224.63"/><polygon class="cls-8" points="214.27 149.31 208.54 157.52 192.12 189.84 214.66 211.34 242.03 193.09 248.28 174.07 214.27 149.31"/><polygon class="cls-10" points="90.47 372.27 102.85 369.14 135.3 367.71 144.16 372.27 144.16 379.44 90.34 379.18 90.47 372.27"/><polygon class="cls-10" points="199.41 380.74 208.14 377.23 230.95 375.66 236.94 380.35 236.94 388.82 199.41 388.82 199.41 380.74"/><polygon class="cls-11" points="120.7 350.12 90.47 372.27 144.16 372.27 144.16 356.51 132.43 347.77 120.7 350.12"/><polygon class="cls-11" points="204.76 360.42 199.41 380.74 236.94 380.35 229.38 357.68 217.66 354.16 204.76 360.42"/><polygon class="cls-12" points="146.12 292 137.12 349.08 130.87 352.86 120.7 350.12 119.92 296.69 145.72 285.48 146.12 292"/><polygon class="cls-12" points="189.25 301.12 211.79 352.2 218.7 358.85 229.38 357.68 228.86 294.09 190.42 283.92 189.25 301.12"/><polygon class="cls-13" points="145.72 285.48 135.82 286.14 138.04 304.77 130.87 352.86 144.16 356.51 169.57 303.86 165.53 294.09 145.72 285.48"/><polygon class="cls-13" points="173.35 293.56 195.5 281.06 197.59 285.23 199.67 308.29 218.7 358.85 204.76 360.42 169.57 303.86 173.35 293.56"/><polygon class="cls-14" points="137.38 269.33 132.3 282.1 140.51 289.13 169.57 303.86 197.59 285.23 190.16 269.85 137.38 269.33"/><path class="cls-15" d="M139.08,248.74l-9,20.46,4.43,3,52.25,2,3.39-4.3-12.9-21-16.68-8.34Zm22.67-70.63-4.17-7.69-13.42,1.17,3.78,48,28.67,1.3L187,169.38l-14.46,1.69Z"/><polygon class="cls-8" points="119.53 264.24 108.45 291.61 138.04 304.77 146.12 251.21 139.08 248.74 119.53 264.24"/><polygon class="cls-8" points="181.56 260.2 199.67 308.29 243.07 287.31 227.82 241.83 205.8 243.92 181.56 260.2"/><polygon class="cls-8" points="96.99 227.37 119.53 264.24 159.02 244.96 160.58 240.53 127.35 220.85 96.99 227.37"/><polygon class="cls-16" points="178.04 225.02 174.13 210.81 184.43 194.66 200.59 191.01 210.1 206.52 206.58 219.16 178.04 225.02"/><polygon class="cls-7" points="124.74 184.36 150.29 216.42 148.59 173.16 144.16 171.59 124.74 184.36"/><polygon class="cls-7" points="182.21 173.29 174.13 210.81 207.88 185.53 197.2 174.46 182.21 173.29"/><polygon class="cls-7" points="156.15 221.37 149.89 216.03 174.13 210.81 178.96 222.94 156.15 221.37"/><polygon class="cls-17" points="154.85 149.18 124.74 184.36 148.59 173.16 161.75 178.11 162.67 158.56 154.85 149.18"/><polygon class="cls-17" points="210.1 139.93 197.07 143.31 174.39 160.65 161.75 178.11 182.21 173.29 207.88 185.53 214.27 149.31 210.1 139.93"/><polygon class="cls-16" points="192.51 108.91 171.66 129.76 161.75 178.11 210.1 139.93 229.38 103.05 200.98 35.68 195.76 43.23 192.51 108.91"/><polygon class="cls-8" points="181.56 260.2 137.65 233.1 137.91 221.11 149.89 216.03 199.41 220.59 199.67 239.48 181.56 260.2"/><polygon class="cls-18" points="145.99 229.58 151.2 227.63 152.89 232.97 147.29 234.66 145.99 229.58"/><polygon class="cls-18" points="156.54 234.79 161.62 232.84 163.32 238.31 157.84 239.88 156.54 234.79"/><polygon class="cls-7" points="248.28 174.07 211.53 202.61 199.41 220.59 181.56 260.2 242.42 238.57 248.28 174.07"/><polygon class="cls-9" points="216.09 226.58 199.41 220.59 200.59 191.01 215.57 199.48 216.09 226.58"/><polygon class="cls-16" points="135.43 197.78 120.44 222.41 137.65 233.1 149.89 216.03 135.43 197.78"/><path class="cls-1" d="M120.44,222.41l25.68,28.8,11.59-5.73L156.15,273l30.62,1.18-5.21-13.95-23.85-14.72Zm34.41-73.23-6.26,24,13.16,5-2.21,35.83,14.59-3.13,8.08-37.52,25.67,12.25,6.39-36.23-4.17-9.38-27.89,33.36-20.46,4.82ZM229,308.55l-29.32-.26,29.19-14.2Z"/><polygon class="cls-11" points="157.58 185.01 161.49 181.24 165.27 185.41 161.1 189.18 157.58 185.01"/><polygon class="cls-19" points="191.33 137.32 171.92 137.84 161.1 131.72 152.37 138.49 161.75 178.11 191.33 137.32"/><polygon class="cls-20" points="197.33 51.57 209.06 62.65 209.19 82.85 219.35 84.8 237.6 67.47 240.46 47.14 224.69 36.59 200.85 40.63 197.33 51.57"/><polygon class="cls-21" points="180.39 18.21 187.82 32.42 200.85 40.63 240.46 47.14 221.18 10.53 192.51 11.05 180.39 18.21"/><polygon class="cls-21" points="121.1 14.96 113.15 42.84 135.56 35.42 139.99 19.52 121.1 14.96"/><polygon class="cls-9" points="117.58 115.56 113.15 42.84 131.65 20.17 180.39 18.21 200.85 40.63 198.63 113.34 171.92 137.84 139.99 138.75 117.58 115.56"/><polygon class="cls-16" points="121.23 67.73 131.78 73.47 140.77 90.28 145.99 80.37 143.77 73.73 141.16 68.52 127.87 63.82 121.23 67.73"/><polygon class="cls-16" points="153.54 68.38 150.29 73.73 148.33 82.59 151.98 93.01 162.53 73.47 177 65.78 167.36 62.91 153.54 68.38"/><polygon class="cls-20" points="126.96 62.65 139.73 65.13 141.16 68.52 127.61 65.65 121.23 67.73 126.96 62.65"/><polygon class="cls-20" points="155.24 64.86 153.54 68.38 168.4 64.08 177 65.78 168.66 60.83 155.24 64.86"/><polygon class="cls-19" points="146.25 99.79 139.99 93.27 146.12 90.41 153.28 93.01 146.25 99.79"/><polygon class="cls-22" points="143.77 73.73 139.99 93.27 153.28 93.01 150.29 73.73 143.77 73.73"/><polygon class="cls-19" points="135.95 109.56 160.19 108 165.27 105.13 166.84 107.22 161.23 110.34 136.47 111.78 135.95 109.56"/><polygon class="cls-19" points="215.05 94.19 229.38 103.05 233.81 94.58 227.3 89.63 215.05 94.19"/><polygon class="cls-9" points="217.66 65.52 215.05 94.19 233.81 94.58 237.6 67.47 217.66 65.52"/><polygon class="cls-19" points="223 72.03 222.09 83.63 230.69 72.55 223 72.03"/><polygon class="cls-23" points="147.03 0.49 174 9.35 183.65 21.99 128.52 24.08 121.1 14.96 147.03 0.49"/><polygon class="cls-23" points="221.18 10.53 183.65 21.99 174 9.35 185.34 1.67 221.18 10.53"/><polygon class="cls-11" points="156.15 209.9 160.06 205.99 163.84 210.29 159.54 213.94 156.15 209.9"/><polygon class="cls-11" points="153.28 259.55 157.19 255.64 160.97 259.94 156.67 263.59 153.28 259.55"/><polygon class="cls-21" points="185.34 1.67 147.03 0.49 183.65 21.99 185.34 1.67"/><path class="cls-24" d="M132.3,70.86a3.25,3.25,0,0,1,3.39,3.26,3.33,3.33,0,1,1-6.65,0A3.23,3.23,0,0,1,132.3,70.86Z"/><path class="cls-24" d="M162.79,70.6a3.39,3.39,0,0,1,0,6.78,3.39,3.39,0,0,1,0-6.78Z"/><path class="cls-3" d="M294.54,312.72l6.26,9.9,6.51-9.64-6.77-10.69ZM271.22,151.39v5.35l20.06,2.34v178.4l2.74.26,6.78-9.64,7.42,11.6,3.39.39L305.23,159l-.26-5.21v-1.3l-1.31-.13-32.58-3.91.14,3Zm3,2.61v-2.22L302.1,155v2.35Zm34.14,180.35-.65-16.68-5.08,7.69Zm-.91-26.84-.65-16.42-4.56,8.21Zm-1-27.11L306,266.59l-3.91,6.91Zm-.91-25.15-.39-14.07-3.65,6.91Zm-.91-26.06-.4-13.68-3.25,6.77Zm-.92-26.71-.39-12.12-2.6,6Zm-.91-26.2-.39-10.55-2.08,5Zm-1.3-16-6.26-.65,3.39,7.43Zm-7.17,4.44v12.24l2.74-6.25Zm0,25.8v12.9l3-6.91Zm0,25.93v12.9l3.26-6.91Zm0,25.28v13.81l3.78-7.3Zm0,25.15v14.6l4.3-7.82Zm0,25.54v14.73l4.43-7.69Zm0,25.54v14.6l4.82-7.17Zm4.43-143.6-4.3,9.77,4.43,8.86,4-9.12Zm.39,25.54-4.69,10.56,4.69,8.6,4.69-9.78Zm.26,25.8L294.54,236l5.21,9.13,5-9.64Zm.52,25.67-5.34,10.17,5.74,9.12,5.21-9.51Zm.53,25.15-5.87,10.69,5.87,9.25,6-10.55Z"/></g></svg>