<svg xmlns="http://www.w3.org/2000/svg" viewBox="0 0 1170 350"><defs><style>.a{fill:#ececeb;}.b{fill:#fff;}.c{fill:#a3a3a3;}.d{fill:#c4c4c4;}.e{fill:#dddddc;}.f{fill:#8f8f8f;}.g{fill:#cececd;}.h{fill:#9da1a2;}.i,.l{opacity:0.1;}.i,.l,.m,.o,.r{isolation:isolate;}.j{fill:#858686;}.k{fill:#4f5253;}.ad,.l,.s{fill:#2b2b2b;}.m{opacity:0.15;}.n{fill:#737373;}.o{opacity:0.2;}.p{fill:#6f7173;}.q{fill:#474747;}.r{opacity:0.04;}.s{opacity:0.1;}.t{fill:#446125;}.u{fill:#3f8f6f;}.v{fill:#54b08b;}.w{fill:#35785d;}.x{fill:#b8c745;}.y{fill:#e8f078;}.z{fill:#5a753d;}.aa{fill:#709d53;}.ab{fill:#99c26d;}.ac{fill:#738d57;}.ae{fill:#dfbda5;}.af{fill:#c3987b;}.ag,.ai{fill:#8b6651;}.ah{fill:#e8cab6;}.ai{stroke:#8b6651;stroke-miterlimit:10;stroke-width:4px;}</style></defs><title>enfj-protagonist-personality-header</title><path class="a" d="M0,0H1170V350H0Z"/><path class="b" d="M38.7,29.7,64.7,18l48.6,5.8,9.4,10.9,34,2.6,12,13.8L78,64.8l6-20.1L55.3,37.3h-22Z"/><path class="c" d="M221.3,56.1l1.5-6.8,2.1,1.2-.6,6.1Z"/><path class="d" d="M218.6,49.3l5.9,5.2,7.8-5.2-11-9.3v5.8Z"/><path class="e" d="M221.3,40l7.1-3.5,3.9,12.8Z"/><path class="f" d="M203.8,50.6l2-7.4-2-1.2L201,49.7Z"/><path class="c" d="M200.2,39.2l4.8,7.1,8.3-7.1-9.9-5.7-3.2,5.7Z"/><path class="d" d="M213.3,39.2V24.1l-7.5,2.6-2.4,6.8Z"/><path class="e" d="M33.3,37.3l24-7.6,38,7.6L84,44.7,80.8,55.4,64.3,47.5l-23-2.8Z"/><path class="c" d="M616.3,72.3,611,62.7l-4.5.3-7.8-7.6h-7.4V50.5l-14-3L573,51.1H560.8L555.5,54l-2.7,2.6-14.3-1.2-9.3,1.2-.9,2.9L514,57.3,502.2,63l-1.9,4.7-17.1.7-6.5,6.1-6.8,2-3.7,4.9L505,75.9l85.3-5.1Z"/><path class="e" d="M926.7,97.5,707,57.3,591.3,88.7,450,120.6,174.7,42,0,74.7V274l644-49.3,333.3-82.4L926.7,97.5Z"/><path class="g" d="M753.5,116,573.7,58.7,302.7,116l-134,33.5L0,109.4V280.9l800-30.3,289.3-4.6L753.5,116Z"/><path class="c" d="M1034.1,73l2.2-6.3-2.5-1.3-2.3,7,2.6.6Z"/><path class="d" d="M1032.6,68.9l8.3-1.2-8.6-9.1-1.7,6.3,2,4Z"/><path class="e" d="M1040.9,67.7l-.1-14.1-5.5-.7-3,5.7Z"/><path class="c" d="M1007,65.8l2.5-7.1-3-1-2,7.9Z"/><path class="d" d="M1006,59.8l3.5-1.1,6-10.1-14.3,4.5Z"/><path class="e" d="M1015.5,48.6l-1.1-8.8-6,2.8-7.2,10.5Z"/><path class="c" d="M862.6,42.3l-1.4-9,2.8-1,1.5,9.2-2.9.8Z"/><path class="d" d="M857,34.7l7.7,1.6,4.5-9-10.4,2Z"/><path class="e" d="M858.8,29.3v-10l6.7,2.1,3.7,5.9Z"/><path class="h" d="M585.8,123,583,108.3l-60.5,14.9,3.9,16L585.8,123Z"/><path class="i" d="M584.1,113.4l-1.1-5.1-60.5,14.9,1.4,5.6,60.2-15.4Z"/><path class="f" d="M503.8,131.1,602,105.6,580,95,569.5,83,524,94.3l-5.2,16.1Z"/><path class="c" d="M518.8,110.4,580,95,569.5,83,524,94.3Z"/><path class="j" d="M561.2,120.4l5.3-1.4.6,2.4-5.3,1.4Zm5.8-1.5,5.3-1.4.6,2.4-5.3,1.4Zm-5.1,4.4,5.3-1.4.6,2.4-5.3,1.4Zm5.9-1.5,5.3-1.4.6,2.4-5.3,1.4Z"/><path class="d" d="M888.9,33.7,478.4,152.9,136,89.3,0,145.7V350H1170V108.3Z"/><path class="e" d="M1170,164.8,698.5,209,635,224.5l-104.5.3L0,145.7V350H1170Z"/><path class="g" d="M698.5,209,1170,350l-616.6.2L530.5,224.8l104.5-.3L698.5,209Z"/><path class="d" d="M616.3,72.3V63.5l-5.6-4h-3.4l-7.1-5.3h-5.7l-3.2-6-14.1-1.9-4.9,1.9-9.1-1.9-5,3.9-9,.9-3.4-2.9-9.3,1.1-1.7,3.9-7.1,1.5L523,51.1l-8.1,2.2v2.1l-10.2,1.2L496,62v3.1l-9.1-1.6-5.1,3.2-1,2.5-8.7,2.6-1.2,2.7-6.3,1.4,1.6,5.5,4.7-3.9,8.6-.8,3-6,10.5-.9,1,2.2,12.5-.2V64.3l10.2-3.2L524,64l7.6-2.9,5.2-3.6,5.4,3.6,11.5-1.6,1.5-4.1H561l3,1.9,4.7-4.8,10.2-.2v3.9l5.3.4,2.1-1.2,6.9,3.3.1,2.4,6.7-.8,5.5,2.7.3,2.1h4.9Z"/><path class="b" d="M1170,24l-26-9.3-27.3,4.6h-23.4l-10,9.4-31.3,4-6,9.3,24,2.7,42.7-7.4,30.6,4.7,26.7-4.7V24Z"/><path class="e" d="M1046,42l12,9.1,34-2.9,28.7,9.1,49.3-6.2V33.3l-26.7,4L1130,29.7l-40.7,3-3.8,9.3Z"/><path class="b" d="M608.5,21.3l28.8-6.6,15.6,10,39.8,5,5.8,7.6h-30l-33.8-7.6L600,37.3l8.5-16Z"/><path class="e" d="M698.5,37.3l-12.2,6.2-49-6.2L617,42l-17-4.7L631.3,26l37.2,8.7Z"/><path class="k" d="M523.5,186.5H643.2V195H523.5Z"/><path class="f" d="M540.6,224.7h-9.1V186.5l4.5-7,4.6,7Zm16-2h-9.1V186.5l4.5-7,4.6,7Zm16,2h-9.1V186.5l4.5-7,4.6,7Zm16,0h-9.1V186.5l4.5-7,4.6,7Zm16,0h-9.1V186.5l4.5-7,4.6,7Zm16,0h-9.1V186.5l4.5-7,4.6,7Zm16,0h-9.1V186.5l4.5-7,4.6,7Z"/><path class="k" d="M537.3,189.8a1.3,1.3,0,1,1-1.3-1.3A1.26,1.26,0,0,1,537.3,189.8Zm16,0a1.3,1.3,0,1,1-1.3-1.3A1.26,1.26,0,0,1,553.3,189.8Zm16,0a1.3,1.3,0,1,1-1.3-1.3A1.26,1.26,0,0,1,569.3,189.8Zm16,0a1.3,1.3,0,1,1-1.3-1.3A1.26,1.26,0,0,1,585.3,189.8Zm16,0a1.3,1.3,0,1,1-1.3-1.3A1.26,1.26,0,0,1,601.3,189.8Zm16,0a1.3,1.3,0,1,1-1.3-1.3A1.26,1.26,0,0,1,617.3,189.8Zm16,0a1.3,1.3,0,1,1-1.3-1.3A1.26,1.26,0,0,1,633.3,189.8Z"/><path class="l" d="M101,205.5,0,215v2.7l157,9.8,78.2-10.9Z"/><path class="h" d="M0,149.2H182.5v67.4H0V149.2Z"/><path class="m" d="M0,157.2H182.5v18.3H0Z"/><path class="n" d="M27.7,180.8h26v10.8h-26Zm28.3,0H82v10.8H56Zm-28.3,13h26v10.8h-26Zm28.3,0H82v10.8H56Z"/><path class="c" d="M0,169.2H237.7L174,99.5H0Z"/><path class="f" d="M0,102.1H176.4L157,60.5H8.7L0,79Z"/><path class="o" d="M140.5,87.4,157,60.5H132.9Z"/><path class="c" d="M140.5,78.4l-8.6-1.5-8.8,1.5v9h17.4v-9Z"/><path class="d" d="M140.5,69.4,131,68.2l-7.9,1.2v9h17.4Z"/><path class="c" d="M123.1,60.5h17.5v9H123.1Z"/><path class="o" d="M140.5,60.5,132,59l-8.9,1.5v3.8h17.4Z"/><path class="d" d="M119.2,52h25.2v8.3H119.2Z"/><path class="j" d="M0,82.5H157.3l-1.1-2.3H0Z"/><path class="f" d="M0,124.7H197l-2.1-2.3H0Zm0,22.9H218l-2.1-2.3H0Z"/><path class="l" d="M265.3,211.9,203,219.5l81.8,22.2,258.6-7.4,33.3-9.6-54-4-257.4-8.8Z"/><path class="f" d="M262,145.6H522.7v78.1H262Z"/><path class="o" d="M262,145.6H522.7v23.9H262Z"/><path class="c" d="M581.6,158.7H203l70.2-78.1H511.4l70.2,78.1Z"/><path class="f" d="M514.6,84.1H270l25.4-54.4H489.3Z"/><path class="n" d="M352.7,176.5h34v14.1h-34Zm37,0h34v14.1h-34Zm-37,17h34v14.1h-34Zm37,0h34v14.1h-34Z"/><path class="f" d="M224.8,134.4h335l-2.7-3H227.5Zm23.4-26H536.4l-2.7-3H250.9Z"/><path class="j" d="M281.9,58.4H502.7l-1.4-3h-218l-1.4,3Z"/><path class="o" d="M467.7,64.8l21.6-35.1H457.7Z"/><path class="c" d="M467.7,53.1l-11.3-2-11.5,2V64.8h22.8Z"/><path class="d" d="M467.7,41.4l-12.4-1.6-10.4,1.6V53.1h22.8Z"/><path class="c" d="M444.9,29.7h22.8V41.4H444.9Z"/><path class="o" d="M467.7,29.7l-11.1-1.9-11.7,1.9v5h22.8v-5Z"/><path class="d" d="M439.9,18.6h32.9V29.5H439.9Z"/><path class="i" d="M1034.9,287.8,879.7,301.1l-54.8,13.7-21.7-9.7L693,294.3l-96.1,6.3L576,315.3l-30.9-6.2-129.3-3-41.1-5.7-60.1,5.7-45.4-13.7-86.7,13.7L95.3,295.6,16,315.4l70.1,6.9,70.77-3.39,73.63,1.39,28.8-3.7L340.7,329l44.5-6.7,23.9,14.4,130.1,8.8L591,334l83,7.5,112.3-4.8,72.5,8.8L931.2,332l181.5-7.5,57.3-10.1v-10Z"/><path class="f" d="M97.5,169.3,110,180l4.2,20.3-8.2,2.5-7.6-14.7Z"/><path class="n" d="M129.7,208.2l-24.2,9.5.5-14.9L122.8,186Z"/><path class="f" d="M89.6,273.1l-8.5,23.7-1.8,2v2.9l-1.2,3.4L76,308.2l-.7,4.6-23.7-5.7.9-4.7-.5-7.7.9-6.2-.5-5.5.5-13.2,18.9-1.9,17.8,5.2Zm33.2-5.2,2.8,10.1.9,6,2,4.7,2.2,7.9.1,4.2,2,3.5-26.6,5.8-1.5-4.5-2.6-4.6-.8-4.2-2.9-4.1-8.8-19.6,16.6-6.5,16.6,1.3Z"/><path class="c" d="M52.4,283l28.7,13.8-1.8,4.9-27.3-7,26.1,10.4-2.8,7.7-23.7-5.7.8-24.1Zm46,9.7L125.6,278l2.9,10.7L102.1,301l28.6-4.4,2.1,7.7-26.6,5.8Z"/><path class="n" d="M75.3,312.8,59.2,303l-7.6,4.1-5,5.7Zm30.9-2.7,16.6-9.1,10,3.3,7.7,5.8ZM46.1,182.4,55.8,234l29.5.2,27.5-4.2L97.5,169.3,75.3,184.1l-29.2-1.7Z"/><path class="k" d="M75.3,316.65V312.8H46.6v3.85Zm30.9-2.7V310.1h34.3V314ZM46.1,186.25l9.7,51.6,29.5.2,27.5-4.2-15.3-60.7L75.3,188l-29.2-1.7Z"/><path class="p" d="M101.8,106.6l13.5,15.1-10.7,17.2L103,113.6Z"/><path class="n" d="M57.1,133.3,103,113.6l7.9-3.1-9.1-15.8L39.6,108.1l7.9,14.1Zm0,0L41.6,173.4,35,140.1l9.5-5.4Z"/><path class="f" d="M39.6,108.1l17.5,25.2L35,140.1Z"/><path class="p" d="M41.6,173.4l19.9,2.9L46.6,158.2l-5,15.2Z"/><path class="a" d="M55.8,175.5l-9.7,5.3L84,191l13.5-21.7L85,167.8Z"/><path class="a" d="M103,113.6l7,44.6-23.9,6.3-6.1,12-17.5-1.9L49.9,156.9l7.2-23.6Z"/><path class="g" d="M57.1,133.3l9.6,36.9,19.4-5.7-6.1,12-9.8,1-8.7-1.2L46.6,158.2l10.5-24.9Z"/><path class="c" d="M86.1,164.5l-22.4,5.7,6.5,7.3,11.2,1.6Zm-34.5-.3,4.2-1.5-1.3,5.1Z"/><path class="g" d="M67.8,134.5l30.6-7.8L81.1,144.4Z"/><path class="b" d="M78.4,131.8l2.7,12.6,8.4-2.6-3.4-12Z"/><path class="c" d="M89.5,141.8l-4,5.4-4.4-2.8,8.4-2.6ZM78.4,155.4l15.2-6,1.1,2.6-15.4,6.2Zm-30.1-1.2,4-1.3.6,5.3Z"/><path class="n" d="M53.7,141.4l1.4,6.9-4.5.5v-4.4Z"/><path class="c" d="M55.8,234l57-4,1.4,7.5-28.1,3.4H56Z"/><path class="n" d="M56,240.9l-3.1,28.9,36.7,3.3,33.2-5.2-8.6-30.4L56,240.9ZM67.8,134.5l10.9-1.2-.3-2.8Zm18.8-3,11.8-4.8-12.3,1.5Z"/><path class="q" d="M76.2,139.6a2.2,2.2,0,1,1-2.2-2.2A2.22,2.22,0,0,1,76.2,139.6Zm18.2-4.7a2.2,2.2,0,1,1-2.2-2.2A2.22,2.22,0,0,1,94.4,134.9Z"/><path class="n" d="M159.6,91l-25.5-.6-28.4-6.2,7.6-35.5,33.1-15.5,20.7,28.6L159.6,91Z"/><path class="j" d="M146.4,33.2,134.1,90.4l28.5,6.1L170.3,61Z"/><path class="f" d="M107,78.1l56.9,12.2-1.6,7.3L105.4,85.4l1.6-7.3Z"/><path class="k" d="M99.6,275.2,89.5,273,130.4,83.1,138,72.3l2.5,12.9Z"/><path class="c" d="M114.2,179.1l8.6,6.9-7.5,16.2-5.3-4,4.2-19.1Z"/><path class="a" d="M114.2,179.1l-10.8,2.1,2.1,17.9,4.5-.9Z"/><path class="f" d="M46.1,180.8l25.7,26.3-1.2,9.1-6.9,9.4L37.1,205.4Z"/><path class="c" d="M71.8,207.1l26.2,6,.4,6.7-3.2,8.1-31.5-2.3Z"/><path class="a" d="M98,213.1l14.8,1.7V225l-3.7,6.3-13.9-3.4Z"/><path class="c" d="M112.8,214.8l7.6,7.4-7,10.8-4.3-1.7Z"/><path class="c" d="M200.5,242.6l-6.9,62,28.8,2.5,32.1-4.3,12.2-5.1,4.7-5.3-12-51.7L230,239.5l-29.5,3.1Z"/><path class="f" d="M200.5,242.6l34.3,62.8,24.6-64.7L230,239.5Z"/><path class="f" d="M189.6,136l-13.8,16.6,33.5,35.1,2.1-8.2-2.1-30.1L189.6,136Z"/><path class="j" d="M265.6,123.1,280,141.6l-10.5,26.1-19.1,25-11.6-9.4,26.8-60.2Z"/><path class="a" d="M236.9,106l28.7,17.1V106L229.9,91.3l7,14.7Z"/><path class="g" d="M236.9,106l-30.8,44.2L189.6,136l40.3-44.7Z"/><path class="n" d="M175.8,152.6l22.1.4,19.9,20.1-6.4,16.4-35.6-36.9Zm104.2-11-28.8,8.6-12.4,33.1,11.6,9.4,19.1-25Z"/><path class="c" d="M211.4,179.5v19.9l-5.9,15.9-3.8,22.2,28.3,2,29.3-3.9-4.8-22.7-6.9-13.5.7-16.1-18.4,4.4-18.5-8.2Z"/><path class="n" d="M211.4,179.5l18.5,27.6,18.4-23.8L228,190.1l-16.6-10.6Z"/><path class="a" d="M211.4,179.5l17.7,12.7,19.2-8.9-6.9-4.4-30,.6Z"/><path class="a" d="M265.6,123.1l3.9,44.6-22.7,2L236.6,180l-25.2-3.8-11.3-22.1,11.6-.9,9.1-15.2,19.7-22.8Z"/><path class="g" d="M220.8,138l2.7,33.7,23.3-2-8,13.6-27.4-3.8L197.9,153l11.4-3.6Z"/><path class="c" d="M246.8,169.7l-27.9,2,19.9,11.6Z"/><path class="g" d="M230.2,135.5l30.4-2.5-15.2,16.3-15.2-13.8Z"/><path class="b" d="M242.7,134.5l2.7,14.8,4.3-.7L248.3,134Z"/><path class="c" d="M249.7,148.6l-1.9,3.2-2.4-2.5,4.3-.7Zm-46.8,14.1,6.4-2-2.9,9Zm-1.2-8.2,3.8-1.3,1.2,5.1Z"/><path class="n" d="M240.5,118.5l-28.2,28,.3,5.3-3.9,2.7-2.6-4.3L236.9,106l3.6,6.5v6Z"/><path class="j" d="M240.5,118.5l25.1,4.6L236.9,106l3.6,12.5Z"/><path class="n" d="M230.2,135.5l8.3-3.8,4.2,2.8Zm18.1-1.5,2.9-2.8,9.4,1.8Z"/><path class="j" d="M240.5,159l7.8-4,6.2,3.3-5.8,1.8Z"/><path class="h" d="M240.5,159l7.8,2.8,6.2-3.5-6.2.7Z"/><circle class="q" cx="237.1" cy="141.6" r="2.3"/><path class="q" d="M257,140.2a2.3,2.3,0,1,1-2.3-2.3A2.26,2.26,0,0,1,257,140.2Z"/><path class="g" d="M229.9,207.1l-24.4,8.2,1.2-18.7,4.7-17.1,18.5,27.6,18.4-23.8,6.2,14.1v15.5l-24.6-5.8Z"/><path class="c" d="M211.4,179.5l-21.8,22.9,7.2,8.8,8.7,4.1,5.9-35.8Zm36.9,3.8L266.7,205l-4.7,7.6-7.5.3-6.2-29.6Z"/><path class="j" d="M266.7,205l8.6,6.2-1.9,7.5-5.6,7.4-10.9-1.9-2.4-11.3,12.2-7.9Zm-77.1-2.6-8.5,4.7,3.5,7.8,6.1,9.2,13.9-3.7.9-5.1-9.5-7.7Z"/><path class="n" d="M201.7,237.5l57.6-1.9.1,5.1-58.9,1.9Z"/><path class="a" d="M220.8,307l-16.6,8.4-9.3-2.3-1.3-8.5,13.1-4.5Zm33.7-4.2,19.4,2.6,8.3-2.6-10.8-10.4Z"/><path class="c" d="M204.2,315.4l-3.7-7.7-5.6,5.4,9.3,2.3Zm69.7-10,4.2-6.5,4.1,3.9-8.3,2.6Z"/><path class="g" d="M260.8,298.9l13.1,6.5-19.4-2.6Zm-40,8.1-16.6,8.4L214.7,304Z"/><path class="a" d="M181.1,207.1l-10.8,5.5,2,7,3.1,7.1,15.3-2.6Zm94.2,4.1,10.7,4.3.1,7.8-5,5-13.3-2.2,7.5-14.9Z"/><path class="k" d="M292.9,197.3l7.7,3-15.9,41.5-7.7-3Z"/><circle class="k" cx="306.6" cy="173.3" r="30.6"/><circle class="p" cx="306.6" cy="173.3" r="22.9"/><path class="k" d="M152.7,164.3l-1.5,16.6L139.6,169l6.2-3.4,6.9-1.3Z"/><path class="d" d="M152.7,164.3l-9-4.4-4.1,9.1,13.1-4.7Z"/><path class="c" d="M177.3,232.8l-11.7-11.9-1.5,16.6,7-1.3,6.2-3.4Z"/><path class="j" d="M177.3,232.8l-4.2,9.1-9-4.4,13.2-4.7Z"/><path class="n" d="M175.4,226.7l-5.7,2.1-9,1.4-6-14.9-14.2-39.6,14.7-5.2,20.2,56.2Z"/><path class="g" d="M157.9,214.7l-3.2.6,2,10.1,4,6.6,9-3.2-2.5-6-9.3-8.1Z"/><path class="b" d="M170.3,212.6l-8.3-1.4-4.1,3.5,4.7,9.4,4.6-1.3-1.4-5.1,6.8,1.2-2.3-6.3Z"/><path class="c" d="M154.7,215.3l-6.2,3.5,8.1,13.2h4.1l-6-16.7Z"/><path class="g" d="M281.1,228.3l7.8,2.8,5.3-5.7.1-8.5-8.3-1.4-4.9,12.8Z"/><path class="c" d="M294.3,216.9l5.3,5.1-4.7,9.7-6-.6,5.4-14.2Z"/><path class="b" d="M282,213.9l5.6-2.7,6.7,5.7-2.4,6.4-3.4-.9.5-2.7-4.1-1.3-2.9-4.5Z"/><path class="n" d="M325,312.1v8.3H298.5l10.9-10.8H318Zm47.9,0,2.5,6h25.5l-9-13-9.9,2.2Z"/><path class="k" d="M325,316.3l.37,6.8h-26.5l-.37-2.7Zm49.11-1.3,1.66,5.8h25.5l-.37-2.7Z"/><path class="f" d="M322.4,244.1l-7.3,37v5l-1.9,4.4-1.9,9.9,1.2,4.7-3.1,4.5,15.6,2.5,2.2-4.9,4.6-4.5,1.6-5.3,4.5-3.3,18-25.1,8.3,21,3.3,5.3,1.4,6.5,3.5,6.9.5,3.4,19-7-1.7-3.7.8-4.8-.6-4.9-1.8-3.9.8-5.1-5.1-44.1Z"/><path class="n" d="M322.4,244.1,355.9,269l28.4-30.4Z"/><path class="d" d="M368.8,165.7l21.6,24.8-13.3,13.9-6.6-15.5Z"/><path class="c" d="M315.6,173.5l6.8,70.6,61.9-5.5-15.5-72.9-53.2,7.8Z"/><path class="a" d="M315.6,173.5l12.9-3.4L359,165l9.8.7-13.5,23.4-1.2,12.5L346.4,190l-30.8-16.5Z"/><path class="k" d="M359,89.2,322.4,72.5,334,101.6Z"/><path class="n" d="M322.4,72.5l-13,37.3,16.6-4.4,9.3-6.3Z"/><path class="d" d="M298.5,127.8l41.6-11.3,32.8-16.1-4.4-15.2-73.4,30.6Z"/><path class="n" d="M306.9,141l-8.4-13.2,22.8-8.7,6.6,17.3-7.1,5.4-4.5-4.1Z"/><path class="a" d="M372.9,100.4,384.3,146l-20.7,6.7-10,17.4-25.1-2.2L306.9,141l9.4-3.3,4.5,4.1,6-3.2-3.3-18.3,7-4.5,42.4-15.4Z"/><path class="g" d="M330.5,115.8l13.2,43.5,19.9-6.6-6.1,9.8-1.6,9.8-27.4-2.2L306.9,141l9.4-5.5,4.5,4,4.9-3.1-4.4-17.3,9.2-3.3Z"/><path class="c" d="M363.6,152.7l-25.7,8,18,11.6Zm-48,0,6.8-2.2-1.8,9Zm2.4-6.2-2.6-6-4.1,2Z"/><path class="g" d="M340.1,122.3l30.4-10.2-13.8,19.5Z"/><path class="b" d="M352.6,118.1l4.1,13.5,4.5-1.6-3.9-13.5Z"/><path class="r" d="M321,229.5l32.4,4.8,11.8,6.3,5.3-8.3-17.9-12L320,218.9l1,10.6Z"/><path class="n" d="M340.1,122.3v-3.2l10.6-4.6,1.9,3.6Zm17.2-5.8-.4-3.4,11.4-3.3,2.2,2.3Z"/><path class="n" d="M356.7,131.6l-7.5,11.9,26.2-7.7L361.2,130Z"/><path class="k" d="M356.7,131.6l3.5,2.6,1-4.2-4.5,1.6Z"/><path class="g" d="M390.4,190.5l7.7,11.1.6,16.2-17.8,2.4-3.8-15.8,13.3-13.9Z"/><path class="p" d="M407.6,111l8.2,2.7L349.5,316.3l-8.2-2.7Z"/><path class="m" d="M407.6,111.1l8.2,2.7-5.1,15.5-8.2-2.7Z"/><path class="n" d="M442.9,85.9l-10.1,30.8-9.8-3.2,10.1-30.8,7.8-12.5L427.2,80.8l-10.1,30.8-9.8-3.2,10.1-30.8,7.8-12.5L411.4,75.6l-10.1,30.8-9.8-3.2,10.1-30.8,7.9-12.5L395.7,70.5l-10.1,30.8-3.3,10.2,5.9,1.9,9.8,3.2,5.9,2,9.9,3.2,5.9,1.9,9.8,3.2,5.9,2,3.4-10.2,10.1-30.8,7.8-12.5L442.9,85.9Z"/><path class="c" d="M398.7,185l-.6,16.6-12.9,5.5,1.8-5.5,3.4-11.1,8.3-5.5Z"/><path class="d" d="M315.6,173.5l20.9,30.9v10.5l-8.6,10.5L305,206.3l10.6-32.8Z"/><path class="g" d="M336.5,204.4l27.7,14.5,2.2,4.8-5.2,7.4-33.3-5.7,8.6-21Z"/><path class="a" d="M364.2,218.9l16.7,1.3-1.3,9.3-4.9,9.8-13.5-8.2,3-12.2Z"/><path class="c" d="M380.9,220.2l7.9,8.9-4.5,9.5-9.6.7,6.2-19.1Z"/><path class="a" d="M380.4,179l18.3,6L387,201.6l-8.1-2.8,1.5-19.8Z"/><path class="c" d="M337.9,294.1,315.1,281l-1.9,9.5,18.6,12.2-20.5-2.3-1.9,9.2,15.6,2.5,12.9-18Zm26.3-4.1,25.2-7.3,1,9-21.6,10.1,22.2-5.2.9,8.5-19,7Z"/><circle class="q" cx="348.09" cy="124.6" r="2.17"/><circle class="q" cx="365.07" cy="119.65" r="2.17"/><path class="p" d="M1040.3,279.7l-5.4,20.9h25.5l10.5-23.3-12.6-3Zm111.7-8.5,1.5,24.4h-23.4l-8.3-22.1,15.1-3.6,15.1,1.3Z"/><path class="f" d="M1060.4,300.6l-16.1-8.4-16.6,15.2,11.4,3.5h21.3V300.6Zm69.7-5,15.7-6.4,16.7,13.4-14.2,2.9h-18.6Z"/><path class="p" d="M1060.4,310.9l-32.7-3.5v7.4h32.7Zm69.3-5.4,32.8-2.9v8.3h-32.8Z"/><path class="o" d="M1040.3,279.7l25.4,9.3,5.2-11.7-12.6-3-18,5.4Zm111.7-8.5-26.5,12.2-3.7-9.9,13-4.7Z"/><path class="p" d="M1057.9,210.5l-17.6,69.2,111.7-8.5-5.4-60.7Z"/><path class="k" d="M1160,142.5l12,30.7-31.4,3.1V157.1Z"/><path class="p" d="M1047.6,141.2l-17.9,34.7,32.5-6.3,1.5-17.2Z"/><path class="k" d="M1142.5,158.2l4.1,36.6-37.1,3.5-51.1-6.1,3.8-37.1,80.3,3.1Z"/><path class="f" d="M1134.8,120.3l35.1,13.4-67.1,59.9-67-63.6,42.4-13.9Z"/><path class="f" d="M1146.6,194.8v15.7h-88.7l.5-18.3Z"/><path class="c" d="M1102.8,193.6l-16.3,17h31.6l-15.3-17Zm0,5.5,5.9,7.9h-12.9Zm39.7-40.9-12.4-30.7-27.3,6.2-22.1-13.1-18.5,34.5,40.6-19,39.7,22.1Z"/><path class="p" d="M1144.9,104.5l-14.8,23-27.1-8.6-22.3,1.7-9.8-22.5,35.6-.8,38.4,7.2ZM1081,67.8l31-14.6,26.1,19.7-27.7-4.4Z"/><path class="a" d="M1084.3,85.4l-3.6,35.2,49.4,6.9,4.7-35.4Z"/><path class="k" d="M1077.5,95.6l24.4,7.2,43,1.7-6.8-31.6-27.7-9-27.7,5.5-5.2,26.2Z"/><path class="c" d="M1110.4,63.9l-8.5,38.9-31-4.7L1081,67.8Z"/><path class="p" d="M1090.6,79l15.9,2.8,21.7-.3v3.9l-22.7.8-17.1-3.6Zm14.2,10.5h23.4v4.6h-24.4l-17.3-2.8,1.9-4.8Z"/><path class="f" d="M1107.4,55.3l10.7,2.5-3.9-13.1-6.8,10.6Z"/><path class="p" d="M1130.1,127.5l-27.3,8.6-22.1-15.5Z"/><path class="c" d="M1065.2,167.4l11.4,10.3-7.2,11.3-11.1,10.1-28.6-23.2,31.6-11.9,3.9,3.4Z"/><path class="h" d="M1103.1,189l-15.7-14.1,67.8-75.2,13.9-.8,2.9,13.8L1103.1,189Z"/><path class="d" d="M1169.1,98.9l-75,83.1-8.5-7.6,69.5-77Z"/><path class="p" d="M1090.3,177.7l8.3,7.5-29.7,32.9-8.3-7.5,29.7-32.9Z"/><path class="e" d="M1111.5,209.2l-22-22.1-24.3-19.7,7.6-8.3,46.2,41.7-7.5,8.4Z"/><path class="d" d="M1065.2,167.4l30.7,12.6,15.6,29.2-46.3-41.8Z"/><path class="p" d="M1076.6,177.7l15.8,14.5-6.8,10.8-9.7,7.5-17.6-11.4,18.3-21.4Z"/><path class="p" d="M1075.9,210.5h13.7l9-12.6-6.2-5.7Z"/><path class="c" d="M1172,173.2V197l-25.4,4.6-2.1-25.7,27.5-2.7Z"/><path class="f" d="M1165.3,182l6.7,15-25.4,4.6,18.7-19.6Z"/><path class="p" d="M1157.7,174.6l-9.8-7.6-9.1,8Z"/><path class="p" d="M1157.7,174.6l-25.6-2.4-2.6,22.1,17.1,7.3,8.2-14.2,2.9-12.8Z"/><path class="p" d="M1157.7,174.6l7.6,7.4-7.1,17.5-11.6,2.1Z"/><path class="f" d="M1053.8,226.7l95.7,16.1,1.4,16.4-110.6,20.5,4.2-16.7,70.8-8.6-66.2-9.3Zm40.5-119.3,23.8,5-1.4,3.7-21.1-5.3Z"/><path class="p" d="M1027.7,153l-6,16.9,9.3,12.9,17,8.3,30.9-38.1-22.6-2.7-28.6,2.7Z"/><path class="k" d="M890.7,104.6,869,111l-12,42,19.5,3.3,18.5.4-13-29.2Z"/><path class="c" d="M857,153l38,3.7-6.7,12.7-7.6,17.1Z"/><path class="k" d="M880.7,186.5,904,198V173.7l-9-20.4Z"/><path class="k" d="M864,162h15.7l-7.8,9.9ZM995.7,90l36.6,2.4,27.4,23.3-12.4,19.5L1027.7,153h-18.4l6.4-42-20-21Z"/><path class="c" d="M1027.7,153l32-37.3,19.2,37.3Z"/><path class="p" d="M1065.8,127.5,1051,142.9h22.7l-7.9-15.4Zm-96,173.6V318h48.7V300.6Z"/><path class="k" d="M929.9,297.5v16L867,312.1V298Z"/><path class="p" d="M1012.7,282.1l5.8,18.5-48.7.5-7.1-26.8H985Z"/><path class="k" d="M937.7,270.4l-7.8,27.1L904,295.1,886.3,284l3.4-21,28-1.2Z"/><path class="f" d="M969.8,301.1l12.2-8.9h23.7l12.8,8.4-19.5,12Zm-39.9-3.6L886.3,284,867,298l19.3,7.1Z"/><path class="o" d="M1012.7,282.1l-46,7.1-4-14.9,25-4.4,25,12.2ZM889.7,263,933,286.8l4.7-16.4-20-8.6Z"/><path class="p" d="M995.7,90l20,21-12.4,81.7L906,195.8l-28-68.1,12.7-23.1Z"/><path class="f" d="M988.2,95.6l21.1,57.4H949.7L895,169.4l4-61.1Z"/><path class="k" d="M976,104.6l9,30.1-18.3-4.5-39,7.1-17.7,13,1.5-36.4Zm2.5-43.8L995.7,90,976,104.6,963.7,67.9Z"/><path class="k" d="M895.7,76.3h15.8v37.6l-20.8-9.3Z"/><path class="f" d="M976,28.3,964,15l-.3,20.3ZM884,52l4.9-18.3,8.5,17.6Z"/><path class="p" d="M965.1,48.5,976,28.3l-20.2,8.2ZM906,47.7l-4,14.9L884,52Z"/><path class="a" d="M966.3,69.2l9.7,35.4-31.7,11.1-32.8-1.8-3.2-34.3Z"/><path class="b" d="M937.7,74.3l19.6,17.4,5.4,35.4-13,25.9-22-15.7L923,94.4Z"/><path class="g" d="M937.7,74.3l12,78.7,17-22.8-7.7-42Z"/><path class="f" d="M978.5,60.8,939.8,88.2l-6.8-19V47.7l19.2,4Z"/><path class="c" d="M939.8,88.2,895.7,76.3l21-19.6,16.3-9L936.2,67Z"/><path class="p" d="M956.5,63.5l-12.3,6.9L958,69.2Zm-40.4,5.9,13.8,2.7-13.5,3.2Z"/><path class="k" d="M978.5,60.8,955.8,36.5,929.9,26.3V40.1l3.1,7.6,45.5,13.1Z"/><path class="f" d="M929.9,26.3,906,47.7,895.7,76.3,933,47.7ZM899.5,180.1,904,198l47.1,4.7,55.6-9-1-18.2-106.2,4.6Z"/><path class="k" d="M904,198l-5.6,28.7,49.1,21L1011,263l-4.3-69.3Z"/><path class="f" d="M898.4,226.7,889.7,263l123,19.1L1011,263Z"/><path class="c" d="M976,104.6l39.7,6.4,16.6-18.6L995.7,90,976,104.6Zm-85.3,0L869,111l-6.4,22.3,48.9-19.4Z"/><path class="k" d="M1054.9,208.9l-8.8,10.1-74.4-65.2-3.8-12.2,12.6,2.1,74.4,65.2Z"/><path class="c" d="M980.5,143.7l-8.8,10.1-40.5,16.4,10.7,45.6,48.8,6.2,12.1-40.9,8.9-10.1-8.7-7.6-4.7,5.5-13.9-12.2,4.8-5.4-8.7-7.6Z"/><path class="p" d="M976,165.7l-31,15,9.6,20.7,25.3,5.8,10.3-29L976,165.7Z"/><path class="c" d="M1037.9,211.8l8.8-10.1,8.2,7.2-8.8,10.1Zm-16.2-41.9-16,13.7,16,18.2,10.6,5.1,15.7-15.8Z"/><path class="p" d="M1005.7,183.6l1.3,15.2,10.5,15.2,14.8-7.1-26.6-23.3Z"/><path class="f" d="M930,96.4l10.4-4.3,14.3.3,1.1,4H941l-11.1,4.1Z"/><path class="c" d="M829.6,143.4l-16-.2L801,154.7l12.6,6.3,16.2,1.8,2.4-11.8-2.6-7.6Z"/><path class="f" d="M829.8,162.8,801,154.7l-4,13.7,13.2,3.1,19.4,1.5,1.7-6-1.5-4.2Z"/><path class="n" d="M797,168.4l-10.7,21.9,19.3,1.4,19.2-2.3,3.2-7.9,1.6-8.5L797,168.4Z"/><path class="c" d="M824.8,189.4l-38.5.9v19.4l24.2-11.2,14.3-9.1Z"/><path class="n" d="M824.8,189.4l-3.2,17.4L815,222.7l-28.7-13,38.5-20.3Z"/><path class="j" d="M826.2,325.3l-12.7-7.8,2.3,11.5Z"/><path class="k" d="M900.7,280.2l-3.4,21.1-11,21L879,292Z"/><path class="p" d="M900.7,280.2l7,1.6-14,46.7-7.4.5v-6.7Z"/><path class="f" d="M813.5,242.1l12.7,39.1,14.5-6.9L854,263.5l-15.3-11.7-25.2-9.7Z"/><path class="k" d="M826.2,281.2l6,6.3,3.7,1.1,2.8,5.7,9.5-14.1,5.8-16.7Z"/><path class="c" d="M832.2,287.5l13-6.3-6.5,13.1-6.5-6.8Z"/><path class="p" d="M913.3,240.3l-29.6,16.6L854,263.5l-40.5-21.4,43.2-4.8Z"/><path class="c" d="M829.6,173l-16,54.6,58.9.7,40.8-5.6L888,177l-27.7-4Z"/><path class="k" d="M855.3,174.8l7,13.7,38.6,11.8-45.6-4.8-33.7,4.8,28.7-11.8Zm25-43.1,15-4.2,5.6,8.2,2.4,12.7L899.5,161,888,177l-7.1-28.6-.6-16.7Z"/><path class="p" d="M914.3,120.6l-1.7,27.8h-9.3l-8-20.9Z"/><path class="a" d="M830.1,133.8l-.5,39.2,58.4,4-4.8-28.6-2.9-16.7Z"/><path class="f" d="M824.3,120.4l26,2.6,61.2-9.1,2.8,6.7L850,145.8l-25.7-12.7Z"/><path class="p" d="M835.9,128.6l13.8,2.4,25-6.4v4.8l-25.4,7.9-13.4-4.4v-4.3Z"/><path class="f" d="M840.7,152.3,867,151l2.2,13-26.5-4.3Z"/><path class="b" d="M843.7,154.4l20.8-.9,1,7.5-21.2-3.5Z"/><path class="c" d="M850.3,124.6V111.7L867,104l21-4.4,23.5,14.3Z"/><path class="c" d="M850.3,111.7l-6.6-3.5H834l-9.7,12.2,26,4.2Z"/><path class="j" d="M888,99.6,862.3,92l-7.7,9.8-4.3,9.9Z"/><path class="c" d="M862.3,92l-20,7.6-8.3,8.6,16.3,3.5Z"/><path class="n" d="M813.6,227.6l99.7-4.9v17.6l-99.8,1.8.1-14.5Z"/><path class="c" d="M864.5,225.1l-22.3,1.1-6.2,7,13.2,8.3,13.2-.2,10.2-10-8.1-6.2ZM854,237.3l-9.5-6.5,18.9-.8Z"/><path class="j" d="M913.3,240.3l-5.6,34h-29L854,263.5Z"/><path class="h" d="M907.7,274.3l-24,20L869.2,283,854,263.5Z"/><path class="j" d="M883.7,294.3,854,263.5l-15.3,30.8,20.1,2.4Z"/><path class="c" d="M848.6,274.3,861.2,286H842.8l5.8-11.7Z"/><path class="p" d="M838.7,294.3l2,18.7,18.1,7.3,27.5,2-2.6-28Z"/><path class="f" d="M886.3,322.3V329l-38.1,3.6L815.8,329l24.9-16Z"/><path class="p" d="M842.8,329l-13.2-8.7L815.8,329v7.7h70.5V329ZM888,177l12.9,23.3,23.8-.5,23-4.3L945,180.7l-28.5-5.9Z"/><path class="j" d="M900.9,200.3l16.4,10.8,24.6,4.7,5.8-20.3Z"/><path class="p" d="M900.9,200.3l-18.6,11.9,9.5,14,12.5,7.8,37.6-18.2Z"/><path class="j" d="M888,177l57,3.7,2.4-16.8L924,159.3l-26.7.4Z"/><path class="c" d="M897.3,159.7l6-11.3,36.5-2.5,7.6,18-23.4-2-26.7-2.2Z"/><path class="j" d="M882.3,212.2h-21l12.5,8.7Z"/><path class="p" d="M777.5,133.9l1.5,16.8-16.8,1.5,1.5-14.2Z"/><path class="f" d="M762.2,152.2l15.3-18.3-16.8,1.5Z"/><path class="p" d="M821.6,136.7l-16.9,1.5-1.5-16.8,14.3,1.5,4.1,13.8Z"/><path class="f" d="M803.2,121.4l18.4,15.3-1.5-16.9Z"/><path class="p" d="M772.8,195.2l-1.5-16.9-16.9,1.6,4.1,13.7,14.3,1.6Z"/><path class="f" d="M754.4,179.9l18.4,15.3L756,196.7l-1.6-16.8Z"/><path class="p" d="M783.7,163.4l8.6-10.4,117,97.5-8.6,10.4Z"/><path class="m" d="M783.7,163.5l8.6-10.4,21.2,17.7-8.6,10.4Z"/><path class="j" d="M750.4,172.1l44.5-53.4,30,25-44.5,53.4Z"/><path class="f" d="M812.8,145l-17.9,19-15.4,21-17-14.2,19-19.3,14.3-20.7,17,14.2Z"/><path class="d" d="M762.5,170.8l25.1-12.9,8.2-27.1Z"/><path class="p" d="M787.6,157.9,779.5,185l33.3-40Z"/><path class="c" d="M882.3,212.2,861.2,228l8,9.6,13.2,8.1L904.3,234l-22-21.8Z"/><path class="j" d="M882.4,245.7h-9.9L854,237.3l7.2-9.3Z"/><path class="o" d="M895.3,238.9l-6.8,11.8-6.1-5,12.9-6.8Z"/><path class="c" d="M818.4,174.8l18.9,6.3-9.4,19-14.7-4.6-10-7.2Z"/><path class="j" d="M803.2,188.3,801,201.9l17.4,9.2,9.5-11Z"/><path class="h" d="M749,247.8h16.5v63.7H749Zm-162,0h16.5v63.7H587Z"/><path class="k" d="M584,295.6H768.9v7.3H584Z"/><path class="p" d="M577.7,218.6l92.5-1.6,103.5,1.6-23,83.8-149,.6-24-84.4Z"/><path class="p" d="M577.7,218.6h196l-48.5-28.8-98-.5Z"/><path class="n" d="M628.7,218.6h94l2.5-28.8-98-.5Z"/><path class="k" d="M768.1,238.9l.8-2.9H582.6l.9,2.9Zm-6.2,23,.7-2.9H589.2l.8,2.9Zm-6.3,22.9.8-2.9H595.7l.8,2.9Z"/><path class="c" d="M627.9,303H617.6l-11.4-84.4h10.2Zm118.7-84.4H736.3L724.8,303h10.3l11.5-84.4Z"/><path class="f" d="M763.1,267h16.5v63.7H763.1ZM573,267h16.5v63.7H573Z"/><path class="f" d="M606.2,218.6l5.7-12.4,24.5-30.4,23.3,3.4,22.2-6.1L713.3,202l17,3.5,11.1,13.1Z"/><path class="c" d="M608.2,218.6l16.5-17.5,29.4,7.6,21.6-14.3,35.6,16.3,19-5.2-14.4-5-11-19.1-24.7-11.2-24.5,5.3-24-1.7-22.1,25.9-1.4,18.9Z"/><path class="f" d="M730.3,205.5l2.2-17.5-18.9-14.9-2.9-15.8-32.4-8.9-19.6,10.7L627.9,162l-10.3,28.3,7.1,10.8L644,186.8l41.9,2.8Z"/><path class="c" d="M732.5,188l-23.4.6-5.3-12.9-23.5,4.6-31-9.7-31.7,19.7-.6-9.2,13.7-30.8,31-7.1,12.1-13.4L718,143.7l2.3,25.7L732.5,188Z"/><polygon class="s" points="575.31 335.5 557.39 332.15 485.09 320.14 417.19 332 399 337.74 514.94 345.5 575.31 335.5"/><polygon class="t" points="541.2 310.69 538.41 235.25 534.13 209.67 494.91 193.71 444.36 221.51 425.87 320.14 443.04 335.09 541.89 335.35 557.42 332 541.2 310.69"/><polygon class="u" points="526.18 299.2 504.09 308.2 507.36 324.44 518.73 324.44 526.18 317.99 526.18 299.2"/><polygon class="v" points="526.18 317.99 540.31 332 526.65 335.09 507.03 332 507.36 324.44 526.18 317.99"/><polygon class="u" points="540.31 338.26 507.03 338.26 507.03 332 535.1 332 546.13 327.84 540.31 338.26"/><polygon class="w" points="526.18 299.2 505.93 316.5 504.09 308.2 515.13 299.2 526.18 299.2"/><polygon class="x" points="447.76 146.43 424.86 162.2 423.37 180.94 439.04 208.78 546.81 199.16 543.5 157.33 532.07 150.4 447.76 146.43"/><polygon class="y" points="532.07 150.4 447.76 146.43 424.86 162.2 423.37 180.94 436.53 171.88 534.13 163.78 543.5 157.33 532.07 150.4"/><polygon class="u" points="475.01 309.27 471.54 323.08 460.17 324.44 449.96 320.14 451.7 304.14 475.01 309.27"/><polygon class="v" points="449.96 320.14 443.04 335.09 472.01 335.09 471.54 323.08 449.96 320.14"/><polygon class="u" points="472.01 340.29 443.04 340.29 443.04 335.09 457.52 330.64 472.01 335.09 472.01 340.29"/><polygon class="w" points="451.7 304.14 473.19 316.5 475.01 309.27 467.86 302.94 451.7 304.14"/><polygon class="z" points="491.64 246.81 475.01 299.2 492.43 313.11 526.18 299.2 526.08 248.18 512.88 242.31 491.64 246.81"/><polygon class="aa" points="456.45 259.17 451.7 304.14 492.43 313.11 491.64 246.81 456.45 259.17"/><polygon class="z" points="526.08 179.45 534.13 163.78 551.17 201.86 526.18 230.67 522.31 213.41 526.08 179.45"/><polygon class="z" points="454.46 165.38 480.65 179.11 504.43 197.44 491.64 246.81 457.29 246.81 457.29 235.25 443.04 198.47 454.46 165.38"/><polygon class="aa" points="494.91 193.71 491.62 235.25 491.64 246.81 526.08 246.81 526.18 230.67 534.13 163.78 517.33 162.2 516.73 169.19 516.73 169.19 509.59 168.85 505.84 185 494.91 193.71"/><polygon class="z" points="444.36 221.51 436.53 171.88 417.19 332 428.59 324.52 434.44 313.96 444.36 221.51"/><polygon class="aa" points="443.04 335.09 417.19 332 434.44 313.96 443.04 335.09"/><polygon class="ab" points="457.29 246.81 526.08 246.81 526.08 259.73 456.45 259.17 457.29 246.81"/><polygon class="ac" points="433.92 237.08 436.53 171.88 457.11 163.84 462.97 162.98 456.39 186.44 458.75 214.35 433.92 237.08"/><polygon class="w" points="494.6 187.45 504.09 177.61 509.59 168.85 519.6 170.31 518.72 185.08 494.91 193.71 489.26 188.66 494.6 187.45"/><polygon class="v" points="494.6 187.45 494.91 193.71 456.39 186.44 454.46 165.38 462.97 162.98 472.62 173.45 494.6 187.45"/><polygon class="ad" points="460.41 163.78 458.2 126.55 453.59 116.98 444.86 121 443.04 169.34 460.41 163.78"/><polygon class="ad" points="531.5 116.48 534.13 163.78 520.26 162.57 518.04 111.86 531.5 116.48"/><polygon class="ae" points="519.6 170.31 475.01 168.21 462.38 159.19 456.39 90.72 526.1 87.72 519.6 170.31"/><polygon class="af" points="512.88 169.99 467.26 164 461.78 97.39 453.59 84.35 460.75 167.72 462.38 178.09 494.6 187.45 511.37 179.21 512.88 169.99"/><polygon class="ag" points="487.68 142.18 494.22 146.66 500.76 142.18 487.68 142.18"/><polygon class="af" points="467.23 125.02 480.91 129.22 487.68 142.18 491.54 124.31 472.06 119.48 467.23 125.02"/><polygon class="af" points="500.76 142.18 510.49 129.22 521.21 125.02 516.39 121.98 507.54 121 496.9 124.31 496.9 134.22 500.76 142.18"/><polygon class="ah" points="500.76 142.18 494.22 143.82 487.68 142.18 491.54 124.31 496.9 124.31 500.76 142.18"/><polygon class="q" points="496.9 124.31 516.39 121.98 521.21 125.02 516.39 116.98 496.9 124.31"/><polygon class="q" points="491.54 124.31 472.06 121.98 467.23 125.02 472.06 116.98 491.54 124.31"/><polygon class="ag" points="496.45 182.16 512.88 169.99 460.75 167.72 496.45 182.16"/><polygon class="k" points="444.86 121 446.25 86.29 460.75 82.67 472.13 74 511 74 519.6 84.35 534.43 90.72 531.5 116.48 523.73 117.83 525.52 93.64 495.44 103.49 462.9 88.85 457.4 130.83 444.86 121"/><polygon class="p" points="495.44 103.49 472.13 74 446.25 86.29 461.78 97.39 495.44 103.49"/><polygon class="af" points="465.89 147.28 521.16 150.49 519.6 170.31 467.23 168 465.89 147.28"/><polygon class="q" points="511 74 495.44 103.49 525.26 97.17 534.43 90.72 511 74"/><line class="ai" x1="479.94" y1="157.65" x2="501.72" y2="157.65"/><polygon class="ag" points="465.89 147.28 458.75 144.42 460.75 167.72 467.23 168 465.89 147.28"/><circle class="ad" cx="509.58" cy="129.22" r="3.31"/><circle class="ad" cx="479.87" cy="129.22" r="3.31"/><polygon class="v" points="458.75 214.35 433.92 237.08 474.13 252.97 483.73 229.29 458.75 214.35"/><path class="af" d="M483.73,229.29l10.41-2.65,5,8.06-9.59-.61-5.82-4.8Z"/><path class="ae" d="M483.73,229.29l15.41,5.41L495.67,245l-11.43,13-10.11-5,9.6-23.68Z"/><path class="af" d="M499.14,234.7l6,5.21-7.75,17.45-13.17.61,14.9-23.27Z"/><path class="v" d="M551.18,201.86l22.86,9.8-2,10.21-7.86,12-38-3.24Z"/><path class="c" d="M560.67,259.43l62.87-156.16,11.23,4.49L571.9,264Z"/><path class="a" d="M573.22,263.21a7,7,0,1,0-9.08,3.88A7,7,0,0,0,573.22,263.21Z"/><path class="e" d="M618.64,98.67l13.68-1.94,8.37,11.44-23.68,49-21.13,62.36-22.25-9Z"/><path class="h" d="M595.88,219.52l-10.82-4.39,47.26-118.4,8.57,10.93-45,111.86Z"/><path class="a" d="M610.17,216.87l4.49,9.08-9.08,5.21-4.9-8.78-11.23-4.49-6.63,2.86L580,214l-10.21-4.08L561,213.7,556,204l10.72-4.6,1.94,5.72,12.76,5.21,6.73-2.86,2.86,6.63,13.78,5.51Z"/><path class="o" d="M570.06,236l8.37,11.44,3.06-7.66L577.61,236Z"/><path class="af" d="M574,211.66l25.31,10.21-11,18.47-24.19-6.43Z"/><path class="ae" d="M587.92,242.18,570.06,236,580,214l19.39,7.86-11.43,20.31Z"/><path class="ah" d="M568.63,223.81h6.94l-3.06,6.74,7,2.14,8.78-15.31L574,211.66Z"/><path class="af" d="M599.35,221.87l-17.86,17.86,6.43,2.45Z"/><path class="ag" d="M574,211.66l23.17,14,2.14-3.78Z"/></svg>