<svg xmlns="http://www.w3.org/2000/svg" viewBox="0 0 1170 350"><defs><style>.a{fill:#f2f2f2;}.b{fill:#c6c6c6;}.bq,.c{fill:#aaa;}.bb,.d{fill:#fff;}.e{fill:#a8a8a8;}.ae,.bu,.f{fill:#2b2b2b;}.bu,.f{opacity:0.1;}.bu,.f,.u{isolation:isolate;}.bf,.g{fill:#7a7a7a;}.h{fill:#e8e8e8;}.i{fill:#919191;}.j{fill:#ddd;}.k{fill:#d8d8d8;}.l{fill:#c1c1c1;}.m{fill:#ccc;}.n{fill:#bababa;}.o{fill:#a5a5a5;}.p{fill:#a0a0a0;}.br,.q{fill:#b2b2b2;}.r{fill:none;stroke:#c1c1c1;stroke-miterlimit:10;stroke-width:2px;stroke-dasharray:8 8;}.s{fill:#96637c;}.be,.t{fill:#9b9b9b;}.av,.aw,.ax,.ay,.az,.ba,.bb,.bc,.bd,.be,.bf,.bg,.bh,.bi,.bj,.bk,.bl,.bm,.bn,.bo,.bp,.bq,.br,.bs,.bt,.bu,.u,.v,.w{fill-rule:evenodd;}.u{opacity:0.2;}.ab,.v{fill:#b3889d;}.w,.z{fill:#734d60;}.x{fill:#c3987b;}.y{fill:#8b6651;}.aa{fill:#dfbda5;}.ac{fill:#543042;}.ad,.ay{fill:#a3a3a3;}.af{fill:#4f5253;}.ag,.bc{fill:#474747;}.ah{fill:#e8cab6;}.ai{fill:#737373;}.aj{fill:#d1a1b8;}.ak,.av{fill:#6b6b6b;}.al,.az{fill:#8e8e8e;}.am,.aw{fill:#757575;}.an,.ax{fill:#ececeb;}.ao,.ba{fill:#d3d3d3;}.ap{fill:#5b5b5b;}.aq,.bj{fill:#747373;}.ar,.bk{fill:#9fa0a0;}.as,.bi{fill:#c3c3c3;}.at{fill:#7c7c7c;}.au,.bm{fill:#afafaf;}.bd{fill:#848484;}.bg{fill:#606060;}.bh{fill:#838484;}.bl{fill:#939393;}.bn{fill:#828282;}.bo{fill:#727272;}.bp{fill:#999;}.bs{fill:#969696;}.bt{fill:#c4c4c4;}</style></defs><title>entj-commander-personality-header</title><path class="a" d="M36,59.3H278.7V288.5H36Z"/><path class="b" d="M232,259.6l-62.7-57.3-54.9,48.5Z"/><path class="c" d="M47.3,350,271.9,169.5V350Z"/><circle class="d" cx="147.3" cy="150.4" r="29.7"/><path class="e" d="M146.3,288.5H278.7V350H146.3Z"/><path class="f" d="M147,288.5v24.2l20.3-6,41.4,12.6-5,30.7h5l5.6-30.7,26.5-12.6L265,321.4h13.7V288.5Z"/><path class="g" d="M203.7,313h17.5v8.4H203.7Zm19.6,0h17.5v8.4H223.3Zm-19.6,11h17.5v8.4H203.7Zm19.6,0h17.5v8.4H223.3Z"/><path class="h" d="M137.5,239.3v69.4l30.6-16,26.9,15L184.5,350h4.4l10.6-42.8,28-15.2,24.6,15.4L241.5,350h4.4l10.2-41.3h33.4V239.3Z"/><path class="i" d="M149.8,350H0V242.9H149.8Z"/><path class="b" d="M228.5,292.6l-2-.1,13.6-53.2h2.1l-13.7,53.3Zm-59.5.6-1.4-1.3L184,239.3h2Z"/><path class="f" d="M48.2,301.3l60.5-26.6,41.1,18.4V242.9H15.2Z"/><path class="j" d="M143.5,157.3l46,192.7h-7.6l-18.4-74.5L110.8,249,67.9,275.8,86.3,350H78.7L60.9,278H6.8V157.3Z"/><path class="b" d="M109.8,249.6,94.1,157.3h2.3L112,249.6Z"/><path class="k" d="M0,0V350H61V99.5H256V350h914V0Z"/><path class="l" d="M0,350H61V99.5H249.5l7-28.5L278.7,0H0Z"/><path class="k" d="M0,202.3,61,99.5l60.3-97L0,0Z"/><path class="m" d="M61,99.5,58.8,88h6.7Z"/><path class="n" d="M58.8,88l3.3-5.7h3.4l1,3.2-1,2.5Z"/><path class="l" d="M918.7,0h-372L521.9,350H989.4Zm106.4,0L1170,350V0Z"/><path class="m" d="M61,99.5l-5-14L62,71H256.5L265,85.3l-6.5,6.9L256,99.5l-97.5-3.1Z"/><path class="n" d="M256,99.5l9-14.2L54,85.5l7,14Z"/><path class="o" d="M62,71l4.5,14.5L61,99.5l-7-14Z"/><path class="m" d="M61,99.5l-2.2-14h7.7Z"/><path class="p" d="M463.5,28.7h17.7V338.5H463.5Z"/><path class="f" d="M463.5,221.8h17.7v28.8H463.5Zm0-193h17.7V38H463.5Z"/><path class="q" d="M438.2,332.3h68.4v17.5H438.2Zm0-310.2h68.4v8.8H438.2Z"/><path class="d" d="M314.3,52H630.4V239.3H314.3Z"/><path class="q" d="M309.2,52H635.5v7.3H309.2Z"/><path class="q" d="M314.9,52.5,440.8,27.4l.6,2.9L315.5,55.4ZM503.3,30.4l.6-2.9L629.8,52.6l-.6,2.9L503.3,30.4Z"/><path class="r" d="M418.8,57.3l7.7,23,14.9,2,4.7,32.2,50.9,2.9L551,156l-23,42.4,24.7,40.9"/><path class="r" d="M446.1,114.5l-32.7,27.3L407,199.9l-38.5,39.4M497,117.4,540,88l45,11.5,32-40.2M413.4,141.8,376,150.7l-61-40.6"/><path class="d" d="M490.3,150.9,501.2,140l10.9,10.9-10.9,10.9Z"/><path class="s" d="M496.3,150.9l5-5,5,5-5,5Z"/><path class="t" d="M463.3,98.9l5-5,5,5-5,5Zm-89,73,5-5,5,5-5,5Zm79.1,44.3,5-5,5,5-5,5Zm116-28.3,5-5,5,5-5,5Zm-65.1-106,5-5,5,5-5,5Zm-23.6-5,5-5,5,5-5,5Z"/><path class="f" d="M482.1,174l8.2,7.1-5.1,1.6-29.7,36.1-1.3,10.3L442,230.9l3,3.4-5.5,5H403l25.8-23.7,4.6,4.5,5.9-12.1,12.7,5.6,29.3-35.3.8-4.3Z"/><path class="u" d="M595.4,117.2l-.1,7.7,2.7,13.3-4.9-6.4,1-15.7Z"/><path class="v" d="M577,117.3l7.2,11.3,4.2-11.9Z"/><path class="w" d="M577,115.1l18.4-.1v2.3l-18.4.1Z"/><path class="u" d="M574.4,144.7l-.1,7.8,2.7,13.3-5-6.5,1.1-15.7,1.3,1.1Z"/><path class="v" d="M556,144.8l7.2,11.3,4.2-11.9-11.4.6Z"/><path class="w" d="M556,142.6l18.4-.1v2.3l-18.4.1Z"/><path class="u" d="M489.1,195.1l-.1,7.8,2.7,13.2-4.9-6.4,1-15.7,1.3,1.1Z"/><path class="v" d="M470.7,195.2l7.2,11.3,4.2-11.9-11.4.6Z"/><path class="w" d="M470.7,193l18.4-.1v2.3l-18.4.1Z"/><path class="u" d="M445.8,146.6l-.1,7.8,2.6,13.3-4.9-6.5,1.1-15.7,1.3,1.1Z"/><path class="v" d="M427.4,146.7l7.1,11.3,4.3-11.9-11.4.6Z"/><path class="w" d="M427.4,144.5l18.4-.1v2.3l-18.4.1Z"/><path class="u" d="M558.5,111.6l-.1,7.8,2.6,13.3-4.9-6.5,1.1-15.7,1.3,1.1Z"/><path class="v" d="M540.1,111.7l7.1,11.3,4.3-11.9-11.4.6Z"/><path class="w" d="M540.1,109.5l18.4-.1v2.3l-18.4.1Z"/><path class="u" d="M417.8,92.6l-.1,7.8,2.6,13.3-4.9-6.5,1.1-15.7Z"/><path class="v" d="M399.4,92.7l7.2,11.3,4.2-11.9-11.4.6Z"/><path class="w" d="M399.4,90.5l18.4-.1v2.3l-18.4.1Z"/><polygon class="x" points="318.95 307.17 313.68 326.77 306.76 333.58 303.36 329.24 301.32 300.8 303.69 283.12 318.95 307.17"/><polygon class="y" points="305.28 295.91 320.54 301.02 318.95 307.17 301.32 300.8 305.28 295.91"/><polygon class="x" points="351.9 271.14 352.83 301.35 351.74 325.88 345.04 335.44 340.48 327.97 335.81 307.17 351.9 271.14"/><polygon class="y" points="341.03 292.34 352.83 301.35 335.81 307.17 334.11 301.13 341.03 292.34"/><polygon class="z" points="343.83 349.77 340.59 349.72 338.44 336.76 340.48 327.97 348.17 333.13 346.52 338.3 343.83 349.77"/><polygon class="z" points="303.36 329.24 298.3 340.34 302.04 350 303.36 329.24"/><polygon class="aa" points="313.68 326.77 317.52 334.35 312.47 340.67 302.26 342.64 303.36 329.24 313.68 326.77"/><polygon class="ab" points="302.26 342.64 317.52 334.35 319.39 337.7 316.15 342.64 302.04 346.1 302.26 342.64"/><polygon class="s" points="302.04 346.1 319.39 337.7 324.77 346.1 316.26 347.69 302.04 346.1"/><polygon class="aa" points="351.74 325.72 360.52 335.22 355.96 340.16 349.04 342.63 340.48 327.97 351.74 325.72"/><polygon class="ab" points="349.04 342.63 360.52 335.22 363.21 337.86 359.09 342.47 350.86 344.99 349.04 342.63"/><polygon class="s" points="350.86 345.76 363.21 337.86 371.5 345.76 360.58 347.41 350.86 345.76"/><polygon class="z" points="302.04 346.1 302.04 350 324.77 350 324.77 346.1 302.04 346.1"/><polygon class="z" points="346.52 338.3 344.81 339.89 345.53 341.54 353.6 349.94 371.5 349.94 371.5 345.76 356.62 345.76 346.52 338.3"/><path class="ac" d="M285.8,288.7l39-8.8,42.5,9.9-10.6-36.7-22.2-25.6-35.4,32.8-3,2.7-10.3,25.7Z"/><path class="s" d="M308.5,300.5l-9-40.6,4.7-11.7,30.6-25.9L355,247.6l-2.17,53.75-24.78,2.57L308.5,300.5Z"/><path class="z" d="M301.32,300.8l-1.82-40.9,4.7-11.7,30.6-25.9,13.8,17.3-20.55,64.32Z"/><path class="y" d="M446.1,194.3l-4.9,6.6-3.9-2-.7-6.6Z"/><path class="x" d="M429,185.1l17.7-2,.6,13.4-18.9-2.9.6-8.5Z"/><path class="ad" d="M430.6,197.4l55.9-38,2.6,3.7-56.2,37.8Z"/><path class="aa" d="M427.3,186.9l16.2,3.3-1.7,3.9-15.3.6Z"/><path class="s" d="M430.3,183.5l-16.9,2-6,7,1.9,8,18.9,4Z"/><path class="z" d="M285.7,194.2l-6.1,38.6,16.6,7.7,6.7-.6,1.6-8,1.2-15.9L301,182.7l-14.1,3.8-1.2,7.7Z"/><path class="z" d="M285.7,194.2,284,205.1l17.1,8.5,3.7-3.7L301,182.7l-14,3.5-1.3,8Z"/><path class="z" d="M279.6,232.8,296.1,243l6.8-3.1,1.6-8-24.9.9Z"/><path class="ae" d="M227,150.8l22.8,30.9,6.4.2,5.8-19.2-3.4-7.6L227,150.8Z"/><path class="af" d="M348.1,128.6l-72.7,60.8-25.6-7.7,28.5-85.9,69.8,32.8Z"/><path class="ae" d="M348.1,128.6l-8.3,27.5-64.4,33.3,33.3-79.3Z"/><path class="ag" d="M357.8,70.8,376,99.4,360.4,138,345.2,72.8Z"/><path class="ae" d="M357.8,70.8,376,99.4,345.2,72.8l12.6-2Z"/><path class="x" d="M314.1,185.3l-33.3-77.8,19-13.5,19.8,23.5,21.2,49.6-7.2,33.7Z"/><path class="aa" d="M353.9,80.3l11.4,84.3L319,172.8,299,94.2Z"/><path class="d" d="M336.8,156.8l-7.3-2.7,7.8-2.3,5.8,1.2,6.2-.9,2.3.3-10.3,4.7Z"/><path class="y" d="M340.6,168.8l-7,32.2-19.7-27.7Z"/><path class="ag" d="M294.2,103.2l14.3,69.1-36.6-57.2,22.3-11.9Z"/><path class="ah" d="M303.9,129.9l-11.4,2.6,5.9,14.6,9.6-3.9-4.1-13.3Z"/><path class="y" d="M301.5,133.3l-5.3,1.5,2.3,4.2Z"/><path class="z" d="M304.2,141.1l2.7,8.4-4.3,1.2-2.2-8.3,3.8-1.3Z"/><path class="ah" d="M340.9,116.6l5.4,22.7-8.1,1.1-3.4-23Z"/><path class="y" d="M341.8,144.2l4.5-4.9-8.1,1.1,3.6,3.8Z"/><path class="x" d="M319.2,119.5l15.6-2.1,3.4,23Z"/><path class="x" d="M345.1,134.1l7.9-20.5-12.1,3Z"/><path class="ae" d="M317.3,114.5l17.5,2.9L312.9,120Z"/><path class="z" d="M351.6,152.4,341.2,149l-11.7,5.1,22.1-1.7Z"/><path class="ab" d="M340.7,159.6l10.9-7.2-10.3,2.8-11.8-1.1,11.2,5.5Z"/><path class="ae" d="M356.4,112.6l-15.5,4,12.3-9.4Z"/><path class="af" d="M368.4,80.3,307.1,126l-43.5-13.4,14.7-16.8,72.4-38.5,17.7,23Z"/><path class="ae" d="M263.6,112.6l11-20,76.1-35.3Z"/><path class="ai" d="M376.6,79.5,307.1,126l43.6-68.7Z"/><path class="z" d="M346.7,189.6l7.5-1.8,3.4-4.2,55.8,1.9-4.1,15-58.9,12.6-3.7-23.5Z"/><path class="s" d="M295.3,190.3l5.7-7.6,2.8-1,14.5,8.3,15.6,7.5,5.3,9.4-4.6,24.6-3.9,6.4-6.9,6.3L289.3,280l-1-19.7,16.2-28.4-9.2-41.6Z"/><path class="ab" d="M323.8,244.2l-38,44.5L284.7,258l19.8-26.1,19.3,12.3Z"/><path class="ab" d="M354.7,233l10.6,33.5L364,280l-22.7-36.4-5.5-6.1-1.2-6-.7-34,12.9-9.5-3-6.2,11.5,2.9,2,3.3-2.6,45Z"/><path class="aj" d="M354.7,233l15.8,33.1-3.2,23.7L347.8,255l-6.5-11.4L354.7,233Z"/><path class="z" d="M339.5,172.8l4.3,9,2.6,3.8.4,2.4-5.4,8.1-7.5,1.4Z"/><path class="z" d="M303.8,181.7l4.5-9.7,25.6,25.5-19.1-.1Z"/><path class="ab" d="M303.8,181.7,287,186.2l-1.3,7.9v.1l21.8-7.3Z"/><path class="aj" d="M343.8,181.8l13.8,1.8-.3,4.4H346.8l-1-2.2Z"/><path class="aj" d="M341.3,243.6l-17.5.6,10.8-12.7,6.7,12.1Z"/><path class="af" d="M486.5,159.4l1.7-2.7,3.9,5.5-3,.9Z"/><path class="af" d="M428.8,198.1l1.8-.7,2.3,3.5-1.2,1.4-2.9-4.2Z"/><path class="aj" d="M330.5,211.6l3.7-3.6,3.1,3.8-3,3.7-3.8-3.9Z"/><path class="aj" d="M330.7,225.4l3.7-3.6,3.1,3.7-3,3.6-3.8-3.7Z"/><circle class="ae" cx="325.3" cy="126.5" r="3.24"/><circle class="ae" cx="350.7" cy="122.23" r="3.24"/><path class="ak" d="M1033.1,191.4l12.3,38.6-18.3,12.2L1003,199.1l30.1-7.7Zm99.1,12.8-18,36.1,10.8,14.3,33.3-30.1-26.1-20.3Z"/><path class="g" d="M1039.7,136.9,1003,199.1l30.1-7.7,8.9-29.7Zm101.9,17.8,16.7,69.8-26.1-20.3V179.6Z"/><path class="al" d="M1134.5,328.6l10.9,14.2-26.3,3.6-26.3-3.6,23.1-13.1,18.6-1.1ZM1053.1,342l-26.5,3.9L1000,342l10.9-14.4,20.4,2.1,21.8,12.3Z"/><path class="ak" d="M1000,342h53.1v7.9H1000Zm92.8.8h52.6V350h-52.6Z"/><path class="am" d="M1125,254.6l9.5,74-18.6,6.4-19.1,2.5-23.5-53.3-22.7,50.9-19.3-.6-20.4-6.9,16.2-85.4Z"/><path class="ak" d="M1101.2,266.6l14.7,68.4-23.1,7.8-19.5-58.6L1053.1,342l-21.8-7.5,17.1-74.9,24.9,24.6,27.9-17.6Z"/><path class="al" d="M1064.5,134.6l-24.8,2.3-10.9,90.6,44.8,11.1,51.4,3.3,16.6-87.2-22.9-12.4-54.2-7.7Z"/><path class="g" d="M1057.8,65.7V59.3l70,9.1-3.5,7.7-8.4,3.8-23.1-2.4Z"/><path class="al" d="M1127.8,68.4l6.7,18.5-9.3-1.1-9.3-5.9,11.9-11.5Z"/><path class="g" d="M1134.5,86.9l-5.5,19.3-14.8-1.8,1.7-24.5,18.6,7Z"/><path class="an" d="M1057.8,65.7l-12.4,64.4,19.1,4.5,18.9,13,32.7-7.6,9.7-31.3-11.6-4.3-1.3-21.6-3.6-4.5-51.5-12.6Z"/><path class="ao" d="M1109.3,78.3l-12.8,64-32-7.7,18.6,21.4,35.6-13.7,10.3-36.1-12.6-2.6-.5-23.7Zm-46.8,6.4,34.3,7.6-20.1,15L1070,103l-7.5-18.3Z"/><path class="d" d="M1081,88.8l-4.3,18.5-7.7-1.5,3.4-18.9Z"/><path class="am" d="M1076.7,107.3l8.2,14.5-29.1-6.8,13.2-9.2,7.7,1.5Z"/><path class="ap" d="M1076.7,107.3l-5.2,4.2-2.5-5.7Z"/><path class="am" d="M1061.5,84.7l35.3,7.6,1.2-4.9-35.5-8Z"/><ellipse class="ag" cx="1086.7" cy="98" rx="2.4" ry="2.7"/><ellipse class="ag" cx="1064.9" cy="93.3" rx="2.4" ry="2.7"/><path class="ad" d="M1084.9,121.8H1070l-14.2-6.8Zm-20.4,12.8,32.4,5.7,8,7.3-21.8,8.4Zm60.5-14.1-9.1-2.1,7.1,9Zm-6.3-5.1,1.7-6.7,4.8.9Z"/><path class="aq" d="M1083.1,156l-3.1,39.4-6.4,38.1,2.1-38.5Z"/><path class="ar" d="M1094.6,179.6l25.8,4.6-4.5,24.9-25.2-5.1,3.9-24.4Zm-50.6-8,27.3,3.7-3.3,23.8-26-4Z"/><path class="ad" d="M1028.8,227.5l96.2,14.4v12.7l-53.1-2.2-44.8-10.2,1.7-14.7Z"/><path class="as" d="M1062.5,232.5l-1,14L1081,249l2.1-13.5Zm14.7,12.6-11.9-2,.8-5.7,12.2,1.2Z"/><path class="at" d="M1027.1,242.2l20.3,18.4,25.9,23.6,28.8-16.5,22.9-13.1-97.9-12.4Z"/><path class="ad" d="M1064.5,134.6l-24.8,2.3-5.9,10,37.5-4.4-6.8-7.9Zm54.2,7.7,22.9,12.4,2.6,10.9-35.4-19.5,9.9-3.8Z"/><path class="au" d="M1064.5,134.6l-7.8,25.9,26.4-4.5Zm54.2,7.7-4.5,25.4L1083.1,156Z"/><path class="av" d="M908.7,172.2l-4.9,14.1,5.2,9,9.6.4,12.2-35.8Z"/><path class="aw" d="M992,167.7l9.9,43.8-12.6-2.4-8.5-5.2,2.1-14.2,9.1-22Z"/><path class="av" d="M1001.9,211.5,974.2,229l.3-11,6.3-14.1,21.1,7.6ZM913,338.5l-1.6,11.6h-9Zm48.3,0,1.8,11.6h-5.5Z"/><path class="ax" d="M970.3,311l-9,27.5-7.6-1-4.6-4.8-1.5-28.2,11.3,1.5,11.4,5Zm-63-18-5.2,39.7,3.7,4.1,7.2,1.7,15-39.6-6.5-3.4L907.3,293Z"/><path class="ay" d="M970.3,311l-22.1,4.6-.6-11.1,11.3,1.5,11.4,5Zm-63-18,15.5,19.8,5.2-13.9-7-4.2L907.3,293Z"/><path class="az" d="M902.1,332.7,889.7,350l18.8.1,4.5-11.6Zm47,0L938.4,350h19.9l3-11.5-12.2-5.8Zm-5-176.4-13.3,3.6-13.1,22,4.6,36.1,48.2,8.6,14.2-35.2,7.3-23.7-6.5-3.5-14.7-9.4-26.7,1.5Z"/><path class="av" d="M927.8,144l3,15.9,13.3-1.5-4.1-12ZM900.5,89l8-16,16,7.3-16,33.1Z"/><path class="ax" d="M913.5,75.5l-9.7,68.3,35.2,4.6,9.8,15.2,17.7-9.6,20.8-40.2-7.5-24.1-12.5-5.3Z"/><path class="ba" d="M967.3,84.7l-9.6,66L939,148.4l8.8,17.2,22.7-9.6,18.8-42.2-8.5-27.1ZM952,99l-17-3.7-5.5-1-13.7-1,10.7,15.4,4.3,8.2Z"/><path class="bb" d="M929.5,94.3l-3,22,4.3.6L935,95.3Z"/><path class="ay" d="M926.5,116.3l1.9,3.2,2.4-2.6-4.3-.6Z"/><path class="bc" d="M924.5,104.1a2.8,2.8,0,1,1-2.8-2.8A2.86,2.86,0,0,1,924.5,104.1Zm18.8,2.8a2.8,2.8,0,1,1-2.8-2.8A2.8,2.8,0,0,1,943.3,106.9Z"/><path class="bd" d="M918.9,126.5l8.9-1.9,8.2,4-8.5,1-8.6-3.1Z"/><path class="be" d="M918.9,126.5l8.5,6.5,8.6-4.4-8.5,1Z"/><path class="bf" d="M908.5,73l3.7,11.7h55.1l8.4-2.8,10.1-10.4-42.3-8.9Z"/><path class="be" d="M908.5,73,945,60.6l40.8,10.9Z"/><path class="ay" d="M977.2,127.4l-6.9-1,6.5,7.6Z"/><path class="bf" d="M980.6,115l-3.4,12.4,8.2,5.6,10.1,3.3,7.4-22.5-17.5-2.3Z"/><path class="bg" d="M977.2,127.4,970.5,156l15,8.2,10-27.9Z"/><path class="av" d="M985.8,71.5l17.1,42.3-31.1,2.5-4.5-31.6Z"/><path class="ay" d="M939,148.4l25.1,3.1-16.3,14.1L939,148.4Z"/><path class="av" d="M952,99l-17-3.7,2.4-3Zm-22.5-4.7-.9-3.7-12.8,2.7Z"/><path class="ay" d="M973.7,122.9v-4.5h3.5Z"/><path class="bh" d="M917.7,181.9l67,9.5L973.1,229l-52.8-9.7-2.6-37.4Z"/><path class="ay" d="M975.5,221.1l-55.2-1.8V229l26.8,2.8,27.1-2.8,1.3-7.9Z"/><path class="bi" d="M935.7,219.8V229h15.9l1.2-8.7-17.1-.5Zm13.5,7.1-10.9.4-.2-5.4,12.1.4-1,4.6Z"/><path class="bj" d="M947.8,165.6l-.2,20.5L943.9,220l-.6-34.6,4.5-19.8Z"/><path class="bk" d="M957.3,178.2l-.7,9.2,7.5,2.3h9l1.4-9.2Zm-35,4.4L927,174l13,2.2-2.6,8.5-7.5.7-7.6-2.8Z"/><path class="bl" d="M956.6,187.4l-.9,9.8,16.5,1.9.9-9.4Zm-19.2-2.7-.9,9.7-14.2-1.6V182.6l15.1,2.1Z"/><path class="aw" d="M974.2,229l11.6,30.6-17.5,47.9L912.5,291V268.1l7.8-39.1Z"/><path class="av" d="M985.8,259.6l-73.3,8.5L907.3,293l63,18Z"/><path class="aw" d="M909,195.3l2-38.7-14.7-3.5-10.9,41.7,23.6.5Z"/><path class="ba" d="M896.3,153.1V137.8l14.7,7v11.8Z"/><path class="bb" d="M896.3,137.8l9.2-6,7.9,6-2.4,7Z"/><path class="ay" d="M946.2,162.6l-22,1,6.6-3.7,13.3-1.5,2.1,4.2Zm24.3-6.6L992,167.7l1.7,7.3-30.8-15.8Z"/><path class="bm" d="M944.1,158.4,936,171.6l11.8-6,12.5,9.4,10.2-19-22.7,9.6Z"/><path class="ay" d="M857,229h63.3v9.9l-6.5,9.9H850.5v-9.5Z"/><path class="bn" d="M896.3,302.8l4.9,1.7,5.3-1.7,24-73.8H920.3Zm-2.2,5.7L907.6,350h10.3l-13.5-41.5Z"/><path class="bo" d="M764.5,308.5,751,350h10.2l13.6-41.5Z"/><path class="bn" d="M820.5,308.5,807,350h10.2l13.6-41.5Z"/><path class="bo" d="M852.4,308.5H842.1L855.6,350h10.3Z"/><path class="bp" d="M799,302.8H906.5v11.5H799Z"/><path class="bq" d="M762.8,302.8h55.9v11.5H762.8Z"/><path class="bf" d="M796.4,276l-38.1,9,16.7.8,25.8,1.6Z"/><path class="av" d="M758.3,285l-7.4,46,8.6,7.3,18.5,4.2,1.1-52.7-4.1-4-8.5-2.8-8.2,2Z"/><path class="bh" d="M750.9,331l-19.1,14.3,20.1,2.3,20-1.9v-5.8Z"/><path class="av" d="M731.8,345.3v4.6l40.1.1v-4.3l-40.1-.4Z"/><path class="bf" d="M793.2,255.2l-16.9,11.1L778,276l7.7,9.4,11.7-5.4Z"/><path class="ax" d="M776.3,266.3l-15.5,3.8,5.7,7.8,8.5,7.9,10.7-.4-9.4-19.1Z"/><path class="ba" d="M760.8,270.1l-3.2,18.7,17.4-3Z"/><path class="br" d="M786.2,204.5,783.9,229l16.9-12.9-14.6-11.6Z"/><path class="az" d="M853,192.9l16,62.3L831.1,268,795,270.7,783.9,229l13.4-12.9,27.9-8.6L853,192.9Z"/><path class="bd" d="M762.7,126.5l-7.7-21,85.3,20.8-11.2,7.5L821,135l-10.4-1.2L791,135Z"/><path class="be" d="M840.3,126.3l2.7,22-7.5,1.1-7.8-2.7-6.3-6.1L821,135Z"/><path class="bd" d="M843,148.3l2.7,11.6L821,158.4l6.7-11.7,15.3,1.6Z"/><path class="ax" d="M762.7,126.5,755,189.8l20,3,23,18.3,50.7-20.3-7-27.7-19.4-3.2,2-13.2-4-8.5-9.7-4.4-47.9-7.3Z"/><path class="ba" d="M810.6,133.8l-7.1,62.8L775,192.8l14.3,11.7,8,11.6L853,192.9l-7.3-33-21.4-3.2,3.4-10L821,135Zm-45.5,7.3,8.4,18.2,10,5.8,18.3-20.3Z"/><path class="bb" d="M776.9,142.1l-4.4,22.2,11,.8,2.2-22Z"/><path class="ay" d="M783.5,165.1l-6,4.7-5-5.5ZM775,192.8l36.5,4.7-14.2,18.6Zm47-19.1,11.8,1.3,1.9-16.6,4.6,14.1-14.5,8.8Z"/><path class="ay" d="M825,169.8l1-8h7.1Z"/><path class="bd" d="M765.1,136.3l37.7,4.8-1,3.7-36.7-3.7Z"/><path class="ay" d="M767.3,176.2l25.9,3.1v3.6l-26.7-3.6Z"/><ellipse class="ag" cx="792.4" cy="153.4" rx="3.1" ry="3.2"/><path class="bc" d="M771.8,150.4a3.1,3.1,0,1,1-3.1-3.2A3.14,3.14,0,0,1,771.8,150.4Z"/><path class="ay" d="M853,192.9,811.5,230l-14.2-13.9L853,192.9Zm16,62.3-74,15.5,3.8,14.3,36.2-5,37.8-10.2L869,255.2Z"/><path class="bm" d="M836.2,208l1.3,10,10.9-.9-2.7-17.6Z"/><path class="bh" d="M872.8,269.8l-13.8,33H807v42.5l-21.8-8.4-8.9-5.9L775,285.8l40.6-7.4Z"/><path class="bf" d="M797.3,216.1v23.2l3.5,30.2V238.9l-3.5-22.8Z"/><path class="ay" d="M807.3,238.9l16.6.4v18.2l-16.6,1.1V238.9Z"/><path class="av" d="M823.5,219.3l35.5-3.2-11.5,50.2-22.3-5.8-9.2-8.7,7.5-32.5Z"/><path class="ay" d="M807,345.3l-24,.8-22.2-.8L776.3,331Z"/><path class="bf" d="M760.8,345.3h46.3v4.8H760.8ZM816,251.8,795,268l1.4,8,7.1,7,44-16.7Zm-9,51-20.2-14-5.9-4.1-5.9,1.1,1.3,45.2L807,345.3V302.8Z"/><path class="ax" d="M795,268l-17,1.5,2.3,8.4,6.5,10.9,16.7-5.8Z"/><path class="ba" d="M778,269.5l-3,16.3,11.8,3Z"/><path class="bs" d="M700.4,248.8l-4.1,9.8,7.2,7.7,8.2,2.1,8.6-21.7-19.9,2.1Z"/><path class="ax" d="M696.3,258.6l2,14.3,5.2,4.5,5.2-2.1,3-6.9Z"/><path class="ba" d="M698.3,272.9,706,283l2.7-7.7Z"/><path class="bf" d="M696,201.4,730.5,229l-27,3.8L687,229Z"/><path class="ay" d="M687,229h33.3v9.9l-6.5,9.9H680.5v-9.5Z"/><path class="bn" d="M696.3,302.8l4.9,1.7,5.3-1.7,24-73.8H720.3Zm-2.2,5.7L707.6,350h10.3l-13.5-41.5Z"/><path class="bo" d="M564.5,308.5,551,350h10.2l13.6-41.5Z"/><path class="bn" d="M620.5,308.5,607,350h10.2l13.6-41.5Z"/><path class="bo" d="M653.4,308.5H643.1L656.6,350h10.3Z"/><path class="bp" d="M599,302.8H706.5v11.5H599Z"/><path class="bq" d="M562.8,302.8h55.9v11.5H562.8Z"/><path class="bf" d="M627.4,201.4l-19.1,3.1-4.8,5-12.3,29.8,3.2,11.4,7,8,14-26.9,12-30.4Z"/><path class="bs" d="M591.2,239.3l-24.9,17.5,7.2,16.1,16.3-4.5,11.6-9.7-10.2-19.4Z"/><path class="ax" d="M566.3,256.8l-16.5,16.1,5.7,6.4,4,.7,6.8-1.7,7.2-5.4Z"/><path class="ba" d="M549.8,272.9l2.5,12.1,10.5,4.8V285l-3.3-5Z"/><path class="bs" d="M622.9,211l-19.4-1.5,2.9-7.2,21-.9-4.5,9.6Z"/><path class="az" d="M627.4,201.4l-21,45.3,22.9,14.7,41,18.6L696,201.4l-13,5.1-7.7,6.6-47.9-11.7Z"/><path class="aw" d="M612,121.9l12.4-8.5,54.2,8.1-6.3,8.6-6,4-28.2-5.2-26.1-7Z"/><path class="az" d="M678.6,121.5,693,138.2l-8,6.1-7.3,1.8-6.8-5.6-4.6-6.4,12.3-12.6Z"/><path class="aw" d="M677.7,146.1l-10.9,18,19.2,3.6,7-29.5Z"/><path class="ax" d="M612,121.9l-17.6,70.4,33,9.1,13.6,24,32.3-14.3L684,169.7l-17.3-4.4,8-19.2-8.4-12L612,121.9Z"/><path class="ba" d="M666.3,134.1l-18.6,72.6-9.2-2.2,2.5,20.9,34.3-12.3L686,167.7l-17.3-4.4,9-17.2-11.4-12Zm-50.9,4.1L625,156l2.3,15,8.8-13,15.2-9.7-35.9-10.1Z"/><path class="bb" d="M629.3,142.1l-9.2,27.4,7.2,1.5,7.4-27.4Z"/><path class="ay" d="M620.1,169.5l2.4,6.1,4.8-4.6ZM611,179.8l23.7,6-1.3,3.1-22.4-6Zm70.5,6.9-11.2-2.3,8.9,12.1Zm-7.7-7.4,2.1-9.8,5.6,1.5-7.7,8.3Zm-46.4,22.1,31.9,8.1L641,225.4l-13.6-24Z"/><path class="aw" d="M615.4,133.8l37.3,10-1.4,4.5-35.9-10.1v-4.4Z"/><path class="bc" d="M644.7,156.3c-.6,2.1-2.4,3.4-4.1,2.9s-2.6-2.5-2-4.6,2.4-3.4,4.1-2.9S645.3,154.3,644.7,156.3Zm-23.8-6.1c-.6,2.1-2.4,3.4-4.1,2.9s-2.6-2.5-2-4.6,2.4-3.4,4.1-2.9S621.5,148.1,620.9,150.2Z"/><path class="ay" d="M670.3,280l-7.8,16.7L620,273.3l-18.6-14.6,5-12L670.3,280Z"/><path class="bt" d="M622.9,255.2l-6.6,12.6,15.2,9.5,5.7-14.6-14.3-7.5Zm6.4,16.5-8.2-5.4,2.6-5.8,7.8,4.2-2.2,7Z"/><path class="bf" d="M601.4,258.7,559.5,280l14,5H583l23.4-5,16.5-8Z"/><path class="av" d="M559.5,280l16.8,49,6.7-27.2V285Z"/><path class="bd" d="M662.5,296.7l-3.2,6.1H601.4l-10.2-6.1L583,285l39.9-13Z"/><path class="bf" d="M583,285l-6.7,44,6.7,8.6,11.4,8.6,7-43.4Z"/><path class="az" d="M576.3,329l-20.8,17.2L575,348l19.4-1.8L576.3,329Z"/><path class="av" d="M555.5,346.2h38.9v3.7H555.5Z"/><path class="br" d="M641,225.4l-22.2-5.6,8.6-18.4,13.6,24Z"/><path class="ay" d="M675.3,213.1l-3,22.2L641,225.4Zm2.3-10.8,13.7-7.6,4.7,6.7-20.7,11.7,2.3-10.8Z"/><path class="bf" d="M641,225.4l-3.8,18.8-7.9,14.4,4.1-16.6,7.6-16.6Z"/><path class="ay" d="M649.5,236.3l17.3,5.7-7.5,19.4L642,254.3l7.5-18Zm-29.4-10.9,13.3,5.4-6.7,15.9-13.5-6,6.9-15.3Z"/><path class="bu" d="M687,229l2.5,19.8h-9Z"/></svg>