<svg xmlns="http://www.w3.org/2000/svg" viewBox="0 0 1170 350"><defs><style>.a,.i,.q{fill:#fff;}.a,.aa,.ab,.ac,.ad,.ae,.ag,.ah,.ai,.aj,.ak,.al,.am,.an,.ao,.b,.c,.d,.e,.f,.o,.q,.r,.s,.w,.x,.y,.z{fill-rule:evenodd;}.a{opacity:0.3;}.a,.o{isolation:isolate;}.b,.m{fill:#cececd;}.c{fill:#dddddc;}.d,.h{fill:#ececeb;}.e,.p{fill:#c4c4c4;}.f,.g{fill:#8f8f8f;}.j,.y{fill:#9da1a2;}.k,.s{fill:#737373;}.l,.w{fill:#a3a3a3;}.n,.x{fill:#858686;}.o{opacity:0.1;}.r,.v{fill:#6f7173;}.aj,.t{fill:#474747;}.u{fill:#4f5253;}.z{opacity:0.1;}.aa{fill:#785d88;}.ab{fill:#594165;}.ac{fill:#9075a0;}.ad{fill:#a688ba;}.ae{fill:#96637c;}.af,.ao{fill:#543042;}.ag{fill:#fefefe;}.ah{fill:#dfbda5;}.ai{fill:#c3987b;}.ak{fill:#b3889d;}.al{fill:#734d60;}.am{fill:#e8cab6;}.an{fill:#8b6651;}.ap{fill:#2b2b2b;}</style></defs><title>entp-debater-personality-header</title><path class="a" d="M-26-20H1194.7V378H-26Z"/><path class="b" d="M-7-34H39V359H-7Z"/><path class="c" d="M33-34H79V359H33Z"/><path class="b" d="M73-34h46V359H73Z"/><path class="c" d="M113-34h46V359H113Z"/><path class="b" d="M153-34h46V359H153Z"/><path class="c" d="M193-34h46V359H193Z"/><path class="b" d="M233-34h46V359H233Z"/><path class="c" d="M273-34h46V359H273Z"/><path class="b" d="M313-34h46V359H313Z"/><path class="c" d="M353-34h46V359H353Z"/><path class="b" d="M393-34h46V359H393Z"/><path class="c" d="M433-34h46V359H433Z"/><path class="d" d="M473-34h46V359H473Z"/><path class="c" d="M513-34h46V359H513Z"/><path class="d" d="M553-34h46V359H553Z"/><path class="c" d="M593-34h46V359H593Z"/><path class="d" d="M633-34h46V359H633Z"/><path class="c" d="M673-34h46V359H673Z"/><path class="d" d="M713-34h46V359H713Z"/><path class="c" d="M753-34h46V359H753Z"/><path class="d" d="M793-34h46V359H793Z"/><path class="c" d="M833-34h46V359H833Z"/><path class="d" d="M873-34h46V359H873Z"/><path class="c" d="M913-34h46V359H913Z"/><path class="d" d="M953-34h46V359H953Z"/><path class="c" d="M993-34h46V359H993Z"/><path class="d" d="M1033-34h46V359h-46Z"/><path class="c" d="M1073-34h46V359h-46Z"/><path class="d" d="M1113-34h46V359h-46Z"/><path class="c" d="M1153-34h46V359h-46Z"/><path class="e" d="M1230.5-33.7H222.7l210,77.5h797.8Z"/><path class="c" d="M1232.5-43.7H224.7l210,77.5h797.8Z"/><path class="e" d="M1230.5,257.5H432.7L12.7,370H1230.5Z"/><path class="c" d="M1232.5,267.5H434.7L14.7,380H1232.5Z"/><path class="f" d="M335.4,229.9l-201.1,36V40.5l201.1,55Z"/><path class="d" d="M328.4,223.3l-181.2,27V58.7l181.2,43.5V223.3Z"/><path class="g" d="M258,57l-18.3-6V29L258,36Z"/><path class="h" d="M250.1,67.1l20.3,9.4L287.3,74,272,63.5Z"/><path class="i" d="M259.5,67.1l10,15.5,10.6-12.7Z"/><path class="j" d="M250.1,67.1,273.7,54l-2.8,14.7-20.8-1.6Z"/><path class="g" d="M273.7,54l13.6,20-16.4-5.3Z"/><path class="k" d="M249.2,40.6v5.3l20,10.9,4.5-2.8L249.2,40.6Z"/><path class="l" d="M701.1,209.1l4.2,27.8-14.5-19.2Z"/><path class="m" d="M672.7,257.2,690,202.7l11.1,6.4-20,48.7-8.4-.6Z"/><path class="l" d="M649.5,216.9,646.3,238l11-14.6Z"/><path class="m" d="M667.2,254.2,657.9,212l-8.4,4.9,15.2,36.9,2.5.4Z"/><path class="l" d="M665.2,252.5l-3.9-37.3,15.9-6.9-7,43.7Z"/><path class="m" d="M677.2,208.3l-18.1-29.5,2.2,36.4,15.9-6.9Z"/><path class="n" d="M669.7,253.3l1.1-30.3,17.8,3.4-13.7,26.7-5.2.2Z"/><path class="j" d="M670.8,223l14.7-47.3,3.1,50.7Zm-2.3,28.7L653.3,235l-8.9,6.7,9.4,13.3Zm5.6,0,14.8-18.4,9.1,7-11.4,11.4Z"/><path class="m" d="M688.9,233.3l9.1,7,5.6,14.4-14.7-21.4Z"/><path class="g" d="M690.8,282.5H651.3l-10-32.2h59.5Z"/><path class="k" d="M697.7,260.3H644.4l2.3,7.5h48.7Z"/><path class="m" d="M644.4,241.7l6.6,15.5,2.3-22.2-8.9,6.7Z"/><path class="l" d="M871.1,209.1l4.2,27.8-14.5-19.2Z"/><path class="m" d="M842.7,257.2,860,202.7l11.1,6.4-20,48.7-8.4-.6Z"/><path class="l" d="M819.5,216.9,816.3,238l11-14.6Z"/><path class="m" d="M837.2,254.2,827.9,212l-8.4,4.9,15.2,36.9,2.5.4Z"/><path class="l" d="M835.2,252.5l-3.9-37.3,15.9-6.9-7,43.7Z"/><path class="m" d="M847.2,208.3l-18.1-29.5,2.2,36.4,15.9-6.9Z"/><path class="j" d="M839.7,253.3l1.1-30.3,17.8,3.4-13.7,26.7-5.2.2Z"/><path class="l" d="M840.8,223l14.7-47.3,3.1,50.7Zm-2.3,28.7L823.3,235l-8.9,6.7,9.4,13.3Zm5.6,0,14.8-18.4,9.1,7-11.4,11.4Z"/><path class="m" d="M858.9,233.3l9.1,7,5.6,14.4-14.7-21.4Z"/><path class="g" d="M860.8,282.5H821.3l-10-32.2h59.5Z"/><path class="k" d="M867.7,260.3H814.4l2.3,7.5h48.7Z"/><path class="m" d="M814.4,241.7l6.6,15.5,2.3-22.2-8.9,6.7Z"/><path class="l" d="M1024.1,209.1l4.2,27.8-14.5-19.2Z"/><path class="m" d="M995.7,257.2l17.3-54.5,11.1,6.4-20,48.7-8.4-.6Z"/><path class="l" d="M972.5,216.9,969.3,238l11-14.6Z"/><path class="m" d="M990.2,254.2,980.9,212l-8.4,4.9,15.2,36.9,2.5.4Z"/><path class="l" d="M988.2,252.5l-3.9-37.3,15.9-6.9-7,43.7Z"/><path class="m" d="M1000.2,208.3l-18.1-29.5,2.2,36.4,15.9-6.9Z"/><path class="j" d="M992.7,253.3l1.1-30.3,17.8,3.4-13.7,26.7-5.2.2Z"/><path class="l" d="M993.8,223l14.7-47.3,3.1,50.7Zm-2.3,28.7L976.3,235l-8.9,6.7,9.4,13.3Zm5.6,0,14.8-18.4,9.1,7-11.4,11.4Z"/><path class="m" d="M1011.9,233.3l9.1,7,5.6,14.4-14.7-21.4Z"/><path class="g" d="M1013.8,282.5H974.3l-10-32.2h59.5Z"/><path class="k" d="M1020.7,260.3H967.4l2.3,7.5h48.7Z"/><path class="m" d="M967.4,241.7l6.6,15.5,2.3-22.2-8.9,6.7Z"/><path class="o" d="M546.9,304.4l54.6-8.6,60,13.3-63.17,9L546.9,304.4Z"/><path class="p" d="M536.7,126.2l12.8-1.7-5.3-20.9Z"/><path class="n" d="M548.3,166.7,538,135l-13.3-6.3-2.4,53.5Z"/><path class="k" d="M560.8,200l-38.5-17.8,26-15.5,8.6,4.1,7.8-1.6L560.8,200Z"/><path class="m" d="M536,126.2l13.5-1.7.5,5L538,135l-4.8,4.8Z"/><path class="h" d="M524.7,128.7l8.5,11.1,11-36.2-19.5,25.1Z"/><path class="g" d="M622.2,168.8l20.1,4.4-4.4,33.3L633,242.7,557.3,237l2.7-37.7,2-28.6,60.2-1.9Z"/><path class="d" d="M544.2,103.6l13.3-1.8,9.5,6.6,19.9-8.9,18.5,3.5,3.1,21.6L601.1,140l5.1,2.3,6.4-14.6,11.1,4.3L619,146.2l3.6,7.2-.4,15.4-25.6,13.1-20.2-10.1-19.5-1-12.7-67.2Z"/><path class="b" d="M554.7,125.8l11.7,4.3-.9,13.4,5,4.5,4.3-4.9,7.2-13.4,7.6-5.7-15.4-4.5-9.9.2-9.6,6.1Z"/><path class="q" d="M574.2,119.5l.6,23.6-9.3.4-1.2-23.8Z"/><path class="c" d="M602.8,101.9l-6.5,69.2-19.9.7,20.2,10.1,25.6-13.1.4-15.9-3.6-6.7-12.8-3.9,6.4-14.6-4.1-3.1L605.4,103l-2.6-1.1Z"/><path class="r" d="M580.1,129.7H589l-8.5,3.1Zm-18.9.2v3.3l-7.2-3.3Z"/><path class="f" d="M564.3,119.7l-9.6,6.1-.9-5.9Zm9.9-.2,15.4,4.5v-5.6Zm-11.7,33.2,20.1,2.7-1,1.7-10.9-1.9-8.2,2.9v-5.4Zm-18.3-49.1,13.5-5.3-.2,3.5Z"/><path class="s" d="M557.7,98.3l39.1-13.1,14.3,3.2L586.9,99.5,567,108.4l-9.5-6.6.2-3.5Z"/><path class="f" d="M586.9,99.5l24.2-11.1,14,3.7L605.4,103Z"/><path class="s" d="M605.4,103l19.7-10.9,11.3,41.1L623.7,132l-11.1-4.3-4.1-3.1L605.4,103Z"/><path class="f" d="M623.7,132l12.7,1.2-13.8,20.2-3.6-7.2,4.7-14.2Zm-15.2-7.4L601.1,140l5.1,2.3,6.4-14.6Z"/><path class="e" d="M606.4,170.6l-9.8,11.3-20.2-10.1Z"/><path class="b" d="M606.2,142.3,622.4,161l.2-7.6-3.6-7.2-12.8-3.9Z"/><path class="q" d="M594,107.1l-3.5,7.3,4.1,2.2,2.4-1.7Z"/><path class="b" d="M590.5,114.4l3.1,5.1,3.4-4.6-2.4,1.7Z"/><path class="q" d="M588.9,138.9l-3.5,7.2,4.1,2.3,2.4-1.8Z"/><path class="b" d="M585.4,146.1l3.1,5.2,3.4-4.7-2.4,1.8Z"/><path class="q" d="M557.9,107l-2.6,5.6,3.1,1.7,1.9-1.4Z"/><path class="b" d="M555.3,112.6l2.4,3.9,2.6-3.6-1.9,1.4Zm56,27.8,2.7-7.6,6,1.7-8.7,5.9Z"/><path class="i" d="M622.2,168.8l-25.6,13.1,16.7,8.6,8.9-21.7Zm-41.6,5.1,16,8L576.7,193Z"/><path class="h" d="M576.7,193,594,207l19.3-16.5-16.7-8.6L576.7,193Z"/><path class="t" d="M596.6,181.9l-12.9,16.8L594,207l10.2-8.7-7.6-16.4Z"/><path class="u" d="M557.3,237l75.7,5.7-39,20.8Z"/><path class="v" d="M594,263.5l7.5,40.2,27-10,4.5-51Z"/><path class="n" d="M557.3,237,594,263.5l7.5,40.2-17.7-12L557.3,237Z"/><path class="u" d="M628.5,293.7l7.3,14.6-34.3-4.6Z"/><path class="t" d="M583.8,291.7l-16.1,13,33.8-1Z"/><path class="n" d="M644.7,209.7l-7.5,8,4.3,17.1,22.8-14.3Z"/><path class="k" d="M642.3,173.2l42.9,35-20.9,12.3-26.4-14Z"/><path class="h" d="M637.2,217.7l-12.7,4.1,8.5,20.9,8.5-7.9Z"/><path class="m" d="M624.5,221.8l-7,19.7,15.5,1.2Z"/><polygon class="r" points="567.7 304.7 567.7 308.3 601.5 307.13 635.17 312.2 635.8 308.3 601.5 303.7 567.7 304.7"/><path class="o" d="M686.2,319.3l64.6-7.1,70.7,7.4L752,321.7Z"/><path class="d" d="M771.3,146l-47.8-14.4-14.9,52.8,21.6,9.5,1.6,13.2,27.4,4.4,13-9.8-3-13.2,9.7-12.5-10.5-10-9,11.9-4.8-5.1L771.3,146Z"/><path class="c" d="M769.2,188.5l9.7-12.5-10.5-10-9,11.9-4.8-5.1L771.3,146l-13-3.9-16.2,54.2-11.9-2.4,1.6,13.2,27.4,4.4,13-9.8-3-13.2Z"/><path class="e" d="M765.7,177.6l3.8-4.6,3.5,3.3Zm-6.3.3,2.5,13.5,7.3-2.9Zm-29.2,16,11.9,2.4,12.5,2.2-22.8,8.6-1.6-13.2Z"/><path class="c" d="M751.1,150.6,734,172l-5.7,2.4-2.1-4.9,6.5-13.2L727,141.9Z"/><path class="q" d="M726.2,169.5l8.3-24.6,6.8,2.7L734,172Z"/><path class="s" d="M749.9,153.3l1.3-4.5-25.1-8,1.2,2.2Zm-2.8,7c-.5,1.8-1.9,3-3.1,2.6s-1.7-2.1-1.2-3.9,1.9-3,3.1-2.6S747.7,158.5,747.1,160.3Zm-18.5-6.7c-.5,1.8-1.9,3-3.1,2.6s-1.7-2.1-1.2-3.9,1.9-3,3.1-2.6S729.1,151.8,728.6,153.6Z"/><path class="f" d="M719.2,174.2l8.7,3.9,10.6,2.5-.8,1.7-10.9-2-8.2-4.3.6-1.8Zm4.3-42.6,2.8-10.4,70.4,20.2L771.3,146l-47.8-14.4Z"/><path class="e" d="M771.3,146l-8.6,12.8,27,1.8,7-19.2L771.3,146Z"/><path class="f" d="M762.7,158.8l-8.1,14,4.8,5.1,9-11.9,10.5,10-9.7,12.5,3,13.2,17.5-41.1Z"/><path class="w" d="M731.8,207.1l27.4,4.4-17.4,12.9-14.4-8.9Z"/><path class="e" d="M772.2,201.7l-30.4,22.7,1.7,22.5,40-20.2Z"/><path class="c" d="M741.8,224.4l-14.4-8.9-4.8,15.7Z"/><path class="w" d="M741.8,224.4l-19.2,6.8,20.9,15.7Z"/><path class="w" d="M727.4,215.5,713,233.8l9.6-2.6,4.8-15.7Z"/><path class="f" d="M713,233.8l9.6-2.6v10.6Z"/><path class="x" d="M722.6,231.2v10.6l-.1,10.3,18.8,11.7,27,16.3,11.3-25.7,3.9-27.7-40,20.2-20.9-15.7Z"/><path class="f" d="M743.5,246.9l-2.2,16.9,29.9,18,8.4-27.4,3.9-27.7-40,20.2Z"/><path class="e" d="M722.5,252.1l-27.1,16.4,26.8,12.8,49,.5-48.7-29.7Z"/><path class="w" d="M695.4,268.5l8.9,36.9,18.6,13.8-.7-37.9Z"/><path class="e" d="M704.3,305.4l18.6,13.8H689.6Z"/><path class="w" d="M741.7,263.8l-19.5,17.5H765l1.3-2.7Z"/><path class="f" d="M775.8,299.1H722.2V281.3H765Z"/><path class="y" d="M765,281.3l36.7-81.7,16.1,7-42,92.5Z"/><path class="s" d="M722.2,299.1h13.2v20H722.2Zm40.4,0h13.2v20H762.6Z"/><path class="o" d="M960,316.7l62.5-6.5,61.7,6-60.9,2.8L960,316.7Z"/><path class="e" d="M981.2,279.6l6.7,24.6,9.4,1.5V276.4l-16.1,3.2Z"/><path class="f" d="M997.3,305.7l-.8,9.7H976.8l11.1-11.2Z"/><path class="e" d="M1002.5,138.4,987,186.9l19.1,10.1,10,23.6,23.6-9.8,9.9-13.8-.3-6.5,8.8-8.6-8.8-9.6-5.2,5.9-2.7-1.7,6.5-23.4Z"/><path class="w" d="M1047.9,153.1l-27.4,49.3-14.4-5.4,10,23.6,23.6-9.8,9.9-13.8-.3-6.5,8.8-8.6-8.8-9.6-5.2,5.9-2.7-1.7Z"/><path class="w" d="M1032.2,161.9l-17.4,11.9-6.4,2.9-3.4-6.5,3.2-6-6.1-13.4,8.8,3.3,9.8,3.4,11.5,4.4Z"/><path class="s" d="M1032.2,161.9l-10.2-8-1.3,3.6Zm-20.1-11.3-1.2,3.5-8.8-3.3Z"/><path class="b" d="M1010.9,154.1l-6.1,17,9.4,3.5,6.5-17.1-9.8-3.4Z"/><path class="s" d="M1000.8,179l7.1.2,5.3,4.4h-6.7l-5.7-4.6Z"/><path class="f" d="M998.5,176.7l2.3,2.3,5.7,4.6h6.7l4.8.2-13.2,3.6-6.3-10.7Z"/><path class="s" d="M1026.4,167.5c-.6,1.6-2,2.6-3.2,2.2s-1.7-2.1-1.1-3.7,2-2.6,3.2-2.2S1027,165.8,1026.4,167.5Zm-20.4-7.2c-.6,1.6-2,2.6-3.2,2.2s-1.7-2.1-1.1-3.7,2-2.6,3.2-2.2S1006.6,158.7,1006,160.3Z"/><path class="f" d="M1006.1,197l14.4,5.4,7.5,2.7-11.9,15.5-10-23.6Zm43.2-6.5-7.9-7.9,3.6,20.7,4.6-6.3-.3-6.5Z"/><path class="c" d="M1045.6,186.7l3.7,3.8-1.8,6.9-4.8-1.5,2.9-9.2Z"/><path class="f" d="M1045.4,181.5l4.2-4.2,4.1,4.4-8.3-.2Z"/><path class="s" d="M1002.5,138.4,995,162.5l-5.9-33.3Z"/><path class="y" d="M1002.5,138.4l19.2,8,8.4-33.9-41,16.7Z"/><path class="x" d="M1021.7,146.4l8.4-33.9,54.2,31.4-36.4,9.2-26.2-6.7Z"/><path class="s" d="M1047.9,153.1l36.4-9.2L1049.6,197l-.3-6.5,8.8-8.6-8.8-9.6-5.2,5.9-2.7-1.7,6.5-23.4Z"/><path class="b" d="M1039.7,210.8l-23.6,9.8-13.2,6.1,2.7,11.9,16.4-3.4,17.7-24.4Z"/><path class="e" d="M1039.7,210.8l13,25.9-23.8,13.6-6.9-15.1,17.7-24.4Z"/><path class="c" d="M1022,235.2l-24.1,4.4-2.7,10.9,8.1.6,25.6-.8-6.9-15.1Z"/><path class="e" d="M995.2,250.5l-6.7,7.5-.6-16.5,10-1.9Z"/><path class="w" d="M1052.7,236.7l-14.6,41.8-42.9-28,33.7-.2Z"/><path class="y" d="M995.2,250.5l-6.7,7.5-4.4,5.5,12.6,14.2,41.4.8-42.9-28Z"/><path class="e" d="M984.1,263.5l-15.7,17.9,8.8,4.2,19.5-7.9Z"/><path class="f" d="M968.4,281.4l-13.1-5.6,12.5,17.6,9.4-7.8-8.8-4.2Zm81.7,14H996.5V277.7h42.8l10.8,17.7Z"/><path class="y" d="M1039.3,277.7l36.6-81.8,16.2,7-42,92.5-10.8-17.7Z"/><path class="s" d="M996.5,295.4h13.2v20H996.5Zm40.4,0h13.2v20h-13.2Z"/><path class="o" d="M826,324.7l62.5-6.5,61.7,6L889.3,327Z"/><path class="d" d="M877.9,124.2l41.2,23.7,5.3,33.2-7.8,20.4-28,9.2-4.4-23.5L862.9,178l15-53.8Z"/><path class="c" d="M919.1,147.9,900.7,193l-16.5-5.8,4.4,23.5,28-9.2,7.8-20.4-5.3-33.2ZM905.7,152l-18.1,10.2-4.9,2-2.3-5,4-7.9-6.5-11.6,10.2,3.4,6.5,2.9,11.1,6Z"/><path class="q" d="M888.1,143.1l-7.7,16.1,7,3.2,7.7-16.2Z"/><path class="y" d="M895.1,146.2l1.8-3.2,8.8,9Zm-7-3.1,1.2-3.1-11.4-.3,10.2,3.4Zm-15.4,23.5,9.4.8,6.7,6.6-8.7-3-7.4-4.4Z"/><path class="e" d="M872.7,166.6l6.1,7.5,10-.1-8.4-2.9-7.7-4.5Z"/><path class="s" d="M900.7,156.3c-.6,1.6-2,2.5-3.2,2.1s-1.7-2.1-1.2-3.7,2-2.5,3.2-2.1S901.3,154.7,900.7,156.3ZM881.5,149c-.6,1.6-2,2.5-3.2,2.1s-1.7-2.1-1.2-3.7,2-2.5,3.2-2.1S882.1,147.4,881.5,149Z"/><path class="e" d="M877.9,124.2l33.4-12.1,37.6,16.4-29.8,19.4Z"/><path class="w" d="M919.1,147.9l29.8-19.4,6.6,43.3-36.4-23.9Z"/><path class="y" d="M919.1,147.9l36.4,23.9-28.1,26.3-3-17-5.3-33.2Z"/><path class="x" d="M924.4,181.1l3,17-10.8,3.4Z"/><path class="e" d="M884.2,187.2l16.5,5.8,8.3,3-20.4,14.7-4.4-23.5Zm32.4,14.3,3.1,7.7L882,242.5l-14-21.2,20.6-10.6,28-9.2Z"/><path class="w" d="M919.7,209.2,931.8,236l-43.6,25.8L882,242.5l37.7-33.3Z"/><path class="y" d="M882,242.5l-17-3.4-2.1,14.3,25.3,8.4L882,242.5Z"/><path class="d" d="M862.9,253.4,849,255l16-15.9-2.1,14.3Z"/><path class="f" d="M932.7,234.4l-22,47.1-22.5-19.7Z"/><path class="w" d="M910.7,281.5l-22.5-19.7-25.3-8.4,1.2,34.3,45,1.2Z"/><path class="f" d="M917.8,305H864.2V287.3H907Z"/><path class="y" d="M907,287.3l36.7-81.8,16.1,7-42,92.5Z"/><path class="s" d="M864.2,305h13.2v20H864.2Zm40.4,0h13.2v20H904.6Z"/><path class="d" d="M848.6,290,845,312.3l5.1,12.5L862,300.9Z"/><path class="w" d="M849,255l-3,19.1,16.9-20.7Z"/><path class="y" d="M862.9,253.4l-25.2,29.2L864.2,305V287.3Z"/><path class="e" d="M850.1,324.8H831.8L845,312.3Z"/><polygon class="z" points="387.8 312.65 465.29 303.58 522 310.1 465.98 317.65 387.8 312.65"/><polygon class="aa" points="444.32 268.68 453.74 281.41 466.86 278.12 476.42 270.37 465.98 230.35 447.8 258.08 444.32 268.68"/><polygon class="ab" points="453.74 281.41 465.29 297.84 479.57 294.44 481.88 290.82 476.42 270.37 453.74 281.41"/><polygon class="ac" points="415.23 230.93 465.98 230.35 447.8 258.08 432.09 250.79 415.23 230.93"/><polygon class="ad" points="447.8 258.08 443.02 278.12 429.82 283.58 416.61 278.77 411.13 252.09 410.06 241.26 415.23 230.93 447.8 258.08"/><polygon class="aa" points="443.02 278.12 438.78 296.16 430.85 300.26 420.47 299.56 416.61 278.77 443.02 278.12"/><polygon class="ae" points="438.78 296.16 444.57 309.7 432.57 311 420.15 309.7 420.47 299.56 438.78 296.16"/><polygon class="ae" points="481.88 290.82 498.43 306.4 479.23 307.71 465.6 306.4 465.29 297.84 481.88 290.82"/><rect class="af" x="420.15" y="309.7" width="24.42" height="4.26"/><rect class="af" x="465.6" y="306.4" width="32.83" height="4.26"/><polygon class="ag" points="410.86 159.8 440.6 190.56 448.89 158.43 429.23 155.32 410.86 159.8"/><polygon class="ah" points="448.21 84.17 455.22 76.59 463.19 75.09 474.77 138.67 453.82 144 428.9 145.71 416.8 102.5 414.37 82.13 431.63 80.04 448.21 84.17"/><polygon class="ai" points="443.89 148.55 474.77 138.67 428.9 147.01 419.59 100.52 414.37 82.13 404.15 94.62 407.05 104.31 414.14 116.19 410.95 117.05 409.15 120.5 405.38 117.79 402.34 111.19 398.95 116.39 394.84 118.69 400.94 123.71 403.7 129.82 405.46 133.66 406.37 141.36 410.74 160.25 448.89 158.43 443.89 148.55"/><polygon class="aj" points="466.56 93.57 469.55 71.46 458.22 73.29 466.56 93.57"/><polygon class="ak" points="469.16 165.05 475.79 184.9 473.85 203.31 461.6 211.85 460.93 182.03 469.16 165.05"/><polygon class="ae" points="471.33 199.84 473.85 203.31 487.89 204.98 485.17 219.3 463.56 220.41 462.15 204.44 471.33 199.84"/><polygon class="al" points="470.77 201.88 469.97 209.35 479.9 218.74 487.89 204.98 480.48 203.88 470.77 201.88"/><polygon class="ai" points="478.38 195.56 474.73 191.63 488.07 174.33 491.38 177.43 485.97 186.72 483.77 193.46 478.38 195.56"/><polygon class="ai" points="478.38 192.29 489.33 203.54 481.45 211.38 475.5 206.09 478.38 192.29"/><polygon class="ah" points="475.79 184.9 472.21 185.02 470.77 201.88 475.5 206.09 478.38 195.56 475.79 184.9"/><polygon class="am" points="478.38 195.56 485.97 186.72 493.68 199.46 487.89 204.98 478.38 195.56"/><polygon class="ai" points="425.04 97.8 438.99 105.03 447.07 119.14 446.11 106.02 443.89 98.93 425.04 97.8"/><polygon class="ai" points="452.52 93.03 450.48 98.02 450.17 103.21 452.78 109.55 464.33 90.76 458.88 84.63 452.52 93.03"/><polygon class="aj" points="443.89 98.93 426.18 93.48 425.04 97.8 440.71 102.79 443.89 98.93"/><polygon class="aj" points="450.48 90.3 458.88 84.63 464.33 90.76 461.15 93.26 457.4 88.94 452.52 93.03 450.48 90.3"/><polygon class="am" points="450.48 98.02 454.34 117.33 451.26 119.41 447.07 119.14 443.89 98.93 450.48 98.02"/><polygon class="an" points="461.6 129.48 447.83 130.41 437.13 127.14 438.88 122.88 433 126.64 434.52 134.03 436.59 130.05 447.83 133.32 461.6 129.48"/><polygon class="ah" points="409.15 120.51 410.74 124.14 403.7 129.82 394.84 118.69 402.34 111.19 409.15 120.51"/><polygon class="r" points="448.21 84.17 469.55 71.46 446.84 57.15 445.08 71.96 448.21 84.17"/><polygon class="f" points="448.21 84.17 446.84 57.15 387.8 79.4 400.54 83.29 414.37 82.13 448.21 84.17"/><polygon class="r" points="387.8 79.4 385.53 113.92 395.83 105.22 404.15 94.62 414.37 82.13 387.8 79.4"/><polygon class="aj" points="404.15 94.62 414.14 116.19 409.15 120.51 402.34 111.19 394.84 118.69 385.53 113.92 404.15 94.62"/><polygon class="an" points="398.93 119.14 401.65 116.42 405.06 122.09 398.93 119.14"/><polygon class="an" points="403.7 129.82 408.69 125.73 406.45 141.72 403.7 129.82"/><polygon class="an" points="454.34 117.33 451.16 122.55 447.07 119.14 454.34 117.33"/><polygon class="ae" points="410.86 159.8 438.89 180.67 422.76 193.49 402.91 205.73 396.16 190.32 391.57 170.34 410.86 159.8"/><polygon class="ae" points="448.89 158.43 469.16 165.05 462.98 185.61 451.58 188.04 438.89 180.67 448.89 158.43"/><polygon class="al" points="402.91 205.73 408.42 225.09 415.23 230.93 444.44 233.92 444.57 204.98 438.89 180.67 402.91 205.73"/><polygon class="ao" points="438.89 180.67 462.98 185.61 465.98 230.35 444.44 233.92 438.89 180.67"/><path class="ap" d="M461,100a2.76,2.76,0,1,1-2.76-2.76A2.76,2.76,0,0,1,461,100Z"/><path class="ap" d="M439,105a2.76,2.76,0,1,1-2.76-2.75A2.76,2.76,0,0,1,439,105Z"/><polygon class="an" points="421.04 146.73 474.77 138.67 448.89 150.03 448.89 158.43 421.04 146.73"/><polygon class="ae" points="398.51 208.44 415.23 230.93 404.89 243.31 387.71 228.47 398.51 208.44"/><polygon class="ah" points="411.13 252.09 404.89 243.31 415.23 230.93 411.13 252.09"/><polygon class="ak" points="391.57 170.34 376.62 218.97 387.71 228.47 402.91 205.73 391.57 170.34"/></svg>