<svg id="illustration_layer_copy_4" data-name="illustration_layer copy 4" xmlns="http://www.w3.org/2000/svg" viewBox="0 0 400 400"><defs><style>.cls-1,.cls-15,.cls-22{fill:#2b2b2b;}.cls-1{opacity:0.1;}.cls-2{fill:#a8836c;}.cls-3{fill:#eed2c1;}.cls-4{fill:#9d7700;}.cls-5{fill:#846400;}.cls-6{fill:#e1a842;}.cls-7{fill:#6f7173;}.cls-8{fill:#4f5253;}.cls-9{fill:#bb8e2d;}.cls-10{fill:#825940;}.cls-11{fill:#cfae95;}.cls-12{fill:#f6e5db;}.cls-13{fill:#dcdcdb;}.cls-14{fill:#9ca0a1;}.cls-16{fill:#c3c3c3;}.cls-17{fill:#cdcdcc;}.cls-18{fill:#a2a2a2;}.cls-19{fill:#8c7c2f;}.cls-20{fill:#8e8e8e;}.cls-21{fill:#e4c728;}.cls-22{opacity:0.2;}</style></defs><title>explorers_ESTP_famous_real_ernest_hemingway</title><polygon class="cls-1" points="84.7 387.6 206.45 370.33 308.88 385.79 207.55 400 84.7 387.6"/><polygon class="cls-2" points="127.25 220.24 109.72 214.62 114.31 249.7 132.43 245.97 127.25 220.24"/><polygon class="cls-3" points="127.25 220.24 109.33 204.75 111.59 217.16 117.39 225.69 119.75 235.06 129.89 235.06 127.25 220.24"/><polygon class="cls-4" points="173.72 173.31 154.71 215.99 171.72 242.21 182.08 194.53 173.72 173.31"/><polygon class="cls-5" points="154.71 215.99 141.36 218.05 135.94 239.57 147.11 261.5 168.63 256.85 179.1 244.25 169.87 234.41 154.71 215.99"/><polygon class="cls-6" points="132.1 264.74 147.11 261.5 141.36 218.05 127.25 220.24 132.1 264.74"/><polygon class="cls-7" points="219.86 312.53 230.26 344.32 249.19 355.73 268.67 348.12 278.93 290.6 268.91 246.63 231.46 285.12 219.86 312.53"/><polygon class="cls-7" points="167.6 275.58 166.39 326.63 181.07 346.58 201.64 343.33 219.86 312.53 203.43 290.94 167.6 275.58"/><polygon class="cls-8" points="236.56 285.12 219.86 312.53 167.6 275.58 205.28 269.36 236.56 285.12"/><polygon class="cls-9" points="288.67 154.58 323.4 223.14 262.61 225.69 275.24 184.32 288.67 154.58"/><polygon class="cls-6" points="173.72 173.31 169.87 234.41 228.05 244.25 279.32 220.24 288.67 154.58 270.28 149.47 173.72 173.31"/><polygon class="cls-10" points="171.82 157.31 178.08 143.74 252.07 122.54 267.89 124.27 228.05 165.48 171.82 157.31"/><polygon class="cls-3" points="133.94 27.83 129.14 54.41 139.85 104.62 178.61 141.73 230.68 151.15 248.03 126.78 264.64 79.52 235.47 25.24 214.8 3.09 196.89 3.09 133.94 27.83"/><polygon class="cls-11" points="211.84 3.09 234.37 129.36 226.34 141.73 228.05 154.58 252.46 138.03 260.84 97.22 259.14 88.37 264.64 79.52 262.06 57.36 235.47 25.24 214.8 3.09 211.84 3.09"/><polygon class="cls-2" points="177.6 143.24 205.98 131.21 234.37 129.36 228.05 154.58 191.44 157.32 177.6 143.24"/><polygon class="cls-2" points="264.64 79.52 248.03 82.1 260.84 97.22 264.64 79.52"/><polygon class="cls-2" points="254.03 77.12 252.37 64.47 259.14 63.16 254.03 77.12"/><polygon class="cls-11" points="200.58 58.38 177.6 89.95 140.49 74.16 148.8 66.96 161.81 66.69 170.54 64.75 175.38 58.38 189.51 53.39 200.58 58.38"/><polygon class="cls-12" points="170.54 64.75 177.6 89.95 165.14 92.72 161.81 66.69 170.54 64.75"/><polygon class="cls-13" points="139.85 104.62 159.2 111.09 165.14 92.72 177.6 89.95 195.89 101.53 227.34 89.95 236.86 104.62 234.37 129.36 160.04 149.12 139.93 125.13 139.85 104.62"/><polygon class="cls-2" points="161.81 114.22 194.49 106.08 195.41 110.44 162.92 118.29 161.81 114.22"/><polygon class="cls-14" points="175.38 58.38 173.81 53.39 189.14 49.8 200.58 55.7 200.58 58.38 189.51 54.5 175.38 58.38"/><polygon class="cls-14" points="161.81 66.69 159.78 61.79 147.78 63.16 140.49 70.84 140.49 74.16 148.8 68.07 161.81 66.69"/><circle class="cls-15" cx="189.02" cy="70.63" r="4.5"/><circle class="cls-15" cx="151.15" cy="79.52" r="4.5"/><polygon class="cls-16" points="227.34 89.95 238.24 70.63 234.37 24.05 240.74 18.78 256.34 18.78 262.06 57.36 246 58.38 249.32 110.72 234.37 129.36 227.34 89.95"/><polygon class="cls-17" points="234.37 24.05 196.89 3.09 223.29 0.5 256.34 18.78 234.37 24.05"/><polygon class="cls-13" points="196.89 3.09 159.04 27.09 146.66 22.83 160.43 7.43 196.89 3.09"/><polygon class="cls-17" points="160.43 7.43 173.81 17.72 159.04 27.09 133.94 27.83 160.43 7.43"/><polygon class="cls-18" points="177.6 89.95 173.03 98.67 165.14 92.72 177.6 89.95"/><polygon class="cls-11" points="148.89 52.56 162.74 46.66 181.38 44.99 163.11 49.8 148.89 52.56"/><polygon class="cls-11" points="150 44.99 161.81 40.2 177.6 38.9 161.81 42.78 150 44.99"/><polygon class="cls-9" points="171.82 157.31 228.05 154.58 235.03 164.12 231.46 176.38 173.72 173.31 171.82 157.31"/><polygon class="cls-4" points="228.05 154.58 267.89 124.27 270.28 149.47 231.46 176.38 228.05 154.58"/><polygon class="cls-9" points="169.87 234.41 279.32 220.24 277.6 239.57 259.82 264.74 236.56 285.12 167.6 275.58 169.87 234.41"/><polygon class="cls-8" points="230.26 344.32 235.02 360.13 249.97 369.32 265.67 366.22 268.67 348.12 230.26 344.32"/><polygon class="cls-8" points="201.64 343.33 166.39 326.63 165.55 350.38 174.73 363.14 191.66 361.13 201.64 343.33"/><polygon class="cls-9" points="235.02 360.13 226.08 383.87 245.49 385.91 267.71 383.87 265.67 366.22 252.46 363.6 248.97 364.98 246.89 362.49 235.02 360.13"/><rect class="cls-10" x="226.08" y="383.87" width="41.63" height="7.41"/><polygon class="cls-9" points="165.55 353.44 150.92 362 134.16 375.43 159.44 377.22 191.66 375.43 191.66 361.13 172.73 353.89 165.55 353.44"/><rect class="cls-10" x="134.16" y="375.43" width="57.5" height="7.07"/><polygon class="cls-4" points="252.46 363.6 249.97 372.86 245.49 372.86 246.9 362.49 252.46 363.6"/><polygon class="cls-4" points="172.73 353.89 156.12 364.95 150.92 362 165.55 350.38 172.73 353.89"/><polygon class="cls-16" points="87.59 192.4 84.68 191.45 99.44 145.98 79.31 94.2 89.33 22.92 92.41 23.35 82.45 93.84 102.71 146.06 87.59 192.4"/><polygon class="cls-16" points="103.12 309.35 100.54 304.95 107.7 246.63 110.74 247.03 103.12 309.35"/><polygon class="cls-19" points="94.67 324.05 95.73 333.9 105 344.59 105.19 327.95 94.67 324.05"/><polygon class="cls-4" points="113.62 318.68 100.54 304.95 88.72 319.07 102.66 330.74 111.48 326.77 113.62 318.68"/><polygon class="cls-6" points="96.52 318.43 100.75 313.81 105.52 317.69 101.55 323.49 96.52 318.43"/><polygon class="cls-20" points="119.43 312.28 115.23 338.38 89.33 22.92 95.63 22.4 119.43 312.28"/><polygon class="cls-6" points="122.84 353.81 119.43 312.28 102.66 330.74 108.04 362.59 116.28 374.8 122.84 353.81"/><polygon class="cls-9" points="122.84 353.81 108.04 362.59 112.65 388.77 125.71 388.77 122.84 353.81"/><polygon class="cls-21" points="86.27 186.56 91.55 202.75 82.5 202.8 72.97 196.99 86.27 186.56"/><polygon class="cls-9" points="91.55 202.75 79.64 209.62 72.97 196.99 91.55 202.75"/><polygon class="cls-16" points="81.72 208.43 78.39 220.32 70.07 221 67.99 212.29 71.38 212.01 72.31 217.06 75.38 216.81 78.63 207.7 81.72 208.43"/><polygon class="cls-11" points="105.19 215.99 92.69 224.33 107.04 252.04 114.31 249.7 105.19 215.99"/><polygon class="cls-3" points="105.19 215.99 107.04 252.04 89.48 223.47 105.19 215.99"/><polygon class="cls-22" points="232.46 265.51 258 290.88 261.51 301.89 275.42 311.03 278.41 293.64 261.51 265.51 232.46 265.51"/><polygon class="cls-10" points="251.45 211.21 328.61 246.46 306.42 297.91 232.46 265.51 251.45 211.21"/><polygon class="cls-13" points="252.46 214.24 250.11 212.86 249.7 206.69 324.95 238.83 328.61 246.46 252.46 214.24"/><polygon class="cls-22" points="279.32 252.68 318.05 235.88 324.95 238.83 328.61 246.46 306.92 280.01 285.74 288.85 279.32 252.68"/><polygon class="cls-18" points="249.7 206.69 230.28 256.07 232.46 265.51 252.46 214.24 249.7 206.69"/><polygon class="cls-4" points="279.32 219.31 267.38 248.59 283.71 258.89 309.96 255.15 323.4 223.14 279.32 219.31"/><polygon class="cls-11" points="261.51 261.29 254.51 264.78 250.11 273.25 255.44 275.58 261.51 268.44 261.51 261.29"/><polygon class="cls-3" points="289.65 274.01 285.74 288.85 270.28 288.85 255.44 275.58 261.51 261.29 284.71 264.74 289.65 274.01"/><polygon class="cls-2" points="261.51 261.29 289.65 274.01 291.07 268.61 284.71 264.74 261.51 261.29"/><polygon class="cls-6" points="267.38 248.59 309.96 255.15 303.46 271.68 261.51 261.29 267.38 248.59"/><polygon class="cls-11" points="255.44 275.58 258 290.88 278.41 293.64 285.74 288.85 255.44 275.58"/><polygon class="cls-11" points="177.6 89.95 190.07 89.95 195.89 101.53 177.6 89.95"/><polygon class="cls-11" points="165.14 92.72 157.52 99.87 159.2 111.09 165.14 92.72"/></svg>