<svg xmlns="http://www.w3.org/2000/svg" viewBox="0 0 900 350" width="900" height="350" style="width:100%;height:100%"><defs><clipPath id="a"><path d="M0 0h900v350H0z"/></clipPath></defs><g clip-path="url(#a)"><g display="block"><path fill="#D0CFCE" d="M486.1619873 82.87500763l17.5169983-14.625 169.18400001-28.602005L897.5579834 60.3460083l-9.59899903 219.90399933-399.78999328-38.375-2.00700379-159z"/><path fill="#CBAF3D" d="M503.21899414 30.37400055l-17.05700684 52.5L503.67900085 68.25l393.87998963-7.90399933L900 1.25 503.21899414 30.37400055z"/><path fill="#C5C5C4" d="M4.01300049 60.25l347.1519928-12.6659851 152.5139923 20.66599273-.45999145 180.625L21.06999207 329.25l-17.05699158-269z"/><path fill="#B48E3E" d="M4.01300049 60.25l499.66500854 8-.45899963-37.875L0 0l4.01300049 60.25z"/><g opacity=".1"><path fill="#3C3C3C" d="M284.6150055 332.25l-63.44999696-4.67300034 8.93499756-1.99399948-74.24700117-11.00000024L47.15700531 275.25l-28.76299286 14 2.67599487 40 24.74900055 11 88.6289978 9.75 24.85199929-8.61899948 48.81199837 3.7859993L284.61500549 332.25zM462.3650055 325.72199121L402.40900444 315.189991l-64.7890017 7.95400023 43.91200256 12.4480002 80.83300018-9.87000022zM462.87597656 284.91599274l-93.14500427 21.83300018 296.48900604 27.5 113.37799835-47.33300018-49.16400146-5.66699982-267.55799866 3.66699982zM738.4610138 315.75l79.2640028-5.5 59.19700336 15.5-67.72600341 13-70.73500276-23zM86.28699982 127.75l-36.12099945-28.5-8.02600098 117 91.30400085-8.5-1.50500106-27.5-45.65199936-52.5z"/></g><path fill="#DEDDDC" d="M84.281003 140.74999237l-33.11000157 43.5 5.18400193 21.16699982 88.79600143-5.83399964-4.18100357-27.166L84.281003 140.74999237z"/><path fill="#ECECEB" d="M50.16600037 99.25l1.00400161 85 89.79999924-11.83300018L138.96300125 99.25H50.16600037z"/><path fill="#CBAF3D" d="M67.72499752 129.58300018l-6.5209999-12.00000024 9.19700002-.16599988 2.17400026-8.33399988 9.69899988 5.33399964 4.34699965-6.5 4.68300056 13.50000024-23.57900047 8.16600012z"/><path fill="#DEDDDC" d="M62.54199982 142.24900031l68.22699737-1 .16799927 5.33400011-68.56199646.5.16699982-4.8340001zM62.54199982 154.4159925l68.22699737-1 .16799927 5.3340001-68.56199646.5.16699982-4.8340001zM62.87599945 167.08299994l68.22699738-1 .16799926 5.33400012-68.56199646.5.16699982-4.83400012z"/><path fill="#D0CFCE" d="M66.0890007 188.56899887l68.14700318-3.47099977.36100006 5.3249998-68.49900055 2.9829998-.00900269-4.83699983z"/><path fill="#DEDDDC" d="M98.82999706 116.24900031l30.43500042.16799998-.33500004 4.66600013-30.43500042-.666.33500004-4.1680001z"/><path fill="#BC913D" d="M178.5949936 315.12401152l-.8779998 10.3760004-13.04299974-.75-2.97000026-7.50000024 16.8909998-2.12600016z"/><path fill="#9F7D3D" d="M52.67399788 317.41699982l3.84599972 15.16600036 14.54900026-3.5 4.51499987-15.16600036-22.90999985 3.5z"/><path fill="#E2AB4B" d="M107.18899536 314.583992l25.2500019 23.16600037 12.16299916-3.17000008 1.5500002-8.6630001 31.94099998-9.66600037-.37599945 9.24900055 4.45800018-1.28000069 23.34200096-29.9699993-8.02700043-20.66600038-86.95700073 21.33300019-3.34400177 19.66699981z"/><path fill="#BC913D" d="M43.30900192 284.41700745l1.17099762 47.5 12.04000092.66699981 3.01000023-8.83399963 55.85300064 3.16699982 2.17399978 9.66699981 14.88199807 1.16600037v-30.49999976l-89.12999726-22.83300042z"/><path fill="#C5C5C4" d="M98.82700348 287.75000763l33.61200142 19.5 76.75599861-13.5 5.01800156-33.83399963h-90.97000122l-24.41600037 27.83399963z"/><path fill="#9EA2A3" d="M135.28299713 259.58299255l-1.33799744 12.16699982-1.50500106 35.5-98.32799912-9.5 8.19400025-34.16699982 92.97699737-4z"/><path fill="#ECECEB" d="M42.30599976 263.583l91.63899803 8.167 76.75699806-9-67.72599793-9-100.66999816 9.833z"/><path fill="#3C3C3C" d="M91.30400085 263.999012l27.46699906-4.37400056 27.592.62400055 4.7659998 7 22.69999886 14.99999953 1.50500106 5.00000047-36.70499944 6.5 2.34100008-22.87400007-2.50899983-2.1260004-7.02300024-.62400008-40.13399935-4.12599945z" opacity=".1"/><path fill="#E2AB4B" d="M141.9730053 268.37500572l-1.00300026 2.5 2.63300037 18.375 33.98900127-4.56299972-5.58100128-18.375-30.0380001 2.06299972z"/><path fill="#F0BD6D" d="M120.6519928 265.5l20.31700086 5.375 31.04100085-4.563-17.8720007-4.687-33.48600101 3.875z"/><path fill="#C3997F" d="M154.04799676 279.26500684l-4.2759999-.22500002.71299997-.97199995h2.85100004l-1.2010001-1.60699999-1.28199994.05500007-.256-1.40100003h-1.05l-.11100006 1.56799984-2.02799988 2.02100003 1.08799982 1.60800004h3.26400006l.11300004 1.04700005-3.3770001.48600006.1880002 1.49499989 2.34699992-.14299989.09099999 1.3019998 1.7259999-.11199998-.58299995-1.26600003.6960001-.04299999 1.08699989-3.8129999zM154.19899678 277.43299687l1.04900003-2.393 3.48899984-.22500015.977 3.4780001-2.32799995 2.468 2.81499994-.22500003.11199999 1.42100013-4.05199993.93400001-.56200004-2.43000006 2.06400007-2.46700007-.63900003-1.53299993-1.72499999 1.08399999-1.19999993-.112zM164.34200144 275.4459939l-1.47099997-1.37899995-2.207.20299983-.61400009 3.40700011.61400008 2.2710001 2.084 1.78399992 1.84000003-.32400012.94000006-2.9609999-1.18600011-3.00099999zm-.899 4.01499999l-1.10399996-.28400004-.65300006-1.66199994.44900006-.93299997h.53199998l.77599999.60799998.36799997 1.5-.36799997.77099997zM170.23099375 274.58600855l-1.46999998-1.37899995-2.20899992.20299983-.612 3.40700011.612 2.2710001 2.08599993 1.78399992 1.83900002-.32400012.94000006-2.9609999-1.18600011-3.001zm-.898 4.01499998l-1.10399998-.28400003-.65499997-1.66299996.44999999-.93199995h.53199998l.77699998.60799998.36800003 1.5-.36800003.77099996zM141.65999658 267.84300292l-1.59999998-.81200004-2.4460001.65600008 3.60600007 1.68699997 4.23299992-.812-1.37999987-.96900001-2.41300004.25zM144.18400216 265.95300877l1.34799981 2.53100002 1.5990001-.31299996-.18799997-.75000006 1.37899998-.281 1.00400004.59400002 2.28799987-.53099999-4.2629999-1.96900001-3.16699993.71899998zm2.46099997.85900002l-.15700007-.54699998.78400004-.26500005.57899997.56200004-1.20599994.25zM154.530998 264.49999708l-1.17700005-.56199998-4.21700001.87399996 1.36399996.719 1.08200002-.24999999 1.63099998 1.37499997 2.10100001-.46899998-2.35299998-1.32799998 1.56900006-.359zM159.78299952 264.48400293l-1.56800002.469-.51699999-.266 1.37900004-.437-.78300006-.39099998-1.28599995.45299998-.42299998-.25.92499995-.49999997-.75300002-.35900003-2.25699997.51499999 3.49499998 1.98500001 2.979-.657-1.19099998-.562z"/><path fill="#AD9448" d="M111.5969994 225.34699316l2.24299992-4.93099995 4.42900002 1.45899988-.46000004 6.79700017-6.26999998 1.54799985.05800009-4.87299995z"/><path fill="#90813F" d="M109.86999881 231.88200188l-1.14900005-3.2099998.51699996-7.05199981 4.602-1.204-.20099997 8.15499974-3.76899994 3.31099987z"/><path fill="#CBAF3D" d="M116.65899992 244.26600647l5.8670001-7.45300013-4.717-8.14100021-4.17000002-.0999999-8.91500002 11.80200004 11.93499994 3.8920002z"/><path fill="#AD9448" d="M104.92399979 242.65999746l-4.25699997-6.30600017 8.05300009-7.68300015 4.91900003-.09899997-4.4000001 8.30200016-4.31500005 5.78600013zM106.1900034 245.41300583l4.6880002 19.83600044 12.25200033-2.7510004-.6040001-25.68500042-13.28700017.06200027-3.04900026 8.5380001z"/><path fill="#90813F" d="M100.66800022 236.3550024l.02800036 27.00199986 10.44000005 1.89199924-1.89600014-28.375-8.57200027-.5189991z"/><path fill="#CBAF3D" d="M111.99800253 244.75000167l8.85599995-.48300004-.11600018 7.10800004-7.53499985.57400012-1.20499992-7.19900012z"/><path fill="#AD9448" d="M135.6769979 226.34699316l2.2439999-4.93099995 3.79600006 1.26199985.17199993 6.9940002-6.26999998 1.54799985.05800009-4.87299995z"/><path fill="#90813F" d="M133.95200086 232.88200188l-1.15100003-3.2099998-1.36400008-7.0480001 6.4840002-1.2079997-.20200013 8.15499973-3.76699996 3.31099987z"/><path fill="#CBAF3D" d="M140.73999763 245.26600647l5.86800026-7.45300013-4.7190001-8.14100021-4.16900015-.0999999-5.26400017 11.91000032 8.28400016 3.78399992z"/><path fill="#AD9448" d="M129.00499344 243.65999746l-4.25699997-6.30600017 8.05400002-7.68300015 4.9180001-.09899997-.43100023 8.12600016-8.28399992 5.96200013zM130.27000332 246.41299915l4.68800068 19.8359995 13.5369997-2.875-1.88800001-25.56099988-9.319-.11399937-7.01800037 8.71399975z"/><path fill="#90813F" d="M124.74800253 237.3550024l-1.2119999 27.8939991 11.68099976 1 2.0710001-28.55099964-12.53999996-.34299946z"/><path fill="#CBAF3D" d="M138.38100505 245.7829957l7.306-.5170002.42500018 7.7340002-8.07600021-.05000018.34500003-7.16699982z"/></g><path fill="#937061" d="M806.75401306 179.92698237l-4.12100029-11.2140002-35.6970005 2.72000027 16.84900045 16.37199975 19.26299906 2.75800037 3.70600128-10.63600019z" display="block"/><g display="block"><path fill="#B48E3E" d="M784.24100429 311.89099741l-14.8580001 4.23700003-.12800026 4.23699995 31.34400082.171.17199993-4.15099995-16.5300004-4.49400003z"/><path fill="#CBAF3D" d="M790.42400503 302.77499819l-3.48800015 3.88199973-17.55299974 9.47199988 31.3899994.25600004-.17299939-7.48899984-10.17600012-6.12099981z"/><path fill="#B48E3E" d="M838.08700728 322.3540001L829.456007 324.676v3.83000004l21.44799996.13999987.08600044-3.78799993-12.90300012-2.50399989z"/><path fill="#937061" d="M851.59900856 279.7349987l-3.908 33.38399887-1.66400003 10.52099991-7.72600007.08200073-3.1780002-10.7180004-4.8080001-34.066 21.2840004.7970009z"/><path fill="#6D5247" d="M850.68300533 288.01899838l-.08300018.16600013-18.56799984 2.73500014-2.23300076-11.64000035 8.33600045 1.36400032 12.54800033 7.37499976z"/><path fill="#937061" d="M820.01000404 271.40499878l-19.41000056 37.49000168-13.67800069-2.2140007 8.57300043-33.8220005 24.51500082-1.45400048z"/><path fill="#6D5247" d="M817.26200485 277.73899841l-5.83999967 9.9300003-16.5079999-12.48900031 6.15199995-.6630001 16.19599962 3.22200011z"/><path fill="#CBAF3D" d="M829.45600128 324.67599726l5.66799975-11.67199993 12.52800035.42700004 3.35999966 11.49100018-21.55599976-.2460003z"/></g><path fill="#B1907E" d="M846.0670166 191.34098202l10.29100013-20.65400082 17.92700028 31.81600094-8.49300003 11.3060007-4.6470002-.52200126-11.212-12.02699947-3.86600018-9.91900009z" display="block"/><g display="block"><path fill="#937061" d="M878.88301873 233.13897705l-5.60800004.60800076-2.82600021 9.73499953 3.02400017 3.19599998 4.27100014-8.9979999-.444 8.19399988 3.261 10.12500036 8.52800003-4.62500048.72000027-12.53200006-10.92600036-5.70300007z"/><path fill="#B1907E" d="M876.04501915 222.40797615l6.14600015 5.00699997 7.71199965 11.45899963-12.60399961 7-5.19599963-14.72199988 3.94199944-8.74399972z"/><g><path fill="#937061" d="M873.27401984 233.74697685l-12.1290003-20.46000004 13.14000033-10.78600025 7.90400029 24.91400051-8.91500032 6.33199978z"/></g></g><g display="block"><path fill="#6D5247" d="M757.76300144 157.03198147l-4.66899967 4.35199928-15.6069994-2.39299965 6.72999954-22.45899963 10.72300005 6.44399977 2.82299948 14.05600023z"/><path fill="#ECECEB" d="M761.39900208 140.1569829l-4.18000031-24.1670003-24.24800014-.33300018-4.68200017 24.33300066 13.15100027 12.75199986-.90300012 19.9189992-7.10599995 2.99700164 7.41100025 4.26099968 13.28399945-2.51099968-7.87099958-5.2709999-.09099996-18.6100011 15.23500026-13.36999988z"/><path fill="#E4C837" d="M756.38200188 138.82398275l-9.33599973 8.3429999-6.71700025-.17500019-7.1909995-8.50099972 1.55999946-8.6159999 19.81599999.125 1.86800003 8.8239999z"/><path fill="#B1907E" d="M755.35200167 159.24898338l5.12099981-6.62499952-5.53199983-9.64800024-10.22099995-3.0689993-1.00499964 4.74999953 4.3909998 2 2.58599996 7.1789999 4.65999985 5.41299963zM742.16900158 140.82398224l-10.61899996 2.3329997 5.93699998 15.83499957 5.85299998-1.99999953-1.171-16.16799974zM756.2699995 167.37498093l8.90500021 17.66699981 18.61100054 2.7630005-18.48600054-27.43000031-5.45000028.4499998-3.57999993 6.5500002z"/><path fill="#CBAF3D" d="M760.47300243 152.62498093l-7.37900018 8.75800001 3.17700004 5.99199999 9.02900028-7-4.82700014-7.75z"/></g><g display="block"><path fill="#B48E3E" d="M804.29800797 192.83998108l-4.7290001 6.75300026 7.64400101 27.78899956 1.07899857 8.11400032 17.40000064-.12800026 24.35900013-1.55800057-.1119995-6.49699974 1.53199958-25.20599937-47.17300033-9.2670002z"/><path fill="#CBAF3D" d="M812.06500626 169.12198257l-9.43199921-.4090004-3.06299973 30.88100053 51.89999962 2.51300048 4.88799858-31.42000007-9.50899887-.55200005-27.1789999 9.1619997-7.6050005-10.17500019z"/><path fill="#B1907E" d="M812.06600761 169.12198162l-.08200073 19.65100002 26.62400055.78900051 8.24200058-19.42800045-2.8380003-.30599975-27.11500072-.70600033h-4.83099938z"/></g><g display="block"><path fill="#F0BD6D" d="M807.21500778 227.3819809l42.72500038-.0699997 4.7329998 22.93400002-26.84600019-11.265-20.61199999-11.59900032z"/><path fill="#E2AB4B" d="M794.83300781 275.17898178l47.1229992-7.53700066 12.71700096-17.39700007-47.45899964-22.8620007-12.38100052 47.79600143z"/><path fill="#BD923D" d="M794.83300781 275.17998123l56.0170002 12.92099953 3.82299996-37.855999-59.84000016 24.93499947z"/></g><g display="block"><path fill="#525152" d="M844.013031 169.8289814l12.34599949.85900116 10.88299965-40.27300072-6.95599937-3.14900017-9.35200024 6.28600026-10.70399952 14.15100014 3.783 22.12599933z"/><path fill="#937061" d="M844.01303387 169.82797432l-9.53500009 4.04100227-8.08100009-5.32500076 10.84400007-59.06300163 3.33299998-1.14800072 1.70499992 3.12900162 6.34000015 33.71299982-4.60599994 24.6529994z"/><path fill="#6D5247" d="M850.97002983 136.19697857l-2.35100019 8.97799969-5.69700014-12.04699994 4.42600017-.16899967 3.62200016 3.23799992z"/><path fill="#525152" d="M782.0090332 101.12597942l10.93299961 29.88599968 2.24300003-10.36199999-4.21399974-13.81899976-1.1040001-6.98900032-7.8579998 1.2840004z"/><path fill="#757778" d="M803.49303257 76.1519785l-21.48399937 24.97500037 8.96199894 5.70499993 14.11000037-6.24699974 7.58399988-5.66800046 8.38799953-9.32899976-8.789999-5.64400053-8.77000035-3.79199982z"/><path fill="#757778" d="M838.94203377 76.12197876l-17.79900027 3.3050003-7.54200029.31400013-.67199993 7.32999993-.18700028 11.96500015 8.92900038 4.43200016 15.91500044-10.74900031 1.35599995-16.59700036z"/><path fill="#B1907E" d="M842.92403221 133.12797737l.76100016-5.54499984.33099985-13.17000031 11.44200039 7.84000015-4.48700023 13.94400025-8.04700017-3.06900025z"/><path fill="#6D5247" d="M851.13903332 125.813977l1.15300011 3.93500007-5.87200021 2.10399997 2.25500011-6.91400004 2.46399999.875z"/><path fill="#525152" d="M864.59703255 95.32097888l-25.65599919-19.19900012-17.2699995 27.34500027 6.93499947 7.02200031 8.63700008-1.00900078 5.03499979 1.98200035 14.9600001-.99600029 7.35899925-15.14499974z"/><path fill="#6D5247" d="M822.07003379 178.70898056l12.40699983-4.84000015 4.77000045-15.16100025-4.5550003-1.2290001-36.68700028-1.47799968 15.13300038 6.3590002 8.93199992 16.34899998z"/><path fill="#525152" d="M843.61903286 127.6589775l-4.20000005-17.85400008 6.58400011-1.72999955-2.38400006 19.58399964zM803.49303246 76.1519785l9.17200015 18.76600074 9.00800015-15.49100018-18.1800003-3.27500057z"/><path fill="#B1907E" d="M837.24303246 109.47997856l-2.5510006 47.9979992-39.75599861 1.03100013-3.96500015-51.67700005 21.6949997-11.914999 9.00699996 8.54999923 15.5699997 6.0130005z"/><path fill="#6D5247" d="M812.2360324 132.16697693l-2.98500005 1.01499998 3.00100004 3.49899996 3.01100005-3.61899996-3.02700005-.89499998z"/><path fill="#937061" d="M795.75703287 114.8009801l3.45800018-.86899997 7.92499996 2.6329999 1.81499982 2.59000015 2.53600025 7.24900008-2.07700014 4.04199981s-5.81899996-9.27999997-5.86599996-9.65699994c.006-.26800001-7.7910001-5.98800004-7.7910001-5.98800004zM815.26303148 119.30798006l-2.0960002 5.56700015 2.26000024 8.10500026 7.37300014-11.26600027 7.52900028-6.65800047-4.26800012-1.19999981-9.67900038 2.7840004-1.11899996 2.66799974z"/><path fill="#BA9F90" d="M808.95503354 119.15498018l6.30800009.1539998v13.75300027l-6.01300001.11899996-.29500008-14.02600003z"/><path fill="#525152" d="M796.09403276 112.53097749l-.43100023 2.23999996 11.47600031 1.79399996.17600012-3.676-11.2210002-.35799992zM816.71003246 112.88897884l-.4920001 3.83399999 14.11200047-1.66599995-.94400025-2.34199995-12.67600012.1739999z"/><path fill="#3C3C3C" d="M802.95503304 118.78797698c1.30600002-.01699996 2.37899997 1.0250001 2.39599993 2.32700004.01600003 1.30200003-1.02899992 2.37200008-2.33499994 2.38900004-1.30700002.01699996-2.37900004-1.0250001-2.39699993-2.32800004-.01600003-1.30199995 1.02899992-2.37100008 2.33599994-2.38800004zM822.61103262 118.53497863c1.30700003-.01699996 2.37999998 1.0250001 2.39600001 2.32800004.01699996 1.30100003-1.02900004 2.372-2.335 2.38800004-1.30600003.01699996-2.37800006-1.0250001-2.39599994-2.32700004-.01600004-1.30200003 1.02899992-2.37200008 2.33499993-2.38900004z"/><path fill="#757778" d="M867.24203205 130.41497993l-2.6449995-35.09399986-25.1789999 14.48500014 12.27999973 24.01499986 15.54399967-3.40600014z"/><path fill="#FFFEFF" d="M812.23803318 141.26497674l-8.04100025.40999985 8.49200022 6.25600004 10.54200018-6.41999984-10.99300015-.24600005z"/><path fill="#E4C837" d="M802.06403255 141.59297514l10.87100047 8.99599981 12.10300047-9.28199959-3.1600008.0409999-8.98399968 5.4379999-8.20500046-5.39700002-2.625.204z"/><path fill="#876C3A" d="M812.4320333 139.71898007l-10.49200034 1.83299998 10.78600031.88499996 12.31000036-1.13099997-12.60400033-1.58699997z"/></g><path fill="#9F7D3D" d="M585.88896942 166.5l-22.5749991-15-10.7849996 4.25-13.79599953 32.75 23.32699913 10.25 23.8289991-32.25zM616.99395752 173.25L626.0229578 150l27.65700054 22.75-18.12400041 20.75-10.28499998-4.25-8.27700043-16z" display="block"/><g display="block"><path fill="#B48E3E" d="M574.85297394 154.5l-16.30599976 34 1.50499916 28 62.20899964-.25 3.01000023-27-50.41799927-34.75z"/><path fill="#CBAF3D" d="M571.40497208 148.08399963l-8.0909996 3.41699982-4.7649994 37 66.72200013.75.7519989-39.25-7.20999909-2.75-47.40800094.83300018z"/><path fill="#E4C837" d="M581.37497139 143.75l-9.97099876 4.33300018L570.40097237 167.5l15.43899917-12.088 23.9420004 12.088 9.03099918-20.25-8.43399907-2.97399998L581.3749714 143.75z"/></g><g display="block"><path fill="#E2AB4B" d="M553.16000175 53.64200222l-1.40899944 13.65999973 6.97899962-.16499996 12.11899995-7.37599993 1.01799965-10.7869997-1.89899921-5.51999998-16.80800057 10.18799984z"/><path fill="#BC913D" d="M610.69299889 51.96200275l-40.72599984-8.50800037-.39100074 15.2210002-1.22399903 2.7459998 31.54499913 8.76000024 12.25699901.41100025-1.46099853-18.63000012zM636.32800102 89.58300263l-4.8039999-9.20799977-12.66200018-2.35700035-10.638 7.09899998.6470003 7.46700024 4.34799958 8.944 23.1090002-11.9450001zM525.4280014 89.91200328l26.2659998 15.54500031-.27199936-5.86400032.36999988-17.24199962-4.25500011-3.32000065-22.1090002 10.88100028z"/><path fill="#E2AB4B" d="M525.42700195 89.91100407l23.40500069-2.39700032 1.85099983-8.66700005-1.1100006-3.50399995-4.62499953-3.2260003-19.52100039 17.79400062z"/><path fill="#F4CAB4" d="M593.14499843 119.9690001l-16.00399959 19.36199927 8.6989994 16.08099938 24.53900052-11.13599777 1.95799923-24.48400092-2.63099957-7.93700004-13.89400005-32.57299852-3.40700007 13.30199813.74000013 27.38500047z"/><path fill="#C29381" d="M604.3390026 114.06800508l7.99799992 5.72500015.45399975-4.9180001-3.08599984-3.0200001-5.36599982 2.21300005z"/><path fill="#525152" d="M595.34200382 85.5260024l3.52800036 21.78700019 5.19099986.48600006 9.15799964-6.27000046-1.01699925-14.84299994-2.03600025-4.70299959-17.4829998-3.59600067 2.65899944 7.13900042z"/><path fill="#E2AB4B" d="M612.15399861 70.59100056l-15.49400067 6.41299998-1.31799889 8.52299989 16.85999966 1.15799999 19.32199955-6.30999994-19.36999965-9.78399992z"/><path fill="#CBAF3D" d="M563.26400375 62.98700213l6.31099892-4.31200003 42.57900047 11.91599989-8.55599975 1.7090001-39.40999985 1.38500024-2.31200027-2.21500016 1.38800048-8.48300004z"/><path fill="#F3D763" d="M551.0150013 73.66100264l3.82999992.20700025 14.41800022.18400002.31400013-15.37800026-17.82600021 8.62800014-.73600006 6.35899985z"/><path fill="#BC913D" d="M544.94800186 72.11600113l67.20600128-1.52499962-16.81200027 14.93499994-6.73500061 4.6830001-36.26000023-.85200025-3.51499939-1.84399986-3.88400078-15.39700031z"/><path fill="#FBE3D5" d="M549.39700127 140.11400032l20.57100057-.1040001 11.487 5.10000039 13.46899985-5.4130001.41699982-54.17099953-46.50799942 1.9869995.56399918 52.60099984z"/><path fill="#F4CAB4" d="M553.13000345 101.21500397l2.4039998-2.44099999 9.06799985 2.21299982.35400009 2.70000005 1.67999983 6.61199999-3.70099974 4.14899993-3.97800004-9.40499985-5.82699979-3.82799995zM571.900002 103.73900294l-2.21199989 6.09799981 2.31399965 4.15000058 6.0130002-9.40500033 7.40099984-4.14900005-3.23899985-3.0420003-9.89799976 3.68700028-.37900019 2.66100001z"/><path fill="#C29381" d="M566.3580004 112.8800037l-3.42299998 1.569 4.812 4.24099993 4.62200001-3.97099995-6.01100003-1.83899999z"/><path fill="#FEEFE8" d="M565.06000042 103.68700314l-2.125 10.76099968 9.43400001.2709999-.46999979-10.98000002-6.83900022-.05199956z"/><path fill="#525152" d="M553.12900019 97.54700053l-.07800007 3.90400004 11.55000019-.46399999L564.25 98.56300056l-11.12099981-1.01600003zM572.63000345 98.40500236l-.35200023 2.6730001 13.13700008-.6450001.05900001-3.58900011-12.84399986 1.5610001z"/><path fill="#3C3C3C" d="M558.95700073 102.92200303c1.17499995 0 2.12800002.95000005 2.12800002 2.12100005 0 1.171-.95300007 2.12100005-2.12800002 2.12100005-1.17499995 0-2.12800002-.95000004-2.12800002-2.12100005 0-1.171.95300007-2.12100005 2.12800002-2.12100005zM579.12500381 102.18500352c1.176 0 2.12800003.95000005 2.12800003 2.12100005 0 1.171-.95200003 2.12100005-2.12800003 2.12100005-1.17499995 0-2.12800002-.95000005-2.12800002-2.12100005 0-1.171.95300007-2.12100005 2.12800002-2.12100005z"/><path fill="#FBE3D5" d="M613.21900463 101.5280037l-9.34399986-.27699996.46399975 12.81699991 8.45100021.80699969.4289999-13.34699965z"/><path fill="#C29381" d="M607.29900205 104.3870027l3.70000005.09299994-3.42299998 5.90100002-.27700007-5.99399995z"/><path fill="#FBE3D5" d="M557.7500019 121.97900438l21.77199937-.8590002-3.12599945 7.32000017-15.0500002-.33099997-3.59599971-6.13z"/><path fill="#C29381" d="M558.064003 122.44700193l22.55400085-.3119998-6.03100062 9.83399964-10.10099983-.07699966-6.4220004-9.44500018z"/><path fill="#FFFEFF" d="M561.24800062 124.0860002l15.79399967-.36399996-1.98399973 3.59000003-11.513.10399998-2.29699994-3.33000005z"/><path fill="#C29381" d="M569.96800232 140.00900269l24.95600033-.31200028 6.47399997-.31299972-15.55900014 16.02799987-15.87100016-15.40299987z"/></g><g display="block"><path fill="#C29381" d="M666.71395016 159.30700016l6.86399984 4.52600002 17.2199998-2.1999998-7.9949999-26.67599965-12.73600006 7.6539998-3.35299968 16.69599963z"/><path fill="#ECECEB" d="M665.80394936 140.08300066l4.1810007-24.1670003 24.2479992-.33300018 4.6810007 24.33300066-13.15000033 12.75199986.90300012 19.91799974 7.10599947 2.9980011-7.41099978 4.26099968-13.28399992-2.51099968 7.87000013-5.2709999.09099996-18.6100011-15.23500025-13.36999988z"/><path fill="#E4C837" d="M670.8199501 138.74999928l9.33599973 8.34300018 6.71800017-.1760006 7.18999958-8.49999952-2.88599967-14.2920003-17.93400002.875-2.42399979 13.75000024z"/><path fill="#FBE3D5" d="M669.84294987 160.94099903l-5.29399967-8.69099975 5.07899975-8.68799996 11.03699994-4.125 1.94399977 4.125-5.83199978 5.99999988-1.66399991 5.949-5.2700001 5.42999983zM683.86294985 139.66600132l12.03999996 3.27100039-5.10499996 18.69700002-6.43400007-3.46800041-.50099993-18.5z"/></g><path fill="#F4CAB4" d="M664.5499916 152.25l-28.99499892 41.25 19.46199911 9.25 18.56199915-38.91699982L664.5499916 152.25z" display="block"/><g display="block"><path fill="#B48E3E" d="M430.26600266 286.91699982L438.96200276 306.25l17.39099979-4 15.71899986-29.66600037L430.26600266 274.25v12.66699982z"/><path fill="#BD923D" d="M731.6030035 283.58399945l3.17900086 11.667-20.0670004-1.66699982-13.37800025-17.66700029 35.2840004-4.66599989-5.0180006 12.333z"/><path fill="#E2AB4B" d="M760.5350113 229.75l-8.02599717 59.16699982L734.78201293 295.25l-5.0170021-15.33300018L683.77801228 295.5l-4.84899998 17.91699982L657.69101334 321.25l-31.43799973-60.66699982L760.5350113 229.75z"/><path fill="#BD923D" d="M411.87200928 248.91600037l13.67199707 57.37599945L438.96201325 306.25l5.685997-21.66599977 175.25099945 13.33299959 4.68199921 20L657.69200897 321.25l3.34400177-75.33399963-249.16400146 3z"/><path fill="#B1B1B1" d="M672.40701675 220.58300018L776.33802032 218.75l-1.08700561 32.16599981-115.38499832 31.66799982L637.6240158 237.25l34.78300094-16.66699982z"/><path fill="#9EA2A3" d="M524.24600649 215.75l-116.81799746 13.30599976-8.6000061 37.52799987 261.03800964 16L661.70401001 242.25l-137.45800352-26.5z"/><path fill="#ECECEB" d="M407.42799377 229.05600023L661.70399475 242.25l114.63400269-23.5-207.44200135-13.5-161.46800232 23.80600023z"/><path fill="#3C3C3C" d="M488.88001251 228.5l61.20399475 5.75 15.8030014-4.33299994 59.19700051 6.99999976 18.39499855-6.99999976L663.88001252 232.25l37.45799255-7.5-46.48799515-4.5-15.04999924 4.66700006-100-5.33399988L488.88001251 228.5z" opacity=".1"/></g><g display="block"><path fill="#F4CAB4" d="M592.24397278 207.74999976l7.69099974-8.83299994 13.67099977 7.08299994-1.12899971 10.41700006-14.2119999 4-6.0209999-12.66700006z"/><path fill="#FBE3D5" d="M575.35596943 204.91699982L580.87296963 200.5l19.06299972-1.58300018-1.67199993 21.5L578.86696911 214l-3.51099968-9.08300018z"/><path fill="#F4CAB4" d="M538.73296738 188.5l42.13899994 12-2.00599862 13.5-40.94799995-4.33300018L538.73296738 188.5z"/></g><g display="block"><path fill="#9F7D3D" d="M568.31097412 220.3329966l4.26399994-4.41700005-42.55899906-5.04099989-20.48499966 2.70800019 41.63899899 12.83199977 17.1409998-6.08200001z"/><path fill="#CBAF3D" d="M555.93697524 214.33299637l4.26300013-5.5 2.67500007 3.33299994-.5 8.91700006-5.01800012 1.25-1.42000008-8z"/><path fill="#E4C837" d="M551.08697462 209.08199644l.25 12.16800022h8.52900028l.33300019-12.41800022-9.11200047.25z"/><path fill="#CBAF3D" d="M540.30097508 212.6239965l-7.39999985-3.75000024-2.88500023 2 4.76600003 10.1260004 10.53600001.25-5.01699996-8.62600016z"/><path fill="#E4C837" d="M541.4289766 222.49899626l-8.52800042-13.6239996 9.90800041-1.5 8.52800042 13.8739996-9.90800041 1.25z"/><path fill="#CBAF3D" d="M522.36597538 211.9989965l-4.3909998-2.50000024-1.3800001 3.50000024 4.6409999 8.37600016 7.6509999-.6260004-6.5209999-8.74999976z"/><path fill="#E4C837" d="M524.99997544 220.24899673l-7.023-10.75 5.76800013-1.375 12.41599989 12.25-11.16100002-.125z"/><path fill="#CBAF3D" d="M530.7689743 223.249996l20.56799987-2.00000005 21.23799989-5.33299995-1.67199898 7.5-19.73300087 6.5-20.4009999-6.667z"/><path fill="#9F7D3D" d="M631.26997566 222.91599673l5.5189991-4.667-39.96799946-2-22.40799999 5.167 38.12799978 6.833 18.72900057-5.333z"/><path fill="#E4C837" d="M591.97197485 217.41599631l-2.84399986-4.83299994-11.03600025 9.5 13.54500007 5 .33500004-9.66700006z"/><path fill="#CBAF3D" d="M603.84397316 218.74999619l-4.8499999-3.5-9.8659997-2.66699982-6.01900006 11.33399963 22.23999977 1.5-1.50500011-6.66699981z"/><path fill="#E4C837" d="M602.33997893 225.74899673l-3.34599995-10.5 13.42199993.3119998-2.55200005 8.85500026-7.52399993 1.33299994z"/><path fill="#CBAF3D" d="M621.23697233 226.08299637l4.34699965-11-13.16699958.47900009-7.06699968 9.8540001 15.88699961.6669998z"/><path fill="#E4C837" d="M626.9219737 223.0829959l-1.33800005-7.99900008-6.68799997 8.66600037 8.02600003-.6670003z"/><path fill="#CBAF3D" d="M603.00897217 226.2489965c.66900062 0 15.88599992-2.5 15.88599992-2.5l17.89199996-5.49999977-.50200081 8.66799975-20.23399902 4.66599989-13.04200005-5.33399987z"/><path fill="#AD9448" d="M668.81697202 177.19299637l1.60500002-6.50599991 6.18700003 1.77299976.22200012 9.02200032-8.0880003 1.99699974.07400013-6.28599991z"/><path fill="#90813F" d="M666.59097648 185.62399626l-1.48399997-4.14199996.66799998-9.09699989 4.64699984-1.69899988 1.02900004 10.66699982-4.8599999 4.2709999z"/><path fill="#CBAF3D" d="M675.34597206 201.59899616l7.56799984-9.61400014-6.08399987-10.50200003-5.37999988-.13000012-6.78999996 15.36500025 10.68599987 4.88100004z"/><path fill="#AD9448" d="M660.20896912 199.52699661l-5.49100018-8.13499987 10.38800025-9.9100002 6.3440001-.12899971-.5550003 10.48299992-10.68599987 7.69099986z"/><path fill="#AD9448" d="M661.84197521 203.07699585l6.04699946 25.5890007 15.80499982-3.55000114-.77899932-33.13100052-12.02100027-.14900017-9.05199969 11.24100113z"/><path fill="#90813F" d="M654.71796894 191.39199638l.03700066 34.83399964 13.46699953 2.43999862 2.6720004-36.82999992-16.17600059-.44399834z"/><path fill="#CBAF3D" d="M672.3039689 202.26399755l9.42299987-.66599988-.14800025 9.171-9.71999979.73899984.44500018-9.24399996z"/><path fill="#B48E3E" d="M574.41297722 221.416996l44.48199844 2.33200026-2.8429985 7.8340001-38.29400063-2.66600012-3.34499931-7.50000024zM509.53097534 213.58199692l5.68599987 13.66799974 35.95300007 2.6659999.16699982-8.66599984-41.80599976-7.6679998z"/></g><path fill="#876C3A" d="M259.97499561 205.40300179l-20.77600002-31.50399971-3.33000088 29.59199953 5.27400065 14.10399961 14.70499992-6.08599949 4.12700033-6.10599994z" display="block"/><g display="block"><path fill="#BD923D" d="M178.15000153 234.46599579l-10.54499913-15.7659998-11.37500024-6.9140005-16.09599947 2.7680006 27.36399936 33.01599979 6.7670002-7.29699993 3.88499928-5.80700016z"/><path fill="#C3997F" d="M170.6570015 251.0589957l8.54000008 8.35199978 6.44599998-8.07499978-4.16300011-8.02299979-10.82299995 7.74599978z"/><path fill="#EAECEB" d="M167.49900198 247.56899428l4.86999989 5.33399988 8.00500011-8.75699985 2.217-3.87300003-4.44099998-5.80799985-10.65100002 13.10399985z"/></g><g display="block"><path fill="#7A6137" d="M236.70399284 252.99501157l-10.26799965 19.6360004-14.65000033-.71800042-20.5929997.71800041-7.7670002-24.33700037 33.57700015-9.12700033 19.70099973 13.8280003z"/><path fill="#B48E3E" d="M242.83499336 255.40301323l-6.13199997-12.47799873-6.41099953 16.31099891-18.50699973 12.67599964 3.7909994 28.24100018 10.6010002 21.039999 11.84899962-25.664999 4.80900001-40.125z"/><path fill="#876C3A" d="M215.57699394 300.15301514l3.92200041 29.2350006 15.9760003-10.15900039 2.55200006-23.70100021-22.45000077 4.625z"/><path fill="#B48E3E" d="M211.78599167 271.91201305l-15.10499942-12.00800037-8.81700004-21.95400047-8.71199941 20.78800201 2.06099987 38.04099941 3.42499924 37.87500096 19.90200042-35.37500096 7.24599934-27.36700058z"/><path fill="#876C3A" d="M204.53999233 299.27801132l-23.32799911-2.5.96299934 27.44099999 8.4860003 4.85099983 7.19200015-3.7460003 6.68699932-26.04599952z"/><path fill="#9F7D3D" d="M197.98499298 334.04001403l6.80099964 2.91700008-.31299972 3.39000008-24.4829998.39499998v-3.46400007l17.99499988-3.23800007zM238.58099174 327.51600957l15.34399987 4.72900003v3.093l-35.04199982-.44000006v-3.50399996l19.69799995-3.87800001z"/><path fill="#CBAF3D" d="M253.92399216 332.24501467l-18.44899988-13.0159998-16.59299994 5.56999988v6.59500009l35.04199982.85099983zM182.17599297 324.2190156l-2.18599987 13.06000042 24.79599952-.3210001-6.93199968-11.6329999-15.67799997-1.10600042z"/></g><g display="block"><path fill="#525152" d="M255.20900321 84.96899414l9.9139998 7.93400002-12.92399979 31.81599998 3.00999999-39.75z"/><path fill="#8E6C5A" d="M233.26099968 157.02799892l-5.43600082 11.33799982-14.2329991 12.28700018-23.97699999-21.125 8.97200012-9.28999996 3.01200009-1.30300045 14.5449996 4.53100014h8.46700048l8.64999962 3.56200027z"/><path fill="#C3997F" d="M189.52999973 167.26199913l16.13900042 14.57900047 7.90099954-2.02000045L192.625 158.15399933l6.02000005-1.5 17.4979996-3.18800068-16.1929996.20200062-.056-60.19900131-8.23899984 3.00200271-6.59100008 27.29599857-4.10299969 14.80299956 8.5689993 28.69200033z"/><path fill="#8E6C5A" d="M180.96100068 138.56999254l7.52499986-10.352-3.08199978-3.14999985-6.7119999 4.12699985 2.26899982 9.375z"/><path fill="#525152" d="M196.54100037 96.13099766l-9.727 26.08899975-2.09100002-5.58899975h-5.05699998l-4.47399998-2.41100025-3.65100002-16.4470005 6.76200008-4.24699975h13.86299992l4.375 2.6050005z"/><path fill="#DEBDA6" d="M185.62400007 114.18799353L188.487 128.21899366l-9.79399991.97700024-3.49999976-14.97700024 10.43099975-.03100013z"/><path fill="#8E6C5A" d="M182.88400018 117.04799724l.85300005 6.45599985-5.22800017-6.45599985h4.37500012z"/><path fill="#585B5B" d="M250.58600187 64.24999619l14.53700018 28.65299987-7.10300016 2.60499955-4.033-.33899975-8.97800016-12.62899995 3.57999993-11.4389999 1.99700021-6.85099982z"/><path fill="#757778" d="M218.92899895 81.46399593l25.56900024 4.2479992 4.43099976-3.908 1.65699959-17.5539999-40.86299897-3.85199928-.68099975 5.20999956 9.88699913 15.85600042z"/><path fill="#525152" d="M220.17900085 82.82299566v-5.54899978l-10.45600032-16.87700034-30.2659998 13.44800032 9.30099964 6.37400019 19.60200024 10.02400017 6.42100048-4.19099999 5.39799976-3.22900057z"/><path fill="#585B5B" d="M210.40499878 89.95799637l-2.04500008-3.22799987-29.27999878-12.76100045-7.53899955 23.80400085 24.99999904-1.6420002 5.22799969.51000023 8.63599968-6.68300056z"/><path fill="#DEBDA6" d="M254.20600128 157.77899551l-55.55999946-1.125-2.10499955-60.5229988 23.63799954-18.8579979 28.7510004 4.52999878 9.0909996 13.70499992-3.81500053 62.270998z"/><path fill="#C3997F" d="M231.21700096 110.32099628l4.61399984-1.98000001.25099993-4.4369998 10.93199969-1.39799977 2.48899984 1.27299977-15.21799946 25.17299938-3.06799984-18.63099957zM225.48500061 108.09099483l-.34699964 19.84200001-15.00099993-26.4460001 4.43099975-2.15199947 10.6040001 3.94400024.31299972 4.81199932z"/><path fill="#8E6C5A" d="M231.00299913 132.40299916l4.76599997-4.625-5.23399998-1.31699991-5.39799999 1.472 5.866 4.46999991z"/><path fill="#E8CAB8" d="M235.83200073 108.3409977l-10.34700012-.25-.34700012 19.84199905 10.63100004-.15499973.0630002-19.43699932z"/><path fill="#3B3B3B" d="M239.11499786 114.22799683c0 1.69799995 1.421 3.115 3.125 3.115 1.70500005 0 3.125-1.41700005 3.125-3.115 0-1.699-1.41999995-3.11500001-3.125-3.11500001-1.704 0-3.125 1.416-3.125 3.115zM214.39900208 113.20899582c0 1.755 1.41999995 3.115 3.125 3.115 1.70500004 0 3.125-1.36 3.125-3.115 0-1.699-1.41999996-3.11500001-3.125-3.11500001-1.70500005 0-3.125 1.416-3.125 3.115z"/><path fill="#525152" d="M225.73600006 98.02799606l-15.55199957.875-.046 2.583 15.03399992 1.792.56399965-5.25zM236.14500141 98.4649942l-.06299972 5.4380002 13.42000007-.125.18799973-2.2500001-13.54500008-3.0630001z"/><path fill="#8E6C5A" d="M213.61200047 135.98599195l15.5099996 14.91800023 14.98799959-14.12599993-30.4979992-.7920003z"/><path fill="#FFFEFF" d="M219.65200043 138.4029975l18.87599945.68799996-9.28099972 8.12600016-9.59499973-8.81400013z"/></g><g display="block"><path fill="#8E6C5A" d="M272.03400421 193.5l10.85199985 5.90299988L293.35400391 196.125l-7.77499986-23.12599945-10.72299981 6.44399977L272.0340042 193.5z"/><path fill="#ECECEB" d="M269.14800453 178.50000048l3.42999935-26.0420003 24.2470007-.33300018 3.8029995 25.87500048-12.27199984 11.21000003.90400028 19.9189992 7.10500002 2.99700165-7.41100025 4.26099968-13.283-2.51099968 7.87000001-5.27099991.09099996-18.61000109-14.48399973-11.49499988z"/><path fill="#E4C837" d="M273.41300392 175.29099917l9.33599973 8.34300018 6.71800017-.1750002 7.18999958-8.5-1.0039997-3.875h-21.57299996l-.66699982 4.20700002z"/><path fill="#DEBDA6" d="M274.66800499 194.875l-4.14100027-6.49999976 6.0630002-10.20799995 7.23199988-4.16799974 2.38300037 3.49999952-4.39100027 5.33400023-.41799998 5.41600001L274.66800499 194.875zM287.6280036 177.29100037l13 .70899963-7.27499996 18.125-6.89699997-2.66599989 1.17199993-16.16799974z"/><g><path fill="#EAECEB" d="M262.48500347 206.40299988l1.50399971-11.25 6.77200008-7.5 12.12399983 11.75-5.76799965 7h-14.63199997z"/></g><g><path fill="#B48E3E" d="M263.98900437 195.15299988l-21.14800095 21.75 15.3790009 13.75 18.9790008-24.41699982-13.21000075-11.08300018z"/></g></g><g display="block"><path fill="#EAECEB" d="M227.82399654 168.36499786l-11.93400001 56.41799927-6.65999985-45.35400009 4.34000015.39100075 3.17699981 1.04099941 11.0769999-12.49599934z"/><path fill="#FFFEFF" d="M215.89099693 224.78299713l-2.32199955-44.9640007-14.4230001-.91600037-9.61699986-11.63999939 26.36199951 57.52000046z"/><path fill="#CCCBC9" d="M227.82399845 168.36499691l-14.2539997 11.45500004 10.11599993 8.08300007 4.13799977-19.53800011z"/><path fill="#EAECEB" d="M200.1709975 190.29899788l13.39900029-10.47900033-23.97800064-12.57900024 10.57900035 23.05800057z"/><path fill="#CBAF3D" d="M239.19899559 173.89899635l-11.375-5.53399849-11.93400002 56.41999817 15.74000001-8.1309986 11.73200012-14.54600049-4.16300011-28.20900059z"/><path fill="#CBAF3D" d="M177.87399864 171.6839962l-4.1610012 18.53200054 8.32500076 15.7630005 13.22099993 15.29899882 20.63200071 3.50600052-26.36100054-57.52199936-11.65599966 4.42199898z"/><path fill="#876C3A" d="M196.68099761 259.90299988L217.55599785 245.25l3.88299942-9.12599993-5.54899979-11.33999967-22.4749999-1.6590004-15.2619996 11.34000015 4.1630001 19.63700009 14.36499953 5.80099964z"/><path fill="#9F7D3D" d="M182.03799725 205.97999573l-5.82899952.27600002-.27700043 5.25399971 2.21899986 22.95600033 38.09499932-2.39500046-.35499955-7.28599977-33.85299968-18.80499983z"/><path fill="#B48E3E" d="M241.99799538 239.90299797l1.36400032-37.79600143-27.47200013 22.67700076.3550005 7.28599953 25.7529993 7.83300114z"/><path fill="#9F7D3D" d="M242.83399773 255.40299988l-.60599995-21.93700028-25.9840002-1.3959999 1.31200027 13.18000018 12.73599982 13.98600018 12.54200006-3.83300018z"/></g><path fill="#876C3A" d="M167.6059947 218.69998932l14.43100023-12.72099972-4.1630001-34.29499912-37.73900032 42.86999893 14.15300035 2.21100044 13.31799984 1.93499947z" display="block"/><path fill="#DEBDA6" d="M406.62197876 166.55801392l30.08300018 15.69199925 11.91500092 3.87499994-5.519001 12.62500024-25.92499925.52599907-10.07999992-8.58099937-12.12199974-15.70900011 11.64799881-8.42799902z" display="block"/><g display="block"><path fill="#8E6C5A" d="M461.16397762 170.1260147l4.76599932 3.91699983 16.00999975-3-7.23199963-21.41799927-10.72199989 6.44399977-2.82199955 14.05699968z"/><path fill="#ECECEB" d="M457.52697754 153.25001574l4.1810007-24.1670003 24.24699975-.33300018 4.68200016 24.33300066-13.15100026 12.75199985.90300011 19.9189992 7.10599995 2.99700165-7.41100025 4.26099968-13.283-2.51099968 7.87000013-5.27099991.09099996-18.61000109-15.23500025-13.36999988z"/><path fill="#E4C837" d="M462.54397774 151.91701614l9.33599972 8.3430003 6.71800018-.1760006 7.18999958-8.4999997-.92000008-8.0000003-21.15299988.08300019-1.17099952 8.25000011z"/><path fill="#DEBDA6" d="M463.83997703 170.91601563l-4.18199993-5.91600013 4.32800007-8.931 10.22099972-3.06900024 1.00300026 4.75-4.38899994 1.4380002-2.58600008 7.74100018-4.3950001 3.98699999zM476.75697803 153.91701508l10.61899996 2.33300018-5.43500006 14.79100037-6.31300008-1.70700026 1.12900018-15.4170003z"/></g><path fill="#C3997F" d="M436.70599365 182.25001526l22.95200062-17.25 6.56400013 8.95800018-23.12000084 24.79199982-6.3959999-16.5z" display="block"/><path fill="#DEBDA6" d="M366.32997799 173.3130188l-20.09599972 27.96900082 7.05999994 4.59700107 13.70000029-4.59700107 1.52199936-20.37699986-2.18599987-7.59200096z" display="block"/><g display="block"><path fill="#C3997F" d="M322.57397652 195.58301544l-10.598 2.79199982-11.84999996-10.375 5.0159998-9.875 10.53600025 6.375 6.8959999 11.08300018z"/><path fill="#8E6C5A" d="M325.58497572 186.7490158l-9.90700007-2.25-3.51299953 13.875 12.41599953 1.20899964 9.02999962-2.66599989-8.02599955-10.16799974z"/><path fill="#DEBDA6" d="M336.45397758 196.41601563l-6.89800024-6.22000003-2.2989999-5.86300016-7.94400013-4.08399963-1.421 3 5.18400002 4.49999982-1.00299979 4.417 8.194 4.41699981 6.18700004-.16699981z"/></g><path fill="#C3997F" d="M366.99399376 201.28102174l-37.43900108-11.08400026-4.97500039 9.38600028 25.47000075 12.68600023 16.94400072-10.98800025z" display="block"/><g display="block"><path fill="#DEBDA6" d="M366.20999146 172.93301392l40.40999984-6.375-12.62599993 20.35400009-27.78399991-13.9790001z"/><path fill="#9F7D3D" d="M366.20999146 172.93301296l.7840004 28.35000038 19.39499997-9.37100029 7.44100046-7.96799993-27.62000083-11.01100016z"/><path fill="#9F7D3D" d="M393.82999039 183.94401312l12.79100036-17.3859992 10.5550003 32.7179985-16.9760003-5.02999878-6.37000036-10.30200052z"/><path fill="#7A6137" d="M366.99399185 201.28201485l1.69000054 28.82199955 25.22099912 14.70300007 13.5239998-15.75099946 9.74699975-29.77900028-23.3459996-15.33199978-26.8359996 17.3369999z"/></g><g display="block"><path fill="#3C3C3C" d="M349.01998425 159.63500595l25.6420002-3.1459999-3.77700043-21.61800004-21.86499977 24.76399994z"/><path fill="#807F80" d="M331.5979833 103.4220066l-12.31900018 28.24200059 23.73200035-10.43100024-11.41300017-17.81100034z"/><path fill="#3C3C3C" d="M448.81698465 105.54700756l1.45200014 12.19799995-17.09399986 2.18099976.3540001-20.08799934 15.28799962 5.70899963z"/><path fill="#646464" d="M438.8419857 80.55701065l16.45699978 19.03200007-13.38799965 6.454-6.32500017-2.86400033-5.13899946-16.03099966 8.3949995-6.59100008z"/><path fill="#535253" d="M455.29898071 99.58900738l-19.71399975 3.58900022-8.9819994 7.66600001 6.57099963 9.08100021 22.12499952-20.33600044zM319.27798271 131.66300774l34.37800026 9.31500053 16.0380001-1.06200027-2.71500014-18.70900035-10.95100022-12.90700078-36.75 23.36300087z"/><path fill="#876C3A" d="M431.2649796 108.52200794l8.71099973 18.24100018-12.29399967 6.65700054 1.03399992-7.1840005 3.24499988-1.80099987-2.2789998-4.91299999-1.65100003-3.80199993 3.23399997-7.19800043z"/><path fill="#DEBDA6" d="M364.95898438 124.1260069l7.92200279 22.01300067 10.96999931 19.63999939 13.40599966-1.43700028 6.16700018-10.5909996 24.42300045 3.19400024 10.99400139-76.38800048-53.66200256 23.2159996-20.22000122 20.35300046z"/><path fill="#C3997F" d="M389.0719862 119.63500977l-1.85100007 33.17300033 16.20399976.94400025-7.25899983 12.35899925.4989996 7.97400093-17.73599959-3-9.23599958-31.16800058.36699962-5.85899985-5.10099983-9.93099975 15.73699975-18.27600098 8.37600017 13.7840004zM423.2369845 100.69600964l-2.03799988 2.21199989-2.23900032 15.70800018 9.14500022-11.21099996 3.57500005-4.27199984-8.44300008-2.43700027zM415.98498297 102.14100933l-4.26800013-3.34800053-11.61199999 1.70400048 9.32800007 11.88699996 2.82600022 10.84500039 3.72599983-21.0880003z"/><path fill="#8E6C5A" d="M380.0419817 131.9820056l-10.34899998 7.93600034-4.7340002-15.79100048 8.86700034-12.81500042 11.51700043 7.04400063-5.3010006 13.62599993z"/><path fill="#E8CAB8" d="M415.984981 102.14001083l5.21500021.76799965-3.01600015 21.14999962-5.92600024-.82899952 3.72700018-21.08899975z"/><path fill="#8E6C5A" d="M412.25898552 123.22900772l2.5659999 4.01399994 3.35799989-3.18400002-5.9239998-.82999992zM438.13298225 85.48200989L389.00098228 122.435009l-9.72200012 1.06900025 2.0699997-9.18499947 30.3680005-15.52600002 27.12400008-18.23499966-.70800019 4.92399979z"/><path fill="#646464" d="M349.91698265 97.50400925l-4.40499973-6.88299942-30.89799977-2.28499985 32.03499985 47.80799866 12.56500054-15.74299908.06799888-10.98500013-9.36499977-11.91200018z"/><path fill="#807F80" d="M340.8739829 103.10100937l-26.25999975-14.76700044 42.02799988-11.78700042-2.56100082 15.87900043-13.2069993 10.67500043z"/><path fill="#646464" d="M407.77798462 61.685009l-38.23699951-6.85699844-28.66699982 48.27399826 41.6449995-19.85299921 25.25899983-21.5640006z"/><path fill="#3C3C3C" d="M424.85598493 95.0250101l6.82300019 8.10799981-8.44200039-2.43699992 1.6190002-5.67099988z"/><path fill="#876C3A" d="M394.15698242 129.05900955l20.40700078-.32299995 12.53500056 6.03299999-15.90900069 14.93299961-17.03300065-20.64299965z"/><path fill="#515152" d="M404.35998344 136.76500678l6.66500014-3.5480001 7.39700014 5.98700011-4.13500023 3.97100008-5.32599998-.88999987-4.60100007-5.52000022z"/><path fill="#FFFEFF" d="M404.35998201 136.76500607l14.0619998 2.44000005 4.13399983-3.97000002-22.79599953-3.99000002 4.5999999 5.51999999z"/><path fill="#876C3A" d="M382.35198212 117.33100605l-2.31099987 14.64999962-20.1750002-2.71299982.51200009-3.40600002 4.58099985-1.73499995 10.3840003 1.23699998.82699967-5.61799985 6.18200016-2.41499996z"/><path fill="#8E6C5A" d="M403.42498493 153.75100899l-21.79599953-3.09200001 15.03599978 23.4260006 6.75999975-20.3340006z"/><path fill="#3C3C3C" d="M359.2819848 109.41700554l-12.6329999 26.72800064 35.70199967-18.81400013-23.06899976-7.91400051zM429.68298101 110.31000942c.296 1.69399995-.84299993 3.30699998-2.54299998 3.60299999-1.70000005.2939999-3.319-.83999992-3.615-2.53399998-.29600001-1.695.842-3.30800003 2.54199999-3.6030001 1.69999999-.29499985 3.31999999.83899998 3.616 2.53400009zM410.33898687 107.3950079c.296 1.69400007-.84299993 3.30899996-2.54299998 3.60400004-1.70099997.29500008-3.319-.84100008-3.615-2.53500003-.29600001-1.69399994.842-3.3079999 2.54199999-3.60299998 1.69999999-.29500008 3.31999999.83899999 3.616 2.53399998z"/><path fill="#535253" d="M447.10998154 74.06600952l-58.03900004 45.5699997-48.19700002-16.533 49.92600011-15.67399978 56.30999995-13.36299992z"/><path fill="#989797" d="M447.10998154 74.0660088L422.64098167 52.4840088l-81.7670002 50.61800003 106.23600007-29.03600001z"/><path fill="#454645" d="M319.27798271 131.66300964l50.41600037 8.25400019-20.6750002 19.71799994-29.74100017-27.97200013z"/></g><g display="block"><path fill="#7A6137" d="M441.48198128 322.94100022l-23.52500057-.49300003-1.00899983-7.00099992h11.17300022l13.36100018 7.49399995z"/><path fill="#DEBDA6" d="M418.9559803 298.16800022l8.22600031 8.09300017 15.19600058 13.74800039-3.48900032 1.1829996-14.03999997-3.34899997-5.65600013-4.013-1.22300053-6.12100006.98600006-9.54100013z"/><path fill="#C3997F" d="M417.9709835 307.70900059l6.8790002 10.13400006 20.64899968 1.49300027-4.0159998 3.60500002-24.53399943-7.49400018 1.02199936-7.73800017z"/><path fill="#9F7D3D" d="M435.070983 313.39799905l-3.84699995 6.40899992 3.15799992.96500015 3.20599992-5.097-2.5169999-2.27700007z"/><path fill="#C3997F" d="M364.21298218 280.02600098l3.80599975 32.50199985 1.61899996 10.24300099 7.52200008.08099937-.4920001-10.3050003 5.51099991-31.31299973-17.9659996-1.20800018z"/><path fill="#DEBDA6" d="M368.01898241 312.52799988l-.83900022 17.81499958 13.99600029-.16899967-4.51200009-17.8210001-8.64499998.17500019z"/><path fill="#C3997F" d="M367.17998219 330.3450005l13.99600029-.171-7.98000014-4.45100021-6.01600015 4.62200022z"/><path fill="#9F7D3D" d="M366.83698225 325.7239995l13.00800037-.33100009-.51500034-2.365-11.49799967.38400005-.99500036 2.31200004z"/><path fill="#8E6C5A" d="M365.10498238 288.09300017l.08099937.16100002 15.2920003 2.34000015 1.70099973-9.3590002-4.85699963-.32299996-12.21699977 7.181z"/><path fill="#C3997F" d="M401.115983 278.49600029l16.8540001 29.21299934 9.2119999-1.44799995-8.3460002-32.9279995-17.7199998 5.16300011z"/><path fill="#8E6C5A" d="M401.11598396 278.4950006l4.0449996 7.01699996 14.2409997-9.921-5.9889996-.64499998-12.2969997 3.54900002z"/><path fill="#7A6137" d="M382.98698235 331.31900024l-5.05699969-13.96199989 1.91400004 12.033-11.82600022.26900005-.13399982-14.28999997-2.6789999 16.30200005 17.78199959-.35200024z"/></g><g display="block"><path fill="#F3D763" d="M407.4289856 229.05601501l-38.74499989 1.04699994-7.4630003 21.2130003 26.13900018-10.96700012 20.069-11.29300012z"/><path fill="#E4C837" d="M419.4839859 275.59201431l-45.88000107-7.33799934-12.38199997-16.93700028 46.20600129-22.26099968 12.05599975 46.5359993z"/><path fill="#CBAF3D" d="M419.4839859 275.59201479l-54.53900146 12.57999945-3.72299958-36.855999 58.26200104 24.27599955z"/></g></g></svg>