<svg xmlns="http://www.w3.org/2000/svg" viewBox="0 0 1170 350"><defs><style>.a,.n{fill:#dddddc;}.b,.g{fill:#cececd;}.c,.i{fill:#ececeb;}.d,.j,.r{fill:#fff;}.d,.e,.f,.g,.h,.i,.l,.m,.n,.o,.q,.r,.s,.u{fill-rule:evenodd;}.e{fill:#a3a3a3;}.f,.w{fill:#8f8f8f;}.h{fill:#c4c4c4;}.k,.m{fill:#858686;}.l{fill:#9da1a2;}.o,.p{opacity:0.1;}.o,.p,.r{isolation:isolate;}.q,.z{fill:#6f7173;}.r{opacity:0.2;}.s,.t{fill:#737373;}.u{fill:#fefefe;}.v{fill:#474747;}.ad,.x{fill:#2b2b2b;}.x{opacity:0.1;}.y{fill:#c3987b;}.aa{fill:#1c7678;}.ab{fill:#dfbda5;}.ac{fill:#8b6651;}.ae{fill:#e8cab6;}.af{fill:#27788c;}.ag{fill:#3aa0ba;}.ah{fill:#72cbcc;}.ai{fill:#369496;}.aj{fill:#50a9aa;}.ak{fill:#318fa6;}</style></defs><title>estj-executive-personality-header</title><path class="a" d="M-10-11H1180V358H-10Z"/><path class="b" d="M-10,117H1180V358H-10Z"/><path class="c" d="M-10,299H1180v59H-10Z"/><path class="d" d="M272.5-4.4H465.3V192.4H272.5Z"/><path class="e" d="M296.5,143.8H300v48.3h-3.5Z"/><path class="f" d="M296.5,143.8H300v4.8h-3.5Z"/><path class="e" d="M392.5,143.8H396v48.3h-3.5Z"/><path class="f" d="M392.5,143.8H396v4.8h-3.5Z"/><path class="e" d="M272.5,138.8H465.3v6.1H272.5Z"/><path class="g" d="M383.3,158.5l-5.7,39.4-37.1.5-7.9-33.9Z"/><path class="e" d="M332.6,164.5l25.1,13.4,25.6-19.4Z"/><path class="h" d="M357.7,177.9l1.2,20-18.4.5-7.9-33.9,25.1,13.4Z"/><path class="i" d="M322,74.9l-7.1,1.2,4.3,13.6,7.3-.3L322,74.9Zm55.9,5.8-7,1.7-1.3-14.3,6.9-2.5Z"/><path class="i" d="M320.6,58.4l46.6-6.2,6.3,42.1-46.7,7.4-6.2-43.3Z"/><path class="g" d="M320.6,58.4l15.7,13,8.4,8.9,4.3,3.2,2.6-4,5.7-11.1,9.9-16.2Z"/><path class="j" d="M341.6,65l3.1,15.3,6.9-.8-1.7-15.4Z"/><path class="k" d="M354.4,68.4a2.8,2.8,0,1,0,2.8-2.8A2.8,2.8,0,0,0,354.4,68.4Zm-21,3a2.8,2.8,0,1,0,2.8-2.8A2.8,2.8,0,0,0,333.4,71.4Z"/><path class="e" d="M320.6,58.4l26.1,10.3,20.5-16.5Z"/><path class="l" d="M320.6,58.4s-1.7-21,19.9-23.6,26.7,17.3,26.7,17.3Zm0,0,7.1,24.8-3.1,4.2L318,82.6l2.6-24.2Zm46.6-6.2-.8,24.7,5.1,3.7,4-6.2-8.3-22.2Z"/><path class="m" d="M336.5,84l13.1,3.2,10.5-5.7v2.8l-10.5,5.1-12.5-3.1Z"/><path class="g" d="M341.4,87.5l-2,10-2.7-.6,1.7-10.1Z"/><path class="d" d="M338.4,86.8l-4.3,6.9,2.8,1.4,4.5-7.6Z"/><path class="l" d="M334.1,93.7l2.8,1.4-.9,1.5-2.8-1.5Z"/><path class="g" d="M326.8,101.7l7.5,63.1,49-6.3-9.8-64.2Z"/><path class="e" d="M337.5,120l30.5-4.7-2.7-19.7-31.1,4.9,3.3,19.5Z"/><path class="n" d="M334.2,100.5l17.1,7.3,14-12.2Z"/><path class="e" d="M326.8,101.7l4.4,33.8-5.5,9.2-24-16.1Z"/><path class="h" d="M331.2,135.5l-1.7-13.1-27.8,6.2,24,16.1,5.5-9.2Z"/><path class="i" d="M337.5,137.5l9.9-16.8,4.4,4.6,3.4-5,7.4,8.3-4.2,4.3,4.6,7.2-24.2,11.5-2.3,23.8-15.2-4.7-.2-2-2.8-5.6,13.6-16.6,5.6-9Z"/><path class="n" d="M358.4,132.9l-20.5,15.2-.7,2.1,21.9-15.7-.7-1.6Zm-6.6-7.6-30.7,43.4.2,2,31.6-44Z"/><path class="i" d="M325.7,144.7l11.5,8.1,5.8-15.7-11.8-1.6Z"/><path class="n" d="M343,137.1l4.8,14.3-10.6,1.4,5.8-15.7Z"/><path class="o" d="M330.5,148.4l7.4,10.1-1.4,16.9-3.4-1.2,8,7.1,1.9-24.4,7.1-5.1,2.8-4.3,8.5-2.3-.4-3.7-14.1,6.4.9,3.5-10.6,1.4-6.7-4.4Z"/><path class="e" d="M373.5,94.3l22.3,10,8.5,18.3-27.4-4.9Z"/><path class="h" d="M395.8,104.3l11.5-19.1,9.9,3-12.9,34.4Z"/><path class="n" d="M407.3,85.2l-5.1-12.9,17.1-13,8.3,16.2-8.1,6.3-2.3,6.4Z"/><path class="l" d="M422.7,89.3,402,54.3l5.1-3,20.7,34.8Z"/><path class="n" d="M419.3,59.3,414,63.1l-1.6,1.4,9,15.4,2-1.1,4.2-3.3-8.3-16.2Z"/><path class="o" d="M402.2,72.3l11.9,2.6,2.2-3.5,2.1-3.6-1.9-1.3-7.1.3Z"/><path class="i" d="M402.2,72.3l14.1-.9,2.2-6.3-6.1-.6Z"/><path class="h" d="M382.5,59.8,421.8,36l2.9,4.8L385.4,64.6Z"/><path class="l" d="M382.5,59.9l-2-3.5L420,32.8l1.9,3.2Z"/><path class="n" d="M380.3,55.9,368.9,37l-9.3-19.2,20.7,38.1Zm9.5-7L379.6,33.3l-8.2-15.8,18.4,31.4Zm-4-2L375.6,31.3l-8.2-15.8,18.4,31.4Zm-2,7L373.6,38.3l-8.2-15.8,18.4,31.4Zm15-10L388.6,28.3l-8.2-15.8,18.4,31.4Zm-6.2,3.2-6.5-9.9-5.2-10.1Zm9.8-6.7-6.5-10-5.3-10.1Z"/><ellipse class="a" cx="438.6" cy="44.1" rx="2.3" ry="3.3"/><path class="n" d="M445.7,55.6c0,1.3-.7,2.4-1.7,2.4s-1.7-1.1-1.7-2.4.7-2.4,1.7-2.4A2.27,2.27,0,0,1,445.7,55.6ZM433.1,66.5c0,1.3-.7,2.4-1.7,2.4s-1.7-1.1-1.7-2.4.7-2.4,1.7-2.4S433.1,65.2,433.1,66.5ZM313.9,43.4c0,1.5-.9,2.7-1.9,2.7s-1.9-1.2-1.9-2.7.9-2.7,1.9-2.7S313.9,41.8,313.9,43.4ZM299.4,56.5c0,2-1.1,3.6-2.5,3.6s-2.5-1.6-2.5-3.6,1.1-3.6,2.5-3.6S299.4,54.5,299.4,56.5Z"/><path class="h" d="M270.3-6.4H467.6V7.8H270.3Z"/><path class="e" d="M270.3,6.1H467.6V7.8H270.3Z"/><path class="h" d="M270.3,7.6H467.6V21.8H270.3Z"/><path class="e" d="M270.3,20.1H467.6v1.7H270.3Z"/><path class="h" d="M270.3,21.6H467.6V35.8H270.3Z"/><path class="e" d="M270.3,34.1H467.6v1.7H270.3Z"/><path class="e" d="M287.6-6.7h2.6V35.4h-2.6Zm160,0h2.6V35.4h-2.6Z"/><path class="o" d="M462.1,209.2H275.4l-10-6H472.1l-10,6Z"/><path class="f" d="M422.3,155.1h2.6v15.4h-2.6Z"/><path class="e" d="M431.4,191.3H415.9l-10-22.5h35.5Z"/><path class="l" d="M437.8,176.9H409.5l2.9,6.5h22.5Z"/><path class="e" d="M418.9,143.9l5.4-5.4,5.5,5.5-5.4,5.4Z"/><path class="n" d="M424.4,138.4l-5-15.1-7.5,7.5,10.5,10.8Z"/><path class="h" d="M422.4,141.6l-10.5-10.8-4,11,11,2.1Z"/><path class="n" d="M418.9,143.9l-11-2.1,3.1,10.5,10.9-6Z"/><path class="h" d="M421.9,146.3l-10.9,6,11.6,5.5,1.8-8.4Z"/><path class="n" d="M424.4,149.4l-1.8,8.4,10-2.5L427,146l-2.6,3.4Z"/><path class="h" d="M427,146l5.6,9.3,6.4-10.8-9.1-.6Z"/><path class="n" d="M429.9,143.9l9.1.6L437,130l-10.5,11.6,3.4,2.3Z"/><path class="h" d="M426.5,141.6,437,130l-17.6-6.7,5,15.1Z"/><path class="n" d="M265.4,190.6H472.1v14.2H265.4Z"/><ellipse class="p" cx="64.8" cy="125.9" rx="43.9" ry="52.1"/><path class="l" d="M108.7,117.8A43.9,43.9,0,1,1,64.8,73.9,43.89,43.89,0,0,1,108.7,117.8Z"/><path class="i" d="M97.5,117.8A32.7,32.7,0,1,1,64.8,85.1,32.71,32.71,0,0,1,97.5,117.8Z"/><path class="f" d="M68.7,117.8a3.9,3.9,0,1,1-3.9-3.9A3.9,3.9,0,0,1,68.7,117.8Z"/><path class="q" d="M40.8,117.8a2.2,2.2,0,1,1-2.2-2.2A2.16,2.16,0,0,1,40.8,117.8Zm52.3,0a2.2,2.2,0,1,1-2.2-2.2A2.22,2.22,0,0,1,93.1,117.8ZM64.8,141.7a2.2,2.2,0,1,1-2.2,2.2A2.22,2.22,0,0,1,64.8,141.7Zm0-52.2a2.2,2.2,0,1,1-2.2,2.2A2.16,2.16,0,0,1,64.8,89.5Z"/><path class="f" d="M39.3,103.9l.8-1.3L46,106l-.8,1.3Zm44.4,25.7.8-1.3,5.9,3.4-.8,1.3Zm0-23.6,5.9-3.4.8,1.3-5.9,3.4ZM39.3,131.7l5.9-3.4.8,1.3L40,133ZM49.6,93l1.3-.8,3.4,5.9-1.3.8Zm25.7,44.4,1.3-.7,3.4,5.9-1.3.7Zm0-39.3,3.4-5.9L80,93l-3.4,5.9ZM49.6,142.6l3.4-5.9,1.3.7-3.4,5.9Z"/><path class="q" d="M64.7,118l-3.6-10.5,3.2-12.3,3.3,12.5Zm0,0,7.1,3.2,4.9,7.6-8.1-4.3Z"/><path class="r" d="M-11-10H1179V358H-11Z"/><path class="o" d="M490.5,314.3l65.4-5,80-1.1,109,5.3.5,5.2H490.3Z"/><path class="s" d="M564.1,252.7l34.7,22.4L628,252.3Z"/><path class="m" d="M575.3,306.5a5.1,5.1,0,1,1-5.1-5.1A5,5,0,0,1,575.3,306.5Zm51,0a5.1,5.1,0,1,1-5.1-5.1A5,5,0,0,1,626.3,306.5Zm-61.1-13.3h60.9v7H565.2ZM553.6,130h83.8V254.7H553.6Z"/><path class="f" d="M553.6,243.9h83.8v10.7H553.6Zm83.9-115.4L625.2,92.9,621,116.2Z"/><path class="m" d="M551.7,128.5l-10.4,21,6.6,2,24.7-21.2L571,112.4Z"/><path class="s" d="M572.6,130.3l-24.7,21.2L579.1,166l15.8-13.8Z"/><path class="m" d="M637.5,128.5l10.4,21-6.6,2-24.7-21.2,1.6-17.9Z"/><path class="s" d="M616.6,130.3l24.7,21.2L610.1,166l-15.8-13.8Z"/><path class="e" d="M576.1,176.8h38.3v36.3H576.1Z"/><path class="f" d="M568.2,168.5l-7.1,44.3,15,.3.1-34.4-8-10.2Zm55.3.7,5.7,43.8-14.9.1V180.4l9.2-11.2Z"/><path class="h" d="M595.7,149.6l-27.5,18.9L585,190.1l10.8-6.6,10.5,6.6,17.2-20.9Z"/><path class="n" d="M595.7,164.8l7.9-9.6-7.9-5.6-8.2,5.6Z"/><path class="i" d="M567.6,92.9h57.5v60.6H567.6Z"/><path class="g" d="M611.7,113.8l-5.6,6.6-6.3,9.3L596,135l-4-5.3-7.1-8.2-8.2-7.1,35-.6Z"/><path class="e" d="M599.8,113.8h11.9l-11.9-4.1Z"/><path class="s" d="M611.1,121.5a3.3,3.3,0,1,1-3.3-3.3A3.27,3.27,0,0,1,611.1,121.5Zm-22.9,0a3.3,3.3,0,1,1-3.3-3.3A3.21,3.21,0,0,1,588.2,121.5Z"/><path class="d" d="M592,114.1h7.8v15.6H592Z"/><path class="f" d="M590.8,140.2l5.3-2.2,5.3,2.2-5.2,2.3-5.4-2.3Z"/><path class="e" d="M585.6,137.5,596,142l11.1-4.5L596,145.7Z"/><path class="f" d="M625.2,92.9l-73.5,35.6,15.9-35.6,18.5-23.5Z"/><path class="e" d="M625.2,92.9H567.6l18.5-23.5Z"/><path class="i" d="M561.1,212.8l-3.7-8.2,14-7.6,7.5,7.7-2.8,8.4-15-.3Z"/><path class="g" d="M576.1,213.1l2.8-8.4-21.5-.1,3.7,8.2Z"/><path class="i" d="M629.2,212.8l3.7-8.2-14-7.6-7.5,7.7,2.8,8.4,15-.3Z"/><path class="g" d="M614.2,213.1l-2.8-8.4,21.5-.1-3.7,8.2Z"/><path class="l" d="M559.4,235l39.7,32.7,33.1-33.6Z"/><path class="i" d="M596.4,299.8l.2-66.8-20.2,17,13.8,49.8Z"/><path class="f" d="M580.2,315h16.2V299.8h-6.2Z"/><path class="n" d="M596.4,299.8l-.1-66.8,20.2,17-13.8,49.8Z"/><path class="e" d="M612.7,315H596.4V299.8h6.3Z"/><path class="s" d="M554.6,209.3h7.8v3.3h-7.8Zm10.4,0h7.8v3.3H565Zm10.4,0h7.8v3.3h-7.8Zm10.4,0h7.8v3.3h-7.8Zm10.4,0H604v3.3h-7.8Zm10.4,0h7.8v3.3h-7.8Zm10.4,0h7.8v3.3H617v-3.3Zm10.4,0h7.8v3.3h-7.8Z"/><path class="f" d="M645.7,223.5H544.9l4.1-12.1h92.6l4.1,12.1Zm7-148.9h97v96.1h-97Z"/><path class="l" d="M652.9,170.7l-9-1V74.6h9ZM694.5,114h16.6v73.9H694.5Z"/><path class="m" d="M689.7,114h4.8v73.9h-4.8Z"/><path class="f" d="M689.7,187.9l-18.3,26.6h16.8l18.1-26.6Z"/><path class="m" d="M694.5,187.9l-18.3,26.6H693l18.1-26.6Z"/><path class="h" d="M656.5,214.2h50.8v9H656.5Z"/><path class="l" d="M665.8,214.2h50.8v9H665.8ZM540.2,223v-.2c0-6.2-5.7-11.3-12.6-11.3s-12.6,5-12.6,11.3v.2Zm-49.9-1.7h11.8v97.4H490.3V221.3Zm243.3,0h11.8v97.4H733.6V221.3Z"/><path class="m" d="M490.3,221.3H745.7v15.6H490.3Z"/><path class="o" d="M878.2,312.5l65.6-3.9,53.9,4.4-63.9,4.7Z"/><path class="s" d="M1005.5,87h118.4V302.5H1005.5Z"/><path class="e" d="M1119.4,81.5h15.1V309.2h-15.1ZM996,81.5h15.1V309.2H996Z"/><path class="e" d="M996,77.3h138.5V92.4H996Z"/><path class="e" d="M1011.1,187.3h108.4V200H1011.1Z"/><path class="h" d="M1011.1,187.3h108.4v2.1H1011.1Z"/><path class="o" d="M1011.1,200.1h30.7l5.4-12.8h-36.1Z"/><path class="e" d="M1015.5,107h16.9v79.8h-16.9Z"/><path class="f" d="M1015.5,149.9h16.9v36.9h-16.9Z"/><path class="s" d="M1028.2,120.9a4.5,4.5,0,1,1-4.5-4.5A4.48,4.48,0,0,1,1028.2,120.9Z"/><path class="i" d="M983.1,172l12.9-9.1,3.5,15.9-14.7,4.6Z"/><path class="e" d="M982,128.5l66.7-22.6,24.6,72.4-66.7,22.6L982,128.5Z"/><path class="f" d="M995.4,167.8l9.6-3.2,11.3,33.2-9.6,3.2Z"/><path class="h" d="M991.3,125.5l57.5-19.5,24.6,72.4-57.5,19.5-24.6-72.4Z"/><path class="s" d="M993.6,141.1c.9,2.6.7,5-.4,5.4s-2.7-1.5-3.6-4.1-.7-5,.4-5.4S992.7,138.5,993.6,141.1Z"/><path class="t" d="M1023.1,133.7l-1.8-5.3,1.4-.5,1.8,1.6,1.5,1.5c-.3-.7-.6-1.4-.9-2.2l-.5-1.6,1.1-.4,1.8,5.3-1.3.4-1.8-1.7c-.5-.5-1.1-1-1.6-1.6.3.7.5,1.4.8,2.3l.5,1.6-1,.6Zm9.4-6.2a2.68,2.68,0,0,1-1.7,3.7,2.58,2.58,0,0,1-3.4-1.9,2.71,2.71,0,1,1,5.1-1.8Zm-3.8,1.4c.4,1,1.1,1.6,1.9,1.3s1-1.2.7-2.2-1.1-1.6-1.9-1.3S1028.3,127.9,1028.7,128.9Zm7.9.3-.4-1.1.7-1.2c1.2-2.1,1.7-3.2,1.4-4.1a1.15,1.15,0,0,0-1.6-.7,2.81,2.81,0,0,0-1.4,1.2l-.9-1.1a4.23,4.23,0,0,1,2.2-1.6,2.52,2.52,0,0,1,3.5,1.5c.4,1.3-.1,2.6-.9,4l-.5.8,2.9-1,.5,1.5-5.5,1.8Z"/><path class="s" d="M1015.8,143.8l27.8-9.5.4,1.1-27.8,9.5Zm2.1,5.9,27.8-9.5.4,1.1-27.8,9.5-.4-1.1Z"/><path class="f" d="M1050.8,112l-2.1-6.1-7.3,2.5Zm22.5,66.4-2.5-7.6-5.9,10.5Z"/><path class="n" d="M936.1,189l23.9-5.3,1.2,13.3-21.6,15.6L936.1,189Z"/><path class="i" d="M960,183.7,983.1,172l1.7,11.4L961.2,197ZM983.1,172l12.2-12.7,9.3,2.1.6,4L983.1,172Z"/><path class="l" d="M915.8,213.9l-12.7,28.5,43.1-3.2-6-30.5-24.4,5.2Z"/><path class="f" d="M945.9,245.2l14.8-31.3,15.7,7.4-14.8,31.3Z"/><path class="g" d="M950.4,238.7l10.9-23.1,13.3,6.3L963.7,245Z"/><path class="h" d="M946.9,164.9l-8.7,22.8L917,172.4Z"/><path class="e" d="M961.9,89.4l21.2,26.7-9.6,22.4L961.9,89.4Z"/><path class="m" d="M971.6,118.9,989,130.8l-10.7,16.8-4.1-5.5,7.5-9.7L970.4,125l1.2-6.1Z"/><path class="i" d="M897.4,109.4l65-20.2,20.5,66.1-65,20.2-20.5-66.1Z"/><path class="g" d="M917.9,175.5l20.8-6.5-21.1-65.9-20.3,6.3Z"/><path class="e" d="M918.3,172.1,954,199.3l-32.7,29.9-16.4-35.7Z"/><path class="g" d="M933,120.1l18.1,13.8,6.5,3.2,1.8-5.9.6-11.5,6.3-9.3-11.9,3.1-8.8,2.8L933,120.1Z"/><path class="d" d="M945.6,116.3l5.5,17.6,8.3-2.7-5-17.7-8.8,2.8Z"/><path class="e" d="M945.6,116.3l-1.7-5.5L933,120.1l12.6-3.8Zm20.7-5.9-11.9,3.1-1.3-5.2"/><path class="s" d="M945.4,125.5a2.78,2.78,0,0,1-2.8,2.7,2.71,2.71,0,0,1-2.8-2.7,2.78,2.78,0,0,1,2.8-2.7A2.6,2.6,0,0,1,945.4,125.5Zm19-5.8a2.78,2.78,0,0,1-2.8,2.7,2.71,2.71,0,0,1-2.8-2.7,2.78,2.78,0,0,1,2.8-2.7A2.71,2.71,0,0,1,964.4,119.7Z"/><path class="m" d="M951.8,145.9l5.7-4.7,6.3,1.1-4.2,6.1-7.8-2.5Z"/><path class="e" d="M944.5,144.3l14.6,2.5,8.2-8.7-7.2,12.3Z"/><path class="m" d="M911.9,135.2l17.4,12L918.7,164l-4.2-5.5,7.5-9.7-11.3-7.5,1.2-6.1Z"/><path class="m" d="M878.3,168.1l35.4,12,12-15.1Z"/><path class="f" d="M881.4,136.1l-5.9,34.4,50.2-5.5L914,145.8Z"/><path class="e" d="M879.4,108.1l-3.7,26.6,37.6,22.9,6.5-34.6-40.4-14.9Z"/><path class="h" d="M975.1,79.6l-62.4,52-33.3-23.5,49.5-38.5Z"/><path class="n" d="M925.9,189.4l-21,4.1,16.4,35.7L935.7,216l-9.8-26.6Z"/><path class="i" d="M935.7,216l17.4,11.8-5.8,8.3-26-6.9L935.7,216Z"/><path class="n" d="M953.1,227.8l13.5,2.6-7.3,15.4-12-9.7Z"/><path class="h" d="M966.6,230.4l4.2,8.5-11.5,6.9Z"/><path class="f" d="M903.1,242.4l12.7,29.5,27.3,3.3,3.1-36-43.1,3.2Zm29.1,54-3.4,18.7,16.2.1-7.8-10.9-5-7.9Z"/><path class="n" d="M915.8,271.9,938,305.3l5.1-30.1Z"/><path class="i" d="M915.8,271.9,909,293.6l34.1-18.4-27.3-3.3Z"/><path class="f" d="M912.9,281.4l-13.9.3,5.6,25.3,4.4-13.4,3.9-12.2Z"/><path class="e" d="M1057.1,107H1074v79.8h-16.9Z"/><path class="f" d="M1057.1,149.9H1074v36.9h-16.9Z"/><path class="s" d="M1069.8,120.9a4.5,4.5,0,1,1-4.5-4.5A4.48,4.48,0,0,1,1069.8,120.9Z"/><path class="e" d="M1077.8,107h16.9v79.8h-16.9Z"/><path class="f" d="M1077.8,149.9h16.9v36.9h-16.9Z"/><path class="s" d="M1090.6,120.9a4.5,4.5,0,1,1-4.5-4.5A4.48,4.48,0,0,1,1090.6,120.9Z"/><path class="e" d="M1098.6,107h16.9v79.8h-16.9Z"/><path class="f" d="M1098.6,149.9h16.9v36.9h-16.9Z"/><path class="s" d="M1111.4,120.9a4.5,4.5,0,1,1-4.5-4.5A4.48,4.48,0,0,1,1111.4,120.9Z"/><path class="e" d="M1057.1,216.2H1074V296h-16.9Z"/><path class="f" d="M1057.1,259.1H1074V296h-16.9Z"/><path class="s" d="M1069.8,230.1a4.5,4.5,0,1,1-4.5-4.5A4.48,4.48,0,0,1,1069.8,230.1Z"/><path class="e" d="M1036.3,216.2h16.9V296h-16.9Z"/><path class="f" d="M1036.3,259.1h16.9V296h-16.9Z"/><path class="s" d="M1049,230.1a4.5,4.5,0,1,1-4.5-4.5A4.48,4.48,0,0,1,1049,230.1Z"/><path class="e" d="M1015.5,216.2h16.9V296h-16.9Z"/><path class="f" d="M1015.5,259.1h16.9V296h-16.9Z"/><path class="s" d="M1028.2,230.1a4.5,4.5,0,1,1-4.5-4.5A4.42,4.42,0,0,1,1028.2,230.1Z"/><path class="e" d="M1077.8,216.2h16.9V296h-16.9Z"/><path class="f" d="M1077.8,259.1h16.9V296h-16.9Z"/><path class="s" d="M1090.6,230.1a4.5,4.5,0,1,1-4.5-4.5A4.48,4.48,0,0,1,1090.6,230.1Z"/><path class="e" d="M1098.6,216.2h16.9V296h-16.9Z"/><path class="f" d="M1098.6,259.1h16.9V296h-16.9Z"/><path class="s" d="M1111.4,230.1a4.5,4.5,0,1,1-4.5-4.5A4.48,4.48,0,0,1,1111.4,230.1Z"/><path class="e" d="M1011.1,296.5h108.4v12.7H1011.1Z"/><path class="h" d="M1011.1,296.5h108.4v2.1H1011.1Z"/><path class="f" d="M782.3,179.3l-24.2,9.6,4.9,16,24.5-5.8Z"/><path class="n" d="M758.1,188.9l-16.7,1.5-9,10.5,2.6,8.7,13.7.3,14.3-5-4.9-16Z"/><path class="g" d="M741.4,190.4l7.3,19.5-13.7-.3-2.6-8.7Z"/><path class="i" d="M758.1,188.9l-16.7,1.5,3,8.1,15.4-3.8Z"/><path class="o" d="M729.1,329.8l74.8-8.4,51,9.4-51,5.2Z"/><path class="q" d="M829.5,256.3l-2.6,30.9-26,9-14.3-30.9,42.9-9Z"/><path class="m" d="M783.4,192.4l-8.1,36.5,54.2,27.4,6.1-51.9Z"/><path class="i" d="M832.1,141.7l-14.3,25.9-14.5-18.1,28.8-7.8Z"/><path class="f" d="M828.6,181.9l-12.2-14.6,15.7-25.6L854.6,186l-26-4.1Z"/><path class="i" d="M788.4,50.7,761,113.4l34.1,17.7,8.1,19.6,28.9-9,5.5-16.7,12.5-14.8-3.2-33.8L788.4,50.7Z"/><path class="g" d="M784.9,76.7l2.6,9.6L785,98.2l3.8,7.7,6.3-3.1,11.1-8.7,7.9-4.8-11.3-5.2L793.2,80Z"/><path class="d" d="M802.8,84.1l-7.7,18.7-9.9-4.5,8-18.3,9.6,4.1Z"/><path class="g" d="M846.9,76.4l-16.6-7.2L808,136.6l-12.9-5.5,8.1,19.6,28.9-9,5.5-16.7,12.5-14.8Z"/><path class="e" d="M827.9,122.4l6.8,11.3,3.8-6.8ZM808,136.6l7.1,3.5-11.9,10.6-8.1-19.6Z"/><path class="s" d="M804.8,79.6l9.3,9.7-11.3-5.2Zm-11.6.4,1.9-4.3-10.2,1Z"/><path class="s" d="M809.4,96.1c-.7,1.8-2.3,2.9-3.6,2.4s-1.8-2.4-1.1-4.2,2.3-2.9,3.6-2.4S810.1,94.3,809.4,96.1Zm-21.6-9.4c-.7,1.8-2.3,2.9-3.6,2.4s-1.8-2.4-1.1-4.2,2.3-2.9,3.6-2.4S788.5,84.9,787.8,86.7Z"/><path class="f" d="M780.2,104.6l7,6.6,14.2,2.5-.6,1.7-14.5-2.3-6.8-6.7.7-1.8Z"/><path class="q" d="M837.9,79.1V99.7l12.2,10.5,4.1-3.8,3.8-31Z"/><path class="s" d="M825.2,83.6l-1.9,21.1,7.1,4.9,7.5-9.9,1-20.8-13.7,4.7Z"/><path class="f" d="M788.4,50.7l39.4.3L858,75.4,825.1,85.5,788.4,50.7Z"/><path class="e" d="M832.9,116.3l6.2-9.5,4.9,4.5-11.1,5Z"/><path class="u" d="M842.4,206.9l-38.5,21.4-37.4-60.7L807.4,146Z"/><path class="q" d="M766,170.9l41.4-25,37,61.4-41.4,25Z"/><path class="g" d="M791.3,202l-4.9,6.4,4.3,8.5,9.4-1.2Z"/><path class="i" d="M791.3,202l17.2-6.7,7,12.9-15.4,7.5Z"/><path class="l" d="M808.5,195.3l20.1-13.4,26,4.1-39.1,22.2-7-12.9Z"/><path class="s" d="M775.3,228.9,754,252.2l24.8,21,50.7-16.9-54.2-27.4Z"/><path class="m" d="M754,252.2l-18.4,18.9,10.2,13.2,33-11.1-24.8-21Z"/><path class="q" d="M735.6,271.1l-21-4.9,17.5,23.6,13.7-5.5Z"/><path class="s" d="M800.9,296.2l8.5,20.1,16.6,2.1.9-31.2Z"/><path class="q" d="M809.4,316.3l-15.8,13.2h31.8l.6-11.1Z"/><polygon class="v" points="495.55 219.28 481.25 216.58 484.53 207.57 493.93 190.04 503.66 189.1 509.86 199.12 495.55 219.28"/><polygon class="w" points="482.34 158.11 503.66 189.1 491.84 211.94 491.84 202.22 494.75 189.26 489.68 180.3 482.34 158.11"/><polygon class="x" points="416.2 325.2 479.96 316.24 539.78 326.01 479.58 334 416.2 325.2"/><polygon class="v" points="447.25 308.73 442.44 319.15 445.95 328.38 447.25 308.73"/><polygon class="y" points="461.17 313.32 459.12 307.01 447.25 308.73 446.11 321.42 445.95 324.61 459.34 321.42 462.36 316.73 461.17 313.32"/><polygon class="z" points="445.95 324.61 462.36 316.73 467.49 324.61 459.45 326.17 445.95 324.61"/><polygon class="v" points="445.95 324.61 445.95 328.38 467.49 328.38 467.49 324.61 445.95 324.61"/><polygon class="aa" points="450.81 263.17 446.76 309.65 460.1 309.98 462.36 260.31 450.81 263.17"/><polygon class="v" points="493.86 324.01 490.78 323.91 488.79 311.7 491.7 303.34 498.02 308.25 496.4 313.11 493.86 324.01"/><polygon class="y" points="508.82 309.01 505.77 303.21 491.7 303.34 498.77 317.21 500.5 319.43 508.33 317.1 510.63 311.94 508.82 309.01"/><polygon class="z" points="500.5 320.18 510.63 311.94 520.04 320.18 509.68 321.75 500.5 320.18"/><polygon class="v" points="496.5 312.79 494.78 314.62 494.56 318.72 503.09 324.12 520.04 324.12 520.04 320.18 505.95 320.18 496.5 312.79"/><polygon class="ab" points="498.32 54.3 466.14 62.29 437.2 72.87 439.58 86.15 447.19 101.7 443.84 101.54 441.47 105.48 437.74 98.51 434.72 95.49 429.92 97.81 424.73 103.64 426.25 107.2 430.51 112.17 434.34 117.79 449.68 151.85 476.67 157.03 476.45 141.38 478.94 130.96 490.54 126.69 507.82 121.67 505.98 89.44 498.32 54.3"/><polygon class="y" points="463.76 95.27 468.52 84.1 481.2 83.78 488.71 102.62 483.09 76.92 469.97 77.67 462.15 83.78 458.91 89.44 463.76 95.27"/><polygon class="y" points="502.74 74.54 494.27 80.7 493.73 92.03 485.95 74.44 502.74 74.54"/><polygon class="y" points="460.74 100.46 487.57 99.65 487.25 95.87 460.74 100.46"/><polygon class="y" points="506.04 90.63 495.13 97.97 494.16 93.98 506.04 90.63"/><polygon class="y" points="445.79 70.28 457.34 80.32 460.74 100.46 463.06 130.74 476.67 157.03 464.2 155.9 449.68 151.85 434.34 117.79 442.76 112.82 441.47 105.48 447.19 101.7 437.2 72.87 445.79 70.28"/><polygon class="ac" points="434.34 117.79 442.76 112.82 440.23 130.8 434.34 117.79"/><polygon class="ac" points="507.82 121.67 455.24 131.98 468.89 155.52 472.13 157.57 476.67 157.03 478.94 130.96 507.82 121.67"/><polygon class="ad" points="462.15 73.14 470.78 78.05 482.71 74.92 462.15 73.14"/><polygon class="ad" points="487.25 70.01 493.51 62.99 498.8 64.12 487.25 70.01"/><polygon class="ae" points="482.71 74.92 488.71 102.62 496 101.54 489.25 73.95 482.71 74.92"/><polygon class="ac" points="488.71 102.62 492.59 106.5 496 101.54 488.71 102.62"/><polygon class="af" points="468.03 111.36 484.28 111.25 492.27 114.6 482.01 115.09 475.8 114.49 474.13 114.22 472.13 112.98 468.03 111.36"/><polygon class="ag" points="471.92 112.93 475.97 117.35 492.27 114.6 475.8 114.49 471.92 112.93"/><polygon class="ac" points="430.08 105.69 433.8 101.92 437.74 107.8 430.08 105.69"/><polygon class="v" points="498.32 54.3 468.25 34 469.22 49.28 473.43 61.86 498.32 54.3"/><polygon class="v" points="430.52 188.53 438.62 212.34 433.81 216.75 428.23 217.46 412.58 203.55 430.52 188.53"/><polygon class="ab" points="428.23 217.46 436.9 235.29 443.49 233.07 454.63 224.52 438.62 212.34 428.23 217.46"/><polygon class="ac" points="453.13 223.6 436.9 235.29 444.23 241.15 453.13 223.6"/><polygon class="y" points="483.9 229.91 485.09 237.88 488.99 236.99 489.6 231.92 487.22 229.81 483.9 229.91"/><polygon class="z" points="468.25 34 419.33 50.73 415.77 59.27 415.99 66.44 426.35 70.71 437.2 72.87 445.79 70.28 473.43 61.86 468.25 34"/><polygon class="v" points="415.99 66.44 413.94 71.63 414.48 75.62 410.64 98.51 427.59 95.81 443.09 89.93 437.2 72.87 415.99 66.44"/><polygon class="ac" points="483.9 229.91 479.87 216.33 484.53 207.57 490.4 209.07 492.37 220.1 483.9 229.91"/><polygon class="ab" points="496.94 234.46 498.79 220.93 490.4 209.07 483.9 229.91 496.94 234.46"/><polygon class="ad" points="410.64 98.51 443.09 89.93 447.19 101.7 441.47 105.48 434.72 95.49 424.73 103.64 430.51 112.17 410.64 98.51"/><polygon class="ad" points="414.42 75.73 398.33 74.27 406.43 63.64 419.33 50.73 415.99 66.44 414.42 75.73"/><polygon class="z" points="419.33 50.73 399.25 40.26 385 88.53 398.33 74.27 419.33 50.73"/><polygon class="v" points="449.68 151.85 482.34 158.11 478.99 166.1 471.81 175.39 454.1 166.59 443.14 155.79 449.68 151.85"/><polygon class="ah" points="443.14 155.79 432.24 161.35 436.61 176.58 443.79 192.02 450 194.5 472.08 196.77 494.75 189.26 482.34 158.11 471.81 175.39 443.14 155.79"/><polygon class="aa" points="443.79 192.02 494.75 189.26 489.68 225.76 473.11 226.68 453.13 223.6 443.79 192.02"/><polygon class="ah" points="453.13 223.6 470.08 243.84 480.39 250.43 489.19 242.22 489.68 225.76 453.13 223.6"/><polygon class="ai" points="453.13 223.6 480.39 250.43 483.36 281.2 460.1 309.98 440.5 245.63 453.13 223.6"/><polygon class="aj" points="489.68 225.76 498.69 268.46 491.14 263.87 480.39 250.43 489.68 225.76"/><polygon class="aa" points="480.39 250.43 498.69 268.46 505.77 303.21 460.1 309.98 480.39 250.43"/><polygon class="w" points="432.24 161.35 412.58 203.55 443.74 191.91 432.24 161.35"/><path class="ad" d="M502.16,81.27a2.78,2.78,0,1,1-2.81-2.75A2.77,2.77,0,0,1,502.16,81.27Z"/><path class="ad" d="M476.69,87.66a2.76,2.76,0,1,1-2.76-2.75A2.78,2.78,0,0,1,476.69,87.66Z"/><path class="ak" d="M512.78,67.47,457.34,80.32l3.4,20.14,26.51-4.59-3.67-17,6.52-1.46L494.16,94l22.51-6.32ZM462.15,83.78l17.77-4L482.57,92l-18.8,3.24ZM496.62,89,493.34,77l16.1-4.12,2.1,11.39Z"/></svg>