<svg id="Layer_1" data-name="Layer 1" xmlns="http://www.w3.org/2000/svg" viewBox="0 0 400 400"><defs><style>.cls-1{fill:#2c2b2b;opacity:0.1;}.cls-1,.cls-10,.cls-11,.cls-12,.cls-13,.cls-14,.cls-15,.cls-16,.cls-17,.cls-18,.cls-19,.cls-2,.cls-20,.cls-21,.cls-22,.cls-23,.cls-24,.cls-25,.cls-26,.cls-3,.cls-4,.cls-5,.cls-6,.cls-7,.cls-8,.cls-9{fill-rule:evenodd;}.cls-2,.cls-27{fill:#543042;}.cls-3{fill:#734d61;}.cls-4{fill:#95637c;}.cls-5{fill:#eaeceb;}.cls-6{fill:#484849;}.cls-7{fill:#3f4040;}.cls-8{fill:#f4cab2;}.cls-9{fill:#d1a0b8;}.cls-10{fill:#8f759f;}.cls-11{fill:#795d88;}.cls-12{fill:#594265;}.cls-13{fill:#c18f7c;}.cls-14{fill:#393939;}.cls-15{fill:#444648;}.cls-16{fill:#686b6d;}.cls-17{fill:#fbe3d4;}.cls-18{fill:#8b8a8a;}.cls-19{fill:#626366;}.cls-20{fill:#494d4e;}.cls-21{fill:#fff0e8;}.cls-22{fill:#616264;}.cls-23{fill:#e5e6e5;}.cls-24{fill:#a587b8;}.cls-25{fill:#fff;}.cls-26,.cls-28{fill:#2b2b2b;}</style></defs><title>analysts_INTJ_famous_real_friedrich_nietzsche</title><polygon class="cls-1" points="95.65 384.85 205.86 370.88 307.77 388.15 204.33 400 95.65 384.85"/><polygon class="cls-2" points="223.78 382.26 209.29 388.14 209.36 393.12 257.68 393.12 257.68 388.2 223.78 382.26"/><polygon class="cls-3" points="119.75 205.27 131.42 220.49 155.27 211.86 152.4 168.01 123.56 189.05 119.75 205.27"/><polygon class="cls-4" points="130.15 150.26 117.42 165.34 97.17 206.03 116.45 227.59 134.99 219.2 140.27 176.85 130.15 150.26"/><polygon class="cls-5" points="127.58 152.44 120.45 158.49 117.42 165.34 140.27 176.85 141.76 169.52 132.15 153.58 127.58 152.44"/><polygon class="cls-3" points="222.69 358.5 214.59 367.76 209.29 388.14 257.68 388.2 247.18 364.78 233.98 358.5 222.69 358.5"/><polygon class="cls-3" points="190.86 367.76 174.19 355.42 172.71 358.98 167.85 358.21 158.06 362.81 132.1 383.34 162.73 384.2 192.04 383.16 190.86 367.76"/><polygon class="cls-6" points="141.89 315.03 158.06 362.81 190.86 367.76 194.17 329.62 189.46 296.07 166.31 291.43 141.89 315.03"/><polygon class="cls-7" points="141.89 315.03 192.92 344.04 194.17 329.62 175.25 300.89 141.89 315.03"/><polygon class="cls-6" points="207.22 311.03 194.17 329.62 214.59 367.76 247.18 364.78 248.54 323.19 207.22 311.03"/><polygon class="cls-3" points="153.81 248.15 147.91 249.29 141.89 315.03 175.25 328.14 175.25 300.89 191.36 267.42 153.81 248.15"/><path class="cls-2" d="M187.68,253.47,176.07,265l-.82,35.88,18.92,28.73,54.37-6.43,1.37-34s-9.32-35.66-10.59-36.25S187.68,253.47,187.68,253.47Z"/><polygon class="cls-8" points="233.93 264.79 230.88 265.64 218.01 269.67 250.11 288.97 242.36 271.51 233.93 264.79"/><polygon class="cls-5" points="245.41 258.74 234.56 259.94 230.88 265.64 249.91 289.22 255.11 282.76 245.41 258.74"/><polygon class="cls-3" points="235.07 163.72 241.25 168.22 254.48 172.85 258.54 195.54 257.78 246.25 234.56 259.94 176.07 265.01 166.94 236.61 194.6 184.89 218.09 188.81 235.07 163.72"/><polygon class="cls-4" points="249.4 234.46 244.2 239.02 234.56 259.94 255.11 282.76 280.74 246.88 249.4 234.46"/><polygon class="cls-2" points="249.91 197.57 244.2 239.02 280.74 246.88 254.48 172.85 249.91 197.57"/><polygon class="cls-4" points="161.95 166.99 152.4 168.01 147.91 249.29 176.07 265.01 176.23 237.4 171.6 185.75 165.62 188.31 166.82 182.74 161.95 166.99"/><polygon class="cls-5" points="171.6 185.75 176.23 237.4 204.33 193.36 171.6 185.75"/><polygon class="cls-9" points="163.8 166.8 152.4 168.01 176.23 237.4 177.5 187.3 163.8 166.8"/><polygon class="cls-9" points="222.6 160.81 241.25 168.22 176.23 237.4 191.8 194.66 207.95 167.43 222.6 160.81"/><polygon class="cls-10" points="163.36 169.11 165.04 187.61 179.56 193.48 188 188.99 187.84 181.66 163.36 169.11"/><polygon class="cls-11" points="165.04 187.61 163.33 199.01 179.56 193.48 188 188.99 187.86 182.61 184.73 181.66 165.04 187.61"/><polygon class="cls-10" points="185.3 188 188.69 194.66 207.99 188.72 212.26 171.71 184.73 181.66 185.3 188"/><polygon class="cls-11" points="185.3 188 188.69 194.66 208.28 203.3 207.99 188.72 184.73 181.66 185.3 188"/><polygon class="cls-12" points="179.56 193.48 188.69 194.66 184.73 181.66 179.56 193.48"/><polygon class="cls-5" points="175.41 153.01 152.4 168.01 184.73 181.66 175.41 153.01"/><polygon class="cls-13" points="200.4 171.39 184.73 181.66 157.9 131.84 208.69 158.28 200.4 171.39"/><path class="cls-8" d="M193.29,129.18c-.63.58,15.39,29.1,15.39,29.1l17.72,3.22,14.47-9.25,10.63-20.41,10.55-56.67L235.42,31.31,195.58,80.5S193.28,129.23,193.29,129.18Z"/><polygon class="cls-13" points="256.96 121.36 251.5 131.84 242.9 111 256.96 121.36"/><polygon class="cls-14" points="258.75 67.82 244.93 80.37 239.72 98 247.17 102.84 267.51 101.44 281.21 76.31 258.75 67.82"/><polygon class="cls-15" points="239.85 35.24 238.97 49.69 244.93 80.37 281.21 76.31 263.83 26.37 239.85 35.24"/><polygon class="cls-15" points="144.01 42.28 142.99 46.78 129.23 53.56 142.55 68.41 150.79 45.76 144.01 42.28"/><polygon class="cls-16" points="150.86 22.25 139.5 25.48 142.55 68.41 159.49 46.08 150.86 22.25"/><polygon class="cls-17" points="155.74 28.02 150.03 38.66 127.32 128.92 208.69 158.28 238.97 49.69 182.76 21.55 155.74 28.02"/><polygon class="cls-8" points="130.52 116.23 127.32 128.92 132.03 130.62 181.65 148.53 206.92 146.86 214.48 137.51 189.91 132.57 133.54 113.57 130.52 116.23"/><polygon class="cls-8" points="157.32 58.23 150.65 61.92 157.33 78.66 155.78 104.43 168.81 102.49 177.22 111.16 196.4 91.15 222.29 73.92 200.97 74.54 183.05 79.18 175.6 82.78 172.53 76.57 167.16 65.54 162.34 57 157.32 58.23"/><polygon class="cls-18" points="183.78 9.63 177.81 0 139.5 25.48 150.03 38.66 171.98 27.13 183.78 9.63"/><polygon class="cls-19" points="190.5 127.39 197.35 128.4 214.48 137.51 204.2 143.61 190.5 127.39"/><polygon class="cls-16" points="133.54 113.57 125.78 114.66 124.57 104.58 132.74 107.38 133.54 113.57"/><polygon class="cls-20" points="164.37 119.53 177.22 111.16 197.35 128.4 204.2 143.61 183.05 143.15 164.37 119.53"/><polygon class="cls-20" points="161.83 114.46 155.78 104.43 132.74 107.38 125.78 114.66 135.82 124.41 161.83 114.46"/><polygon class="cls-14" points="163.35 102.8 155.78 104.43 135.82 124.41 183.05 143.15 177.22 111.16 163.35 102.8"/><polygon class="cls-17" points="125.14 145.44 116.25 132.58 129.9 118.67 152.62 138.05 148.86 150.72 125.14 145.44"/><polygon class="cls-21" points="172.53 76.57 155.78 104.43 177.22 111.16 183.05 79.18 172.53 76.57"/><polygon class="cls-22" points="148.96 58.59 162.28 53.34 173.1 67.82 172.53 76.57 160.47 58.76 150.65 61.92 148.96 58.59"/><polygon class="cls-22" points="187.05 72.13 183.05 79.18 222.29 73.92 222.43 69.49 187.05 72.13"/><polygon class="cls-15" points="187.71 41.07 171.98 27.13 177.81 0 189.93 22.55 187.71 41.07"/><polygon class="cls-16" points="263.83 26.37 238.97 49.69 187.71 41.07 177.81 0 263.83 26.37"/><polygon class="cls-5" points="191.52 161.5 240.87 152.25 241.25 168.22 184.73 181.66 191.52 161.5"/><polygon class="cls-17" points="253.1 91.51 267.51 101.44 256.96 121.36 242.9 111 253.1 91.51"/><polygon class="cls-13" points="254.76 97.41 261.22 101.69 250.66 107.22 254.76 97.41"/><polygon class="cls-2" points="210.01 210.18 236.72 214.87 235.64 219.5 209.5 214.49 210.01 210.18"/><path class="cls-23" d="M220.79,212.08l2.33.4-.05,4.92-2.3,0,0-5.3Zm-.4,41.45h0l2.31,0,0,4.76-2.3,0,0-4.77Zm.22-20.54h0l2.3,0-.06,5.17-2.3,0Z"/><path class="cls-24" d="M221.94,214.8c4.07,0,7.33,4.42,7.27,9.77s-3.4,9.65-7.46,9.61-7.33-4.41-7.27-9.76S217.87,214.76,221.94,214.8Z"/><path class="cls-24" d="M221.72,236.75c4.07,0,7.32,4.42,7.27,9.76s-3.4,9.66-7.47,9.62-7.32-4.41-7.27-9.77S217.65,236.71,221.72,236.75Z"/><path class="cls-25" d="M221.92,217.78c2.63,0,4.74,3.05,4.7,6.76s-2.21,6.69-4.85,6.67-4.74-3.06-4.7-6.76S219.28,217.75,221.92,217.78Z"/><path class="cls-25" d="M221.69,239.72c2.63,0,4.74,3.06,4.7,6.77s-2.2,6.69-4.84,6.67-4.74-3.06-4.7-6.77S219.05,239.7,221.69,239.72Z"/><polygon class="cls-8" points="120.45 158.49 116.25 132.58 148.86 150.72 141.76 169.52 120.45 158.49"/><path class="cls-26" d="M202.08,86.81a5.29,5.29,0,1,1-5.28-5.28A5.28,5.28,0,0,1,202.08,86.81Z"/><path class="cls-26" d="M164.77,75.17a5.29,5.29,0,1,1-5.29-5.28A5.29,5.29,0,0,1,164.77,75.17Z"/><rect class="cls-27" x="132.1" y="383.16" width="59.95" height="4.98"/><polygon class="cls-28" points="155.78 104.43 162.47 116.32 177.22 111.16 155.78 104.43"/><polygon class="cls-7" points="201.17 342.7 248.54 323.19 194.17 329.62 201.17 342.7"/></svg>