<svg xmlns="http://www.w3.org/2000/svg" viewBox="0 0 1170 350"><defs><style>.a{fill:#dddddc;}.b{fill:#c4c4c4;}.c{fill:#ececeb;}.d{fill:#cececd;}.e,.m{fill:#fff;}.f{fill:#858686;}.g{fill:#737373;}.h{fill:#8f8f8f;}.i{fill:#a3a3a3;}.j{fill:#6f7173;}.k{fill:#9da1a2;}.l{fill:#4f5253;}.m,.p{opacity:0.2;}.m,.p,.q{isolation:isolate;}.n{fill:#474747;}.o{fill:none;stroke:#737373;stroke-miterlimit:10;}.aa,.p,.q,.s{fill:#2b2b2b;}.q{opacity:0.1;}.r{opacity:0.17;}.t{fill:#c3987b;}.u{fill:#dfbda5;}.v{fill:#8b6651;}.w{fill:#99c26d;}.x{fill:#738d57;}.y{fill:#5a753d;}.z{fill:#35785d;}.aa{opacity:0.1;}.ab{fill:#54b08b;}.ac{fill:#446125;}.ad{fill:#72c9a6;}.ae{fill:#e8cab6;}</style></defs><title>infj-advocate-personality-header</title><path class="a" d="M0,0H1170V350H0Z"/><path class="b" d="M60,0,488.5,351,0,350V0Z"/><path class="c" d="M60,0l87.1,71.4L103.6,56.9V76.7L74,82.9,43,41.5V76.9L28,67,0,108.4V0Z"/><path class="d" d="M860,113.8,763.7,18,656.8,130.5Z"/><path class="e" d="M763.7,18l65.5,64.9-21.7,3.4L784.9,56.9l-5.1,12.7-13.9,7.3H745l-11.2-1.5,10.7-18.9-21.1,3.9Z"/><path class="f" d="M660,33.7h13.7V67.5H660Z"/><path class="g" d="M660,32.9h13.7v2.5H660Z"/><path class="b" d="M673.7,33.7H654.1l18.1-13.2Z"/><path class="h" d="M688.1,23.4h7.5V76.9h-7.5Z"/><path class="f" d="M688.1,21.8h7.5v3.3h-7.5Z"/><path class="b" d="M686.5,23.4h10.7l-5.3-12Z"/><path class="f" d="M693,33.7h-2.3V29.3l1.2-1.2,1.1,1.2Z"/><path class="h" d="M672.2,18h12.6V76.9H672.2Z"/><path class="f" d="M672.2,16.4h12.6v4H672.2Z"/><path class="b" d="M669.5,18h18l-9-13.2Z"/><path class="i" d="M658.5,68.5l-6.1-1-9.6,1V92.3h15.7V68.5Z"/><path class="b" d="M642.8,68.5l15.7-10.2V68.5Z"/><path class="i" d="M703.6,64.5l6.2-1,6.2,1V92.3H703.6Z"/><path class="b" d="M716,64.5l-12.4-6.2v6.2Z"/><path class="h" d="M707.9,52.1h-8.2l-.4,9,.4,15.8h8.2Zm-53.8,0h8.2l.7,12.4-.7,12.4h-8.2Z"/><path class="f" d="M654.1,51.3H663v2.4h-8.9Zm44.6,0h9.2v2.4h-9.2Z"/><path class="b" d="M699.7,52.1h11l-11-12.3-.4,9Zm-37.4,0H651.2l11.1-12.3.7,9.5Z"/><path class="i" d="M692.2,39.8v5.7h-2.5V39.8h-7.5v5.7h-2.5V39.8h-7.5v5.7h-2.5V39.8h-7.5V76.9h37.5V39.8Z"/><path class="f" d="M684.8,76.9h-7.7V66.3l3.8-3,3.9,3Zm-12.5-20h-2.8V51.4l1.4-1.5,1.4,1.5v5.5Zm10,0h-2.8V51.4l1.4-1.5,1.4,1.5v5.5Zm-2.4-24h-2.8V27.4l1.4-1.5,1.4,1.5v5.5Zm12.4,24h-2.8V51.4l1.4-1.5,1.4,1.5v5.5Z"/><path class="h" d="M872,220.9,707.9,76.7l-53.8.2L184,350l741,1Z"/><path class="i" d="M617,350,863,0h307V350Z"/><path class="d" d="M863,0,817.3,65,884,32.5,892,47l28-14.5L957,51l-32,57.4,20,5.4L1008,27l22,11-14,36.3,20,2.6L1046,30l23,3V56.9l45,56.9L1106,50l28-18,36,32V0Z"/><path class="b" d="M684.8,76.9l-7.7,10.7,13.8,16.2L665,146.9l21.6,25.7-23.4,3-15.1-28.9,30-41.8L668.5,88l8.6-11.1Z"/><circle class="e" cx="215" cy="55.5" r="30.5"/><path class="j" d="M.5,305.7,32,286l46-2,46-16.8L172,292l51.3-6,16,15.7L278.7,284,350,261.3l31.3,10.5h47.2l26.8-10.5,8,13.3,55.2,6.1,68.5,9.6L600,271l42.8-3.8h42l13.7,7.4,24.9-13.3,38.5-16.1,31.1,8.3h42.5L850,271.8l31.3-28.1,109.4,2.1,3,11.9,49.6,3.6,10-22.7L1086,240l8.3,13.5,21.7-12,28,2.2,12-13.6,14,13.6V350H0Z"/><path class="j" d="M887,257.7V350l17.7.5-2-93.9Z"/><path class="f" d="M807.7,350l9.1-92.3-10.5-1.1L789.1,350Z"/><path class="j" d="M991.3,267.2l2.4,82.8H976l2.7-88.7,12.6,5.9Z"/><path class="g" d="M559.2,303.6l8.1,46.4H548.5V303.3l10.7.3Z"/><path class="f" d="M407,287.6,395.3,350H377l13-69.3Z"/><path class="j" d="M216,309.1V350h14.7l-.2-34.8ZM73.6,295l15.1,55H69.3L54.6,293.6Z"/><path class="f" d="M16.7,309.1,13.3,350H0V318.3l16.7-9.2Z"/><path class="j" d="M1092,274.6l19.3,75.4H1092l-14.7-82.8Z"/><path class="f" d="M1125.5,257.7l-5.7,36.7-8.5-32.4-4.6,3.3,11.1,42.3-6.5,42.4H1130l16.7-92.3ZM655.8,278l-1.3,30.7,12.1-25,3.2,3.4-15.7,32.6.7,30.3H636.5l2.1-75.4Zm371.5,72V267.2h-18.6l-3.4,82.8ZM312.7,296.7V350H295.3V290.3l17.4,6.4Zm-54,53.8,6-42H244.3l-5,41.5Zm92.2-69.8-6.5,31.5-7.9-3.7-7.8-18.2H324l5.3,24.9,13.6,4.3-6.4,30.7L360,350l5.3-66-14.4-3.3ZM500,290.3h-6l-10.7,22L474,316c-3.4-16.2-7-32-7-32l-17,4.7,8.5,61.3H480c.9.4-1.5-12.1-4.5-26.4l12.9-.3,11.6-33ZM192,350l-5.3-41.4h-12L172,350Zm-33.3-53.3-5.4,53.8L134,350l5.3-64Zm-45.4,0,6,53.3-18.8.2V301.5ZM73.6,295v55H56l4.7-60Zm-28.9-1.7,6,56.7H32V308.6l12.7-15.3ZM413.3,350l8.1-66h13.4v66Zm751.4-88.7-12,88.7H1170V261.3ZM699.7,284l-10.2,66h25l7.4-72.1Zm173,66-3.4-82.8L850,271.8v31.7l-10.7-6.8V277.9l-10.1,1.2,1.9,22.6L850,313.3V350ZM1086,277.9l-5.3-3.3L1070,288.7l-1.3-17.7-15.4-3.8L1056,351l18.7-.8-3.8-49.1,15.1-23.2ZM970.7,254.7,956,287.3,945.7,289l5-31.3-23.4-4.2-4.5,43.8-20.1-40.7-6,1.1,25.2,48.6L917.3,350H936l7.7-48.2,17.6-5.1,14.7-39-5.3-3Z"/><path class="b" d="M0,92.3l15.5-6.9,11.8,17.1,24,2.4,8,20.4,14.3-7.6,15.7,1.4L110,134.5l16-24.7,16.7.2,4.4,11.7,23.6-2.6,13.3,5.6,24.5-3,20.8,2.6,8.3,14.8,19.1,2.6L274,163V145.9l18.7-7.7,10,10.9,14.6-20.8,28.7-3.6,5.3,7.8L377,109.8l21.5,8.8,4.8,11.9,13.4,2v12.6l17.3,5,9.3,14h15.2l3.5,11.3,18-1.9,8.5-12.4,8.5-11,13,5.8,5.3-17.7,16.7-9.9,16.5,7,6-12.5,22.5-1.1,2.9,10.3h23.4l25,4.7,17-4.7,8.8-10.3L650.7,110l16.1-7.5,6.9,8.6,11.1,2.7,3.3,9,15.2-1.1,8.4-14.4,23.5,1.1,6.7,10.7,34.7,13.4,11.9-14.8,13.4.9,9.6,3.1,5.8-16.8,18.2-10.4,13.1,8,8.1-18.7,20-15.8,10.6,20.5h18L945,113.8l3.7-19.3L966,84.9,977.7,100,1004,88.5l8,14,22.7,5.9,6-13.9,17-8.2,17,2.2,5.7-17.1,18.3-6.9,10.3,9.8,13-5.8,16,11.4,5.3-15.4L1134,53.8,1145.3,42l14-8.3,10.7,1.7v161l-13.3,17.5-11.4-11.6-24.6,10.1-.7,19.3-24,5.3-24-14.6-25.3,12.7L1032,253.5l-25.3-8.3L998,230.1l-29.3,15.7-29.4,10.8-45.8-30-12.2,17.1-18,6.2-20.6,11.4-7.2-11.4-29.2,6.7L795.6,269l-19-7-30.4,9-5.7,11-28.8-4.1-12-17.2-19.4-.8-18.3,18-19.2-6.1-9.6,13.5-19.2,6-13.7,12.2-21-2.8-9.3,7.8-21.5-9.8-17.2,4.8-10-12.2H506.7l-9.7-8.6-22.3,8L463.3,286l-9.3-8.1L428.5,286l-11.8-3.3-15.4-10.9-30,6.1-8-6.9-58,.8-6,17.5-18.5,4.5L254,318.3l-9.7-9.8L232,294l-20.7,4-8-10-14.6,3.3-13.4-2.6-8-10.8-28,8.1L126,291.3,106.7,284l-19.4,7.3L60.7,290l-13.4,8-8,17.2H16.7L0,324.6Z"/><path class="k" d="M0,149.1l24-10.9,12,14.4,24,3.3-4.7,25.4,18.3,4.6,25.1-18.6,34,6.7,9.3,7.3,14.7-21.2,27.3-8.3,15.3,23.6,14,1.5,7.4,18.7L250,183.4l11.7-4,12.8,5,31.1,15.4,17.1-15.4,22-38.1L368.5,174l12.2-15.1,29.3,1.2,10,12.5,5.3,16.6,24.7-5.4L467,194l6.3,11.5,26-14.3,3.4-5.5,20.6-10.3,28,3.7,3.2-15,18.5-14,25.2,2.4-.7,25.3,11-17.7,30-10L660,165l22.3-23.2,24.4,7.1,7.8,8.1,18.3,1.9L744,145.1l27.3-.9,4.9,14.7L800.7,136l11.6-.9,18.8,16.7L848,139.4V121.7h26.7l10.1,17,14.5,13.1L912,132.5l25.7,10.1,11.6,1.6,21.8,14L961.8,132l53.5-9.2L1026,136l8.3,5.1,9,17.1,17.4-4.9,9.3-25,22-5.1,11.3,5.1,6.4-19.9L1123,90.3l21.8,2.2v7.3l14.5-7.5,10.7,2.2V249.9l-40.7-1.1-8,18.4-22-3.2-9.3-10.5-29.3,9.8v11.4l-30.7,3.2-6.7-6.9h-24l-5.6-17.5h-35L946,267.2l-25.3-9.5-27.2-1.1L870,257.7l-16,17-18.5-7.5-28.7-4.5-18.3,3.7L770,274.6l-26.6,8.7-36.4,6-16.3-17.5L664,283.1l-17-.4-19,10.6-5.3,15.2L596,312l-13.3-3.5L563.3,312l-18.6-3.5L518.5,312,510,298l-21.5-8.7L467,296l-13-11.3-42.7,10.6-7.8-14L384,277.9l-7,11.4L360,282l-14.7-10.2-26,9.5-12,17.4-24-.7L278,308.5l-11.3,6.7-2,8.5-31-2.6L222,300l-20,3.5-8.7-8.2L172,292l-5.3,8-19.6-10.7-15.8,8-22-1.3-12,7.5L78,295.3l-23.4-1.7-3.9,14.9L33.3,320.3l-18,.8L0,330.4Z"/><path class="f" d="M0,198.8,12,193l7.3,8.2L34,198l13.3,10.5-5.3,16,25.3,1.8,6.3-17,18.4-7,4.7,11.6,22-15.8h22l17,8.2L177,186.2,192.7,203l14.6,17.8,23.4-16.1,19.3,9.2-.3,19.2,15-13.7,13.3,7.2,8.7-18.4,22.6-10.1,20,10.4,7.4-19.3,18.6-3.3L377,198.1l6.3,11.2L407,185.7l13,10.7v14.9l17,2.6,18.3-12.7,17.4,13.5,7.3,25.2,38.5-6.8v-13l-5.8-19.5,15.3,4.1,32-21.8,21.7,23.6,9.6-14.2,17.2-3.1v20.1l21.5-8.8,9.2-21.8,21.6-7.6,21.4,17L699,181l29.3,2.8,21.7,1.9,10.5-10.8,28.1,2,9.1,5.1,9.8-6.1,21.7-15.8L848,168l12-9.1,14.8-5.1L902,172.6l14.7-1.5,8.3-19.3,20.8,15.1,8-5.4,22.2,1,4-6.6,13.7-5.8,25,8.8,6,12.2h10.6V155.9l17.2,10.8,22.2-17.6,25-3.2,4.6,13.1,17.3,9,5.1-18.9,10.6-18.6,12,4,7.4,15.6,13.3,1.7v120l-26,6.1-12.7-10.7-31.3,4.6-8,12.2-31.3-9.3-34,9.3L1016,271.8l-22.3,8.9-21-13.5-22.6-4.4-8.8,11.9L925,271l-14.3-8.3-32,4.5L860,286.7l-30.8-3.4-6.3-8.6L800.7,271l-13.2,6.9-38.6,7.2-13.7,8.2-16.1-6L699.7,298l-18.8-8-31.4,2-11,11.5-8.5-4.8-7.3,19.6-20.4,2.6-20.6,7.4-21-10.5H540l-30-6.5-8-12L480,298l-7.3,10.5L437,294.7l-22.3,4-24.7-8-30,4-2.7,8.8-30-5.5L312,303.5l-23.3,5-14,16.5-28,7.2L222,321.1l-22.7-12.6-18.6,15.2L160,317.8,147.1,306l-30.4,2.5-12,9.8H73.6l-6.3-14.8-10.6,5-6,9.8L23.3,330.4l-8-5.8L0,336.3Z"/><path class="k" d="M312.7,221.3l16.6-12.8,15.4-3.8,8,6.6,30.6-2,15.2,12v8.8l16.8,3.3-16.8,3.9-17.8,6.4-24-17.4H321.3L304,240ZM20.7,248,42,224.5l8.7,10.2L92,236.3l24,41.6L80.8,251,58,262.9,50.7,248l-34,9.7L0,248V226.3H13.3ZM407,253.5l8.6-9.8,21.4-2.6,13,9.6-21.5,2.8Zm291.5-58.2L716,184l12.3-.2L745,195.3h13.4l17.9,6.7,3.7,11.9-13-9.2H745L730.4,196l-19.7,2.8-18.4,5.5,6.2-9Zm140.2-8.6L848,168h18.7L887,179.1l15-6.5,28.7,11.2,9.3,15L922,192l-17.3-8.6L887,193.3l-32.3-6.6-25.5,12.1,9.5-12.1Zm158.6,27.2,8-22.6,22-7.9,11.4,4.6,7.3-16,23.7-4,21,7.6,27.3,15.3-19.3-4.2-21.4-7.6-28,9.9-12,9.8h-14.6l-25.4,15.1Z"/><path class="l" d="M0,294.7l42-70.2-20-9L11,232.9,0,257.8Z"/><path class="f" d="M22,215.5l-8-3.8-8.5,5.9L0,226.3v31.5l22-42.3Z"/><path class="j" d="M14,211.7,0,202.5v23.8Z"/><path class="g" d="M0,202.5,17.1,225l24.9-.5,8.7,10.2,46-20.8,3.8-25.8L134,159.8l-7.1-19.7-9.4-17.2L85.3,133.8,46,131.3,29.3,117.5,0,126.6Z"/><path class="f" d="M100.5,188.1l-32.9-3.7L48,196.2H16.7L0,177.6V115.7l26.7-9.8,32.6,19.4,30-6.2,34.3-5.7L134,159.8,100.5,164v24.1Z"/><path class="k" d="M0,159.8,28,168l39-13.5,13.7,17.4,19.8-7.9,9.4-28.8,17-7.2,7.1-22.1L103.6,76.7l-32-15.3L43,76.9,32,57.6,0,78.1v81.7Z"/><path class="b" d="M0,126.6,28,168l22.7-31.1L84,143l17.9-26,25,11-7.6-36.2-30.6,2,14.9-17.1L81.3,52.5,43,41.5,16.7,53.4,0,52.5Z"/><path class="k" d="M50.7,136.9.4,107.7,48,80.8l40.7,13Z"/><path class="m" d="M0,0H1170V350H0Z"/><path class="f" d="M602.3,156.8l3.7-14.2-7.8,9.9v3.2Z"/><path class="l" d="M577.7,171.9l24.6-15.1-13.8.8-11.8,5-1.7,6.5Z"/><path class="g" d="M573.4,157.6l24.8-5.1,4.1,4.3-25.6,5.8-3.3-5"/><path class="j" d="M591.8,139.1l12.6,9.8,14.4-1.6,9.5-10.6L607,140.1,589.5,132l2.3,7.1Z"/><path class="g" d="M589.5,132v-7.8l12.8-3.4,10.4,9.7h8.1l7.5-6v12.2L607,141.8Z"/><path class="b" d="M589.5,124.2l3.8-8.9,9-1.5,16.2-4.7,9.8,15.4-6,7.5-9.6-1.5L607,141.8Z"/><path class="f" d="M612.7,130.5l11.6-12.2-22-4.5Zm-61.7,21,6.9-14.6,7.3,25.7,3.5,29.7-16.4-28L551,151.5Z"/><path class="g" d="M557.9,136.9l7.3-2.7,11.5,28.4,5,43.9-8.3-7.1-4.7-7.1-3.5-29.7Z"/><path class="f" d="M566.6,127.7l10.1,34.9-6.9,1.4-5.9-8.3-6-18.8,8.7-9.2Z"/><path class="g" d="M602.3,223.4l6.2,24.3,8.5-4L614.3,227Z"/><path class="g" d="M581.7,206.5l20.6,6.8,10.4,6.8,2,8.5-16.5-10.2-16.5-11.9Z"/><path class="k" d="M581.7,206.5l26.8,2.8,4.2,10.8Z"/><path class="l" d="M581.7,206.5,614.3,227l-34.4-1.9-1.4-8.8,3.2-9.8Z"/><path class="g" d="M503,161.5l48-10,17.7,40.8-19,9.1L528,204.7l-25-43.2Z"/><path class="l" d="M528,204.7l23,1.8,7.7-2.5,10-11.7Z"/><path class="f" d="M568.7,192.3V204l-3.5,6.4-10.7,54.9H542.6l-11.9-5.5,12-24.6,8.3-28.7,17.7-14.2Z"/><path class="h" d="M565.2,210.4l8.2.5,8.3-4.4-13-14.2-2,10.1-1.5,8Z"/><path class="l" d="M565.2,210.4,554.5,227l-2.2,11.8,2.2,26.5,9-26.5Z"/><path class="b" d="M565.2,210.4,551,206.5l-20.3,53.3,21.6-21Z"/><path class="l" d="M557.9,136.9,569.8,164l-1.1,28.3-10.8-55.4Z"/><path class="g" d="M565.2,210.4l16.5-3.9-1.8,18.6-6.5,32.5-7.8,7.7H554.5l10.7-54.9Z"/><path class="l" d="M551,206.5l-16.2,9-16.3,17.6,26-9.7,6.5-16.9Z"/><path class="b" d="M541,205.7l-22.5,14.4-1.5,4.4,1.5,8.6L551,206.5l-10-.8Z"/><path class="g" d="M518.5,220.1,500,208.4l6.7,12.3,11.8,12.4v-13Z"/><path class="l" d="M518.5,233.1,497,216.6v-4.7l3-3.5Zm90,14.6-10.3,17.6,2.1,2.6,5.7-4.6,2.5-7.8Z"/><path class="l" d="M622.3,255.5l13.2,12.4-3.2,3.4-14.2-13.7,6.6,20.3-4.7,2.8-7.3-20.6L611,282.3h-5v-19l8.7-7.8Z"/><path class="b" d="M608.5,247.7,606,263.3l16.3-7.8L617,243.7l-8.5,4Z"/><path class="l" d="M500,208.4l-.7-17.2h-3.1L494,201.6l2.3,4.1,3.7,2.7Zm-9.7,8.2L477,220.1l-1.3-3.5,15.7-4.5-17.1-3.5,1.7-3.9,16.8,1.8-10.8-11,3.8-3.2,8.2,9.3-1,8.3-2.7,6.7Z"/><path class="l" d="M554.5,265.3,549,276.6l-11.6-7.7-6.7-9.1,23.8,5.5Z"/><path class="g" d="M500,208.4l-6-6.8-3.7,15H497Zm49,68.2-23.3,20.1,4.2-18.8,7.7-11.8L549,276.6Z"/><path class="b" d="M530.7,259.8l6.9,6.3-11.9,30.6-4.8.7-5.6-2.6,15.4-35Z"/><path class="g" d="M525.7,296.7l4.2,5,4.1,14.8-6,.5-2.3-2-10.4-20.2,10.4,1.9Z"/><path class="l" d="M534,316.5l-3.3-24.1-5,4.3,8.3,19.8Z"/><path class="g" d="M554.5,265.3l9.4,9.3,12.8,24.9L549,276.6Z"/><path class="b" d="M576.3,261l.3,29,1.9,6.7-1.8,2.8-22.2-34.2,12-4.3Z"/><path class="f" d="M534,316.5l-3.3,14.6-6.1,10.4-16.9-5.9,18-20.6,8.3,1.5Z"/><path class="l" d="M534,316.5l4,11.8-3.2,16.8-10.2-3.6,9.4-25Z"/><path class="j" d="M576.7,299.5l7.5,30.9,7.6,19.6,16.7,1-13.7-30.9-18.2-31.3.1,10.7Z"/><path class="l" d="M576.7,299.5,585,350h6.8Z"/><path class="b" d="M576.6,288.8l23.7,22.3-5.3,2.6-6.4-1.4Z"/><path class="l" d="M600.3,311.1l8.2,39.9-19.9-38.7,11.7-1.2Zm-20.4-86-25.4,40.2,18-3.6,3.8-.7,3.6-35.9Z"/><path class="l" d="M488.5,161.1l30,5.8L551,151.5l6.9-14.6,22-4.9,22.4-18.2L606,90.3l-17.5,13.5L565.2,100l-8.9,15.3-25.6,3-24.4,12.2-6.3,9.6-23,7.6,11.5,13.4Z"/><path class="g" d="M477,147.7l-10-17.2,21.5-22.8,16.2,15.9,25.2-15.9h12.7l20.3-17.4,17,6.9,22.5-21.9,3.7,14.9s-12.2,17.5-14.1,17.4-23.8,0-23.8,0l-17.1,20H524.7L503,151.5Z"/><path class="k" d="M602.3,75.4,581.7,100l-17.8-6.2-16,17.9-17.2,2.2L503,128.2l-36,2.3V111.7l19.7-36.3L513,72.9l15-19.1,43.3-1.3,17.2,8.9Z"/><path class="b" d="M575.3,51.3l13.2,10.1-1.8,16.5L563.9,93.8l-26.3,1.9-17.3,8.9,10.4,9.3L500,118.3l-19,11.3-14-17.9v-7.9l15.3-30.9L512,63.3l22-15.9,41.3,3.9Z"/><path class="f" d="M503,128.2v23.3l-26-3.8Zm27.7-14.3-6.1,13.8H551Z"/><path class="g" d="M579.9,132l-11.8-24.3-10.2,29.2Zm-61.4,34.9,19.3-22.5-13.2-16.7-14.5,28Z"/><path class="l" d="M515.3,175.5,528,162.4l19.9,1.9-7.6,14.9-25-3.7Z"/><path class="n" d="M541.1,167.2c.8,2,.5,4.1-.7,4.6s-2.9-.8-3.7-2.8-.5-4.1.7-4.6S540.2,165.2,541.1,167.2Zm-14,4.7c.8,2,.5,4.1-.7,4.6s-2.9-.8-3.7-2.8-.5-4.1.7-4.6S526.2,169.8,527.1,171.9Z"/><path class="h" d="M528,162.4l4.5,20.6,7.8-3.8Z"/><path class="l" d="M540.3,179.2l-2.3,7.2-5.5-3.4ZM527.7,193l30.2-10.2.8,2.8-28.8,9.5Z"/><path class="l" d="M302.2,204.7l1.8,28.4,7.1,5.7,12.3,2.3-9-19.3-12.2-17.1Z"/><path class="g" d="M309.3,195l-7.1,9.7,26,44.6L383,238.8l-27.5-64.5-16,2.5L309.3,195Z"/><path class="c" d="M316.7,185.1l-7.4,9.9,19.8,2.7,12.2-20.9-13.3-.2-11.3,8.5Z"/><path class="e" d="M256.7,141.7,289,111.3l5.3,14.7-22,15.7Z"/><path class="c" d="M289,111.3h38.7L336,126l-43.7.5Z"/><path class="i" d="M336,126l8.7,25.5H328l-3.7-14.3-7.6,12.5-7.4,2-17-25.2Z"/><path class="h" d="M344.7,151.5l-3.4,25.3-9.3,1.3-4-26.6Z"/><path class="c" d="M256.7,141.7,278,192.9l20.4-8.3,14.3,2.3,10,2.3,7.3-11.1-5.7-40.9-7.6,12.5-7.4,2-17-25.2-35.6,15.2Z"/><path class="d" d="M292.3,126.5,314,179.1l-15.6,5.5,15.1,2.8,9.2,3.8,9.3-13.1-6.7-43.9-10.6,13.5-3.4,2-19-23.2Z"/><path class="i" d="M298.4,184.6l22.3-9,2,15.6ZM328,151.5l-6.7,1,7.8,6.4-1.1-7.4Zm-4.3-1.8-2.4-3.8,3.4-5.2Z"/><path class="d" d="M269,156.8l7-7.1,4.7-2.4h14.6L289,168.1l-20-11.3Z"/><path class="e" d="M280.7,147.3l8.3,20.8-3.1,1.3L276,149.7l4.7-2.4Z"/><path class="i" d="M289,168.1l-1,2.7-2.1-1.4Z"/><path class="k" d="M256.7,141.7l71-30.4,4.3,7.6-72.3,30Z"/><path class="b" d="M272.3,135l4.5,2.3-1.7,5.2-4.8-2.7Z"/><ellipse class="n" cx="291.21" cy="155.59" rx="2.2" ry="2.8" transform="translate(-23.73 56.45) rotate(-10.64)"/><path class="n" d="M278,160.9a2.23,2.23,0,1,1-4.1,1.4c-.5-1.5,0-2.9,1.1-3.3A2.48,2.48,0,0,1,278,160.9Z"/><path class="k" d="M295.3,147.3l-2-2.1-12.6,2.1ZM269,156.8l-.8-3,7.8-4.1Z"/><path class="i" d="M280.7,177.3l9.6-2.3,9.4-5.6.8,2.4-9.3,5.5-9,1.8-1.5-1.8Z"/><path class="l" d="M341.3,176.8l-17.9,64.3,4.8,8.2,21.3-73.8-8.2,1.3Z"/><path class="l" d="M328.2,249.3l-8.8,22,63.6,7.3V238.8l-54.8,10.5Z"/><path class="j" d="M319.4,271.3l-6.6,15.5,16.3,8.9L348,274.6l-28.6-3.3Z"/><path class="l" d="M312.8,286.8l1.2,17.6,15.1-8.7-16.3-8.9Z"/><path class="k" d="M323.4,241.1l55.9-11,3.7,8.7-54.8,10.5-4.8-8.2Z"/><path class="c" d="M304,233.1l-8.7,14.2,4.6,6.2,6.6,3,16.9-15.4Z"/><path class="i" d="M295.3,247.3l-7.9,8.2,11,11.8,8.1-10.8Z"/><path class="g" d="M273.8,192.9,289,247.3l-2.9,4-4.7,2.2L269,195.1l4.8-2.2Zm33.7,78.8,35.1,27.8-3.3,4.9-38.8-25.8,2.4-4.3,4.6-2.6Z"/><path class="l" d="M289,247.3l2.8,3.7,5.5,9.6,3.9,2.8,6.3,8.3-7,6.9-19.1-25.1,7.6-6.2Z"/><path class="d" d="M287.4,255.5l-2.1,3.2-1.9,3.9,11.9,9,5.9-8.1-2.4-3.3-6.5-1.5-4.9-3.2Z"/><path class="e" d="M295.3,247.3l-7.9,8.2,7.9,7.4,3.5-2.7-4.4-5.7,6.1-3-5.2-4.2Z"/><path class="o" d="M273.8,192.9l68.8,106.6"/><path class="d" d="M344.7,223.2l3.3-1v7.3l9.3,4.9-1.6,14.9-11-12.4,2-6.8-2-6.9Z"/><path class="h" d="M348,229.5l5.2,9.3,2.5,10.5-4.5-10.5Z"/><path class="i" d="M285.3,258.7l10,12.9-12.8-8.7,2.8-4.2Z"/><path class="d" d="M234,302.9,212,342l9.2,6.6-18.1.9,10.6-40.6Z"/><path class="c" d="M218,307.6l-11.7,36.2,6.3,3.4L199,350V313.2Z"/><path class="i" d="M199,334l13,8,6.7-12-12.2-1.3Z"/><path class="c" d="M193.7,220.9l23.8,9.7,19-7.5-22.8-20-9.2,6.8Z"/><path class="g" d="M252,159.8l-43.8,23.4-6.4-9.8-.8,9.5,3.5,27-10.8,9L177,186.2l15.4-23.3,10.4-13.6,35.5-2.1L252,159.8Z"/><path class="f" d="M238.3,147.2l-45.9,15.7,10.4-15.6,35.5-.1Z"/><path class="l" d="M199,182.9l-22,3.3,16.7,34.7,10.8-11-.2-9.3Z"/><path class="c" d="M252,159.8l-3.8,46.1-17.5-1.2-12.7,12-11.5-6.8-6.5-26,1.8-10.5,6.4,9.8,11.3-7.6L252,159.8Z"/><path class="d" d="M219.5,175.6l-.7,28.3,11.9.8-7.2,6.2-5.5,7.8-13.5-8.8-5.5-27,2.8-11.5,6.4,9.8Z"/><path class="i" d="M230.7,204.7l-17-1.6,4.3,15.6Zm-30-13.5h5.8l-4.6,6Zm.1-10.6,3.9.3-1.1,7.3-2.8-7.6Z"/><path class="d" d="M223.5,173.7l24.7,1.4L234,188.2Z"/><path class="e" d="M234,174.3v13.9h3.6l1.5-13.6-5.1-.3Z"/><path class="i" d="M237.6,188.2l-1.8,2.2-1.8-2.2Z"/><path class="k" d="M223.5,173.7l9.6-1.8.9,2.4-10.5-.6Zm15.6.9.9-2,8.2,2.5-9.1-.5Z"/><path class="n" d="M231.6,179.4a1.88,1.88,0,0,1-1.8,1.9,1.82,1.82,0,0,1-1.8-1.9,1.8,1.8,0,1,1,3.6,0Zm13,.9a1.88,1.88,0,0,1-1.8,1.9,1.82,1.82,0,0,1-1.8-1.9,1.8,1.8,0,1,1,3.6,0Z"/><path class="g" d="M229.7,193.8l5.1-1.4,5,1.8-5,2.3-5.1-2.7Z"/><path class="f" d="M229.7,193.8l5,3.9,5.1-3.5-5,1.3Z"/><path class="i" d="M252,159.8l-56.1-2.2-5.1,7.8,60.6,1.4Z"/><path class="l" d="M193.7,220.9,218,239.8l18.5-16.7-19,6.5Z"/><path class="g" d="M194.7,223.9,218,237.8l16.5-11.7L233,240.8l-9.5,23.9,5.2,18L206.5,286l-26.7-5.4,16.1-23.1-1.2-33.6Z"/><path class="p" d="M192.4,262.5l14.7,4.7,6.6,6.2,11.5-2.9-1.7-5.8-7.2-7.6L199,254.5l-3.1,3-3.5,5Z"/><path class="k" d="M218,237.8l15,3,2.8-7,.7-10.7Zm-24.3-16.9L218,237.8l-23,3-2.6-5.3,1.3-14.6Z"/><path class="d" d="M193.7,220.9,177,251.4l13.8-4.5,4.2-6.1Zm42.8,2.2,4.5,34.4-10.3-2-3.7-2.1,6-12.6Z"/><path class="c" d="M195,240.8l14,13.3v7.7l-32-10.4,18-10.6Zm34.5,7.4-6,7.3v9.2l17.5-7.2Z"/><path class="d" d="M223.5,264.7l-3.6,2.2-4.2-7.3,7.8-4.1v9.2Z"/><path class="i" d="M215.7,259.6l-3.8,1.2-.6,6.1h8.6l-4.2-7.3Z"/><path class="d" d="M209,254.1l7.3-4.8-.6,10.3-6.7,2.2v-7.7Z"/><path class="i" d="M216.3,249.3l7.2,6.2-7.8,4.1Z"/><path class="l" d="M179.8,280.6,199,313.2l20.6-2.7,14.4-7.6-5.3-20.2-48.9-2.1Z"/><path class="l" d="M234,302.9l.7,23.9-43.9,8.9,8.2-22.5,35-10.3Z"/><path class="l" d="M413.3,303.3l4.1-63.4-18.9,34.7L392,298.5Z"/><path class="f" d="M392,298.5l25.4-58.6L404.7,221l-20,35.6-16.2,41.9Z"/><path class="j" d="M368.5,298.5l-23.8-4.9,53.8-77,6.2,4.4Z"/><path class="l" d="M404.7,221l-47.4-68-12.6-1.5L383,238.8Z"/><path class="h" d="M417.4,239.9l6.7-15.4-49.4-78.6L357.3,153l60.1,86.9Z"/><path class="g" d="M424.1,224.5l5.1-17-24.5-68.4-30,6.8Z"/><path class="l" d="M429.2,207.5,492,107.7l-12-3.9-55.1,91.7,4.3,12Z"/><path class="j" d="M424.9,195.5,480,103.8,467,100l-45.8,85.1,3.7,10.4Z"/><path class="l" d="M421.2,185.1,467,100l-8.6-1.6-42.7,71.3,5.5,15.4Z"/><path class="f" d="M269.3,92.3l40,12.3L304,129.9l40.7,21.6L365,164l28-21.4,16.5,9.8,7.2-19.9,18.1-12,27.3-11.4,24.1,7.9,32.3-8.4,19.1-24.1L574,79.9l34.5-23v-24L636.5,0H172l20,35.4,31.3,4.4,16,36.9,30,15.6Z"/><path class="k" d="M223.3,0,210,16.4l13.3,23.4L278,45.9V61.4l38.7,18.5,12.6-18.5,19.1,11.2,7.3,8.4,4.6,9.3L336,107.7,374.7,132,393,104.6l57-18.3,30,9.4L500,66l37.6,18.5,10.9-34.6,30-14.5-3.2-19L608.5,0Z"/><path class="b" d="M264.7,0,244.3,17.4,278,45.9l26-11.7,26.7,1.2-1.4,26,45.4-4.5L380,28.1l44.9-1L413.3,47.4,450.6,66l34.7-20.1L500,66l37.6-20.1L518.5,23.4l21.5-12,35.3,5L578.5,0Z"/><path class="q" d="M278,61.4,239.3,76.7l30,15.6Zm38.7,18.5L336,107.7l-26.7-3.1,7.4-24.7ZM393,104.6l23.7,27.9L393,142.6Zm57-18.3,12.1,22.8L480,95.7ZM578.5,35.4,574,79.9l-25.5-30Zm30-2.5L575.3,16.4l3.2,19ZM413.3,47.4l-38.6,9.5L393,104.6l20.3-57.2ZM304,34.2,264.7,0H332ZM374.7,132l-30,19.5L304,129.9l32-22.2Zm75.9-66L450,86.3,413.3,47.4Zm34.7-20.1,13.4-30.6L509.3,0H450l35.3,45.9ZM414.8,20.2,450,0H411.4l3.4,20.2Zm103.7,3.2,21.5-12,8.5,38.5-10.9-4Z"/><path class="b" d="M172,350l52-10.7,66-38.5,54.7-7.2,50.8-3.3,58.5,4.4,23,30L548.5,350Z"/><path class="k" d="M172,350l52-10.7,54-12.6,20.4-6.7,72.9,4.6,33-14.2L477,324.7,548.5,350Z"/><path class="f" d="M224,339.3l54-12.6,20.4-15.6,72.9,13.5-86.6,8.7L295.3,350l-30.6-13.7-40.7,3Zm147.3-14.7-26.6-31,57.3,8.1,75,23-47.8-3.3,44.3,29.1-32.2-.5L407,315.3l-35.7,9.3Z"/><path class="b" d="M1170,341.4l-58.7-13.9L947.8,309.7l-118,16.6H733.4L654.8,350H1170Z"/><g class="r"><path class="s" d="M905.4,330.4l61.6-5.9-25.5,10.1,78.6,11.9,53.2-14.9,43.9,12.7,41.3-5.6-47.2-11.2L947.8,309.7l-118,16.6,13-1.8,62.6,5.9Zm-75.6-4.1H733.4l45.5,12.2Z"/></g><path class="j" d="M953.8,161.5l21.7,62-29.7-10Zm-79-7.7-31,50.2,31-2.3V153.8Z"/><path class="i" d="M934,151.9l19.8,9.6-11,86.4L907.5,251l-36.9-3.1,4.2-94.1,18.9-3.5Z"/><path class="j" d="M886.5,143l-4.2,9.9,24.2,25.3L944,156.8,937.1,144Z"/><path class="g" d="M876.7,68l47-3.5L892.5,78.3l-7.7-3.4Z"/><path class="j" d="M923.7,64.5l33,27.2-33.3-7.9-30.9-5.5Z"/><path class="g" d="M924,80.8l32.7,10.9v6.6L934.3,97Z"/><path class="j" d="M936.8,94.7l-17.5,23.5,11.2,7.7,6.4-7.7,10.1.9,9.7-20.8Z"/><path class="c" d="M876.7,68l-15.9,66.1,24,7,23.9,20.4,22.8-11.8L944,120.1l-7.5-3.4-7.5,9.2-10-9,14.8-21.8L924,80.8l-31.5-2.5Z"/><path class="d" d="M924,80.8l-14,66.1-25.2-5.8L902,154.3l6.7,11.3L934,151.9l3.7-9.3.3-5.8,3.5-3.8,5.5-13.9-11.5-4.9-4.7,8.6-9.8-6.1,15.8-22Zm-47.3,8.3,32,7.9-21.4,17.2Z"/><path class="i" d="M884.8,141.1l34.5,8-10.6,16.5Zm56.7-8.1-9.2-4.1,5.4,13.7,3.8-9.6Zm-4.6-7.1,2.1-6.8,5,2.7Z"/><path class="e" d="M892.7,93l-5.4,21.2-5-1.2,5.2-21.3Z"/><path class="s" d="M900.1,106.3a2.55,2.55,0,0,1-2.9,2.3c-1.3-.3-2-1.7-1.7-3.3a2.55,2.55,0,0,1,2.9-2.3A2.69,2.69,0,0,1,900.1,106.3Zm-18.8-4.2a2.55,2.55,0,0,1-2.9,2.3c-1.3-.3-2-1.7-1.7-3.3a2.55,2.55,0,0,1,2.9-2.3A2.69,2.69,0,0,1,881.3,102.1Z"/><path class="j" d="M908.7,97l-12.2-6.7L892.7,93Zm-21.2-5.3-1.8-4-9,1.4Z"/><path class="i" d="M887.3,114.2l-3.5,2.7-1.5-3.9Zm-14.6,4.9,10.5,5.1,12.3-.2v2.8H882.3l-10.6-5Z"/><path class="g" d="M942.8,247.9l-19.1,15.4-20.9,9L886,262l-15.4-14.1Z"/><path class="l" d="M942.8,247.9l3.3,53.5L930,308.1H914.1l-11.3-35.8,40-24.4Zm-40,24.4-14.2,36-15.9-2-14-8.1,11.9-50.3Z"/><path class="g" d="M858.7,298.2l29.9,10.1-3.8,9.7-15.3-4.5-12.7-7.2,1.9-8.1Zm55.4,9.9,32-6.7.9,14.9L917.3,318Z"/><path class="l" d="M884.8,318l-1.2,6.5H843.8l.12-3L856.8,306.3Zm32.5,0v6.5h34.5l.94-2.3-5.94-8.5-13.5-3.3-16,7.6Zm30.1-106.5-10.5,10.8,1.1,8.5,5.3,12.7,32.2-20Zm-74.6-12.4,5.2,19.1-6.3,9.3-9.7,6L843.8,204l29-4.9Z"/><path class="c" d="M878,218.2l3.4,5.3-10.8,20-8.6-10,16-15.3Zm58.9,4.1-6.3,5.2,12.7,16Z"/><path class="g" d="M927.8,223.5l15.5,20-5.3,3.7-14-20.6,3.8-3.1Zm-44.2-3.6-13,23.6,4.2,3.7,12.5-23.7Zm33.7-36.1,25.5,2.5-1.3,5-24.2-2.9Zm-7.2-7.6-4.2,72.7h-5.2l3.2-73.4,6.2.7Z"/><path class="c" d="M1052.5,218.1l3.7,15.6-9.9-1.3L1041,227l11.5-8.9Zm-67-8.8L980,222.9l13.7-.7-3.1-5.8-5.1-7.1Z"/><path class="d" d="M1056.2,233.7l-19.9,14.6.6-10.6L1041,227l15.2,6.7Zm-64.5-12.5L980,222.9l18,23.6V232.4Z"/><path class="i" d="M1049.3,189l10,26.5L1041,227l2.6-20.7,5.7-17.3Zm-54.9-3.2L980,207.5l10.6,8.9,3.8-14.9V185.8Z"/><path class="j" d="M1026,338.5l-.7,5.8h-4.4l-.9-3.9Zm-40.1-10-.8,6.1h-4l-1.7-4.7Z"/><path class="c" d="M1034.3,311.1,1026,333l-6-.6-4.2-3.4-2.1-21.2,20.6,3.3Zm-56.7-8.5,20.7,3.1L986,324.6l-5.6-2.2-3.2-4.2.4-15.6Z"/><path class="l" d="M1015.8,329l10.2,4v5.5l-12.3,5.8h-11.5l-.42-2.9Zm-38.6-10.8-15.54,13.35.14,3.05,10.8-.2,13.3-5.9.1-3.9-8.8-6.4Z"/><path class="i" d="M1034.3,311.1l-19.8,5.4-.8-8.7,10.3.3,10.3,3Zm-56.7-8.5,15.6,11,5.1-7.9L988,302.6Z"/><path class="c" d="M1031.2,181.2l13.6,6.9-31.1,10.1-18.3-12.4,16.2-5.9,19.6,1.3Z"/><path class="j" d="M1057.7,86.3l5.3,11.4-36.3-23.3,20.8,4.7Z"/><path class="g" d="M1056.2,67.5l1.5,18.8-31-11.9Z"/><path class="f" d="M1026.7,86.3V67.5h29.5L1034.5,90l-5.3.7Zm-49,13.7L994,88.3l32.7-2L1000.2,110Z"/><path class="g" d="M999.2,106l27.5-19.7,25.8,12.1-22.3,10.3-31-2.7Z"/><path class="j" d="M1052.5,98.4l3.7,35.3-11.7-.9-3.2,8.5-9.3-2.5-1.8-34.1Z"/><path class="c" d="M977.7,100l-7,62.5,31.5,4.2,14,17.6,13-5.2,23.3-43.4-8-2.9-4.7,7.7-7.8-1.7-1.8-34.1-31,1.3-21.5-6Z"/><path class="d" d="M1030.2,104.7l-12.9,63.9-15.1-1.9,8.8,7.6,4.8,11.5,15.4-4.6,12.1-23,1.2-4.9,3-3.2,8.7-16.4-12.4-3.2-4.3,8.3-4.5-1.3-4.8-32.8Zm-16.5,16.6-31.4-3.5,16,21.8Z"/><path class="e" d="M1000.9,120l-2.6,19.6-5.8-.9,3-19.4,5.4.7Z"/><path class="i" d="M1002.2,166.7l24.5,3.1-10.9,16-13.6-19.1Zm45.3-16.6-8.5-2.4,4.3,10.5Zm-4.2-6,3.5-8.9,4.5,1.5Zm-45-4.5-3.1,3.2-2.7-4.1,5.8.9Z"/><path class="i" d="M995.4,185.8l5.5,32.6h30.4l13.5-30.3-31.1,8.1-18.3-10.4Z"/><path class="g" d="M994.4,185.8l7.6-2.4.2,27.4,28,.1,10.3-25,8.8,3.1-8.3,38-6.3,16.5H999.2l-8.6-27.1,3.8-30.6Z"/><path class="j" d="M990.6,216.4,1041,227l-4.7,21.3L998,246.5l-7.4-30.1Z"/><path class="g" d="M1036.3,248.3l11,30-29,11.9-40.7,12.4L998,246.5h22l16.3,1.8Z"/><path class="l" d="M1047.3,278.3l-13,32.8-56.7-8.5Z"/><path class="k" d="M998,246.5l-1.9-7.7,41.8,2.3-1.6,7.2L998,246.5Z"/><path class="j" d="M1014.8,239.8l-4.8,3.3,4.2,4.3,4.9-3.8-4.3-3.8Zm-2.2,3.7,2-1.8,2.1,1.8-2.1,1.9Z"/><path class="s" d="M1010.1,129.1a2.62,2.62,0,1,1-2.6-2.9A2.79,2.79,0,0,1,1010.1,129.1Zm-19.5-2.5a2.62,2.62,0,1,1-2.6-2.9A2.79,2.79,0,0,1,990.6,126.6Z"/><path class="j" d="M1013.7,121.3l-9.4-4.3-3.4,3,12.8,1.3Zm-18.2-2-1.8-3.6-11.4,2.1Zm-10,29.9,9.4-1.4,8.7,3.2-9.2,2.4Z"/><path class="i" d="M994.4,152.2l-8.9-3,8.4,6.4,9.7-4.6-9.2,1.2Z"/><path class="l" d="M1091.3,169.4l-21.6,24.9,19.3-4.1,2.3-20.8Z"/><path class="j" d="M1113.3,165.6l-22,3.8-21.6,68.8,40.6,12.8,43.4,2.5,7.6-72.5-9.6-11.9-38.4-3.5Z"/><path class="f" d="M1094.3,111.7l-3.8-7.9,54.3-4-5.7,19.4Z"/><path class="g" d="M1144.8,99.8l25.2,18-19.2,1.5-12.5-2.4Z"/><path class="j" d="M1170,117.8l-10,27.4-12.3-1-6,11.9-11-5,10-21.2-2.4-13,31.7.9Z"/><path class="p" d="M1074.7,222.2l23-3.8,43.6,25.1,14.3-10.6-53.5-28-25.5,11.2Z"/><path class="c" d="M1094.3,111.7l-6.3,50.9,25.3,3,6.7,7.3,29.7-4.8,8.3-20.9-10.3-3-6,12.9-11-6,10-21.2-2.4-13-44-5.2Z"/><path class="d" d="M1138.3,116.9l-11.6,50-13.4-1.3,8,7.3,12.4-.5,18-3.3-.4-5,3-2.6,5.7-16.3-13.3-3-5,11.9-10-4,11-20.2-4.4-13Zm-41.1,6.8,31.5,3.1-17.4,15.8Z"/><path class="i" d="M1154.3,161.5l-9.5-2.5,6.9,10.1Zm-41,4.1,22,2.4-1.6,4.4-13.7,2.5-6.7-9.3Z"/><path class="e" d="M1114.8,125.5l-3.5,17.1-5.6-.4,1.3-17.5,7.8.8Z"/><path class="i" d="M1111.3,142.6l-3.5,3.6-2.1-4Z"/><path class="j" d="M1128.7,126.8l-10.7-4.6-3.2,3.3,13.9,1.3Zm-21.7-2.1-1.3-3.7-8.5,2.7Z"/><path class="i" d="M1098.5,152.4l18.7,1.9v2.4l-18.7-2.2v-2.1Z"/><ellipse class="s" cx="1121.6" cy="133.4" rx="2.8" ry="2.9"/><path class="s" d="M1103,130.9a2.8,2.8,0,1,1-2.8-2.9A2.82,2.82,0,0,1,1103,130.9Z"/><path class="i" d="M1155.6,147.8l-6-1.6-1.9,8.3Z"/><path class="k" d="M1069.7,238.2l27.5,34.1,24.4-.5,32.1-18.3-84-15.3Z"/><path class="i" d="M1069.7,238.2l-3.6,46.6-4.4,25.3,10.5,7.4,15.8,2.9,17.7-36.7-5.7-11.9-30.3-33.6Z"/><path class="d" d="M1153.7,253.5l-5.9,41.2-1.8,29.9-15.5,3.9-19.2-1L1100,271.8l53.7-18.3Z"/><path class="l" d="M1161.3,181l8.7,30.5-27.7-9.4Z"/><path class="d" d="M1110.3,196.4l23.4-5.5-3,7.3-5,3.3-6.9-.9-8.5-4.2Z"/><path class="i" d="M1133.7,190.9l8.6,11.2-16.6-.6,8-10.6Z"/><path class="d" d="M1110.3,196.4,1095.7,184l-5.5,2.6-2.4,2.4,6.5,3.5Z"/><path class="c" d="M1095.7,184l-8.5-1.4-5,8.1,5.6-1.7,7.9-5Z"/><path class="d" d="M1170,211.5l-14.4,18.4-26.4-8.7-28.9-12.8,25.4-6.9,16.6.6,27.7,9.4Z"/><path class="c" d="M1069.7,194.3l8.3,19.2,13.3-1.9,34.4-10.1L1087.8,189l-18.1,5.3Z"/><path class="i" d="M1170,211.5l-40.8,9.7,26.4,11.7Z"/><path class="d" d="M1069.7,194.3l21.6,17.3-14.7,4.5Z"/><path class="i" d="M1124.6,263.4l6.1,62.5,6,3.1,9.3-4.4,7.7-71.1Z"/><path class="d" d="M1089.4,260.1l-17.9,55.2-9.8-5.2,8-71.9,19.7,21.9Z"/><path class="l" d="M1061.7,310.1l-13.14,12.54,0,3.66,39.2,1.2.2-7.1-26.3-10.3Zm84.3,14.5,3.8,11.6-.45,2.3h-41.72l0-3.12,3.63-7.88,34.7-2.9Z"/><polygon class="t" points="815.08 226.03 822.31 234.35 825.34 237.85 821.47 241.43 811.97 228.32 815.08 226.03"/><polygon class="u" points="822.31 212.58 831.56 216.07 835.32 224.23 830.55 235.41 825.34 237.85 825.34 237.84 818.02 230.33 822.31 212.58"/><polygon class="v" points="814.72 225.62 828.45 209.32 831.56 216.07 818.02 230.33 815.08 226.03 814.72 225.62"/><polygon class="t" points="825.34 237.85 835.32 224.23 839.14 237.48 832.85 246.58 825.34 237.84 825.34 237.85"/><polyline class="w" points="797.26 157.01 829.43 199.78 795.24 204.98 781.79 172.12"/><polyline class="x" points="782.68 173.5 829.43 199.78 829.43 199.78 815.83 227.08 808.14 224.42 782.68 173.5"/><polyline class="y" points="781.79 172.12 815.83 224.23 803.48 223.3 796.39 219.01 774.78 178.97"/><polygon class="z" points="818.02 230.33 799.71 224.23 796.39 219.01 815.83 224.23 829.43 199.78 829.43 199.78 832.89 204.31 818.02 230.33"/><polygon class="aa" points="678.53 342.84 745.09 341.69 829.8 333.76 733.4 326.3 678.53 342.84"/><polygon class="z" points="764.96 314.44 764.96 324.03 776.81 320.37 783.54 315.26 785.74 306.62 764.96 314.44"/><polygon class="z" points="714.07 305.81 710.52 324.08 720.77 324.03 730.5 317.88 732.67 313.28 714.07 305.81"/><polygon class="ab" points="783.54 315.26 764.96 324.03 764.96 329.02 780.72 330.34 800.07 329.02 783.54 315.26"/><rect class="z" x="764.96" y="329.02" width="35.11" height="4.75"/><polygon class="ab" points="730.5 317.88 734.82 331.64 722.65 334.02 708.79 331.64 710.52 324.08 730.5 317.88"/><rect class="z" x="708.79" y="331.64" width="26.03" height="4.75"/><polygon class="x" points="732.07 181.97 725.09 180.92 706.69 178.99 731.26 198.81 732.99 204.64 744.2 227.45 759.29 212.74 732.07 181.97"/><polygon class="ac" points="722.65 208.16 730.78 222.4 739.28 226.22 745.41 217.49 732.99 195.87 722.65 208.16"/><polygon class="x" points="800.16 200.33 763.93 253.6 745.41 217.49 730.78 222.4 703.04 299.64 740.52 322.32 740.66 322.43 802.83 297.95 800.16 200.33"/><polygon class="w" points="787.09 204.34 774.81 225.77 768.57 220.16 759.29 212.74 745.41 217.49 741.15 317.11 796.59 199.99 787.55 203.08 787.09 204.34"/><line class="w" x1="725.99" y1="189.03" x2="706.69" y2="178.99"/><line class="y" x1="732.99" y1="195.87" x2="725.99" y2="189.03"/><polygon class="h" points="808.14 125.99 788.62 129.75 789.92 139.51 791.91 151.35 801.78 144.48 808.14 125.99"/><polygon class="a" points="786.31 116.98 791.71 131.65 808.14 125.99 786.31 116.98"/><polygon class="h" points="794 163.74 797.79 166.83 805.8 168.46 812.8 153.54 801.65 157.27 794 163.74"/><polygon class="b" points="801.78 144.48 788.62 144.48 794 163.74 812.8 153.54 801.78 144.48"/><polygon class="b" points="720.74 157.27 704.63 161.68 699.94 173.98 709.63 175.77 722.01 165.27 720.74 157.27"/><polygon class="h" points="718.65 146.03 696.26 151.91 704.63 161.68 719.87 164.56 724.3 157.27 718.65 146.03"/><polygon class="a" points="718.72 129.91 714.29 130.86 710.92 126.55 696.26 151.91 719.16 148.74 718.72 129.91"/><polygon class="h" points="731.38 167.89 699.94 173.98 706.69 178.99 733.68 174.57 731.38 167.89"/><polygon class="h" points="789.11 116.79 789.15 116.98 789.13 116.79 789.11 116.79"/><line class="w" x1="794" y1="163.74" x2="792.38" y2="179.24"/><polyline class="y" points="796.59 179.66 776 158.38 796.59 199.99"/><polygon class="x" points="787.55 203.08 796.59 199.99 792.09 190.81 787.55 203.08"/><polygon class="ab" points="759.29 212.74 760.47 213.49 759.29 212.74 759.29 212.74"/><polygon class="ab" points="759.29 212.74 759.29 212.74 725.09 191.05 725.09 191.05 759.29 212.74"/><polygon class="z" points="788.86 190.98 784.3 203.31 783.87 204.34 787.55 203.08 792.09 190.81 790.36 187.29 788.86 190.98"/><polygon class="v" points="677.4 216.04 667.08 211.56 650.27 206.92 651.25 190.31 666.74 197.67 674.89 209.65 677.4 216.04"/><polygon class="t" points="641.94 187.98 639 201 650.27 206.92 664.71 192.31 641.94 187.98"/><polygon class="u" points="674.03 200.33 667.37 191.26 651.96 187.72 650.61 189.67 655.06 194.14 661.87 196.78 664.47 203.82 668.41 207.81 674.89 209.65 674.03 200.33"/><polyline class="x" points="716.96 212.51 678.8 223.49 673.59 194.07 691.16 198.79 716.96 212.51"/><polyline class="w" points="719.05 186.92 711.66 211.87 691.16 198.79 706.6 178.91"/><polyline class="y" points="732.99 195.87 708.73 226.93 690.71 227.28 680.26 219.87 711.66 211.87 719.05 186.92"/><polygon class="z" points="668.99 193.47 673.59 194.07 680.26 219.87 708.73 226.93 704.61 230.57 675.91 224.78 668.99 193.47"/><path class="ab" d="M726.66,276.37l-1.7,1.5,3-.5,8.1-20.8-3.9,2.8-5.5,17Z"/><path class="z" d="M725,277.87l1.7-1.5,5.5-17,3.9-2.8-1.8-9.4,7-5.7-1.5-3.6,3.6-11.3,2.7.8.8-2.1,3.5-12.4-7-.4-6.2,25.5-7.4,7.5,1.5,11.8Z"/><path class="ab" d="M743.36,226.57l-3.6,11.3,1.5,3.6,4.8-14.1Z"/><polygon class="ab" points="753.86 170.13 751.61 179.66 730.5 189.03 762.55 211.29 762.74 211.56 783.87 204.34 753.86 170.13"/><polygon class="ad" points="724.8 187.35 730.5 189.03 755.45 179.66 719.87 164.56 709.63 175.77 724.8 187.35"/><polygon class="z" points="774.81 155.63 774.77 155.55 774.63 155.65 774.81 155.63"/><polygon class="z" points="760.47 208.06 709.63 175.77 706.69 178.99 759.29 212.74 778.66 237.87 789.22 204.34 760.47 208.06"/><polygon class="z" points="753.86 170.13 742.19 162.16 720.74 157.27 719.87 164.56 755.45 179.66 753.86 170.13"/><polygon class="u" points="795.39 153.1 783.72 84.96 764.32 70.01 752.02 80.42 726.46 78.75 722.01 82.8 731.26 100.85 747.15 166.33 770.52 159.87 795.39 153.1"/><polygon class="c" points="764.32 73.9 783.72 84.96 772.16 69.53 762.64 66.74 760.64 70.01 764.32 73.9"/><polygon class="a" points="762.64 66.74 743.08 61 743.55 75.58 754.1 84.96 764.32 73.9 762.64 66.74"/><polygon class="b" points="724.46 75.58 724.66 77.86 726.24 79.17 754.07 85 754.1 84.96 743.08 61 724.46 75.58"/><polygon class="h" points="751.08 95.78 752.02 98.58 741.94 105.93 740.64 102.65 751.08 95.78"/><polygon class="h" points="765.82 93.28 766.93 96.63 777.44 98.27 778.15 96 765.82 93.28"/><polygon class="t" points="741.94 105.93 767.09 131.65 765.82 109.74 756.55 100.8 764.4 99.42 768.45 110.69 772.2 116.92 777.44 98.27 766.93 96.63 764.4 99.42 756.55 100.8 752.02 98.58 741.94 105.93"/><polygon class="t" points="733.42 90.62 726.46 78.75 714.99 98.27 720.75 104.92 722.01 122.44 716.81 116.6 713.03 122.33 706.69 124.68 711.9 139.87 717.26 138.53 720.75 139.23 719.16 148.74 720.74 157.27 743.55 166.13 747.77 166.41 733.42 90.62"/><polygon class="v" points="717.26 138.53 719.16 148.74 724.23 136.65 717.26 138.53"/><polygon class="v" points="758.7 163.14 743.55 166.13 755.06 170.6 758.7 163.14"/><polygon class="v" points="710.92 126.55 719.87 132.54 717.51 124.42 710.92 126.55"/><polygon class="z" points="741.15 317.11 703.04 299.64 701.35 304.95 740.52 322.32 740.66 322.43 802.98 303.71 802.83 297.95 741.15 317.11"/><polygon class="b" points="767.09 131.65 750 147.04 760.47 208.06 779.67 225.74 781.14 228.34 780.47 230.93 778.66 237.87 789.17 245.17 782.16 170.6 772.18 132.76 767.09 131.65"/><polygon class="c" points="791.19 223.97 800.16 200.33 789.92 139.51 775.08 129.91 772.18 132.76 789.17 245.17 794.95 233.97 791.99 229.17 790.36 226.8 791.19 223.97"/><rect class="ac" x="780" y="224.83" width="11.65" height="5.25" transform="translate(-25.38 121.63) rotate(-8.71)"/><polygon class="v" points="779.94 141.6 773.68 144.67 764 144.33 763.29 141.09 773.18 141.4 779.23 138.37 779.94 141.6"/><circle class="s" cx="751.91" cy="114.38" r="2.97"/><circle class="s" cx="775.08" cy="109.13" r="2.97"/><polygon class="ae" points="764.4 99.42 770.12 107.54 775.08 129.91 767.09 131.65 762.78 109.57 756.55 100.8 764.4 99.42"/><polygon class="h" points="703.52 92.18 713.03 122.33 716.06 121.24 722.54 124.99 724.41 101.24 716.95 96.87 726.46 78.75 724.46 75.58 703.52 92.18"/><polygon class="h" points="775.08 129.91 767.09 131.65 772.51 134.95 775.08 129.91"/></svg>