<svg xmlns="http://www.w3.org/2000/svg" viewBox="0 0 1170 379.7"><defs><style>.a,.c{fill:#fff;}.a,.aa,.b,.c,.d,.e,.f,.h,.l,.m,.n,.o,.p,.q,.r,.s,.u,.v,.w,.x,.y,.z{fill-rule:evenodd;}.a,.g,.h,.i{opacity:0.3;}.a,.g,.h,.i,.l{isolation:isolate;}.b{fill:#ececeb;}.d{fill:#dddddc;}.e{fill:#c4c4c4;}.f{fill:#cececd;}.g,.i{fill:none;stroke:#050505;stroke-miterlimit:10;}.g{stroke-width:5px;stroke-dasharray:14 15;}.h{fill:#050505;}.i{stroke-width:6px;}.j{fill:#a3a3a3;}.k{fill:#8f8f8f;}.l{opacity:0.2;}.m{fill:#b3889d;}.n{fill:#734d60;}.ab,.o{fill:#2b2b2b;}.o{opacity:0.2;}.p{fill:#543042;}.q{fill:#96637c;}.r,.t{fill:#594165;}.s{fill:#785d88;}.u{fill:#9075a0;}.v{opacity:0.1;}.w{fill:#dfbda5;}.x{fill:#c3987b;}.y{fill:#8b6651;}.z{fill:#e8cab6;}.aa{fill:#a688ba;}</style></defs><title>intj-architect-personality-header</title><path class="a" d="M-26-20H1194.7V378H-26Z"/><path class="b" d="M127.4-10.1,121.9,93.1-7.4,106.2-2.6-9.4Z"/><path class="c" d="M121.9,93.1l9,132.1-139-4.8.7-114.2L121.9,93.1Z"/><path class="b" d="M130.9,225.2,124,325.7-6.1,309.2l-2-88.8,139,4.8Z"/><path class="b" d="M124,325.7l1.4,39.2-134.9.7,3.4-56.4Z"/><path class="d" d="M127.4-10.1,228.6-3.2V121.3L121.9,93.1Z"/><path class="b" d="M121.9,93.1l106.7,28.2,8.9,94.3-106.6,9.6Z"/><path class="d" d="M130.9,225.2l106.6-9.6-9.6,113.5L124,325.7l6.9-100.5Z"/><path class="e" d="M227.9,329.1l14.6,89.8H94.19L124,325.7Z"/><path class="b" d="M228.6-3.2,350.4-13.5l22.7,119L228.6,121.3V-3.2Z"/><path class="c" d="M228.6,121.3l144.5-15.8V234.2L237.5,215.6l-8.9-94.3Z"/><path class="b" d="M237.5,215.6l135.6,18.6L361.4,353.9,227.9,329.1l9.6-113.5Z"/><path class="f" d="M227.9,329.1l133.5,24.8,7.4,83-126.3-18-14.6-89.8Z"/><path class="d" d="M350.4-13.5l150,6.2-3.5,92.2L373.1,105.5l-22.7-119Z"/><path class="c" d="M496.9,84.9l25.7,107.7L373.1,234.2V105.5L496.9,84.9Z"/><path class="d" d="M522.6,192.6,535.7,322,361.4,353.9l11.7-119.7,149.5-41.6Z"/><path class="e" d="M361.4,353.9,535.7,322l1.6,100.3L368.8,437Z"/><path class="c" d="M500.4-7.3l92.9-3.5-9,68.2L496.9,84.9Z"/><path class="b" d="M584.3,57.4l54.4,120.7L522.6,193.6,496.9,84.9l87.4-27.5Z"/><path class="f" d="M638.7,177.1l8.2,138.3L535.7,322,522.6,192.6l116.1-14.5Z"/><path class="c" d="M646.9,315.4,623.3,422.1l-86.1.1-1.6-100.3,111.3-6.5Z"/><path class="b" d="M593.3-10.8H710.9l18.6,80.5L584.3,57.4l9-68.2Z"/><path class="c" d="M584.3,57.4,729.5,69.7l-4.1,111.5-86.7-4.1Z"/><path class="d" d="M725.4,181.2l44.7,116.3L646.9,315.4l-8.2-138.3Z"/><path class="e" d="M770.1,297.5,747.3,422.1h-124l23.6-106.7,123.2-17.9Z"/><path class="c" d="M710.9-10.8l132.8-1.3-4.8,80.5L729.5,69.7Z"/><path class="d" d="M838.9,68.4v92.9L725.4,181.2l4.1-111.5Z"/><path class="c" d="M838.9,161.3l40.6,163L770.1,297.5,725.4,181.2l113.5-19.9Z"/><path class="b" d="M879.5,324.3l-35.8,97.8H747.3l22.8-124.6,109.4,26.8Z"/><path class="d" d="M843.7-12.1l134.9-2.1L964.8,86.3,838.9,68.4l4.8-80.5Z"/><path class="b" d="M838.9,68.4,964.8,86.3l-6.8,108-119.1-33V68.4Z"/><path class="d" d="M838.9,161.3l119.1,33,11.7,114.2-90.2,15.8-40.6-163Z"/><path class="e" d="M879.5,324.3l90.2-15.8,29.8,110.4-155.8,3.2Z"/><path class="c" d="M978.6-14.2,1083.2-8l-12.4,87.4-106,6.9L978.6-14.2Z"/><path class="d" d="M1070.8,79.4l2.8,98.4L958,194.3l6.8-108Z"/><path class="b" d="M1073.6,177.8l-13.1,141.7-90.8-11L958,194.3Z"/><path class="d" d="M1060.5,319.5l9.6,42-70.6,57.4L969.7,308.5ZM1083.2-8l96.3-3.5-.7,99.1-108-8.2Z"/><path class="b" d="M1070.8,79.4l108,8.2,1.4,102.6-106.6-12.4Z"/><path class="d" d="M1073.6,177.8l106.6,12.4L1174,303.7l-113.5,15.8Z"/><path class="e" d="M1060.5,319.5,1174,303.7l9,59.2-112.9-1.4-9.6-42Z"/><path class="g" d="M770.7,34.8s-8.9,18.7-12.3,34.5-21.4,28.1-44.8,34-37.5,9.4-37.5,9.4A252.09,252.09,0,0,0,654,133.6c-10.2,11.1-15.8,32.4-15.8,32.4l1.3,26M-2.2,39.9s32.4-3.4,66.8,5.5S117.4,102,117.4,102l20.9,14.9s21.3,16.6,29.8,23.8,10.5,9.4,10.5,9.4m461.6,66.1a205.39,205.39,0,0,0,1.3,21.7,116.74,116.74,0,0,1,.9,18.3s-3,29.4-9.8,44.3-12.3,30.7-10.2,44.3a95.94,95.94,0,0,0,6.4,23s-2.6,22.1-6.4,33.6-5.5,17.5-5.5,17.5M213.8,159.3l18.7,4.3s21.3,3,34.1,11.9,36.2,10.6,52.8,6S372.6,144,372.6,144s29.8-11.9,49.8-21.3A435.43,435.43,0,0,1,479,101.4,90.69,90.69,0,0,1,501.2,98s18.3-4.3,31.9-10.6,20-21.7,20-21.7L558.6,41M523.8-22.9s8.1,15.8,18.7,27.2,15.8,16.2,15.8,16.2m18.7,0L590.2,12s19.2-8.5,34.9-8.1,29.8,8.9,49,15.8,29.4,8.1,34.9,8.9,10.6,1.3,10.6,1.3l34.5-6.4m35.3.4s14.5,3.8,27.2,8.1a219.38,219.38,0,0,0,23,6.4A189.08,189.08,0,0,0,855.8,55c9.4,8.5,23,19.2,23,19.2s4.3,17.5,16.6,23,24.7,15.8,31.9,27.2,9.8,18.7,9.8,18.7m25.2,9a60.32,60.32,0,0,0,28.6-21.3c12.3-16.6,36.2-27.2,53.6-23.4s22.6,10.2,22.6,10.2,29-5.1,49.4-7.2,66,2.1,66,2.1M941.8,175.1l-2.1,12.8s-11.5,21.3-16.6,39.6-4.7,41.7-1.3,55.3,11.9,31.9,11.9,31.9,1.7,18.7,1.7,35.3a222.35,222.35,0,0,1-1.3,26.4"/><path class="h" d="M540.5,166l13.8-26.9-26.9-13.8,4.9,15.2-15.7,5.1,3.4,10.3,15.6-5.1Zm10,54.7L566.3,196l-25.7-16.9,3.7,15.6-16.1,3.8,2.5,10.5,16.1-3.8,3.7,15.5Zm4.7,55.8,19.2-22.3L551.1,234l1.5,15.9-16.4,1.6,1,10.7,16.4-1.5Zm128.8-12-19.9-18.3-19.5,18.7,14.7-.2-.4,50.1-14.7,59.8h9.9l14.8-59.4.4-50.6,14.7-.1Zm58.3-5.8-22-15.7-17.1,20.9,14.6-2,4.8,50.3L710.5,371l10.1.3,11.7-61-4.6-49.7,14.6-1.9Zm49-7.4L766,235.7l-14.3,21.6,14.6-2.3,15.1,48.3-11.8,67,10,.4L791.3,302l-15.6-48.7,15.6-2Zm61.6,4.5L826.3,237,812,250.4l15.3,2.1L846,304l-13.7,69.2,10,.4L856,306l-18.9-52.4,15.8,2.2Zm52.6,7.8-25.1-18.7-16.8,13,16.1,2.1L894,315.7l-14.7,59.9,10,.4L904,317.7l-14.2-56.3,15.7,2.2Z"/><circle class="i" cx="561.7" cy="30.7" r="7.7"/><path class="i" d="M936.2,81.4a7.7,7.7,0,1,1-7.7-7.7A7.7,7.7,0,0,1,936.2,81.4Zm173.2,132.8a7.7,7.7,0,1,1-7.7-7.7A7.7,7.7,0,0,1,1109.4,214.2Z"/><circle class="i" cx="640.1" cy="197.8" r="7.7"/><path class="j" d="M308,53.2l7-5s4.2,5,8.4,11.3a65.34,65.34,0,0,1,6.5,12.8l-5.3,3.2S315.7,60.2,308,53.2Z"/><path class="k" d="M310.1,69.8a36.48,36.48,0,0,1,8-10.9,87.88,87.88,0,0,1,13-9.2l3.9,6.6s-11.8,5.7-15.5,9.8a75.73,75.73,0,0,0-6.1,7.9Z"/><path class="j" d="M542,293.2l7-5s4.2,5,8.4,11.3a65.34,65.34,0,0,1,6.5,12.8l-5.3,3.2s-8.9-15.3-16.6-22.3Z"/><path class="k" d="M544.1,309.8a36.48,36.48,0,0,1,8-10.9,87.88,87.88,0,0,1,13-9.2l3.9,6.6s-11.8,5.7-15.5,9.8a75.73,75.73,0,0,0-6.1,7.9l-3.3-4.2Z"/><path class="j" d="M1107,255.2l7-5s4.2,5,8.4,11.3a65.34,65.34,0,0,1,6.5,12.8l-5.3,3.2S1114.7,262.2,1107,255.2Z"/><path class="k" d="M1109.1,271.8a36.48,36.48,0,0,1,8-10.9,87.88,87.88,0,0,1,13-9.2l3.9,6.6s-11.8,5.7-15.5,9.8a75.73,75.73,0,0,0-6.1,7.9l-3.3-4.2Z"/><path class="j" d="M1020,30.2l7-5s4.2,5,8.4,11.3a65.34,65.34,0,0,1,6.5,12.8l-5.3,3.2S1027.7,37.2,1020,30.2Z"/><path class="k" d="M1022.1,46.8a36.48,36.48,0,0,1,8-10.9,87.88,87.88,0,0,1,13-9.2l3.9,6.6s-11.8,5.7-15.5,9.8a75.73,75.73,0,0,0-6.1,7.9l-3.3-4.2Z"/><path class="l" d="M529,33.3l-.1,9.5,3.2,16.3-6-7.9L527.4,32Z"/><path class="m" d="M506.5,33.4l8.7,13.8,5.3-14.5Z"/><path class="n" d="M506.5,30.7l22.5-.1v2.8l-22.5.1Z"/><path class="l" d="M473,18.3l-.1,9.5,3.2,16.3-6-7.9L471.4,17Z"/><path class="m" d="M450.5,18.4l8.7,13.8,5.3-14.5Z"/><path class="n" d="M450.5,15.7l22.5-.1v2.8l-22.5.1Z"/><path class="l" d="M433,33.3l-.1,9.5,3.2,16.3-6-7.9L431.4,32Z"/><path class="m" d="M410.5,33.4l8.7,13.8,5.3-14.5Z"/><path class="n" d="M410.5,30.7l22.5-.1v2.8l-22.5.1Z"/><path class="l" d="M465,55.3l-.1,9.5,3.2,16.3-6-7.9L463.4,54Z"/><path class="m" d="M442.5,55.4l8.7,13.8,5.3-14.5Z"/><path class="n" d="M442.5,52.7l22.5-.1v2.8l-22.5.1Z"/><path class="l" d="M331,202.3l-.1,9.5,3.2,16.3-6-7.9,1.3-19.2,1.6,1.3Z"/><path class="m" d="M308.5,202.4l8.7,13.8,5.3-14.5Z"/><path class="n" d="M308.5,199.7l22.5-.1v2.8l-22.5.1Z"/><path class="l" d="M275,241.3l-.1,9.5,3.2,16.3-6-7.9,1.3-19.2,1.6,1.3Z"/><path class="m" d="M252.5,241.4l8.7,13.8,5.3-14.5Z"/><path class="n" d="M252.5,238.7l22.5-.1v2.8l-22.5.1Z"/><path class="l" d="M323,247.3l-.1,9.5,3.2,16.3-6-7.9,1.3-19.2,1.6,1.3Z"/><path class="m" d="M300.5,247.4l8.7,13.8,5.3-14.5-14,.7Z"/><path class="n" d="M300.5,244.7l22.5-.1v2.8l-22.5.1Z"/><path class="l" d="M303,269.3l-.1,9.5,3.2,16.3-6-7.9,1.3-19.2,1.6,1.3Z"/><path class="m" d="M280.5,269.4l8.7,13.8,5.3-14.5Z"/><path class="n" d="M280.5,266.7l22.5-.1v2.8l-22.5.1Z"/><path class="l" d="M265,277.3l-.1,9.5,3.2,16.3-6-7.9,1.3-19.2,1.6,1.3Z"/><path class="m" d="M242.5,277.4l8.7,13.8,5.3-14.5Z"/><path class="n" d="M242.5,274.7l22.5-.1v2.8l-22.5.1Z"/><path class="l" d="M298,298.3l-.1,9.5,3.2,16.3-6-7.9,1.3-19.2,1.6,1.3Z"/><path class="m" d="M275.5,298.4l8.7,13.8,5.3-14.5Z"/><path class="n" d="M275.5,295.7l22.5-.1v2.8l-22.5.1Z"/><path class="l" d="M336,289.3l-.1,9.5,3.2,16.3-6-7.9,1.3-19.2,1.6,1.3Z"/><path class="m" d="M313.5,289.4l8.7,13.8,5.3-14.5Z"/><path class="n" d="M313.5,286.7l22.5-.1v2.8l-22.5.1Z"/><path class="l" d="M343,319.3l-.1,9.5,3.2,16.3-6-7.9,1.3-19.2,1.6,1.3Z"/><path class="m" d="M320.5,319.4l8.7,13.8,5.3-14.5Z"/><path class="n" d="M320.5,316.7l22.5-.1v2.8l-22.5.1Z"/><path class="l" d="M924,100.5l-.1,9.5,3.2,16.3-6-7.9,1.3-19.2Z"/><path class="m" d="M901.5,100.6l8.7,13.8,5.3-14.5Z"/><path class="n" d="M901.5,97.8l22.5-.1v2.8l-22.5.1Z"/><path class="l" d="M899,24.3l-.1,9.5,3.2,16.3-6-7.9L897.4,23Z"/><path class="m" d="M876.5,24.4l8.7,13.8,5.3-14.5Z"/><path class="n" d="M876.5,21.7l22.5-.1v2.8l-22.5.1Z"/><path class="l" d="M945,15.3l-.1,9.5,3.2,16.3-6-7.9L943.4,14Z"/><path class="m" d="M922.5,15.4l8.7,13.8,5.3-14.5Z"/><path class="n" d="M922.5,12.7l22.5-.1v2.8l-22.5.1Z"/><path class="l" d="M931,43.3l-.1,9.5,3.2,16.3-6-7.9L929.4,42Z"/><path class="m" d="M908.5,43.4l8.7,13.8,5.3-14.5Z"/><path class="n" d="M908.5,40.7l22.5-.1v2.8l-22.5.1Z"/><path class="l" d="M1008,217.3l-.1,9.5,3.2,16.3-6-7.9,1.3-19.2,1.6,1.3Z"/><path class="m" d="M985.5,217.4l8.7,13.8,5.3-14.5Z"/><path class="n" d="M985.5,214.7l22.5-.1v2.8l-22.5.1Z"/><path class="l" d="M1052,202.3l-.1,9.5,3.2,16.3-6-7.9,1.3-19.2,1.6,1.3Z"/><path class="m" d="M1029.5,202.4l8.7,13.8,5.3-14.5Z"/><path class="n" d="M1029.5,199.7l22.5-.1v2.8l-22.5.1Z"/><path class="l" d="M1043,231.3l-.1,9.5,3.2,16.3-6-7.9,1.3-19.2,1.6,1.3Z"/><path class="m" d="M1020.5,231.4l8.7,13.8,5.3-14.5Z"/><path class="n" d="M1020.5,228.7l22.5-.1v2.8l-22.5.1Z"/><path class="l" d="M1021,253.3l-.1,9.5,3.2,16.3-6-7.9,1.3-19.2,1.6,1.3Z"/><path class="m" d="M998.5,253.4l8.7,13.8,5.3-14.5-14,.7Z"/><path class="n" d="M998.5,250.7l22.5-.1v2.8l-22.5.1Z"/><path class="l" d="M995,268.3l-.1,9.5,3.2,16.3-6-7.9,1.3-19.2,1.6,1.3Z"/><path class="m" d="M972.5,268.4l8.7,13.8,5.3-14.5Z"/><path class="n" d="M972.5,265.7l22.5-.1v2.8l-22.5.1Z"/><path class="l" d="M1046,286.3l-.1,9.5,3.2,16.3-6-7.9,1.3-19.2,1.6,1.3Z"/><path class="m" d="M1023.5,286.4l8.7,13.8,5.3-14.5Z"/><path class="n" d="M1023.5,283.7l22.5-.1v2.8l-22.5.1Z"/><path class="l" d="M794.4,82.4l-.1,9.5,3.2,16.3-6-7.9,1.3-19.2Z"/><path class="m" d="M771.9,82.5l8.7,13.8,5.3-14.5Z"/><path class="n" d="M771.9,79.7l22.5-.1v2.8l-22.5.1Z"/><path class="l" d="M649.1,29.8l-.1,9.5,3.2,16.3-6-7.9,1.3-19.2Z"/><path class="m" d="M626.6,29.9l8.7,13.8,5.3-14.5Z"/><path class="n" d="M626.6,27.2l22.5-.1v2.8l-22.5.1Z"/><path class="l" d="M692.1,45.8l-.1,9.5,3.2,16.3-6-7.9,1.3-19.2Z"/><path class="m" d="M669.6,45.9l8.7,13.8,5.3-14.5Z"/><path class="n" d="M669.6,43.2l22.5-.1v2.8l-22.5.1Z"/><path class="l" d="M664.1,70.8l-.1,9.5,3.2,16.3-6-7.9,1.3-19.2Z"/><path class="m" d="M641.6,70.9l8.7,13.8,5.3-14.5Z"/><path class="n" d="M641.6,68.2l22.5-.1v2.8l-22.5.1Z"/><path class="l" d="M710.9,161l-.1,9.5,3.2,16.3-6-7.9,1.3-19.2,1.6,1.3Z"/><path class="m" d="M688.4,161.1l8.7,13.8,5.3-14.5Z"/><path class="n" d="M688.4,158.4l22.5-.1v2.8l-22.5.1Z"/><path class="l" d="M640.1,104.8l-.1,9.5,3.2,16.3-6-7.9,1.3-19.2Z"/><path class="m" d="M617.6,104.9l8.7,13.8,5.3-14.5Z"/><path class="n" d="M617.6,102.2l22.5-.1v2.8l-22.5.1Z"/><path class="l" d="M686.9,193l-.1,9.5,3.2,16.3-6-7.9,1.3-19.2,1.6,1.3Z"/><path class="m" d="M664.4,193.1l8.7,13.8,5.3-14.5Z"/><path class="n" d="M664.4,190.4l22.5-.1v2.8l-22.5.1Z"/><path class="l" d="M870.3,146.7l-.1,9.5,3.2,16.3-6-7.9,1.3-19.2,1.6,1.3Z"/><path class="m" d="M847.8,146.8l8.7,13.8,5.3-14.5Z"/><path class="n" d="M847.7,144.1l22.5-.1v2.8l-22.5.1Z"/><path class="l" d="M918.3,158.7l-.1,9.5,3.2,16.3-6-7.9,1.3-19.2,1.6,1.3Z"/><path class="m" d="M895.8,158.8l8.7,13.8,5.3-14.5Z"/><path class="n" d="M895.7,156.1l22.5-.1v2.8l-22.5.1Z"/><path class="l" d="M821.2,57.6l-.1,9.5,3.2,16.3-6-7.9,1.3-19.2Z"/><path class="m" d="M798.7,57.7l8.7,13.8L812.7,57Z"/><path class="n" d="M798.7,55l22.5-.1v2.8l-22.5.1Z"/><path class="l" d="M822.2,117.6l-.1,9.5,3.2,16.3-6-7.9,1.3-19.2Z"/><path class="m" d="M799.7,117.7l8.7,13.8,5.3-14.5Z"/><path class="n" d="M799.7,115l22.5-.1v2.8l-22.5.1Z"/><path class="l" d="M888.3,193.7l-.1,9.5,3.2,16.3-6-7.9,1.3-19.2,1.6,1.3Z"/><path class="m" d="M865.8,193.8l8.7,13.8,5.3-14.5Z"/><path class="n" d="M865.7,191.1l22.5-.1v2.8l-22.5.1Z"/><path class="l" d="M779.8,120.2l-.1,9.5,3.2,16.3-6-7.9,1.3-19.2,1.6,1.3Z"/><path class="m" d="M757.3,120.3l8.7,13.8,5.3-14.5Z"/><path class="n" d="M757.3,117.6l22.5-.1v2.8l-22.5.1Z"/><path class="l" d="M1047,159.3l-.1,9.5,3.2,16.3-6-7.9,1.3-19.2,1.6,1.3Z"/><path class="m" d="M1024.5,159.4l8.7,13.8,5.3-14.5Z"/><path class="n" d="M1024.5,156.7l22.5-.1v2.8l-22.5.1Z"/><path class="l" d="M1085,182.3l-.1,9.5,3.2,16.3-6-7.9,1.3-19.2,1.6,1.3Z"/><path class="m" d="M1062.5,182.4l8.7,13.8,5.3-14.5Z"/><path class="n" d="M1062.5,179.7l22.5-.1v2.8l-22.5.1Z"/><path class="l" d="M1108,150.3l-.1,9.5,3.2,16.3-6-7.9,1.3-19.2,1.6,1.3Z"/><path class="m" d="M1085.5,150.4l8.7,13.8,5.3-14.5Z"/><path class="n" d="M1085.5,147.7l22.5-.1v2.8l-22.5.1Z"/><path class="j" d="M784,198.2l7-5s4.2,5,8.4,11.3a65.34,65.34,0,0,1,6.5,12.8l-5.3,3.2s-8.9-15.3-16.6-22.3Z"/><path class="k" d="M786.1,214.8a36.48,36.48,0,0,1,8-10.9,87.88,87.88,0,0,1,13-9.2l3.9,6.6s-11.8,5.7-15.5,9.8a75.73,75.73,0,0,0-6.1,7.9l-3.3-4.2Z"/><circle class="i" cx="192.5" cy="154.5" r="7.7"/><circle class="i" cx="771.9" cy="20.5" r="7.7"/><polygon class="o" points="448.65 199.88 448.65 199.88 465.25 150.97 484.19 117.99 435.1 95.44 405.57 81.88 388.56 94.63 356.72 107.47 361.45 141.71 364.16 161.29 355.38 178.12 377.48 176.12 377.48 176.12 375.21 195.21 344.92 203.38 330.32 239.4 354.31 268.59 353.83 278.63 362.14 317.27 366.91 339.45 364.63 351.46 364.63 356.22 393.27 356.68 397.72 351.46 426.81 351.46 426.81 346.69 408.57 333.89 419.52 314.24 437.02 282.84 436.17 268.12 465.54 257.38 456.81 229.64 466.06 212.81 448.65 199.88"/><polygon class="n" points="383.23 254.91 391.09 200.51 373.56 190.29 358.95 229.52 383.23 254.91"/><polygon class="p" points="358.95 229.52 385.46 228.71 388.09 244.49 382.95 261.29 358.95 229.52"/><polygon class="n" points="471.42 199.4 482.04 234.01 479.88 247.62 464.81 260.77 452.96 222.6 456.56 189.08 471.42 199.4"/><polygon class="q" points="471.86 217.5 464.81 260.77 494.18 249.09 485.45 218.88 479.75 214.9 471.86 217.5"/><polygon class="q" points="428.22 207.17 443.03 185.8 460.23 191.29 464.81 260.77 422.41 265.6 382.95 261.29 387.77 201.63 396.86 194.43 401.25 182.27 428.22 207.17"/><polygon class="r" points="444.67 199.37 471.86 200.8 469.28 192.07 444.39 188.78 444.67 199.37"/><polygon class="n" points="465.66 276.8 422.42 293.8 422.42 318.35 433.09 323.61 448.16 310.98 465.66 276.8"/><polygon class="p" points="448.16 310.98 422.42 318.35 419.36 336.23 428.85 336.23 437.2 332.37 448.16 310.98"/><polygon class="q" points="422.42 318.35 425.91 297.99 411.5 285.09 382.47 272.22 390.77 314.28 407.39 324.89 422.42 318.35"/><polygon class="p" points="465.66 276.8 425.91 297.99 382.47 272.22 428.85 272.19 465.66 276.8"/><polygon class="n" points="390.77 314.28 422.42 318.35 419.36 336.23 407.39 339.34 395.54 338.43 390.77 314.28"/><polygon class="s" points="418.65 346.31 433.76 347.67 455.44 346.31 437.2 332.37 419.36 336.23 418.65 346.31"/><rect class="t" x="418.65" y="346.31" width="36.79" height="5.18"/><polygon class="u" points="419.36 336.23 426.36 351.5 409.81 353.08 393.27 351.5 395.54 338.43 419.36 336.23"/><rect class="t" x="393.27" y="351.49" width="33.08" height="5.18"/><polygon class="n" points="445.31 238.38 449.97 260.87 402.75 261.16 406.89 244.49 416.19 218.35 428.22 207.17 438.64 218.35 445.31 238.38"/><polygon class="r" points="412.98 193.11 380.69 204.03 373.56 190.29 403.85 181.41 412.98 193.11"/><polygon class="m" points="403.85 181.41 406.89 244.49 428.22 207.17 403.85 181.41"/><polygon class="m" points="428.22 207.17 445.31 238.38 444.39 188.78 428.22 207.17"/><polygon class="m" points="430.04 225.65 433.09 231.25 427.5 235.07 423.43 229.21 430.04 225.65"/><polygon class="m" points="429.79 242.95 424.19 246.51 428.51 252.11 433.35 248.55 429.79 242.95"/><polygon class="r" points="382.95 261.29 417.23 261.07 428.77 263.96 440.46 260.93 464.81 260.77 465.66 276.8 439.67 275.37 430.98 273.65 417.31 274.13 382.47 272.22 382.95 261.29"/><path class="m" d="M440.46,260.93l-23.23.14.08,13.06,22.36,1.23.79-14.43Zm-5.84,9.76H422.15l.26-5.09,12.46-.51Z"/><polygon class="v" points="428.22 207.17 461.13 191.56 444.39 188.78 428.22 207.17"/><polygon class="r" points="392.8 144.48 401.17 142.22 414.73 152.51 406.12 160.62 384.02 162.8 392.8 144.48"/><polygon class="w" points="498.07 113.34 493.89 133.25 474.88 194.21 444.39 188.78 428.22 207.17 409.66 176.73 417.69 143.72 423.07 141.45 426.17 125.83 425.04 102.31 451.44 88.96 476.43 103.42 481.63 89.94 498.07 113.34"/><polygon class="x" points="425.99 102.69 441.2 131.71 437.67 190.05 428.22 207.17 403.85 181.41 406.12 160.62 408.15 156.15 408.13 151.69 399.38 150.51 399.51 130.03 412.76 129.98 417.69 141.8 421.93 142.22 425.4 126.02 425.99 102.69"/><polygon class="x" points="485.83 139.75 441.2 131.71 456.1 142.83 459.09 164.54 485.83 139.75"/><polygon class="y" points="438.64 174.06 460.54 181.41 476.24 179.73 461.5 172.04 438.64 174.06"/><polygon class="s" points="438.64 174.06 459.09 164.54 468.15 166.26 476.24 179.73 438.64 174.06"/><polygon class="z" points="465.66 136.12 459.09 164.54 468.15 166.26 472.81 137.4 465.66 136.12"/><polygon class="s" points="441.2 131.71 485.83 139.75 487.25 133.97 444.19 128.77 441.2 131.71"/><polygon class="r" points="468.16 166.21 462.79 168.95 459.09 164.54 468.16 166.21"/><polygon class="y" points="403.1 134.37 409.78 134.56 411.41 147.75 403.1 134.37"/><polygon class="y" points="444.39 188.78 422.92 184.93 428.22 207.17 444.39 188.78"/><polygon class="y" points="408.13 151.69 413.89 152.51 406.12 160.62 408.13 151.69"/><polygon class="aa" points="496.55 113.15 501.77 104.65 512.83 97.34 493.89 133.25 496.55 113.15"/><polygon class="u" points="425.99 102.69 410.54 93.63 385.35 85.89 390.09 123.16 411.55 126.28 429.23 126.02 425.99 102.69"/><polygon class="s" points="496.55 113.15 481.72 94.91 472.83 86.55 463.73 72.8 512.83 97.34 496.55 113.15"/><polygon class="s" points="425.99 102.69 452.96 92.98 437.44 79.8 417.2 71.92 385.35 85.89 425.99 102.69"/><polygon class="u" points="463.73 72.8 434.2 58.03 417.2 71.92 452.96 92.98 478.34 107.62 481.72 94.91 463.73 72.8"/><polygon class="s" points="429.23 126.02 390.09 123.16 392.8 144.48 399.38 150.51 400.38 130.9 412.76 131.71 415.95 144.86 423.46 143.75 429.23 126.02"/><circle class="ab" cx="479.75" cy="146.56" r="3.5"/><circle class="ab" cx="456.1" cy="142.83" r="3.5"/><polygon class="y" points="466.64 211.75 471.86 217.5 476.85 218.17 482.04 201.72 466.72 204.03 466.64 211.75"/><polygon class="x" points="494.69 200.57 485.45 218.88 471.86 217.5 482.04 201.72 485.45 197.97 494.69 200.57"/><polygon class="z" points="464.81 192.41 477.29 186.49 494.69 200.57 482.04 201.72 471.42 199.4 464.81 192.41"/><polygon class="w" points="482.04 201.72 471.86 207.35 460.82 200.22 464.81 192.41 482.04 201.72"/></svg>