<svg xmlns="http://www.w3.org/2000/svg" viewBox="0 0 900 350" width="900" height="350" style="width:100%;height:100%"><defs><clipPath id="a"><path d="M0 0h900v350H0z"/></clipPath></defs><g clip-path="url(#a)"><g display="block"><g opacity=".1"><path d="M169.34600258 329.32600784l103.9829998-11.33300018 63.24500275-24.44000053-49.0550003-26.15799904-73.51500226-1.33100128-148.00299549 32.18600052 103.3449955 31.07600051zM769.68797684 235.22299194l-35.9659983-5.49799919-7.472-4.41200065 6.41699998-4.97899962 21.64200051-3.04400003 4.10499955-2.62300002v-4.22600007l-21.08099985 1.56599998-36.2020011-5.04500008-5.7140007-6.27400016 43.33300161-4.68799973 27.87200022 12.69400024 3.06599808 26.52899933zM787.6570282 307.25600624l-52.94900227-3.8779993-22.20999813-15.23700047 51.00299835-5.42099953 24.15600205 24.5359993zM659.00002289 284.36399937l-24.74000025-1.6449995-12.56500006-7.3050001 13.6170001-8.16599963 23.6880002 17.11599923zM581.08902359 306.25000763l-40.2250011-5.69300032-18.3639996 1.83200026-28.39300156-13.35500002 19.39300156-8.64400053 38.4859991 5.94300032 29.1030016 19.91700029zM177.86399841 240.7499981l-18.33300018 1.7180004-22.9469986-.85900116-6.87900161-8.63699913L117.75 234.10599804l-29.3830008-6.72799969-12.36700015 8.61400032L31.75 231.30699825 25 224.65299821 0 212.19499874l59.40600014-7.9119997 94.22199821-3.21800041 24.23600006 39.68499946zM849.50000477 222.05000639h-18.24400044l-12.0220003-2.64499974 16.34900033-6.22899986 13.9170004 8.8739996z"/></g><path fill="#DDDDDC" d="M86.31100082 186.15999985l4.43799973-14.78999996-78.41600037 4.47100019 24.33199978 19.34499979 49.64600086-9.02600002z"/><path fill="#858686" d="M0 212.19399548l32.5010004 8.98099994 5.5670004-17.85999965-1.40100098-11.1290002-24.33299923-16.34499978L0 212.19399548z"/><path fill="#A3A3A3" d="M86.31099892 186.1609993l-4.30800057 34.41500091-49.5039997.59999848 4.16600036-28.98999977 49.6459999-6.02499962z"/><path fill="#DDDDDC" d="M673.99999237 160.65199769l46.33300173 7.55000007 48.35500181-6.14400006-5.33800125-11.6949997-85.68299866 3.40799952-3.66700363 6.88100017z"/><path fill="#858686" d="M720.33299637 166.20200348l.09300041 13.78199959-8.4260006 25.71299934-46.33299827-5.59000015 8.33299828-39.45399857 46.33300018 5.54899979z"/><path fill="#A3A3A3" d="M711.99999428 205.6969986l8.33300018-.56099892 48.35499954-29.0970006v-13.98100042l-48.35499954 4.144001-8.33300018 39.49499894z"/><path fill="#DDDDDC" d="M766.00000763 116.24999666l18.66600013-.68499994 21.00000024 3.18499994-26 5.69700003-13.66600037-8.19700003z"/><path fill="#858686" d="M765.99998832 116.24999237l-10.99999976 90.7120018 27.33300018 7.70499802.04299927-67.69599915-2.70899964-24.52500152-13.66700005-6.19599915z"/><path fill="#A3A3A3" d="M779.666008 122.44599152l26-3.69599915 8.33300018 91.6910019-31.66700077 4.22499847-2.66599941-92.22000122z"/><path fill="#DDDDDC" d="M809.12301636 156.77899551l54.37599945 12.53100038-52.84600067 6.3150003-13.8199997-12.92000032 12.29000092-5.92600036z"/><path fill="#858686" d="M796.83301973 162.70499802l-3.32500028 50.47099876 12.15900016 7.15800095 5.3639996-31.51100064-.37699985-15.197999-13.82099963-10.92000007z"/><path fill="#A3A3A3" d="M810.65498352 173.62500572l-4.98799896 46.70899964 59.83399963-4.09499932-2-46.9279995-52.84600067 4.31399918z"/><path fill="#DDDDDC" d="M864.54699993 193.87700653l-.37199998-8.74300003L890 200.10600638l-40.5 11.34799982-16-9.49199987 31.04699993-8.0849998z"/><path fill="#858686" d="M833.49999094 201.96199703l-2.24399996 16.61999989 18.24399948 3.46799946 2-6.55099965-2-6.04400014-15.99999952-7.49299956z"/><path fill="#A3A3A3" d="M849.5 209.45400298v12.59499967l50.5-5.23199988-10-16.70999956-40.5 9.34699977z"/><path fill="#DDDDDC" d="M728.833992 176.03799772l30.1420002-1.85800028 7.02400017 12.4920001-28.66600037.46200038-8.5-11.0960002z"/><path fill="#A3A3A3" d="M766.00000954 186.67200756l2.68700027 24.31199932-31.3550005 1.02200031-1.99999904-12.81999987 1.99999905-14.05199987 28.66800022 1.53800011z"/><path fill="#858686" d="M728.83300781 176.03800392l-8.5 29.09699917 17 6.87099934v-26.8719988l-8.5-9.0959997z"/><path fill="#DDDDDC" d="M757.50000381 203.376997l24.33100081-6.07700062 37.40300035 22.1050005-42.7340002 2-19.00000096-18.02799989z"/><path fill="#858686" d="M757.49998093 203.37700272l-5.48900032 23.93700027 17.67700052 7.9090004 7.78700018-9.24000025-.97500038-6.5780001-19-16.02800032z"/><path fill="#A3A3A3" d="M819.2349701 219.40499544l3.76600074 12.6409998-53.31200027 3.17700004 6.81200027-15.81799984h42.73399925z"/><path fill="#DDDDDC" d="M305.99999619 149.03599787l-81.79299927-2.67600012 22.80599975 19.34399986 62.84700013-6.61599994-3.86000061-10.0519998z"/><path fill="#858686" d="M247.01299953 162.70400238l1.59700013 18.62499929-5.11000014 41.02600169-19.49799966-4.30800247.20499992-71.68600083 22.80599975 16.34300232z"/><path fill="#A3A3A3" d="M247.01299286 162.70499992l62.84700012-3.61700058-3.8600006 53.28900147-62.5 9.97900009 3.51300048-59.65100098z"/><path fill="#DDDDDC" d="M171.33400726 166.20100307l52.8730011-.94099998 10.29299927 9.73900032-50.52600098 13.67300034-12.63999939-22.47100068z"/><path fill="#858686" d="M171.33399773 166.2020073l-3 23.45899915 17.14699983 15.47499895 2.25000048-9.197999-3.75600052-9.2650001-12.6409998-20.470999z"/><path fill="#A3A3A3" d="M234.50099945 175.0000019l-10.49899864 43.0470009-51.36499977 1.00099944 5.39499855-33.9140005 56.46899986-10.13399983z"/><path fill="#DDDDDC" d="M88.36699677 159.14000463l51.41500186-11.42900037 47.27300168 19.19300031-55.05500174 15.06200076-43.6330018-22.8260007z"/><path fill="#858686" d="M88.36700249 159.14100266l-5.06900025 42.82299995 33.20200062 26.46899986 18.08000088-40.44799995-2.57999993-17.02199936-43.63300132-11.8220005z"/><path fill="#A3A3A3" d="M131.99999237 170.9619999l55.05400086-4.05900002-15.41800118 57.1479988-55.13599968 4.38199998 15.5-57.47099877z"/><path fill="#DDDDDC" d="M64.5 206.39100742l18.79700089-4.42800045 27.34000015 6.3220005-36.3050003 14.8909998L64.5 206.39100742z"/><path fill="#858686" d="M64.49999976 206.39200115L48.75 230.71700096 76 235.99300098l1.33399963-13.99599963-3.00099945-4.82300013-9.83300042-10.78200007z"/><path fill="#A3A3A3" d="M110.63700008 208.28500748L117.75 234.10700798 76 235.99300766l-1.66600037-18.81900024 36.30300045-8.88899994z"/><path fill="#DDDDDC" d="M325.01400185 127.25l-15.0150001 5-21.29799963-12.09299994L325.01400185 119.25v8z"/><path fill="#A3A3A3" d="M309.9999957 129.24999619l.83899976 19.7859993 6.93800014 12.76500034 7.23799997 9.02099895v-43.5719986l-15.01499986 2z"/><path fill="#858686" d="M288.70299053 120.1570034l4.74499989 50.72600174 24.32999992-9.08100128-7.77799988-32.55200005-21.29699993-9.0930004z"/><path fill="#A3A3A3" d="M296.78399849 173.96500206l-3.3369999 57.34300041 51.0529995-3.875-10.74199867-41.30400085-8.74400043-11.94799996-28.2300005-.2159996z"/><path fill="#858686" d="M274.55501366 170.82300186l2.125 56.61000061 16.76699972 3.875 6.33799982-54.3409996-5.22199965-5.2480011-20.0079999-.8959999z"/><path fill="#DDDDDC" d="M325.01400375 160.29100609l-50.45899963 10.53199982 25.22999954 6.14300037 25.2290001-2.78500033V160.2910061zM144.47799683 205.1359942l34.13600158-4.07099986 32.63700104 4.63199996-36.23900104 11.12099982-30.53400158-11.68199992z"/><path fill="#858686" d="M144.47699451 205.1349926l-5.90199947 28.11500072 39.28899956 7.49999905 2.63599968-13.24999905-5.48799992-15.59899997-30.53499985-6.76600075z"/><path fill="#A3A3A3" d="M211.24999714 205.69600677l7.99999905 29.30400086-41.38599968 5.75-2.85199929-28.84899998 36.23799992-6.20500088z"/><path fill="#DDDDDC" d="M698.33299255 213.17500114l34.33399964 7.158-11.33399964 28.9310007-101.66600036-2-1.5-17.83000063 80.16600036-16.25900007z"/><path fill="#A3A3A3" d="M732.66700792 220.33400726l4.6659999 41.48999977-13.6659999 4.1760006-3.3340001-8.60099983v-10.1340003l12.3340001-26.93100024z"/><path fill="#737373" d="M720.33298492 247.2640047l-101.30599975-7.58600044 19.2329979 19.1040001 85.40700149 7.217-3.33399964-18.73499965z"/><path fill="#DDDDDC" d="M678.56599218 173.37199402l16.76799982 1.62800026 12 11.6719997-30.97099971 6.82300018-20.08899975 1.12699986-6.27300072-14.28900004 28.56500036-6.96099996z"/><path fill="#A3A3A3" d="M707.333992 186.6720028l-6.33399963 42.76099967-53 10.24500084 8.27300072-45.05599975 51.06099891-7.95000077z"/><path fill="#DDDDDC" d="M648.9990158 107.8419981l32.33399964 6.99199975-14.65999985 3.55399978-12.06099987-.72099972-5.61299991-9.82499981z"/><path fill="#A3A3A3" d="M681.33302212 114.83400345l-3.33299923 65.48799896-8.50000048.72000122-14.88800001-63.375 26.72099972-2.83300018z"/><path fill="#DDDDDC" d="M697.6670227 252.91200161l9.29500199 11.67600012-45.9620018 7.66000032-26.74000168-15.46600008 19.4070015-3.42499971 44-.44500065z"/><path fill="#A3A3A3" d="M706.96199608 264.58801365l3.0380001 17.14799976-51 2.6279993-.95700073-7.35899948 2.95700074-6.75700021 45.96199989-5.65999937z"/><path fill="#737373" d="M659 284.36399841l-26-10.47900033 1.26000023-17.1030004L661 270.24799806l-2 14.11600035z"/><g><path fill="#A688BA" d="M435.32201004 35.00000042L439.00101089 15.25l43.48599986 27.50000048L525.25001145 15.25l4.75 21.41800034-48.12000073 19.15000045-46.55800068-20.81800037z"/><path fill="#785D88" d="M440.4999957 33.37599993l2.25-9.62599993 8.5159998 6.25-7.2479999 4.25-3.5179999-.87400007zM511.81398249 30.72500002L521.83298254 23.75l1.16699982 10.5h-8l-3.18599987-3.52499998z"/><path fill="#9075A0" d="M431.4719925 56.91699982l3.84899902-21.91700006 45.71000087-14.33299994 48.96899998 16 3.5 16-53.48699999 4.25H431.4719925z"/><path fill="#D1A1B8" d="M444.01799774 56.39400005l2.73199845-12.76899981L453.34599686 40.013l3.26100158-.82699966 12.28799916-3.112 6.85500002.55099965 5.2810002-3.625 13.07599967 3.07400036L499.99999809 40.5l7.1439991-1.35999966 11.10300064 2.6099999 1.49200058 11.48999953-37.25300061 3.6760006-38.46800006-.52200032z"/><path fill="#96637C" d="M507.14400196 39.13899946l1.35300016 14.56899977-13.09100008 1.54500008-1.29900026-19.1779995 13.03700018 3.06399965zM481.03199339 33l.84699964 22.8180008-13.87299966-.42199994.888-19.3220005L481.0319934 33zM456.60798836 39.18599987v17.68400002l-12.58900023-.47500039L445.50098848 42l11.10699988-2.81400013z"/><path fill="#9075A0" d="M450.00001144 217.289999l41.98600007 4.76000024 54.01399993-2.64500046 5.98600007-26.361V166.6839981l-60-1.42399979-65.48600007 6.20499993 4.32799912 22.28500053 19.17200088 23.54000023z"/><path fill="#785D88" d="M641.66699219 249.00000381l-8.66699982 24.88500023-38.33300018 5.18499947 39-35.29399872 8 5.22399902z"/><path fill="#785D88" d="M657.33302307 214.66700172l-3.33299827 38.33299923-57.05800057 19.88499928 60.39099884-58.2179985z"/><path fill="#A688BA" d="M431.47201157 56.91600037l102.02799987-4.25 16 59.25200152 2.48599625 54.76500058-125.48599625 4.78300095-6.99999618-63.90300131 11.9719963-50.64700174z"/><path fill="#9075A0" d="M358.98599243 30l72.48600006 26.91699982-4.97200012 114.54800033-41.48599994 13.1400032-42.51400006 5.836998 3-82.87800074L358.98599243 30z"/><path fill="#785D88" d="M533.5 52.66600037l84-19.66699982 23 75.50400078 12 76.6320008-53.25-1.33900451-47.26399994-17.1119957L533.5 52.66600037z"/><path fill="#A688BA" d="M617.5 33L650 57.33300018l19.5 123.70899964-6 2.75299835-11 1.33900452L617.5 33z"/><path fill="#785D88" d="M358.98700905 30l-33.97299957 10.31900024-8.50699997 142.814003 17.24999976 9.9110031 8.74299979-2.602005L358.98700905 30z"/><path fill="#A688BA" d="M342.5 190.44199562l84-18.97599983 23.5 45.8249998-69.5 27.95300008-38-54.80200005zM551.98600006 166.68300247L546 219.4050045l47 14.70200157 59.5-48.97200203-100.51399994-18.45200157z"/><path fill="#9075A0" d="M450 217.29000092l3.5 31.71000003-.51399994 27.32700062-71.02700043 9.74099922L375 268.66100121l5.5-23.41600037 69.5-27.95499992z"/><path fill="#785D88" d="M546.00000763 219.40499496l-4.5 31.51799894 4.5 32.07199931 43.5 6.39999962 7.44200134-30.14599896-3.94200134-25.14199924-47-14.70199967z"/><path fill="#9075A0" d="M652.5 185.13399887l8.5 10.70999909 5.5 24.48900222-77 69.06200028 3.5-55.28900099 59.5-48.9720006z"/><path fill="#A688BA" d="M669.5 181.04200363l-3 39.29199982-14-35.19900036 17-4.09299946z"/><path fill="#785D88" d="M380.50000381 245.24500465l1.45800019 40.8220005-53.45800019-64.01799964 5-21.65400124 9-9.95199966 38 54.80200004z"/><path fill="#9075A0" d="M316.50699043 183.13399506l25.99200058 7.30900001-14.00000024 31.60700035-11.99200034-38.91600036z"/><path fill="#594165" d="M450 217.29000664l96 2.11499977v53.58399963l-93.01399994 3.33799935L450 217.29000664z"/></g><g><path fill="#ECECEB" d="M430.82799911 71.74999619l105.44099808-2 9.730999 41.77200102 4.13400268 43.73499894-123.09600067 3.80900193-4.05200195-41.39900089 7.84200286-45.917001z"/><path fill="#ECECEB" d="M430.82801437 71.75l-59.3560009-23.25-12.48600196 120.80999756 68.05200195-10.24399948L430.82801437 71.75z"/><path fill="#DDDDDC" d="M536.26897049 69.75l69.1590023-19.25 22.57100106 111.55799866-77.86600113-6.79999924L536.26897049 69.75z"/></g><g><path fill="#96637C" d="M480.01301193 275.35700417v-45.48900032l33.48600006-.43499947v44.72200012l-33.48600006 1.20199967z"/><path fill="#D1A1B8" d="M484.75 237.26499557h23.75v5.73500014h-23.75v-5.73500014zM484.75 247.26499557h23.75v5.73500014h-23.75v-5.73500014zM484.75 257.26499557h23.75v5.73500014h-23.75v-5.73500014z"/></g><g><path fill="#D1A1B8" d="M560.3330164 178.34799862l36.6090002 7.7869997-18.30400038 13.05200005-22.97099924-6.1420002 4.66599942-14.69699955z"/><path fill="#96637C" d="M555.66697788 193.04400635v5.14199987l20.63799954 5.91399988 2.33199978-5.91399988-22.96999932-5.14199987z"/><path fill="#B3889D" d="M567.15197372 201.47699404l29.78999949-21.14399958 22.7249999 4.80099964-34.66699981 23.77699948-17.84799958-7.43399954z"/><path fill="#734D60" d="M567.1520195 201.47699451l-2.13800049 9.50699974 20.31900025 8.42099976 1.91699981-7.15499973-2.25-5.33800006-17.84799957-5.4349997z"/><path fill="#96637C" d="M619.6669693 185.1340046l7.47100067 8.4879999-41.8050003 25.783-.33300019-12.49400043 34.66699982-21.77699948z"/></g><g><path fill="#D1A1B8" d="M437.02400208 191.98799896l-34.08700085 6.875L368.25 208.35599923l6.7500019 11.04899955 30.72999931-9.55399942 33.96000123-12.66400004-2.66600036-5.19900036z"/><path fill="#B3889D" d="M437.02400589 191.98699796l54.96400118-2.57400024 57.4900012-.64699983-.95600128 8.42000007-57.52199984 1-51.3100009-1-2.66600036-5.199z"/><path fill="#B3889D" d="M547.41298676 206.96200514l-103.39500046-1.33599997-4.32799912-8.44000005h108.83200074l-1.10900116 9.77600002zM549.47901154 188.76699543l-112.45400238 3.2210002-4.69099808-9.14600015 118.10199737-2.50800014-.95699691 8.43300009z"/><path fill="#D1A1B8" d="M432.333992 182.84100723l-70.08399963 16.34500003 6.0000019 9.16899991 68.77400018-16.36800003-4.69000245-9.1459999zM439.69000244 197.185997l4.32799912 8.43900062-63.01799965 23.80900049-5.9999981-10.02900076 64.68999863-22.21900034z"/></g><g><path fill="#96637C" d="M457.75000668 197.18599367l1.54100036 8.63700009 16.21100044.20899963v-8.84599972h-17.7520008zM486.55999851 197.1860013v8.99000025l16.6880002.21500015 1.00200034-9.2050004H486.5599985zM517.25 197.18599749l-1.0010004 9.37300014L530.25 206.7399974l2-9.5539999h-15zM456.75500011 191.42199707l-1.50800037-9.06899977 20.25600052-.43100023v8.96299982l-18.74800015.53700018zM486.55999851 190.56899548v-8.88199997l17.69000054-.37700034v8.75200034l-17.69000054.50699997zM518.24699593 189.66100407l1.24699974-8.67399979 16.77499962-.3579998-2.76899958 8.59499979-15.25299978.4369998zM456.75499344 191.42200089l-19.7300005.56500005 2.66500044 5.19899988h18.05999994l-.99499988-5.76399993z"/><path fill="#96637C" d="M475.50300598 190.88500595l11.05699968-.31599998v6.61800003h-11.05699968v-6.30200005zM504.2499857 190.06199598l13.99600028-.4000001-.99600029 7.52400018h-13v-7.12400008zM533.49999046 189.22399783l15.9790001-.45799994-.95700026 8.42000007h-16.27199984l1.25-7.96200013zM426.49999523 194.49199653l-4.80800009-9.16799999-13.45099973 3.13599992 6.46099972 8.84099984 11.7980001-2.80899977zM397.85800266 201.30800605l-6.0970006-9.00499988-14.12799978 3.29499984 7.24599981 8.79900002 12.97900057-3.08899998zM389.96198559 214.2650013l4.9449997 9.91400003 14.60099983-5.51699996-5.53799963-9.20799994-14.0079999 4.81099987zM417.37100792 204.85200167l12.97500038-4.45699978 4.97500038 8.5159998-12.33400035 4.65999984-5.61600041-8.71899986zM384.87998772 204.39700079l5.08199978 9.8690002-14.9619999 5.13900017-6.75-11.05000019 16.63000012-3.95800018z"/><path fill="#96637C" d="M397.85899067 201.3079989l16.84299946-4.00800014 2.66899967 7.55200017-13.40099955 4.60200011-6.11099958-8.14600014zM426.50000143 194.49199426l10.5239997-2.505 2.66599988 5.199-9.3429997 3.209-3.84699988-5.903z"/></g><g><path fill="#DDDDDC" d="M450.78799224 235.5l14.46200013 8.27600002L451.2669921 255 432.333992 243.77600002 450.78799224 235.5z"/><path fill="#737373" d="M432.33399296 243.77600288l-1.50600052 12.13499976 13.19000024 25.5250001 11.26499968-11.28999997-4.0159998-17.1459999-18.9329996-9.22399999z"/><path fill="#A3A3A3" d="M465.25001335 243.77600288l14.76199913 31.5810008-35.60299969 21.49300052-4.7189989-13.98900032 7.29599952-11.53800035 4.28100014-18.32299972 13.9829998-9.22400093z"/><path fill="#DDDDDC" d="M430.82798958 255.91201115l16.15799904 15.41199983-20.48599816 15.72399985-73.6439991-11.9289999 6.12999726-17.72099972 22.35100174 11.26299977 49.49099922-12.74899983z"/><path fill="#8F8F8F" d="M446.98598862 271.32400608l-2.57799912 25.52599907-86.0379982-5.05199957-5.51399994-16.67900038 94.12999726-3.79499912z"/><path fill="#DDDDDC" d="M527.2590084 271.1229992l-13.75900077 2.76300048 11 18.46500015 44.19200134-6.0170002-7.9300003-8.3340001-19.89800036 2.365-13.6049999-9.24200034zM546 240.13200092l10.75 9.99999982-15.25 8.6499998-11.25-18.4489994 15.75-.20100022z"/><path fill="#737373" d="M530.25001478 240.33299828l-2.9909997 30.7890005 13.60499955 13.243001 2.40699958-17.62000085-1.77099943-9.9619999-11.25-16.45000075z"/><path fill="#A3A3A3" d="M556.74998808 250.13200188l4.01200056 27.86799907-19.89800072 6.36399937.63600064-27.58199882 15.24999952-6.64999962z"/><path fill="#737373" d="M513.4999795 273.885993l-7.00299979 14.53000021 16.00299979 9.83400011 3.91200018-4.3970003-.91200066-2.50199986L513.4999795 273.885993z"/><path fill="#A3A3A3" d="M525.5 291.3509922l43.19199944-5.0170002L570.5 295.9739921l-48 2.27600027 3-6.89900017z"/><path fill="#DDDDDC" d="M555.66698456 271.8170005l21.67500019-15.90499984 41.68500042 7.0880003-36.89300013 24.36399936-26.46700048-15.54699983z"/><path fill="#737373" d="M555.66702747 271.81799698l-3.6809988 25.03399944 29.10299873 9.39899922 3.6569996-13.76999903-2.61199952-8.11600018-26.467-12.54699945z"/><path fill="#A3A3A3" d="M619.02799892 263l6.30499936 29.35099983L581.08899879 306.25l1.04500008-21.886L619.02799892 263z"/><path fill="#DDDDDC" d="M755.65601349 269.42898512l36-6.42400026 47.66600036 8.00000047-50.33300018 18.07200003-33.33300018-19.64800024z"/><path fill="#737373" d="M755.65601349 269.42801094l-13 22.66399956 45 15.1630001 6.66600036-11.88700008-5.33300018-8.29299998-33.33300018-17.6469996z"/><path fill="#A3A3A3" d="M839.32299805 271.00500488l6.16699981 26.03399992-57.83399963 10.21600008 1.33399963-20.1789999 50.33300019-16.0710001z"/></g></g><g display="block"><path fill="#4F5253" d="M184.68499374 64.65499687l-13.33300018 16.3329997-5.31900024 31.34100009 18.65200042-14.67399979v-33z"/><path fill="#858686" d="M182.01899338 97.65399742l2.66699981-33 37.44399834 16.01199955 15.7540009 7.3259998 46.63500095-25.33399964 11.9339981 24.33399964-55.55099904 13.25-58.88299906-2.58799935z"/><path fill="#4F5253" d="M191.92900658 93.45699978l.52799987-16.80200005 21.84000016 7.329-10.64100004 6.45599985-11.727 3.0170002zM267.47800827 80.8080026l12.94499946-6.482 5.51499962 10.42199993h-13.17499947l-5.28499961-3.93999994zM203.65599722 235.9920044l-10.7519998 36.25599932 20.47999954 30.07999921-9.72799974-66.33599854zM182.01900053 97.65399551l-15.98500013 14.67499924 37.1100006 98.99000168 4.89599992 3.73699951 5.6459999-2.06399917-6.86700058-48.3690014-24.79999971-66.96899986z"/><path fill="#6F7173" d="M182.01799393 97.65499496l55.08300066-23.32899856 59.35200071 12.66600037 6.68600082 112.40499877-3.35400009 5v11.95600129l.02199936 17.97299957-52.16900062 12.02799988-17.97599984-1.11199951-15.97699928-32.25-31.66700172-115.3370018z"/><path fill="#4F5253" d="M206.40899658 101.0320015l38.86500073-15.99599839 44.65200138 9.5 6.8449974 79.85099793 4.47000122 10.54399872-2.33200073 14.39500045-63.39299965 9.27199936-21.30800056-74.63599777-7.79899979-32.9300003z"/><path fill="#6F7173" d="M203.14400578 211.31799698l10.5420004 1.67399979 12.20200003 30.25000095 2.23699951 26.41600037-14.7419995 32.67000102-17.8639995-70.09200096 7.62499906-20.91800117z"/><path fill="#4F5253" d="M291.51898956 202.28200912l33.49500084 18.8939991 11.55900002 33.8239994v38.55199815l-23.57200039-8.2199974-21.48200047-83.04999925z"/><path fill="#858686" d="M303.1400013 199.39700699l49.53199959 21.90499973-22.31799984 9.41499996-14.17999983-3.63999939-24.65500021-24.79400062 11.62100029-2.88599968z"/><path fill="#737373" d="M316.17398643 227.07700539l14.17799998 28.57600021 12.14700031-.65299988 16.48699999-3.32100105-6.31599999-30.37800026-36.49600029 5.77600098z"/><path fill="#4F5253" d="M358.98601341 251.67899704l-.61600017 40.12000084-21.79699993 1.7539997-6.22000027-37.8999996 28.63300037-3.97400094z"/><path fill="#737373" d="M313.00199509 285.33200455l-68.39400101 6.01799965-3.10899735-29.59399891 74.10399628-8.84599972-2.60099792 32.42199898z"/><path fill="#858686" d="M231.49798965 241.67999458l68.30899811-7.35400009 15.79499817 18.58400011-70.33399773 10.08999968-13.76999855-21.3199997z"/><path fill="#858686" d="M213.68500233 212.99199486l2.31300068 23 20.81799936 9.25 8.82300043-11.13599968-17.51400018-22.55200005-14.4400003 1.43799973z"/><path fill="#737373" d="M215.99799538 235.99199677l-2.00099945 32.38500022 24.53999948 2.91699982 14.64999914-5.09599972-7.54799938-32.092-29.6409998 1.88599968z"/><path fill="#4F5253" d="M252.20100784 262.00599289l-5.72200012 39.28299904-33.09600067 1.03899956.61400032-33.94999886 38.20400047-6.37199974z"/><g opacity=".14"><path d="M183.23100567 82.6439991l8.22599995-9.9890002 10.89500034 7.29599988 9.47000027-6.00499987-22.13700057-7.60000015-16.00000047 8.15000017-1.33300019 4.49200003 10.87900067 3.65600014z"/></g></g><g display="block"><path fill="#96637C" d="M196.03400612 32.65400267l7.98500013-12.99999953 2.85500002 17.66799927-5.18800008-.99999952-5.65200007-3.66800022z"/><path fill="#B3889D" d="M169.77000427 37.32100314l-12.58399963-10.167 5.83399981 19.5 5.16600019-3.83300018 1.58399963-5.49999982z"/><path fill="#734D60" d="M177.0990038 73.94700241l11.88199996-7.24100017 13.93500042 5.74499988.73999977-22.7119999-16.60000023 12.1050001-17.28800026-6.1890002 7.33100033 18.2920003z"/><path fill="#96637C" d="M187.05600452 61.84300113l-.20300006-14.18700004-3.84700013-10.33299923h-13.23799991l-6.75 9.33299923 8.3340001 34.33299923 11.87999965 1.65600014-7.8729997-22.6609993 11.69700005 1.85899997z"/><path fill="#B3889D" d="M183.00600529 37.32100105l13.028-4.66699981 10.84000003 4.66699981 4.94799995 39.34500122-9.46899986 3.2859993-1.26800013-24.29800016-14.0300002 6.18800003-4.0489998-24.52100039z"/><path fill="#734D60" d="M174.35200477 47.82100272l7.50100016 7.83400011-7.66800022-1.3340001.16700006-6.5zM191.35200477 53.82100296l5.8340001-9.5 2 6.66700006-7.8340001 2.83299994z"/><path fill="#D1A1B8" d="M191.92900276 59.69300437l-5.8959999-4.0380001v3.0940001l1.02199995 3.0940001 4.87399995-2.1500001z"/><path fill="#B3889D" d="M186.03400421 55.65500426l-3.53600001 5.46300006 4.55800009.72500015-1.02200008-6.1880002z"/></g><g display="block"><path d="M695.41699219 230.37900674l16.58199975 6.72799981 15.91199973-6.39099982-21.93199968-5.40299985-10.5619998 5.06599986z" opacity=".14"/><path fill="#785D88" d="M713.12499274 171.68900108l-2.79300011-28.2140007 5.66800022 3.52600002-2.87500011 24.68800068zM697.66699219 117.25l24.33299994-5 21.66700006 8.196L723.49999213 129l-25.83299994-11.75z"/><path fill="#9075A0" d="M714.41499269 202.0320034l9.08400023-56.55599975-3.4630003-1.29600144-4.03699988 2.82100106-8.66600019 39.67199993 3 15.02299976 4.08200014.33600044z"/><path fill="#785D88" d="M707.33299184 186.67300034l-11.91599965 43.70700073 8.60399961.33499908 10.39399958-28.68199968-7.08199954-15.36000013z"/><path fill="#96637C" d="M715.99999237 147l1.57600021-12.93799996 9.24500013-4.05699993L734.3319931 128.75l-10.83200038 16.7249999L715.99999237 147z"/><path fill="#734D60" d="M719.333992 135.24999762l-6.32399988-4.2750001-8.09399986-.9119997-2.91599989 14.00099993 14 2.9369998 3.33399963-11.75099993z"/><path fill="#A688BA" d="M719.33299255 135.24999952l-.46000003-5.63999998 4.62700033-3.61000002 20.1670003-5.5539999-9.33400036 8.30399996-15.00000024 6.49999994z"/><path fill="#9075A0" d="M723.50099182 126l-25.83399963-8.75 7.2489996 12.81200004L719.3329916 135.25l4.16800022-9.25z"/><g><path fill="#D1A1B8" d="M729.49999046 107.4999981l-2.25 4.5 3 3.75 2.25-4-3-4.25z"/></g><g><path fill="#B3889D" d="M716.49999237 112.4999981l-2.25 4.5 3 3.75 2.25-4-3-4.25z"/></g><g><path fill="#D1A1B8" d="M723.49999213 125.99999905l-5.83299994-10.84400022 13.60400009-14.1240002 5.3959999 12.48500021-13.16700005 12.4830002z"/></g><g><path fill="#B3889D" d="M723.49999237 126.00100136l-2.8329997-8.84499985-4.3980001-6.74999994-7.7349998-3.59299994 3.59099984 15.25 11.37499976 3.93799973z"/></g><g><path fill="#D1A1B8" d="M720.66699225 117.15500069l10.60400003-16.125-5.98699999-9.14500046-5.95100003-3.11199951-10.79800004 18.03999996 12.13200003 10.342z"/></g><g><path fill="#B3889D" d="M731.27099109 101.0310011l5.39600014-7.36800004-11.5-16.99600029-6.01000023 3.24800015.17599965 8.86000001 11.93800044 12.25600016z"/></g><g><path fill="#D1A1B8" d="M719.33299226 88.77400017l-7.20799989-7.83300019L720.6669922 62l4.5 14.66700006-5.83399993 12.1070001z"/></g></g><g display="block"><path fill="#785D88" d="M95.34500122 114.40899754l24.00000022-9.35700036 24.1520002 3.09500027-20.45200013 12.90700054-27.70000029-6.64500045zM159.531003 243.25100136l-5.90300012-33.08300114-12.25300002-10.20399952 6.74699998 49.37599945 11.40900016-6.0889988z"/><path fill="#9075A0" d="M153.62900162 210.16699314l-27.70800019-23.06900024 2.64599991-6.17700005 2.9260006-2.61800003 18.85199928 18.14300013 3.2840004 13.7210002z"/><path fill="#785D88" d="M125.92100132 187.09799767l-2.87699974-49.105999 8.78199959-9.5-.3329997 49.81099892-5.57200015 8.79500008z"/><path fill="#734D60" d="M123.43500185 144.6699934l-10.05299997-8.54300022-6.85099984-12.717 18.51299954 1.95600032.59899998 6.25499988-2.20799971 13.04900002z"/><path fill="#96637C" d="M124.04399967 127.36599326l6.9529999-7.7259996 8.77699964-5.23000049-7.94799967 19.62900019-8.38999967 10.63100004.6079998-17.30400014z"/><path fill="#9075A0" d="M124.04400158 127.36699677l1.40499973-5.38700009-2.40499973-3.67000008-27.69900036-3.90100002 11.1860001 9 17.51300026 3.95800019z"/><path fill="#A688BA" d="M123.04300022 118.30999672l20.45400047-10.16500008-3.72300005 6.2650001-15.73100042 12.95700003-1-9.05700005z"/><g><path fill="#D1A1B8" d="M123.04500103 116.3109951l-.83299923-14.90099978-4.16500044-5.45399976-7.64999986-4.34000015-5.7179997 11.62499982 6.0929997 13.34099978 12.27299953-.2709999z"/></g><g><path fill="#D1A1B8" d="M110.39700031 91.61599642l1.3010006-6.41300017 9.9809997-5.21199989 8.02600027 12.033-7.4940002 9.38700008-11.81400037-9.79500002z"/></g><g><path fill="#B3889D" d="M122.21100068 101.41099644l-11.43999982 15.17199993 12.27299977 1.72799969 4.39099979-12.56899977-5.22399974-4.33099985z"/></g><g><path fill="#B3889D" d="M121.67900085 79.991997l-4.33299994-5.76499962h-5.44300008l-5.22399998 8.09799969 3.71799994 9.2919997L121.67900085 79.991997z"/></g><g><path fill="#D1A1B8" d="M111.90300083 74.22699666l9.77599979-12.7349999 5.7559998 10.44099999-5.7559998 8.05900002-9.77599979-5.76500011z"/></g><g><path fill="#B3889D" d="M121.63827411 105.43828878l-2.37879465 4.4332648 2.890645 3.83492794 1.88620964-4.69757531-2.39805999-3.57061743z"/></g><g><path fill="#D1A1B8" d="M120.7500019 64.24899673l-1.75 4 1.75 3.75 2.25-3.75-2.25-4z"/></g></g><g display="block"><path fill="#96637C" d="M598.66699219 14.33399963l14.3329997 11.66699982 13.50000048-3.44199991 10.88299942-4.8120001-1.0550003-6.99599999-37.6609993 3.58300018z"/><path fill="#734D60" d="M637.38299274 17.74699879l3.61699963 4.5880003v3.63399982l-9.94000006 7.31099987L618.024992 38.9649992l-.52499962-5.96400023-4.5-7 24.38300037-8.25400018z"/><path fill="#96637C" d="M640.99999046 25.96699905l2.5 3.4090004.59399987 3.62499976-7.71899987 7.95799995-9.375 5.2920003-8.97599983-7.28700019 22.97599983-12.99700022z"/><path fill="#734D60" d="M644.09499168 33.0010004l2.71399975 2.12500048v4.7559998l-6.38799977 10.28100038-13.4219997-3.91200018 17.09599972-13.25000048z"/><path fill="#D1A1B8" d="M649.38499355 36.25199986l-4.64899993-12.91699982-5.40299987-16.16699982-4.33399988 2.45800018v2.70899964l11.2739997 25.61499977 3.11199998-1.69799995z"/><path fill="#B3889D" d="M634.99999237 12.3329997l-36.33300018 2 .82100105-2 39.84499931-5.16599988-4.33300018 5.16599989z"/><g><path fill="#96637C" d="M676.49998856 75.38799858l-9.33300019-5.63700008 1.58300019-17.125 3.45799994-10.5869999 8.41700006-2.15700054-4.125 35.50600052z"/><path fill="#734D60" d="M672.20798874 42.0380001L667.16698837 69.75 656.0839882 71l4.00000048-16.75000024 5.58299982-12.91600013 6.54100025.70400048z"/><path fill="#96637C" d="M665.66699266 41.33399963l-9.58500015 29.66799927-6.08300007-13.66799962 2.5-8.8319999 4.4180001-5.33500052 8.75000012-1.83299923z"/><path fill="#D1A1B8" d="M657.88298893 37.94900048l29.61600018-1.35399997-.66600037 4.36300003-5.16600037 1.85000002-2.35799932-1.29400002-22.39200068 1.653-.54199981-1.94599999 1.50800037-3.27200007z"/><path fill="#B3889D" d="M686.83299255 40.95899963l-8.16699981 35.70800019-2.16699982-1.27899933 2.8099997-33.87400055 7.52399993-.5550003z"/></g><g><path fill="#785D88" d="M656.08299112 47.66699862l-6.08299982 9.66700006-9.57899988-7.17200008 3.079-7.35200009 6.79799986.62300015 5.78499984 4.23399996z"/><path fill="#9075A0" d="M657.88299036 37.95000005l-1.80100012 9.71700024-12.5829997-4.85800016 4.58299994-8.03200018 9.80099988 3.1730001z"/><g><path fill="#96637C" d="M663.66699076 27l6.33299994-1-3.50000004 8.25-3.71600004-4.38999999L663.66699076 27zM653.66699266 22.33399963l-3.32500004-6.20800018-5.60700012 7.20800018h5.38900006l3.5430001-1z"/><path fill="#B3889D" d="M644.73599243 23.33399963l1.29399967 4.42400003 2.22200013 2.11799991-.16899968 4.9009999.52999974 1.81599999 1.72900009 3.783 4.26999998-1.02199985 3.27100015-1.40400028 2.92899966-2.19899988 2.69800043-.217 2.98999977-1.283-2.83300018-7.25-9.99999976-4.66699982-8.931 1z"/><path fill="#785D88" d="M663.5099926 35.5340004l-3.51099968-6.53399992-5.3870001 1.83399987-2.1129999-4.83399987-6.46899986 1.75999975 2.05199957 7.01900005 5.75000018-1.77899992 4.05 4.94999993 5.62799979-2.4159999z"/><path fill="#96637C" d="M648.61399126 36.59400082l5.99800015 2.75899988-4.61200011 1.98099989-1.38600004-4.73999977z"/><path fill="#ECECEB" d="M648.91899145 29.333l1.99699998-.66599994.84899997 2.41599988h-1.76499998L648.91899145 29.333zM656.91699243 33.00100067l2.58299994-1.025.58299995 2.60800004h-2.24999995l-.91599994-1.58300004z"/></g></g></g><g display="block"><path fill="#9075A0" d="M437.49999619 80.5l41.5 1.25 2.01200103 47.25-43.51200103 1V80.5z"/><path fill="#ECECEB" d="M441.75 83.83300018l34.19099998 1.66799927 1.56099892 39.25-5.3399992.3579998-12.0500003.05800057-12.05599964 1.55999946-7.80599976.52400017 1.5-43.41799927z"/><path fill="#B3889D" d="M438.5 139.25h6.5l-.98200011 11.75H438.5v-11.75zM447.38800025 139.25h6.11199999V150l-6.11199999 1v-11.75zM456.74999642 139.25h7.62400008l-1.37400008 10.5h-6.25v-10.5zM467.00599837 139.25h6.9380002v10.5h-6.9380002v-10.5z"/><path fill="#96637C" d="M486.55999899 105.375l11.43999958-.125v11h-11.43999958v-10.875zM502.30399275 105.37400007h12.1960001v10.8760004h-12.1960001v-10.8760004zM518.40799475 105.375l11.092-.125v11h-11.092v-10.875z"/><path fill="#9075A0" d="M486.55999899 125.2500003l2.68399978-1.75000006 1.99 4.5 4.17199994-6.74999976 1.09399986 1.37399983-5.2659998 8.24999976-4.67399978-5.62399977zM487.62399626 136.24999645l2.62600016-2.12599995.98200006 3.12599998 4.17199999-4.50000006 1.0960002 1.12400008-5.2680002 6.5-3.60800021-4.12400005zM488.25 145.875l2.25-2 1.77999997 3.375L496.5 142.625 498 144l-6.47000003 6.375-3.27999997-4.5z"/><path stroke-miterlimit="10" stroke="#A3A3A3" d="M502.30299377 123.06200027H531M502.30299377 127.06200027H516M502.30299377 134.06199646H531M502.30299377 138.06199646H516M502.30299377 144.06199646H531M502.30299377 148.06199646H516M487.625 83h36.32800293M487.625 88h26.32800293M487.625 93h16.32800293" fill="none"/><path fill="#96637C" d="M377.63400006 66l10.11200023 3.75-.76000023 13.25L375 78.66699982 377.63400006 66zM375 95.33300209l11.98600006 2.42299986-2.3199997 13.05699968-11-1.90799999L375 95.33300209zM372 124.2499981l10.5 1.81299972-1.12699986 11.13899994H370l2-12.95199967z"/><path stroke-miterlimit="10" stroke="#A3A3A3" d="M394.90799904 75.66600013l24.59199905 7.3340001M393.90800142 80.66700077l15.33199978 4.27400017M393.57999992 103.60700083l25.09199906 5.38000011M392.97499943 108.67000127l15.62199974 3.05800009M391.18600178 131.31900108l25.59399986 1.85800004M391.28699923 136.41699794l15.89400005.86799997" fill="none"/><path fill="#D1A1B8" d="M369 148.82300377l50.5-3.0999999v8.3779999l-51.25 6.18999993.75-11.46799993z"/><path stroke-miterlimit="10" stroke="#A3A3A3" d="M560.76199722 80.5l8.45999956 62.12400055 23.7779994-1.52000046M566.7189951 124.25l23.69000053-2M564.27499485 107.29700124l26.13400078-3.68199992M562.46399498 93l23.7859993-4" fill="none"/><path fill="#B3889D" d="M548.52299309 77.66600007l23.14500046-5.33199996 1.33300018 7-22.86700058 5.60599995-1.61100006-7.274zM581.3299961 85.5000006l16.8250003-3.80400002 1.33300066 7-16.54800034 4.07800006-1.61000061-7.27400004zM584.44700718 101.34200168l17.0209999-2.81000018.91900063 7.06600022-16.75800037 3.10000014-1.18200016-7.35600018zM588.12199306 119.41799998l17.15999985-1.75100016.48200035 7.1090002-16.91800022 2.05700016-.72399998-7.4150002zM589.76900291 137.73299861l17.20499993-1.25499988.27499962 7.11999989-16.96999932 1.56799984-.51000023-7.43299985z"/></g><g display="block"><path fill="#FDE4D5" d="M447.42898369 94.83299828l1.8369999 12.46399998 1.1630001 11.45299983 4.85399961-.24100017 4.54999996.24100017 4.54200005-.69099998 6.74999952-.33399964-2.95699977-26.4130001-9.6969998 4.32199955-11.04199957-.80099964z"/><path fill="#F5CAB3" d="M452.08498287 101.83799791l4.52099967-.73000002 1.39300013.5580001 1.59499997-1.0409999 5.65499979-1.04699993-4.87999976 8.76499987-2.84500003.87099981-5.43899977-7.37599993z"/><path fill="#737373" d="M448.06298256 95.45199871l1.20300007 11.84500027-2.14900017-2.87900019-1.82199955-11.92300033 12.09399998-4.46400023 13.73599994.86500072v12.94199944l-1.27999973 4.45900059-2.61700058-13.80200052-8.75799966 4.1400001-10.4070003-1.18299985z"/><path fill="#737373" d="M452.08398318 101.83899856l3.66499996-2.21799994.85699988 1.48699996-4.52199984.73099998zM459.59498382 100.62399912v-2.092l5.6539998 1.047-5.6539998 1.045z"/><path fill="#FFF0E8" d="M459.59498274 100.62499857l.77400005 7.71800017-2.84400004.87000013-.91800004-8.10600019 2.98800003-.48200011z"/><path fill="#C2917D" d="M460.36898291 108.3429991l-1.70299998 2.47000003-1.14299998-1.599 2.84599996-.87100003zM453.16698313 112.49899846l6.4269999.75 6.90499988-2.00000006v1.00000006l-6.90499989 2.58400005-6.4269999-1.00000006v-1.33399999z"/><path fill="#F5CAB3" d="M447.11798298 104.41699839h-1.8219999l1.5159999 5.45799994 2.74999989.34599996-.29599988-2.92499995-2.148-2.87899995zM471.12498343 101.83799815h2l-.43900001 5.48100019-2.61199999 1.023-.22899997-2.04600012 1.27999997-4.45800007z"/><path fill="#2B2B2B" d="M463.74998313 103.62499905c0 .518-.421.93699997-.93800002.93699997-.518 0-.93800002-.41899997-.93800002-.93699997 0-.51800001.42000001-.93699998.93800002-.93699998.51700002 0 .93800002.41899997.93800002.93699998zM455.28298312 104.56199837c0 .518-.421.93699997-.93800002.93699997-.518 0-.93800002-.41899997-.93800002-.93699997s.42000001-.93699998.93800002-.93699998c.51700002 0 .93800002.41899997.93800002.93699998z"/><g><path fill="#96637C" d="M455.28298283 118.5089991l-7.22000027 8.32400013 24.10000038-1.72399998-7.7880001-7.05000019-5.09800012 1.02400017-3.9939999-.57400012z"/></g><g><path fill="#C2917D" d="M455.2829833 118.5099988l4.31200001 5.74 4.78-6.19000005-9.092.45000005z"/></g></g><path d="M297.55598831 208.354002l-1.26300049 12.38699913-17.26200103 9.84500122-40.14799881-7.36400223-6.09200001 1.4300003-8.40199948 3.8390007-9.73900032-6.56999969-.9660015-8.9300003-18.55899811-67.5949974 38.73600006-2.12800217.63799953 37.06500053 48.86299992 23.94799995 14.19400024 4.07299996z" opacity=".14" display="block"/><g display="block"><path fill="#594165" d="M219.33298159 188.80400026l-2.74599982 4.20400011-8.54799986-.57999992 6.61099983-8.79800034 4.68299985 5.17400015z"/><path fill="#785D88" d="M214.64998531 183.62799883l1.93800068 9.37900019 18.46299982 1.13799953 6.85100031-7.57699978-13.7780004-6.90299976-13.4740004 3.96299982z"/><path fill="#9075A0" d="M214.65098476 183.62899971l18.60599995 2.00699997h4.56000042l1.06699944-3.7340002-28.98999978-21.28600026 4.75699997 23.01300049z"/></g><path fill="#96637C" d="M267.34598923 180.74099636h8.85499954l16.13000011 12.30200017 4.11800003 5.14200007 1.1069994 10.17000008-17.78799963-4.94400024-5.44000006-5.28399992-6.9819994-17.38600016z" display="block"/><g display="block"><path fill="#B3889D" d="M283.36297989 204.28199959l-31.96700096 5.24600029-14.62700081 3.46399975 12.87000084 24.92199993 15.81799984-.42200089 13.5749998-6.90499878 4.33100129-26.3050003z"/><path fill="#D1A1B8" d="M238.8839817 181.90199661l28.46200085-1.15999984 16.01699925 23.53999996-46.59399987 8.71000004-3.51099968-27.35599995 5.62599945-3.7340002z"/><path fill="#96637C" d="M236.76797867 212.99199963l13.83300018 6.08300018 7.70899978 1.796 20.72100053 9.71600008-32.00500012 9.42100048-1.38800049-5.90200042-7.70900058-9.92599988-1.1609993-11.18800044z"/></g><g display="block"><path fill="#DFBDA5" d="M291.51798296 260.687006l-1.68899965 9.32899975 10.68099963 16.41499973 5.15599978-1.68200016 2.3449998-3.70699978-4.2409997-18.4659996-12.25199986-1.88899994z"/><path fill="#8B6651" d="M303.76997948 262.57599783l-13.94100046 7.43900013-4.96700049-7.63300014 7.57500053-1.69499993 11.33300042 1.88899994z"/></g><g display="block"><path fill="#594165" d="M309.8329916 287.57299995l-6.30200005 5.70800019 1.13500023 2.38599968 18.66699982-11.0829997-1.23900032-2-12.26099968 4.98899983z"/><path fill="#785D88" d="M308.0109868 281.0409956l14.08299971 1.54199981-18.56299972 10.69799996-3.02099991-6.8499999 7.50099992-5.38999987z"/></g><g display="block"><path fill="#DFBDA5" d="M265.52698708 262.15799332l4.47700023 26.95800018 8.19100046-.72099972 4.49000025-17.52100038-1.18600035-6.87400008-15.9720006-1.842z"/><path fill="#8B6651" d="M282.68498516 270.87400484l-17.1590004-8.71500015 9.97300023-1.16100025 9.36300022 1.38300013-2.17700005 8.49300027z"/></g><g display="block"><path fill="#96637C" d="M247.02598763 240.00800133l32.00500011-4.0170002 20.98700046 9.25-20.07700014 12.5-27.74100065 4.26399994-5.17399978-21.99699974z"/><path fill="#734D60" d="M300.01898575 245.24199677l3.75099945 17.33399963-51.56900025-.5710001 47.8180008-16.76299953zM300.01898003 245.2410016l-52.99200058-5.23300003 32.00500011-9.42100025 20.98700047 14.65400029z"/></g><g display="block"><path fill="#594165" d="M209.8939848 160.61599803l28.98999977 21.28600049-14.0479999-35.85200119-14.94199988 14.5660007zM271.12498283 113.40699959l14.0340004 14.68799972-6.17200017 28.20800019-7.86200023-42.89599991z"/><path fill="#DFBDA5" d="M271.12498093 113.40699768l3.10700035 15.04100037 3.74600029 5.52600097-.80200005 8.7199998 5.57999993 27.00399923-19.99400044 5.84700012-8.7420001 11.02400207-12.11899996-3-21.86600018-30.80400133 24.54699994-22.33599996 26.54300022-17.02200127z"/><path fill="#594165" d="M206.81798172 136.91900063l15.68799973-29.68600083 39.35400009-9.79000091-27.64599991 20.55000084-27.39599991 18.9260009z"/><path fill="#C3987B" d="M238.8839866 138.06400108l10.0469998 41.26799965 4.83600045 3.50399971 1.82999992 7.29199982-16.71300018-8.22599983-18.8490001-29.13700009 18.8490001-14.70099926z"/><path fill="#8B6651" d="M245.27998066 180.08599854l17.4829998-4.5409999-7.16599965 14.58199978-10.31700015-10.04099988z"/><path fill="#E8CAB6" d="M267.34598017 153.6750002l-5.84899995 1.35499953-5.27099994-21.6779995 5.84899995-1.35400009 5.27099994 21.67700005z"/><path fill="#96637C" d="M244.43698454 148.73999834l-2.11899996-8.65400028 14.58500004-3.96000004-.67799997-2.7739997-17.34200049 4.7119999 3.47800017 14.18799973 17.36899995-4.6079998-.67999935-2.76999998-14.6130004 3.86600017zM276.99397898 127.79299927l-14.99799967 4.07600021.67199993 2.74599981 12.14499974-3.2579999 1.79399991 8.69199992-11.86100006 3.21999979.68100023 2.77400017 14.5149994-3.95599985-2.94799948-14.29400015z"/><path fill="#474747" d="M256.22697687 133.35199961l-6.32199982 1.71799997h-6.8529999l3.51300002-2.70799995 9.6619997.98999998zM262.07499123 131.99800134l4.79299986-4.83300013 6.89499986-.98299998-8.56699991-1.99000013-3.12099981 7.80600024z"/><path fill="#594165" d="M225.92698193 145.25999999l5.95200002 9.477 1.982-1.26699972-.29699994-11.2210002L225.92698193 145.26z"/><path fill="#8B6651" d="M267.34598994 153.67499924l-2.08599996 2.5-3.76399994-1.145 5.8499999-1.355z"/><path fill="#ECECEB" d="M116.542984 310.84499943l11.03600026 2.33999992"/><path fill="#DFBDA5" d="M234.2149849 158.45700145l-7.52200017 4.57400012-6.65800014-10.2650001 7.16400015-5.48300005 7.01600015 11.17400003z"/><path fill="#C3987B" d="M257.06699038 145.39700127l-4.64799989-5.8640002-9.68600023 2.25199997-.41499996-1.69800001 14.58599997-3.96000022 2.14600038 8.74700022-1.98300027.52300024zM264.74697733 143.2679987l.47600007-7.10200012 5.9690001-3.80400002-8.52400017 2.25300002 2.079 8.65300012zM266.0599854 148.38899803l7.70399976-4.61800003-8.30799961 2.27100002.60399985 2.34700001zM242.36197853 152.25099802l17.99399948-1.57499999-.62599945-3.03099996-17.36800003 4.60599995z"/><path fill="#8B6651" d="M226.97498703 163.49200165l4.7190001 7.29499996 2.52099991-12.32999992-7.52199984 4.57299995.28199983.46200001zM222.4249804 153.28799906l4.07999994-2.80700007 3.58599995 5.47200012-7.66599989-2.66500005z"/><path fill="#785D88" d="M195.125988 145.39700127l14.7689991 15.21899986 66.3069973-51.08799934-12.29099845-9.28600121-68.78499794 45.15500069z"/><path fill="#A688BA" d="M195.125988 145.39799881l40.3409982-19.28299952 40.7349982-16.58700037-9.97299766-14.97199916-71.10299873 50.84199905z"/><path fill="#8B6651" d="M272.36598206 119.41699982l-24.8880005 12.24199962 23.66499997-18.23399925 1.22300053 5.99199963z"/><path fill="#D1A1B8" d="M254.18698597 165.21799689l9.584 2.05800003 7.98199998-3.87400007-7.41799998.00100005-10.148 1.81499999z"/><path fill="#96637C" d="M271.75298595 163.4019997l-17.56599998 1.816 8.793-4.046 8.77299998 2.23z"/><g><path fill="#ECECEB" d="M255.59598732 190.12600088l12.88199997 6.74000025-8.26999998-16.12400055-4.61199999 9.3840003zM238.88298988 181.90200329l16.7130003 8.22499966-4.1999998 14.1549995-12.5130005-22.37999916z"/></g></g><g display="block"><path fill="#594165" d="M270.85499 296.5640068l-1.79399967 2.04399992-.07900047 2.7479999 16.42700005-.07099986.00699997-2.88600004-14.56099987-1.83499991z"/><path fill="#785D88" d="M278.19498312 288.3940072l7.22200048 10.00499964-16.3560009.20800019.94400025-9.4920001 8.19000017-.72099972z"/></g><path fill="#C3987B" d="M274.32898092 172.1629982l7.0749998 8.579 7.11499978-2.25-1.5-6.36600018-12.68999958.03700018z" display="block"/><g display="block"><path fill="#A688BA" d="M292.3319788 193.0430026l1.51900005-5.15700006 8.66199994 1 7.14899993 13.39499998-12.10599994 6.07300043-5.22399998-15.31100034z"/><path fill="#DFBDA5" d="M302.51398277 188.88699913l-9.77100014-16.76099968-3.72500015 1-2.07999992 3.48099947 5.39300013 16.4369998 10.18300008-4.15699959z"/></g><path fill="#E8CAB6" d="M292.7439804 172.12599957l-11.00900017-6.78699982-7.40700019 6.82399988 12.6110003 4.44399977 5.80500007-4.48099983z" display="block"/><path fill="#96637C" d="M233.2569871 185.6360035l3.51200008 27.35599946-2.5539999 4.75000048-9.82600022 10.74999905-2-35.0029993 10.86800003-7.8529997z" display="block"/><path fill="#8B6651" d="M249.96097684 226.08000326l.9610002 4.86799991 4.41099978 2.20200002.7900002-7.50600004-6.16200018.43600011z" display="block"/><g display="block"><path fill="#A688BA" d="M236.7689948 212.99100494l9.49999953 3.4749999-2.0699997 7.46000005-3.78499984 3.45100021-16.02499962 1.11399984 12.37999964-15.5z"/><path fill="#DFBDA5" d="M246.26798487 216.4650054l12.04099989 4.40499985-.72299958 4.00400007-2.1420002 2.10899973-15.03100013.39400005 5.85500002-10.9119997z"/><g><path fill="#8B6651" d="M255.3339796 233.15100718l-.74499988 4.62999987 8.17399979-2.40599997-4.5259999-2.40399997-2.903.18000007z"/><path fill="#C3987B" d="M258.30997366 220.87000942l4.45299989 14.50399971-7.42999983-2.22300005.11199999-6.16799986 2.86499995-6.1129998z"/></g></g><g display="block"><path fill="#2B2B2B" d="M273.89994977 136.9419653c-.02232163 1.27880526-1.07724445 2.29654935-2.35504982 2.27424518-1.27880527-.02232163-2.29656682-1.07624456-2.27424519-2.35504983.02232163-1.27880527 1.07624456-2.29656681 2.35504983-2.27424519 1.27780537.02230418 2.29656681 1.07624457 2.27424518 2.35504983zM255.80833063 141.1738685c-.02232163 1.27880527-1.07724434 2.29654937-2.35504976 2.2742452-1.27880521-.02232163-2.29856643-1.07627947-2.2762448-2.35508473.02232162-1.27880527 1.07824423-2.29653191 2.35704945-2.27421029 1.27780541.02230418 2.29656674 1.07624456 2.2742451 2.35504983z"/></g><path d="M675.74503994 324.4719994l-14.74399996-3.67800004-20.07399988-4.89999978-18.8050003-1.26999998-10.36800004 3.06499981-35.62199783 3.44999995 30.78699875 8.52700005 43.08199883-3.1459999 15.00000047-2.46000004 10.74399996.41199994z" opacity=".1" display="block"/><g display="block"><path fill="#785D88" d="M657.87204218 306.52699757l7.79500008 4.00600004 1.71299982 1.056-2.37999988 1.38700008-9.45000005.08899998.783-4.00700003 1.53900003-2.53100007z"/><path fill="#9075A0" d="M665.66703916 310.53299773l7.16499996-2.97299993.22099995 2.40299993-1.70499992 2.16500003-6.34899998.84799993.66799999-2.44299996z"/><path fill="#A688BA" d="M672.83304405 307.55999899l11.18799973 11.35599995-12.67399979-6.788 1.48600006-4.56799995z"/></g><g display="block"><path fill="#785D88" d="M648.72367297 307.07338905l-12.76799496 9.22627663-3.5157461-1.52438706 4.26917506-4.71045584 4.01638022-2.25213395 7.99818578-.73929978z"/><path fill="#9075A0" d="M648.7227561 307.07299007l2.40815665-5.98387241-18.16852143-5.11789903-1.1064792 6.9711667 4.85319577 7.12243668 12.0136482-2.99183194z"/></g><path fill="#9075A0" d="M611.75304174 317.68799955l-2.75299978 4.14500016 3.21600008.5 3.8359999-3.52000022 7.94800002-1.97799996-4.00099993-4.70700022-8.24600029 5.56000024z" display="block"/><g display="block"><path fill="#785D88" d="M622.39904213 304.376997l11.86000043-.9330001 19.40900058-.0669999-1.16699982 11.18499994-27.16700077 3.12700033-11.7680006-4.71400023 8.83300018-8.59800005z"/><path fill="#A688BA" d="M657.87204361 306.52599955l-9.26799965 3.26900005-9.43700027-.73699999-18.97699929-2.53200006-4.13800049-6.86100006h6.34599972l11.2190001-5.70900012 18.5480001 4.87400008 5.70699978 7.6960001z"/><path fill="#A688BA" d="M620.19004154 306.52699661l-14.40600014-6.4849999 3.84000016-1.79299998 6.42700004 1.4159999h6.34700013l-2.20800019 6.86199998zM657.87304115 306.52699661l-24.25600052-12.5699997 18.88300038 3.54299975 5.37300014 9.02699995z"/></g><g display="block"><path fill="#9075A0" d="M604.03504333 299.04099655l-8.51100025 12.51800013-.21899986 3.06500005 3.94500017 1.38899994 14.31500006-3.0380001-1.56500006-5.41499996-7.96500006-8.51900006z"/><path fill="#785D88" d="M595.52304336 311.55999684l-4.16700002 6.12799979 7.89400005-1.67499984-3.72700003-4.45299995z"/><path fill="#2B2B2B" d="M603.19104195 308.32499754c.68300008.86900002.52999997 2.126-.33899999 2.80799997-.86899996.68200016-2.12599999.53100014-2.80799997-.33799994-.68200004-.868-.53100002-2.12599998.33800006-2.80799997.86899993-.68200016 2.12699992-.53100013 2.8089999.33799994z"/><path fill="#A688BA" d="M604.0340414 299.04099941l7.79900015-.79199981 10.56500018 6.1279999-8.83300016 8.59799993-9.53100017-13.93400002z"/><path fill="#A688BA" d="M616.05204177 299.66499853l2.977-5.33400005-5.81300009-3.6640001-2.38300001 5.29100007v2.55799991l5.2190001 1.14900017z"/><path fill="#785D88" d="M612.21904135 302.83299637l-1.38600016-6.875-9.21600008-.70800018 5.42900013 8.19400024 5.1730001-.61100006z"/></g><g display="block"><path fill="#785D88" d="M658.04404116 312.974998l-8.04400015 13.54399967h-3.83200026l2.04300022-6.01999986 2.78900004-3.66399992 7.04400015-3.8599999z"/><path fill="#9075A0" d="M658.04304123 312.97499669l-.17099953-6.44800008-18.70499992 2.53200007 1.7579999 6.83599996 7.28599983 4.6040001 9.83199972-7.52400005z"/></g><path fill="#A688BA" d="M623.20404434 316.83599734l5.1729999-3.8599999 2.19699999 3.52999974 3.68599987 10.01399994h-4.08599985l-6.9699999-9.68399978z" display="block"/><path d="M745.49803925 317.30599928L725.304039 312.1279993l-11.52799988 1.06799984-13.11100006.2590003-39.66399908 7.3389999 16.73899985 4.32799991 16.75799942 1.39800024 36.40200042-3.38100004 26.60099793-3.39100015-12.00299835-2.44200003z" opacity=".1" display="block"/><g display="block"><path fill="#B3889D" d="M736.83204508 309.45299768l9.49800014 4.43600011.79199982 1.33599997-1.625 2.08000016-12.58899975-2.41600013 3.92399979-5.4360001z"/><path fill="#96637C" d="M746.33103943 313.88999963l9.91699982-9.25000024 2.16600036 3.00000024v1.91699993l-12.91600036 7.7490002.83300018-3.41600013z"/><path fill="#D1A1B8" d="M756.2470398 304.63899899l20.75 10.58500003-18.58300019-5.6679998-2.16699982-4.91700023z"/></g><g display="block"><path fill="#96637C" d="M705.33103848 274.05599785l-15.16699982 2.67500019-3.24699974 2.33999991 2.23199987 3.64999992 10.51499987 7.33499998 3.66699982-5.59899998 2-10.40100002z"/><path fill="#734D60" d="M690.1640389 276.73099852l-7.66400004 1.352 6.64599991 4.63599991 1.01800013-5.98799991z"/><path fill="#2B2B2B" d="M698.4970398 278.63999844c0 1.10399997-.89600003 2-2 2-1.10399998 0-2-.89600003-2-2 0-1.10399998.89600002-2 2-2 1.10399997 0 2 .89600002 2 2z"/><path fill="#B3889D" d="M705.33003986 274.05599785l8.44399989 7.04299986-1.27699996 7.04099977-6.41699987 3.75-6.41599983-1.83399963 5.66599977-16z"/><path fill="#D1A1B8" d="M712.49804735 288.13999748l-7.16800022-14.08399963 9.41800022 6.33399981-2.25 7.74999982z"/><path fill="#B3889D" d="M714.7470476 280.38999844l6.24999982-3.75000024-3.86099982-11.19200015-3.6229999 5.1900003-3.3499999 5.00199985 4.5839998 4.75000024z"/><path fill="#96637C" d="M714.7480483 280.38999844l-1.2340002-9.7520001-12.38199997-4.88800025 6.07300007 11.99700022 7.5430001 2.64300013z"/></g><path fill="#B3889D" d="M703.34604001 293.6389997l-7.84799981 2.4180001-5.33400059 3.16600001 3.33300018 2 3.83300019-2.5 11.66600036.4159999-5.65000033-5.5z" display="block"/><g display="block"><path fill="#B3889D" d="M727.66404724 292.72299957l-15.16699982-4.58300018-3.5010004 11.00000018 15.41600025 10.41600019 12.4200002-.10300065-9.16800023-16.72999954z"/><path fill="#D1A1B8" d="M736.83204746 309.45199776l-24.33600044-21.31299973 17.7920003 2.59999943 6.54400014 18.7130003z"/><path fill="#96637C" d="M699.66504717 290.05599785l12.83200025-1.91600037 2.61000014 9.28700018-1.33300019 3.12900019-4.778-1.41600037-9.3310002-9.08399963z"/></g><g display="block"><path fill="#B3889D" d="M730.90004349 323.13999963l-7.23799992-5.83400011-12.49800014 2.25100004v3.58300007h19.73600006z"/><path fill="#96637C" d="M736.8320551 309.45299578l-5.9330001 13.6869998-17.12500047-9.94400001 3.36200046-8.556 19.6960001 4.8130002z"/></g><path fill="#D1A1B8" d="M708.99603967 299.13899899l-6.99799995 9.50300002-1.3340001 4.81299996 3.16700029 1.76900005 1.49999976-5.57599997 11.80500006-5.00899995-2.02699995-7.2069999-6.1130001 1.70699979z" display="block"/><g display="block"><path fill="#594165" d="M229.89600086 313.18499851l-14.87000036-5.52700019-2.14600039-8.12499976 17.01600075-2.96200037v16.61400032zM130.34499931 306.3809967l21.66699982-5.74100017-3-8.5929997-20-7.694 1.33300018 22.02799987z"/><path fill="#A688BA" d="M166.76299667 252.18899918l83.01600266 29.24799966-77.781003 23.89199973-52.23500347-45.45199967 47.00000381-7.68799972z"/><path fill="#9075A0" d="M249.77899551 281.435997l.97600174 28.22199965-20.86000251 3.52699995-2.36499978-13.85699987-44.51799964 11.5170002-2 14.14699984-11.66700173 4.33399963v-16.1409998l2.6530037-10.85699987 77.78099822-20.89199972z"/><path fill="#785D88" d="M171.99899864 302.32799816l-52.23700142-42.45099926-1.19099998 37.69699907 11.77500057 8.80699969.66600037-19.80599976 26.33399963 21.41699982-2.31900024 13.66599941 14.31799984 7.66699982 1.4110012-14.3579998 1.24300003-12.63899899z"/><path d="M119.76199913 259.8769989l28.24999965 22.95800018 28.0369991-8.21000003-7.45399857-14.74800015h-48.83300018zM186.125 281.37499934l32.38700104-3.2619999-2.91699982 6.7479999-8.88500023 1.56999994L186.125 281.37499934z" opacity=".14"/><path fill="#CECECD" d="M148.01199913 272.32499814l-11.5-15.18799996v8.92599988l11.5 16.77200007v-10.50999999z"/><path fill="#ECECEB" d="M178.67899704 267.39399862l-30.66799927 4.93099976-1 4.66900003 1 5.8399998 30.00099945-6.44799984.66699982-8.99199975z"/><path fill="#96637C" d="M148.01199722 273.3249979l-11.5-16.18799972 30.25-4.94799996 11.91600037 15.20499993-30.66600037 5.93099975z"/><path fill="#B3889D" d="M157.59499931 258.13799858l18.45300103-12.89700007-39.46600056-6.6270001-21.01000118 11.48100007 42.02300071 8.0430001z"/><path fill="#DDDDDC" d="M176.04899883 255.68499852l-18.45400047 10.37800025-1.45800018-5.18700027 1.45800018-3.73899997 18.45400047-11.89600026v10.44400025z"/><path fill="#734D60" d="M157.5949974 257.1369986l-42.02399825-7.04200024.10599899 9.23000026 41.91799927 6.73800015v-8.92600018z"/><path fill="#ECECEB" d="M230.35100079 250.19999886l-14.75700045-6.94799996v11.25l-1.19700003 7.00400019 1.19700003 23.35600042 9.16600013-3.41500091-6.25-3.33399964v-7.69199991l11.84100032-20.2210002z"/><path fill="#CECECD" d="M200.837996 250.19999886l14.75599957-6.94799996v41.61000061l-9.16599977-3.41500091 6.24999988-3.33399964v-9.1159997l-11.83999967-18.7970004z"/><path fill="#ECECEB" d="M200.83699608 250.1999979l14.7579999 4.30200005.66599988-4.875-.66599988-6.375-14.7579999 6.94799995z"/><path fill="#CECECD" d="M215.59400034 243.25199795v11.25l14.75599956-4.30200005-14.75599956-6.94799995z"/><path fill="#785D88" d="M206.70899773 251.91199857l8.88599988-3.8079999 8.0379999 3.8079999-8.0379999 2.58999985-8.88599988-2.58999985zM205.71899748 253.66299868l9.8760004 3.08899974v11.625l-9.8760004-14.71399974z"/><path fill="#9075A0" d="M215.59400177 256.75099802l9.25-2.9199996-9.25 14.54599953v-11.62599993z"/></g></g></svg>