<svg id="ILLUSTRATIONS" xmlns="http://www.w3.org/2000/svg" viewBox="0 0 900 350"><defs><style>.cls-1,.cls-34{fill:#dcdcdb;}.cls-2,.cls-35{fill:#ebebea;}.cls-3{fill:#9b9fa0;}.cls-4{fill:#c3c3c3;}.cls-5{fill:#a2a1a1;}.cls-20,.cls-6{fill:#50a8a9;}.cls-21,.cls-7{fill:#72cbcb;}.cls-26,.cls-8{fill:#92d5d5;}.cls-22,.cls-9{fill:#369395;}.cls-10,.cls-32{fill:#3a9fb9;}.cls-11,.cls-27{fill:#318ea5;}.cls-12{fill:#5ebfd8;}.cls-13{fill:#8e8e8e;}.cls-14,.cls-31{fill:#6f7273;}.cls-15{fill:#848585;}.cls-16,.cls-23,.cls-30,.cls-42,.cls-47{fill:#2b2b2b;}.cls-16,.cls-17,.cls-18,.cls-19,.cls-20,.cls-21,.cls-22,.cls-23,.cls-24,.cls-25,.cls-26,.cls-27,.cls-28,.cls-29,.cls-30,.cls-31,.cls-32,.cls-33,.cls-34,.cls-35,.cls-37{fill-rule:evenodd;}.cls-16,.cls-42{opacity:0.1;}.cls-17{fill:#c2977a;}.cls-18{fill:#28788b;}.cls-19{fill:#8a6651;}.cls-23{opacity:0.2;}.cls-24,.cls-43{fill:#fff;}.cls-25,.cls-41{fill:#4f5353;}.cls-28{fill:#debca4;}.cls-29{fill:#e8c9b6;}.cls-33,.cls-36{fill:#1d7678;}.cls-37,.cls-39{fill:#906a59;}.cls-38{fill:#b08c79;}.cls-40{fill:#474748;}.cls-44{fill:#66493b;}.cls-45{fill:#737474;}.cls-46{fill:#b89d8d;}</style></defs><title>sentinels_Defender_ISFJ_friendships</title><g id="clouds"><polygon class="cls-1" points="658.5 114 564.5 120.5 626.5 137 688.5 134 658.5 114"/><polygon class="cls-1" points="796.17 6.33 720.17 7.67 801.17 35.33 842.5 34 881.83 16 827.5 18.67 796.17 6.33"/><polygon class="cls-1" points="189.17 22.17 277.17 40.17 195.17 46.5 134.25 67.25 18.5 26 154.25 37 189.17 22.17"/><polygon class="cls-2" points="277.17 40.17 178.83 11.5 88.75 29 18.5 26 151 47.25 195.5 32.5 277.17 40.17"/><polygon class="cls-2" points="720.17 7.67 801.17 0 829.17 9.33 881.83 16 826.5 26.33 786.17 11 720.17 7.67"/><polygon class="cls-2" points="564.5 120.5 610 105.5 679.5 113 639 123.5 619.42 118.56 564.5 120.5"/></g><g id="grey_buildings" data-name="grey buildings"><polygon class="cls-3" points="785 121 792 101 818.5 125 812.17 218.17 779.5 221 785 121"/><polygon class="cls-3" points="122.5 177.5 113 155.25 94.5 169.17 96.83 242.5 124.17 239.83 122.5 177.5"/><polygon class="cls-4" points="123.17 238.17 117.83 221.17 113 155.25 155.67 162.5 159.25 231.25 123.17 238.17"/><polygon class="cls-5" points="121.63 164.38 124.13 213.38 147.63 210.5 146.63 167.25 121.63 164.38"/><polygon class="cls-4" points="119.83 171.58 147.08 173.58 147.33 177.75 120.75 176.33 121 184.92 147.75 185.33 148.17 190.58 122.08 190.58 122.17 200 148 199.08 148.25 203.92 120.08 206 119.83 171.58"/><polygon class="cls-4" points="127.67 162.75 130.58 214.33 133.75 214 130.92 164.5 137.58 165 140 213.42 142.5 213.17 140.25 163.08 127.67 162.75"/><polygon class="cls-4" points="738 105.5 792 101 786 211 732 202.5 738 105.5"/><polygon class="cls-5" points="781.25 116.25 776.75 192 748.25 185 750.5 116.75 781.25 116.25"/><polygon class="cls-4" points="783.25 128.5 748.5 126.5 748.5 135.5 781 137.75 780 149.25 748.75 145.75 748.5 155.25 780.5 160.25 779.25 171.75 748 165.75 746.75 174.25 782 180.25 783.25 128.5"/><polygon class="cls-4" points="773.5 113.08 769.75 194.58 763.75 192.33 768.5 113.33 773.5 113.08"/><polygon class="cls-4" points="761.5 113.25 757.75 194.75 751.75 192.5 756.5 113.5 761.5 113.25"/></g><g id="behind_land" data-name="behind land"><polygon class="cls-6" points="164.17 229.17 184.83 196.17 237.83 204.83 251.5 231.83 204.5 256.5 150.83 238.5 164.17 229.17"/><polygon class="cls-7" points="162.33 229.5 172.67 236.17 214.33 239.5 196.17 258.83 127.33 248.33 162.33 229.5"/><polygon class="cls-8" points="115.83 228.17 118.5 221.67 151.5 213.33 168.17 209.83 184.17 219.67 172.67 236.17 151.5 247.17 115.83 228.17"/><polygon class="cls-9" points="113.83 231.83 151.5 247.17 185 252.83 137.5 265 78.33 255 113.83 231.83"/><polygon class="cls-6" points="73.83 250.5 82.83 237.83 118.5 221.67 151.5 247.17 95.17 252.83 73.83 250.5"/><polygon class="cls-7" points="79.83 249.17 95.17 252.83 137.5 260.17 135.5 276.83 43.83 272.83 39.5 257.17 79.83 249.17"/><polygon class="cls-9" points="37.83 256.83 50.25 244 82.83 237.83 95.17 252.83 51.25 261.75 37.83 256.83"/><polygon class="cls-6" points="76.5 270.5 28 276 1 267.5 50.25 244 51.25 261.75 76.5 270.5"/><polygon class="cls-9" points="141.5 267.25 51.25 261.75 28 276 76.38 286 141.5 267.25"/></g><g id="left_blue_buildings" data-name="left blue buildings"><polygon class="cls-10" points="177.5 146 187.5 117 227.5 129 227.83 212.67 184.25 219.5 177.5 146"/><polygon class="cls-11" points="145.83 131.5 151.5 213.5 184.25 219.5 187.5 117 145.83 131.5"/><polygon class="cls-12" points="194.67 129.67 192 207.5 201.17 206.17 203.67 131.83 194.67 129.67"/><polygon class="cls-10" points="191.17 139.83 207.33 142.67 207 147.83 192.67 145.67 191.67 157.17 204.83 157.17 204.83 163.67 191.67 163.33 191.83 173.17 205 173.17 204.83 179.83 190.83 179 190.67 188 204.33 187.83 203.83 193.33 190.83 194.17 190.83 203.17 205.75 201.58 204.67 208.5 188 209.83 191.17 139.83"/><polygon class="cls-12" points="225.17 103.5 254.83 53.5 298.83 92.5 225.17 103.5"/><polygon class="cls-10" points="237.5 106.17 211.83 92 254.83 53.5 253.5 77.5 237.5 106.17"/><polygon class="cls-10" points="243.5 106.5 253.5 77.5 298.83 92.5 297.75 213.63 253.71 225.38 243.5 106.5"/><polygon class="cls-11" points="211.83 92 210.17 215.33 253.71 225.38 253.5 77.5 211.83 92"/><polygon class="cls-12" points="262.63 93.88 291.63 101.38 290 198.5 261.25 199.5 262.63 93.88"/><polygon class="cls-10" points="271.17 92.17 269.5 204.67 272.17 204.33 273.83 94.67 281.83 96.5 280.33 202.5 283.33 202.17 284.33 92.67 271.17 92.17"/></g><g id="front_land" data-name="front land"><polygon class="cls-4" points="511 182.25 491.46 170.11 452.21 177.79 441 194 474.25 206 511 182.25"/><polygon class="cls-4" points="609.83 194.17 620.5 168 581.17 159.17 535.5 160.83 535.83 180.17 609.83 194.17"/><polygon class="cls-13" points="549.13 193.38 546.92 169.6 613.67 178 580 206.75 549.13 193.38"/><polygon class="cls-3" points="395.81 169.94 398.5 182.75 431.25 181.5 441.88 176.25 458.25 194 405.75 212 395.81 169.94"/><polygon class="cls-4" points="455.25 207 452.89 187.51 510.25 195.75 491.75 234.5 448.75 232.5 455.25 207"/><polygon class="cls-13" points="394.5 205.75 432.84 186.81 455.88 198.63 487.75 221.5 421 224.5 394.5 205.75"/><polygon class="cls-3" points="594.5 202.33 580.86 197.14 533 184.25 541.83 223 586.17 226.5 594.5 202.33"/><polygon class="cls-13" points="520.63 227.25 572.12 213.14 581.17 214.67 574.83 248.33 548.83 256.17 520.63 227.25"/><polygon class="cls-3" points="524.33 234.83 538.63 239 568.17 247.17 564 264 528.5 285.5 524.33 234.83"/><polygon class="cls-4" points="382 225.25 396.5 202.25 421.68 213.18 491.13 215.25 491.25 247.75 384 242.25 382 225.25"/><polygon class="cls-3" points="459.25 237.25 456.38 234.63 461.93 227.03 482 210.25 498 211 508.25 247.5 475.75 247.5 459.25 237.25"/><polygon class="cls-13" points="397 247 409.88 237 457.25 234.13 497.56 242.16 505.75 254.5 398.75 268 397 247"/><polyline class="cls-3" points="339.83 199.33 322.35 208.33 253.5 221.25 270 240.5 343.17 239.67 351.83 214.83 339.83 199.33"/><polygon class="cls-4" points="297.5 232.67 274.83 224.83 253.5 221.25 214.17 239.33 264.17 276.5 313.67 246.67 297.5 232.67"/><polygon class="cls-13" points="445.5 271.17 367.5 243.5 352.17 224.5 339.83 228.17 253.5 221.25 292.5 243 304.5 271.17 415.17 285.5 445.5 271.17"/><polygon class="cls-4" points="505.17 260.5 499.5 248.5 372.17 245.5 377.17 289.5 538.17 290.5 505.17 260.5"/><polygon class="cls-3" points="391 298.5 363.5 259 292.5 243 261.33 260.67 319 302.5 391 298.5"/><polygon class="cls-13" points="527 270.5 488.54 254.34 388 271 379 295 483 318.5 527 270.5"/><polygon class="cls-4" points="263.5 278.17 314.83 274.17 340.37 275.95 368.17 266.83 395.61 281.45 436.5 295.5 297.83 342.83 248.5 317.5 263.5 278.17"/><polygon class="cls-13" points="199.5 258.83 261.33 260.67 314.83 274.17 283.38 301.38 169.5 294.5 187.5 265.17 199.5 258.83"/><path class="cls-3" d="M165.5,277.83c-.67,1,22.5-3.58,22.5-3.58L283.38,301l-155.55,6.17Z"/><polygon class="cls-3" points="137.17 275.5 136.25 260.25 214.17 239.33 261.33 260.67 188 274.25 137.17 275.5"/><polygon class="cls-7" points="167.83 311.5 79 334 25 303 76.38 286 144 275.5 178.5 296.83 167.83 311.5"/><polygon class="cls-6" points="426.5 305.5 352.83 303.57 178.5 296.83 79 334 187.5 331.5 426.5 305.5"/><polygon class="cls-14" points="809.25 251.25 686.5 229.75 733 282.75 839.5 290.75 809.25 251.25"/><polygon class="cls-4" points="777.17 238.5 799.83 258.83 819.56 283.38 815.69 291.44 836.33 304 868.17 300.83 841.83 257.5 786.17 213.5 777.17 238.5"/><polygon class="cls-15" points="769.83 229.5 789.83 223.83 868.17 300.83 900.5 287 812.17 218.17 771.17 212.17 769.83 229.5"/><polygon class="cls-3" points="705.5 281.5 735.25 255.5 819.56 283.38 836.33 304 801.17 303.17 728.17 308.83 705.5 281.5"/><polygon class="cls-4" points="699.5 253.17 735.25 255.5 750.75 289.5 655.5 308.83 588.17 284.5 623.17 251.83 699.5 253.17"/><polygon class="cls-15" points="673.25 229.25 701.83 235.83 735.25 255.5 609.25 275.25 612.5 230 673.25 229.25"/><polygon class="cls-15" points="680.83 223.17 701.83 235.83 799.83 258.83 789.83 223.83 680.5 175.5 680.83 223.17"/><polygon class="cls-4" points="695.83 203.17 701.83 235.83 615 238 622.5 204 730 181 695.83 203.17"/><polygon class="cls-6" points="709.25 308.75 669.25 296.75 626.83 293.17 597 308.75 606.5 341.5 694.83 337.83 709.25 308.75"/><polygon class="cls-7" points="772.83 309.83 750.75 289.5 669.25 296.75 694.83 337.83 760.5 335.5 772.83 309.83"/><polygon class="cls-9" points="750.75 289.5 801.17 303.17 760.5 335.5 750.75 289.5"/><polygon class="cls-15" points="626.99 210.21 695.83 203.17 743.5 190.5 648.83 173.5 613 202 626.99 210.21"/><polygon class="cls-1" points="611.83 185.5 550.5 286.83 430.03 293.31 187.5 331.5 354.5 350.5 606.5 341.5 577.83 296.17 611.83 185.5"/><polygon class="cls-2" points="611.83 185.5 551 269.5 430.03 293.31 606.5 341.5 626.83 293.17 611.83 185.5"/><polygon class="cls-1" points="611.83 185.5 580.86 197.14 551 269.5 626.83 293.17 626.99 210.21 618.5 193.5 611.83 185.5"/><polygon class="cls-2" points="620.5 168 580.86 197.14 626.99 210.21 648.83 173.5 620.5 168"/><polygon class="cls-5" points="789.83 223.83 812.17 218.17 743.5 190.5 708.5 191 695.83 203.17 789.83 223.83"/><polygon class="cls-4" points="136.25 260.25 188 274.25 178.5 296.83 76.38 286 136.25 260.25"/></g><g id="right_blue_building" data-name="right blue building"><polygon class="cls-11" points="674.75 30.5 682.67 22 704.5 31.5 679.5 48.75 674.75 30.5"/><polygon class="cls-11" points="666.5 156.5 695.83 203.17 742.83 190.17 751.83 54.5 704.5 31.5 666.5 156.5"/><polygon class="cls-10" points="632.5 46.5 638.25 191.88 695.83 203.17 704.5 31.5 632.5 46.5"/><polygon class="cls-12" points="640.33 71.5 644.75 180 686.75 187.5 690.5 63 640.33 71.5"/><polygon class="cls-10" points="661 64 659.75 190.25 666.75 190.25 668.5 62 661 64"/><polygon class="cls-10" points="638 97.5 692.75 93.5 691 101.5 640.67 104.83 641.75 130.25 691.25 133.75 692.75 142.5 642 138 642.75 162.63 689.75 169.5 688.75 198.25 641.25 184.75 638 97.5"/><polygon class="cls-11" points="643 75 643.63 92.92 657.33 91.42 657 72.94 643 75"/><polygon class="cls-12" points="641.31 85.56 658.13 83.38 658.33 85.54 641.81 87.65 641.31 85.56"/><polygon class="cls-11" points="672.06 70.38 671.83 90.42 685.67 89.25 686.08 68.5 672.06 70.38"/><polygon class="cls-12" points="669.92 82.17 687.5 79.58 687.42 82.33 669.83 84.33 669.92 82.17"/><polygon class="cls-10" points="646.75 51.5 646.58 30.67 682.67 22 682.63 47.25 646.75 51.5"/><polygon class="cls-11" points="644.83 108.33 645.17 127.17 656.67 127.67 657 107.58 644.83 108.33"/><polygon class="cls-12" points="643.92 122.25 658 122.42 657.92 119.75 643.67 119.83 643.92 122.25"/><polygon class="cls-11" points="671.17 107.17 670.67 128.58 684.58 129.33 685.58 106.25 671.17 107.17"/><polygon class="cls-12" points="668.42 122.67 686.92 123.08 686.92 120.33 669.08 120.08 668.42 122.67"/><polygon class="cls-11" points="646.17 142.67 646.33 160.5 656.58 161.58 656.5 143.33 646.17 142.67"/><polygon class="cls-11" points="670.83 145 670.17 163.17 683.33 164.67 684.25 146.17 670.83 145"/><polygon class="cls-12" points="644.58 153.25 657.58 154.42 657.5 156.92 644.67 155.83 644.58 153.25"/><polygon class="cls-12" points="668.75 155.42 684.5 157.42 685 160.42 668.83 158 668.75 155.42"/><polygon class="cls-12" points="657.71 36.25 658.58 54.38 665.96 53.13 665.08 35 657.71 36.25"/><polygon class="cls-12" points="653.58 42.13 669.33 39.63 669.83 47.13 653.96 49.38 653.58 42.13"/></g><g id="main_character" data-name="main character"><polygon class="cls-16" points="441.65 333.28 366.74 321.25 304.08 332.54 361.72 339.32 441.65 333.28"/><polygon class="cls-17" points="361.9 276.79 361.91 299.96 356.95 304.46 352.83 303.57 345.76 289.06 361.9 276.79"/><polygon class="cls-17" points="372.8 292.94 374.87 315.2 383.19 317.95 385.05 314.2 392.51 290.92 372.8 292.94"/><polygon class="cls-18" points="352.83 303.57 349.4 315.48 361.94 319.25 370.29 312.45 361.91 299.96 352.83 303.57"/><polygon class="cls-18" points="374.87 315.2 368.64 331.7 379.6 333.34 390.46 331.7 385.05 314.2 374.87 315.2"/><polygon class="cls-19" points="345.76 289.06 361.89 293.65 361.9 276.79 352.78 281.2 345.76 289.06"/><polygon class="cls-19" points="392.51 290.92 373.33 298.66 371.94 287.67 382.7 284.64 392.51 290.92"/><polygon class="cls-20" points="398.37 162.29 422.21 213.18 397.75 205.63 389.18 195.33 398.37 162.29"/><polygon class="cls-20" points="356.17 155.81 348.1 159.43 321.12 199.26 340.87 189.91 356.17 180.1 356.17 155.81"/><polygon class="cls-21" points="356.17 155.81 365.21 178.88 377.91 184.31 364.93 174.57 381.83 153.91 398.37 162.29 392.76 193.62 399.88 214.94 409.95 236.75 384.63 236.75 356.17 231.66 348.55 221.26 340.87 189.91 356.17 155.81"/><polygon class="cls-22" points="392.76 193.62 399.88 214.94 375.41 214.82 348.77 219.09 341.42 197.53 340.87 189.91 392.76 193.62"/><polygon class="cls-22" points="356.17 231.66 370.91 258.25 395.61 281.45 409.95 236.75 356.17 231.66"/><polygon class="cls-20" points="356.17 231.66 349.81 242.33 340.37 275.95 351.08 284.6 392.51 290.92 395.61 281.45 356.17 231.66"/><polygon class="cls-22" points="392.51 290.92 340.37 275.95 345.76 289.06 392.51 290.92"/><polygon class="cls-23" points="402.22 220 399.88 214.94 368.24 214.82 348.55 221.26 356.17 231.66 375.55 233.5 402.22 220"/><polygon class="cls-22" points="356.17 231.66 340.37 275.95 348.55 221.26 356.17 231.66"/><polygon class="cls-24" points="356.17 155.81 384.63 155.13 384.63 188.05 367.1 179.88 343.68 183.65 356.17 155.81"/><polygon class="cls-25" points="415.85 72.04 433.24 83.12 419.55 101.65 415.85 86.84 415.85 72.04"/><polygon class="cls-21" points="337.08 72.04 330.2 66.77 321.91 52.11 380.19 26.15 385.28 41.64 386.07 53.68 360.25 67.55 337.08 72.04"/><polygon class="cls-26" points="380.19 26.15 420.59 42.99 415.85 72.04 398.58 64.73 386.07 53.68 380.19 26.15"/><polygon class="cls-22" points="321.91 52.11 325.46 86.84 333.51 79.94 337.08 72.04 321.91 52.11"/><polygon class="cls-18" points="381.38 31.73 379.05 32.69 380.31 39.35 374.72 41.59 375.56 46.01 381.37 43.81 382.69 49.91 385.09 49.09 385.28 41.64 381.38 31.73"/><polygon class="cls-27" points="381.38 31.73 384.13 33.09 385.46 38.77 391.14 41.5 391.06 45.47 386.41 43.39 387.7 49.93 385.09 49.09 381.38 31.73"/><polygon class="cls-28" points="415.85 72.04 424.49 141.21 390.32 146.7 369.07 171.59 350.16 141.26 330.98 122.81 344.13 115.58 347.5 119.38 360.06 88.2 371.35 81.42 385.28 75.22 415.85 72.04"/><polygon class="cls-17" points="360.06 88.2 368.54 150.73 390.32 146.7 383.47 153.21 382.14 158.52 367.33 179.73 342.96 139.26 341.47 133.1 337.65 131.25 327.39 118.23 340.54 107.1 346.58 120.75 351.06 107.89 360.06 88.2"/><polygon class="cls-17" points="410.13 90.1 397.51 107.49 391.43 115.6 373.25 96.03 410.13 90.1"/><polygon class="cls-29" points="388.22 93.56 391.43 115.6 398.58 114.61 395.25 92.41 388.22 93.56"/><polygon class="cls-19" points="398.58 114.61 395.47 119.38 391.43 115.6 398.58 114.61"/><polygon class="cls-19" points="390.32 146.7 382.14 158.52 362.02 150.79 390.32 146.7"/><polygon class="cls-19" points="346.39 125.88 342.96 139.26 337.65 131.25 346.39 125.88"/><polygon class="cls-19" points="343.63 123.76 339.01 115.74 332.8 119.38 343.63 123.76"/><polygon class="cls-25" points="383.47 81.42 387.52 67.55 386.07 53.68 337.08 72.04 313.81 101.49 337.33 96.03 360.06 88.2 370.23 85.25 383.47 81.42"/><polygon class="cls-30" points="360.06 88.2 347.37 122.33 340.54 111 327.39 118.23 313.81 101.49 360.06 88.2"/><polygon class="cls-31" points="386.07 53.68 415.85 72.04 383.47 81.42 386.07 53.68"/><polygon class="cls-25" points="388.22 93.56 387.49 88.69 373.25 96.03 388.22 93.56"/><polygon class="cls-25" points="395.25 92.41 410.13 90.1 394.7 87.7 395.25 92.41"/><polygon class="cls-32" points="375.46 325.32 383.54 325.32 390.46 331.7 390.46 334.29 368.64 334.29 368.64 331.7 375.46 325.32"/><polygon class="cls-17" points="340.87 189.91 344.31 202.62 342.31 212.97 322.35 208.33 321.12 199.26 340.87 189.91"/><polygon class="cls-32" points="349.4 315.48 363.72 316.44 370.29 312.45 371.59 314.59 344.95 330.77 342.01 325.93 349.4 315.48"/><path class="cls-30" d="M385.76,104.52a3.37,3.37,0,1,1-3.37-3.37A3.37,3.37,0,0,1,385.76,104.52Z"/><path class="cls-30" d="M406.75,101.15a3.37,3.37,0,1,1-3.37-3.37A3.37,3.37,0,0,1,406.75,101.15Z"/><polygon class="cls-24" points="394.62 126.4 409.32 123.76 397.8 134.72 382.82 127.88 394.62 126.4"/><polygon class="cls-33" points="382.82 127.88 396.26 124.11 409.32 123.76 406.65 125.06 396.95 127.78 385.83 128.26 382.82 127.88"/><polygon class="cls-20" points="382.82 127.88 398.17 135.69 409.32 123.76 406.65 125.06 397.49 132.69 386.05 128.21 382.82 127.88"/><polygon class="cls-28" points="394.88 199.75 379.63 212.63 368.25 216.5 383.5 222.5 422.21 213.18 394.88 199.75"/><polygon class="cls-19" points="379.5 218.25 379.63 212.63 371.81 208.38 371.5 217.75 379.5 218.25"/><polygon class="cls-34" points="352.38 196.84 362.03 189.53 375.73 189.17 374.2 229.45 369.25 232.9 352.38 196.84"/><polygon class="cls-35" points="346.35 206.21 334.87 189.56 342.2 186.9 375.73 189.17 370.57 191.9 346.35 206.21"/><polygon class="cls-32" points="334.87 189.56 333.63 229.65 369.25 232.9 370.57 191.9 334.87 189.56"/><polygon class="cls-17" points="379.63 212.63 369.92 212.87 364.51 216.58 369.25 227.61 383.5 222.5 379.63 212.63"/><polygon class="cls-28" points="369.92 212.87 357.44 215.69 359 226 369.25 227.61 369.92 212.87"/><polygon class="cls-28" points="336.07 201.48 334.65 196.48 329.17 202.43 334.07 216.25 336.07 201.48"/><polygon class="cls-17" points="344 202.4 334.65 196.48 334.07 216.25 344 211.42 344 202.4"/></g><g id="and_character" data-name="and character"><polygon class="cls-36" points="497.38 310.86 483.74 284.54 505.04 278.82 506.76 287.94 509.19 307.8 500.54 323.59 497.38 310.86"/><polygon class="cls-9" points="483.74 284.54 488.54 254.34 507.63 233.8 517.91 266.78 506.76 287.94 483.74 284.54"/><polygon class="cls-37" points="491.75 324.01 495.6 327 501.86 324.44 509.15 307.95 497.44 311.06 491.75 324.01"/><polygon class="cls-18" points="513.93 328.02 510.85 328.8 505.93 321.18 509.88 313.65 512.8 315.84 513.58 317.28 513.93 328.02"/><polygon class="cls-32" points="491.75 324.01 487.1 333.85 501.74 331.78 512.8 315.84 509.19 307.8 499.25 322.89 491.75 324.01"/><polygon class="cls-38" points="441.23 184.1 432.84 186.81 426.96 175 433.81 169.37 441.97 176.41 441.23 184.1"/><polygon class="cls-39" points="449.35 178.51 447.04 179.67 441.97 176.41 432.84 186.81 441.15 192.49 451.06 192.26 447.02 184.45 449.35 178.51"/><polygon class="cls-38" points="452.57 191.49 452.89 187.51 452.21 177.79 446.79 171.83 443.25 174.11 447.32 180.02 445.53 185.85 451.95 194.57 452.57 191.49"/><polygon class="cls-40" points="472.29 132.49 473.49 141.65 469.4 154.59 487.7 162.56 500.81 162.04 487.47 130.55 469.85 121.11 472.29 132.49"/><polygon class="cls-41" points="550.92 134.71 557.84 139.35 546.92 169.6 522.9 171.61 534.42 143.09 550.92 134.71"/><polygon class="cls-42" points="516.43 326.94 567.05 334.43 515.63 344.63 455.83 334.17 516.43 326.94"/><polygon class="cls-36" points="532.22 291.44 524.19 315.44 515.59 331.08 512.78 315.86 510.51 293.57 520.35 275.86 532.22 291.44"/><polygon class="cls-6" points="522.51 249.97 548.34 259.05 532.22 291.44 510.51 293.57 512.49 267.06 522.51 249.97"/><polygon class="cls-36" points="495.94 232.39 489.68 246.65 488.54 254.34 512.49 267.06 548.34 259.05 538.89 238.73 495.94 232.39"/><polygon class="cls-6" points="461.27 209.51 491.46 170.11 497.4 194.99 482.74 217.83 461.27 209.51"/><polygon class="cls-41" points="474.45 131.59 470.39 129.48 469.26 122.49 458.04 102.07 462.14 80.54 473.38 81.73 471.5 97.64 474.45 131.59"/><polygon class="cls-40" points="530.84 164.69 532.37 135.51 543.38 127.77 546.72 138.07 547.96 143.46 535.37 155.78 530.84 164.69"/><polygon class="cls-9" points="479.93 206.29 500.24 187.5 509.03 164.68 532.08 165.82 521.1 185.91 542.08 212.11 538.89 238.73 489.68 246.65 479.93 206.29"/><polygon class="cls-7" points="479.93 206.29 491.46 170.11 502.86 166.5 533.82 166.13 546.92 169.6 550.05 192.24 548.76 211.18 479.93 206.29"/><polygon class="cls-43" points="501.57 168.06 515.01 164.62 533.87 165.91 532.05 189.53 511.57 174.73 494.4 185.52 501.57 168.06"/><polygon class="cls-41" points="491.46 170.11 469.4 154.59 500.13 161.89 499.35 155.49 509.4 166.65 491.46 170.11"/><polygon class="cls-39" points="508.98 153.84 514.4 91.2 524.53 69.57 541.04 82.1 540.45 106.58 541.59 129.67 533.87 165.91 511.57 174.73 508.56 163.02 508.98 153.84"/><polygon class="cls-44" points="489.92 149.64 507.99 145.51 529.39 152.66 532.42 153.22 511.57 174.73 489.92 149.64"/><polygon class="cls-45" points="555.42 81.8 552.92 112.55 557.84 139.35 547.96 143.46 541.62 129.92 528.64 88.35 533.55 74.06 555.42 81.8"/><polygon class="cls-44" points="544.15 121.23 541.59 129.67 536.14 119.9 544.15 121.23"/><polygon class="cls-38" points="476.39 153.91 474.45 131.59 469.58 75.55 521.9 69.36 528.72 84.12 529.39 152.66 476.39 153.91"/><polygon class="cls-41" points="544.15 121.23 537.65 111.74 534.85 110.74 528.57 88.15 552.92 112.55 544.15 121.23"/><polygon class="cls-14" points="528.57 88.15 524.72 86.25 521.88 64.74 533.02 66.97 555.42 81.8 528.57 88.15"/><polygon class="cls-41" points="484.77 62.82 523.78 61.72 533.02 66.97 524.72 86.25 497.11 75.44 484.51 72.35 484.77 62.82"/><polygon class="cls-14" points="462.14 80.54 484.77 62.82 497.11 75.44 471.36 93.63 462.14 80.54"/><polygon class="cls-39" points="546.01 105.9 535.83 104.34 533.95 119.32 544.15 121.23 546.01 105.9"/><polygon class="cls-39" points="491.34 99.77 491.91 106.28 494.33 110.31 499.48 106.21 501.58 99.91 512.29 98.17 519.37 98.38 506.28 109.59 499.61 122.82 492.53 123.38 485.75 110.48 482.11 106.75 475.39 100.46 482.76 99.5 491.34 99.77"/><polygon class="cls-44" points="537.21 114 538.24 107.12 543.21 108.04 537.21 114"/><polygon class="cls-14" points="469.4 154.59 475.69 145.72 474.45 131.59 469.06 121.77 469.4 154.59"/><polygon class="cls-41" points="489.78 95.71 491.34 99.77 475.39 100.46 489.78 95.71"/><polygon class="cls-41" points="503.5 95.19 501.58 99.91 519.37 98.38 503.5 95.19"/><polygon class="cls-46" points="490.8 124.86 491.91 106.28 499.48 106.21 501.03 124.9 490.8 124.86"/><polygon class="cls-44" points="496.12 128.62 490.8 124.86 501.03 124.9 496.12 128.62"/><path class="cls-47" d="M483,106.84a3.27,3.27,0,1,1-3,3.54A3.3,3.3,0,0,1,483,106.84Z"/><path class="cls-47" d="M506.12,106.31a3.27,3.27,0,1,1-3,3.55A3.31,3.31,0,0,1,506.12,106.31Z"/><polygon class="cls-6" points="540.78 210.63 572.12 213.14 546.92 169.6 540.78 210.63"/><polygon class="cls-18" points="524.19 315.44 528.48 323.92 524.89 339.23 523.05 339.97 521.18 329.14 524.19 315.44"/><polygon class="cls-37" points="524.19 315.44 512.78 315.86 513.24 330.21 522.65 329.9 524.19 315.44"/><polygon class="cls-32" points="524.19 315.44 518.78 327.5 513.37 327.32 512.78 315.86 512.78 315.86 512.78 315.86 505.92 339.85 523.05 339.97 524.19 315.44"/><polygon class="cls-43" points="495.77 133.88 486.17 136.01 496.29 142.37 508.77 135.24 495.77 133.88"/><polygon class="cls-7" points="496.31 140.83 486.84 136.2 486.62 135.66 484.57 135.75 496.54 145.88 510.25 135.11 508.28 135.32 507.68 135.55 496.31 140.83"/><polygon class="cls-9" points="484.57 135.75 489.77 134.67 495.54 131.91 503.07 133.97 510.25 135.11 507.54 135.55 495.82 136.33 486.84 136.2 484.57 135.75"/><polygon class="cls-39" points="457.17 192.13 482.74 217.83 461.93 227.03 445.99 200.56 451.06 192.26 457.17 192.13"/><polygon class="cls-6" points="445.99 200.56 441.15 192.49 452.89 187.51 457.17 192.13 445.99 200.56"/><polygon class="cls-44" points="525.94 232 524.46 228.07 512.38 229.63 520 236.19 525.94 232"/><polygon class="cls-34" points="497.34 241.8 499.74 229.94 508.36 221.9 534.97 249.47 537.59 257.75 497.34 241.8"/><polygon class="cls-35" points="499.03 252.82 479.4 247.94 481.27 242.33 508.36 221.9 507.71 226.06 499.03 252.82"/><polygon class="cls-32" points="479.4 247.94 511.75 276.96 537.59 257.75 507.71 226.06 479.4 247.94"/><polygon class="cls-39" points="519.77 233.22 515.44 234.13 507.63 240.88 513.25 248.88 526.67 246.16 519.77 233.22"/><polygon class="cls-38" points="533.91 224.46 524.46 228.07 515.44 234.13 526.67 246.16 535.33 234.7 533.91 224.46"/><polygon class="cls-39" points="540.78 210.63 572.12 213.14 535.33 234.7 524.46 228.07 540.78 210.63"/></g><g id="flowers"><polygon class="cls-42" points="658.3 288.11 674.11 284.07 686.86 287.93 670.69 292.67 658.3 288.11"/><polygon class="cls-36" points="671.93 268.94 673.39 273.7 674.11 284.07 672.04 282.93 670.9 269.25 671.93 268.94"/><polygon class="cls-9" points="669.14 264.58 663.96 266.55 673.39 273.7 678.02 269.24 669.14 264.58"/><polygon class="cls-7" points="674.63 282.93 680.97 277.32 679.46 285.71 675.67 289.25 674.63 282.93"/><polygon class="cls-9" points="680.75 277.48 672.04 282.93 669.35 283.86 672.14 289.56 675.67 289.25 680.75 277.48"/><polygon class="cls-9" points="670.38 283.75 664.06 277.12 668.31 288.42 672.14 289.56 670.38 283.75"/><polygon class="cls-7" points="672.14 289.56 664.06 277.12 673.89 281.76 672.14 289.56"/><polygon class="cls-7" points="669.55 256.92 663.96 266.55 678.02 269.24 669.55 256.92"/><polygon class="cls-42" points="253 288.01 270.44 283.56 284.5 287.82 266.67 293.04 253 288.01"/><polygon class="cls-36" points="268.04 266.88 269.63 272.13 270.44 283.56 268.15 282.3 266.89 267.22 268.04 266.88"/><polygon class="cls-9" points="264.95 262.08 259.24 264.25 269.63 272.13 273.41 263.79 264.95 262.08"/><polygon class="cls-7" points="271.01 282.3 276.72 275.22 276.61 283.56 272.15 289.27 271.01 282.3"/><polygon class="cls-9" points="276.72 275.22 268.15 282.3 265.18 283.33 268.26 289.61 272.15 289.27 276.72 275.22"/><polygon class="cls-9" points="266.32 283.22 259.35 275.9 264.04 288.36 268.26 289.61 266.32 283.22"/><polygon class="cls-7" points="268.26 289.61 259.35 275.9 268.15 282.3 268.26 289.61"/><polygon class="cls-7" points="264.83 253.71 259.24 264.25 273.41 263.79 264.83 253.71"/><polygon class="cls-42" points="185.55 290.49 200.03 286.78 211.72 290.33 196.9 294.66 185.55 290.49"/><polygon class="cls-36" points="198.04 272.93 199.37 277.29 200.03 286.78 198.13 285.74 197.09 273.21 198.04 272.93"/><polygon class="cls-9" points="195.48 268.94 191.67 273.54 197.63 279 202.71 271.67 195.48 268.94"/><polygon class="cls-7" points="200.51 285.74 205.25 279.86 205.16 286.78 201.46 291.53 200.51 285.74"/><polygon class="cls-9" points="205.25 279.86 198.13 285.74 195.67 286.6 198.23 291.82 201.46 291.53 205.25 279.86"/><polygon class="cls-9" points="196.62 286.5 190.83 280.42 194.72 290.77 198.23 291.82 196.62 286.5"/><polygon class="cls-7" points="198.23 291.82 190.83 280.42 199.92 284.25 198.23 291.82"/><polygon class="cls-7" points="195.86 261.91 191.67 273.54 202.79 271.54 195.86 261.91"/><polygon class="cls-42" points="298.13 264.88 310.11 261.81 319.77 264.75 307.52 268.33 298.13 264.88"/><polygon class="cls-36" points="308.46 250.35 309.56 253.96 310.11 261.81 308.54 260.95 307.68 250.59 308.46 250.35"/><polygon class="cls-9" points="306.34 247.06 302.42 248.55 309.56 253.96 312.42 247.58 306.34 247.06"/><polygon class="cls-7" points="310.5 260.95 314.43 256.08 314.35 261.81 311.29 265.74 310.5 260.95"/><polygon class="cls-9" points="314.43 256.08 308.54 260.95 306.5 261.66 308.62 265.98 311.29 265.74 314.43 256.08"/><polygon class="cls-9" points="307.28 261.58 302.5 256.56 305.71 265.11 308.62 265.98 307.28 261.58"/><polygon class="cls-7" points="308.62 265.98 302.5 256.56 310 259.58 308.62 265.98"/><polygon class="cls-7" points="307.92 236.17 302.42 248.55 312.42 247.58 307.92 236.17"/><polygon class="cls-42" points="260.46 248.94 267.87 247.05 273.85 248.86 266.27 251.08 260.46 248.94"/><polygon class="cls-36" points="266.85 239.96 267.53 242.19 267.87 247.05 266.9 246.52 266.37 240.11 266.85 239.96"/><polygon class="cls-9" points="265.54 237.92 263.12 238.84 266.69 243.88 269.14 238.65 265.54 237.92"/><polygon class="cls-7" points="268.12 246.52 270.54 243.51 270.5 247.05 268.6 249.48 268.12 246.52"/><polygon class="cls-9" points="270.54 243.51 266.9 246.52 265.64 246.95 266.95 249.62 268.6 249.48 270.54 243.51"/><polygon class="cls-9" points="266.13 246.91 263.16 243.8 263.88 248.06 266.95 249.62 266.13 246.91"/><polygon class="cls-7" points="266.95 249.62 263.16 243.8 267.75 245.75 266.95 249.62"/><polygon class="cls-7" points="265.69 232.63 263.12 238.84 269.14 238.65 265.69 232.63"/><polygon class="cls-42" points="224.36 261.73 231.77 259.84 237.75 261.65 230.17 263.87 224.36 261.73"/><polygon class="cls-36" points="230.75 252.75 231.43 254.98 231.77 259.84 230.8 259.3 230.26 252.9 230.75 252.75"/><polygon class="cls-9" points="229.44 250.71 227.01 251.63 231.43 254.98 233.03 251.44 229.44 250.71"/><polygon class="cls-7" points="232.01 259.3 234.44 256.29 234.39 259.84 232.5 262.27 232.01 259.3"/><polygon class="cls-9" points="234.44 256.29 230.8 259.3 229.54 259.74 230.85 262.41 232.5 262.27 234.44 256.29"/><polygon class="cls-9" points="230.02 259.69 227.06 256.58 229.05 261.88 230.85 262.41 230.02 259.69"/><polygon class="cls-7" points="230.85 262.41 227.06 256.58 230.8 259.3 230.85 262.41"/><polygon class="cls-7" points="229.63 247.12 227.01 251.63 233.03 251.44 229.63 247.12"/><polygon class="cls-42" points="684.06 254.56 691.62 252.63 697.71 254.48 689.99 256.74 684.06 254.56"/><polygon class="cls-36" points="690.58 245.4 691.27 247.68 691.62 252.63 690.63 252.09 690.09 245.55 690.58 245.4"/><polygon class="cls-9" points="689.24 243.32 686.77 244.26 690.33 248.5 692.97 246.48 689.24 243.32"/><polygon class="cls-7" points="691.87 252.09 694.34 249.02 694.29 252.63 692.36 255.11 691.87 252.09"/><polygon class="cls-9" points="694.34 249.02 690.63 252.09 689.34 252.53 690.68 255.26 692.36 255.11 694.34 249.02"/><polygon class="cls-9" points="689.84 252.48 688.1 249.22 687.86 253.56 690.68 255.26 689.84 252.48"/><polygon class="cls-7" points="690.68 255.26 688.02 249.19 690.63 252.09 690.68 255.26"/><polygon class="cls-7" points="689.44 239.66 686.77 244.26 692.97 246.48 689.44 239.66"/><polygon class="cls-42" points="753.76 276.26 762.92 273.92 770.31 276.16 760.94 278.91 753.76 276.26"/><polygon class="cls-36" points="761.66 265.16 762.5 267.92 762.92 273.92 761.72 273.26 761.06 265.34 761.66 265.16"/><polygon class="cls-9" points="760.04 262.63 756.98 263.4 762.5 267.92 764.49 263.54 760.04 262.63"/><polygon class="cls-7" points="763.22 273.26 766.23 269.54 766.17 273.92 763.83 276.93 763.22 273.26"/><polygon class="cls-9" points="766.23 269.54 761.72 273.26 760.16 273.8 761.78 277.11 763.83 276.93 766.23 269.54"/><polygon class="cls-9" points="760.76 273.74 757.1 269.9 759.56 276.44 761.78 277.11 760.76 273.74"/><polygon class="cls-7" points="761.78 277.11 757.1 269.9 762.81 272.36 761.78 277.11"/><polygon class="cls-7" points="760.53 256.02 756.98 263.4 764.49 263.54 760.53 256.02"/><polygon class="cls-42" points="730.96 252.65 739.48 250.47 746.34 252.56 737.63 255.11 730.96 252.65"/><polygon class="cls-36" points="738.3 242.33 739.09 244.9 739.48 250.47 738.36 249.86 737.75 242.5 738.3 242.33"/><polygon class="cls-9" points="736.8 239.99 734.01 241.04 739.09 244.9 740.93 240.82 736.8 239.99"/><polygon class="cls-7" points="739.75 249.86 742.54 246.4 742.49 250.47 740.31 253.26 739.75 249.86"/><polygon class="cls-9" points="742.54 246.4 738.36 249.86 736.91 250.36 738.41 253.43 740.31 253.26 742.54 246.4"/><polygon class="cls-9" points="737.47 250.31 734.06 246.74 736.35 252.82 738.41 253.43 737.47 250.31"/><polygon class="cls-7" points="738.41 253.43 734.06 246.74 738.36 249.86 738.41 253.43"/><polygon class="cls-7" points="737.02 235.86 734.01 241.04 740.93 240.82 737.02 235.86"/><polygon class="cls-42" points="709.38 275.69 721.21 272.67 730.75 275.56 718.65 279.11 709.38 275.69"/><polygon class="cls-36" points="719.58 261.35 720.67 264.92 721.21 272.67 719.66 271.82 718.81 261.58 719.58 261.35"/><polygon class="cls-9" points="717.49 258.09 712.67 259.04 720.67 264.92 723.23 259.26 717.49 258.09"/><polygon class="cls-7" points="721.6 271.82 725.47 267.01 725.4 272.67 722.37 276.55 721.6 271.82"/><polygon class="cls-9" points="725.47 267.01 719.5 270.58 717.64 272.51 719.74 276.78 722.37 276.55 725.47 267.01"/><polygon class="cls-9" points="718.42 272.44 710.46 266.79 716.87 275.93 719.74 276.78 718.42 272.44"/><polygon class="cls-7" points="719.74 276.78 710.46 266.79 719.5 270.58 719.74 276.78"/><polygon class="cls-7" points="719.5 247.17 712.67 259.04 723.23 259.26 719.5 247.17"/></g></svg>