<svg xmlns="http://www.w3.org/2000/svg" viewBox="0 0 1170 350"><defs><style>.a,.s{fill:#dddddc;}.b,.g,.m,.w{fill:#fff;}.b{opacity:0.5;}.b,.e,.k,.m{isolation:isolate;}.c,.p{fill:#c4c4c4;}.d,.x{fill:#ececeb;}.aa,.ab,.ac,.ad,.ae,.af,.ao,.ap,.aq,.as,.au,.e,.n,.o,.p,.q,.r,.s,.t,.u,.v,.w,.x,.y,.z{fill-rule:evenodd;}.e{opacity:0.1;}.f,.q{fill:#cececd;}.h,.n{fill:#8f8f8f;}.i,.o{fill:#a3a3a3;}.j,.t{fill:#737373;}.k{opacity:0.06;}.l,.r{fill:#858686;}.m{opacity:0.2;}.u{fill:#6f7173;}.v{fill:#9da1a2;}.y{fill:#dfbda5;}.z{fill:#c3987b;}.aa{fill:#8b6651;}.ab{fill:#bf8f00;}.ac{fill:#e5c828;}.ad{fill:#ccad14;}.ae,.ag{fill:#474747;}.af{fill:#856400;}.ah{fill:#802d00;}.ai{fill:#a84000;}.aj{fill:#cc4e00;}.ak{fill:#ed8600;}.al{fill:#ff9b01;}.am{fill:#f4d75d;}.an,.ao{fill:#9e7700;}.ap,.ar{fill:#b58b00;}.aq{fill:#755800;}.as{fill:#e8cab6;}.at,.au{fill:#2b2b2b;}</style></defs><title>isfp-adventurer-personality-header</title><path class="a" d="M-10-9H1180V359H-10Z"/><ellipse class="b" cx="125.53" cy="70.04" rx="102.5" ry="132.5" transform="translate(16.99 164.3) rotate(-70.13)"/><circle class="c" cx="164.5" cy="110.5" r="54.5"/><circle class="d" cx="172" cy="103" r="38"/><circle class="c" cx="179" cy="103" r="27"/><circle class="a" cx="187" cy="101" r="14"/><path class="e" d="M187,101s-9.4,25,12,54,56.2,46.7,83.9,107.3,30.9,98.4,30.9,98.4L86.7,358.2s57.4-44.8,76.3-83.3,19.6-73.2,19.6-73.2S170,196,163.1,189a92.7,92.7,0,0,1-10.7-12.6S154.8,136.6,187,101Zm0,0s-8.1-38.8-39.1-75.4-58-42.3-58-42.3L-32.5-15.4l3.2,107.3s62.5-33,131.9-24.6C170,75.5,187,101,187,101Z"/><path class="e" d="M187,101s30.3,21.2,69.5,17.4,51.7-9.5,51.7-9.5,89.6,5.7,139.4,121.1c30,69.4,23.3,128.1,23.3,128.1l-127.4,1.3S368,306.7,353,230.1c-12.6-64.4-39.1-76.3-39.1-76.3S246.9,171.3,187,101Z"/><path class="e" d="M187,101s17.7,1.6,35.4-17.9S243.8,49,243.8,49,312,40.2,399,71.1c87.6,31.1,136.3,68.8,136.3,68.8s51.1-22.7,82-80.1c25-46.5,24-71.9,24-71.9h86.4S687.2,84.4,617.9,135.5c-72.6,53.6-93.4,56.8-93.4,56.8S457.6,120.4,371.8,87.6c-62.1-23.7-106-24-106-24S246.2,103.2,187,101Z"/><path class="e" d="M187,101s10.8-21.7,11.4-55.8C199,9.2,187.1-16,187.1-16h54.3s-3.2,32.2-19.6,69.4C207.2,86.5,187,101,187,101ZM437.5,356.9s33.4-77,122.4-119.2c31.3-14.9,58.2-29.1,80.9-43.4C657,184.1,671,174,682.9,163.6c18.8-16.4,32.4-33.2,41-51.5,15.1-32.2,17.7-46.7,17.7-46.7S730.9,45.2,729,21.2s-.6-36.6-.6-36.6l44.2.6s-15.2,18.9-17,36c-3.2,29.7,6.9,71.3,6.9,71.3s-10.1,39.7-27.1,72.6c-14.3,27.6-25.2,40.4-25.2,40.4s3.8,37.2,24.6,70S754.4,355,754.4,355l-316.9,1.9Z"/><path class="e" d="M530.3,362.5s1.9-22.1,25.9-68.8,82.6-114.2,82.6-114.2,47.3-37.2,98.4-45.4,206.9,7.6,206.9,7.6,25.2,0,44.2-6.3l18.9-6.3,15.1-17.7s42.3-16.4,86.4-23.3,85.8,1.9,85.8,1.9l-6.3-95.9S1103,11.1,1045,37.6,977,73,977,73s-84.5,8.2-144.5,12.6S726.9,99.5,691.2,113.4C582.7,155.7,521.5,220.7,521.5,220.7s1.9,44.3,15.8,89c11.4,36.6,25.2,52.4,25.2,52.4Z"/><path class="e" d="M683,163.8s73-15.8,176-6.9C941.1,164,992.1,196,992.1,196s53-10.7,111.7-1.3,85.2,24.6,85.2,24.6l-3.2,144.5-145.7,3.8s-.6-71.9-54.9-118S817.4,185.1,729,186.5c-27.6.5-88.2,7.7-88.2,7.7s12.8-8.6,21.6-14.7c7.8-5.4,20.6-15.7,20.6-15.7Z"/><path class="e" d="M1126,371s-13-101-56-179S940,45,940,45,853,26,811,31s-69.4,34.4-69.4,34.4S663,34,566,15,364-7,364-7L784-28s3,54,49,86,55,34,55,34,70-8,100,53,10,212,10,212ZM963-21s45,53,92,80,88,89,106,164,13,135,13,135h23l-3-372Z"/><path class="e" d="M824-27s14,51,31,76a466.68,466.68,0,0,0,33,43s-3,55-38,92-56,93-62,126-4,54-4,54l86-1s20-23,16-80-22-94-35-135-18.5-62.4-18.5-62.4S857,70,873,52s30-76,30-76Z"/><path class="e" d="M590,359s-2-40,18-82,51-71,51-71,45.6,5.1,116,34c56,23,136,41.2,215,39,72-2,192-53,192-53l1,71s-51,20-145,24-215.5-34-262-44c-51-11-89-8-89-8s-7,29-5,57,7,36,7,36ZM-37,120S.6,169.8,67.8,188.4s114.8,13.2,114.8,13.2,80-3.4,131.2-47.9C394,84,391-43,391-43l116,5S439,100.9,351,168c-101,77-222.6,77.7-279,75-62-3-111-16-111-16Z"/><path class="e" d="M187,101s-39-5-98,17S-27,205-27,205V357H21s6.8-95.4,53-159C127,125,187,101,187,101Z"/><path class="d" d="M814.5,37.8H968.7V197.3H814.5Z"/><path class="f" d="M903.3,83.7l9-5.2,3,4.4,5.2-1.3,3.4,9.4-4.5-6.9-5.2,1.6-2.7-4.2Zm-24.5,9.9,11.5,6.7,5.6-11.1-6.4,7.9-10.7-3.5Zm59.9,6.4-8.5-.7-.2,7.8,1.6-6.3,7.1-.8Z"/><path class="g" d="M871.8,100.9a20.6,20.6,0,1,1-20.6-20.6A20.57,20.57,0,0,1,871.8,100.9Z"/><path class="a" d="M938,196.5l-27-16.4-12.3-2.3-9,7.1-6.4-3.3,4.2-18.7-33.7-3,8.6-14.3-28.5-12.3-19.4,7.3v56.7H938.1l-.1-.8Z"/><path class="f" d="M872.9,192.8l-3.8-20.6-21.7-.7-1.1-16.1-9.4-10.1-22.4,6.4v45.6h75.8l-17.4-4.5Z"/><path class="h" d="M807.2,37.2V204.6H976.3V37.2ZM964.5,193.5H819V48.4H964.5Z"/><path class="i" d="M807.2,37.2v89.7H976.3V37.2Zm157.3,77.6H819V48.4H964.5Z"/><path class="j" d="M895.5,121.9c0,2.6-1.7,4.8-3.8,4.8s-3.8-2.1-3.8-4.8,1.7-4.8,3.8-4.8S895.5,119.2,895.5,121.9Z"/><path class="f" d="M895.5,120.8a3.8,3.8,0,1,1-3.8-3.8A3.8,3.8,0,0,1,895.5,120.8Z"/><path class="k" d="M978.6,236.1H805.2l-10-16.4H988.6Z"/><path class="h" d="M935.1,181.1s6.7-9.9,12.4-14.8,6.9-6.1,6.9-6.1a55.16,55.16,0,0,1,5.3,8.3,29.27,29.27,0,0,1,2.1,5.2s-7.8-1.8-12.7.2-6.5,4.8-6.5,4.8l-7.5,2.4Z"/><path class="i" d="M924.1,150.1l-4.5-7.1a21,21,0,0,1,9.4-4.5l5.6-1.1.4,15.7a45.69,45.69,0,0,0,3-6.7,40.75,40.75,0,0,0,1.5-7.1s3,4.1,5.2,6.7a16.28,16.28,0,0,1,3,6l-6.7,8.6,8.2-3.4a19.22,19.22,0,0,1-1.1,7.9l-1.5,3.7-8.6-3.4s1.1,3.7,2.2,6.7l1.1,3a39.7,39.7,0,0,1-4.5,2.2c-3.4,1.5-6,2.6-6,2.6l-.7-13.5a42.43,42.43,0,0,0-3.7,4.5c-2.2,3-3.7,5.2-3.7,5.2l-8.2-3.7a29.83,29.83,0,0,1,6-6.4,31.31,31.31,0,0,1,5.2-3.7s-2.2-1.9-8.2-3a85.83,85.83,0,0,1-8.6-1.9l6.7-9.7c-.1.2,4.1.9,8.5,2.4Z"/><path class="g" d="M935.7,160a3.6,3.6,0,1,1-3.6-3.6A3.65,3.65,0,0,1,935.7,160Z"/><path class="l" d="M945.5,204.8h-24l-6-27.3h36Z"/><path class="i" d="M947.2,196.9l2.2-10.1H917.6l2.2,10.1Z"/><path class="i" d="M795.2,203.7H988.6v16.4H795.2ZM834.9,30.5l.7,34.3h17.3l.2-34.3Zm53.5,0-1.9,33.8h24.8l3-33.6-25.9-.2Zm42.5.4L932,64.3h17.1l1.6-32.7-19.8-.7Z"/><path class="c" d="M805.2,31.2l-4.9,39.7h39.5l-4.9-40.4-29.7.7Zm45.8-.5-.9,39h42.5l-1-39.5Zm60.5-.2-6.8,38.8h32.9l-5.3-38.4-20.8-.4Zm37.1.4-3.2,37.9h38l-4.9-37.6-29.9-.3Z"/><path class="h" d="M800.7,24.1H983.8v8.2H800.7Zm0,0L795,20.5l-6.4,7.8,6.5,8.5,5.6-4.5V24.1Z"/><path class="j" d="M795.1,36.8l5.6-4.5V24.1L795,20.5V36.7l.1.1Z"/><path class="h" d="M983.6,24.1l5.6-3.6,6.5,7.8-6.6,8.5-5.5-4.5Z"/><path class="j" d="M989.1,36.8l-5.5-4.5V24.1l5.6-3.6V36.7Z"/><path class="m" d="M-12-9H1181V356H-12Z"/><path class="n" d="M880.8,300.1l-5.9-23.4-11.2,2.7,10.1,22.5,7-1.8Z"/><path class="o" d="M885.6,300.1l2.7-29.7L874.4,274l4.2,28.8,7-2.7Z"/><path class="n" d="M887.7,301.9l11.2-31.5H888.3l-4.9,34.2Z"/><path class="o" d="M879.2,278.4l-8-27.3a108.37,108.37,0,0,1,18.7-18.2c10.7-7.8,12.8-9.1,12.8-9.1s-4.3,14-7.5,28.1l-3.2,14Z"/><path class="o" d="M884.5,268.8s-10.2-7.5-19.2-14.4l-9.1-6.9s-18.2,5.3-27.3,12.8a95.84,95.84,0,0,0-15.5,16.6s16.6,2.1,35.3,2.7c17.9.5,30.5.5,30.5.5l5.3-11.3ZM926.7,223s5.9,10.8,11.2,20.1a140.39,140.39,0,0,1,7.5,14.7l-34.7,2.9C910.7,260.9,911.8,245.6,926.7,223Z"/><path class="p" d="M879.2,280s-4.8-4.4,9.1-24.1S926.8,223,926.8,223s-5.9,15.7-9.6,26.5l-3.7,10.8S885.6,276.6,879.2,280Z"/><path class="q" d="M890.9,274.1s20.8,1.6,35.8,9.1,17.1,7.5,17.1,7.5l-16.6-28.3-36.3,11.7Z"/><path class="n" d="M879.2,280s8-10.7,26.2-21.4,24-10.2,24-10.2,15.5,4.3,23,7.5a49.15,49.15,0,0,1,11.8,6.9s-25.1,1.1-48.6,6.9C892,275.7,879.2,280,879.2,280Zm0,0L853,262.9s-6.9,5.3-17.1,13.4-14.4,15.5-14.4,15.5S862.1,282.7,879.2,280Z"/><path class="n" d="M879.2,280s-9.1-13.8-18.2-21.8-10.2-9.5-10.2-9.5a123.81,123.81,0,0,1-15.5-3.3c-8.5-2.4-13.9-4.3-13.9-4.3s27.8-1.4,40.6.5l12.8,1.9s11.3,12.8,4.4,36.5Z"/><path class="r" d="M900.5,350H858.9l-15-51.3h71.6Z"/><path class="o" d="M906.9,328.1l5.6-19.2H846.9l5.6,19.2Zm-1.9,6.4H854.4l2,7H903Z"/><path class="s" d="M858,319.1l4.5-4.5,4.5,4.5-4.5,4.5Zm17,0,4.5-4.5,4.5,4.5-4.5,4.5Zm17,0,4.5-4.5,4.5,4.5-4.5,4.5Z"/><path class="r" d="M1077.1,304.4l14.5-13.7,7.8,4.3-19.6,14.1-2.7-4.7Z"/><path class="t" d="M1091.6,290.7l-4.9-16.6,13.2,7.9-.5,13-7.8-4.3Z"/><path class="r" d="M1086.7,274.1l39.1-8-3.1,18.2-22.8-2.3-13.2-7.9Z"/><path class="u" d="M1018.3,330.6l8,19.7,5.9-.3-4.4-21.1-9.5,1.7Zm53.5-4-8,23,6.6-.2,12-20.6-10.6-2.2Z"/><path class="t" d="M993.8,303.4l13.4,5.7,3.2,6.5-7.7,14.6-8.9-26.8Z"/><path class="v" d="M1022.5,294.3l39,9.8-19.8,10.2-31.3,1.3-3.2-6.5,2.6-11.2,12.7-3.6Z"/><path class="o" d="M985.7,280.9l15.4-6.9,11.5,1.1,9.9,19.2-10.4,5.5-4.7,9.4-9.9-2.5-8.8,4.7L980.2,293l5.5-12.1Z"/><path class="r" d="M1001.1,274l8.2-14,3.3,15.1Zm-15.4,6.9-15.4-1.4,9.9,13.5ZM997.8,299l7.1-3.6-1.6,6.1Z"/><path class="w" d="M1008,284.5l-6.4,3.1,2.6,5.3,3.8-8.4Z"/><path class="r" d="M1004,286.3a2.41,2.41,0,0,0,.3,1.9,1.14,1.14,0,1,0,1.2-.6A2.71,2.71,0,0,0,1004,286.3Z"/><path class="w" d="M987.5,294.2l6.4-3.1,2.5,5.3-8.9-2.2Z"/><path class="r" d="M991.4,292.2s.7.1,1.3,1.4a3.42,3.42,0,0,1,.4,2.1,3.56,3.56,0,0,1-1.6-1.6,2.38,2.38,0,0,1-.1-1.9Zm11.9,9.3a25.25,25.25,0,0,0,1.8,4.4,16.58,16.58,0,0,0,2.1,3.2s.1-1.8-3.9-7.6Z"/><path class="n" d="M988.7,311.4l8.8-4.7L980.2,293l8.5,18.4Zm23.9-36.3-.5,24.7,10.4-5.5Z"/><path class="t" d="M1002.7,330.2l9.4,3.9,47.7-10.9-18.1-8.9-31.3,1.3-7.7,14.6Z"/><path class="n" d="M1041.7,314.3l30.3-18.4,17.5,20.7-3.2,17-26.5-10.4-18.1-8.9Z"/><path class="t" d="M1089.5,316.6l19.6,4-22.8,13,3.2-17Z"/><path class="u" d="M1100.9,324.3l5.1,25.6h6.6l-3.5-29.3-8.2,3.7Z"/><path class="n" d="M1010.4,315.6l-7.7,14.6L990,351l8.4-.6,13.7-16.3,14.7-19.3Z"/><path class="v" d="M663.6,374.9l-17.9,5.4L634.8,142l18-5.4,10.8,238.3Z"/><path class="r" d="M670.1,376l-6.4-1.1L652.8,136.6l6.4,1.1Z"/><path class="u" d="M600.7,271.1l6.1,3h18.4l-5.8-3Z"/><path class="v" d="M619.4,271.1H600.7L659.7,40h18.7Z"/><path class="r" d="M625.2,274.1l-5.7-3L678.5,40l5.7,3Z"/><path class="v" d="M488.2,363l-18.1-4.9L587.9,150.6l18.1,5Z"/><path class="r" d="M493,367.4l-4.8-4.4L606,155.6l4.8,4.4Z"/><path class="v" d="M735.1,370.7l-16.7,8.8L663.3,147.4l16.7-8.8Z"/><path class="r" d="M741.6,370.7h-6.5L680,138.6h6.5Z"/><path class="s" d="M733,216.5H520.8l34-143.6H767Z"/><path class="q" d="M538.4,216.5H733l7.8-33.1c-9.4,3.1-23.7,7.8-29.4,9.8-8.8,3.1-28.9,3.4-28.9,3.4l-4.3-8.2s-2,.8-10.5,2.3a100.17,100.17,0,0,0-16.7,4.5,59.48,59.48,0,0,1-17.9-8.8,111.43,111.43,0,0,1-13.9-11.9s-4.5-4.3-19.6,1.1S541.8,209,541.8,209l-3.4,7.5Z"/><path class="o" d="M534.7,170.8l-13.9,45.7H641.9a55.37,55.37,0,0,1,3.2-10.5c3.6-8.2,10.9-15.9,10.9-15.9s-8.8-2.6-36.8-7.4c-22.7-3.8-67.9-9.8-84.5-11.9Z"/><path class="r" d="M531.8,180.2l-11,36.2H641.9a55.37,55.37,0,0,1,3.2-10.5,27.54,27.54,0,0,1,2-3.8c-9.3-2.4-28.5-7.3-47.9-11.2-18.2-3.6-49.1-8.1-67.4-10.7Z"/><path class="p" d="M643.8,209.3l-.2-.5s-22-6.2-58-9.6c-23.3-2.2-44.4-3.3-58.5-3.8l-6.4,21.1H641.8a73.77,73.77,0,0,1,2-7.2Z"/><path class="r" d="M767,72.9l6.9,5.1-34,141.7-6.9-3.2Z"/><path class="q" d="M554.8,72.9l-16.1,68c22.6-4,104.1-18.9,126.2-31.2a213.38,213.38,0,0,1,49.7-19.8l6,4.6c6,4.6,11,4.6,17.9,4.1,5-.3,17-1.9,23-2.7L767,72.8H554.8Z"/><path class="o" d="M631.7,111.6a192.5,192.5,0,0,1-24.8-12.9s-16.6,4.1-40.5,14.7A154.72,154.72,0,0,0,542,126.8l-6.4,27A384,384,0,0,0,599.1,141c46.5-13.3,70.4-24.4,70.4-24.4s-23,1.4-37.8-5Z"/><path class="o" d="M554.8,72.9l-6.7,28.4c2.8-1.3,6-2.6,9.6-4,15.6-6,41-11,41-11a81.39,81.39,0,0,1,9.7,2.8,69.32,69.32,0,0,0,15.2,2.8s8.7,0,29.5-4.6c11.2-2.5,29.3-8.9,43.6-14.3H554.8Z"/><path class="n" d="M723.9,136.3s-9.9-7.1-17.3-13.3-18.4-12.8-29.8-18.7-17.3-7.4-17.3-7.4-30.6,9.6-48.7,16.7S568.3,132,568.3,132l72-1.7,49.3,23.2a143.86,143.86,0,0,0,20.1-7.9C720.2,140.5,723.9,136.3,723.9,136.3Z"/><path class="x" d="M701.5,126.6s-8.2,24.7-17.3,38.8-10.8,17.6-14.7,17.3-21-4.3-34.9-6-16.2-1.7-16.2-1.7-13.3,7.9-18.7,11.9-9.4,6.8-9.4,6.8,1.7-17.3,1.7-23.8-.3-7.7-.3-7.7-13.3-2.6-21.5-2.8a169.44,169.44,0,0,0-18.1.6s29.8-16.2,45.6-23,42.5-13.3,42.5-13.3,23.6-3.9,61.3,2.9Z"/><path class="s" d="M657.7,180.7a171.17,171.17,0,0,1-18.5-8.7,186.22,186.22,0,0,1,6-20.7c3-8.3,9.9-23.3,12.4-28.6a127,127,0,0,0-17.2,1.1s-26.6,6.5-42.5,13.3-45.6,23-45.6,23a169.44,169.44,0,0,1,18.1-.6c8.2.3,21.5,2.8,21.5,2.8s.3,1.1.3,7.7-1.7,23.8-1.7,23.8,4-2.8,9.4-6.8,18.7-11.9,18.7-11.9,2.3,0,16.2,1.7c7.5.9,16,2.5,22.9,3.9Z"/><path class="o" d="M635.2,147.9l-9,2.5-11.1-11.6,14.5-1.7-1.7,9.4,7.3,1.4Z"/><path class="n" d="M575.7,136.3a295.92,295.92,0,0,0-38.9,12.5l-7.9,33.6c11.1-7.3,36.6-24,48-28.8,14.7-6.2,51.3-15.6,51.3-15.6l-13.3-8.8a333.31,333.31,0,0,0-39.2,7.1Z"/><path class="u" d="M637.7,139.6s-17.6,8.1-29.1,9.8-69.7-10.6-69.7-10.6,35.6-4.2,61.6-3.4S637.7,139.6,637.7,139.6Z"/><path class="r" d="M724.8,118.4s-21,12.2-39.4,17.6-27.8,6.5-27.8,6.5-38.8-3.7-57-4.3-61.8.6-61.8.6,21.5-7.9,41.1-13.3,44.2-9.1,79.6-9.9a491.8,491.8,0,0,1,65.3,2.8Z"/><path class="o" d="M657.4,180.6c-2.6-1.2-6.5-3.1-10.3-4.9-6.2-3.1-7.9-3.7-7.9-3.7l-19.3-8.2-1.4,11.3s2.3,0,16.2,1.7c7.5.9,15.9,2.5,22.7,3.8Z"/><path class="n" d="M680,141.9a77.34,77.34,0,0,1,6.8,3.9l3.2,2.1-7,2.1A14.94,14.94,0,0,1,680,141.9Z"/><path class="o" d="M667.8,155.8l5.7,2.6-4.3,2.2Z"/><path class="n" d="M655.3,162.3l10.5,2.3,1.7,4.3Z"/><path class="s" d="M655.3,162.3l6.6,7.4,5.6-.8-12.2-6.6Z"/><path class="r" d="M533.6,162.3l-12.8,54.2h9.3a225.28,225.28,0,0,1,18.2-20.4c16.2-16.4,43.6-33.7,43.6-33.7s-7.1-2.6-25.2-3.7a107.86,107.86,0,0,0-33.1,3.6Z"/><path class="x" d="M591.9,162.3c-30.7,14.5-56.2,44.8-63.6,54.1h49.8c1.6-2.4,3.8-5.8,5.6-8.5,3.1-4.8,11.3-17.6,11.3-17.6s-.6-2-1.1-8.8-2-19.2-2-19.2Z"/><path class="u" d="M595,190.4c-4,5.4-14.2,20.9-17.6,26.1H599Z"/><path class="n" d="M748,153.1c-3.3.9-7.2,2.1-11.6,3.6-19.8,6.8-23.8,9.1-23.8,9.1a35.42,35.42,0,0,1-2,11.9c-2.3,7.1-6,16.4-6,16.4l35.4-7.4,8-33.6Z"/><path class="o" d="M705.8,179.6s-1.4,6-8.2,19.3c-3.2,6.3-7.1,12.6-10.3,17.6H733l12.5-52.9c-5.7,1.7-19.8,5.9-26.7,9.5C710,177.6,705.8,179.6,705.8,179.6Z"/><path class="r" d="M733,216.5l9.8-41.4c-7.6,1.8-20.6,4.9-29.6,7.9-13.6,4.5-20.1,7.1-20.1,7.1s-4,5.7-15,13.3c-6.9,4.8-16.9,9.9-23.4,13.1Z"/><path class="p" d="M711.4,193.2c-9.6,2.9-24.5,8.1-37.3,12.7a215.88,215.88,0,0,1-19.6,10.5H733l7.2-30.6c-8,1.9-18.6,4.4-28.8,7.4Z"/><path class="n" d="M721.1,195.5c-13.9,3.7-20.4,7.4-20.4,7.4s-3.7,8.9-5.8,13.6H733l5.9-24.9c-5.6,1-12.1,2.4-17.8,3.9Z"/><path class="o" d="M715.7,203.7s-16.2,5.4-26.4,9.4c-3.1,1.2-5.7,2.4-7.8,3.4H733l2.5-10.6c-2.7-.3-5.8-.7-9-1l-10.8-1.2Z"/><path class="p" d="M744.7,224.4H509.2l2-9.1H746.7Z"/><path class="u" d="M744.7,224.3H509.2l11,7.1H755.7Z"/><path class="r" d="M746.7,215.3l10.8,7.7-1.8,8.4-11-7.1,2-9Z"/><path class="s" d="M746.4,216.7l.3-1.4H511.2l-.3,1.4Z"/><polygon class="y" points="528.2 339.68 529.07 350.38 541.92 350.38 546.16 346.3 549.79 342.79 538.43 331.36 532.89 331.17 528.2 339.68"/><polygon class="z" points="529.07 350.38 528.39 341.58 535.91 349.38 554.35 339.06 562.64 350.38 529.07 350.38"/><polygon class="y" points="481.46 331.17 487.15 338.38 489.08 349.83 478.93 349.83 474.21 345.73 469.19 339.68 473.07 332.96 481.46 331.17"/><polygon class="z" points="469.69 339.15 459.45 349.83 489.08 349.83 487.78 342.07 482.42 349.83 469.69 339.15"/><polygon class="aa" points="535.58 328.49 531.04 328.93 527.33 330.98 528.2 339.68 538.43 331.36 535.58 328.49"/><polygon class="aa" points="485.71 329.8 482.06 327.55 476.13 327.66 473.07 332.96 487.15 338.39 485.71 329.8"/><polygon class="ab" points="538.91 261.46 519.87 269.15 501.2 279.69 512.91 311.08 530.98 307.27 548.55 300.52 538.91 261.46"/><polygon class="ac" points="512.91 311.08 517.05 322.89 533.19 313.02 548.55 300.52 512.91 311.08"/><polygon class="ad" points="517.05 322.89 548.55 300.52 554.76 322.69 535.96 324.53 517.05 322.89"/><polygon class="ac" points="517.05 322.89 521.2 332.84 554.76 322.69 517.05 322.89"/><polygon class="ab" points="501.2 279.69 498.61 310.05 479.91 307.98 457.8 303 461.01 263.12 484.69 271.26 501.2 279.69"/><polygon class="ac" points="457.8 303 478.57 315.04 497.58 322.89 498.61 310.05 457.8 303"/><polygon class="ad" points="457.8 303 455.72 323.1 478.57 324.15 497.58 322.89 457.8 303"/><polygon class="ac" points="497.58 322.89 455.72 323.1 496.54 332.22 497.58 322.89"/><polygon class="ae" points="519.45 169.31 527.94 172.15 532.64 176.63 538.81 175.79 550.41 187.6 547.08 198.43 538.6 211.01 464.84 212.88 456.01 205.43 449.3 196.3 465.88 175.58 472.19 174.76 475.38 171.51 484.88 167.45 499.55 178 519.45 169.31"/><polygon class="af" points="538.91 261.46 501.2 279.69 461.01 263.12 464.84 212.88 471.1 205.76 477.38 202.21 526.48 199.51 532.28 202.58 538.6 211.01 538.91 261.46"/><polygon class="ac" points="436.04 194.64 395.85 200.65 383 235.04 401.23 263.84 437.91 276.69 474.27 268.59 470.85 234.22 444.95 229.24 436.04 194.64"/><polygon class="z" points="426.72 212.25 422.31 216.57 415.94 220.54 424.85 234.63 434.8 226.34 429.54 218.43 426.72 212.25"/><polygon class="aa" points="431.66 228.96 428.38 219.09 415.94 220.54 426.72 212.25 434.8 226.34 431.66 228.96"/><polygon class="y" points="428.38 219.09 415.94 220.54 412.42 233.85 416.3 235.98 428.38 219.09"/><rect class="ag" x="399.37" y="211.42" width="8.29" height="8.29" transform="translate(62.07 520.05) rotate(-69.84)"/><rect class="ah" x="394.4" y="225.1" width="8.29" height="8.29" transform="translate(45.99 524.36) rotate(-69.84)"/><rect class="ai" x="399.37" y="240.43" width="8.29" height="8.29" transform="translate(34.82 539.03) rotate(-69.83)"/><rect class="aj" x="412.01" y="250.79" width="8.29" height="8.29" transform="translate(33.4 557.71) rotate(-69.84)"/><rect class="ak" x="426.1" y="255.97" width="8.29" height="8.29" transform="translate(37.74 574.3) rotate(-69.83)"/><rect class="al" x="442.05" y="256.39" width="8.29" height="8.29" transform="translate(47.82 589.56) rotate(-69.84)"/><rect class="am" x="456.14" y="248.3" width="8.29" height="8.29" transform="translate(64.66 597.52) rotate(-69.84)"/><polygon class="y" points="464.84 212.88 444.95 229.24 439.46 207.91 449.3 196.3 464.84 212.88"/><polygon class="y" points="566.57 201.38 550.41 187.6 538.6 211.01 550.51 215.05 561.41 211.25 566.57 201.38"/><polygon class="ab" points="538.81 175.79 538.6 211.01 526.48 199.51 527.93 172.15 538.81 175.79"/><polygon class="ab" points="475.38 171.51 477.38 202.21 464.84 212.88 465.88 175.58 475.38 171.51"/><rect class="an" x="485.25" y="211.52" width="33.14" height="33.78"/><polygon class="ao" points="538.71 229.35 534.98 226.65 531.25 233.49 536.22 232.66 538.77 238.67 538.71 229.35"/><polygon class="ad" points="516.95 249.44 511.56 253.79 512.39 258.15 519.44 263.33 522.13 252.34 516.95 249.44"/><polygon class="ad" points="485.25 241.78 493.95 238.88 493.12 231.83 497.27 230.18 494.78 223.34 492.5 224.17 492.71 227.48 487.32 227.07 485.25 232.25 484.48 236.5 485.25 241.78"/><polygon class="ao" points="502.24 251.72 496.85 250.27 498.1 256.07 502.03 255.45 502.24 251.72"/><polygon class="ap" points="485.25 232.25 478.2 233.28 481.52 241.78 485.25 241.78 485.25 232.25"/><polygon class="aa" points="428.38 219.09 424.85 234.63 421.27 228.96 428.38 219.09"/><polygon class="ad" points="421.27 228.96 416.3 235.98 424.85 234.63 421.27 228.96"/><polygon class="z" points="550.51 215.05 579.36 190.16 588.93 189.61 587.31 200.89 571.12 221.7 550.51 215.05"/><polygon class="aa" points="579.36 190.16 587.31 200.89 594.6 198.34 588.8 183.31 579.36 190.16"/><polygon class="z" points="601.1 179.05 610.18 192.1 608.15 194.92 595.35 189.61 585.53 178 601.1 179.05"/><polygon class="ae" points="553.87 154.31 591.72 195.22 595.9 191.93 598.25 187.51 553.87 154.31"/><polygon class="ab" points="606.6 205.77 607.74 211.91 618.1 213.36 615.82 207.98 611.2 206.85 608.45 204.75 606.6 205.77"/><polygon class="af" points="608.15 194.92 611.2 206.85 600.07 204.25 603.73 198.81 608.15 194.92"/><polygon class="n" points="586.83 189.94 600.07 204.25 608.15 194.92 598.25 187.51 586.83 189.94"/><polygon class="y" points="583.91 196.3 586.83 189.94 596 191.02 598.25 187.51 585.53 178 579.36 190.16 583.91 196.3"/><polygon class="ad" points="447.61 104.37 492.16 93.57 538.55 79.96 537.92 73.27 534.13 63.5 490 83.5 447.61 104.37"/><polygon class="ac" points="534.13 63.5 487.04 75.17 439.47 90.39 441.5 96.51 447.61 104.37 534.13 63.5"/><polygon class="aq" points="481.84 65.3 477.54 79.58 496.38 74.23 481.84 65.3"/><polygon class="aq" points="534.13 63.5 541.66 66.02 549.88 71.99 540.3 87.13 538.19 82.81 538.55 79.96 534.13 63.5"/><polygon class="ad" points="534.13 63.5 533.16 55.81 535.02 45.81 544.64 60.13 549.88 71.99 534.13 63.5"/><polygon class="ab" points="535.02 45.81 560.32 61.55 549.88 71.99 535.02 45.81"/><polygon class="af" points="534.13 63.5 535.02 45.81 535.55 36.08 517.23 55.33 517.67 68.18 534.13 63.5"/><polygon class="ab" points="529.77 42.68 509.01 29 505.41 38.38 504.05 45.81 511.41 52.19 518.38 55.72 529.77 42.68"/><polygon class="ad" points="518.38 55.72 504.05 45.81 499.58 56.98 496.38 74.23 517.67 68.18 518.38 55.72"/><polygon class="ad" points="509.01 29 479.99 44.39 495.85 46.12 504.05 45.81 509.01 29"/><polygon class="ab" points="504.05 45.81 479.99 44.39 485.09 55.89 496.38 74.23 504.05 45.81"/><polygon class="aq" points="435.21 110.26 453.48 114.3 450.62 107.89 447.61 104.37 441.55 105.84 435.21 110.26"/><polygon class="ad" points="496.38 74.23 482.61 66.65 474.02 62.98 468.84 59.08 471.01 50.67 474.48 43.96 476.63 38.2 479.99 44.39 496.38 74.23"/><polygon class="ab" points="468.84 59.08 460.92 56.56 453.01 50.32 451.33 42.09 474.48 43.96 468.84 59.08"/><polygon class="af" points="468.84 59.08 453.01 50.32 445.05 60.94 450.38 71.31 459.34 84.75 466.7 68.71 468.84 59.08"/><polygon class="af" points="432.24 92.55 428.64 113.38 447.61 104.37 439.47 90.39 436.01 90.21 432.24 92.55"/><polygon class="ab" points="445.05 60.94 437.87 69.13 435.31 75.27 443.87 79.03 459.34 84.75 445.05 60.94"/><polygon class="ad" points="445.05 60.94 419.74 69.43 435.31 75.27 445.05 60.94"/><polygon class="ad" points="435.31 75.27 421.34 95.79 439.47 90.39 459.34 84.75 435.31 75.27"/><polygon class="ab" points="468.84 59.08 459.34 84.75 470.11 98.33 477.54 79.58 482.61 66.65 468.84 59.08"/><polygon class="y" points="538.55 79.96 554.13 143.83 525.82 153.91 522.07 160.63 519.45 169.31 507.27 177.75 497.15 188.24 479.52 155.7 467.52 138.05 457.92 121.83 455.89 113.84 447.61 104.37 538.55 79.96"/><polygon class="aa" points="475.56 128.54 470.74 120.44 462.91 124.49 469.7 127.69 475.56 128.54"/><polygon class="z" points="483.63 94.7 508.28 160.02 518.38 159.97 519.45 169.31 497.15 188.24 481.73 162.11 479.99 156.56 477.14 154.35 467.52 138.05 482.4 129.21 477.51 119.94 485.65 115.17 475.22 96.96 483.63 94.7"/><polygon class="z" points="498.4 104.25 507.06 104.2 516.97 117.64 515.07 101.79 509.58 93.75 498.4 104.25"/><polygon class="z" points="520.94 90.45 524.88 111.43 529 96.77 536.15 92.39 520.94 90.45"/><polygon class="af" points="509.58 93.75 496.03 98.83 498.4 104.25 509.58 93.75"/><polygon class="af" points="520.94 90.45 534.89 86.61 536.15 92.39 520.94 90.45"/><polygon class="aq" points="514.35 132.55 525.32 125.12 537.08 125.91 527.67 132.95 514.35 132.55"/><polygon class="ap" points="540.32 123.84 527.29 132.18 509.89 132.68 528.47 137.28 540.32 123.84"/><polygon class="af" points="475.22 96.96 485.65 115.17 477.51 119.94 473.27 113.04 457.92 121.83 447.61 104.37 475.22 96.96"/><polygon class="aa" points="525.82 153.91 501.93 162.23 519.45 169.31 525.82 153.91"/><polygon class="aa" points="482.31 134.2 478.67 148.5 471.11 140.17 482.31 134.2"/><polygon class="aa" points="493.46 144.65 481.73 162.11 477.19 154.32 482.61 148.5 493.46 144.65"/><path class="aq" d="M483.8,128.38l9.66,16.27-16.27,9.67-9.67-16.27,16.28-9.67Zm-10.46,11.15,5.33,9,9-5.33-5.33-9Z"/><rect class="ar" x="473.09" y="125.5" width="4.6" height="14.51" transform="translate(-1.12 261.45) rotate(-30.72)"/><polygon class="as" points="520.94 90.45 509.58 93.75 516.97 117.64 528.12 114.28 520.94 90.45"/><polygon class="aa" points="528.12 114.28 524.22 121.53 516.97 117.64 528.12 114.28"/><circle class="at" cx="507.72" cy="110.86" r="3.48"/><path class="au" d="M534.73,103.07a3.49,3.49,0,1,1-3.48-3.49A3.48,3.48,0,0,1,534.73,103.07Z"/></svg>