<svg xmlns="http://www.w3.org/2000/svg" viewBox="0 0 900 350"><defs><style>.cls-1{fill:#cececd;}.cls-2{fill:#c4c4c4;}.cls-3{fill:#dddddc;}.cls-4{fill:#f2bd68;}.cls-5{fill:#ececeb;}.cls-6{fill:#858686;}.cls-27,.cls-7{fill:#2b2b2b;}.cls-7{fill-opacity:0.1;}.cls-8{fill:#a3a3a3;}.cls-9{fill:#9da1a2;}.cls-10{fill:#e5c828;}.cls-11{fill:#e2a942;}.cls-12{fill:#8f8f8f;}.cls-13{fill:#f4d75d;}.cls-14{fill:#ccad14;}.cls-15{fill:#bc8f2d;}.cls-16{fill:#4f5253;}.cls-17{fill:#856400;}.cls-18{fill:#6f7173;}.cls-19{fill:#c3987b;}.cls-20{fill:#dfbda5;}.cls-21{fill:#755800;}.cls-22{fill:#fff;}.cls-23{fill:#474747;}.cls-24{fill:#8b6651;}.cls-25{fill:#e8cab6;}.cls-26{fill:#8d7c2f;}.cls-28{fill:#737373;}.cls-29{fill:#bf8f00;}</style></defs><title>explorers_Virtuoso_ISTP_career_path</title><g id="illustration_copy" data-name="illustration copy"><g id="Layer_1"><g id="_330223112" data-name=" 330223112"><polygon class="cls-1" points="647.51 0.74 620.54 26.08 686.57 31.54 678.02 8.11 647.51 0.74"/><polygon class="cls-1" points="14.3 289.87 19.46 318.02 52.18 303.43 160.51 214.13 164.64 140.29 163.76 104.34 31.84 158.27 14.3 289.87"/><path class="cls-2" d="M39.35,159.6,19.46,318,0,315.37,9,154.44S39.35,159.75,39.35,159.6Z"/><polygon class="cls-3" points="241.44 103.6 161.69 109.35 148.57 238.15 737.42 204.55 743.91 152.23 731.53 118.78 598.13 103.01 510.88 26.53 275.78 33.01 241.44 103.6"/><polygon class="cls-4" points="297.15 48.04 286.54 56 298.18 61.45 485.23 66.17 501.59 56.44 297.15 48.04"/><polygon class="cls-1" points="820.26 145.6 760.56 127.03 731.53 118.78 732.26 196.88 774.71 219.73 835.74 220.61 820.26 145.6"/><polygon class="cls-2" points="850.62 222.23 838.39 142.8 810.09 141.18 814.07 151.2 829.25 211.18 837.36 225.03 850.62 222.23"/><polygon class="cls-5" points="743.32 105.52 722.09 111.26 731.53 118.78 814.07 151.2 838.39 142.8 743.32 105.52"/><polygon class="cls-5" points="737.87 59.09 597.39 11.35 586.93 20.93 654.73 52.02 741.11 72.5 744.35 65.28 737.87 59.09"/><polygon class="cls-3" points="821.44 70.59 737.87 59.09 741.11 72.5 788.27 78.11 824.39 76.63 824.53 72.8 821.44 70.59"/><polygon class="cls-1" points="863.3 43.77 821.44 70.59 824.39 76.63 850.03 63.22 863.3 43.77"/><polygon class="cls-5" points="664.76 0 647.51 0.74 663.73 8.4 678.02 8.11 664.76 0"/><polygon class="cls-5" points="731.53 118.78 693.5 114.5 569.1 93.58 581.77 82.67 743.32 105.52 731.53 118.78"/><polygon class="cls-3" points="504.68 34.93 570.27 101.98 569.1 93.58 517.21 18.27 504.39 26.82 504.68 34.93"/><polygon class="cls-6" points="499.38 47.89 489.94 61.3 540.06 46.42 593.27 18.27 597.39 11.35 499.38 47.89"/><polygon class="cls-5" points="504.68 34.93 278.43 43.18 266.94 42.59 266.2 31.09 517.21 18.27 504.68 34.93"/><polygon class="cls-1" points="266.2 31.09 229.35 93.14 229.94 100.8 241.44 103.6 278.43 43.18 266.2 31.09"/><polygon class="cls-5" points="229.35 93.14 150.05 100.8 156.09 109.64 241.44 103.6 229.35 93.14"/><polygon class="cls-5" points="8.99 154.44 39.35 159.6 162.13 109.49 150.05 100.8 8.99 154.44"/><polygon class="cls-7" points="254.55 114.65 160.37 122.17 161.69 109.79 150.05 100.8 229.35 93.14 266.2 31.09 517.21 18.27 529.74 36.55 499.38 47.89 393.11 51.87 297.15 48.04 286.54 56 254.55 114.65"/><polygon class="cls-7" points="842.22 167.56 820.7 177.73 731.67 135.14 540.21 102.42 598.13 103.01 743.32 105.52 838.39 142.8 842.22 167.56"/><polygon class="cls-7" points="7.52 180.82 35.82 187.31 160.37 122.17 162.13 109.49 150.05 100.8 8.99 154.44 7.52 180.82"/><polygon class="cls-2" points="829.25 223.12 732.26 196.88 150.49 208.23 99.34 251.12 251.02 312.42 586.78 348.23 829.25 223.12"/><polygon class="cls-8" points="824.39 76.63 824.39 90.34 854.6 89.16 878.33 62.48 883.2 47.45 863.3 43.77 824.39 76.63"/><polygon class="cls-3" points="586.64 60.42 593.27 18.27 741.11 72.5 736.1 87.24 703.37 91.07 586.64 60.42"/><polygon class="cls-6" points="693.5 114.5 698.22 89.75 706.91 82.53 727.99 83.26 755.85 87.24 775.3 99.77 693.5 114.5"/><polygon class="cls-9" points="741.11 72.5 727.99 83.26 774.12 100.06 782.08 96.08 785.18 88.86 768.67 79.14 741.11 72.5"/><polygon class="cls-2" points="824.39 76.63 829.99 86.06 809.06 91.96 782.38 89.16 741.11 72.5 824.39 76.63"/><polygon class="cls-6" points="830.43 120.4 774.12 100.06 782.38 89.16 815.69 103.89 830.43 120.4"/><polygon class="cls-9" points="830.43 120.4 782.38 89.16 829.1 84.59 854.6 89.16 863.3 86.36 869.19 91.96 830.43 120.4"/><polygon class="cls-10" points="869.49 60.72 854.6 89.16 869.19 91.96 878.33 62.48 869.49 60.72"/><polygon class="cls-11" points="486.11 105.07 489.94 159.6 496.58 151.05 501.59 56.44 489.94 61.3 486.11 105.07"/><path class="cls-8" d="M376.3,182.15,377.78,167l19.6-2.95,19.46,1.47s3.83,16.95,3.83,17.84S376.3,182.15,376.3,182.15Z"/><path class="cls-12" d="M428.48,155.77l-16.8-1.48-5.46,4.43,10.62,6.77-.3,18.13s8.55-1,8.55-2.36S428.48,155.77,428.48,155.77Z"/><polygon class="cls-12" points="19.46 318.02 469.75 309.03 509.4 283.24 509.69 276.31 404.9 268.5 122.04 268.5 67.06 278.08 19.46 318.02"/><polygon class="cls-7" points="74.14 285.31 108.48 292.97 69.57 311.98 37.44 302.84 49.08 293.12 74.14 285.31"/><polygon class="cls-10" points="516.48 308 469.75 309.03 473.73 294.59 496.28 289.14 518.83 294.59 523.55 302.99 516.48 308"/><polygon class="cls-6" points="586.78 348.23 516.48 308 518.83 294.59 563.64 309.92 595.48 326.27 594.15 340.27 586.78 348.23"/><polygon class="cls-12" points="769.41 350 586.78 348.23 589.14 330.84 688.19 319.94 772.21 323.62 776.34 340.42 769.41 350"/><polygon class="cls-6" points="853.27 324.65 769.41 350 766.75 330.84 808.76 306.38 851.06 292.38 855.63 307.56 853.27 324.65"/><polygon class="cls-12" points="900 264.38 853.27 324.65 850.03 299.75 863.3 262.17 889.24 242.27 900 264.38"/><polygon class="cls-8" points="539.91 271.31 518.83 294.59 589.14 330.84 766.75 330.84 850.03 299.75 889.24 242.27 829.25 211.18 668.15 211.18 661.51 211.18 573.81 246.25 539.91 271.31"/><polygon class="cls-10" points="670.06 235.49 785.91 239.77 775.45 252.29 727.69 252.29 710.15 280.74 759.09 280.74 752.16 293.85 623.49 299.16 636.31 280.74 683.92 280.74 708.68 252.29 660.63 252.29 670.06 235.49"/><polygon class="cls-8" points="67.06 278.08 509.69 276.31 529.15 267.18 531.51 258.19 439.98 258.19 338.27 248.76 246.15 253.62 99.34 251.12 67.06 278.08"/><polygon class="cls-7" points="541.83 239.18 589.88 231.66 581.63 216.93 517.21 218.11 436.29 232.4 246.15 253.62 358.91 268.5 439.98 258.19 492.3 249.49 521.49 233.43 541.83 239.18"/><polygon class="cls-8" points="510.58 220.32 508.37 225.03 510.29 235.05 515.3 239.77 521.49 233.43 517.21 218.11 510.58 220.32"/><polygon class="cls-6" points="426.71 244.78 439.98 258.19 471.96 229.16 473.44 212.06 472.4 188.63 452.95 196.59 442.04 211.18 432.9 220.02 432.61 229.45 426.71 244.78"/><polygon class="cls-13" points="531.51 246.25 521.93 254.21 518.39 261.58 511.17 263.2 500.7 272.04 498.35 276.31 491.27 280 473.73 294.59 518.83 294.59 522.52 288.55 529 285.6 538.29 277.64 541.24 271.9 548.46 268.65 558.63 259.66 561.58 253.77 568.8 250.67 573.81 246.25 558.78 246.25 548.17 249.05 531.51 246.25"/><polygon class="cls-8" points="345.79 234.76 252.78 225.47 269.14 212.5 359.35 206.91 442.04 211.18 432.61 229.45 345.79 234.76"/><polygon class="cls-6" points="269.14 212.5 275.78 212.5 352.87 215.45 430.1 211.33 442.04 211.18 444.84 204.1 443.96 197.18 352.72 191.28 270.77 194.67 269.14 212.5"/><polygon class="cls-12" points="246.15 253.62 439.98 258.19 432.61 229.45 252.78 225.47 246.15 253.62"/><polygon class="cls-1" points="296.86 174.34 270.77 194.67 443.96 197.18 460.17 189.81 471.96 176.11 296.86 174.34"/><polygon class="cls-8" points="472.4 188.63 471.96 176.11 443.96 197.18 442.04 211.18 472.4 188.63"/><polygon class="cls-12" points="277.1 219.58 414.48 221.94 430.1 211.33 275.78 212.5 277.1 219.58"/><path class="cls-9" d="M298.48,179.2,296,180.82l5.6.15,2.36-1.77Zm-4.57,3.24-2.21,1.48,5.45.14,2.21-1.62Zm-4.28,3.1L287,187.3l5.45.15,2.66-1.91Zm9,1.91h-3.68l2.51-1.77h3.83l-2.66,1.77Zm4.87-3.24,2.06-1.62h-3.68l-2.21,1.47,3.83.15Zm4.27-3.09,2.51-1.77h-3.83L303.93,181l3.83.15ZM305,187.6l2.51-1.77-3.69-.15-2.65,1.92Zm4.72-3.39,2.21-1.47-3.83-.15-2.21,1.62Zm4.27-3.09,2.51-1.63-3.83-.14-2.36,1.77Zm-2.8,6.63-3.83-.15,2.65-1.77h3.84l-2.66,1.92Zm4.72-3.39,2.21-1.62h-3.83L312,184.21l3.83.15Zm4.42-3.1,2.36-1.77H319l-2.5,1.77Zm-3,6.49L320,186l-3.84-.15-2.5,1.92Zm4.72-3.39,2.21-1.48h-3.68l-2.21,1.48Zm4.42-3,2.51-1.77-3.83-.15-2.51,1.77,3.83.15Zm-2.8,6.48h-3.83l2.51-1.91h3.83l-2.51,1.91Zm4.72-3.39,2.21-1.47-3.83-.15-2.21,1.62Zm4.27-3.09,2.51-1.77h-3.83l-2.51,1.77Zm-2.8,6.63,2.51-1.92h-3.69L326,187.89l3.83.15Zm4.72-3.39L336.8,183H333l-2.07,1.47,3.69.15Zm4.27-3.09,2.51-1.77h-3.69l-2.5,1.77Zm-2.8,6.48h-3.83l2.65-1.92,3.84.15L336.06,188Zm4.87-3.39,2.06-1.47h-3.83l-2.07,1.47Zm4.27-2.94,2.51-1.77-3.83-.15-2.51,1.77,3.83.15Zm-2.95,6.48,2.66-1.92h-3.69L338.57,188l3.68.15Zm4.87-3.39,2.06-1.47-3.68-.15-2.21,1.62Zm4.27-3.09,2.51-1.77h-3.83l-2.36,1.77Zm-2.8,6.63-3.83-.15,2.65-1.77h3.83l-2.65,1.92Zm4.72-3.39,2.21-1.62h-3.83l-2.21,1.47,3.83.15Zm4.42-3.1,2.36-1.77h-3.83l-2.36,1.63,3.83.14Zm-3,6.49,2.66-1.77-3.84-.15-2.5,1.92ZM359.5,185l2.21-1.48-3.83-.14L355.81,185Zm4.42-3.1,2.36-1.62-3.69-.15-2.5,1.77Zm-2.8,6.63-3.83-.14,2.5-1.77h3.84l-2.51,1.91Zm4.72-3.39,2.06-1.47-3.68-.15L362,185.09Zm4.27-3.09,2.51-1.77h-3.84l-2.5,1.77Zm-2.8,6.48,2.51-1.77h-3.69l-2.65,1.77Zm4.72-3.24,2.21-1.62h-3.83l-2.21,1.47,3.83.15Zm4.27-3.09,2.51-1.77H375L372.62,182l3.68.15Zm-2.8,6.48h-3.83l2.65-1.92,3.84.15-2.66,1.77Zm4.72-3.39,2.21-1.47-3.83-.15-2.07,1.62Zm4.42-3.09,2.36-1.62-3.69-.15-2.5,1.77ZM381,188.78l2.5-1.92h-5l-2.5,1.77,5,.15Zm4.72-3.39,2.21-1.47-5-.15-2.21,1.47,5,.15Zm4.27-3.1,2.51-1.76h-5l-2.5,1.76Z"/><polygon class="cls-14" points="403.42 179.05 388.68 190.4 394.73 190.4 453.69 182.29 457.07 179.94 403.42 179.05"/><polygon class="cls-2" points="370.11 157.54 377.78 166.97 416.84 165.49 409.17 156.36 370.11 157.54"/><polygon class="cls-13" points="293.91 159.6 489.94 159.6 489.94 61.3 286.54 56 293.91 159.6"/><path class="cls-8" d="M301.72,149.58H482.13v-2.51h-87.4c-30.37,0-61.47-.14-93.16-.14A15.77,15.77,0,0,0,301.72,149.58Z"/><path class="cls-4" d="M309.38,144c3.25,0,6.64.15,10,.15-.45-7.08-.74-14-1.18-21.08s-.59-14.14-1-21.22c-3.25,0-6.64-.15-10-.15.3,7.08.74,14.15,1,21.22S308.94,137.05,309.38,144Z"/><path class="cls-11" d="M325,144.13h9.87c-.44-9.44-.73-18.72-1.17-28.15s-.89-19-1.33-28.59c-3.39,0-6.63-.15-10-.15.44,9.58.88,19.16,1.32,28.59S324.57,134.69,325,144.13Z"/><path class="cls-15" d="M340.48,144.13h9.88c-.59-12.38-1-24.91-1.47-37.44s-1-25.49-1.62-38.31c-3.25-.15-6.64-.3-10-.3L339,106.55C339.45,119.07,340,131.6,340.48,144.13Z"/><path class="cls-8" d="M362.15,67.94l61.32,1.76,58.66,1.77h.74v68.09h-.74c-18.86,0-38-.15-57.48-.15-19.61-.15-39.65-.15-59.84-.29h-.89v-.74c-.44-11.35-.88-22.84-1.18-34.49s-.88-23.28-1.33-35.22v-.73ZM376.3,70c.15,3.83.3,7.81.3,11.64,4.12.15,8.25.15,12.23.3,0-3.84-.15-7.67-.29-11.65-4.13,0-8.11-.14-12.24-.29Zm13.86.44c.14,3.83.29,7.66.29,11.5,4.13.14,8.11.29,12.24.29-.15-3.83-.3-7.66-.3-11.49-4.13-.15-8.1-.3-12.23-.3Zm13.85.3c0,3.83.15,7.81.15,11.64,4.13,0,8.11.15,12.09.15-.15-3.69-.15-7.52-.3-11.35L404,70.74Zm13.56.44c0,3.83.15,7.66.15,11.49,4,0,8,.15,11.94.3-.15-3.83-.15-7.67-.15-11.5-4,0-8-.14-11.94-.29Zm13.42.44c.14,3.83.14,7.52.14,11.35,4,.15,8,.15,11.79.29,0-3.83-.14-7.51-.14-11.34-3.83-.15-7.81-.3-11.79-.3Zm13.41.3c0,3.83,0,7.66.15,11.34,3.83.15,7.66.3,11.49.3V72.36l-11.64-.44Zm13.12.44c0,3.83.14,7.51.14,11.2,3.84.15,7.67.29,11.5.29V72.65c-3.83-.15-7.81-.15-11.64-.29Zm13.11.29V84c3.54,0,7.23.15,10.76.15V73.09c-3.68-.14-7.22-.29-10.76-.44Zm10.76,13.12c-3.53,0-7.22-.15-10.76-.3,0,4.28,0,8.4.15,12.53,3.54,0,7.08.15,10.61.15V85.77Zm0,14c-3.53-.15-7.07-.15-10.61-.3v12.38c3.54,0,7.08.15,10.61.15V99.77Zm0,13.7c-3.53,0-7.07,0-10.61-.14v12.23c3.54.14,7.08.14,10.61.14V113.47Zm0,13.86c-3.53-.15-7.07-.15-10.61-.15,0,3.68,0,7.22.15,10.9h10.46V127.33Zm-11.93,10.61c-.15-3.54-.15-7.22-.15-10.76-3.69,0-7.52-.15-11.35-.15,0,3.69,0,7.37.15,10.91Zm-13,0V127c-3.84,0-7.67,0-11.5-.15,0,3.69.15,7.37.15,11.06Zm-13,0V126.88H431.87c0,3.69.15,7.37.15,10.91,3.83.15,7.66.15,11.49.15Zm-13-.15c-.14-3.54-.14-7.22-.29-10.91-3.83-.14-7.67-.14-11.64-.14.14,3.68.14,7.36.14,11Zm-13.26,0c0-3.69-.15-7.37-.15-11-4,0-8-.15-11.94-.15.15,3.68.3,7.51.3,11.2Zm-13.27,0c-.14-3.69-.29-7.52-.29-11.2-4,0-8,0-11.94-.15,0,3.83.15,7.52.29,11.2,4,0,8,0,11.94.15Zm-13.56-.15c-.15-3.68-.29-7.37-.29-11.2H378.07c.15,3.69.3,7.37.3,11.2Zm-13.56,0c-.15-3.83-.29-7.51-.44-11.2-3.83-.15-7.52-.15-11.35-.15.15,3.69.29,7.52.44,11.2,3.69.15,7.52.15,11.35.15Zm-11.79-13c3.68,0,7.52,0,11.35.15-.15-4.27-.29-8.55-.44-12.67-3.83-.15-7.67-.15-11.35-.15.15,4.13.29,8.4.44,12.67Zm-.59-14.29c3.83,0,7.67,0,11.5.15q-.22-6.42-.44-12.82c-3.84,0-7.67-.15-11.5-.15q.23,6.41.44,12.82Zm-.44-14.44c3.83,0,7.66.14,11.5.14l-.45-12.82c-3.83-.14-7.66-.14-11.49-.29.14,4.27.29,8.55.44,13Zm-.59-14.59c3.83,0,7.66.14,11.64.29-.14-4-.29-7.81-.44-11.64-3.83-.15-7.66-.3-11.64-.44.14,4,.29,7.81.44,11.79Zm13.26,1.91.45,12.82c4,.15,8.1.15,12.08.3-.15-4.28-.29-8.55-.29-12.82-4.13-.15-8.26-.15-12.24-.3Zm.45,14.45q.21,6.41.44,12.82c4,0,8,.14,12.09.14-.15-4.27-.3-8.4-.45-12.67-4-.15-8-.15-12.08-.29Zm.44,14.44c.15,4.27.29,8.4.44,12.67H390c0-4.13-.15-8.25-.29-12.53-4,0-8.11-.14-12.09-.14Zm91.53-26.68c-3.83,0-7.66-.14-11.5-.29,0,4.27,0,8.4.15,12.53,3.83,0,7.67.14,11.35.14V85.47Zm-13-.29c-4-.15-7.81-.15-11.64-.3,0,4.28,0,8.4.14,12.53,3.84.15,7.67.15,11.5.3V85.18Zm-13.27-.3c-3.83-.14-7.81-.14-11.64-.29,0,4.27,0,8.4.15,12.53,3.83.14,7.81.14,11.64.29,0-4.13-.15-8.4-.15-12.53Zm-13.26-.29c-4-.15-8-.3-11.94-.3.15,4.13.3,8.4.3,12.68,4,0,8,.15,11.79.15,0-4.13-.15-8.4-.15-12.53Zm-13.41-.3c-4-.14-8-.29-11.94-.29,0,4.13.14,8.4.14,12.67,4.13,0,8.11.15,12.09.15-.15-4.13-.29-8.4-.29-12.53Zm-13.56-.44c-4,0-8.11-.14-12.09-.29,0,4.27.15,8.54.29,12.82,4,.15,8.11.15,12.09.29-.15-4.27-.15-8.54-.29-12.82Zm-11.06,41c4,.15,8,.15,11.94.15,0-4.13-.15-8.25-.29-12.53-4,0-8,0-11.94-.15.14,4.28.29,8.4.29,12.53Zm13.56.15c4,.15,8,.15,11.79.15,0-4.13-.14-8.26-.14-12.53-4,0-8,0-11.94-.15.14,4.28.14,8.4.29,12.53Zm13.42.15c3.83,0,7.81.14,11.64.14,0-4.12-.15-8.25-.15-12.38-4-.14-7.81-.14-11.79-.14.15,4.12.15,8.25.3,12.38Zm13.26.14c3.83,0,7.66,0,11.5.15V113c-4,0-7.82-.15-11.65-.15,0,4.13,0,8.26.15,12.38Zm13.12.15h11.5c0-4-.15-8.11-.15-12.23-3.83,0-7.67-.15-11.5-.15,0,4.13,0,8.25.15,12.38Zm13,0c3.83.15,7.66.15,11.35.15V113.33c-3.83,0-7.67,0-11.5-.15,0,4.12.15,8.25.15,12.23Zm-66.62-14.74c4,.15,8,.15,11.94.15,0-4.13-.15-8.4-.3-12.53-4-.14-8-.14-12.09-.29.15,4.27.3,8.55.45,12.67Zm13.56.3c4,0,8,0,11.79.15,0-4.28-.15-8.4-.15-12.68-4,0-8-.15-11.94-.15,0,4.28.15,8.4.3,12.68Zm13.41.15c4,0,7.81.14,11.79.14-.15-4.12-.15-8.4-.29-12.52-3.84,0-7.81-.15-11.79-.15.14,4.13.14,8.25.29,12.53Zm13.27.14c4,0,7.81.15,11.64.15,0-4.13,0-8.25-.15-12.38-3.83-.15-7.81-.15-11.64-.29,0,4.27.15,8.4.15,12.52Zm13.26.15c3.83.15,7.67.15,11.5.15,0-4,0-8.11-.15-12.23-3.83-.15-7.66-.15-11.5-.3,0,4.13,0,8.25.15,12.38Zm13,.3c3.83,0,7.67,0,11.5.14,0-4.12,0-8.25-.15-12.38-3.68,0-7.52-.14-11.35-.14Z"/><path class="cls-4" d="M363.77,137.35l12.68-12.68c4.42-4.71,8.7-9.43,13.12-14.29a.31.31,0,0,0,.29-.3h.59c4.42,0,8.85.15,13.27.15,4.27-4.42,8.55-9,12.82-13.41l1.77,1.77c-4.42,4.72-8.7,9.28-13.12,13.85l-.44.44h-.44c-4.43-.14-8.85-.14-13.27-.29-4.27,4.71-8.4,9.28-12.67,13.85h0l-12.68,12.68A22.35,22.35,0,0,1,363.77,137.35Z"/><path class="cls-15" d="M364.66,135.43a2.9,2.9,0,0,1,2.8,2.8,2.64,2.64,0,0,1-2.65,2.65,2.77,2.77,0,0,1-2.81-2.65,2.6,2.6,0,0,1,2.66-2.8ZM417.43,94.9a2.88,2.88,0,0,1,2.65,2.81,2.67,2.67,0,0,1-2.65,2.79,2.86,2.86,0,0,1-2.66-2.79,2.68,2.68,0,0,1,2.66-2.81Zm-13.27,13.86a2.9,2.9,0,0,1,2.8,2.8,2.55,2.55,0,0,1-2.65,2.65,2.86,2.86,0,0,1-2.8-2.65,2.68,2.68,0,0,1,2.65-2.8Zm-13.71-.15a2.89,2.89,0,0,1,2.8,2.8,2.64,2.64,0,0,1-2.65,2.65,2.79,2.79,0,0,1-2.8-2.8,2.64,2.64,0,0,1,2.65-2.65Zm-13.12,14.15a3,3,0,0,1,2.8,2.8,2.67,2.67,0,0,1-2.65,2.8,2.9,2.9,0,0,1-2.8-2.8A2.77,2.77,0,0,1,377.33,122.76Z"/><polygon class="cls-14" points="491.27 280 518.83 294.59 529 285.6 500.7 272.04 491.27 280"/><polygon class="cls-14" points="511.17 263.2 538.29 277.64 548.46 268.65 521.93 254.21 511.17 263.2"/><polygon class="cls-14" points="531.51 246.25 558.63 259.66 568.8 250.67 558.78 246.25 531.51 246.25"/><polygon class="cls-6" points="566.89 178.76 577.2 173.16 589.43 168.59 590.91 178.32 582.95 223.41 573.08 231.66 568.06 203.22 566.89 178.76"/><polygon class="cls-3" points="540.21 169.47 524.58 181.56 545.81 183.18 569.54 180.82 589.43 168.59 540.21 169.47"/><polygon class="cls-6" points="564.97 172.42 563.94 168.15 559.22 171.09 560.1 176.69 564.97 172.42"/><polygon class="cls-8" points="545.07 176.55 546.1 172.27 554.65 171.24 560.25 172.57 560.1 176.69 545.07 176.55"/><polygon class="cls-2" points="563.94 168.15 560.25 172.57 546.1 172.27 550.08 168 563.94 168.15"/><polygon class="cls-12" points="550.82 141.03 549.93 170.5 552.74 170.65 555.39 150.76 550.82 141.03"/><polygon class="cls-8" points="521.49 233.43 573.08 231.66 570.87 198.8 544.92 190.84 523.7 197.92 521.49 233.43"/><polygon class="cls-2" points="524.58 181.56 569.54 180.53 570.87 198.8 559.66 198.8 554.65 207.05 537.7 205.87 534.02 198.51 523.7 197.92 524.58 181.56"/><polygon class="cls-1" points="597.1 189.52 593.86 190.1 587.23 185.98 585.01 181.26 590.76 177.28 598.58 184.95 597.1 189.52"/><polygon class="cls-2" points="581.48 191.43 589.29 195.56 592.09 196.44 593.86 190.1 585.01 181.26 577.94 185.69 581.48 191.43"/><polygon class="cls-8" points="580.74 231.96 582.66 201.9 578.23 197.33 577.94 185.69 589.29 195.56 591.21 216.63 589.43 231.66 580.74 231.96"/><polygon class="cls-6" points="589.43 231.66 589.29 195.56 593.86 190.1 596.95 203.52 597.25 224.29 589.43 231.66"/><polygon class="cls-8" points="597.25 224.29 603.14 218.4 598.58 184.95 593.86 190.1 597.25 224.29"/><polygon class="cls-16" points="593.27 18.27 489.94 61.3 505.27 68.67 557.45 73.98 588.7 62.48 592.38 52.46 593.27 18.27"/><polygon class="cls-8" points="540.21 102.42 489.94 61.3 556.27 68.23 555.98 90.34 540.21 102.42"/><polygon class="cls-6" points="598.13 103.01 540.21 102.42 556.27 68.23 578.68 78.84 598.13 103.01"/><polygon class="cls-2" points="592.38 52.46 556.27 68.23 598.13 103.01 601.08 72.65 592.38 52.46"/><polygon class="cls-8" points="603.88 104.78 598.13 103.01 592.38 52.46 602.56 56.74 621.72 60.72 603.88 104.78"/><polygon class="cls-2" points="597.1 113.62 602.56 56.74 706.91 82.53 684.8 135.43 640.88 134.55 597.1 113.62"/><path class="cls-13" d="M601.82,65.14l10,5-1.92,14L600.34,80Zm15.77,8,11.94,6-1.62,12.52L615.53,86.5Zm17.83,9,11.35,5.75-1.91,11-11.35-4.71Zm16.51,8.26,13.12-.3-2.65,10.61-13.12.15Zm19.46-.3,12.53-.29-2.66,10.75-12.82.15Zm18.87-.44,13.85-.15-4.57,10.76-12.23.15Z"/><polygon class="cls-9" points="597.1 113.62 605.8 122.61 639.4 143.68 674.78 140.15 684.8 135.43 641.47 132.48 597.1 113.62"/><polygon class="cls-6" points="604.91 136.17 605.8 122.61 639.85 137.64 674.78 140.15 669.77 151.5 635.57 152.67 604.91 136.17"/><polygon class="cls-1" points="643.68 21.52 686.57 31.54 706.91 82.53 654 81.94 602.56 56.74 643.68 21.52"/><polygon class="cls-14" points="616.85 44.51 658.12 64.11 700.13 65.58 706.91 82.53 654 81.94 602.56 56.74 616.85 44.51"/><polygon class="cls-6" points="500.56 243.45 498.94 231.96 499.38 227.83 508.37 225.03 515.3 239.77 506.16 248.76 500.56 243.45"/><polygon class="cls-8" points="447.05 231.66 449.7 243.75 488.91 242.72 492.3 249.49 506.16 248.76 498.94 231.96 472.99 229.16 447.05 231.66"/><polygon class="cls-3" points="479.92 226.65 461.2 221.05 473.44 212.06 517.21 218.11 508.37 225.03 479.92 226.65"/><polygon class="cls-2" points="461.2 221.05 447.05 231.66 498.94 231.96 508.37 225.03 461.2 221.05"/><polygon class="cls-3" points="543.74 125.11 546.84 126.44 546.84 130.42 544.63 132.04 542.27 131.75 543.74 125.11"/><polygon class="cls-2" points="550.38 132.19 546.84 130.42 542.27 131.75 544.78 134.84 548.9 135.14 550.38 132.19"/><polygon class="cls-2" points="566.29 128.65 566 125.56 564.09 125.85 562.76 128.5 564.38 129.24 566.29 128.65"/><polygon class="cls-3" points="566 125.56 564.09 124.08 561.73 126.29 563.2 127.62 566 125.56"/><polygon class="cls-8" points="564.38 132.93 566.29 128.65 562.76 128.5 560.99 131.6 562.32 132.63 564.38 132.93"/><polygon class="cls-2" points="560.69 122.76 562.17 123.64 561.73 126.29 560.69 127.03 558.63 126 559.37 123.79 560.69 122.76"/><polygon class="cls-3" points="557.6 121.28 557.89 123.94 562.17 123.64 560.69 120.69 557.6 121.28"/><polygon class="cls-8" points="558.78 125.7 561.73 126.29 560.99 131.6 558.63 131.31 557.3 130.13 558.78 125.7"/><polygon class="cls-3" points="554.65 117.89 557.6 121.28 556.86 122.46 554.65 122.31 552.44 119.81 554.65 117.89"/><polygon class="cls-2" points="554.95 125.7 554.65 122.31 557.6 121.28 558.19 125.85 556.42 126.15 554.95 125.7"/><polygon class="cls-8" points="553.47 128.65 554.95 125.7 558.19 125.85 557.3 130.13 556.42 130.57 553.47 128.65"/><polygon class="cls-3" points="548.9 118.93 552.88 122.46 551.56 124.23 549.35 123.79 547.28 121.73 548.9 118.93"/><polygon class="cls-2" points="550.08 126.29 549.35 123.79 552.88 122.46 553.03 125.85 551.7 126.44 550.08 126.29"/><polygon class="cls-8" points="553.47 128.65 553.03 125.85 550.08 126.29 550.38 129.68 553.18 130.72 553.47 128.65"/><polygon class="cls-2" points="550.52 134.84 552.44 139.71 558.63 139.85 560.69 137.94 564.38 132.93 553.47 128.65 550.38 129.68 550.52 134.84"/><polygon class="cls-8" points="550.38 132.19 544.78 134.84 550.82 141.03 553.77 140.44 557.6 136.17 550.38 132.19"/><polygon class="cls-8" points="561.43 141.77 558.93 140.59 557.6 136.17 564.38 132.93 561.43 141.77"/><polygon class="cls-8" points="561.43 141.77 561.58 169.62 558.34 169.62 550.82 141.03 557.16 139.71 561.43 141.77"/><polygon class="cls-7" points="273.57 277.2 216.82 264.23 160.37 277.64 217.56 293.7 273.57 277.2"/><polygon class="cls-17" points="229.64 269.68 226.55 273.07 226.4 277.49 252.93 277.35 253.23 273.07 229.64 269.68"/><polygon class="cls-14" points="237.16 261.87 253.23 273.07 226.55 273.07 226.69 264.38 233.33 252.74 237.16 261.87"/><polygon class="cls-18" points="238.63 236.23 237.9 262.31 226.69 264.38 221.54 250.23 228.46 230.19 238.63 236.23"/><polygon class="cls-16" points="218.44 242.42 221.39 250.23 238.49 239.62 227.14 235.05 218.44 242.42"/><polygon class="cls-18" points="187.34 240.95 185.57 265.26 189.11 273.51 197.36 264.97 204.29 249.35 199.72 242.42 187.34 240.95"/><polygon class="cls-16" points="202.96 238.44 207.39 242.57 204.29 249.35 187.34 240.95 202.96 238.44"/><polygon class="cls-10" points="224.48 210.88 232 229.16 221.68 237.41 203.55 241.09 187.78 232.55 189.85 200.27 210.78 200.42 224.48 210.88"/><polygon class="cls-19" points="208.56 124.08 238.19 122.02 247.18 140.29 251.46 148.99 240.7 161.96 208.56 124.08"/><polygon class="cls-20" points="250.28 156.21 251.46 148.99 239.81 147.96 240.84 156.21 250.28 156.21"/><polygon class="cls-21" points="253.23 156.8 240.99 154.59 237.6 165.35 251.9 164.61 253.23 156.8"/><polygon class="cls-19" points="195.59 119.66 193.09 85.03 188.81 59.83 202.67 58.36 202.08 49.22 251.9 40.67 250.43 48.48 219.03 67.79 218.29 118.34 195.59 119.66"/><polygon class="cls-15" points="191.76 75.01 191.76 30.65 236.13 28 251.9 40.67 250.43 48.48 229.94 56.59 204 61.16 204.44 69.85 200.02 73.39 199.43 75.01 191.76 75.01"/><polygon class="cls-14" points="191.76 30.65 180.85 45.39 175.4 52.46 172.01 78.4 162.13 109.49 183.95 121.58 201.05 116.27 191.76 75.01 191.76 30.65"/><polygon class="cls-22" points="192.2 49.81 186.75 55.85 189.7 62.04 192.2 49.81"/><polygon class="cls-17" points="192.2 49.81 191.76 75.01 177.47 48.78 176.88 39.94 191.76 30.65 192.2 49.81"/><polygon class="cls-10" points="172.01 78.4 191.76 75.01 173.49 115.83 162.13 109.49 172.01 78.4"/><polygon class="cls-20" points="201.64 89.75 193.24 90.04 191.76 75.01 200.02 73.39 201.64 89.75"/><polygon class="cls-16" points="183.95 121.58 187.78 146.93 195.89 173.75 224.48 169.47 227.28 160.48 241.73 137.35 238.19 122.02 228.02 118.63 209.45 121.58 195.45 118.04 183.95 121.58"/><polygon class="cls-10" points="254.85 48.78 251.9 40.67 191.76 30.65 227.28 52.61 254.85 48.78"/><polygon class="cls-14" points="202.37 54.23 192.2 43.62 191.76 30.65 228.61 52.46 202.37 54.23"/><polygon class="cls-14" points="185.57 265.26 181.15 277.64 188.22 281.03 201.34 277.49 197.36 264.97 185.57 265.26"/><polygon class="cls-21" points="191.76 75.01 175.4 52.46 176.88 39.94 191.76 75.01"/><polygon class="cls-23" points="220.36 151.79 187.78 145.9 190.88 182 191.91 184.65 229.05 188.04 236.13 182.29 242.02 148.4 220.36 151.79"/><polygon class="cls-24" points="241.73 110.67 210.19 118.19 201.05 116.27 195.45 118.04 216.38 130.86 241.73 110.67"/><polygon class="cls-14" points="187.34 240.95 187.78 232.55 220.5 234.17 225.96 236.82 218.74 243.45 187.34 240.95"/><polygon class="cls-14" points="243.94 229.31 236.72 187.75 224.63 199.83 224.48 210.88 220.5 234.17 231.41 237.56 243.94 229.31"/><polygon class="cls-17" points="190.14 194.38 189.85 200.27 209.89 206.46 237.31 191.28 236.13 182.29 217.41 182 190.14 194.38"/><polygon class="cls-24" points="198.54 83.11 194.27 76.78 197.66 76.34 198.54 83.11"/><polygon class="cls-22" points="194.86 87.39 192.2 92.11 196.63 94.76 199.43 89.75 194.86 87.39"/><polygon class="cls-20" points="254.55 114.65 210.19 118.19 202.37 54.23 254.85 48.78 254.55 114.65"/><polygon class="cls-19" points="213.72 68.82 234.36 84.59 250.57 65.73 234.21 69.7 213.72 68.82"/><polygon class="cls-25" points="238.49 67.2 229.35 67.64 232.74 88.42 239.81 87.98 238.49 67.2"/><polygon class="cls-24" points="232.74 88.42 237.01 90.63 239.81 87.98 232.74 88.42"/><polygon class="cls-15" points="238.49 67.2 250.57 65.73 238.78 71.18 238.49 67.2"/><polygon class="cls-15" points="229.35 67.64 213.72 68.82 230.09 71.77 229.35 67.64"/><polygon class="cls-15" points="238.19 98.59 223.45 97.85 219.03 94.76 222.42 101.24 233.77 103.89 238.19 98.59"/><polygon class="cls-17" points="219.03 94.76 223.9 99.18 232.74 100.36 238.19 98.59 234.36 97.41 225.07 97.41 219.03 94.76"/><polygon class="cls-26" points="190.14 195.56 206.94 200.27 217.41 182 190.88 182 190.14 195.56"/><polygon class="cls-15" points="220.5 234.17 243.94 229.31 245.86 238.15 218.74 243.45 220.5 234.17"/><polygon class="cls-15" points="209.89 206.46 224.48 210.88 237.31 191.28 219.62 191.73 209.89 206.46"/><path class="cls-27" d="M245.41,72.36a2.9,2.9,0,0,0-2.94,2.5,3,3,0,0,0,2.94,3,2.7,2.7,0,0,0,2.51-3A2.48,2.48,0,0,0,245.41,72.36Z"/><polygon class="cls-17" points="181.15 277.64 201.34 277.49 201.34 281.77 181.3 281.62 181.15 277.64"/><path class="cls-27" d="M222.86,74.27a2.92,2.92,0,0,0-3,2.51,3,3,0,0,0,3,3,2.81,2.81,0,0,0,2.66-3A2.62,2.62,0,0,0,222.86,74.27Z"/><polygon class="cls-20" points="189.55 167.41 197.95 154.15 183.95 121.58 175.4 146.63 189.55 167.41"/><polygon class="cls-19" points="195 147.22 189.55 167.41 228.17 152.67 227.28 151.05 210.48 145.9 195 147.22"/><polygon class="cls-21" points="208.56 165.94 211.22 152.67 223.16 141.77 239.96 139.41 228.32 153.26 208.56 165.94"/><polygon class="cls-17" points="208.56 165.94 212.69 158.72 223.16 141.77 200.16 143.83 208.56 165.94"/><polygon class="cls-28" points="220.06 172.72 219.18 164.02 232.44 165.64 238.04 171.09 240.55 174.34 237.01 177.28 220.06 172.72"/><polygon class="cls-12" points="250.57 172.42 251.9 164.61 243.79 165.64 238.04 171.09 237.01 177.28 246.59 175.37 250.57 172.42"/><polygon class="cls-8" points="238.04 171.09 219.18 164.02 235.83 160.78 251.9 164.61 238.04 171.09"/><polygon class="cls-28" points="233.18 153.85 234.21 164.32 237.75 165.49 239.67 157.09 237.46 151.64 233.18 153.85"/><polygon class="cls-12" points="240.99 154.59 240.55 164.61 237.75 165.49 237.46 151.64 240.99 154.59"/><polygon class="cls-17" points="249.1 159.6 240.7 161.96 240.55 164.61 251.9 164.61 249.1 159.6"/><polygon class="cls-21" points="234.06 145.01 241.73 137.35 235.69 134.69 223.16 141.77 234.06 145.01"/><polygon class="cls-21" points="238.34 141.47 241.73 137.35 247.33 140 240.99 154.59 238.49 141.18 238.34 141.47"/><polygon class="cls-17" points="223.16 141.77 241.73 137.35 240.99 154.59 228.32 153.26 223.16 141.77"/><polygon class="cls-21" points="250.57 172.42 249.54 177.87 237.01 177.28 250.57 172.42"/><polygon class="cls-10" points="624.52 213.39 627.17 161.22 641.91 154.29 648.25 167.56 624.52 213.39"/><polygon class="cls-10" points="607.86 222.23 613.46 202.04 620.1 190.1 619.5 204.69 607.86 222.23"/><polygon class="cls-13" points="607.86 193.79 613.76 152.97 624.52 149.87 634.54 157.83 607.86 193.79"/><polygon class="cls-10" points="609.48 145.9 602.56 168.59 627.02 147.66 609.48 145.9"/><polygon class="cls-13" points="654.44 180.82 640.29 150.76 659.89 159.01 654.44 180.82"/><polygon class="cls-18" points="604.91 136.17 609.48 145.9 634.54 157.83 659.89 159.01 669.77 151.5 635.87 150.17 604.91 136.17"/><polygon class="cls-13" points="405.19 182 394.73 190.4 442.19 190.69 453.69 182.29 405.19 182"/><polygon class="cls-12" points="557.6 136.17 550.82 141.03 561.43 141.77 557.6 136.17"/><polygon class="cls-7" points="574.11 264.82 660.63 252.29 783.85 267.77 636.31 280.74 574.11 264.82"/><polygon class="cls-5" points="665.64 22.4 643.68 21.52 665.2 33.45 686.57 31.54 665.64 22.4"/><path class="cls-7" d="M647.51.74,663.72,8.4l1.92,14-22-.88-4.57,4-13.27-4.42Zm39.06,30.8L665.2,33.45,654,81.94l-12.53,50.54-1.62,5.16-4,12.53-1.33,7.66L659.89,159l9.88-7.52,5-11.34,10-4.72,22.11-52.9Z"/><polygon class="cls-13" points="633.36 182.74 634.54 157.83 643.83 158.27 633.36 182.74"/><polygon class="cls-13" points="605.95 157.24 616.26 149.14 609.48 145.9 605.95 157.24"/><polygon class="cls-13" points="620.1 190.1 607.86 222.23 610.37 199.54 620.1 190.1"/><path class="cls-6" d="M576.76,64.84l11.79-4.12.3,3.53-11.5,3.83Zm1,5.9,11.79-4.13.3,3.54L578.38,74Z"/><polygon class="cls-6" points="54.54 211.33 49.08 293.12 108.48 292.97 102.29 215.45 54.54 211.33"/><polygon class="cls-2" points="122.49 170.65 54.54 211.33 96.54 220.02 127.94 202.63 155.21 173.75 122.49 170.65"/><polygon class="cls-7" points="124.7 177.28 137.96 180.67 108.48 189.66 88.88 200.72 71.34 201.31 80.77 195.56 124.7 177.28"/><polygon class="cls-8" points="164.35 237.26 155.21 173.75 96.54 220.02 108.48 292.97 164.35 237.26"/><polygon class="cls-7" points="52.33 243.6 104.8 246.55 121.01 232.84 129.12 240.06 148.87 222.97 150.49 208.23 159.04 200.13 164.35 237.26 108.48 292.97 49.08 293.12 52.33 243.6"/><polygon class="cls-10" points="110.99 160.34 78.42 181.12 90.21 179.2 119.54 159.6 110.99 160.34"/><polygon class="cls-14" points="102.59 189.07 90.21 179.2 119.54 159.6 124.84 168.44 102.59 189.07"/><polygon class="cls-13" points="80.48 195.56 78.42 181.12 90.21 179.2 102.59 189.07 102.59 200.13 88.88 200.72 80.48 195.56"/><polygon class="cls-29" points="125.43 174.63 102.59 200.13 102.59 189.07 124.84 168.44 125.43 174.63"/><polygon class="cls-14" points="137.96 180.67 120.28 180.38 118.8 174.04 135.16 171.98 137.96 176.11 137.96 180.67"/><polygon class="cls-29" points="136.78 171.09 136.64 174.34 137.96 180.67 144.89 172.72 144.01 166.53 136.78 171.09"/><polygon class="cls-10" points="144.01 166.53 124.84 168.44 118.8 174.04 136.64 174.34 144.01 166.53"/><polygon class="cls-14" points="82.39 185.09 86.23 184.8 98.61 191.58 98.61 196.15 89.47 196.88 83.72 193.49 82.39 185.09"/><polygon class="cls-17" points="86.23 184.8 86.96 189.66 93.3 192.02 98.61 191.58 89.47 184.5 86.23 184.8"/><polygon class="cls-7" points="83.72 193.49 86.96 189.66 93.3 192.02 89.47 196.88 83.72 193.49"/></g></g></g></svg>