<svg id="illustration_layer" xmlns="http://www.w3.org/2000/svg" viewBox="0 0 400 400"><defs><style>.cls-1,.cls-16{fill:#2b2b2b;}.cls-1,.cls-10,.cls-11,.cls-12,.cls-13,.cls-14,.cls-15,.cls-17,.cls-18,.cls-19,.cls-2,.cls-20,.cls-21,.cls-22,.cls-3,.cls-4,.cls-5,.cls-6,.cls-7,.cls-8,.cls-9{fill-rule:evenodd;}.cls-1{opacity:0.1;}.cls-2{fill:#9d7700;}.cls-18,.cls-3{fill:#755800;}.cls-4{fill:#737373;}.cls-5{fill:#848585;}.cls-6{fill:#4f5253;}.cls-7{fill:#cbac14;}.cls-8{fill:#846400;}.cls-9{fill:#fff;}.cls-10{fill:#8e8e8e;}.cls-11{fill:#fce3d4;}.cls-12{fill:#f4c9b2;}.cls-13{fill:#c1907d;}.cls-14{fill:#ffefe7;}.cls-15{fill:#a2a2a2;}.cls-17{fill:#474747;}.cls-18{opacity:0.6;}.cls-19{fill:#f3d65d;}.cls-20{fill:#be8e00;}.cls-21{fill:#e1a842;}.cls-22{fill:#b48a00;}</style></defs><title>explorers_ESTP_famous_real_jack_nicholson</title><polygon class="cls-1" points="190.33 371.51 292.99 382.75 225.24 400 100.46 381.33 190.33 371.51"/><polygon class="cls-2" points="219.14 364.5 212.23 382 230.47 384.34 254.66 384.34 252.66 373 234.5 367.5 219.14 364.5"/><polygon class="cls-3" points="212.23 382 212.23 390.25 254.66 391.5 254.66 384.34 212.23 382"/><polygon class="cls-2" points="177.99 366.67 177.99 376 151.49 378.17 124.99 374 150.21 356 165.24 358.5 177.99 366.67"/><polygon class="cls-3" points="124.99 374 124.99 381 177.99 382.33 177.99 376 124.99 374"/><polygon class="cls-4" points="203.24 314.33 177.99 366.67 165.46 361.98 155.41 296 177.16 288.25 203.24 314.33"/><polygon class="cls-5" points="177.16 288.25 165.46 361.98 150.21 356 147.16 288.25 153.09 274.46 161.64 268.06 177.16 288.25"/><polygon class="cls-6" points="160.97 268.56 199.69 320.66 224.45 299.67 233.24 284.15 191.58 288.25 160.97 268.56"/><polygon class="cls-4" points="221.56 297.3 210.24 331.39 234.78 368.48 252.66 373 254.97 297.67 246.58 288.25 233.24 284.15 221.56 297.3"/><polygon class="cls-5" points="221.56 297.3 234.78 368.48 219.14 364.5 199.69 320.66 221.56 297.3"/><polygon class="cls-7" points="156.32 166 120.65 229.67 156.28 229.67 156.32 166"/><polygon class="cls-7" points="268.65 173.17 297.99 240 254.99 240 268.65 173.17"/><polygon class="cls-2" points="238.11 162.14 259.88 183.2 242.09 271.5 191 291 149.41 258.5 156.32 166 167.86 163.07 238.11 162.14"/><polygon class="cls-8" points="191 291 197.66 200 218.03 188.67 251.24 166.88 268.65 173.17 255.73 280.5 222.49 281.17 191 291"/><polygon class="cls-9" points="181.88 159.95 197.66 200 238.11 162.14 181.88 159.95"/><polygon class="cls-10" points="259.61 103.94 264.15 108.5 264.15 131.5 247.31 135.14 259.61 103.94"/><polygon class="cls-4" points="144.49 52 133.99 65.33 136.32 72.5 140.5 85.95 144.49 70.25 144.49 52"/><polygon class="cls-11" points="144.49 52 133.99 141.5 175.99 148 201.99 173.17 233.49 157 253.99 107.17 246.49 94.5 247.99 63.5 221.46 41 182.37 44.4 168.33 39.67 144.49 52"/><polygon class="cls-12" points="230.94 49.04 210.97 154.5 175.99 148 194.32 163.17 200.48 177.5 238.11 162.14 247.31 135.14 247.32 129.5 251.67 125.01 260.07 105.5 246.49 94.5 247.99 63.5 230.94 49.04"/><polygon class="cls-12" points="204.99 81.5 177.24 101.5 166.74 99.5 147.16 74.07 156.24 70.25 169.61 69 169.9 77.35 179.61 78.33 184.14 70.75 198.49 74.25 204.99 81.5"/><polygon class="cls-13" points="176.07 101.28 170.16 108.5 166.74 99.5 172.99 96.67 176.07 101.28"/><polygon class="cls-14" points="179.61 78.33 176.07 101.28 173.66 100.82 170.66 102.67 166.74 99.5 169.9 77.35 179.61 78.33"/><polygon class="cls-13" points="149.41 109.08 170.15 113.58 196.57 113.58 182.08 130.21 157.93 127.46 149.41 109.08"/><polygon class="cls-9" points="156.28 113.88 170.15 116.46 188.33 117.08 180.66 127.08 160.2 124.46 156.28 113.88"/><polygon class="cls-13" points="167.86 146.74 225.99 155.33 200.48 177.5 167.86 146.74"/><polygon class="cls-13" points="251.67 125.01 241.49 121.33 247.31 135.14 251.67 125.01"/><polygon class="cls-13" points="246.91 115.46 250.09 106.2 255.56 108.64 246.91 115.46"/><polygon class="cls-10" points="144.49 52 146.74 40.5 180.16 27.33 175.16 35.17 168.33 39.67 144.49 52"/><polygon class="cls-15" points="168.33 39.67 180.16 27.33 207.82 25.33 197.03 36.68 177.99 48.04 168.33 39.67"/><polygon class="cls-10" points="207.82 25.33 229.66 32.33 225.99 38.67 218.03 42.83 177.99 48.04 207.82 25.33"/><polygon class="cls-15" points="229.66 32.33 268.65 60 255.32 65.33 242.66 64.67 218.03 42.83 229.66 32.33"/><polygon class="cls-10" points="242.66 64.67 268.65 60 270.65 98.17 251.32 88.5 239.32 78.33 242.66 64.67"/><polygon class="cls-4" points="270.65 98.17 264.15 108.5 248.66 99.17 240.32 119.65 229.66 114.77 239.32 78.33 270.65 98.17"/><circle class="cls-16" cx="193.99" cy="90.91" r="3.36"/><circle class="cls-16" cx="159.24" cy="85.88" r="3.36"/><polygon class="cls-4" points="184.14 70.75 191.22 71.88 202.99 65.33 204.99 81.5 198.49 74.25 191.22 75.99 184.14 70.75"/><polygon class="cls-4" points="169.61 69 162.38 68.97 153.86 61.5 147.16 74.07 156.24 70.25 162.16 72.44 169.61 69"/><polygon class="cls-13" points="176.07 101.28 204.61 112.27 219.24 110.83 201.61 105 176.07 101.28"/><polygon class="cls-13" points="166.74 99.5 138.78 100.63 139.24 96.56 156.32 96.67 166.74 99.5"/><polygon class="cls-17" points="224.3 84.11 258.74 96.56 259.88 105.93 248.66 99.17 220.31 94.58 224.3 84.11"/><polygon class="cls-6" points="169.9 77.06 179.61 78.33 179.61 83.38 167.43 81.88 169.9 77.06"/><polygon class="cls-18" points="182.49 82.13 221.99 87.23 214.99 106.42 181.24 99.5 182.49 82.13"/><polygon class="cls-18" points="140.49 76.5 166.74 80 164.28 96.67 138.57 94.27 140.49 76.5"/><path class="cls-6" d="M179.61,78.33l-3.54,23,43.17,9.55,5.06-26.72Zm33.63,26.29-30.63-6.74,1.53-13.26,33.35,3.26Z"/><path class="cls-6" d="M136.32,72.5,134,96l32.75,3.5,3.16-22.44Zm25.84,22.08-22.29-3.25,1.53-13,22.76,2.5Z"/><polygon class="cls-19" points="238.11 162.14 242.72 163.81 243.91 165.08 246.58 165.2 251.24 166.88 210.83 204.25 206.19 202.75 205.24 201.58 202.22 201.47 197.66 200 238.11 162.14"/><polygon class="cls-19" points="181.88 159.95 197.66 200 192.41 200 190.07 198.58 188.33 200 183.99 200 167.86 163.07 172.3 162 174.74 162.14 177.11 160.96 181.88 159.95"/><polygon class="cls-2" points="202.22 201.47 242.72 163.81 246.58 165.2 206.19 202.75 202.22 201.47"/><polygon class="cls-8" points="177.11 160.96 192.41 200 188.33 200 172.3 162 177.11 160.96"/><polygon class="cls-19" points="155.41 245.76 192.11 275.74 193.66 281.17 191 291 160.97 268.56 157.13 259.2 155.41 245.76"/><polygon class="cls-7" points="192.11 275.74 244.65 266.7 244.65 277.92 233.24 284.15 191 291 192.11 275.74"/><polygon class="cls-2" points="157.13 253.08 191.7 281.38 193.16 283.33 191.32 286.51 158.39 258.42 157.13 253.08"/><polygon class="cls-8" points="191.7 281.38 244.65 272.38 244.65 276.88 191.32 286.51 191.7 281.38"/><polygon class="cls-19" points="151.57 229.49 159.39 262.64 144.66 268 134.65 261.35 120.65 229.67 151.57 229.49"/><polygon class="cls-8" points="159.39 262.64 158.39 258.42 156.32 257.25 157.13 253.08 155.41 245.76 134.65 261.35 137.02 266.41 138.53 268 138.95 270.52 141.99 277 151.81 270.52 159.39 262.64"/><polygon class="cls-19" points="137.02 266.41 157.13 253.08 158.39 258.42 138.95 270.52 137.02 266.41"/><polygon class="cls-12" points="159.39 262.64 160.97 268.56 147.16 288.25 141.99 277 159.39 262.64"/><polygon class="cls-19" points="261.1 235.89 250.18 256.35 256.07 281.38 270.04 275.91 297.99 240 261.1 235.89"/><polygon class="cls-2" points="242.09 271.5 244.65 266.7 246.58 265.88 246.95 262.41 250.18 256.35 270.04 275.91 265.29 282.01 262.36 283.75 261.79 286.51 256.74 293 247.31 284.58 242.09 271.5"/><polygon class="cls-19" points="246.95 262.41 265.29 282.01 261.79 286.51 244.65 266.7 246.95 262.41"/><polygon class="cls-12" points="242.09 271.5 233.24 284.15 254.97 297.67 256.74 293 242.09 271.5"/><polygon class="cls-19" points="160.2 243.48 178.15 233.62 180.18 237.2 162.45 246.18 160.2 243.48"/><polygon class="cls-7" points="225.35 242.99 240.99 256.66 238.19 259.18 222 245.5 225.35 242.99"/><g id="cap"><polygon class="cls-2" points="264.15 12.67 276.99 52.04 268.65 60 242.49 41.44 250.16 25.33 264.15 12.67"/><polygon class="cls-20" points="200.19 29.67 215.44 9.66 226.9 5 242.49 0 264.15 12.67 242.49 41.44 200.19 29.67"/><polygon class="cls-21" points="242.49 0 222.67 35.92 200.19 29.67 215.44 9.66 224.3 0 242.49 0"/><polygon class="cls-8" points="152.41 11.67 173.52 29.95 242.49 41.44 215.44 9.66 152.41 11.67"/></g><g id="logo"><path class="cls-22" d="M227.49,221.91l-7.73,11.8a15.31,15.31,0,0,0,8,3.84l4.7-15.85L229.36,207a15.31,15.31,0,0,0-10.48,4.87Z"/><path class="cls-22" d="M239.78,221.67l3.24,9.05a15.32,15.32,0,0,0-1.39-18.51Z"/><path class="cls-22" d="M225,222.08l-7.4-8.61a15.31,15.31,0,0,0,.74,18.77Z"/><path class="cls-22" d="M237.71,221.82l2.21-11.29a15.26,15.26,0,0,0-8.51-3.47l3.12,14.73-4.73,15.94.32,0a15.3,15.3,0,0,0,11.45-5.15Z"/></g></svg>