<svg id="Layer_1" data-name="Layer 1" xmlns="http://www.w3.org/2000/svg" viewBox="0 0 400 400"><defs><style>.cls-1,.cls-19,.cls-20{fill:#2b2b2b;}.cls-1,.cls-10,.cls-11,.cls-12,.cls-13,.cls-14,.cls-15,.cls-16,.cls-17,.cls-18,.cls-19,.cls-2,.cls-20,.cls-3,.cls-4,.cls-5,.cls-6,.cls-7,.cls-8,.cls-9{fill-rule:evenodd;}.cls-1{opacity:0.1;}.cls-2{fill:#636161;}.cls-3{fill:#403d3d;}.cls-4{fill:#35785d;}.cls-5{fill:#446125;}.cls-6{fill:#3f8e6f;}.cls-7{fill:#c2c2c2;}.cls-8{fill:#424747;}.cls-9{fill:#3d4040;}.cls-10{fill:#5a753d;}.cls-11{fill:#738c57;}.cls-12{fill:#fce3d4;}.cls-13{fill:#f4c9b2;}.cls-14{fill:#709c53;}.cls-15{fill:#c1907d;}.cls-16{fill:#383838;}.cls-17{fill:#696b6e;}.cls-18{fill:#ffefe7;}.cls-20{opacity:0.2;}</style></defs><title>diplomats_ENFJ_famous_real_john_cusack</title><polygon class="cls-1" points="121.63 388.52 213.45 381.54 310.55 388.9 239.39 400.38 121.63 388.52"/><polygon class="cls-2" points="257.71 372.3 237.63 387.13 237.85 393.46 277.68 393.54 277.75 387.11 257.71 372.3"/><polygon class="cls-2" points="180.41 370.45 151.46 384.72 151.15 389.53 199.15 389.38 198.9 384.72 180.41 370.45"/><polygon class="cls-3" points="247.93 356.24 243.6 368.01 237.63 387.13 277.8 387.11 268.37 365.44 247.93 356.24"/><polygon class="cls-4" points="228.47 325.48 227.51 331.39 243.6 368.01 268.37 365.44 264.9 336.65 253.41 322.82 228.47 325.48"/><polygon class="cls-4" points="264.9 336.65 263.11 321.8 250.32 323.15 243.82 329.14 264.9 336.65"/><polygon class="cls-3" points="176.67 362.27 172.98 363.76 151.46 384.72 198.9 384.72 197.32 367.36 176.67 362.27"/><polygon class="cls-4" points="170.9 343.71 172.98 363.76 197.32 367.36 204.79 334.54 200.89 311.78 171.74 318 170.9 343.71"/><polygon class="cls-4" points="169.66 331.87 170.9 343.71 184.46 332.99 182.93 324.71 166.02 325.74 169.66 331.87"/><polygon class="cls-5" points="196.55 322.5 204.79 334.54 227.51 331.39 227.99 308.34 208.62 269.06 203.58 308.73 196.55 322.5"/><path class="cls-6" d="M202.72,282.76l9.55,19-7.48,32.81L184.46,333l-15.13-81.8s32.7-1,32.85,0,.54,31.57.54,31.57"/><polygon class="cls-6" points="192.26 253.65 212.27 301.73 227.51 331.39 243.82 329.14 253.05 287.85 228.6 248.26 192.26 253.65"/><polygon class="cls-4" points="212.27 301.73 250.97 287.66 260.38 265.72 250.17 247.2 172.76 251.1 167.67 284.9 212.27 301.73"/><path class="cls-7" d="M167.67,267.66l70.69.43-.1-37.95s-68,9.39-68.54,8.59-2.05,28.93-2.05,28.93"/><polygon class="cls-8" points="172.06 215.58 174.41 245.64 193.57 245.15 227.84 244.26 236.99 184.71 226.21 174.58 207.67 157.18 174.77 195.23 172.06 215.58"/><polygon class="cls-9" points="173.66 259.17 230.28 257.22 266.38 224.62 167.36 215.98 173.66 259.17"/><polygon class="cls-5" points="170.89 236.81 163.94 258.57 154.84 330.73 184.47 332.99 184.06 258.81 170.89 236.81"/><polygon class="cls-5" points="233.53 246.19 227.44 257.32 243.82 329.14 280.55 324.07 274.55 287.94 263.24 269.13 268.88 257.06 267.61 254.54 233.53 246.19"/><polygon class="cls-10" points="286.64 217.25 277.98 222.51 270.39 246.16 279.52 263.98 292.46 260.79 312.25 230.75 286.64 217.25"/><polygon class="cls-11" points="254.9 197.78 266.38 224.62 312.25 230.75 271.5 163.05 254.9 197.78"/><polygon class="cls-10" points="271.5 163.05 261.52 158.19 245.52 163.57 224.28 183.5 227.44 257.32 267.61 254.54 266.38 224.62 271.5 163.05"/><polygon class="cls-12" points="104.64 154.33 95.36 157.68 86.04 136.09 96.77 125.54 109.51 139.47 104.64 154.33"/><polygon class="cls-13" points="123.06 143.35 109.51 139.47 95.36 157.68 111.03 169.65 126.39 160.65 123.06 143.35"/><path class="cls-12" d="M125.28,165.94c.28-.14,5-7.57,5-7.57L127,136.69l-8-11.88-5.83,3.24,4.44,13.77-3.27,13.85,6.32,8.34Z"/><polygon class="cls-14" points="133.98 175.14 137.25 166.78 130.28 158.38 111.03 169.65 116.4 181 133.98 175.14"/><polygon class="cls-10" points="132.82 218.97 116.4 181 137.25 166.78 153.97 186.28 157.15 206.18 132.82 218.97"/><polygon class="cls-11" points="183.22 183.41 171.1 169.52 150.51 182.24 132.82 218.97 167.36 215.98 183.22 183.41"/><polygon class="cls-10" points="191.09 164.29 182.99 162.18 171.1 169.52 163.94 258.57 184.06 258.81 192.45 182.45 191.09 164.29"/><polygon class="cls-7" points="205.69 163.32 224.28 183.5 261.52 158.19 251.56 153.34 239.43 144.74 205.69 163.32"/><polygon class="cls-7" points="199.48 153.33 195.02 154.75 182.99 162.18 192.45 182.45 205.69 163.32 199.48 153.33"/><polygon class="cls-13" points="205.69 163.32 237.18 156.47 251.56 153.34 265.14 117.45 264.3 51.03 238.68 28.57 231.64 33.65 220.82 128.43 205.69 163.32"/><polygon class="cls-15" points="210.42 132.68 219.62 144.62 239.43 144.74 232.97 157.39 205.69 163.32 195.02 154.75 187.35 138.32 210.42 132.68"/><polygon class="cls-15" points="265.24 101.11 256.15 103.69 264.85 118.22 268.96 108.18 265.24 101.11"/><polygon class="cls-16" points="260.32 49.22 253.18 60.5 255.76 77.17 252.98 93.63 266.42 97.24 277.81 86.98 286.37 63.36 260.32 49.22"/><polygon class="cls-12" points="261.46 82.26 256.15 103.69 268.96 108.18 277.81 86.98 261.46 82.26"/><polygon class="cls-8" points="241.3 34.36 253.18 60.5 286.37 63.36 278.16 27.17 251.15 8.93 242.56 16.86 241.3 34.36"/><polygon class="cls-17" points="172.34 26.59 168.52 15.81 190.43 1.38 251.15 8.93 231.11 25.7 178.29 52.74 169.09 37.65 172.34 26.59"/><polygon class="cls-8" points="167.29 43.62 162.15 33.73 157.15 28.88 168.52 15.81 179.28 28.79 167.29 43.62"/><polygon class="cls-17" points="158.18 65.47 150.84 54.89 157.15 28.88 179.28 28.79 165.94 66.16 158.18 65.47"/><polygon class="cls-8" points="170 59.02 159.42 55.7 150.84 54.89 161.57 87.02 170 59.02"/><polygon class="cls-12" points="179.28 28.79 159.42 55.7 159.37 115.47 179.41 144.25 219.62 144.62 243.41 117.34 249.47 52.74 241.3 34.36 233.46 23.92 202.48 33.92 179.28 28.79"/><path class="cls-13" d="M171,72.41l-2.1,3.7L180.4,83s6.33,21.92,6.58,22.11,8.35-18,8.35-18.38-3.11-8.1-3.11-8.1l-2.87-4L178.57,73.1Zm33,2.91-6.13,3.34s-.9,16.23-.9,17.09,4.22,9.41,4.22,9.41l13.88-19.55,15.67-8L226.93,72l-9.37.9Z"/><path class="cls-15" d="M193.94,100.57c0,.21-7,4.53-7,4.53l6.81,6,7.39-5.94Z"/><polygon class="cls-16" points="224 69.1 232.22 76.13 230.73 77.61 224.09 74.1 204.6 75.19 204.73 73.19 224 69.1"/><polygon class="cls-16" points="189.27 72.81 172.35 70.08 167.78 74.65 168.93 76.11 173.91 74.12 189.35 74.62 189.27 72.81"/><polygon class="cls-18" points="192.22 78.62 186.98 105.1 194.06 106.47 201.18 105.16 197.86 78.67 192.22 78.62"/><polygon class="cls-15" points="180.2 115.85 194.03 117.95 205.95 116.91 211.24 114.31 212.02 115.87 206.62 119.01 194.07 120.36 180.71 118.22 180.2 115.85"/><polygon class="cls-15" points="262.31 98.07 264.77 88.54 273.63 90.75 262.31 98.07"/><path class="cls-19" d="M215.9,80.75a3.84,3.84,0,1,1-4,3.84,3.94,3.94,0,0,1,4-3.84"/><path class="cls-19" d="M180.65,80a3.84,3.84,0,1,1-4,3.83,3.93,3.93,0,0,1,4-3.83"/><polygon class="cls-13" points="174.52 118.38 184.8 105.69 176.26 108 174.52 118.38"/><polygon class="cls-13" points="204.56 105.86 218.93 118.33 214.29 108.23 204.56 105.86"/><polygon class="cls-16" points="251.15 8.93 202.48 33.92 241.3 34.36 251.15 8.93"/><polygon class="cls-13" points="189.41 125.25 194.92 128.43 201.19 125.66 189.41 125.25"/><polygon class="cls-13" points="263.69 260.86 256.36 255.34 240.47 277.52 257.36 291.39 271.45 282.4 263.69 260.86"/><polygon class="cls-12" points="275.37 252.05 274.98 252.21 269.42 254.54 256.36 255.34 271.45 282.4 284.26 273.23 275.37 252.05"/><polygon class="cls-20" points="276.74 301.1 274.55 287.94 271.45 282.4 257.36 291.39 276.74 301.1"/><polygon class="cls-14" points="270.39 246.16 267.61 254.54 284.26 273.23 292.46 260.79 270.39 246.16"/></svg>