<svg xmlns="http://www.w3.org/2000/svg" viewBox="0 0 400 400"><defs><style>.a,.f{fill:#474748;}.a,.ab,.ac,.b,.c,.d,.e,.v,.w,.x{fill-rule:evenodd;}.b,.c,.k{fill:#2b2b2b;}.c{opacity:0.1;}.d{fill:#4f5353;}.e{fill:#d1a1b9;}.g{fill:#f5cbb3;}.h{fill:#fde4d5;}.i{fill:#c1907c;}.j{fill:#fff0e9;}.l{fill:#593e35;}.m{fill:#ececeb;}.n{fill:#dddddc;}.o{fill:#c4c4c4;}.p{fill:#a3a3a3;}.q{fill:#cfcfcd;}.r,.x{fill:#738d57;}.s,.w{fill:#5a753d;}.t{fill:#2b2c2b;opacity:0.2;}.u{fill:#fff;}.v{fill:#44622d;}.y{fill:#6f7275;}.ab,.z{fill:#c0db8f;}.aa,.ac{fill:#a0cf7f;}</style></defs><title>RM-Kim-Nam-joon-Campaigner-ENFP-personality</title><path class="a" d="M172,262.65,161,316l29.19,15.17,23.74-40.37Zm71.57,68.51,30.8-10.05-18-59.38-42.35,29.06Z"/><polygon class="b" points="213.94 290.79 250.3 269.72 171.97 262.65 213.94 290.79"/><polygon class="c" points="99.48 389.73 222.36 400.5 323.29 394.58 219.26 373.4 99.48 389.73"/><polygon class="b" points="265.55 355.62 265.87 355.68 288.62 365.09 300.56 386.15 282 388.58 258.25 386.35 267.32 368.81 265.55 355.62"/><polygon class="d" points="274.34 321.11 243.54 331.17 267.32 368.81 289.47 366.59 274.34 321.11"/><path class="b" d="M173.06,352.68l-13.34,10.43L130.1,381.48c1.5,2.12,9.32,2.81,15.09,2.47,9.28-.56,38.54-2.4,39.55-2.53l0-13.09Z"/><polygon class="d" points="170.94 319.84 161.01 315.99 159.72 363.11 184.78 368.33 190.2 331.17 170.94 319.84"/><path class="e" d="M241.14,197.3h0l-.32-4.78"/><polygon class="a" points="258.22 393.31 300.77 393.31 300.56 386.15 258.25 386.35 258.22 393.31"/><rect class="f" x="130.1" y="381.48" width="54.64" height="6.18"/><polygon class="g" points="266.01 275.86 251.46 282.43 254.79 303.12 270.04 303.73 276.62 294.44 266.01 275.86"/><polygon class="h" points="272.85 266.65 267.33 262.54 251.46 282.43 276.62 294.44 279.41 275.86 272.85 266.65"/><polygon class="g" points="183.77 142.66 195.23 188.8 226.99 190.69 256.41 110.98 259.55 74.63 270.78 46.55 253.5 58 247.87 78.24 222.24 130.84 183.77 142.66"/><polygon class="i" points="240.89 125.2 210.41 176.65 190.8 149.61 240.89 125.2"/><polygon class="h" points="190.8 149.61 208.98 149.49 240.89 125.2 261.56 29.19 152.38 27.8 155.89 79.94 161.4 120.57 190.8 149.61"/><polygon class="g" points="180.41 117.27 190.87 129.05 204.46 129.68 216.85 118.37 197.32 120.9 180.41 117.27"/><polygon class="i" points="198.32 119.63 202.62 118.39 208.61 119.03 216.85 118.37 209.31 121.01 202.52 123.34 194.27 122.81 185.01 119.97 180.41 117.27 185.82 118.27 192.87 118.06 198.32 119.63"/><polygon class="g" points="226.79 114.48 229.73 115.31 225.12 121.73 226.79 114.48"/><polygon class="i" points="186.35 103.26 210.97 104.86 198.51 110.5 186.35 103.26"/><polygon class="g" points="186.35 103.26 180.02 77.68 164.45 69.15 174.99 68.19 190.31 70.56 195.23 82.53 186.35 103.26"/><polygon class="g" points="210.97 104.86 219.59 78.55 235.99 73.12 224.49 66.77 205.85 72.04 202.91 82.89 210.97 104.86"/><polygon class="j" points="186.35 103.26 195.23 82.53 202.91 82.89 210.97 104.86 186.35 103.26"/><circle class="k" cx="219.59" cy="78.55" r="3.76"/><circle class="k" cx="180.02" cy="77.68" r="3.76"/><polygon class="l" points="205.85 72.04 206.35 66.74 227.8 64.23 235.99 73.12 226.12 69.6 205.85 72.04"/><polygon class="l" points="190.31 70.56 189.88 66.03 173.43 63.24 164.45 69.15 174.99 68.19 190.31 70.56"/><polygon class="m" points="199.81 39.81 172.4 26.88 182.03 5.11 217.01 0.5 237.79 16.67 206.04 16.98 199.81 39.81"/><polygon class="n" points="199.81 39.81 206.04 16.98 237.79 16.67 262.16 49.42 218.54 36.79 199.81 39.81"/><polygon class="m" points="218.54 36.79 237.38 48.17 247.74 88.04 262.16 49.42 218.54 36.79"/><polygon class="o" points="217.01 0.5 236.93 2.39 264.7 22.55 237.79 16.67 217.01 0.5"/><polygon class="p" points="237.79 16.67 262.16 49.42 278.49 46.62 264.7 22.55 237.79 16.67"/><polygon class="q" points="257.14 75.69 270.85 78.31 278.49 46.62 262.16 49.42 247.74 88.04 247.07 96.49 250.5 99.49 257.14 75.69"/><polygon class="g" points="247.74 88.04 222.68 44.05 199.81 39.81 218.54 36.79 237.38 48.17 247.74 88.04"/><polygon class="p" points="199.81 39.81 146.5 39.72 152.27 17.77 172.4 26.88 199.81 39.81"/><polygon class="q" points="172.4 26.88 182.03 5.11 152.27 17.77 172.4 26.88"/><polygon class="p" points="146.5 39.72 155.89 79.94 161.82 53.12 146.5 39.72"/><polygon class="q" points="146.5 39.72 172.11 39.58 161.82 53.12 146.5 39.72"/><polygon class="h" points="257.14 75.69 270.85 78.31 260.4 110.98 248.26 107.52 257.14 75.69"/><polygon class="i" points="258.86 83.51 263 83.91 256.7 95.81 258.86 83.51"/><polygon class="i" points="260.4 110.98 252.44 121.73 248.26 107.52 260.4 110.98"/><polygon class="i" points="102.17 184.69 82.62 168.96 108.16 153.57 115.07 166.14 113.54 176.79 102.17 184.69"/><polyline class="r" points="166.76 158.06 139.78 179.47 129.13 193.01 132.13 214.89 171.18 204.14 172.46 166.06"/><polygon class="s" points="139.78 179.47 114.95 166.31 102.17 184.69 132.13 214.89 139.78 179.47"/><polygon class="m" points="241.46 148.89 221.01 216.71 220.32 283.02 207.04 285.44 197.06 271.79 189.82 284.1 173.26 276.26 188.76 208.23 187.83 159.29 207.81 185.71 215.69 178.27 241.46 148.89"/><polygon class="t" points="228 181.07 246.54 175.94 228.72 172.01 228 181.07"/><line class="t" x1="189.57" y1="168.96" x2="173.09" y2="172.01"/><polygon class="u" points="228.72 172.01 246.54 175.94 241.46 148.89 228.72 172.01"/><polygon class="n" points="197.06 271.79 207.81 185.71 244.64 148.04 249.79 251.16 243.8 274.42 220.32 283.02 207.04 285.44 197.06 271.79"/><polygon class="v" points="236.19 290.79 259.74 271.97 264.04 267.53 257.41 234.51 257.41 203.6 217.94 203.6 222.49 254.11 236.19 290.79"/><polygon class="w" points="274.97 165.3 253.06 152.04 240.27 172.01 217.94 176.65 217.94 203.6 257.41 203.6 263.11 194.03 274.97 165.3"/><polygon class="v" points="155.36 264.62 175.94 284.25 189.55 199.74 174.11 196.23 164.78 196.97 155.36 264.62"/><polygon class="x" points="285.01 266.11 281.87 277.71 259.74 271.97 260.58 260.31 264.29 256.66 281.98 260.9 285.01 266.11"/><polygon class="w" points="295.25 230.43 285.01 266.11 260.58 260.31 260.71 229.75 270.88 215.57 287.79 226.19 295.25 230.43"/><polygon class="w" points="187.3 160.2 182.32 158.06 166.76 158.06 164.78 196.97 189.55 199.74 195.93 176.12 187.3 160.2"/><polygon class="x" points="274.97 165.3 295.25 230.43 260.71 229.75 257.41 214.22 257.41 203.6 274.97 165.3"/><polygon class="v" points="183.77 142.66 174.29 173.37 195.93 176.12 183.77 142.66"/><polygon class="v" points="248.95 131.19 253.06 152.04 240.27 172.01 217.94 176.65 248.95 131.19"/><polygon class="y" points="106.14 137.04 102.42 127.33 117.16 120.84 132.04 135.95 126.2 150.25 106.14 137.04"/><polygon class="f" points="100.52 145.94 99.13 136.46 102.42 127.33 126.2 150.25 111.68 156.96 100.52 145.94"/><polygon class="k" points="93.37 154.84 81.18 159.73 69.5 175.64 77.17 183.23 101.47 164.33 105.99 150.25 93.37 154.84"/><polygon class="g" points="105.99 150.25 113.14 148.35 115.07 166.14 110.01 173.35 99.2 160.54 105.99 150.25"/><polygon class="h" points="99.13 136.46 81.18 159.73 90.52 168.13 113.14 148.35 99.13 136.46"/><polygon class="z" points="260.71 229.75 259.53 224.19 292.91 222.9 295.25 230.43 260.71 229.75"/><polygon class="aa" points="259.3 223.13 258.89 221.2 291.55 218.54 292.28 220.89 259.3 223.13"/><polygon class="r" points="102.17 184.69 115.07 166.14 119.95 168.96 107.14 189.7 102.17 184.69"/><polygon class="ab" points="132.13 214.89 139.78 179.47 140.97 178.53 141.81 212.08 132.13 214.89"/><polygon class="ac" points="143.14 211.7 142.22 177.53 143.76 176.31 146.59 210.69 143.14 211.7"/><polygon class="ab" points="227.43 174.68 249.29 132.91 249.56 134.29 231.86 173.75 227.43 174.68"/><polygon class="ab" points="233.54 173.21 249.79 135.46 250.21 137.58 236.51 172.66 233.54 173.21"/><polygon class="ab" points="192.8 175.72 183.16 144.62 182.55 146.61 189.57 175.31 192.8 175.72"/><polygon class="ab" points="187.68 175.07 181.85 148.89 181.33 150.55 183.83 174.68 187.68 175.07"/></svg>