<svg id="Layer_1" data-name="Layer 1" xmlns="http://www.w3.org/2000/svg" viewBox="0 0 400 400"><defs><style>.cls-1{fill:#2c2b2b;opacity:0.1;}.cls-1,.cls-10,.cls-11,.cls-12,.cls-13,.cls-14,.cls-15,.cls-16,.cls-17,.cls-18,.cls-2,.cls-20,.cls-3,.cls-4,.cls-5,.cls-6,.cls-7,.cls-8,.cls-9{fill-rule:evenodd;}.cls-2{fill:#543042;}.cls-3{fill:#594265;}.cls-4{fill:#6e5f51;}.cls-5{fill:#554537;}.cls-6{fill:#fbe3d4;}.cls-7{fill:#f4cab2;}.cls-8{fill:#47392c;}.cls-9{fill:#795d88;}.cls-10{fill:#565757;}.cls-11{fill:#95637c;}.cls-12,.cls-19{fill:#424242;}.cls-13{fill:#b2879c;}.cls-14{fill:#d1a0b8;}.cls-15{fill:#c18f7c;}.cls-16{fill:#8b7a6e;}.cls-17{fill:#2b2b2b;}.cls-18{fill:#fff;}.cls-20{fill:#fff0e8;}</style></defs><title>analysts_INTP_famous_real_kristen_stewart</title><polygon class="cls-1" points="123.25 388.26 197.4 400 277.05 388.26 203.44 374.68 123.25 388.26"/><polygon class="cls-2" points="248.92 264.3 229.85 254.1 249.62 252.71 259.96 258.05 248.92 264.3"/><polygon class="cls-2" points="157.09 266.83 147.31 262.56 160.72 253.52 162.75 261 157.09 266.83"/><polygon class="cls-3" points="209.97 237.94 219.14 247.08 230.31 229.57 231.31 216.81 228.05 209.09 220.64 218.52 209.97 237.94"/><polygon class="cls-4" points="246.29 201.53 253.47 191.03 255.06 176.61 241.34 168.46 239.6 197.96 246.29 201.53"/><polygon class="cls-4" points="158.9 173.42 148.22 167.5 141.94 145.72 144.58 132.5 159.91 146.78 166.26 162.64 158.9 173.42"/><polygon class="cls-5" points="169.08 167.54 160.63 163.55 148.12 167.16 157.52 174.42 169.08 167.54"/><polygon class="cls-6" points="244.14 247.78 238.21 251.85 238.21 275.17 248.29 279.64 255.89 276 249.64 253.14 244.14 247.78"/><polygon class="cls-7" points="237.98 294.07 238.21 275.17 255.89 276 249.93 290.72 237.98 294.07"/><polygon class="cls-6" points="154.87 277.77 157.57 254.91 161.98 249.82 167.98 253.86 172.06 277.21 164.35 282.8 154.87 277.77"/><polygon class="cls-7" points="172.06 272.42 154.87 272.98 160.8 288.07 168.81 291.55 172.06 272.42"/><polygon class="cls-5" points="124.59 140.66 148.22 167.5 145.52 141.68 145.24 135.59 135.06 133.03 124.59 140.66"/><polygon class="cls-8" points="129.12 71.67 131.16 122.15 136.17 138.15 161.5 138.15 136.41 56.99 129.12 71.67"/><polygon class="cls-4" points="124.59 140.66 131.16 122.15 161.5 138.15 160.36 147.94 145.52 141.68 124.59 140.66"/><path class="cls-8" d="M235,83.36l11.89,61.75s-4.12,23.16-5.52,23.35-21.1-.69-21.1-.69L230.43,140l-20.13,2.84Z"/><polygon class="cls-9" points="147.31 262.56 167.98 253.86 172.62 226.25 155.61 219.53 147.31 262.56"/><polygon class="cls-10" points="170.87 362.75 148.06 383.85 166.8 385.23 179.51 374.3 186.66 372.52 183.38 357.72 170.87 362.75"/><polygon class="cls-11" points="269.23 376.16 184.09 360.89 224.79 346.54 269.23 376.16"/><polygon class="cls-10" points="210.44 387.51 215.28 361.02 220.63 357.19 227.55 361.02 233.1 387.51 223.13 389.12 210.44 387.51"/><polygon class="cls-12" points="214.52 355.59 215.28 361.02 227.55 361.02 227.36 354.82 225.94 350.39 214.52 355.59"/><polygon class="cls-13" points="151.91 348.21 170.87 362.75 175.61 337.6 169.78 307.34 151.91 348.21"/><polygon class="cls-14" points="269.23 376.16 227.57 291.49 221.24 320.72 227.36 354.82 269.23 376.16"/><polygon class="cls-13" points="170.87 362.75 227.36 354.82 238.21 275.17 199.31 297.92 170.87 362.75"/><polygon class="cls-14" points="168.81 286.6 170.87 362.75 238.22 275.17 219.15 265.12 179.07 273.4 168.81 286.6"/><polygon class="cls-11" points="168.81 291.55 238.21 275.17 219.14 246.1 185.68 207.59 167.31 215.41 167.98 253.86 168.81 291.55"/><polygon class="cls-14" points="182.41 155.56 162.57 174.4 154.97 204.25 167.31 212.92 173.3 209.01 181.54 180.33 182.41 155.56"/><polygon class="cls-14" points="211.81 156.95 186.87 181.51 172.66 209.43 196.94 218.25 226.22 215.45 224.2 188.62 211.81 156.95"/><polygon class="cls-3" points="141.46 228.02 164.56 239.84 167.31 237.94 154.97 204.25 162.85 188.95 149.54 208.24 141.46 228.02"/><polygon class="cls-9" points="160.63 163.55 185.33 151.3 182.41 155.73 141.46 228.02 160.63 163.55"/><polygon class="cls-3" points="241.34 168.24 225.74 162.38 225.38 177.4 230.86 235.42 236.05 246.51 247.88 245.01 250.48 229.75 241.34 168.24"/><polygon class="cls-9" points="259.96 258.05 229.85 254.1 230.31 228.97 246.29 201.53 259.96 258.05"/><polygon class="cls-9" points="211.81 156.95 230.31 228.97 225.74 162.38 221.24 156.03 211.81 156.95"/><polygon class="cls-3" points="145.52 141.68 160.63 163.55 183.51 155.13 183.18 149.87 176.57 135.33 161.5 138.15 145.52 141.68"/><polygon class="cls-3" points="217.55 138.77 238.16 138.73 225.74 162.38 210.14 156.3 209.61 147.76 217.55 138.77"/><polygon class="cls-6" points="182.41 155.56 194.57 151.29 211.81 156.95 173.96 207.59 175.41 196.88 182.41 155.56"/><polygon class="cls-15" points="170.36 137.28 212.47 130.89 212.14 142.49 202.98 161.42 185.44 169.12 179.5 157.99 170.36 137.28"/><polygon class="cls-7" points="213.55 74.8 204.6 105.45 191.13 138.78 208.84 138.76 202.98 161.42 211.81 156.95 231.03 110.58 227 80.63 213.55 74.8"/><polygon class="cls-15" points="223.37 98.79 231.03 110.58 234.98 99.63 229.43 95.76 223.37 98.79"/><polygon class="cls-6" points="227 80.63 223.37 98.79 234.98 99.63 237.8 92.95 227 80.63"/><polygon class="cls-15" points="230.82 84.98 229.12 94.25 234.81 91.12 230.82 84.98"/><polygon class="cls-5" points="267.38 125.51 253.47 191.03 241.34 168.46 255.08 127.75 267.38 125.51"/><polygon class="cls-4" points="234.26 90.46 244.6 90.72 251.02 101.79 267.38 125.51 241.34 168.46 234.26 90.46"/><polygon class="cls-5" points="253.05 53.8 233.66 53.98 213.55 75.97 251.02 101.79 253.05 53.8"/><polygon class="cls-4" points="228.8 21.65 219.74 35.82 213.55 75.97 253.05 53.8 228.8 21.65"/><polygon class="cls-5" points="209.44 17.65 203.85 37.96 205.81 58.83 213.55 75.97 228.8 21.65 209.44 17.65"/><polygon class="cls-16" points="167.13 0 176.74 11.59 203.85 37.96 228.8 21.65 211.28 8.23 167.13 0"/><polygon class="cls-16" points="134.19 11.18 131.33 25.52 140.41 34 159.18 14.62 170.49 6.06 134.19 11.18"/><polygon class="cls-4" points="140.41 34 167.13 0 203.85 37.96 171.9 43.08 140.41 34"/><polygon class="cls-5" points="117.74 50.21 124.67 51.56 140.41 34 134.19 11.18 117.74 50.21"/><polygon class="cls-4" points="131.16 122.15 117.74 50.21 140.41 34 142.23 51.56 134.82 58.2 131.16 122.15"/><polygon class="cls-6" points="134.82 58.2 138.44 111.25 161.5 138.15 191.13 138.78 211.86 114.43 213.55 75.97 203.85 37.96 140.41 34 134.82 58.2"/><polygon class="cls-7" points="151.17 68.6 145.1 68.14 138.44 69.19 152.4 79.66 164.59 99.07 177.46 99.55 189.97 79.05 205.11 68.03 197.54 66.52 186.04 68.6 178.5 72.31 173.19 77.04 171.84 80.44 169.26 77.04 162.91 72.65 156.71 70.05 151.17 68.6"/><path class="cls-17" d="M188.84,82a4.18,4.18,0,1,0-4.18-4.18A4.19,4.19,0,0,0,188.84,82Z"/><polygon class="cls-18" points="168.95 111.31 157.94 113 167.48 118.67 177.52 118.06 185.1 112.86 171.95 111.25 168.95 111.31"/><polygon class="cls-13" points="154.97 204.25 167.98 255.01 219.14 247.08 226.22 215.45 154.97 204.25"/><rect class="cls-19" x="210.43" y="387.51" width="22.66" height="3.93"/><polygon class="cls-12" points="148.06 383.85 148.19 387.34 169.18 387.34 179.02 377.37 180.77 387.34 183.45 387.34 186.66 372.52 178.66 372.52 167.14 383.83 148.06 383.85"/><polygon class="cls-15" points="170.88 95.17 164.59 99.07 170.88 104.06 177.46 99.55 170.88 95.17"/><polygon class="cls-20" points="169.26 77.04 164.59 99.07 177.46 99.55 173.19 77.04 169.26 77.04"/><polygon class="cls-4" points="138.44 69.19 146.05 66.65 159.56 68.73 162.91 72.65 145.48 69.07 138.44 69.19"/><polygon class="cls-4" points="178.5 72.31 183.23 67.57 198.12 65.21 205.11 68.03 197.78 67.63 178.5 72.31"/><polygon class="cls-9" points="185.1 112.86 176.71 121.14 166.81 120.85 157.94 113 159.59 112.99 165.43 115.83 177.02 115.73 182.65 112.87 185.1 112.86"/><polygon class="cls-3" points="157.94 113 166.8 109.88 174.74 109.76 185.1 112.86 157.94 113"/><path class="cls-17" d="M154.16,82.23A4.18,4.18,0,1,0,150,78.06,4.18,4.18,0,0,0,154.16,82.23Z"/></svg>