<svg id="Layer_1" data-name="Layer 1" xmlns="http://www.w3.org/2000/svg" viewBox="0 0 400 400"><defs><style>.cls-1{fill:#c1b274;}.cls-2{fill:#a09160;}.cls-3{fill:#f4c9b2;}.cls-4{fill:#fce3d4;}.cls-5{fill:#cbac14;}.cls-6{fill:#e4c728;}.cls-18,.cls-7{fill:#2b2b2b;}.cls-7{fill-opacity:0.1;}.cls-8{fill:#e2d086;}.cls-9{fill:#f3d65d;}.cls-10{fill:#b48a00;}.cls-11{fill:#846400;}.cls-12{fill:#9d7700;}.cls-13{fill:#755800;}.cls-14{fill:#c1907d;}.cls-15{fill:none;}.cls-16{fill:#fff7ae;}.cls-17{fill:#ffefe7;}.cls-19{fill:#fff;}</style></defs><title>explorers_ESTP_famous_real_madonna</title><g id="Layer_1-2" data-name="Layer_1"><polygon class="cls-1" points="233.04 150.27 231.36 140.49 234.39 120.26 242.15 102.05 247.21 108.12 248.22 136.44 244.85 153.3 233.04 150.27"/><polygon class="cls-2" points="223.94 122.28 233.04 150.27 242.15 102.05 235.74 106.09 223.94 122.28"/><polygon class="cls-3" points="223.6 185.67 224.28 198.82 235.74 208.94 242.48 213.99 258.67 215.01 269.8 212.31 238.44 162.07 231.36 160.38 226.3 168.81 223.6 185.67"/><polygon class="cls-4" points="153.13 175.22 154.48 161.39 164.93 160.04 162.24 169.49 153.13 175.22"/><polygon class="cls-4" points="197.64 178.93 213.49 195.11 224.28 198.82 229.34 170.5 231.36 160.38 222.93 161.06 197.64 178.93"/><polygon class="cls-4" points="166.96 200.84 154.48 182.3 169.99 163.08 177.75 158.36 187.19 165.44 214.84 156 214.5 161.73 166.96 200.84"/><polygon class="cls-3" points="171.34 185.33 164.26 191.74 162.57 198.15 171.68 198.48 172.35 191.4 171.34 185.33"/><polygon class="cls-5" points="197.64 178.93 196.97 170.84 214.84 156 231.36 160.38 205.39 179.26 197.64 178.93"/><polygon class="cls-6" points="164.93 160.04 153.13 175.22 154.48 182.3 159.2 183.99 177.75 158.36 164.93 160.04"/><polygon class="cls-7" points="123.46 384.94 203.37 397.42 280.92 386.63 203.03 377.53 123.46 384.94"/><polygon class="cls-1" points="267.1 142.51 244.85 153.3 248.56 137.45 251.92 134.42 267.1 142.51"/><polygon class="cls-8" points="271.48 82.83 244.85 153.3 242.15 102.05 237.76 96.99 234.73 46.08 238.78 43.04 241.81 34.61 248.89 36.97 267.44 69.34 271.48 82.83"/><polygon class="cls-9" points="148.07 218.04 144.36 223.44 144.36 229.84 156.17 241.98 194.27 241.31 202.02 233.55 201.01 227.15 200.67 221.75 167.29 206.91 148.07 218.04"/><polygon class="cls-9" points="239.45 375.17 226.97 372.47 218.88 387.64 249.9 387.31 239.45 375.17"/><polygon class="cls-10" points="245.52 356.96 244.17 370.11 249.9 387.31 252.94 368.76 245.52 356.96"/><polygon class="cls-5" points="245.52 356.96 237.43 350.55 230.01 353.59 226.97 372.47 249.9 387.31 245.52 356.96"/><polygon class="cls-9" points="138.97 385.96 162.91 386.29 161.22 376.18 153.13 370.45 138.97 385.96"/><polygon class="cls-10" points="180.78 365.39 174.37 367.41 171.34 375.84 175.39 385.62 180.78 365.39"/><polygon class="cls-5" points="159.88 357.63 165.94 353.25 173.36 353.25 180.78 365.39 162.91 386.29 153.13 370.45 159.88 357.63"/><polygon class="cls-11" points="147.4 250.41 154.82 315.82 159.2 318.18 179.43 315.49 185.16 312.45 190.9 292.9 190.56 286.49 185.5 278.73 155.83 254.12 147.4 250.41"/><polygon class="cls-12" points="214.5 251.42 189.21 273.68 183.81 282.44 202.36 310.77 211.46 313.8 233.04 311.44 238.44 307.06 232.03 261.87 220.91 249.4 214.5 251.42"/><polygon class="cls-13" points="202.36 310.77 238.44 307.06 245.52 356.96 230.01 353.59 202.36 310.77"/><polygon class="cls-13" points="159.88 357.63 173.36 353.25 185.16 312.45 154.82 315.82 159.88 357.63"/><polygon class="cls-5" points="150.1 245.01 147.4 250.41 183.81 282.44 161.56 249.4 156.17 246.36 150.1 245.01"/><polygon class="cls-5" points="197.98 248.05 182.8 276.71 183.81 282.44 220.91 249.4 215.51 245.69 197.98 248.05"/><polygon class="cls-6" points="156.17 246.36 155.83 249.4 183.81 282.44 198.31 248.72 196.97 245.69 156.17 246.36"/><polygon class="cls-5" points="152.46 243.67 156.17 237.93 192.92 236.58 199.66 243.67 198.31 248.72 155.83 249.4 152.46 243.67"/><polygon class="cls-6" points="166.28 237.6 177.07 235.24 176.73 252.77 166.62 250.07 166.28 237.6"/><path class="cls-10" d="M166.28,233.55l.34,19.56,13.49-.34-.34-19.22Zm0,4,9.44-.34-.33,11.8h-8.77Z"/><polygon class="cls-4" points="140.32 240.29 144.7 227.82 156.17 237.93 155.83 249.4 147.4 250.41 140.32 240.29"/><polygon class="cls-4" points="201.01 227.15 192.92 236.58 198.31 248.72 219.89 248.39 214.5 235.24 201.01 227.15"/><polygon class="cls-3" points="218.88 228.49 201.01 227.15 220.91 249.4 225.63 237.6 218.88 228.49"/><polygon class="cls-3" points="136.61 236.92 147.4 250.41 144.7 227.82 136.61 236.92"/><polygon class="cls-5" points="119.08 193.09 161.56 205.56 166.62 212.98 144.7 227.82 119.08 193.09"/><polygon class="cls-6" points="166.62 212.98 170.66 203.2 166.96 195.79 149.42 190.39 119.08 193.09 166.62 212.98"/><polygon class="cls-9" points="153.13 175.22 119.08 193.09 166.96 195.79 153.13 175.22"/><polygon class="cls-10" points="166.62 212.98 173.7 198.48 185.16 187.69 204.38 210.28 201.01 227.15 166.62 212.98"/><polygon class="cls-5" points="166.96 195.79 166.62 212.98 185.16 187.69 178.76 188.71 166.96 195.79"/><polygon class="cls-5" points="204.72 188.03 185.16 187.69 201.01 227.15 224.28 198.82 204.72 188.03"/><polygon class="cls-6" points="185.16 182.64 196.97 170.84 224.28 198.82 185.16 187.69 185.16 182.64"/><polygon class="cls-9" points="166.96 195.79 196.97 170.84 185.16 187.69 166.96 195.79"/><polygon class="cls-4" points="235.74 208.94 218.88 228.49 220.91 249.4 269.8 212.31 235.74 208.94"/><polygon class="cls-14" points="175.72 153.98 178.76 149.59 208.43 145.88 195.28 162.74 183.48 172.18 175.72 153.98"/><polygon class="cls-3" points="212.81 118.91 183.14 149.25 183.81 152.63 202.02 150.27 183.48 172.18 214.84 156 242.15 102.05 209.78 65.3 205.73 72.38 212.81 118.91"/><polygon class="cls-14" points="226.64 95.31 242.15 102.05 241.47 92.95 235.4 88.56 226.64 95.31"/><polygon class="cls-1" points="227.65 42.7 212.14 56.19 209.78 65.3 226.64 95.31 240.46 70.36 238.78 43.04 227.65 42.7"/><polygon class="cls-4" points="225.29 73.39 226.64 95.31 241.47 92.95 240.46 70.36 225.29 73.39"/><polygon class="cls-14" points="231.02 78.45 231.02 87.21 236.75 76.76 231.02 78.45"/><line class="cls-15" x1="276.2" y1="90.92" x2="222.25" y2="2.92"/><line class="cls-15" x1="189.55" y1="49.45" x2="222.25" y2="2.92"/><polygon class="cls-16" points="258.33 28.21 222.25 2.58 223.6 12.7 235.4 31.58 241.81 34.61 271.48 82.83 258.33 28.21"/><polygon class="cls-1" points="210.45 9.32 210.45 19.44 213.15 28.21 227.65 42.7 238.78 43.04 244.17 38.99 222.25 2.92 210.45 9.32"/><polygon class="cls-8" points="175.05 24.84 181.46 28.21 197.98 25.85 210.45 19.44 222.25 2.92 184.15 7.98 175.05 24.84"/><polygon class="cls-8" points="190.9 57.54 189.55 49.45 187.52 41.36 200 23.15 210.45 19.44 238.78 43.04 209.78 65.3 201.35 66.64 190.9 57.54"/><polygon class="cls-1" points="156.84 45.74 159.54 53.49 163.58 57.2 183.14 55.18 189.55 49.45 210.45 19.44 175.05 24.84 165.27 29.22 156.84 45.74"/><polygon class="cls-8" points="146.39 32.25 135.94 50.46 139.64 55.52 144.03 59.23 155.49 57.88 159.54 53.49 175.05 24.84 153.81 28.21 146.39 32.25"/><polygon class="cls-4" points="141.33 134.42 162.91 155.66 183.81 152.63 214.5 124.3 209.78 65.3 189.55 49.45 139.64 55.52 133.24 60.58 130.88 72.04 141.33 134.42"/><polygon class="cls-3" points="147.06 96.32 133.91 89.24 140.66 85.53 156.17 90.25 158.86 94.97 160.55 105.42 157.18 115.87 147.06 96.32"/><polygon class="cls-3" points="164.26 94.29 166.28 88.56 182.47 79.46 194.27 81.48 179.77 90.92 169.99 114.86 164.93 104.07 164.26 94.29"/><polygon class="cls-14" points="164.93 120.93 157.18 115.87 163.25 112.5 169.99 114.86 164.93 120.93"/><polygon class="cls-17" points="158.86 94.97 164.26 94.29 169.99 114.86 157.18 115.87 158.86 94.97"/><path class="cls-18" d="M145.88,93.58a3.68,3.68,0,1,1-3.08,4.19A3.67,3.67,0,0,1,145.88,93.58Z"/><path class="cls-18" d="M180,88.38A3.67,3.67,0,1,1,177,92.57,3.67,3.67,0,0,1,180,88.38Z"/><path class="cls-3" d="M153.47,121.94a1.69,1.69,0,1,1-1.69,1.69A1.69,1.69,0,0,1,153.47,121.94Z"/><polygon class="cls-6" points="164.26 135.43 157.18 129.36 183.48 125.99 175.05 134.42 164.26 135.43"/><polygon class="cls-19" points="164.93 132.06 161.56 128.69 178.42 126.66 172.69 131.38 164.93 132.06"/><polygon class="cls-10" points="166.96 125.99 162.24 125.31 157.18 129.36 183.48 125.99 171.68 123.63 166.96 125.99"/><polygon class="cls-2" points="140.32 84.18 133.91 89.24 140.66 86.88 156.17 90.25 154.82 86.54 140.32 84.18"/><polygon class="cls-2" points="166.96 84.52 166.28 88.56 182.8 80.13 194.27 81.48 182.8 77.44 166.96 84.52"/><polygon class="cls-16" points="127.17 51.13 130.88 72.04 153.81 28.21 144.03 29.89 127.17 51.13"/></g></svg>