<svg id="illustration_layer" xmlns="http://www.w3.org/2000/svg" viewBox="0 0 400 400"><defs><style>.cls-1{fill:#9b6534;}.cls-1,.cls-10,.cls-11,.cls-12,.cls-13,.cls-14,.cls-15,.cls-16,.cls-17,.cls-18,.cls-2,.cls-3,.cls-4,.cls-5,.cls-6,.cls-7,.cls-8,.cls-9{fill-rule:evenodd;}.cls-2{fill:#7c4e25;}.cls-3{fill:#785d87;}.cls-19,.cls-4{fill:#2b2b2b;}.cls-4{opacity:0.1;}.cls-5{fill:#f4c9b2;}.cls-6{fill:#fce3d4;}.cls-7{fill:#a587b9;}.cls-8{fill:#c1907d;}.cls-9{fill:#95637c;}.cls-10{fill:#734d60;}.cls-11{fill:#543042;}.cls-12{fill:#b2879c;}.cls-13{fill:#cdcdcc;}.cls-14{fill:#fff;}.cls-15{fill:#ffefe7;}.cls-16{fill:#af7546;}.cls-17{fill:#cc9262;}.cls-18{fill:#d0a0b7;}</style></defs><title>analysts_ENTJ_famous_real_margaret_thatcher</title><polygon class="cls-1" points="130.67 37.33 156.34 56.33 150.34 89.65 127.67 75 130.67 37.33"/><polygon class="cls-2" points="127.67 75 140.29 102.04 152.75 101.5 150.34 86.64 127.67 75"/><polygon class="cls-3" points="140.29 102.04 148.69 98.69 146.33 115 140.29 102.04"/><polygon class="cls-4" points="114.64 386 224.33 377.5 284.67 386 212.65 400 114.64 386"/><polygon class="cls-5" points="186.33 333.33 199.11 366.33 210.78 370.34 207.07 330.6 186.33 333.33"/><polygon class="cls-3" points="199.11 366.33 174.04 388 202.68 388 210.78 370.34 199.11 366.33"/><polygon class="cls-6" points="202.5 331.2 210.78 370.34 216.17 372 224.33 371.5 236.92 326.66 202.5 331.2"/><polygon class="cls-3" points="224.33 371.5 228.99 377.5 224.31 392.5 220.33 392.5 217.5 372.83 224.33 371.5"/><polygon class="cls-7" points="210.78 370.34 194.33 392.5 220.33 392.5 224.33 371.5 210.78 370.34"/><polygon class="cls-5" points="192.56 332.51 204.63 341.23 236.92 326.66 203.68 327.33 192.56 332.51"/><polygon class="cls-8" points="186.33 333.33 204.63 341.23 202.5 331.2 203.68 327.33 186.33 333.33"/><polygon class="cls-9" points="163.9 171 153.96 167.66 133 211.5 156.34 219.08 163.9 171"/><polygon class="cls-10" points="153.96 214 119.33 201.88 110.5 204.25 108.33 210.88 142.17 240.25 166.9 232.24 153.96 214"/><polygon class="cls-9" points="248.33 170 259.67 170 270 228.33 232.75 227.33 248.33 170"/><polygon class="cls-11" points="270 228.33 237.33 260 232.75 237.66 242.25 224 270 228.33"/><polygon class="cls-9" points="164.81 282 175.97 308.61 211.63 308.12 241.63 296.5 249.34 281.49 192.56 264.5 164.81 282"/><polygon class="cls-12" points="192.02 160.13 163.9 171 153.96 214 188.8 224 242.25 224 248.33 170 227.67 162 192.02 160.13"/><polygon class="cls-13" points="227.67 162 212.17 188.88 188.24 217.88 187 183.66 190.63 161.25 227.67 162"/><polygon class="cls-14" points="200 167.66 189.69 183.49 192.02 160.13 227.67 162 209.3 188.03 200 167.66"/><polygon class="cls-2" points="252 133.75 234.16 142.22 232.5 127.5 243.27 115.22 252 133.75"/><polygon class="cls-1" points="280.67 99.33 252 133.75 241.33 120.33 229.67 107.25 234.92 89.65 258 90.69 280.67 99.33"/><polygon class="cls-6" points="153.33 57.33 146.33 115 153.34 142.33 176.33 145.33 203.68 163.83 220.83 159.5 236.92 120.5 250.17 109.5 247.33 105.5 231.67 107 235.33 66 222.25 46.17 153.33 57.33"/><polygon class="cls-5" points="233.6 64.63 209.32 135.28 192.24 148.75 187 150.83 200 167.66 227.67 162 239.33 126.44 240.53 118.35 252 113 258.67 98.5 248.19 92.46 234.67 104 234.92 89.65 239 78.33 233.6 64.63"/><polygon class="cls-5" points="207.29 84.51 177.88 106.56 156.48 77.85 165.76 73.73 171.77 77.83 177.09 79.85 184.06 80.75 189.07 79.92 195.95 78.09 207.29 84.51"/><polygon class="cls-8" points="234.67 104 232.5 118.83 239.33 126.44 241.33 120.33 241.33 114 236.92 109.52 234.67 104"/><polygon class="cls-8" points="176.33 145.33 222.25 150.5 200 167.66 176.33 145.33"/><polygon class="cls-8" points="177.88 106.56 173.21 111.74 169.9 106.01 177.88 106.56"/><polygon class="cls-15" points="169.91 105.63 171.57 90.51 177.09 79.85 184.06 80.75 179.88 91.45 177.88 106.56 169.91 105.63"/><polygon class="cls-1" points="219.33 53.33 186.33 28 174 8.33 206.67 0 215.33 20.5 219.33 53.33"/><polygon class="cls-2" points="219.33 53.33 174 32 153.33 57.33 219.33 53.33"/><polygon class="cls-16" points="219.33 53.33 189.29 23.51 174 14.33 155.67 20.6 138 35.67 149.33 46.67 153.33 57.33 174 35.67 219.33 53.33"/><polygon class="cls-17" points="189.3 23.52 155.67 20.6 153.33 57.33 130.67 37.33 174 8.33 189.3 23.52"/><polygon class="cls-17" points="219.33 53.33 206.67 0 229.67 12.33 229.67 29.5 219.33 53.33"/><polygon class="cls-16" points="219.33 53.33 229.67 12.33 255.33 26.33 240 41.75 219.33 53.33"/><polygon class="cls-17" points="219.33 53.33 235.33 66 258 58.75 277.33 39 255.33 26.33 219.33 53.33"/><polygon class="cls-2" points="277.33 39 280.67 99.33 250.83 82 233.6 64.63 277.33 39"/><polygon class="cls-16" points="233.6 64.63 280.67 99.33 234.92 89.65 233.6 64.63"/><polygon class="cls-1" points="187.42 80.19 189.18 76.5 199.96 77.57 207.29 84.51 194.12 79.07 187.42 80.19"/><polygon class="cls-1" points="156.48 77.85 166.55 75.84 173.25 78.39 173.04 74.72 163.73 72.67 156.48 77.85"/><polygon class="cls-9" points="161.13 120.17 173.65 117.75 189.03 121.92 173.38 125.99 161.13 120.17"/><polygon class="cls-12" points="189.03 121.92 173.5 132.67 161.13 120.17 173.43 124.58 189.03 121.92"/><polygon class="cls-14" points="165.28 121.66 183.5 122.86 177.73 126.76 170.17 126.11 165.28 121.66"/><polygon class="cls-8" points="244.27 104 248.16 98 255.17 100.5 246.27 109.35 244.27 104"/><polygon class="cls-7" points="236.92 109.51 244.27 104 252 113 241.33 120.33 236.92 109.51"/><polygon class="cls-9" points="153.96 214 175.47 260 181.17 264.5 192.56 264.5 195 241.19 188.24 217.88 153.96 214"/><polygon class="cls-10" points="242.25 224 237.33 260 217.5 264.5 192.56 264.5 188.24 217.88 242.25 224"/><polygon class="cls-18" points="192.02 160.13 158.93 192.48 188.24 217.88 192.02 160.13"/><polygon class="cls-18" points="227.67 162 188.24 217.88 244.49 204.15 227.67 162"/><polygon class="cls-3" points="216.36 192.62 223.63 188.88 232.75 193.25 230.88 203 222.25 206.87 213.88 201.12 216.36 192.62"/><polygon class="cls-7" points="218.33 196.85 228.11 194.45 225.08 202.73 218.33 196.85"/><polygon class="cls-12" points="192.56 264.5 208.64 297.5 249.34 281.49 237.33 260 192.56 264.5"/><polygon class="cls-18" points="192.56 264.5 183.33 292.33 164.81 282 175.47 260 192.56 264.5"/><polygon class="cls-11" points="236.92 326.66 245.21 296.5 218.38 307.41 186.33 333.33 236.92 326.66"/><polygon class="cls-18" points="176.59 230.27 180.06 226.25 184.5 230.27 180.54 234.02 176.59 230.27"/><polygon class="cls-18" points="179.09 247.37 182.56 243.35 187 247.37 183.04 251.12 179.09 247.37"/><polygon class="cls-10" points="249.34 281.49 175.97 308.61 186.33 333.33 245.21 296.5 249.34 281.49"/><polygon class="cls-8" points="108.33 210.88 93.25 204.25 110.5 186.13 119.33 201.88 108.33 210.88"/><polygon class="cls-5" points="93.25 161.25 88 163.89 97.25 184 86.5 196.25 93.25 204.25 111.5 187.5 93.25 161.25"/><polygon class="cls-6" points="119.33 201.88 114.67 181.33 97.25 184 98 190.89 107.07 191.56 112.87 207.17 119.33 201.88"/><polygon class="cls-5" points="177.88 106.56 187.75 111.05 189.03 121.92 177.88 106.56"/><polygon class="cls-5" points="169.9 106.01 161.42 110.36 161.13 120.17 169.9 106.01"/><circle class="cls-19" cx="192.31" cy="88.87" r="3.73"/><circle class="cls-19" cx="165.1" cy="85.09" r="3.73"/></svg>