<svg id="illustration_layer_copy_5" data-name="illustration_layer copy 5" xmlns="http://www.w3.org/2000/svg" viewBox="0 0 400 400"><defs><style>.cls-1{fill:#46382d;}.cls-2{fill:#281b0e;}.cls-3{fill:#fff;}.cls-15,.cls-4{fill:#2b2b2b;}.cls-4{opacity:0.1;}.cls-5{fill:#785d88;}.cls-6{fill:#a27e6e;}.cls-7{fill:#9075a0;}.cls-8{fill:#7f5d4e;}.cls-9{fill:#593e35;}.cls-10{fill:#96637c;}.cls-11{fill:#59493e;}.cls-12{fill:#aa8d80;}.cls-13{fill:#543042;}.cls-14{fill:#474747;}.cls-16{fill:#cfcecd;}.cls-17{fill:#734d60;}.cls-18{fill:#d1a1b8;}</style></defs><title>analysts_INTJ_famous_real_michelle_obama</title><polygon class="cls-1" points="136.94 50.7 122.28 79.44 142.11 85.26 148.69 46.39 136.94 50.7"/><polygon class="cls-2" points="122.28 79.44 137.97 111.06 146.18 97.64 140.8 81.25 122.28 79.44"/><polygon class="cls-3" points="142.79 91.09 136.43 80.82 142.48 73.83 143.71 84.52 142.79 91.09"/><polygon class="cls-4" points="131.86 383.43 208.03 374.4 290.53 384.47 206.68 400 131.86 383.43"/><polygon class="cls-5" points="190.1 373.77 179.12 387 206.61 387.58 213.15 370.66 220.13 375.84 221.88 373.08 217.97 360.31 208.03 351.68 196.98 374.12 190.1 373.77"/><polygon class="cls-5" points="229.47 366.78 234.91 378.26 229.47 392.75 225.17 392.75 225.17 377.57 229.47 366.78"/><polygon class="cls-6" points="217.82 317.71 210.17 334.79 217.97 360.31 206.68 380.8 209.06 388.61 225.17 392.75 236.49 329.45 217.82 317.71"/><polygon class="cls-7" points="225.17 392.75 206.68 380.8 200.09 392.75 225.17 392.75"/><polygon class="cls-8" points="158.96 312.54 194.68 352.02 190.1 373.77 206.68 380.8 209.06 352.72 201.23 334.85 185.9 310.12 158.96 312.54"/><polygon class="cls-9" points="236.49 329.45 210.17 334.79 206.82 321.7 236.49 329.45"/><polygon class="cls-9" points="158.96 312.54 201.23 334.85 194.96 316.49 158.96 312.54"/><polygon class="cls-8" points="260.15 152.35 269.13 219.81 245.47 226.54 234.59 197.22 260.15 152.35"/><polygon class="cls-8" points="169.22 152.35 145.77 213.44 173.49 228.3 169.22 152.35"/><polygon class="cls-10" points="169.22 152.35 194.24 144.06 260.15 152.35 238.71 197.22 199.06 203.77 164.16 201.7 169.22 152.35"/><polygon class="cls-2" points="149.37 139.92 169.22 152.35 179.9 149.52 184.91 149.52 188.19 147.33 192.37 146.22 181.96 124.05 149.37 139.92"/><polygon class="cls-11" points="142.79 91.09 124.33 114.38 149.37 139.92 179.9 129.91 142.79 91.09"/><polygon class="cls-2" points="262.73 74.22 262.73 51.57 242.92 25.34 211.24 7.82 233.06 45.53 262.73 74.22"/><polygon class="cls-6" points="148.69 46.39 140.8 81.25 149.8 125.64 179.9 129.91 196.71 150.36 222.86 144.15 249.18 110.59 247.47 85.05 230.66 35.69 194.82 20.5 181.96 22.58 148.69 46.39"/><polygon class="cls-9" points="194.82 20.5 169.22 43.2 181.96 20.5 194.82 20.5"/><polygon class="cls-8" points="225.68 33.34 213.75 94.23 196.71 132.41 191.9 155.11 226.54 150.28 249.18 110.59 247.47 85.05 230.66 35.69 225.68 33.34"/><polygon class="cls-9" points="179.9 129.91 218.22 135.61 191.9 155.11 179.9 129.91"/><polygon class="cls-8" points="205.11 63.91 178.74 83.71 167.04 77.88 151.86 55.49 161.29 50.7 169.22 56.14 171.15 58.99 179.64 60.28 183.76 57.18 194.24 54.66 205.11 63.91"/><polygon class="cls-12" points="179.64 60.28 175.65 68.56 178.74 83.71 164.16 81.64 171.99 68.56 171.15 58.99 179.64 60.28"/><polygon class="cls-9" points="178.74 83.71 170.85 88.89 164.16 81.64 178.74 83.71"/><polygon class="cls-13" points="154.13 92.8 170.59 91.09 191.94 97.56 178.74 111.06 162.19 108.9 154.13 92.8"/><polygon class="cls-3" points="158.25 95.23 186.72 99.24 178.1 107.39 163.31 105.37 158.25 95.23"/><polygon class="cls-8" points="178.74 83.71 191.94 97.56 187.44 114.04 196.71 96.36 178.74 83.71"/><polygon class="cls-8" points="164.16 81.64 154.13 92.8 154.26 106.97 149.37 91.09 164.16 81.64"/><polygon class="cls-14" points="183.37 57.43 194.24 53.42 205.11 63.91 194.24 56.66 184.78 59.25 183.37 57.43"/><polygon class="cls-14" points="167.04 57.18 169.22 56.14 161.29 49.02 151.86 55.49 160.09 52.06 167.04 57.18"/><ellipse class="cls-15" cx="188.73" cy="68.52" rx="4.03" ry="4.05"/><ellipse class="cls-15" cx="161.29" cy="64.92" rx="4.03" ry="4.05"/><polygon class="cls-2" points="198.42 20.5 181.96 20.5 187.7 7.21 198.42 20.5"/><polygon class="cls-1" points="180.95 5.17 193.98 0.7 205.82 0.83 262.73 74.22 246.26 67.21 222.14 50.7 180.95 5.17"/><polygon class="cls-2" points="222.14 50.7 233.4 67.21 229.54 83.71 234.95 85.73 240.35 81.25 247.47 85.05 264.01 95.23 271.73 79.44 222.14 50.7"/><polygon class="cls-1" points="211.24 7.82 248.49 17.39 262.73 51.57 211.24 7.82"/><polygon class="cls-11" points="193.98 0.7 176.88 0.26 134.37 33.34 149.63 42.02 169.22 43.2 193.98 0.7"/><polygon class="cls-2" points="169.22 43.2 136.94 50.7 134.37 33.34 169.22 43.2"/><polygon class="cls-3" points="243.63 96.3 238.71 88.89 225.17 97.64 232.54 113.17 235.66 110.27 230.57 99.91 237.26 94.19 239.59 99.89 243.63 96.3"/><polygon class="cls-3" points="226.54 146.22 226.54 150.28 226.54 154.07 223.71 155.11 219.84 154.07 219 147.17 226.54 146.22"/><polygon class="cls-3" points="219.84 154.07 213.51 155.11 214.71 161.67 219.84 162.1 222.14 160.98 222.14 157.53 219.84 154.07"/><polygon class="cls-3" points="208.02 161.67 214.71 161.67 215.65 165.03 213.51 168.22 210.17 169.09 206.82 167.53 208.02 161.67"/><polygon class="cls-3" points="201.16 163.22 206.82 167.53 202.19 172.88 196.71 169.09 201.16 163.22"/><polygon class="cls-3" points="194.99 161.67 196.71 169.09 189.5 169.09 188.64 163.22 194.99 161.67"/><polygon class="cls-3" points="191.9 155.11 188.64 163.22 184.44 161.67 182.47 159.16 182.9 155.71 185.9 154.07 191.9 155.11"/><polygon class="cls-3" points="185.9 154.07 188.19 147.33 179.9 149.52 182.47 152.78 185.9 154.07"/><polygon class="cls-16" points="226.54 154.07 227.57 160.11 222.14 160.98 219.84 154.07 226.54 154.07"/><polygon class="cls-16" points="214.71 161.67 222.14 160.98 220.54 169.09 213.51 168.22 214.71 161.67"/><polygon class="cls-16" points="213.51 168.22 213.51 176.51 206.82 175.3 206.82 167.53 213.51 168.22"/><polygon class="cls-16" points="206.82 175.3 202.19 172.88 198.42 177.03 203.73 181.69 206.82 175.3"/><polygon class="cls-16" points="189.55 175.03 196.71 169.09 198.42 177.03 192.37 179.96 189.55 175.03"/><polygon class="cls-16" points="189.55 175.03 189.5 169.09 182.47 168.22 183.16 175.3 189.55 175.03"/><polygon class="cls-16" points="182.47 168.22 188.64 163.22 182.47 159.16 178.74 163.69 182.47 168.22"/><polygon class="cls-16" points="182.47 159.16 185.9 154.07 179.9 149.52 176.64 155.11 182.47 159.16"/><polygon class="cls-17" points="238.71 197.22 245.47 226.54 189.55 245.71 173.96 229.66 164.16 201.7 238.71 197.22"/><polygon class="cls-10" points="171.45 255.78 237.27 226.9 253.9 255.54 206.82 274.92 164.86 284.33 171.45 255.78"/><polygon class="cls-17" points="253.9 255.54 236.49 329.45 158.96 312.54 164.86 284.33 253.9 255.54"/><polygon class="cls-17" points="253.9 255.54 204.37 245.71 171.45 255.78 175.57 236.78 205.11 221.05 245.47 241.43 253.9 255.54"/><polygon class="cls-6" points="145.77 213.44 171.9 223.78 181.96 226.9 186.72 240.36 144.48 241.86 145.77 213.44"/><polygon class="cls-8" points="186.72 240.36 204.37 245.71 216.28 229.56 205.11 228.3 179.64 226.54 186.72 240.36"/><polygon class="cls-9" points="204.37 245.71 226.2 233.79 212.16 230.59 204.37 245.71"/><polygon class="cls-6" points="269.13 219.81 222.14 214.65 212.12 221.68 212.16 230.59 245.47 241.43 269.13 219.81"/><polygon class="cls-6" points="211.24 213.44 189.67 214.13 182.47 228.52 186.72 240.36 205.11 228.3 212.12 221.68 211.24 213.44"/><polygon class="cls-8" points="189.67 214.13 171.9 223.78 186.72 240.36 189.67 214.13"/><polygon class="cls-5" points="211.24 213.44 205.11 228.3 212.16 230.59 222.14 214.65 211.24 213.44"/><polygon class="cls-1" points="247.47 85.05 232.54 113.17 249.18 126.55 273.02 129.57 280.9 99.88 247.47 85.05"/><polygon class="cls-2" points="232.54 113.17 273.02 129.57 258.78 139.92 240.26 142.51 226.54 137.16 232.54 113.17"/><polygon class="cls-1" points="226.54 137.16 226.54 150.28 260.15 152.35 258.78 139.92 226.54 137.16"/><polygon class="cls-17" points="233.45 162.57 232.52 165.56 231.55 166.93 231.22 168.5 231.38 169.81 243.4 172.46 244.13 171.58 244.46 170.02 243.94 169 244.8 168.39 245.17 166.66 244.45 165.92 245.44 165.39 245.72 164.06 239.02 162.78 233.45 162.57"/><polygon class="cls-18" points="231.55 166.93 244.46 170.02 244.8 168.39 238.22 167.06 236.21 164.82 245.17 166.66 245.44 165.39 232.97 163.1 231.79 165.76 231.55 166.93"/><polygon class="cls-18" points="231.22 168.5 230.87 170.19 243.82 173.04 244.13 171.58 231.22 168.5"/><polygon class="cls-5" points="238.22 167.06 239.02 162.78 232.67 161.55 231.79 165.76 238.22 167.06"/><polygon class="cls-9" points="225.17 97.64 225.17 110.42 231.22 118.45 232.54 113.17 225.17 97.64"/><polygon class="cls-9" points="239.59 99.89 235.08 101.07 234.9 108.73 230.57 99.91 237.26 94.19 239.59 99.89"/></svg>