<svg id="Layer_1" data-name="Layer 1" xmlns="http://www.w3.org/2000/svg" viewBox="0 0 400 400"><defs><style>.cls-1{fill:#a09160;}.cls-2{fill:#c1907d;}.cls-20,.cls-3{fill:#2b2b2b;}.cls-3{fill-opacity:0.1;}.cls-4{fill:#ababab;}.cls-5{fill:#8f8f8f;}.cls-6{fill:#755800;}.cls-7{fill:#846400;}.cls-8{fill:#cbac14;}.cls-9{fill:#fce3d4;}.cls-10{fill:#e4c728;}.cls-11{fill:#f3d65d;}.cls-12{fill:#f4c9b2;}.cls-13{fill:#ececeb;}.cls-14{fill:#e2d086;}.cls-15{fill:#c1b274;}.cls-16{fill:#fff7ae;}.cls-17{fill:#ffefe7;}.cls-18{fill:#9d7700;}.cls-19{fill:#b48a00;}</style></defs><title>explorers_ESFP_famous_real_jamie_oliver</title><g id="Layer_1-2" data-name="Layer_1"><g id="_326866768" data-name=" 326866768"><polygon class="cls-1" points="268.04 121.89 256.25 125.82 255.76 110.09 266.08 96.34 268.04 121.89"/><polygon class="cls-2" points="194.84 138.59 190.91 144 196.81 154.31 195.82 163.65 213.02 191.16 247.41 159.22 219.9 137.61 194.84 138.59"/><polygon class="cls-3" points="102.97 378.33 195.82 398.48 273.45 382.76 185.51 364.09 102.97 378.33"/><polygon class="cls-4" points="115.25 376.37 159.47 376.37 159.47 369.49 150.14 366.54 125.08 366.54 115.25 369.49 115.25 376.37"/><polygon class="cls-5" points="159.47 369.49 159.47 358.68 157.01 353.77 145.71 349.35 140.8 350.33 115.25 369.49 159.47 369.49"/><polygon class="cls-6" points="151.12 317.91 140.8 350.33 159.47 358.68 190.42 327.24 187.96 322.33 156.52 315.45 151.12 317.91"/><polygon class="cls-7" points="151.12 317.91 190.42 327.24 207.61 309.56 207.12 302.68 170.28 278.6 163.89 275.66 151.12 317.91"/><polygon class="cls-8" points="280.81 167.57 274.43 174.45 263.13 229.97 296.05 246.67 304.4 244.71 292.61 205.9 280.81 167.57"/><polygon class="cls-9" points="293.59 258.46 276.89 278.6 270.5 280.08 255.27 270.25 261.16 241.76 266.08 237.34 291.62 252.57 293.59 258.46"/><polygon class="cls-10" points="276.39 251.58 264.11 247.16 262.64 233.41 268.04 228.99 283.76 235.86 286.71 245.69 276.39 251.58"/><polygon class="cls-11" points="283.76 235.86 276.39 251.58 293.59 258.46 304.4 244.71 283.76 235.86"/><polygon class="cls-4" points="219.9 387.18 251.83 387.18 251.83 379.32 244.95 376.37 226.77 376.37 219.9 379.32 219.9 387.18"/><polygon class="cls-5" points="227.27 365.07 219.9 379.32 251.83 379.32 245.94 365.56 241.02 363.1 231.69 363.1 227.27 365.07"/><polygon class="cls-6" points="221.37 324.78 214.49 329.7 227.27 365.07 245.94 365.56 258.22 325.77 250.85 322.33 221.37 324.78"/><polygon class="cls-7" points="207.61 309.56 214.49 329.7 258.22 325.77 268.04 294.33 267.06 278.6 260.18 266.32 249.37 268.78 211.06 298.26 207.61 309.56"/><polygon class="cls-6" points="186 292.85 197.79 290.39 200.25 263.87 209.09 264.36 226.77 289.41 225.79 294.33 207.61 309.56 186 292.85"/><polygon class="cls-8" points="149.15 232.92 168.8 228.49 175.68 219.16 178.14 173.47 174.21 171.02 157.5 179.86 152.1 189.19 147.19 223.09 149.15 232.92"/><polygon class="cls-12" points="213.02 142.03 243.97 162.17 249.37 154.31 249.86 145.96 263.13 105.67 261.65 96.83 245.94 68.83 228.74 60.48 224.32 71.29 225.79 115.99 211.54 133.68 213.02 142.03"/><polygon class="cls-13" points="205.16 168.56 232.18 167.57 213.02 193.12 205.16 168.56"/><polygon class="cls-8" points="174.21 171.02 172.73 184.77 163.89 275.66 186 292.85 200.74 294.33 204.18 268.29 209.09 264.36 215.48 190.17 214 183.79 205.16 168.56 191.89 172 190.91 162.17 174.21 171.02"/><polygon class="cls-8" points="214 183.79 232.18 167.57 242 172 251.34 158.73 280.81 167.57 260.18 266.32 225.79 294.33 204.18 268.29 214 183.79"/><polygon class="cls-14" points="150.14 65.39 207.61 37.88 214.49 18.23 205.65 1.52 148.17 26.58 133.43 65.39 151.12 85.04 155.54 73.74 150.14 65.39"/><polygon class="cls-15" points="133.43 65.39 149.15 55.07 155.54 73.74 151.12 85.04 133.43 65.39"/><polygon class="cls-15" points="235.62 48.2 228.74 54.58 229.23 66.37 242 74.23 240.53 98.31 251.34 95.85 273.94 73.25 271.48 52.62 263.62 47.21 235.62 48.2"/><polygon class="cls-2" points="263.13 105.67 251.34 95.85 259.2 93.88 266.08 96.34 263.13 105.67"/><polygon class="cls-9" points="273.94 73.25 255.27 70.3 251.34 95.85 266.08 96.34 273.94 73.25"/><polygon class="cls-2" points="260.18 76.69 258.22 89.95 266.08 77.67 260.18 76.69"/><polygon class="cls-14" points="207.61 37.88 209.58 43.77 221.86 54.09 228.74 54.58 271.48 52.62 268.04 26.58 251.34 23.14 213.02 30.51 207.61 37.88"/><polygon class="cls-15" points="205.65 1.52 207.61 37.88 268.04 26.58 205.65 1.52"/><polygon class="cls-16" points="186 10.37 189.44 32.97 207.61 37.88 186 10.37"/><polygon class="cls-9" points="149.15 55.07 164.38 44.27 207.61 37.88 228.74 54.58 231.2 118.45 213.02 142.03 174.7 145.47 154.07 122.87 149.15 55.07"/><polygon class="cls-12" points="188.95 133.68 186.49 139.57 190.91 144 188.95 133.68"/><polygon class="cls-12" points="172.73 65.88 184.53 69.32 202.7 59.49 185.02 66.86 172.73 65.88"/><polygon class="cls-12" points="157.5 80.62 160.94 75.22 179.12 78.65 181.58 84.06 182.56 92.9 177.65 103.71 170.28 87.01 157.5 80.62"/><polygon class="cls-12" points="189.44 83.08 186.98 91.92 192.38 103.22 199.75 85.04 216.95 76.69 210.56 71.29 192.38 78.16 189.44 83.08"/><polygon class="cls-1" points="159.47 73.25 155.54 79.64 157.5 80.62 161.44 76.69 179.12 78.65 177.16 75.22 159.47 73.25"/><polygon class="cls-1" points="194.84 73.25 192.38 78.16 210.07 73.25 215.48 77.67 218.42 76.2 211.06 69.32 194.84 73.25"/><polygon class="cls-2" points="177.65 103.71 184.03 100.27 192.38 103.22 185.51 108.62 177.65 103.71"/><polygon class="cls-17" points="181.58 84.06 189.44 83.08 192.38 103.22 177.65 103.71 181.58 84.06"/><polygon class="cls-2" points="176.17 115.5 177.16 117.96 203.19 111.57 205.65 106.66 205.16 105.18 203.19 106.66 202.21 109.6 176.17 115.5"/><polygon class="cls-12" points="199.75 102.73 203.19 106.66 210.07 106.66 199.75 102.73"/><polygon class="cls-9" points="128.52 194.6 129.5 200.98 146.7 212.77 152.59 210.81 158.49 173.96 160.94 158.24 157.01 139.08 153.57 139.08 147.19 146.45 149.64 156.28 128.52 194.6"/><polygon class="cls-10" points="140.8 202.95 152.59 210.81 149.15 232.92 133.92 219.65 134.91 204.42 140.8 202.95"/><polygon class="cls-9" points="104.94 156.28 124.1 167.08 131.47 161.68 129.01 153.33 104.94 156.28"/><polygon class="cls-12" points="158.49 173.96 145.71 171.5 124.1 167.08 129.01 153.33 149.64 156.28 158.49 173.96"/><path class="cls-10" d="M110.34,125.82,104,131.71l2.45,2.95,3,9.83h5.4l2-10.81Z"/><polygon class="cls-18" points="106.41 134.66 101.99 140.55 109.36 144.49 144.73 144.49 153.57 139.08 149.15 131.71 138.84 129.25 127.05 122.38 110.83 140.55 106.41 134.66"/><polygon class="cls-19" points="130.48 140.06 127.05 122.38 138.84 129.25 149.15 131.71 142.28 139.08 138.84 129.25 130.48 140.06"/><polygon class="cls-11" points="95.6 141.05 104.94 156.28 149.64 156.28 153.57 139.08 95.6 141.05"/><polygon class="cls-11" points="140.8 202.95 133.92 219.65 120.66 208.35 128.52 194.6 140.8 202.95"/><polygon class="cls-12" points="268.04 294.33 260.18 266.32 276.89 278.6 268.04 294.33"/><path class="cls-13" d="M121.64,83.07l-6.39,13.27,7.86,8.35-1.47,13.76L129,104.69l-7.37-12.28Zm8.84,12.29,4.43,8.35L132,112.55l7.37-6.88Z"/><polygon class="cls-11" points="188.46 184.28 190.91 162.17 196.81 154.31 205.16 168.56 188.46 184.28"/><polygon class="cls-11" points="232.18 167.57 246.92 183.3 256.74 160.21 249.86 145.96 232.18 167.57"/><polygon class="cls-11" points="168.8 228.49 183.05 232.92 197.3 228.49 199.26 213.76 201.23 198.53 171.75 198.53 170.28 213.27 168.8 228.49"/><path class="cls-11" d="M225.79,213.76l-2,15.23,13.75,4.42L252.32,229l3-15.23,3-14.74h-30Z"/><path class="cls-20" d="M169.3,83.57a2.95,2.95,0,1,1-3,3A2.95,2.95,0,0,1,169.3,83.57Z"/><path class="cls-20" d="M199.75,82.09a3,3,0,1,1-2.94,3A2.95,2.95,0,0,1,199.75,82.09Z"/><polygon class="cls-14" points="164.38 44.27 150.14 65.39 181.09 50.65 170.77 43.28 164.38 44.27"/><polygon class="cls-15" points="167.33 43.77 154.56 23.63 207.61 37.88 181.09 50.65 167.33 43.77"/><polygon class="cls-16" points="145.22 14.3 151.61 38.37 181.09 50.65 145.22 14.3"/><polygon class="cls-3" points="104.94 156.28 153.57 139.08 149.64 156.28 104.94 156.28"/><path class="cls-3" d="M152.59,210.81l19.16-12.28,102.68,1,18.18,6.38-5.9-19.15-8.84-3.94-105.14,2-17.68,9.83Zm-3.44,22.11,21.13-19.65,100.71,1,27.51,11.3,5.9,19.16-6.39-3h0L268,229l-99.24-.5Zm14.74,42.74,38.81,4.42-2,14.25H188Zm3-30,97.27,1.47-3.93,19.16-94.82-3.93Zm48.64,35.86,27.51-1-17.2,13.76Z"/><path class="cls-3" d="M157.5,179.86,168.31,230l5.9-58.95Zm56.5,3.93,18.18-16.21-16.7,114-11.3-13.26Zm-25.55.49,16.71-15.72-7.86,59.93L186,292.85l-11.79-9.33,8.84-50.6Zm58.47-1-21.13,111L243,280.57,252.32,229l13.27-65.84-8.85-2.94Zm33.89-15.72L268,229l15.72,6.87,2.95-49.12Z"/><polygon class="cls-6" points="208.6 198.53 212.53 194.1 216.95 199.02 211.54 202.95 208.6 198.53"/><polygon class="cls-6" points="204.67 228.49 209.09 224.56 213.02 228.49 208.1 232.42 204.67 228.49"/><polygon class="cls-6" points="200.25 263.87 205.16 260.43 209.09 264.36 204.18 268.29 200.25 263.87"/></g></g></svg>