<svg id="illustration_layer_copy_3" data-name="illustration_layer copy 3" xmlns="http://www.w3.org/2000/svg" viewBox="0 0 400 400"><defs><style>.cls-1{fill:#98796a;}.cls-2{fill:#82624d;}.cls-11,.cls-21,.cls-3{fill:#2b2b2b;}.cls-3{opacity:0.1;}.cls-4{fill:#66483a;}.cls-5{fill:#165e60;}.cls-6{fill:#318ea5;}.cls-7{fill:#1c7678;}.cls-8{fill:#27788b;}.cls-9{fill:#50a8a9;}.cls-10{fill:#8bdfdb;}.cls-11{opacity:0.2;}.cls-12{fill:#5ebfd8;}.cls-13{fill:#369395;}.cls-14{fill:#ebebea;}.cls-15{fill:#c3c3c3;}.cls-16{fill:#fce3d4;}.cls-17{fill:#f4c9b2;}.cls-18{fill:#c1907d;}.cls-19{fill:#ffefe7;}.cls-20{fill:#fff;}.cls-22{fill:#3a9fb9;}.cls-23{fill:#72cacb;}.cls-24{fill:#73cee4;}.cls-25{fill:#a98c80;}</style></defs><title>sentinels_ISTJ_famous_real_natalie_portman</title><polygon class="cls-1" points="257.07 119.1 260.46 142.44 241.16 144.61 248.5 114.35 257.07 119.1"/><polygon class="cls-1" points="268.39 38.63 236.13 7.38 241.18 42.26 248.5 79.72 276.5 94.71 268.39 38.63"/><polygon class="cls-2" points="248.5 79.72 276.5 94.71 257.07 119.1 249.99 99.11 248.5 79.72"/><polygon class="cls-3" points="126.44 384.12 230.03 372.5 294.8 381.44 196.83 400 126.44 384.12"/><polygon class="cls-4" points="152.98 34.36 128.41 53.11 142.61 92.61 152.98 34.36"/><polygon class="cls-1" points="147.4 24.8 128.41 53.11 147.72 45.17 147.4 24.8"/><polygon class="cls-2" points="151.77 13.31 181.35 0.34 163.29 29.46 147.4 24.8 151.77 13.31"/><polygon class="cls-5" points="164.47 193.17 124.65 173.09 132.99 158.12 143.28 153.03 171.88 161.95 171.88 179.83 164.47 193.17"/><polygon class="cls-6" points="272.88 193.13 271.44 227.14 249.25 261.16 228.01 239.38 243.08 193.13 272.88 193.13"/><polygon class="cls-5" points="267.26 209.55 238.76 244.69 238.76 252.89 249.25 261.16 292.95 228.31 267.26 209.55"/><polygon class="cls-7" points="249.07 205.94 253.33 177.38 273.97 182.27 292.95 228.31 249.07 205.94"/><polygon class="cls-5" points="219.23 324.44 185.65 324.03 161.26 306.02 184.59 262.19 208.15 303.45 219.23 324.44"/><polygon class="cls-8" points="215.89 315.8 243.26 345.99 223.26 355.83 209.51 329.35 215.89 315.8"/><polygon class="cls-7" points="243.26 345.99 230.03 372.39 214.36 370.68 218.23 355.24 223.26 351.71 243.26 345.99"/><polygon class="cls-9" points="221.08 374.45 217.51 376.84 231.29 379.16 247.21 350.45 243.26 345.99 229.02 370.68 221.08 374.45"/><polygon class="cls-10" points="231.29 379.16 229.02 370.68 214.36 370.68 210.77 379.33 231.29 379.16"/><polygon class="cls-6" points="175.72 283.45 185.65 324.03 212.86 339.81 210.01 281.23 189.34 262.19 179.27 274.02 175.72 283.45"/><polygon class="cls-8" points="185.65 324.03 208.03 318.78 212.86 344.96 185.65 324.03"/><polygon class="cls-11" points="189.34 262.19 180.23 301.9 175.72 283.45 183.86 268.63 189.34 262.19"/><polygon class="cls-8" points="189.34 262.19 203.89 285.86 219.23 274.02 207.7 254.64 189.34 262.19"/><polygon class="cls-12" points="203.89 285.86 198.75 334.1 209.51 353.87 222.25 351.71 230.69 332.12 219.23 274.02 203.89 285.86"/><polygon class="cls-13" points="171.88 161.95 160 205.94 201.23 215.2 247.78 211.08 254.84 183 171.88 161.95"/><polygon class="cls-7" points="160 205.94 179.6 249.15 207.7 254.64 238.76 244.69 249.07 205.94 160 205.94"/><polygon class="cls-14" points="181.18 172.73 184.01 205.94 198.3 230.55 210.01 205.94 210.33 202.59 208.03 177.38 181.18 172.73"/><polygon class="cls-15" points="184.01 205.94 210.01 205.94 208.03 247.1 198.75 252.89 188.63 248.47 184.01 205.94"/><polygon class="cls-11" points="170.36 167.56 182.92 193.13 210.01 205.94 235.87 191.79 273.97 182.27 230.83 177.38 170.36 167.56"/><polygon class="cls-4" points="248.5 79.72 246.96 74.35 231 141.99 242.45 142.7 257.07 119.1 248.5 79.72"/><polygon class="cls-2" points="154.22 125.22 172.83 148.06 197.55 142.26 176.88 122.95 154.22 125.22"/><polygon class="cls-5" points="184.59 136.37 162.72 149 199.58 166.49 230.83 161.18 260.46 142.44 184.59 136.37"/><polygon class="cls-16" points="147.4 24.8 136.87 92.81 143.54 124.11 179.32 129.69 212.67 157.22 228.36 145.64 236.46 86.04 220.6 50.48 185.96 21.22 160.36 22.43 147.4 24.8"/><polygon class="cls-17" points="219.07 50.76 199.88 133.51 189.76 138.34 193.82 150.81 212.15 167.62 228.8 152.91 238.76 115.91 239.5 106.51 242.9 100.53 248.5 79.72 231.93 56.75 219.07 50.76"/><polygon class="cls-17" points="199.38 66.78 169.53 87.91 147.07 57.63 153.62 52.81 161.39 54.78 165.99 59.01 174.99 60.2 178.98 56.4 188.21 56.28 199.38 66.78"/><polygon class="cls-18" points="179.32 129.69 220.41 136.78 193.82 150.81 179.32 129.69"/><polygon class="cls-18" points="160.36 22.43 189.4 20.98 222.79 53.64 228.8 77.5 215.94 64.26 202.01 63.22 160.36 22.43"/><polygon class="cls-18" points="242.9 100.53 229.67 97.11 238.76 115.91 242.9 100.53"/><polygon class="cls-18" points="234.59 93.77 237.27 80.98 244.4 83.48 234.59 93.77"/><polygon class="cls-19" points="174.99 60.2 169.53 87.91 161.62 86.71 165.99 59.01 174.99 60.2"/><polygon class="cls-18" points="169.53 87.91 164.87 91.55 161.62 86.71 169.53 87.91"/><polygon class="cls-18" points="146.01 85.39 148.58 83.66 150.49 87.39 147.56 87.92 146.01 85.39"/><polygon class="cls-7" points="146.79 95.91 164.55 95.39 189.16 101.42 171.98 111.59 158.38 109.26 146.79 95.91"/><polygon class="cls-9" points="189.16 101.42 164.15 100.84 146.79 95.91 155.95 111.8 171.94 114.41 189.16 101.42"/><polygon class="cls-20" points="153.16 97.72 157.9 108.08 172.14 110.16 181.25 101.24 164.15 100.84 153.16 97.72"/><ellipse class="cls-21" cx="185.16" cy="70.05" rx="4.22" ry="4.31" transform="translate(-9.44 33.7) rotate(-10.14)"/><ellipse class="cls-21" cx="155.24" cy="65.3" rx="4.22" ry="4.31" transform="translate(-9.07 28.36) rotate(-10.14)"/><polygon class="cls-4" points="174.99 60.2 174.84 56.3 188.21 56.28 199.38 66.78 186.93 59.38 174.99 60.2"/><polygon class="cls-4" points="165.99 59.01 166.79 55.31 153.62 52.81 147.07 57.63 154.76 55.59 165.99 59.01"/><polygon class="cls-2" points="181.35 0.34 236.13 7.38 248.5 79.72 231.84 66.78 217.82 55.01 181.35 0.34"/><polygon class="cls-4" points="224.12 59.5 224.69 83.79 230.12 85.85 235.84 75.43 248.5 79.72 235.26 65.68 224.47 55.84 224.12 59.5"/><polygon class="cls-8" points="260.46 142.44 272.97 156.03 268.38 178.41 253.33 163.19 260.46 142.44"/><polygon class="cls-10" points="188.63 248.47 208.03 247.1 212.86 254.64 207.41 261.16 189.34 262.19 186.66 256.7 188.63 248.47"/><polygon class="cls-13" points="208.03 247.1 207.41 261.16 231.47 306.89 244.35 302.72 256.68 272.82 238.76 244.69 208.03 247.1"/><polygon class="cls-13" points="188.63 248.47 189.34 262.19 161.26 306.02 179.6 249.15 188.63 248.47"/><polygon class="cls-22" points="198.75 334.1 222.25 351.71 208.42 384.96 196.83 350.71 198.75 334.1"/><polygon class="cls-13" points="208.42 384.96 207.4 362.22 196.83 350.71 192.6 368.37 208.42 384.96"/><polygon class="cls-7" points="173.21 354.28 168.23 362.48 184.73 392.46 205.31 391.74 194.62 354.63 173.21 354.28"/><polygon class="cls-23" points="208.42 384.96 196.83 350.71 188.71 354.28 192.52 356.77 205.31 391.74 208.42 384.96"/><polygon class="cls-10" points="196.83 350.71 192.52 356.77 173.21 354.28 176.35 348.93 196.83 350.71"/><polygon class="cls-9" points="207.41 261.16 244.35 302.72 230.69 332.12 207.41 261.16"/><polygon class="cls-11" points="244.27 265.95 256.68 272.82 249.25 261.16 246.41 261.16 244.27 265.95"/><polygon class="cls-17" points="238.76 244.69 227.63 251.91 244.27 265.95 249.25 261.16 238.76 244.69"/><polygon class="cls-5" points="272.97 156.03 258.69 165.12 263.65 177.38 273.97 182.27 272.97 156.03"/><polygon class="cls-12" points="199.96 171.2 226.96 184.07 273.97 182.27 258.69 165.12 199.96 171.2"/><polygon class="cls-6" points="159.59 158.12 210.33 202.59 246.41 168.09 159.59 158.12"/><polygon class="cls-8" points="159.59 158.12 209.07 186.39 246.41 168.09 159.59 158.12"/><polygon class="cls-22" points="260.46 142.44 258.69 165.12 208.03 177.38 195.97 166.49 193.82 150.81 260.46 142.44"/><polygon class="cls-24" points="193.82 150.81 162.72 149 159.59 158.12 208.03 177.38 193.82 150.81"/><polygon class="cls-13" points="143.28 153.03 122.75 118.88 113.56 116.31 105.76 124.25 124.65 173.09 143.28 153.03"/><polygon class="cls-16" points="105.76 124.25 100.56 107.24 108.4 98.98 122.02 99.02 119.82 115.06 114.04 121.64 105.76 124.25"/><polygon class="cls-17" points="100.56 107.24 122.02 99.02 111.28 79.46 99.24 85.35 100.56 107.24"/><polygon class="cls-17" points="114.04 121.64 112.9 108.92 122.02 99.02 127.04 90.62 131.99 93.75 122.75 118.88 114.04 121.64"/><polygon class="cls-1" points="169.27 19.34 181.35 0.34 235.26 65.68 200.24 56.53 180.38 29.46 169.27 19.34"/><polygon class="cls-25" points="160.36 22.43 181.35 0.34 180.38 29.46 160.36 22.43"/></svg>