<svg id="illustration_layer_copy_4" data-name="illustration_layer copy 4" xmlns="http://www.w3.org/2000/svg" viewBox="0 0 400 400"><defs><style>.cls-1,.cls-19,.cls-21{fill:#2b2b2b;}.cls-1{opacity:0.1;}.cls-2{fill:#27788b;}.cls-3{fill:#3a9fb9;}.cls-4{fill:#5ebfd8;}.cls-5{fill:#73cee4;}.cls-6{fill:#1c7678;}.cls-7{fill:#369395;}.cls-8{fill:#50a8a9;}.cls-9{fill:#72cacb;}.cls-10{fill:#f4c9b2;}.cls-11{fill:#c1907d;}.cls-12{fill:#fce3d4;}.cls-13{fill:#8e8e8e;}.cls-14{fill:#c3c3c3;}.cls-15{fill:#a2a2a2;}.cls-16{fill:#848585;}.cls-17{fill:#6f7173;}.cls-18{fill:#ffefe7;}.cls-20{fill:#737373;}.cls-21{opacity:0.2;}.cls-22{fill:#318ea5;}</style></defs><title>sentinels_ISFJ_famous_real_queen_elizabeth_II</title><polygon class="cls-1" points="113.64 384.5 210.69 374 285.5 387 201.75 400 113.64 384.5"/><polygon class="cls-2" points="203.63 0 245.76 13.25 251.43 42.55 211.8 55.2 191 52.08 203.63 0"/><polygon class="cls-3" points="148.72 44.51 155.98 14.76 203.63 0 198.08 50.24 169.23 57.75 148.72 44.51"/><polygon class="cls-4" points="148.72 44.51 199.71 34.82 201.75 53.69 169.23 57.75 148.72 44.51"/><polygon class="cls-3" points="199.71 34.82 251.43 42.55 218.22 53.15 198.08 50.24 199.71 34.82"/><polygon class="cls-5" points="94.02 65.89 148.72 44.51 175.61 57.47 94.02 65.89"/><polygon class="cls-6" points="170.77 21.62 179.28 38.7 168.91 47.54 169.23 54.4 157.7 62.93 141 58.46 148.72 44.51 170.77 21.62"/><polygon class="cls-7" points="179.28 38.7 154.35 38.7 148.72 44.51 169.23 54.4 179.28 38.7"/><polygon class="cls-8" points="170.77 21.62 168.91 38.7 161.42 42.27 159.75 49.82 141 58.46 136.5 52.18 127.56 53.15 124.61 37.07 133.53 30.97 135.79 21.44 155.98 14.76 160.72 19.95 170.77 21.62"/><polygon class="cls-9" points="168.91 38.7 152.35 34.82 146.49 37.07 159.75 49.82 168.91 38.7"/><polygon class="cls-9" points="146.49 38.7 141 58.46 127.56 53.15 142.67 36.61 146.49 38.7"/><polygon class="cls-9" points="137.02 36.68 124.61 37.07 135.79 21.44 142.67 32.41 137.02 36.68"/><polygon class="cls-9" points="155.98 14.76 144.53 32.04 147.6 32.97 170.77 21.62 155.98 14.76"/><polygon class="cls-2" points="94.02 65.89 134.81 59.44 137.84 59.65 141 58.46 251.43 42.55 309.49 66.97 271.52 83.91 127.56 88.89 94.02 65.89"/><polygon class="cls-6" points="256.76 174.84 280.96 227.17 244.87 234.17 244.87 204.84 256.76 174.84"/><polygon class="cls-6" points="172.45 165.51 129.29 187.51 148.25 206.64 156.13 203.51 170.01 189.84 172.45 165.51"/><polygon class="cls-8" points="148.25 206.64 130.65 169.84 122.66 170.19 116.48 178.88 123.66 214.51 148.25 206.64"/><polygon class="cls-2" points="235.38 365.93 240 376.5 235.75 392 231.67 392 229.83 381.5 235.38 365.93"/><polygon class="cls-10" points="216.14 350.52 221 366 213.22 379.5 218.34 385.75 233.84 378.5 235.38 365.93 240.72 345.5 224.81 343.87 216.14 350.52"/><polygon class="cls-3" points="213.22 379.5 206.34 392 231.67 392 233.84 378.5 220 383.67 213.22 379.5"/><polygon class="cls-11" points="216.14 350.52 240.72 345.5 223 339.17 213.7 342.73 216.14 350.52"/><polygon class="cls-10" points="194.66 349.34 191.77 360.39 171.5 381 165.16 371.84 177 361.83 171.45 339.17 190.66 342.67 194.66 349.34"/><polygon class="cls-11" points="171.45 339.17 194.66 349.34 198.66 334.83 171.45 339.17"/><polygon class="cls-3" points="165.16 371.84 148.25 384.5 177.62 384.5 187 378.17 191.77 371.17 191.77 360.39 171.87 378.17 165.16 371.84"/><polygon class="cls-2" points="191.77 360.39 197.33 371.83 193.82 384.5 187.77 384.5 187 378.17 191.77 360.39"/><polygon class="cls-9" points="238.09 165.05 256.76 174.84 251.14 212.51 197.94 218.17 156.13 203.51 172.45 165.51 238.09 165.05"/><polygon class="cls-12" points="231.37 161.51 238.09 165.05 211.43 196.25 181.41 193.75 172.45 165.51 179.48 162.51 231.37 161.51"/><polygon class="cls-13" points="141 58.46 134.81 59.44 126.4 72.98 142.67 70.95 144.53 61.53 141 58.46"/><polygon class="cls-14" points="139.99 65.89 126.4 72.98 137.02 99.38 139.99 87.49 141.74 77.16 139.99 65.89"/><polygon class="cls-15" points="126.4 72.98 125.33 87.35 133.18 97.82 136.5 91.44 126.4 72.98"/><polygon class="cls-13" points="125.33 87.35 134.79 103.96 140.59 103.96 136.5 91.44 125.33 87.35"/><polygon class="cls-16" points="269.01 139.06 251.43 149.73 247.34 143.87 249.06 119.58 269.01 139.06"/><polygon class="cls-17" points="249.76 124.59 251.43 149.73 239.47 145.99 249.76 124.59"/><polygon class="cls-13" points="252.82 108.16 249.76 124.59 269.01 139.06 267.06 119.58 252.82 108.16"/><polygon class="cls-12" points="146.21 62.93 139.99 65.89 133.18 115.77 144.72 150.38 171.14 154.1 190.87 174.94 230.43 160.17 253.5 112.17 245.2 108.33 230.31 75.58 209.47 62.93 146.21 62.93"/><polygon class="cls-10" points="224.56 72.98 199.8 159.5 188.07 163.4 219.12 168.96 231.37 161.51 239.47 145.99 241.9 137.16 249.76 124.59 254.5 113.17 247.43 101.62 230.31 75.58 224.56 72.98"/><polygon class="cls-10" points="193.84 88.89 167.42 111.77 148.72 84.42 193.84 88.89"/><polygon class="cls-18" points="173.98 86.92 169.19 99.03 167.42 111.77 159.75 110.94 161.42 98.1 166.16 86.15 173.98 86.92"/><polygon class="cls-11" points="167.42 111.77 162.96 115.54 159.75 110.94 167.42 111.77"/><polygon class="cls-11" points="171.14 154.1 216.96 159.78 219.58 168.68 193.24 179.12 183.38 168.96 178.82 162.79 171.14 154.1"/><polygon class="cls-11" points="236.22 124.75 247.58 129.85 239.47 145.99 236.22 124.75"/><polygon class="cls-11" points="139.99 65.89 227.99 83.44 230.31 75.58 209.47 62.93 141 58.46 139.99 65.89"/><polygon class="cls-10" points="180.91 100.08 184.44 109.4 191 109.4 180.91 100.08"/><polygon class="cls-10" points="156.79 95.56 150.53 104.66 144.53 102.42 156.79 95.56"/><polygon class="cls-10" points="181.51 127.47 188.97 141.3 181.28 135.84 181.51 127.47"/><polygon class="cls-10" points="149.23 123.64 148.36 130.82 140.59 134.24 149.23 123.64"/><circle class="cls-19" cx="183.05" cy="96.98" r="3.77"/><circle class="cls-19" cx="154.05" cy="93.04" r="3.77"/><polygon class="cls-20" points="193.84 88.89 181.24 83.16 173.98 86.92 193.84 88.89"/><polygon class="cls-20" points="166.16 86.15 160.2 81.22 148.72 84.42 166.16 86.15"/><polygon class="cls-6" points="181.51 127.47 163.04 124.03 149.23 123.64 162.35 130.01 181.51 127.47"/><polygon class="cls-8" points="181.51 127.47 162.3 133.27 149.23 123.64 162.35 128.89 181.51 127.47"/><polygon class="cls-7" points="236.22 124.75 241.9 131.03 247.58 129.85 249.76 124.59 245.14 117.32 236.22 124.75"/><polygon class="cls-13" points="209.47 62.93 212.82 74.37 223.16 78.98 236.22 78.98 247.58 70.95 209.47 62.93"/><polygon class="cls-15" points="223.16 78.98 230.31 94.75 247.58 93.91 271.52 83.91 261.76 74.1 247.58 70.95 223.16 78.98"/><polygon class="cls-15" points="244.14 110.44 267.06 119.58 275.43 107.17 265.38 103.96 244.14 110.44"/><polygon class="cls-14" points="275.43 107.17 244.14 110.44 254.5 98.51 265.94 96.72 275.43 107.17"/><polygon class="cls-16" points="271.52 83.91 265.94 96.72 244.14 110.44 236.24 115.9 227.65 107.17 230.31 94.75 271.52 83.91"/><polygon class="cls-21" points="209.47 62.93 261.76 74.1 271.52 83.91 224.91 82.83 223.16 78.98 212.82 74.37 209.47 62.93"/><polygon class="cls-7" points="156.13 203.51 251.14 212.51 247.26 238.51 203.63 244.84 165.98 236.51 156.13 203.51"/><polygon class="cls-4" points="172.45 165.51 194.48 192.73 238.09 165.05 231.37 161.51 196.42 182.76 193.24 179.12 178.82 162.79 172.45 165.51"/><polygon class="cls-8" points="165.98 236.51 155.43 269.84 207.49 280.51 260.76 267.84 247.26 238.51 165.98 236.51"/><polygon class="cls-21" points="196.24 248.38 208.1 261.58 228.5 253.51 260.76 267.84 247.26 238.51 196.24 248.38"/><polygon class="cls-6" points="155.43 269.84 171.45 339.17 240.6 345.5 260.76 267.84 155.43 269.84"/><polygon class="cls-21" points="193.33 310.67 208.1 330.58 244.87 332.2 249.53 313.32 193.33 310.67"/><polygon class="cls-9" points="280.96 227.17 241.74 227.67 236.69 229.76 228.61 227.84 224.9 236.51 228.61 242.95 273.27 250.17 280.96 227.17"/><polygon class="cls-2" points="203.63 268.92 228.61 227.84 228.61 242.95 210.82 270.93 203.63 268.92"/><polygon class="cls-3" points="228.61 227.84 241.74 227.67 267.18 263.19 260.06 266.93 228.61 227.84"/><polygon class="cls-10" points="228.61 227.84 216.12 222.01 203.63 227.84 217.01 230.51 228.61 227.84"/><polygon class="cls-12" points="228.61 227.84 203.63 227.84 201.26 241.01 206.44 248.38 228.61 242.95 228.61 227.84"/><polygon class="cls-10" points="203.63 227.84 189.26 237.08 196.24 248.38 206.44 248.38 203.63 227.84"/><polygon class="cls-4" points="203.63 268.92 267.18 263.19 280 307.67 213.2 319.76 203.63 296.26 203.63 268.92"/><polygon class="cls-22" points="203.63 268.92 193.33 310.67 213.2 319.76 203.63 268.92"/><polygon class="cls-3" points="207.81 291.13 243.76 285.26 273.02 283.46 243.76 288.51 207.81 291.13"/><polygon class="cls-3" points="249.53 313.32 244.87 289.67 240.31 291.47 249.53 313.32"/><polygon class="cls-2" points="233.84 286.88 241.49 279.34 247.9 287.79 241.52 294.34 233.84 286.88"/><polygon class="cls-12" points="114.66 169.84 104.5 153.17 112.5 143.01 123.6 144.99 126.66 161.51 121.25 168.01 114.66 169.84"/><polygon class="cls-10" points="104.5 153.17 103.5 131.2 115.08 124.26 119.27 134.43 123.98 139.16 123.6 144.99 104.5 153.17"/><polygon class="cls-10" points="121.14 168.04 116.67 156.18 123.6 144.99 125.28 138 131.29 145.8 126.66 161.51 121.14 168.04"/><polygon class="cls-12" points="119.26 134.43 124.25 132.51 131.29 145.8 123.6 144.99 119.26 134.43"/><polygon class="cls-5" points="116.48 178.88 130.65 169.84 126.66 161.51 114.66 169.84 116.48 178.88"/><polygon class="cls-2" points="231.37 192.73 233.02 189.34 240.55 186.07 240.57 192.73 235.64 197.17 233.89 201.51 226.04 202.84 228.5 195.34 231.37 192.73"/><polygon class="cls-3" points="233.89 195.01 233.02 189.34 225.31 187.84 228.5 195.34 233.89 195.01 233.89 201.51 243.86 201.84 240.57 192.73 233.89 195.01"/><polygon class="cls-6" points="146.38 29.25 152.35 34.82 145.82 41.09 139.99 39.55 137.02 36.68 141.74 30.93 146.38 29.25"/></svg>