<svg id="Layer_1" data-name="Layer 1" xmlns="http://www.w3.org/2000/svg" viewBox="0 0 400 400"><defs><style>.cls-1{fill:#846400;}.cls-1,.cls-10,.cls-11,.cls-12,.cls-13,.cls-14,.cls-15,.cls-16,.cls-17,.cls-18,.cls-19,.cls-2,.cls-20,.cls-21,.cls-22,.cls-23,.cls-24,.cls-3,.cls-4,.cls-5,.cls-6,.cls-7,.cls-8,.cls-9{fill-rule:evenodd;}.cls-2{fill:#51362a;}.cls-3{fill:#f4c9b2;}.cls-20,.cls-4{fill:#2b2b2b;}.cls-4{opacity:0.1;}.cls-5{fill:#fce3d4;}.cls-6{fill:#c1907d;}.cls-7{fill:#dcdcdb;}.cls-8{fill:#755800;}.cls-9{fill:#4f5253;}.cls-10{fill:#8e8e8e;}.cls-11{fill:#e4c728;}.cls-12{fill:#cbac14;}.cls-13{fill:#98796a;}.cls-14{fill:#82624d;}.cls-15{fill:#755445;}.cls-16{fill:#ffefe7;}.cls-17{fill:#9d7700;}.cls-18{fill:#fff;}.cls-19{fill:#66483a;}.cls-21{fill:#ebebea;}.cls-22{fill:#f3d65d;}.cls-23{fill:#f1bc68;}.cls-24{fill:#b48a00;}</style></defs><title>explorers_ISFP_famous_real_lana_del_rey</title><polygon class="cls-1" points="132.97 252 136.18 256.06 143.57 254.06 144.19 249.02 137.3 243.22 132.97 252"/><polygon class="cls-2" points="160.19 139.29 170.12 167 207.88 173.93 191.67 130.51 160.19 139.29"/><polygon class="cls-3" points="140.17 231.9 176.1 209.23 190.6 232.83 147.23 243.22 140.17 231.9"/><polygon class="cls-4" points="134.28 393.07 211.42 383.89 284.75 391.54 197.41 400.38 134.28 393.07"/><polygon class="cls-5" points="213.97 326.09 204.01 304.64 203.02 297.13 238.09 293.58 240.87 302.69 240.3 313.08 213.97 326.09"/><polygon class="cls-6" points="204.01 304.64 223.93 290.82 238.09 293.58 240.87 302.69 207.95 313.14 204.01 304.64"/><polygon class="cls-3" points="233.29 337.99 213.97 326.09 240.29 313.08 248.29 321.71 248.57 334.14 233.29 337.99"/><polygon class="cls-3" points="178.43 313.05 167.65 325.6 169.36 341.84 184.17 350.58 193.1 340.05 197.01 325.66 178.43 313.05"/><polygon class="cls-7" points="169.36 341.84 171.19 359.19 181.72 363.24 188.34 357.53 193.1 340.05 169.36 341.84"/><polygon class="cls-5" points="169.63 307.86 167.65 325.6 197.01 325.66 200.8 314.29 188.16 305.34 169.63 307.86"/><polygon class="cls-6" points="169.63 307.86 200.8 314.29 204.01 304.64 184.32 296.23 170.54 298.26 169.63 307.86"/><polygon class="cls-8" points="121.75 224.69 131.87 252.45 144.19 249.02 141.18 238.65 136.52 227.97 134.16 221.26 126.55 219.71 121.75 224.69"/><polygon class="cls-6" points="116.13 226.67 125.38 254.31 138.17 250.65 134.2 237.28 130.81 231.73 128.44 225.01 124.64 223.89 116.13 226.67"/><polygon class="cls-9" points="112.91 218.32 121.75 224.69 134.16 221.26 136.37 209.76 123.99 211.58 112.91 218.32"/><polygon class="cls-10" points="111.41 214.25 113.14 218.33 136.37 209.76 135.1 205.29 120.7 206.67 111.41 214.25"/><polygon class="cls-9" points="112.18 205.72 111.41 214.25 135.1 205.29 127.13 200 112.18 205.72"/><polygon class="cls-11" points="187.61 163.05 170.12 167 159.61 209.62 197.3 226.67 234.13 216.97 244.92 185 228.88 168.08 223.32 164.95 187.61 163.05"/><polygon class="cls-11" points="229.06 221.68 234.13 216.97 244.92 185 232.34 168.47 231.03 198.38 226.31 216.19 229.06 221.68"/><polygon class="cls-12" points="177.21 246.95 159.61 209.62 234.13 216.97 233.69 253.98 180.9 256.01 177.21 246.95"/><polygon class="cls-12" points="226.31 216.19 234.13 216.97 237.61 221.71 238.85 233.55 235.61 240.22 230.68 234.44 226.31 216.19"/><polygon class="cls-1" points="227.88 254.2 243.26 259.01 240.87 302.69 204.01 304.64 180.37 289.41 177.21 246.95 215.08 247.43 227.88 254.2"/><polygon class="cls-8" points="204.01 304.64 161.95 296.63 177.21 246.95 204.01 304.64 204.01 304.64"/><polygon class="cls-8" points="234.19 244.82 243.26 259.01 200.79 264.31 200.14 247.24 222.3 242.32 234.19 244.82"/><polygon class="cls-3" points="192.51 179.6 215.81 175.23 227.49 163.62 242.13 155.43 239.81 79.43 226.2 41.45 206.31 101.84 192.51 179.6"/><polygon class="cls-5" points="190.5 161.81 187.61 163.05 182.55 183.14 220.04 183.87 228.88 168.08 228.88 168.08 226.57 160.67 194.64 175.87 190.5 161.81"/><polygon class="cls-5" points="139.95 50.47 140.12 116.13 155.05 146.78 197.83 148.68 213.01 117.11 234.09 38.36 200.75 32.4 157.11 31.04 139.95 50.47"/><polygon class="cls-13" points="155.95 43.1 150.55 57.29 139.99 66.59 135.65 73.98 133.5 65.23 142.97 31.8 155.22 29.65 155.95 43.1"/><polygon class="cls-14" points="140 71.16 140.06 94.81 128.65 69.2 140 71.16"/><polygon class="cls-13" points="228.78 44.41 222.22 50.98 210.61 58.35 184.74 47.34 160.89 35.83 160.19 29.98 167.46 23.47 201.78 16.4 226.52 27 228.78 44.41"/><polygon class="cls-14" points="237.76 28.77 234.24 40.03 201.78 16.4 228.78 44.41 245 78.78 257.76 60.42 237.76 28.77"/><polygon class="cls-13" points="258.13 126.33 235.1 99.69 228.78 44.41 257.76 60.42 258.13 126.33"/><polygon class="cls-14" points="213.01 117.11 242.16 128.96 258.13 126.33 228.78 44.41 222.22 50.98 216.26 71.64 213.01 117.11"/><polygon class="cls-15" points="206.7 49.15 207.12 58.65 216.26 71.64 228.78 44.41 206.7 49.15"/><polygon class="cls-6" points="194.64 175.87 179.33 147.95 197.83 148.68 212 149.56 194.64 175.87"/><polygon class="cls-2" points="236.95 203.09 254.65 164.47 258.13 126.33 213.01 117.11 224.94 155.43 225.62 195.61 236.95 203.09"/><polygon class="cls-1" points="254.58 235.58 233.25 224.69 234.13 216.97 236.95 203.09 240.42 198.56 255.54 198.49 258.5 210.36 254.58 235.58"/><polygon class="cls-1" points="236.95 203.09 249.5 175.29 258.5 210.36 234.13 216.97 236.95 203.09"/><polygon class="cls-5" points="212.16 236.5 235.93 222.63 258.5 210.36 265.13 236.99 222.04 247.89 215.08 245.87 212.16 236.5"/><polygon class="cls-3" points="195.4 238.65 206.79 236.5 214.51 235.13 224.94 247.16 209.99 255.78 195.07 255.56 195.4 238.65"/><polygon class="cls-5" points="185.63 255.29 195.4 238.65 209.99 255.78 200.79 264.31 185.63 255.29"/><polygon class="cls-6" points="202.79 233.66 214.51 235.13 195.4 238.65 202.79 233.66"/><polygon class="cls-3" points="171 109.36 166.68 106.86 156.68 85.96 147.67 74.59 154.26 71.86 165.85 79.59 168.94 82.32 172.08 85.2 175.86 82.22 183.11 80.39 200.4 75.58 207.88 81.52 190.68 87.53 175.54 106.64 171 109.36"/><polygon class="cls-16" points="168.94 82.32 169.44 96.64 166.68 106.86 175.54 106.64 174.27 96.78 175.86 82.22 168.94 82.32"/><polygon class="cls-6" points="171 111.86 166.68 106.86 175.54 106.64 171 111.86"/><polygon class="cls-8" points="156.17 120.47 167.85 115.26 170.77 118.16 174.24 115.22 191.67 120.69 180.08 128.09 165.55 128.11 156.17 120.47"/><polygon class="cls-17" points="191.67 120.69 180.08 129.28 165.55 129.3 156.17 120.47 161.4 120.89 173.09 123.35 184.78 121.42 191.67 120.69"/><polygon class="cls-18" points="161.4 120.89 184.78 121.42 178.56 125.81 166.06 125.51 161.4 120.89"/><polygon class="cls-19" points="236.95 203.09 258.6 179.3 270.93 165.07 258.13 126.33 236.95 203.09"/><polygon class="cls-2" points="147.67 74.59 152.67 69.82 167.38 75.31 165.85 79.59 153.06 73.18 147.67 74.59"/><polygon class="cls-2" points="183.02 75.43 183.11 80.39 200.26 77.83 207.88 81.52 201.74 73.66 183.02 75.43"/><polygon class="cls-6" points="147.23 243.22 144.19 249.02 137 226.67 147.06 227.64 147.23 243.22"/><path class="cls-20" d="M189.1,83.29a4.25,4.25,0,1,1-4.25,4.25,4.24,4.24,0,0,1,4.25-4.25"/><path class="cls-20" d="M158.4,81.71A4.25,4.25,0,1,1,154.15,86a4.25,4.25,0,0,1,4.25-4.24"/><polygon class="cls-19" points="220.04 183.87 224.76 154.86 236.95 203.09 224.43 206.17 220.04 183.87"/><polygon class="cls-2" points="203.4 213.94 220.04 183.87 236.95 203.09 203.4 213.94"/><polygon class="cls-7" points="233.29 337.99 249.66 348.07 260.43 342.38 259.81 334.14 248.29 321.71 233.29 337.99"/><polygon class="cls-12" points="260.24 382.9 261.19 366.09 255.99 339.39 259.81 334.14 272.15 342.2 276.9 348.09 273.59 351.32 276.39 369.06 263.41 384.63 260.24 382.9"/><polygon class="cls-1" points="275.55 363.71 276.39 369.06 263.41 384.63 260.24 382.9 275.55 363.71"/><polygon class="cls-21" points="261.19 366.09 249.66 348.07 255.99 339.39 267.01 356.82 261.19 366.09"/><polygon class="cls-1" points="273.59 351.32 283.87 355.88 286.65 352.35 272.15 342.2 273.59 351.32"/><polygon class="cls-15" points="167.46 23.47 142.97 31.79 160.89 35.83 167.46 23.47"/><polygon class="cls-22" points="144.18 12.89 134.08 17.63 132.78 31.82 140.35 36.78 149.16 35.35 152.26 28.64 157.92 23.27 152.07 17.31 144.18 12.89"/><polygon class="cls-11" points="160.89 35.83 152.19 34.89 152.26 28.64 152.07 17.31 152.45 8.2 164.85 9.58 176.97 12.57 176.02 21.7 180.81 29.76 172.74 34.04 160.89 35.83"/><polygon class="cls-23" points="154.44 1.38 145.9 3.52 144.18 12.89 152.07 17.31 164.85 9.58 154.44 1.38"/><polygon class="cls-22" points="182.21 8.32 176.65 2.46 164.85 9.58 176.02 21.7 181.68 25.46 184.62 19.93 190.21 15.13 182.21 8.32"/><polygon class="cls-11" points="198.31 9.59 201.78 16.4 203.07 24.23 197.68 27.58 189.55 27.41 183.07 27.35 184.25 20.01 182.21 8.32 198.31 9.59"/><polygon class="cls-23" points="172.74 34.04 178.07 39.28 188.84 37.04 189.55 27.41 186.87 23.67 184.25 20.01 176.02 21.7 172.74 34.04"/><polygon class="cls-22" points="215.69 18.61 201.78 16.4 197.68 27.58 205.41 36.97 217.47 32.67 220.68 24.5 215.69 18.61"/><polygon class="cls-14" points="160.89 35.83 155.95 43.1 182.21 54.02 216.26 71.65 206.7 49.15 160.89 35.83"/><polygon class="cls-11" points="228.78 44.41 217.47 32.67 221.69 26.52 226.52 27 237.76 28.77 236.22 41.48 228.78 44.41"/><polygon class="cls-23" points="225.43 18.01 215.69 18.61 216.4 24.21 217.47 32.67 224.28 28.4 226.52 27 225.43 18.01"/><polygon class="cls-23" points="146.39 45.83 140.35 36.78 152.26 28.64 160.89 35.83 155.95 43.1 146.39 45.83"/><polygon class="cls-11" points="130.95 49.92 126.91 40.56 132.82 31.56 147.07 32.43 152.96 43.96 141.84 53.41 135.97 53.59 130.95 49.92"/><polygon class="cls-24" points="140.86 36.61 137.23 41.97 140.23 46.08 146.7 44.34 146.7 38.66 140.86 36.61"/><polygon class="cls-22" points="117.83 35.03 132.82 31.56 130.95 49.92 129.71 56.03 125.64 56.36 117.68 49.39 117.83 35.03"/><polygon class="cls-24" points="124.94 39.45 122.25 43.08 122.33 46.91 125.88 47.97 128.88 41.66 124.94 39.45"/><polygon class="cls-23" points="128.65 69.2 140 71.16 150.55 57.29 146.89 49.12 130.95 49.92 125.64 56.36 126.79 62.13 128.65 69.2"/><polygon class="cls-24" points="133.24 56.21 130.89 59.55 133.87 63.77 139.71 61.88 138.68 55.96 133.24 56.21"/><polygon class="cls-24" points="143.56 20.89 138.2 21.82 137.46 26.03 142.28 28.93 145.72 25.62 143.56 20.89"/><polygon class="cls-24" points="164.03 18.57 158.48 21.92 159.47 26.9 166.07 28.04 168.46 22.89 164.03 18.57"/><polygon class="cls-24" points="174.87 8.87 172.27 12.7 174.41 15.63 179.04 14.39 179.04 10.33 174.87 8.87"/><polygon class="cls-24" points="191.31 13.77 188.22 18.34 190.77 21.82 196.28 20.35 196.28 15.52 191.31 13.77"/><polygon class="cls-24" points="206.44 20.68 202.81 26.05 205.81 30.15 212.27 28.42 212.27 22.73 206.44 20.68"/><polygon class="cls-24" points="233.01 32.67 228.06 29.84 224.65 32.75 226.61 38.32 231.6 37.94 233.01 32.67"/><polygon class="cls-24" points="180.22 26.79 177.19 31.27 179.7 34.7 185.1 33.25 185.1 28.5 180.22 26.79"/><polygon class="cls-24" points="153.41 6.02 148.86 8.37 149.39 12.35 154.53 13.6 156.68 9.65 153.41 6.02"/><polygon class="cls-24" points="224.21 23.31 221.18 21.58 219.1 23.36 220.3 26.76 223.35 26.53 224.21 23.31"/><polygon class="cls-24" points="155.11 33.79 152.19 34.89 154.22 38.97 157.09 37.03 155.11 33.79"/><polygon class="cls-12" points="152.17 390.24 165.37 379.78 181.88 358.16 188.34 357.53 190.51 372.11 189.26 379.57 184.65 379.25 173.25 393.12 152.98 393.76 152.17 390.24"/><polygon class="cls-1" points="176.69 388.94 173.25 393.12 152.98 393.76 152.17 390.24 176.69 388.94"/><polygon class="cls-21" points="165.37 379.78 171.19 359.19 181.88 358.16 176.17 377.98 165.37 379.78"/><polygon class="cls-1" points="184.65 379.25 188.06 389.95 192.56 389.69 190.51 372.11 184.65 379.25"/><polygon class="cls-5" points="121.75 224.69 134.25 220.78 147.06 227.64 147.26 235.13 140.43 237.28 132.75 231.36 134.2 237.28 127.25 239.11 121.75 224.69"/></svg>