<svg id="illustration_layer_copy_4" data-name="illustration_layer copy 4" xmlns="http://www.w3.org/2000/svg" viewBox="0 0 400 400"><defs><style>.cls-1,.cls-10,.cls-16{fill:#2b2b2b;}.cls-1{opacity:0.1;}.cls-2{fill:#c1907d;}.cls-3{fill:#72cacb;}.cls-4{fill:#8bdfdb;}.cls-5{fill:#f4c9b2;}.cls-6{fill:#369395;}.cls-7{fill:#fce3d4;}.cls-8{fill:#ffefe7;}.cls-9{fill:#9d8d56;}.cls-11{fill:#fff;}.cls-12{fill:#e1ce7f;}.cls-13{fill:#fff7ae;}.cls-14{fill:#c1b170;}.cls-15{fill:#165e60;}.cls-16{opacity:0.2;}.cls-17{fill:#1c7678;}.cls-18{fill:#3a9fb9;}.cls-19{fill:#73cee4;}.cls-20{fill:#27788b;}.cls-21{fill:#50a8a9;}.cls-22{fill:none;stroke:#8bdfdb;stroke-miterlimit:10;}.cls-23{fill:#318ea5;}.cls-24{fill:#5ebfd8;}</style></defs><title>sentinels_ISTJ_famous_real_sting</title><g id="sting_copy" data-name="sting copy"><polygon class="cls-1" points="39 384.38 192.28 375.59 341.18 387.23 128.38 400 39 384.38"/><polygon class="cls-2" points="259.86 259.04 287.39 248.41 272.16 218.85 262.26 238.97 259.86 259.04"/><polygon class="cls-3" points="303.99 241.87 287.39 248.41 278.12 235.87 282.14 222.33 303.99 241.87"/><polygon class="cls-4" points="162.84 167.68 136.25 186.04 141.15 200.92 156.27 213.51 162.84 193.98 162.84 167.68"/><polygon class="cls-4" points="263.26 172.75 270.56 202.45 262.26 222.33 246.82 225.21 247.76 193.02 263.26 172.75"/><polygon class="cls-5" points="270.56 202.45 246.82 225.21 242.41 237.81 259.86 259.04 275.16 219.85 270.56 202.45"/><polygon class="cls-6" points="240.39 276.7 244.57 337.48 236.96 349.19 201.42 324.62 191.05 303.09 183.2 321.68 161.41 340.3 141.87 331.8 147.61 272.98 191.05 297 240.39 276.7"/><polygon class="cls-4" points="179.38 162.27 166.61 178.17 151.52 246.67 149.61 261.31 196.39 269.01 240.39 266.38 242.28 257.87 252.53 178.84 237.66 170.72 193.47 162.65 179.38 162.27"/><polygon class="cls-7" points="192.07 158.21 179.38 162.27 194.18 183.3 236.81 168.34 233.85 161.59 192.07 158.21"/><polygon class="cls-7" points="164.01 20.25 149.97 35.88 140.46 82.57 144.6 133.4 175.59 141.25 199.25 168.34 226.83 159.02 265.67 88.77 252.03 72.24 256.17 54.47 241.7 33.4 226 19.76 164.01 20.25"/><polygon class="cls-5" points="241.7 33.4 206.73 150.34 184.16 150.65 197.9 173.07 233.85 161.59 248.78 127.41 249.79 117.49 255.43 112.18 265.67 88.77 256.17 54.47 241.7 33.4"/><polygon class="cls-5" points="209.37 75.03 175.59 96 150.49 63.87 160.4 61.08 172.84 68.1 184.16 70.28 200.07 67.28 209.37 75.03"/><polygon class="cls-8" points="184.16 70.28 175.59 96 168.46 94.45 172.84 68.1 184.16 70.28"/><polygon class="cls-2" points="175.59 96 170.73 100.03 168.46 94.45 175.59 96"/><polygon class="cls-9" points="172.84 68.1 172.84 63.77 159.89 57.98 151.41 60.05 150.49 63.87 160.4 62.32 172.84 68.1"/><polygon class="cls-9" points="184.16 70.28 185.4 66.25 201.21 65.42 210.5 71.62 209.37 75.03 198.83 69.76 184.16 70.28"/><ellipse class="cls-10" cx="195.42" cy="79.21" rx="4.18" ry="3.82" transform="translate(89.67 261.65) rotate(-81.97)"/><ellipse class="cls-10" cx="159.14" cy="71.62" rx="4.18" ry="3.82" transform="translate(65.98 219.19) rotate(-81.97)"/><polygon class="cls-2" points="155.31 105.46 186.86 112.66 179.15 124 157.61 118.73 155.31 105.46"/><polygon class="cls-11" points="159.14 109.28 181.99 114.7 179.51 118.42 159.99 113.87 159.14 109.28"/><polygon class="cls-5" points="196.04 107.57 200.59 117.28 195.22 127.41 196.04 107.57"/><polygon class="cls-5" points="149.35 98.89 142.43 106.7 143.3 117.49 149.35 98.89"/><polygon class="cls-2" points="255.43 112.18 243.77 107.57 248.78 127.41 255.43 112.18"/><polygon class="cls-2" points="249.6 104.47 253.69 91.66 260.5 94.45 249.6 104.47"/><polygon class="cls-2" points="175.59 141.25 222.07 152.61 197.9 173.07 175.59 141.25"/><polygon class="cls-12" points="181.99 35.36 172.02 26.98 172.84 16.77 189.22 9.02 189.22 18 181.99 35.36"/><polygon class="cls-13" points="172.02 26.98 189.22 9.02 171.08 11.19 164.01 20.25 172.02 26.98"/><polygon class="cls-13" points="181.99 35.36 209.37 19.76 220.25 0 189.22 9.02 181.99 35.36"/><polygon class="cls-14" points="220.25 0 233.85 12.74 222.07 23.07 197.33 33.4 181.99 35.36 220.25 0"/><polygon class="cls-12" points="197.33 33.4 234.32 26.98 249.6 19.76 233.85 12.74 197.33 33.4"/><polygon class="cls-14" points="217.45 29.91 249.6 19.76 263.91 28.85 255.05 35.36 241.7 33.4 217.45 29.91"/><polygon class="cls-9" points="263.91 28.85 267.32 47.7 258.19 52.72 244.41 40.67 241.7 33.4 263.91 28.85"/><polygon class="cls-14" points="244.41 40.67 267.32 47.7 271.97 73.48 259.26 70.23 249.6 54.58 244.41 40.67"/><polygon class="cls-9" points="249.6 54.58 235.71 94.45 243.77 100.03 252.45 83.39 265.67 88.77 271.97 73.48 249.6 54.58"/><polygon class="cls-15" points="263.26 172.75 251.22 168.42 236.81 168.34 211.52 196.49 203.4 254.04 242.28 257.87 263.26 172.75"/><polygon class="cls-16" points="251.23 168.42 234.27 172.75 201.42 198.02 184.91 222.33 193.35 237.93 251.23 168.42"/><polygon class="cls-15" points="179.38 162.27 183.47 199.43 177.68 248.62 151.52 246.67 162.84 167.68 179.38 162.27"/><polygon class="cls-6" points="240.39 266.38 149.61 261.31 149.61 272.98 191.28 279.75 240.39 276.7 240.39 266.38"/><polygon class="cls-17" points="240.39 276.7 191.05 303.09 149.61 272.98 240.39 276.7"/><polygon class="cls-17" points="221.37 365.45 234.86 374.24 247.76 369.17 244.57 337.48 201.42 324.62 221.37 365.45"/><polygon class="cls-17" points="141.87 331.8 139.15 358.63 146.26 368.94 163.82 369.45 183.2 321.68 141.87 331.8"/><polygon class="cls-16" points="143.89 311.09 143.32 316.94 191.05 303.09 168.39 283.87 143.89 311.09"/><polygon class="cls-7" points="136.25 186.04 156.27 213.51 143.32 210.1 133.01 213.03 113.44 201.64 136.25 186.04"/><polygon class="cls-15" points="125.93 313.09 143.89 311.09 170.56 295.31 156.27 287.19 125.93 313.09"/><polygon class="cls-18" points="105.63 229.68 140.14 227.84 183.47 199.43 193.76 211 181.72 242.53 184.23 259.28 199.26 270.02 191.05 303.09 156.27 292.26 125.93 313.09 108.42 281.44 109.52 264.64 106.26 253.7 105.63 229.68"/><polygon class="cls-15" points="191.05 303.09 201.42 297.05 206.54 264.64 198.79 266.72 196.21 273.07 191.05 303.09"/><polygon class="cls-19" points="206.54 264.64 194.18 253.7 182.2 261.31 196.21 273.07 206.54 264.64"/><polygon class="cls-20" points="178.68 240.5 192.41 240.5 203.23 211.11 192.41 209.47 190.71 213.03 178.68 240.5"/><polygon class="cls-19" points="190.71 213.03 203.23 211.11 193.72 199.43 183.47 199.43 190.71 213.03"/><polygon class="cls-21" points="178.68 240.5 287.39 214.75 295.84 215.13 303.6 211.11 315.61 208.42 329.57 214.11 318.61 225.77 182.2 261.31 178.68 240.5"/><polygon class="cls-18" points="193.72 199.43 233.85 161.59 251.23 168.42 203.23 211.11 193.72 199.43"/><polygon class="cls-20" points="142.55 287.19 143.32 291.47 138 292.92 135.93 287.51 142.55 287.19"/><polygon class="cls-20" points="153.55 280.43 153.29 284.88 147.97 286.33 147.75 279.41 153.55 280.43"/><polygon class="cls-20" points="131.03 294.06 133.01 299.26 128.4 301.4 125.14 296.13 131.03 294.06"/><polygon class="cls-6" points="324.6 224.27 326.71 214.12 321.67 207.06 315.61 208.42 318.61 225.77 324.6 224.27"/><polygon class="cls-17" points="138.92 270.92 135.4 250.11 128.88 251.64 132.34 272.51 138.92 270.92"/><polygon class="cls-18" points="324.6 224.27 319.86 196.46 369.94 199.17 367.23 214.12 324.6 224.27"/><polygon class="cls-17" points="367.91 200.18 369.9 197.46 376.69 196.46 374.66 208.71 367.23 214.12 367.91 200.18"/><polygon class="cls-19" points="319.86 196.46 334.41 192 376.69 196.46 367.91 200.18 319.86 196.46"/><polyline class="cls-22" points="111.04 259.45 322.39 211.3 329.46 202.57"/><polyline class="cls-22" points="113.07 263.85 322.91 214.34 339.06 203.8"/><polyline class="cls-22" points="112.4 268.58 323.42 217.36 350.14 204.56"/><polyline class="cls-22" points="114.09 272.64 323.92 220.31 360.96 205.29"/><polygon class="cls-20" points="328.7 204.35 326.71 202.02 330.01 199.99 331.53 203 328.7 204.35"/><path class="cls-20" d="M336.9,203.25l1.52,1.56,3-1.18s-2.16-2.79-2.16-2.92S336.9,203.25,336.9,203.25Z"/><polygon class="cls-20" points="347.47 203.76 350.31 201.56 352.25 204.9 348.74 205.79 347.47 203.76"/><polygon class="cls-20" points="358.26 204.64 360.96 202.44 362.49 206 359.31 206.55 358.26 204.64"/><polygon class="cls-20" points="333.22 195.09 329.08 188.91 337.28 188.49 333.22 195.09"/><polygon class="cls-20" points="344.3 195.85 341.17 188.66 349.38 190.27 344.3 195.85"/><polygon class="cls-20" points="355.47 196.78 352.34 189.59 360.54 191.2 355.47 196.78"/><polygon class="cls-20" points="366.88 197.54 362.74 191.37 371.96 190.94 366.88 197.54"/><polygon class="cls-3" points="106.21 253.7 113.07 253.02 116.8 278.39 108.42 281.44 106.21 253.7"/><polygon class="cls-2" points="286.33 233.82 303.99 241.87 318.61 225.77 297.62 221.22 289.51 225.21 286.33 233.82"/><polygon class="cls-7" points="318.61 225.77 303.6 211.11 287.39 214.75 289.51 225.21 318.61 225.77"/><polygon class="cls-16" points="150.23 221.22 141.15 242.87 150.65 250.68 148.47 275.01 134.92 281.44 130.4 273.74 130.4 254.47 142.17 226.5 150.23 221.22"/><polygon class="cls-5" points="113.44 201.64 123.04 237.76 133.01 239.49 141.83 232.05 143.32 210.1 113.44 201.64"/><polygon class="cls-3" points="141.15 242.87 133.9 246.93 125.14 246.93 123.04 237.76 141.83 232.05 141.15 242.87"/><polygon class="cls-5" points="141.15 242.87 150.65 250.68 146.26 260.59 139.63 254.47 141.15 242.87"/><polygon class="cls-7" points="141.15 242.87 146.26 260.59 135.93 266.07 121.03 266.07 125.14 246.93 141.15 242.87"/><polygon class="cls-5" points="146.26 260.59 145.9 272.73 130.4 273.74 121.03 266.07 146.26 260.59"/><polygon class="cls-15" points="221.37 365.45 213.55 384.38 230.16 387.21 248.79 384.38 247.76 369.17 221.37 365.45"/><rect class="cls-6" x="213.55" y="384.38" width="35.24" height="5.67"/><polygon class="cls-15" points="139.15 358.63 111.95 378.26 139.63 381.09 163.41 378.26 163.82 369.45 139.15 358.63"/><rect class="cls-6" x="111.95" y="378.26" width="51.46" height="5.67"/></g><g id="microphone_copy" data-name="microphone copy"><polygon class="cls-23" points="84.54 176.41 79.98 170.03 109.07 146.82 118.16 147.57 120.94 153.21 84.54 176.41"/><polygon class="cls-17" points="133.46 150.51 129.99 139.11 120.33 132.14 113.72 143.1 115.28 148.4 120.94 153.21 133.46 150.51"/><polygon class="cls-24" points="133.46 150.51 120.33 132.14 135.88 127.27 143.1 137.38 133.46 150.51"/><polygon class="cls-17" points="95.31 183.47 99.04 366.63 90.96 372.62 82.89 366.63 87.96 191 95.31 183.47"/><polygon class="cls-6" points="66.45 211.78 63.88 207.29 108.2 166.58 113.64 165.95 118.63 172.19 66.45 211.78"/><polygon class="cls-3" points="118.63 172.19 120.94 153.21 113.72 143.1 109.07 146.82 108.2 166.58 118.63 172.19"/><polygon class="cls-18" points="129.51 378.26 85.25 378.61 52.48 378.26 82.89 366.63 99.04 366.63 129.51 378.26"/><polygon class="cls-20" points="129.51 383.92 52.48 383.86 52.48 378.26 129.51 378.26 129.51 383.92"/><polygon class="cls-24" points="109.21 383.86 91.85 384.79 72.79 383.86 82.89 366.63 99.04 366.63 109.21 383.86"/><rect class="cls-20" x="72.79" y="383.86" width="36.41" height="5.68"/></g></svg>