<svg id="Layer_1" data-name="Layer 1" xmlns="http://www.w3.org/2000/svg" viewBox="0 0 400 400"><defs><style>.cls-1{fill:#185e60;}.cls-1,.cls-10,.cls-11,.cls-12,.cls-13,.cls-14,.cls-15,.cls-16,.cls-17,.cls-18,.cls-19,.cls-2,.cls-20,.cls-21,.cls-22,.cls-23,.cls-24,.cls-25,.cls-26,.cls-27,.cls-3,.cls-4,.cls-5,.cls-6,.cls-7,.cls-8,.cls-9{fill-rule:evenodd;}.cls-2,.cls-22{fill:#2b2b2b;}.cls-2{opacity:0.1;}.cls-28,.cls-3{fill:#1d7678;}.cls-33,.cls-4{fill:#318ea5;}.cls-5{fill:#3a9fb9;}.cls-6{fill:#474748;}.cls-7{fill:#4f5353;}.cls-8{fill:#ebebea;}.cls-32,.cls-9{fill:#28788b;}.cls-10{fill:#5ebfd8;}.cls-11{fill:#f4cab2;}.cls-12{fill:#fbe3d4;}.cls-13,.cls-29{fill:#369395;}.cls-14{fill:#72cbcb;}.cls-15{fill:#dcdcdb;}.cls-16{fill:#c18f7c;}.cls-17{fill:#a2a1a1;}.cls-18{fill:#cecdcc;}.cls-19{fill:#c3c3c3;}.cls-20{fill:#fff0e8;}.cls-21{fill:#fff;}.cls-23{fill:#8e8e8e;}.cls-24{fill:#737474;}.cls-25{fill:#9b9fa0;}.cls-26{fill:#848585;}.cls-27,.cls-31{fill:#74cee4;}.cls-30{fill:#50a8a9;}</style></defs><title>sentinels_ISTJ_famous_real_george_washington</title><polygon class="cls-1" points="329.46 292.17 339.63 304.18 314.49 324.13 297.07 331.17 283.26 327.62 255.02 328.07 253.34 284.14 292.91 230.45 326.25 284.33 329.46 292.17"/><polygon class="cls-2" points="24.67 376.76 190.88 400 375.33 383.66 200.59 362.59 24.67 376.76"/><polygon class="cls-1" points="297.69 355.42 285.18 380.01 285.27 384.07 322.56 383.91 322.53 379.73 297.69 355.42"/><polygon class="cls-1" points="239.49 359.07 201.67 373.37 201.84 377.1 253.54 377.37 253.3 372.45 239.49 359.07"/><polygon class="cls-3" points="293.4 354.22 289.77 358.89 285.18 380.01 322.53 379.73 310.13 358.89 293.4 354.22"/><polygon class="cls-4" points="292.73 279.01 285.15 336.93 290.05 358.53 310.54 359.58 313.33 333.71 292.73 279.01"/><path class="cls-5" d="M289.72,319l-6.46,8.6,1.89,9.31,28.18-3.22,1.16-9.58S289.63,319.26,289.72,319Z"/><polygon class="cls-3" points="240.15 347.25 231.85 353.66 201.67 373.37 253.3 372.45 251.86 355.34 240.15 347.25"/><polygon class="cls-4" points="240.49 311.95 228.48 337.55 231.85 353.66 251.86 355.34 254.64 337.2 240.49 311.95"/><polygon class="cls-5" points="226.53 327.37 228.48 337.55 254.64 337.2 255.98 328.07 247.58 315.41 226.53 327.37"/><polygon class="cls-6" points="218.38 300.25 218.82 319.54 226.53 327.37 244.51 328.03 255.98 328.07 262.91 317.86 268.63 292.35 271.99 267.68 257.07 266.54 259.15 256.38 224.13 257.43 218.38 300.25"/><polygon class="cls-7" points="262.37 256.66 260.26 276.84 274.18 319.7 283.43 328.54 314.49 324.13 319.11 313.35 317.13 274.75 306.49 258.87 288.14 257.46 268.61 262.76 262.37 256.66"/><path class="cls-7" d="M280.06,257.05l-4.47,12.54-15.33,7.25L248,269.31s.14-32.38-.84-34.85,26.22-.74,26.22-.74Z"/><path class="cls-8" d="M243.25,250.36,278,249.9s-5.78-24.81-7.71-25.2S243.25,250.36,243.25,250.36Z"/><polygon class="cls-4" points="265.56 238.37 260.54 250.13 248 269.31 221.51 269.31 230.76 227.43 269.18 220.24 265.56 238.37"/><path class="cls-9" d="M269.18,220.24l-8.5,6-.05,23.9,15,19.46,41.54-2.51s-30.21-47.24-32.89-47.67S269.18,220.24,269.18,220.24Z"/><polygon class="cls-5" points="246.32 228.31 260.68 230.12 278.66 240.72 287.86 183.99 250.46 189.94 246.32 228.31"/><path class="cls-10" d="M231.27,225.81l9.4,12.26,20-7.95s-1.05-50.38-.42-52.55S228.62,184,228.62,184Z"/><polygon class="cls-3" points="235.03 226.38 240.68 238.07 218.38 300.25 218.45 237.38 235.03 226.38"/><polygon class="cls-3" points="309.68 186.22 324.1 159.31 356.1 225.23 335.79 241.23 319.46 224.61 315.81 206.57 309.68 186.22"/><polygon class="cls-1" points="312.15 260.16 319.46 224.61 356.1 225.23 324.07 274.5 312.15 260.16"/><polygon class="cls-11" points="180.5 101.49 187.28 97.44 168.09 70.31 162.92 72.69 169.83 94.39 180.5 101.49"/><polygon class="cls-11" points="178.26 100.62 168.59 90.51 151.6 101.71 163.83 113.81 178.26 107.73 178.26 100.62"/><polygon class="cls-12" points="181.19 112.29 182.23 109.23 187.28 97.44 168.59 90.51 167.14 94.82 173.5 105.93 163.83 113.81 175.13 119.18 181.19 112.29"/><polygon class="cls-11" points="183.2 112.12 182.23 109.23 174.31 112.5 163.83 113.81 169.86 116.68 176.69 118.97 183.2 112.12"/><polygon class="cls-8" points="178.63 125.85 184.62 117.94 182.47 113.07 175.05 115.66 163.83 113.81 159.99 120.29 168.82 125.89 178.63 125.85"/><polygon class="cls-8" points="184.62 117.94 187.59 112.99 182.23 109.23 175.05 115.66 184.62 117.94"/><polygon class="cls-13" points="213.63 176.59 197.46 143.56 184.62 117.94 168.82 125.89 182.13 169.63 213.63 176.59"/><polygon class="cls-3" points="227.57 165.03 223.36 152.49 197.46 143.56 182.13 169.63 220.04 211.86 227.57 165.03"/><polygon class="cls-13" points="234.26 198.76 238.86 216.74 240.68 238.07 218.45 237.38 218.37 184.54 234.26 198.76"/><polygon class="cls-14" points="231.05 159.03 236.14 163.56 243.48 177.78 237.39 188.04 238.86 216.74 218.37 184.54 223.56 151.24 231.05 159.03"/><polygon class="cls-3" points="291.27 224.56 278.66 240.72 339.63 304.18 318.43 239.09 291.27 224.56"/><polygon class="cls-15" points="255.31 210.12 255.03 216.46 260.68 230.12 266.39 215.76 261.3 208.31 255.31 210.12"/><polygon class="cls-13" points="284.37 200.71 278.8 213.39 278.66 240.72 318.43 239.09 324.1 159.31 284.37 200.71"/><polygon class="cls-8" points="248.76 201.34 246.81 211.86 255.03 216.46 260.19 212.42 266.39 215.76 274.76 210.69 273.81 204.72 270.78 200.01 256.42 197.01 248.76 201.34"/><polygon class="cls-15" points="243.74 185.86 240.11 199.73 248.19 204.36 259.62 200.57 273.81 204.72 282.91 197.08 280.33 182.17 243.74 185.86"/><path class="cls-8" d="M238.93,173.39l-2,5.73.45,8.93,5.23,4.16,15.68-4.54,20.53,6L292,182.59s-9.4-13.44-9.83-13.39Z"/><path class="cls-15" d="M248.27,159l-12.13,4.6L232,173s4.62,6.15,5,6.08l21.57-4.41s19.92,5.86,20.34,5.72,3.22-8.58,3.22-8.58l-1.6-14.22Z"/><polygon class="cls-15" points="248.27 158.96 246.59 159.6 278.86 169.97 281.99 171.09 280.47 157.63 248.27 158.96"/><polygon class="cls-14" points="287.3 152.9 278.86 169.97 278.8 213.39 302.77 191.53 324.1 159.31 308.69 152.96 287.3 152.9"/><polygon class="cls-13" points="243.25 160.49 236.14 163.56 223.36 152.49 217.85 136.96 229.53 133.14 237.97 127.05 251.58 131.8 248.41 148.71 243.25 160.49"/><polygon class="cls-8" points="246.25 153.45 239.83 157.43 236.14 163.56 276.7 163 273.5 154.15 246.25 153.45"/><polygon class="cls-8" points="246.25 153.45 239.83 157.43 257.98 163.26 276.7 163 273.5 154.15 246.25 153.45"/><path class="cls-15" d="M246,146.34l-9.69,4.74,3.48,6.35,36.73-.35s-4.81-8.81-5.15-8.65S246,146.34,246,146.34Z"/><polygon class="cls-8" points="245.48 140.91 242.73 143.1 236.35 151.08 272.38 151.29 267.78 141.88 245.48 140.91"/><polygon class="cls-16" points="236.53 129.53 242.73 143.1 262.83 143.09 282.29 147.9 290.49 135.95 285.11 124.99 236.53 129.53"/><path class="cls-3" d="M288.68,123.78c1,.27-2.16,18.72,1.47,22.36,1.69,1.69,12-9.75,12-9.75l14.4-9.08-15-3.91Z"/><polygon class="cls-11" points="305.12 91.99 307.93 106.69 297.77 134.55 278.86 143.33 285.64 133.04 263.21 133.12 266.72 32.11 283.98 4.45 315.35 38.87 305.12 91.99"/><path class="cls-17" d="M324.36,73.45l23.71,19.64-26.38,7.12-13.76,6.48-6.1-7.45s-.27-13.29.24-14.06S324.36,73.45,324.36,73.45Z"/><polygon class="cls-16" points="314.26 89.89 307.93 106.69 295.09 100.07 302.26 84.53 314.26 89.89"/><polygon class="cls-15" points="298 80.28 314.26 89.89 348.07 93.09 322.51 24.01 300.69 19.76 293.18 56.32 298.87 67.11 298 80.28"/><polygon class="cls-18" points="302.35 47.72 295.63 55.62 295.09 100.07 314.26 89.89 302.35 47.72"/><polygon class="cls-18" points="276.99 9.42 298.93 0.58 322.51 24.01 295.63 55.62 282.62 17.13 276.99 9.42"/><polygon class="cls-15" points="302.35 47.72 283.84 9.59 276.73 14.07 282.62 17.13 295.63 55.62 302.35 47.72"/><polygon class="cls-8" points="227.2 31.23 223.85 8.12 239.48 0 298.93 0.58 283.84 9.59 227.2 31.23"/><polygon class="cls-15" points="223.85 8.12 218.32 16.86 242.36 29.13 282.62 17.13 283.84 9.59 223.85 8.12"/><polygon class="cls-15" points="214 44.65 207.08 44.86 195.96 64.66 215.42 99.16 214 44.65"/><polygon class="cls-12" points="205.35 40.1 208.12 113.73 229.53 133.14 263.21 133.12 279.89 111.73 280.19 38.75 282.62 17.13 218.32 16.86 205.35 40.1"/><polygon class="cls-11" points="216.02 56.69 208.27 58.45 227.1 89.41 230.72 83.65 235.01 89.52 255.98 70.26 270.87 58.07 258.25 54.78 242.09 61.99 235.74 64.96 231.39 68.79 229.19 64.71 225.61 61.99 216.02 56.69"/><polygon class="cls-16" points="229.7 86.56 224.41 89.41 230.44 93.25 235.01 89.52 229.7 86.56"/><polygon class="cls-19" points="239.66 57.39 242.09 61.99 261.69 56.45 270.87 58.07 271.68 55.77 261.82 51.31 239.66 57.39"/><polygon class="cls-19" points="207.73 56.83 214.13 54.15 226.96 57.93 225.61 61.99 213.72 58.34 208.27 58.45 207.73 56.83"/><polygon class="cls-20" points="229.19 64.71 225.41 75.81 224.41 89.41 235.01 89.52 234.23 76.69 235.74 64.96 229.19 64.71"/><polygon class="cls-16" points="218.14 101.79 260.58 101.79 242.92 118.91 231.73 118.69 218.14 101.79"/><polygon class="cls-21" points="222.81 104.26 254.69 104.26 241.11 115.53 233.23 115.35 222.81 104.26"/><polygon class="cls-13" points="316.5 127.31 262.69 143.09 278.86 169.97 308.69 152.96 316.5 127.31"/><path class="cls-22" d="M218.4,74A3.94,3.94,0,1,0,214.46,70,3.95,3.95,0,0,0,218.4,74Z"/><path class="cls-22" d="M253.33,74.31a3.94,3.94,0,1,0-3.94-3.94A3.95,3.95,0,0,0,253.33,74.31Z"/><polygon class="cls-23" points="107.33 330.49 114.28 373.88 119.16 374.75 124.27 354.86 126.41 334.84 107.33 330.49"/><polygon class="cls-24" points="130.04 300.21 119.16 374.75 123.38 374.01 132.29 333.71 130.04 300.21"/><path class="cls-19" d="M87.85,307.06c0-1.31-41-9.16-41-9.16L130,291.43l127.85,6.92L205.33,314Z"/><polygon class="cls-25" points="179.97 300.69 197.93 297.59 220.47 298.64 202.23 303.02 179.97 300.69"/><polygon class="cls-25" points="129.23 295.94 116.83 298.03 131.37 301.81 148.56 302.3 182.85 293.82 129.23 295.94"/><polygon class="cls-19" points="135.39 273.38 122.64 280.27 153.57 292.78 177.5 286.34 183.1 285.83 149.95 283.91 135.39 273.38"/><polygon class="cls-19" points="207.07 274.87 203.5 276.54 197.19 286.22 200.08 284.59 207.07 274.87"/><polygon class="cls-3" points="206.97 292.32 212.68 295.16 209.66 299.8 200.37 300.99 196.75 294.78 206.97 292.32"/><polygon class="cls-4" points="193.17 291.41 187.41 294.02 191.76 299.53 200.37 300.99 200.24 296.06 193.17 291.41"/><polygon class="cls-5" points="196.2 283.94 195.16 285.78 187.41 294.02 200.24 296.06 201.9 289.97 200.34 284.57 196.2 283.94"/><polygon class="cls-4" points="200.24 296.06 212.68 295.16 205.89 285.93 202.14 285.22 200.34 284.57 200.24 296.06"/><polygon class="cls-24" points="67.79 379.56 69.05 382.97 76 381.22 97.25 332.4 85.03 324.94 63.12 374.73 67.79 379.56"/><polygon class="cls-24" points="232.97 323.14 247.74 328.04 242.26 377.31 238.15 379.05 235.04 372.57 226.68 331.84 232.97 323.14"/><polygon class="cls-23" points="229.32 328.18 238.15 379.05 231.27 377.31 217.5 332 229.32 328.18"/><polygon class="cls-24" points="208.56 331.78 192.03 391.4 185.67 393.06 179.97 385.62 186.73 342.29 182.95 335.41 208.56 331.78"/><polygon class="cls-23" points="166.85 334.12 195.35 342.17 185.67 393.06 178.73 391.47 166.85 334.12"/><polygon class="cls-23" points="70.88 325.89 60 336.83 63.06 382.13 69.05 382.97 86.34 332.77 70.88 325.89"/><polygon class="cls-25" points="174.99 309.92 248.61 309.1 247.74 328.04 195.35 342.17 174.99 309.92"/><path class="cls-17" d="M83.9,305.61l-27.46,7.14L60,336.83l135.36,5.34.76-24.9s-18.92-4.84-16.23-6.51S83.9,305.61,83.9,305.61Z"/><polygon class="cls-26" points="181.63 307.54 206.8 307.91 257.89 298.35 259.34 309.8 208.36 321.46 181.63 307.54"/><polygon class="cls-23" points="46.81 297.9 206.8 307.91 208.36 321.46 48.06 319.51 46.81 297.9"/><polygon class="cls-27" points="194.78 281.59 200.34 281.38 201.32 283.81 200.34 286.31 200.21 286.31 195.16 285.78 194.78 281.59"/><polygon class="cls-10" points="200.34 281.38 206.47 281.64 205.89 285.93 200.34 286.31 200.34 281.38"/><polygon class="cls-8" points="218.44 244.98 217.05 249.4 216.07 247.1 204.59 262.86 203.5 276.54 220.62 258.86 234.88 232.2 218.44 244.98"/><polygon class="cls-18" points="203.5 276.54 218.41 273.31 220.58 267.74 218.41 267.86 222.14 264.37 226.46 255.04 222.79 255.16 228.29 251.38 234.88 232.2 203.5 276.54"/><polygon class="cls-8" points="131.37 301.81 181.27 291.93 178.47 290.33 120.99 294.37 131.37 301.81"/><polygon class="cls-18" points="122.64 280.27 179.34 284.38 178.14 292.55 120.99 294.37 122.64 280.27"/><polygon class="cls-8" points="137.34 289.18 131.37 301.81 182.85 293.82 184.11 290.49 137.34 289.18"/><polygon class="cls-8" points="138.56 284.79 135.39 273.38 182.29 281.24 184.12 286.6 138.56 284.79"/><polygon class="cls-28" points="96.15 291.69 99.73 293.22 104 297.68 98.51 299.37 95.41 296.34 96.15 291.69"/><polygon class="cls-29" points="98.6 265.34 99.73 293.22 97.85 293.22 96.15 290.54 96.15 265.75 98.6 265.34"/><polygon class="cls-29" points="97.28 291.05 94.83 293.22 89.7 297.57 98.51 299.37 97.85 293.22 97.28 291.05"/><polygon class="cls-30" points="99.73 257.26 95.44 266.84 94.83 293.22 97.85 293.22 97.28 266.22 99.73 257.26"/><polygon class="cls-31" points="98.49 254.73 95.54 259.94 95.41 262.04 97.58 262.96 95.44 264.49 95.44 266.84 118.93 267.69 118.97 265.34 118.01 263.91 119 263.24 119.04 260.67 118.11 259.91 119.07 258.48 119.11 256.25 118.46 254.94 119.16 254.43 119.16 252.37 105.71 252.27 98.49 254.73"/><polygon class="cls-32" points="105.71 260.3 95.54 259.94 95.65 252.19 105.71 252.27 105.71 260.3"/><polygon class="cls-33" points="119 263.24 95.41 262.04 95.44 264.49 118.97 265.34 119 263.24"/><polygon class="cls-33" points="105.71 258.13 119.07 258.48 119.04 260.67 105.71 260.3 105.71 258.13"/><polygon class="cls-33" points="105.71 255.87 119.11 256.25 119.16 254.43 105.71 254.02 105.71 255.87"/></svg>