<svg id="Layer_1" data-name="Layer 1" xmlns="http://www.w3.org/2000/svg" viewBox="0 0 400 400"><defs><style>.cls-1,.cls-2,.cls-6{fill:#2b2b2b;}.cls-2{opacity:0.1;}.cls-3{fill:#734d61;}.cls-4{fill:#795d88;}.cls-5{fill:#594265;}.cls-6{opacity:0.2;}.cls-7{fill:#8f759f;}.cls-8{fill:#a587b8;}.cls-9{fill:#b2879c;}.cls-10{fill:#95637c;}.cls-11{fill:#a17e6e;}.cls-12{fill:#d1a0b8;}.cls-13{fill:#805e4f;}.cls-14{fill:#593e35;}.cls-15{fill:#737474;}.cls-16{fill:#474748;}.cls-17{fill:#4f5353;}.cls-18{fill:#a98c80;}.cls-19{fill:#fff;}</style></defs><title>analysts_ENTJ_famous_real_whoopi_goldberg</title><polygon class="cls-1" points="111.4 131.73 112.67 151.2 121.97 154.48 127.06 137.43 117.97 126.04 111.4 131.73"/><polygon class="cls-1" points="170.34 143.16 176.52 158.83 147.78 161.25 128.15 134.73 135.97 119.81 140.68 132.82 170.34 143.16"/><polygon class="cls-2" points="104.2 388.3 193.68 399.95 294.61 388.3 203.55 375.05 104.2 388.3"/><polygon class="cls-3" points="264.65 163.68 299.22 218.88 273.32 254.33 259.58 241.24 248.75 204.15 264.65 163.68"/><polygon class="cls-4" points="139.67 310.37 142.63 328.13 155.44 343.02 183.13 336.88 193.5 312.62 190.22 292.44 181.77 288.35 139.67 310.37"/><polygon class="cls-4" points="193.5 312.62 207.94 337.74 232.07 341.33 252.39 334.42 255.43 312.62 230.78 280.27 193.5 312.62"/><polygon class="cls-5" points="167.9 296.25 193.5 312.62 216.3 294.98 189.78 260.48 167.9 296.25"/><polygon class="cls-6" points="189.78 271.15 216.3 323.67 252.3 333.67 255.43 312.62 189.78 271.15"/><polygon class="cls-6" points="189.78 271.15 172.79 322.25 142.63 328.13 139.67 310.37 189.78 271.15"/><polygon class="cls-7" points="141.75 238 129.86 270.17 123.99 305.38 163.64 318 189.78 271.15 226.97 282.6 190.32 208.55 141.75 238"/><polygon class="cls-8" points="190.14 251.5 232.54 200 238.65 151.76 232.54 146.95 190.14 176.36 170.52 152.93 157.56 157.67 178.46 193.67 190.14 251.5"/><polygon class="cls-7" points="262.06 203.4 264.65 163.68 238.65 151.76 211.22 203.4 218.14 223.59 262.06 203.4"/><polygon class="cls-9" points="190.14 251.5 189.78 271.15 220.79 318 275.5 309.5 270.75 273.25 259.58 241.24 225.92 231 190.14 251.5"/><polygon class="cls-10" points="259.58 241.24 291.93 207.23 312.01 239.31 270.75 273.25 259.58 241.24"/><polygon class="cls-3" points="147.54 159.77 139.99 157.67 134.21 166.22 106.35 212.05 124.24 245.55 141.75 238 147.54 159.77"/><polygon class="cls-10" points="114.25 199.05 141.75 238 129.86 270.17 93.69 232.88 114.25 199.05"/><polygon class="cls-11" points="259.58 241.24 248.75 242.84 259.74 264.69 266.99 262.47 259.58 241.24"/><polygon class="cls-3" points="247.9 241.67 262.59 270.37 257.01 272.56 241.37 241.9 247.9 241.67"/><polygon class="cls-3" points="148.9 240.47 137.38 268.25 143.13 270.63 154.81 241.71 148.9 240.47"/><polygon class="cls-11" points="141.75 238 148.9 240.47 139.29 263.63 134.33 257.89 141.75 238"/><polygon class="cls-3" points="199.98 256.5 193.75 262.76 200.25 269.25 206.76 261.7 199.98 256.5"/><polygon class="cls-12" points="196.84 183.85 193.24 187.61 196.99 191.5 200.74 186.97 196.84 183.85"/><polygon class="cls-12" points="196.84 203.4 193.24 207.16 196.99 211.06 200.74 206.53 196.84 203.4"/><polygon class="cls-8" points="169.06 151.2 183.12 167.98 166.58 182.31 156.25 155.38 165.27 151.2 169.06 151.2"/><polygon class="cls-4" points="183.12 167.98 190.14 176.36 166.58 182.31 183.12 167.98"/><polygon class="cls-7" points="190.14 176.36 190.14 251.5 166.58 182.31 190.14 176.36"/><polygon class="cls-7" points="202.39 167.86 223.11 181.02 231.41 165.39 232.54 146.95 202.39 167.86"/><polygon class="cls-13" points="190.14 176.36 232.54 146.95 238.23 84.35 227.81 73.75 200.74 151.2 190.14 176.36"/><polygon class="cls-11" points="160.47 36.15 133.9 67.53 127.06 69.08 129.38 80.81 124.54 129.08 165.27 151.2 200.74 151.2 223.5 136.78 228.03 73.19 189.21 36.15 160.47 36.15"/><polygon class="cls-14" points="169.06 151.2 190.14 176.36 211.22 151.2 169.06 151.2"/><polygon class="cls-15" points="225.01 45.2 234.09 49.49 237.83 37.66 209.69 22.5 189.21 36.15 212.56 45.5 225.01 45.2"/><polygon class="cls-16" points="189.21 36.15 225.01 45.2 229.63 54.06 230.16 62.83 223.33 61.42 189.21 36.15"/><polygon class="cls-1" points="248.75 156.4 251.94 163.78 273 163.68 273 146.95 264.09 127.48 262 92.55 237.83 37.66 249.91 130.38 248.75 156.4"/><polygon class="cls-16" points="229.05 169.83 252.5 173 249.91 130.38 248.75 107.63 235.9 82.46 229.05 169.83"/><polygon class="cls-16" points="274.81 171.13 296.88 158.75 281.43 127.48 268.73 134.52 264.09 127.48 274.81 171.13"/><polygon class="cls-16" points="293.23 120.95 316.7 100.6 264.09 17.2 244.23 29.75 274.32 85.76 293.23 120.95"/><polygon class="cls-16" points="264.09 127.48 268.73 134.52 293.23 120.95 267.87 73.75 244.23 29.75 202.83 24.33 174.95 36.15 189.21 36.15 211.94 29.75 237.83 37.66 271.75 126.04 264.09 127.48"/><polygon class="cls-1" points="293.54 152 312 137.5 244.23 29.75 281.43 127.48 293.54 152"/><polygon class="cls-17" points="154.99 36.15 166.08 36.15 174.95 36.15 150.67 20.09 114.96 44.45 107.49 79.43 128.15 51.58 154.99 36.15"/><polygon class="cls-16" points="157.09 4.02 116.84 25.41 116.84 35 151.59 18.08 174.95 36.15 166.78 15.54 157.09 4.02"/><polygon class="cls-15" points="174.95 36.15 152.36 15.54 101.39 42.56 100.02 73.09 114.96 44.45 151.14 24.33 174.95 36.15"/><polygon class="cls-16" points="117.09 123.09 124.36 169.83 147.54 159.77 132.32 131.73 131.38 109.62 126.94 104.95 117.09 123.09"/><polygon class="cls-16" points="154 33 128.15 51.58 126.94 76.67 133.9 67.53 166.08 36.15 154 33"/><polygon class="cls-16" points="83.3 105.12 95.27 130.38 128.15 51.58 114.96 44.45 83.3 105.12"/><polygon class="cls-16" points="264.09 17.2 244.23 29.75 202.83 24.33 174.95 36.15 189.21 6.75 264.09 17.2"/><polygon class="cls-17" points="257.67 119.81 237.83 37.66 225.01 45.2 230.17 62.84 230.16 71.17 235.9 82.46 249.91 130.38 257.67 119.81"/><polygon class="cls-17" points="266.83 138.67 292.25 130.38 244.23 29.75 237.83 37.66 250.75 103.64 263.66 127.61 266.83 138.67"/><polygon class="cls-18" points="165.84 76.67 181.86 76.67 178.7 87.41 183.12 100.6 166.78 100.6 171.92 87.41 165.84 76.67"/><polygon class="cls-14" points="166.78 100.6 174.48 106.68 183.12 100.6 166.78 100.6"/><polygon class="cls-13" points="214.19 77.67 199.9 65.83 181.86 76.67 178.7 87.41 183.12 100.6 214.19 77.67"/><polygon class="cls-13" points="165.84 76.67 151.36 65.83 138.07 79.51 166.78 100.6 171.92 87.41 165.84 76.67"/><path class="cls-1" d="M160.3,80.08A4.36,4.36,0,1,1,156,75.73,4.35,4.35,0,0,1,160.3,80.08Z"/><path class="cls-1" d="M199,79.51a4.35,4.35,0,1,1-4.35-4.35A4.36,4.36,0,0,1,199,79.51Z"/><polygon class="cls-14" points="153.03 114.84 156.8 118.13 195.75 118.13 200.17 113.83 193.19 116.16 180.89 114.55 174.95 117.35 168.48 114.55 158.65 116.16 153.03 114.84"/><polygon class="cls-14" points="156.25 116.98 165.11 135.29 169.06 137.43 186.83 137.43 189.99 134.21 196.8 115.19 193 118.12 159.14 118.12 156.25 116.98"/><polygon class="cls-19" points="160.33 118.12 167.59 130.38 187.02 130.38 193 118.12 160.33 118.12"/><polygon class="cls-13" points="183.12 100.6 203.86 111.51 200.89 131.73 210.22 112.82 224.07 107.64 183.12 100.6"/><polygon class="cls-13" points="166.78 100.6 149.73 113.86 154.65 129.08 144.17 114.84 135.93 111.51 166.78 100.6"/><path class="cls-16" d="M192.45,83.22a9.31,9.31,0,0,0-8.73,6.08c-2.68-2.91-5.56-4.36-8.6-4.31-4.08.07-7.27,2.83-8.85,4.52a9.32,9.32,0,1,0,.51,3c0-.21,0-.42,0-.62l.37.26s3.5-4.74,8-4.81c2.74,0,5.37,1.59,7.89,4.84l.08-.06c0,.13,0,.26,0,.39a9.33,9.33,0,1,0,9.33-9.33Zm-35,16.26a6.94,6.94,0,1,1,6.94-6.93A6.94,6.94,0,0,1,157.45,99.48Zm35,0a6.94,6.94,0,1,1,6.93-6.93A6.94,6.94,0,0,1,192.45,99.48Z"/><polygon class="cls-4" points="190.14 176.36 223.11 181.02 202.39 167.86 190.14 176.36"/><polygon class="cls-10" points="141.75 238 190.14 251.5 174.95 204.15 151.36 189.67 130.32 201.7 141.75 238"/><polygon class="cls-10" points="190.14 251.5 259.58 241.24 262.06 203.4 211.22 203.4 190.14 251.5"/><polygon class="cls-9" points="156.25 155.38 147.54 159.77 130.32 201.7 174.95 204.15 156.25 155.38"/><polygon class="cls-5" points="183.13 336.88 183.13 336.88 142.63 328.13 146.63 359.25 160.05 367.38 172.38 366 183.13 336.88"/><polygon class="cls-5" points="252.39 334.42 207.94 337.74 224 365.67 238.17 369.03 249.17 364.5 252.39 334.42"/><polygon class="cls-4" points="172.38 366 172.79 380.5 153.69 382.93 120.19 380 146.63 359.25 172.38 366"/><polygon class="cls-4" points="224 365.67 217.38 386.48 236.66 389.77 255.43 386.48 249.17 364.5 224 365.67"/><rect class="cls-5" x="217.38" y="386.48" width="38.06" height="7.65"/><rect class="cls-5" x="120.19" y="380" width="52.6" height="7.65"/><polygon class="cls-15" points="244.23 29.75 200 14.08 174.95 36.15 202.83 24.33 244.23 29.75"/><polygon class="cls-17" points="157.09 4.02 178.7 6.5 180.75 14.08 174.95 36.15 157.09 4.02"/><polygon class="cls-15" points="174.95 36.15 178.7 6.5 194.67 0 264.09 17.2 190.09 8.38 174.95 36.15"/><polygon class="cls-17" points="100.02 73.09 114.96 44.45 101.39 42.56 100.02 73.09"/><polygon class="cls-1" points="128.15 51.58 83.3 105.12 95.27 130.38 128.15 51.58"/><polygon class="cls-17" points="108.55 168.57 117.93 129.06 126 106.68 129.38 80.81 133.9 67.53 128.15 51.58 84.02 151.2 108.55 168.57"/><polygon class="cls-15" points="133.9 67.53 84.02 151.2 128.15 51.58 133.9 67.53"/><polygon class="cls-1" points="131.38 109.62 118.02 129.08 130.57 75.73 131.38 109.62"/><polygon class="cls-1" points="189.21 36.15 230.16 62.83 235.9 82.46 189.21 36.15"/><polygon class="cls-16" points="249.91 130.38 237.83 37.66 263.67 127.64 249.91 130.38"/><polygon class="cls-15" points="237.83 37.66 292.25 130.38 244.23 29.75 237.83 37.66"/><polygon class="cls-15" points="316.7 100.6 244.23 29.75 264.09 17.2 316.7 100.6"/><polygon class="cls-1" points="249.91 130.38 234.38 101.87 235.9 82.46 249.91 130.38"/><polygon class="cls-13" points="129.86 270.17 137.38 268.25 139.29 263.63 134.33 257.89 129.86 270.17"/><polygon class="cls-13" points="262.59 270.37 270.75 273.25 266.99 262.47 259.69 264.69 262.59 270.37"/><polygon class="cls-1" points="128.15 51.58 166.08 36.15 154 33 128.15 51.58"/></svg>