<svg id="Layer_1" data-name="Layer 1" xmlns="http://www.w3.org/2000/svg" viewBox="0 0 400 400"><defs><style>.cls-1{fill:#474748;}.cls-1,.cls-10,.cls-11,.cls-12,.cls-13,.cls-14,.cls-15,.cls-16,.cls-17,.cls-18,.cls-19,.cls-2,.cls-20,.cls-21,.cls-3,.cls-4,.cls-5,.cls-6,.cls-7,.cls-8,.cls-9{fill-rule:evenodd;}.cls-12,.cls-2,.cls-4{fill:#2b2b2b;}.cls-3{fill:#926d5a;}.cls-4{opacity:0.1;}.cls-5{fill:#3f8f6f;}.cls-6{fill:#35785e;}.cls-7{fill:#d1ab92;}.cls-8{fill:#54b08b;}.cls-9{fill:#b38c71;}.cls-10{fill:#83624e;}.cls-11{fill:#44622d;}.cls-12{opacity:0.2;}.cls-13{fill:#c2987a;}.cls-14{fill:#fff;}.cls-15{fill:#6f9d52;}.cls-16{fill:#d7bca9;}.cls-17{fill:#b8c744;}.cls-18{fill:#74c7a5;}.cls-19{fill:#ececeb;}.cls-20{fill:#cfcfcd;}.cls-21{fill:#dddddc;}.cls-22{fill:none;}</style></defs><title>diplomats_INFP_famous_real_alicia_keys</title><polygon class="cls-1" points="222.38 67.07 227.83 65.83 234.43 76.02 230.47 158.04 215.97 163.06 222.38 67.07"/><polygon class="cls-2" points="216 91.39 206.58 155.39 222.6 158.49 227.85 65.78 220.62 81.59 221.43 85.14 216 91.39"/><polygon class="cls-3" points="161.24 7.79 141.85 -1.05 125.78 19.17 121.19 45.98 160.07 44.28 161.24 7.79"/><polygon class="cls-4" points="80.66 382.83 194.9 401.05 293.05 385.11 193.37 373.96 80.66 382.83"/><polygon class="cls-5" points="165.6 367.47 159.13 369.39 152.62 384.8 174.38 384.12 179.3 378.47 177.81 363.01 165.6 367.47"/><polygon class="cls-6" points="169.04 346.13 177.54 350.36 187.69 358.41 181.68 372.31 178.02 373.08 174.06 366.06 169.04 346.13"/><polygon class="cls-7" points="165.91 348.81 165.14 355.18 159.13 369.39 161.73 377.65 177.86 365.74 177.54 350.36 165.91 348.81"/><polygon class="cls-8" points="184.18 374.99 178.02 373.08 163.88 392.44 195.89 392.57 201.55 379.15 184.18 374.99"/><polygon class="cls-6" points="194.17 373.11 200.81 366.06 207.47 379.19 195.89 392.57 197.49 383.95 197.96 381.44 194.17 373.11"/><polygon class="cls-7" points="192.46 353.24 187.69 358.41 178.02 373.08 178.41 384.4 197.96 381.44 197.01 386.51 200.81 366.06 191.94 353.8 192.46 353.24"/><polygon class="cls-9" points="146.4 319.86 127.06 328.56 165.14 355.18 177.54 350.36 157.61 322.84 146.4 319.86"/><polygon class="cls-7" points="151.31 296.61 136.31 303.7 127.06 328.56 157.61 322.84 163.51 314.41 151.31 296.61"/><polygon class="cls-10" points="163.51 314.41 169.85 305.35 159.01 301.06 136.31 303.7 163.51 314.41"/><polygon class="cls-9" points="195.39 325.23 186.43 330.27 187.69 358.41 200.81 366.06 210.24 334.74 195.39 325.23"/><polygon class="cls-7" points="218.24 307.74 210.24 334.74 186.43 330.27 185.99 320 202.35 300.45 218.24 307.74"/><polygon class="cls-10" points="215.53 296.36 218.24 307.74 185.99 320 185.37 306.12 215.53 296.36"/><polygon class="cls-11" points="231.31 265.65 218.24 307.74 136.31 303.7 209.16 260.92 228.63 251.8 231.31 265.65"/><path class="cls-12" d="M228.38,250.61l2.93,15-95,38.05s11.67-14.75,32-31Z"/><polygon class="cls-7" points="257 226.54 290.18 202.45 280.17 194.93 246.96 205.67 233.21 210.23 257 226.54"/><polygon class="cls-7" points="218.35 162.74 222.91 153.04 230.52 154.51 252.57 197.35 223.45 214.72 218.49 161.88 218.35 162.74"/><polygon class="cls-9" points="120.41 204.8 109.8 209.35 123.12 244.62 142.06 244.81 135.19 217.65 120.41 204.8"/><polygon class="cls-7" points="153.7 171.13 151.31 158.22 109.8 209.35 135.19 217.65 150.16 206.26 153.7 171.13"/><polygon class="cls-8" points="300.4 187.87 307.13 210.49 323.4 201.34 315.59 188.99 322.16 185.56 329.89 197.95 348.01 191.22 325.33 175.85 312.44 175.76 300.4 187.87"/><path class="cls-9" d="M220.59,92.92v7.66L210.35,150l-18.79,32.12-11.27-17.3s-.83-25.26-6.07-23.65l3-37,31.83-89L221.94,43Z"/><path class="cls-7" d="M210.35,150l-.88,48.18-38.62,25.43-16.28-24.74,8.32-45.09,10.79-4,.88-9.3c4.77-1.26,5.73,24.35,5.73,24.35Z"/><polygon class="cls-9" points="164.17 207.91 177.47 193.82 194.91 216.84 165.36 223.74 164.17 207.91"/><polygon class="cls-10" points="163.17 134.31 180.29 164.79 203.57 138.43 179.93 138.43 172.69 131.6 163.17 134.31"/><polygon class="cls-10" points="214.96 88.03 209.45 89.52 220.6 100.58 222.59 91.04 214.96 88.03"/><polygon class="cls-7" points="220.65 61.16 212.05 65.99 209.45 89.52 222.59 91.04 227.93 65.28 220.65 61.16"/><path class="cls-13" d="M141.85-1l1.42.05,65.55,2L205.72,22,189.29,20.6s-4.58,12.89-8.86,24.28L129.7,43.39,140.59,20Z"/><path class="cls-3" d="M208.82,1l23.7,35.08-4.67,29.66-15.64-1.18-7.06-19-24.72-.73c4.28-11.39,8.86-24.28,8.86-24.28Z"/><polygon class="cls-2" points="228.54 61.4 228.33 62.79 228.33 62.79 227.85 65.78 212.05 65.99 208.13 53.61 223.47 49.27 231.78 40.85 229.31 56.54 228.54 61.4"/><polygon class="cls-7" points="121.19 45.98 127.56 108.07 150.56 138.43 179.93 138.43 199.35 112.38 205.15 45.61 203.15 42.45 201.1 39.22 195.81 30.87 189.29 20.6 140.59 20.04 121.19 45.98"/><polygon class="cls-9" points="134.35 55.65 126.61 59.92 140.45 72.63 152.62 92.03 160.19 82.71 166.93 91.71 180.82 71.37 193.43 56.37 185.2 53.23 167.85 61.8 162.73 68.39 161.13 71.42 156.95 68.48 151.07 62.42 149.18 60.04 134.35 55.65"/><polygon class="cls-14" points="161.36 105.77 179.09 108.13 168.19 118.99 154.16 118.07 144.47 108.58 161.36 105.77"/><polygon class="cls-15" points="181.24 108.26 167.88 121.46 155.18 121.54 142.57 108.59 144.99 108.26 155.2 116.24 167.06 116.19 178.19 108.07 181.24 108.26"/><polygon class="cls-10" points="163.06 87.61 152.62 92.03 160.35 97.7 166.93 91.71 163.06 87.61"/><polygon class="cls-16" points="156.95 68.48 156.18 82.3 152.62 92.03 166.93 91.71 163.17 82.3 162.73 68.39 156.95 68.48"/><polygon class="cls-2" points="150.95 57.26 133.63 54.39 126.16 59.15 126.61 59.92 133.71 56.88 136.12 58.25 151.07 62.42 150.95 57.26"/><polygon class="cls-2" points="167.78 56.93 184.4 51.36 193.86 55.58 193.43 56.37 184.37 54.39 182.29 56.1 167.85 61.8 167.78 56.93"/><polygon class="cls-11" points="142.57 108.59 141.13 107.15 156.06 104.34 160.37 105.77 165.2 104.17 182.87 106.72 181.24 108.26 160.53 108.44 142.57 108.59"/><polygon class="cls-10" points="222.89 70.3 216.45 69.74 215.54 82.3 222.89 70.3"/><polygon class="cls-17" points="219.04 82.32 215.68 85.79 219.15 88.7 222.17 85.12 219.04 82.32"/><polygon class="cls-11" points="141.53 196 156.15 236.03 223.43 209.43 223.71 202.59 198.42 193.31 174.06 210.57 157.24 195.85 141.53 196"/><path class="cls-15" d="M151.31,158.22,141.52,196l32.54,14.57-11.17-56.82-11.58,4.47Zm72.4,44.37-49.65,8L210.35,150,222.91,153Z"/><path class="cls-8" d="M223.71,202.59l-17.56,7.34,1.32,2-.09,3.08L102.11,263l-7.56-6.47-16.62,6.94-9.94,37,39.11,18.67,24.14-33,93.4-53.6,10.21-5ZM90.61,279.85,106,284.08l-4.37,13.5-15.81-4.72Z"/><polygon class="cls-6" points="107.1 319.18 243.33 247.25 234.85 227.59 224.64 232.61 122.26 277.2 115.01 284.26 107.1 319.18"/><polygon class="cls-18" points="326.58 158.36 223.71 202.59 231.75 220.88 272.57 201.29 287.77 188.57 294.44 190.74 325.33 175.85 332.9 171.46 326.58 158.36"/><polygon class="cls-8" points="280.62 187.1 269.94 182.72 263.65 205.49 269.28 202.84 280.62 187.1"/><path class="cls-19" d="M115,284.26l7.89-3.72s2.29-3.2,3-3.55a8.81,8.81,0,0,1,2.4-.26l13.31-15.3-36.52-9.28-10.54,4.4Z"/><path class="cls-20" d="M105.09,252.15l20.22,25.34h.07v0h.33l0,0h.1l0,0h0l0,0c.71-.35,5.14-.29,5.14-.29h0l4.58-2.15h0l1.77-1.37-3.55-4.09s.82-11.58-.58-10.95-17.67-10.38-17.67-10.38Z"/><polygon class="cls-7" points="269.94 194.84 269.94 182.72 287.51 178.43 300.4 187.87 286.68 193.13 269.94 194.84"/><polygon class="cls-21" points="134.3 262.13 143.97 260.74 147.69 268.86 141.03 272 138.84 272.06 137.39 273.18 115.59 247.76 123.12 244.62 134.3 262.13"/><polygon class="cls-8" points="136.51 266.74 141.03 272 135.62 274.55 129.11 266.56 136.51 266.74"/><path class="cls-19" d="M135.54,254l12.14,14.87,7.52-3.54,2.17-4.07.94.17-.61-6-9.88-10.49s-11.76,4.12-12.17,3.57S135.54,254,135.54,254Z"/><polygon class="cls-20" points="143.45 244.18 157.06 261.83 157.37 261.25 162.09 262.08 165.88 260.29 167.87 256.38 169.06 256.42 168.31 251.63 157.85 237.61 151.7 232.68 140.2 237.48 143.45 244.18"/><polygon class="cls-8" points="151.07 249.32 143.35 253.16 153.91 263.41 155.2 265.32 162.09 262.08 151.07 249.32"/><polygon class="cls-21" points="171.24 231.51 162.53 228.15 151.7 232.68 167.87 256.38 167.87 256.38 173.82 256.55 178.65 254.28 178.65 254.28 180.01 250.57 180.68 250.67 171.24 231.51"/><path class="cls-19" d="M186.41,227.56c-.26-.37-12.51-4-12.51-4l-11.37,4.57L180,250.57h0l5,.7h0l7.46-3.51-1.28-10.84Z"/><polygon class="cls-20" points="194.02 223.85 184.28 219.07 173.9 223.58 192.48 247.76 199.72 244.35 199.39 241.09 201.97 241.29 194.02 223.85"/><path class="cls-21" d="M208.78,222.44l-13.87-7.72-10.63,4.35,17.14,22.18,4.17.33,5.06-2.38s.73-3.6,1.33-3.89a1.11,1.11,0,0,1,.5,0Z"/><polygon class="cls-9" points="140.96 246.76 140.2 237.48 152.81 245.21 151.88 248.06 141.27 248.95 140.96 246.76"/><polygon class="cls-9" points="128.68 257 124.03 264 133.71 272.2 153.91 263.41 146.73 251.8 128.68 257"/><polygon class="cls-7" points="124.03 264 123.12 244.62 140.2 237.48 146.73 251.8 124.03 264"/><polygon class="cls-9" points="269.94 194.84 300.4 187.87 290.18 202.45 269.28 202.84 269.94 194.84"/><path class="cls-19" d="M194.91,214.72l16.68,21.15a1.16,1.16,0,0,1,.39-.56c.6-.29,4.4,1.19,4.4,1.19h0l8.26-3.89-18.49-22.68Z"/><polygon class="cls-8" points="207.63 226.41 216.38 236.5 210.65 239.2 202.43 228.44 207.63 226.41"/><path class="cls-8" d="M191.61,232.83l5.45-2.32,8.53,11.07-5.87,2.77S191.67,232.81,191.61,232.83Z"/><polygon class="cls-8" points="174.55 240.23 170.08 242.18 178.65 254.28 185.02 251.27 174.55 240.23"/><polygon class="cls-8" points="157.91 246.58 162.86 244.32 173.82 256.55 165.88 260.29 157.91 246.58"/><polygon class="cls-8" points="113.88 268 120.02 265.07 131.04 276.7 122.9 280.54 113.88 268"/><polygon class="cls-19" points="193.06 251.99 198.71 260.11 184.35 267.3 178.14 259.3 193.06 251.99"/><polygon class="cls-19" points="172.13 264 173.9 267.16 169.55 269.43 167.03 266.63 172.13 264"/><polygon class="cls-19" points="165.18 267.37 167.24 270.53 162.9 272.81 160.37 270 165.18 267.37"/><polygon class="cls-19" points="158.45 270.73 160.92 273.84 155.84 276.42 153.64 273.36 158.45 270.73"/><polygon class="cls-2" points="220.67 18.57 202.26 20.7 190.54 22.57 189.29 20.6 173.13 20.42 179.48 13.56 202.89 7.18 209.04 15.11 220.67 18.57"/><polygon class="cls-2" points="217.94 14.52 222.43 21.18 212.57 27.64 196.18 31.46 189.29 20.6 202.89 7.18 214.48 9.4 217.94 14.52"/><polygon class="cls-2" points="160.84 20.28 166 7.62 188.95 0.41 208.82 1.03 211.78 5.41 205.68 4.18 176.17 11.1 168.03 20.36 160.84 20.28"/><polygon class="cls-2" points="208.82 1.03 211.78 5.41 205.79 4.21 208.82 1.03"/><polygon class="cls-2" points="199.03 35.95 214.97 31.22 224.58 24.35 232.52 36.11 221.86 45.74 206.98 50.52 199.03 35.95"/><polygon class="cls-2" points="160.43 -0.47 154.06 4.52 153.11 20.19 161.17 20.28 169.17 7.66 188.95 0.41 160.43 -0.47"/><polygon class="cls-2" points="141.85 -1.05 137.76 4.11 138.16 12.09 140.59 20.04 144.07 20.08 149.14 20.14 150.34 4.71 155.24 -0.63 141.85 -1.05"/><polygon class="cls-2" points="141.85 -1.05 133.82 9.06 133.65 17.29 137.74 23.86 140.59 20.04 141.85 -1.05"/><polygon class="cls-2" points="125.78 19.17 130.47 13.28 130.23 18.74 135.91 26.3 128.44 36.28 125.01 35.98 123.67 31.52 125.78 19.17"/><polygon class="cls-2" points="122.92 35.88 123.63 38.21 126.52 38.85 121.19 45.98 122.92 35.88"/><path class="cls-2" d="M182.79,69.72a4.34,4.34,0,1,1-4.34-4.33A4.34,4.34,0,0,1,182.79,69.72Z"/><path class="cls-2" d="M147.23,69.72a4.34,4.34,0,1,1-4.34-4.33A4.34,4.34,0,0,1,147.23,69.72Z"/><line class="cls-22" x1="223.71" y1="202.59" x2="243.33" y2="247.25"/><line class="cls-22" x1="231.31" y1="265.65" x2="200.81" y2="366.06"/><polygon class="cls-9" points="145.56 96.68 138.58 109.18 138.58 101.18 145.56 96.68"/><polygon class="cls-9" points="177.31 97.56 185.93 109.18 185.93 101.18 177.31 97.56"/><line class="cls-22" x1="227.93" y1="65.28" x2="210.35" y2="149.97"/></svg>