<svg id="Layer_1" data-name="Layer 1" xmlns="http://www.w3.org/2000/svg" xmlns:xlink="http://www.w3.org/1999/xlink" viewBox="0 0 400 400"><defs><style>.cls-1{fill:none;}.cls-10,.cls-2,.cls-27{fill:#2b2b2b;}.cls-2{opacity:0.1;}.cls-3{fill:#27788b;}.cls-4{fill:#755445;}.cls-5{fill:#318ea5;}.cls-6{fill:#51362a;}.cls-7{fill:#369395;}.cls-8{fill:#1c7678;}.cls-9{clip-path:url(#clip-path);}.cls-10{opacity:0.3;}.cls-11{fill:#916d5a;}.cls-12{clip-path:url(#clip-path-2);}.cls-13{fill:#72cacb;}.cls-14{clip-path:url(#clip-path-3);}.cls-15{fill:#50a8a9;}.cls-16{clip-path:url(#clip-path-4);}.cls-17{fill:#dcdcdb;}.cls-18{clip-path:url(#clip-path-5);}.cls-19{clip-path:url(#clip-path-6);}.cls-20{clip-path:url(#clip-path-7);}.cls-21{clip-path:url(#clip-path-8);}.cls-22{clip-path:url(#clip-path-9);}.cls-23{clip-path:url(#clip-path-10);}.cls-24{clip-path:url(#clip-path-11);}.cls-25{fill:#98796a;}.cls-26{fill:#474747;}.cls-28{fill:#6f7173;}.cls-29{fill:#4f5253;}</style><clipPath id="clip-path"><polygon class="cls-1" points="152.36 271.36 168.38 340.69 240.53 347.02 257.69 269.36 152.36 271.36"/></clipPath><clipPath id="clip-path-2"><polygon class="cls-1" points="174.48 145.45 173.98 153.96 148.96 200.99 142.46 195.49 139.96 171.47 143.46 164.47 174.48 145.45"/></clipPath><clipPath id="clip-path-3"><polygon class="cls-1" points="178.99 252.53 167.48 289.06 169.48 294.06 195 305.57 198 299.57 186.99 251.03 182.49 250.03 178.99 252.53"/></clipPath><clipPath id="clip-path-4"><polygon class="cls-1" points="156.47 251.53 144.96 283.56 169.48 294.06 182.49 250.03 181.49 245.53 160.47 247.53 156.47 251.53"/></clipPath><clipPath id="clip-path-5"><polygon class="cls-1" points="156.47 251.53 182.49 250.03 179.99 220.01 175.49 217.51 178.87 208.94 153.47 191.99 147.96 194.49 156.47 251.53"/></clipPath><clipPath id="clip-path-6"><polygon class="cls-1" points="257.55 290.56 195 305.57 181.49 245.53 195 245.03 203.51 259.54 258.85 268.4 257.55 290.56"/></clipPath><clipPath id="clip-path-7"><polygon class="cls-1" points="280.57 257.04 271.06 258.04 234.03 240.02 232.03 234.02 274.06 171.97 281.57 167.97 280.57 257.04"/></clipPath><clipPath id="clip-path-8"><polygon class="cls-1" points="242.54 147.45 228.03 175.16 204.53 188.76 199 202 193.94 221.76 197 213 209.51 229.01 234.03 240.02 281.57 167.97 242.54 147.45"/></clipPath><clipPath id="clip-path-9"><polygon class="cls-1" points="127.45 224.01 150.97 214 153.47 203.5 147.96 194.49 141.46 149.95 105.93 165.97 127.45 224.01"/></clipPath><clipPath id="clip-path-10"><polygon class="cls-1" points="190 186.98 180.49 164.47 194.5 145.45 174.48 145.45 147.96 194.49 186.49 212.5 178.87 208.94 190 186.98"/></clipPath><clipPath id="clip-path-11"><polygon class="cls-1" points="202.01 259.54 211.01 224.01 280.57 257.04 237.53 279.55 202.01 259.54"/></clipPath></defs><title>sentinels_ESTJ_famous_real_ella_Baker</title><polygon class="cls-2" points="110.56 386.03 210.62 375.53 285.43 388.52 201 400 110.56 386.03"/><polygon class="cls-3" points="235.31 367.45 239.93 378.03 235.68 393.52 231.6 393.52 229.76 383.03 235.31 367.45"/><polygon class="cls-4" points="216.07 352.04 220.93 367.52 213.15 381.02 218.26 387.27 233.77 380.02 235.31 367.45 240.65 347.02 224.74 345.39 216.07 352.04"/><polygon class="cls-5" points="213.15 381.02 206.27 393.52 231.6 393.52 233.77 380.02 219.93 385.19 213.15 381.02"/><polygon class="cls-6" points="216.07 352.04 240.65 347.02 222.93 340.69 213.63 344.26 216.07 352.04"/><polygon class="cls-4" points="191.59 350.86 188.7 361.91 168.43 382.53 162.09 373.36 173.93 363.36 168.38 340.69 187.59 344.19 191.59 350.86"/><polygon class="cls-6" points="168.38 340.69 191.59 350.86 195.59 336.36 168.38 340.69"/><polygon class="cls-5" points="162.09 373.36 145.18 386.03 174.55 386.03 183.93 379.69 188.7 372.69 188.7 361.91 168.8 379.69 162.09 373.36"/><polygon class="cls-3" points="188.7 361.91 194.26 373.36 190.75 386.03 184.7 386.03 183.93 379.69 188.7 361.91"/><polygon class="cls-7" points="152.36 271.36 168.38 340.69 240.53 347.02 257.69 269.36 152.36 271.36"/><polygon class="cls-8" points="156.3 288.42 195.59 313.12 252.75 291.71 156.3 288.42"/><polygon class="cls-7" points="114.94 151.96 105.93 165.97 114.94 166.97 138.46 157.46 141.46 149.95 114.94 151.96"/><polygon class="cls-6" points="106.93 143.45 121.94 158.46 129.95 161.46 138.46 157.46 141.46 149.95 135.95 135.94 126.95 127.44 106.93 143.45"/><g class="cls-9"><rect class="cls-10" x="153.81" y="247.56" width="2.65" height="103.2"/><rect class="cls-10" x="159.11" y="247.56" width="2.65" height="103.2"/><rect class="cls-10" x="164.42" y="247.56" width="2.65" height="103.2"/><rect class="cls-10" x="169.72" y="247.56" width="2.65" height="103.2"/><rect class="cls-10" x="175.02" y="247.56" width="2.65" height="103.2"/><rect class="cls-10" x="180.32" y="247.56" width="2.65" height="103.2"/><rect class="cls-10" x="185.63" y="247.56" width="2.65" height="103.2"/><rect class="cls-10" x="190.93" y="247.56" width="2.65" height="103.2"/><rect class="cls-10" x="196.23" y="247.56" width="2.65" height="103.2"/><rect class="cls-10" x="201.53" y="247.56" width="2.65" height="103.2"/><rect class="cls-10" x="206.84" y="247.56" width="2.65" height="103.2"/><rect class="cls-10" x="212.14" y="247.56" width="2.65" height="103.2"/><rect class="cls-10" x="217.44" y="247.56" width="2.65" height="103.2"/><rect class="cls-10" x="222.74" y="247.56" width="2.65" height="103.2"/><rect class="cls-10" x="228.05" y="247.56" width="2.65" height="103.2"/><rect class="cls-10" x="233.35" y="247.56" width="2.65" height="103.2"/><rect class="cls-10" x="238.65" y="247.56" width="2.65" height="103.2"/><rect class="cls-10" x="243.95" y="247.56" width="2.65" height="103.2"/><rect class="cls-10" x="249.26" y="247.56" width="2.65" height="103.2"/><rect class="cls-10" x="254.56" y="247.56" width="2.65" height="103.2"/><rect class="cls-10" x="204.18" y="297.94" width="2.65" height="103.2" transform="translate(-144.02 555.04) rotate(-90)"/><rect class="cls-10" x="204.18" y="292.63" width="2.65" height="103.2" transform="translate(-138.72 549.74) rotate(-90)"/><rect class="cls-10" x="204.18" y="287.33" width="2.65" height="103.2" transform="translate(-133.42 544.44) rotate(-90)"/><rect class="cls-10" x="204.18" y="282.03" width="2.65" height="103.2" transform="translate(-128.12 539.14) rotate(-90)"/><rect class="cls-10" x="204.18" y="276.73" width="2.65" height="103.2" transform="translate(-122.81 533.83) rotate(-90)"/><rect class="cls-10" x="204.18" y="271.42" width="2.65" height="103.2" transform="translate(-117.51 528.53) rotate(-90)"/><rect class="cls-10" x="204.18" y="266.12" width="2.65" height="103.2" transform="translate(-112.21 523.23) rotate(-90)"/><rect class="cls-10" x="204.18" y="260.82" width="2.65" height="103.2" transform="translate(-106.91 517.93) rotate(-90)"/><rect class="cls-10" x="204.18" y="255.52" width="2.65" height="103.2" transform="translate(-101.6 512.62) rotate(-90)"/><rect class="cls-10" x="204.18" y="250.21" width="2.65" height="103.2" transform="translate(-96.3 507.32) rotate(-90)"/><rect class="cls-10" x="204.18" y="244.91" width="2.65" height="103.2" transform="translate(-91 502.02) rotate(-90)"/><rect class="cls-10" x="204.18" y="239.61" width="2.65" height="103.2" transform="translate(-85.7 496.72) rotate(-90)"/><rect class="cls-10" x="204.18" y="234.31" width="2.65" height="103.2" transform="translate(-80.39 491.41) rotate(-90)"/><rect class="cls-10" x="204.18" y="229" width="2.65" height="103.2" transform="translate(-75.09 486.11) rotate(-90)"/><rect class="cls-10" x="204.18" y="223.7" width="2.65" height="103.2" transform="translate(-69.79 480.81) rotate(-90)"/><rect class="cls-10" x="204.18" y="218.4" width="2.65" height="103.2" transform="translate(-64.49 475.51) rotate(-90)"/><rect class="cls-10" x="204.18" y="213.1" width="2.65" height="103.2" transform="translate(-59.18 470.2) rotate(-90)"/><rect class="cls-10" x="204.18" y="207.79" width="2.65" height="103.2" transform="translate(-53.88 464.9) rotate(-90)"/><rect class="cls-10" x="204.18" y="202.49" width="2.65" height="103.2" transform="translate(-48.58 459.6) rotate(-90)"/><rect class="cls-10" x="204.18" y="197.19" width="2.65" height="103.2" transform="translate(-43.28 454.3) rotate(-90)"/></g><polygon class="cls-11" points="111.94 118.43 106.93 143.45 124.44 140.95 126.95 127.44 137.96 123.43 101.93 97.41 97.42 103.42 111.94 118.43"/><polygon class="cls-4" points="137.96 123.43 115.44 112.92 111.94 118.43 141.46 149.95 137.96 123.43"/><polygon class="cls-7" points="174.48 145.45 173.98 153.96 148.96 200.99 142.46 195.49 139.96 171.47 143.46 164.47 174.48 145.45"/><g class="cls-12"><path class="cls-10" d="M135.08,164.69l40.32-25.64c-.8-.53-1.59-1.08-2.37-1.64L170.58,139c-.66.75-1.34,1.47-2,2.16a58.34,58.34,0,0,1-23.33,14l-8.55,5.44c-.51,1.34-1.07,2.66-1.68,4C135,164.56,135.05,164.62,135.08,164.69Z"/><path class="cls-10" d="M137,169.77l43.55-27.69c-.89-.47-1.76-1-2.62-1.47L136.08,167.2C136.39,168.05,136.69,168.91,137,169.77Z"/><path class="cls-10" d="M138.42,175.13l47.79-30.39c-1-.4-2-.82-2.94-1.28l-45.53,29C138,173.32,138.21,174.22,138.42,175.13Z"/><path class="cls-10" d="M139,177.91c.17,1,.33,1.9.46,2.85l41.22-26.21q1.25-2.51,2.7-4.86Z"/><path class="cls-10" d="M139.81,183.67c.1,1,.18,2,.25,3l37.1-23.6c.45-1.38,1-2.75,1.51-4.1Z"/><path class="cls-10" d="M140.17,189.73c0,1.06,0,2.13-.12,3.21l35.26-22.42c.21-1.21.46-2.42.76-3.62Z"/><path class="cls-10" d="M140.87,195.56c.76.56,1.5,1.14,2.23,1.73l31.54-20c0-1.09.09-2.18.2-3.27Z"/><path class="cls-10" d="M146.65,200.33l.61.6,27.66-17.59c-.1-1-.17-2-.22-3l-29.47,18.74C145.71,199.49,146.18,199.9,146.65,200.33Z"/><path class="cls-10" d="M149.16,202.86c.61.66,1.2,1.33,1.77,2l7.1-4.52a49.69,49.69,0,0,1,8.66-8.65Z"/><path class="cls-10" d="M140.1,187.28c0,.28,0,.57.05.85a40,40,0,0,1-.05,4.09l3.45,5.44c1,.86,2.09,1.75,3.1,2.67a44.91,44.91,0,0,1,6.42,7.39v0Z"/><path class="cls-10" d="M138.29,174.57c.54,2.28,1,4.6,1.26,6.92l15.07,23.68c.52-.81,1.06-1.61,1.61-2.4Z"/><path class="cls-10" d="M136.28,161.52c-.39,1-.82,2-1.26,2.95l22.91,36c.58-.74,1.17-1.46,1.77-2.15Z"/><path class="cls-10" d="M137.91,156.91c-.15.5-.31,1-.47,1.49l24.12,37.93c.16-.17.32-.35.48-.51.47-.47,1-.93,1.46-1.38l-24.05-37.82C138.94,156.73,138.43,156.82,137.91,156.91Z"/><path class="cls-10" d="M142.18,156l23.34,36.69c.68-.57,1.37-1.12,2.08-1.66l-22.76-35.79C144,155.49,143.07,155.75,142.18,156Z"/><path class="cls-10" d="M147.43,154.35l22.33,35.11c.73-.49,1.47-1,2.22-1.44l-22-34.65C149.12,153.72,148.28,154,147.43,154.35Z"/><path class="cls-10" d="M154.8,151.11c-.79.41-1.59.81-2.39,1.18l21.86,34.38,1-.5c-.15-1.18-.29-2.36-.38-3.53Z"/><path class="cls-10" d="M157.12,149.83l17.52,27.54a41.8,41.8,0,0,1,.32-4.44l-15.57-24.48C158.64,148.93,157.89,149.39,157.12,149.83Z"/><path class="cls-10" d="M161.59,147l14,22c.24-1.19.54-2.38.87-3.57l-12.74-20Q162.67,146.19,161.59,147Z"/><path class="cls-10" d="M165.78,143.68l11.71,18.42c.36-1,.75-2.08,1.17-3.11l-10.89-17.12C167.13,142.49,166.46,143.09,165.78,143.68Z"/><path class="cls-10" d="M169.68,139.94l10.26,16.12c.43-.94.89-1.87,1.37-2.78l-9.8-15.41Q170.63,138.94,169.68,139.94Z"/><path class="cls-10" d="M175.41,139.05l7.37,11.6c.5-.85,1-1.68,1.56-2.5l-3.88-6.09C178.74,141.14,177.05,140.14,175.41,139.05Z"/></g><polygon class="cls-13" points="127.45 224.01 150.97 214 153.47 203.5 147.96 194.49 141.46 149.95 105.93 165.97 127.45 224.01"/><polygon class="cls-8" points="178.99 252.53 167.48 289.06 169.48 294.06 195 305.57 198 299.57 186.99 251.03 182.49 250.03 178.99 252.53"/><g class="cls-14"><path class="cls-10" d="M185.18,242.93l-19.87,59.22c.9.11,1.78.24,2.67.39l19.61-58.46C186.78,243.72,186,243.34,185.18,242.93Z"/><path class="cls-10" d="M190,245.11l-19.44,58c.86.2,1.72.41,2.57.65L192.53,246C191.69,245.74,190.86,245.44,190,245.11Z"/><path class="cls-10" d="M195.06,246.82l-19.35,57.67c.84.28,1.68.57,2.5.89l19.42-57.88C196.76,247.3,195.91,247.07,195.06,246.82Z"/><path class="cls-10" d="M200.24,248.05l-19.57,58.34c.81.35,1.62.73,2.42,1.12l13.46-40.12a51.72,51.72,0,0,1,4.18-19.24Z"/><path class="cls-10" d="M187.82,310.09l10-29.9c-.37-1.9-.66-3.82-.87-5.74l-11.51,34.29C186.26,309.18,187,309.63,187.82,310.09Z"/><path class="cls-10" d="M192.39,313.13l8-23.71c-.5-1.42-1-2.86-1.34-4.32l-8.88,26.45C190.89,312.06,191.64,312.59,192.39,313.13Z"/><path class="cls-10" d="M196.81,316.61l6.68-19.9c-.59-1.13-1.13-2.28-1.64-3.44l-7.23,21.54Q195.73,315.69,196.81,316.61Z"/><path class="cls-10" d="M199,318.6a62.9,62.9,0,0,1,7.37-13.91l.7-2.08c-.66-.92-1.27-1.85-1.86-2.81L199,318.53Z"/><path class="cls-10" d="M189.78,311.33,200.55,315c.37-.82.76-1.62,1.16-2.41l-35.75-12-.54,1.62A57.56,57.56,0,0,1,189.78,311.33Z"/><path class="cls-10" d="M204.34,307.83l-36.7-12.31L166.8,298,203,310.16C203.41,309.37,203.86,308.59,204.34,307.83Z"/><path class="cls-10" d="M207.44,303.27l-38.11-12.78-.84,2.51,37.33,12.53C206.35,304.76,206.88,304,207.44,303.27Z"/><path class="cls-10" d="M203.26,296.28,171,285.46l-.85,2.51,35,11.76C204.52,298.6,203.86,297.46,203.26,296.28Z"/><path class="cls-10" d="M200.46,289.75l-27.76-9.32-.84,2.52,29.87,10C201.27,291.91,200.85,290.83,200.46,289.75Z"/><path class="cls-10" d="M198.58,283.52l-24.19-8.11-.84,2.51,25.88,8.68C199.12,285.58,198.84,284.56,198.58,283.52Z"/><path class="cls-10" d="M197.38,277.53l-21.3-7.15-.85,2.51,22.68,7.61C197.71,279.51,197.53,278.52,197.38,277.53Z"/><path class="cls-10" d="M196.72,271.71l-19-6.36-.84,2.52L197,274.6C196.88,273.64,196.79,272.67,196.72,271.71Z"/><path class="cls-10" d="M196.57,266.07l-17.12-5.74-.84,2.51,17.95,6C196.53,267.94,196.54,267,196.57,266.07Z"/><path class="cls-10" d="M197.12,260.66l-16-5.36-.85,2.51,16.47,5.53C196.86,262.45,197,261.55,197.12,260.66Z"/><path class="cls-10" d="M198.23,255.44l-15.41-5.17-.84,2.51L197.61,258C197.79,257.16,198,256.3,198.23,255.44Z"/><path class="cls-10" d="M199.84,250.39l-15.33-5.15-.84,2.52,15.3,5.13C199.24,252.05,199.53,251.22,199.84,250.39Z"/></g><polygon class="cls-15" points="156.47 251.53 144.96 283.56 169.48 294.06 182.49 250.03 181.49 245.53 160.47 247.53 156.47 251.53"/><g class="cls-16"><path class="cls-10" d="M140,289.38l15.15-42c-.93,0-1.85-.08-2.77-.15L137.34,289C138.24,289.13,139.14,289.24,140,289.38Z"/><path class="cls-10" d="M145.28,290.46l15.54-43.13c-.95,0-1.89,0-2.83,0l-15.31,42.49C143.55,290,144.42,290.24,145.28,290.46Z"/><path class="cls-10" d="M150.35,292l16.2-45c-1,.07-1.92.13-2.88.17l-15.84,43.94C148.68,291.45,149.52,291.73,150.35,292Z"/><path class="cls-10" d="M155.25,294.06l17.15-47.57c-1,.12-2,.24-2.94.33L152.82,293C153.64,293.33,154.45,293.68,155.25,294.06Z"/><path class="cls-10" d="M160,296.54l18.41-51.08c-1,.21-2,.41-3,.58l-17.74,49.21C158.44,295.66,159.22,296.09,160,296.54Z"/><path class="cls-10" d="M164.58,299.47l20-55.61c-.35.09-.68.2-1,.28-.69.21-1.4.39-2.1.58L162.3,298C163.07,298.44,163.83,299,164.58,299.47Z"/><path class="cls-10" d="M169,302.83l19.82-55c-.48-1.29-.95-2.59-1.42-3.88l-20.59,57.13C167.55,301.66,168.28,302.23,169,302.83Z"/><path class="cls-10" d="M172.77,300.2a44.14,44.14,0,0,1,2.75-5,52.49,52.49,0,0,0,4.61-7.65l11.47-31.82c-.43-1.34-.9-2.68-1.37-4Z"/><path class="cls-10" d="M192.18,262l-2.51,7,1.55-2.74C191.54,264.8,191.83,263.38,192.18,262Z"/><path class="cls-10" d="M168.47,302.4l2.94,1.05c.31-.82.65-1.64,1-2.45l-12.53-4.52A66.84,66.84,0,0,1,168.47,302.4Z"/><path class="cls-10" d="M174.9,296.26l-35.45-12.78-.9,2.49,35,12.63C174,297.81,174.44,297,174.9,296.26Z"/><path class="cls-10" d="M177.86,291.69l-36.62-13.2-.89,2.5,36,13C176.9,293.22,177.39,292.46,177.86,291.69Z"/><path class="cls-10" d="M180.44,287,143,273.5l-.9,2.5,37.06,13.35C179.63,288.57,180,287.78,180.44,287Z"/><path class="cls-10" d="M182.75,282.18l-37.91-13.66-.9,2.49,37.67,13.58Z"/><path class="cls-10" d="M185.06,277.37l-38.42-13.84-.9,2.49,38.15,13.75Q184.46,278.57,185.06,277.37Z"/><path class="cls-10" d="M187.58,272.64l-39.14-14.1-.9,2.49,38.75,14C186.71,274.21,187.14,273.43,187.58,272.64Z"/><path class="cls-10" d="M190.23,268l-40-14.41-.9,2.49L188.9,270.3C189.34,269.52,189.78,268.74,190.23,268Z"/><path class="cls-10" d="M191.94,263,152,248.56l-.9,2.5,40.23,14.49C191.56,264.69,191.74,263.81,191.94,263Z"/><path class="cls-10" d="M164,247.22c-2.38.11-4.76.16-7.11.16h-.27l36,13c.06-.22.11-.44.18-.66q-.33-1.17-.69-2.34Z"/><path class="cls-10" d="M176,245.93q-2.77.49-5.59.81l20.66,7.44c-.37-1.08-.75-2.15-1.13-3.23Z"/><path class="cls-10" d="M185.36,243.66c-.59.17-1.17.34-1.77.48-.88.27-1.78.51-2.68.74l7.86,2.83c-.4-1.08-.8-2.16-1.19-3.25Z"/></g><polygon class="cls-11" points="189.5 156.96 182.99 216.51 189 217.51 239.53 157.96 242.54 147.45 232.53 145.95 203.51 157.96 194.5 145.45 189.5 156.96"/><polygon class="cls-17" points="194.5 145.45 197.5 180.23 242.54 147.45 237.78 176.37 175.49 235.32 173.98 153.96 194.5 145.45"/><polygon class="cls-7" points="156.47 251.53 182.49 250.03 179.99 220.01 175.49 217.51 178.87 208.94 153.47 191.99 147.96 194.49 156.47 251.53"/><g class="cls-18"><path class="cls-10" d="M145.08,223.23l-.48-3c-.08.48-.18.95-.27,1.43C144.58,222.14,144.84,222.68,145.08,223.23Z"/><path class="cls-10" d="M150.08,254.88c-.21,1.59-.52,3.18-.89,4.78l1.6-.26Z"/><path class="cls-10" d="M144.58,186c-.8.54-1.61,1.07-2.43,1.58l2.31,14.63,0,.24L153.41,259l2.62-.41Z"/><path class="cls-10" d="M147,184.27l11.66,73.89,2.62-.41-11.9-75.42C148.59,183,147.8,183.64,147,184.27Z"/><path class="cls-10" d="M151.83,181l12.06,76.38,2.62-.42-11.45-72.49A45.91,45.91,0,0,1,151.83,181Z"/><path class="cls-10" d="M158.2,187.27l10.93,69.24,2.62-.41-10.48-66.39C160.23,188.92,159.2,188.11,158.2,187.27Z"/><path class="cls-10" d="M164.29,191.88l10.07,63.8,2.62-.41-9.7-61.5C166.27,193.17,165.27,192.54,164.29,191.88Z"/><path class="cls-10" d="M170.22,195.41l9.38,59.45,2.62-.42-9.09-57.6C172.15,196.39,171.18,195.92,170.22,195.41Z"/><path class="cls-10" d="M176,198.07l8.83,56,2.62-.42-8.61-54.5C177.89,198.79,177,198.44,176,198.07Z"/><path class="cls-10" d="M181.67,200,184,214.88a53.66,53.66,0,0,1,1.62-6.71l-1.18-7.5C183.53,200.46,182.6,200.23,181.67,200Z"/><path class="cls-10" d="M189.8,250.66,149.74,257c-.16.92-.36,1.85-.58,2.77l42-6.62C190.66,252.33,190.22,251.5,189.8,250.66Z"/><path class="cls-10" d="M187.61,245.64l-37.21,5.87q-.08,1.37-.24,2.73l38.48-6.08C188.28,247.33,187.94,246.49,187.61,245.64Z"/><path class="cls-10" d="M185.93,240.54l-35.55,5.61c0,.42.06.84.08,1.25s0,.95,0,1.42l36.24-5.72C186.44,242.25,186.17,241.4,185.93,240.54Z"/><path class="cls-10" d="M184.69,235.37l-34.82,5.49q.18,1.32.3,2.64L185.26,238C185.05,237.1,184.86,236.23,184.69,235.37Z"/><path class="cls-10" d="M183.86,230.13,149,235.63c.18.87.35,1.74.49,2.61l34.75-5.48C184.09,231.88,184,231,183.86,230.13Z"/><path class="cls-10" d="M183.4,224.83l-35.69,5.64c.25.85.48,1.71.69,2.57l35.18-5.55C183.51,226.6,183.44,225.72,183.4,224.83Z"/><path class="cls-10" d="M183.45,219.46,146,225.37c.32.84.63,1.69.92,2.54l36.44-5.75C183.35,221.26,183.38,220.36,183.45,219.46Z"/><path class="cls-10" d="M184.19,214l-39.59,6.25c-.08.45-.19.91-.29,1.36.21.42.42.84.61,1.27l38.82-6.12Q183.92,215.35,184.19,214Z"/><path class="cls-10" d="M185.59,208.38l-40.34,6.37c-.05.9-.13,1.81-.24,2.72l39.8-6.28C185.05,210.25,185.31,209.32,185.59,208.38Z"/><path class="cls-10" d="M187.66,202.69l-42.44,6.7c0,.43.07.86.08,1.29s0,.92,0,1.38l41.22-6.51C186.89,204.59,187.26,203.63,187.66,202.69Z"/><path class="cls-10" d="M178.06,198.84l-33.35,5.26q.18,1.32.3,2.64l39.05-6.17A55.7,55.7,0,0,1,178.06,198.84Z"/><path class="cls-10" d="M169.19,194.87l-25.36,4c.18.87.34,1.74.49,2.61l29-4.57C171.89,196.28,170.52,195.6,169.19,194.87Z"/><path class="cls-10" d="M162.41,190.57l-19.87,3.14c.25.85.48,1.71.7,2.57l22.39-3.53C164.54,192.05,163.46,191.33,162.41,190.57Z"/><path class="cls-10" d="M156.84,186.08l-16,2.53c.33.84.63,1.69.93,2.54l17.77-2.81C158.61,187.61,157.72,186.86,156.84,186.08Z"/><path class="cls-10" d="M152.24,181.44l-2.24.35c-1.32,1.17-2.69,2.29-4.13,3.34l8.53-1.35Q153.28,182.64,152.24,181.44Z"/></g><polygon class="cls-15" points="257.55 290.56 195 305.57 181.49 245.53 195 245.03 203.51 259.54 258.85 268.4 257.55 290.56"/><polygon class="cls-7" points="258.85 268.4 237.53 279.55 257.55 290.56 258.85 268.4"/><polygon class="cls-7" points="197.5 244.53 195.5 249.03 202.01 259.54 207.51 260.04 211.01 244.03 197.5 244.53"/><g class="cls-19"><path class="cls-10" d="M179.5,240.47l19.12,82.59,2.59-.59L182.58,242C181.54,241.53,180.51,241,179.5,240.47Z"/><path class="cls-10" d="M185.6,243.34l18.19,78.53,2.58-.6-17.79-76.83C187.58,244.1,186.58,243.73,185.6,243.34Z"/><path class="cls-10" d="M191.51,245.35,209,320.67l2.58-.6-17.14-74C193.43,245.87,192.47,245.62,191.51,245.35Z"/><path class="cls-10" d="M197.25,246.64l16.87,72.83,2.59-.59L200.06,247C199.12,246.92,198.18,246.79,197.25,246.64Z"/><path class="cls-10" d="M202.84,247.27l16.45,71,2.58-.6-16.28-70.31C204.67,247.36,203.75,247.33,202.84,247.27Z"/><path class="cls-10" d="M208.3,247.33l16.15,69.75,2.59-.6L211,247.15C210.08,247.23,209.19,247.29,208.3,247.33Z"/><path class="cls-10" d="M213.63,246.84l16,69,2.58-.6-15.95-68.88C215.38,246.57,214.5,246.72,213.63,246.84Z"/><path class="cls-10" d="M218.84,245.85l15.95,68.84,2.58-.6-16-68.91C220.56,245.43,219.7,245.65,218.84,245.85Z"/><path class="cls-10" d="M224,244.4l16,69.09,2.58-.6L226.46,243.5C225.63,243.82,224.79,244.12,224,244.4Z"/><path class="cls-10" d="M229,242.48l16.17,69.82,2.58-.6-16.29-70.35C230.6,241.74,229.78,242.12,229,242.48Z"/><path class="cls-10" d="M233.84,240.09l16.44,71,2.59-.6-16.63-71.8C235.45,239.18,234.65,239.65,233.84,240.09Z"/><path class="cls-10" d="M238.61,237.18l16.84,72.72,2.58-.59-17.09-73.8C240.18,236.08,239.4,236.64,238.61,237.18Z"/><path class="cls-10" d="M244.63,232.44l-1.39,1.24,17.37,75,2.59-.6-16.95-73.17C245.68,234.12,245.14,233.29,244.63,232.44Z"/><path class="cls-10" d="M252.81,242.53c-1-.88-1.85-1.81-2.72-2.76l15.69,67.74,2.58-.6-14.74-63.67C253.35,243,253.07,242.77,252.81,242.53Z"/><path class="cls-10" d="M272.19,299.92l-11.91-51.4c-1.11-.78-2.21-1.58-3.28-2.43L271,306.31l2.07-.47Q272.48,302.89,272.19,299.92Z"/><path class="cls-10" d="M265.1,251.55c-.54-.31-1.08-.6-1.61-.93l8.74,37.76a50.56,50.56,0,0,1,1.26-6.35L268,258.28A54.1,54.1,0,0,1,265.1,251.55Z"/><path class="cls-10" d="M272.33,265.29l2.73,11.77c.52-1.43,1.1-2.85,1.73-4.25l-.72-3.11A45.89,45.89,0,0,1,272.33,265.29Z"/><path class="cls-10" d="M272.6,303.31l-74.45,17.25.6,2.58L273,305.94C272.87,305.06,272.73,304.19,272.6,303.31Z"/><path class="cls-10" d="M272,298,197,315.39l.6,2.58,74.71-17.3C272.16,299.78,272.08,298.89,272,298Z"/><path class="cls-10" d="M271.87,292.6l-76.11,17.63.59,2.58,75.52-17.49C271.84,294.42,271.84,293.51,271.87,292.6Z"/><path class="cls-10" d="M272.43,287l-77.87,18,.6,2.58,76.9-17.81C272.15,288.9,272.28,288,272.43,287Z"/><path class="cls-10" d="M273.7,281.29l-80.34,18.6.6,2.59,79-18.3C273.19,283.21,273.43,282.25,273.7,281.29Z"/><path class="cls-10" d="M275.71,275.38l-83.54,19.35.59,2.58,81.85-18.95C275,277.36,275.31,276.36,275.71,275.38Z"/><path class="cls-10" d="M276.2,269.82,191,289.56l.6,2.59L277,272.36c.18-.4.39-.79.58-1.18C277.11,270.73,276.65,270.28,276.2,269.82Z"/><path class="cls-10" d="M272.32,265.28,189.77,284.4l.6,2.58,83.78-19.4C273.51,266.83,272.9,266.06,272.32,265.28Z"/><path class="cls-10" d="M269.22,260.55l-80.64,18.68.6,2.58,81.5-18.87C270.17,262.16,269.68,261.36,269.22,260.55Z"/><path class="cls-10" d="M266.74,255.69l-79.36,18.38.6,2.58,79.93-18.51C267.5,257.33,267.11,256.51,266.74,255.69Z"/><path class="cls-10" d="M265.11,251.58l-1.19-.68-77.74,18,.6,2.58,78.93-18.28C265.5,252.67,265.31,252.12,265.11,251.58Z"/><path class="cls-10" d="M258,246.83l-73,16.9.6,2.59,75.23-17.43C259.86,248.23,258.9,247.54,258,246.83Z"/><path class="cls-10" d="M252.86,242.57l-69.07,16,.6,2.58,70.93-16.43C254.49,244,253.66,243.31,252.86,242.57Z"/><path class="cls-10" d="M248.63,238.11l-20.57,4.76a58,58,0,0,1-19.17,4.44L182.6,253.4l.59,2.59,67.43-15.62C249.93,239.64,249.27,238.88,248.63,238.11Z"/><path class="cls-10" d="M245.25,233.45l-2.4.55a55.47,55.47,0,0,1-5.47,4l9.47-2.19C246.29,235,245.76,234.25,245.25,233.45Z"/><path class="cls-10" d="M192.58,245.65l-11.18,2.59.6,2.58,17-3.93A54,54,0,0,1,192.58,245.65Z"/><path class="cls-10" d="M183.3,242.35l-3.1.72.6,2.58,6.75-1.56C186.11,243.57,184.7,243,183.3,242.35Z"/></g><polygon class="cls-7" points="280.57 257.04 271.06 258.04 234.03 240.02 232.03 234.02 274.06 171.97 281.57 167.97 280.57 257.04"/><g class="cls-20"><path class="cls-10" d="M231.12,235.76v-4.53c-.18.19-.36.4-.55.59-.68.67-1.38,1.33-2.1,2v.75C229.37,234.93,230.25,235.34,231.12,235.76Z"/><path class="cls-10" d="M236.43,238.7V224.8c-.85,1.2-1.74,2.36-2.65,3.47v8.87C234.67,237.64,235.55,238.16,236.43,238.7Z"/><path class="cls-10" d="M241.73,242.33V215.78c-.81,1.69-1.7,3.35-2.65,4.95v19.69C240,241,240.86,241.67,241.73,242.33Z"/><path class="cls-10" d="M247,246.72l0,0V205.57c-.58.33-1.17.67-1.77,1-.27.92-.56,1.84-.88,2.75v35.13C245.27,245.18,246.15,245.94,247,246.72Z"/><path class="cls-10" d="M252.33,252.61V202.16c-.86.63-1.75,1.23-2.65,1.81v45.47C250.62,250.46,251.5,251.51,252.33,252.61Z"/><path class="cls-10" d="M257.64,261.38V197.77c-.86.8-1.74,1.59-2.65,2.34v56.38A53.65,53.65,0,0,1,257.64,261.38Z"/><path class="cls-10" d="M260.29,195.09v70.76h2.65V191.94C262.08,193,261.2,194.09,260.29,195.09Z"/><path class="cls-10" d="M265.59,188.28v77.57h2.65v-82C267.41,185.4,266.53,186.87,265.59,188.28Z"/><path class="cls-10" d="M270.89,178.52v87.33h2.65V171.12A59.4,59.4,0,0,1,270.89,178.52Z"/><rect class="cls-10" x="276.2" y="162.65" width="2.65" height="103.2"/><rect class="cls-10" x="281.5" y="162.65" width="2.65" height="103.2"/><rect class="cls-10" x="286.8" y="162.65" width="2.65" height="103.2"/><path class="cls-10" d="M258.51,263.3c.37.87.73,1.76,1.06,2.65h29.78V263.3Z"/><path class="cls-10" d="M255.89,258c.49.87.95,1.76,1.4,2.66h32.06V258Z"/><path class="cls-10" d="M252.4,252.69c.66.87,1.29,1.75,1.88,2.65h35.07v-2.65Z"/><path class="cls-10" d="M247.68,247.39c.89.85,1.74,1.74,2.54,2.65h39.13v-2.65Z"/><path class="cls-10" d="M241.4,242.09c1.14.85,2.26,1.73,3.35,2.65h44.6v-2.65Z"/><path class="cls-10" d="M233.12,236.78c1.52.82,3,1.71,4.48,2.66h51.75v-2.66Z"/><path class="cls-10" d="M230.89,231.48l-.32.34c-.8.8-1.64,1.56-2.49,2.31h61.27v-2.65Z"/><path class="cls-10" d="M235.42,226.18c-.68.92-1.39,1.8-2.12,2.65h56.05v-2.65Z"/><path class="cls-10" d="M239,220.88c-.54.9-1.1,1.78-1.68,2.65h52v-2.65Z"/><path class="cls-10" d="M241.82,215.57c-.42.9-.87,1.78-1.33,2.66h48.86v-2.66Z"/><path class="cls-10" d="M244.05,210.27c-.33.89-.67,1.78-1,2.65h46.34v-2.65Z"/><path class="cls-10" d="M248.07,205c-.92.55-1.86,1.08-2.81,1.59-.11.35-.2.71-.31,1.06h44.4V205Z"/><path class="cls-10" d="M255.5,199.67c-1.09.92-2.22,1.81-3.39,2.65h37.24v-2.65Z"/><path class="cls-10" d="M260.93,194.36c-.71.81-1.43,1.6-2.17,2.34l-.33.32h30.92v-2.66Z"/><path class="cls-10" d="M265.05,189.06c-.63.91-1.27,1.8-1.94,2.65h26.24v-2.65Z"/><path class="cls-10" d="M268.32,183.76c-.49.9-1,1.78-1.54,2.65h22.57v-2.65Z"/><path class="cls-10" d="M270.92,178.46c-.39.89-.79,1.77-1.22,2.65h19.65v-2.65Z"/><path class="cls-10" d="M272.93,173.15c-.29.89-.6,1.78-.93,2.66h17.35v-2.66Z"/><path class="cls-10" d="M274.37,167.85c-.19.89-.41,1.77-.65,2.65h15.63v-2.65Z"/><path class="cls-10" d="M275.24,162.55c-.1.88-.21,1.76-.36,2.65h14.47v-2.65Z"/></g><line class="cls-1" x1="146.96" y1="193.99" x2="280.57" y2="257.04"/><polygon class="cls-15" points="190 186.98 180.49 164.47 194.5 145.45 174.48 145.45 147.96 194.49 186.49 212.5 178.87 208.94 190 186.98"/><polygon class="cls-15" points="242.54 147.45 228.03 175.16 204.53 188.76 199 202 193.94 221.76 197 213 209.51 229.01 234.03 240.02 281.57 167.97 242.54 147.45"/><g class="cls-21"><path class="cls-10" d="M200,184.27l-2,2.93a47,47,0,0,1-.8,5.94L204.05,183C202.72,183.49,201.38,183.9,200,184.27Z"/><path class="cls-10" d="M194.31,207.05l18.82-28q-2.32,1.26-4.75,2.32l-13.44,20c-.57,1.55-1.21,3.08-1.9,4.59C193.47,206.31,193.89,206.68,194.31,207.05Z"/><path class="cls-10" d="M240.23,145.45a58.6,58.6,0,0,1-2.25,6l3.9-5.81C241.33,145.61,240.78,145.54,240.23,145.45Z"/><path class="cls-10" d="M198.17,210.82l27.61-41.15a53.86,53.86,0,0,1-7.19,6l-22.31,33.23C196.94,209.51,197.57,210.15,198.17,210.82Z"/><path class="cls-10" d="M201.66,215.14l46.25-68.93-.13-.1c-1,0-1.95-.06-2.91-.13L200,212.9C200.55,213.63,201.12,214.38,201.66,215.14Z"/><path class="cls-10" d="M204.74,220.07l47.56-70.89q-1.12-.69-2.22-1.44l-46.83,69.79C203.77,218.36,204.27,219.21,204.74,220.07Z"/><path class="cls-10" d="M207.38,225.64l49.55-73.84c-.79-.4-1.57-.82-2.35-1.26l-48.46,72.23C206.56,223.72,207,224.67,207.38,225.64Z"/><path class="cls-10" d="M209,230.21l1.16.77,51.65-77c-.84-.34-1.66-.69-2.48-1.06l-50.82,75.73C208.7,229.19,208.86,229.7,209,230.21Z"/><path class="cls-10" d="M264.38,155l-52,77.49,2.21,1.48L267,155.8C266.13,155.55,265.25,155.27,264.38,155Z"/><path class="cls-10" d="M269.48,156.88l-52.69,78.54,2.2,1.47,52.71-78.55C271,157.87,270.21,157.39,269.48,156.88Z"/><path class="cls-10" d="M274,159.72l-52.78,78.65,2.2,1.48L276.3,161C275.52,160.59,274.74,160.16,274,159.72Z"/><path class="cls-10" d="M278.7,162.17l-53.11,79.16,2.21,1.47,53.37-79.55C280.34,162.91,279.52,162.55,278.7,162.17Z"/><path class="cls-10" d="M283.72,164.22,230,244.28l2.2,1.48,54.13-80.68C285.45,164.82,284.58,164.53,283.72,164.22Z"/><path class="cls-10" d="M207.61,226.18c.54,1.38,1,2.77,1.46,4.18l23,15.42,1.47-2.2Z"/><path class="cls-10" d="M202.54,216.4a51.16,51.16,0,0,1,3,5.23L235,241.38l1.48-2.2Z"/><path class="cls-10" d="M193.84,204.17c-.26.6-.53,1.19-.8,1.78.82.68,1.62,1.39,2.42,2.11.43.4.84.83,1.26,1.24L238,237l1.47-2.2Z"/><path class="cls-10" d="M195.73,199.06c-.27.87-.57,1.73-.89,2.59l46.08,30.93,1.48-2.21Z"/><path class="cls-10" d="M197.17,193.64c-.2.92-.41,1.83-.66,2.75l47.37,31.78,1.47-2.2Z"/><path class="cls-10" d="M198,187.83c-.08,1-.19,2-.34,3l49.15,33,1.48-2.2Z"/><path class="cls-10" d="M201.58,183.83c-1.13.34-2.26.63-3.41.9l51.61,34.64,1.48-2.21Z"/><path class="cls-10" d="M207.77,181.6c-1,.42-2,.81-3,1.18l48,32.18,1.48-2.2Z"/><path class="cls-10" d="M213.29,178.92c-.88.48-1.77,1-2.68,1.39l45.08,30.25,1.48-2.2Z"/><path class="cls-10" d="M218.26,175.86c-.79.55-1.6,1.07-2.42,1.57l42.81,28.73,1.48-2.2Z"/><path class="cls-10" d="M222.71,172.47q-1.05.89-2.16,1.74l41.05,27.54,1.48-2.2Z"/><path class="cls-10" d="M226.68,168.74c-.26.27-.52.56-.78.82s-.76.72-1.14,1.08l39.8,26.71,1.47-2.2Z"/><path class="cls-10" d="M230.16,164.69c-.55.71-1.11,1.4-1.69,2.06l39,26.2,1.48-2.2Z"/><path class="cls-10" d="M233.23,160.36c-.48.75-1,1.48-1.49,2.2l38.73,26,1.47-2.2Z"/><path class="cls-10" d="M235.91,155.78c-.41.79-.85,1.56-1.29,2.32l38.8,26,1.48-2.2Z"/><path class="cls-10" d="M238.23,151c-.36.82-.73,1.64-1.11,2.44l39.26,26.35,1.47-2.2Z"/><path class="cls-10" d="M240.13,145.84c-.28.87-.58,1.73-.9,2.59l40.1,26.9,1.48-2.2Z"/><path class="cls-10" d="M247.8,146.12q-1.35,0-2.67-.12l37.15,24.93,1.48-2.2L261.85,154A62.24,62.24,0,0,1,247.8,146.12Z"/><path class="cls-10" d="M278.85,162.24l6.39,4.29,1-1.48A56.62,56.62,0,0,1,278.85,162.24Z"/></g><polygon class="cls-4" points="175.49 217.51 186.49 212.5 190 220.01 187.99 243.53 182.49 250.03 175.49 217.51"/><polygon class="cls-4" points="197.5 208 186.49 212.5 190 220.01 203.51 226.01 211.01 224.01 197.5 208"/><polygon class="cls-11" points="182.49 250.03 186.49 212.5 211.01 224.01 214.01 231.02 211.01 244.03 204.51 248.53 182.49 250.03"/><polygon class="cls-6" points="195 126.44 190 129.94 200 164.47 216.01 153.96 229.03 135.94 195 126.44"/><polygon class="cls-4" points="240.41 72.23 250.54 72.89 255.04 94.41 248.54 120.43 242.54 147.45 200 164.47 221.76 135.08 197.19 133.6 202.51 124.94 224.52 112.92 240.41 72.23"/><polygon class="cls-6" points="240.41 105.67 246.42 101.17 251.92 111.68 248.42 119.18 240.41 105.67"/><polygon class="cls-11" points="246.42 86.66 240.41 105.67 251.92 111.68 259.92 91.16 249.92 82.65 246.42 86.66"/><polygon class="cls-6" points="251.98 89.87 246.42 101.67 254.92 94.66 251.98 89.87"/><polygon class="cls-11" points="159.74 102.92 171.32 129.47 197.19 133.6 228.02 118.43 240.41 72.23 237.75 51.85 227.27 38.61 192.04 27.98 167.88 41.55 159.74 102.92"/><polygon class="cls-13" points="202.01 259.54 211.01 224.01 280.57 257.04 237.53 279.55 202.01 259.54"/><g class="cls-22"><path class="cls-10" d="M109.59,186l-4.13-27.16c-.64,1.39-1.32,2.77-2,4.11l2,12.84A56.92,56.92,0,0,1,109.59,186Z"/><path class="cls-10" d="M109.76,151.78c-.71.63-1.45,1.24-2.2,1.84,0,.13-.09.26-.14.4l6.93,45.59a53.17,53.17,0,0,1,3.83,7.52Z"/><path class="cls-10" d="M112.11,149.57l11.69,76.89,2.62-.4-12-79C113.66,147.94,112.89,148.78,112.11,149.57Z"/><path class="cls-10" d="M118.88,141.21c-.71,1.06-1.45,2.08-2.21,3.08L129,225.67l2.62-.4Z"/><path class="cls-10" d="M123.11,133.77c-.65,1.34-1.35,2.64-2.08,3.92l13.25,87.18,2.62-.4Z"/><path class="cls-10" d="M126.93,123.63a55.3,55.3,0,0,1-1.84,5.54l14.43,94.9,2.62-.4Z"/><rect class="cls-10" x="136.99" y="120.46" width="2.65" height="103.2" transform="translate(-24.29 22.75) rotate(-8.65)"/><rect class="cls-10" x="142.24" y="119.67" width="2.65" height="103.2" transform="translate(-24.12 23.53) rotate(-8.65)"/><path class="cls-10" d="M122.83,226.71l29.71-4.52-.39-2.62-29.6,4.5C122.66,225,122.75,225.83,122.83,226.71Z"/><path class="cls-10" d="M122.18,221.45l29.57-4.5-.4-2.62-29.64,4.51C121.88,219.71,122,220.58,122.18,221.45Z"/><path class="cls-10" d="M121.13,216.24,151,211.71l-.4-2.62-30.09,4.57C120.7,214.52,120.93,215.38,121.13,216.24Z"/><path class="cls-10" d="M119.67,211.1l30.48-4.63-.4-2.62-31,4.71C119.08,209.4,119.38,210.25,119.67,211.1Z"/><path class="cls-10" d="M117.72,206l31.64-4.82-.4-2.62-32.42,4.93C117,204.36,117.35,205.19,117.72,206Z"/><path class="cls-10" d="M115.22,201.05,148.56,196l-.4-2.62-34.43,5.24C114.25,199.4,114.74,200.22,115.22,201.05Z"/><path class="cls-10" d="M111.84,195.92l.21.25,35.71-5.43-.4-2.62-35.91,5.46C111.59,194.36,111.73,195.14,111.84,195.92Z"/><path class="cls-10" d="M110.92,191l36-5.48-.39-2.62-36.28,5.51C110.52,189.25,110.73,190.11,110.92,191Z"/><path class="cls-10" d="M109.55,185.82l36.62-5.56-.4-2.63-37.08,5.64C109,184.12,109.28,185,109.55,185.82Z"/><path class="cls-10" d="M107.71,180.74,145.37,175l-.4-2.62-38.37,5.84C107,179.05,107.36,179.89,107.71,180.74Z"/><path class="cls-10" d="M105.35,175.74l39.22-6-.4-2.62-40.24,6.12C104.42,174.08,104.9,174.9,105.35,175.74Z"/><path class="cls-10" d="M102.9,170.75l40.88-6.22-.4-2.62-41.08,6.24C102.52,169,102.71,169.88,102.9,170.75Z"/><path class="cls-10" d="M101.89,165.53,143,159.29l-.4-2.62-39,5.92Q102.78,164.09,101.89,165.53Z"/><path class="cls-10" d="M105.06,159.69,142.18,154l-.4-2.62-35.44,5.39C105.94,157.78,105.51,158.74,105.06,159.69Z"/><path class="cls-10" d="M107.44,154l33.94-5.16-.39-2.62-30.13,4.58c-1,1-2.16,1.93-3.3,2.84Z"/><path class="cls-10" d="M114,147.61l26.64-4.05-.4-2.62-23.72,3.6C115.66,145.61,114.82,146.64,114,147.61Z"/><path class="cls-10" d="M118.65,141.53l21.14-3.21-.4-2.62-18.86,2.86C119.93,139.58,119.3,140.57,118.65,141.53Z"/><path class="cls-10" d="M122.16,135.64,139,133.08l-.4-2.63-15,2.29C123.13,133.72,122.66,134.68,122.16,135.64Z"/><path class="cls-10" d="M124.82,129.87l13.38-2-.4-2.62L125.87,127C125.55,128,125.19,128.93,124.82,129.87Z"/><path class="cls-10" d="M126.76,124.21l10.64-1.62L137,120l-9.51,1.45C127.27,122.35,127,123.28,126.76,124.21Z"/></g><g class="cls-23"><path class="cls-10" d="M173.63,142.43,138.14,207.6l2.32,1.26,35.78-65.67C175.36,143,174.49,142.71,173.63,142.43Z"/><path class="cls-10" d="M178.91,143.82l-36.12,66.31,2.33,1.27,36.54-67.07C180.73,144.18,179.82,144,178.91,143.82Z"/><path class="cls-10" d="M184.48,144.7l-37,68,2.33,1.27,37.59-69C186.4,144.87,185.43,144.8,184.48,144.7Z"/><path class="cls-10" d="M190.35,145,152.1,215.21l2.33,1.26,39-71.58C192.4,145,191.38,145,190.35,145Z"/><path class="cls-10" d="M196.61,144.59l-39.85,73.15,2.33,1.27,40.82-74.93C198.81,144.28,197.71,144.46,196.61,144.59Z"/><path class="cls-10" d="M191.86,164.39l-30.44,55.89,2.33,1.27,26.7-49A47.6,47.6,0,0,1,191.86,164.39Z"/><path class="cls-10" d="M190.37,178.22l-24.3,44.59,2.33,1.27,22.31-41C190.54,181.49,190.43,179.86,190.37,178.22Z"/><path class="cls-10" d="M191.3,187.59l-20.57,37.76,2.33,1.27,5-9.24a62,62,0,0,1,11.43-21l2.59-4.77Q191.65,189.63,191.3,187.59Z"/><path class="cls-10" d="M176.29,225.47,139.44,205.4l-1.26,2.33L176,228.33C176.06,227.39,176.16,226.43,176.29,225.47Z"/><path class="cls-10" d="M177.35,220,142,200.75l-1.27,2.33,36,19.63C176.92,221.81,177.12,220.91,177.35,220Z"/><path class="cls-10" d="M178.94,214.84l-34.42-18.75-1.27,2.33,34.84,19C178.35,216.54,178.63,215.69,178.94,214.84Z"/><path class="cls-10" d="M181,209.91l-33.93-18.47-1.26,2.32,34.11,18.59C180.24,211.53,180.6,210.72,181,209.91Z"/><path class="cls-10" d="M183.42,205.21l-33.83-18.43-1.27,2.33,33.83,18.42C182.56,206.75,183,206,183.42,205.21Z"/><path class="cls-10" d="M186.25,200.71l-34.12-18.59-1.27,2.33,33.93,18.48C185.26,202.18,185.75,201.44,186.25,200.71Z"/><path class="cls-10" d="M189.49,196.44l-34.83-19-1.26,2.32,34.42,18.76C188.36,197.82,188.92,197.12,189.49,196.44Z"/><path class="cls-10" d="M192.16,191.85l-35-19-1.27,2.33,35.35,19.25c.39-.42.8-.82,1.2-1.23C192.37,192.72,192.26,192.29,192.16,191.85Z"/><path class="cls-10" d="M191,185.15l-31.21-17-1.27,2.33,33,18Q191.16,186.82,191,185.15Z"/><path class="cls-10" d="M190.38,178.81,162.27,163.5,161,165.83l29.58,16.11C190.5,180.9,190.43,179.85,190.38,178.81Z"/><path class="cls-10" d="M190.43,172.8l-25.62-14-1.27,2.33,26.77,14.58C190.31,174.77,190.36,173.79,190.43,172.8Z"/><path class="cls-10" d="M191.21,167.18l-23.86-13-1.27,2.33,24.66,13.43C190.87,169,191,168.11,191.21,167.18Z"/><path class="cls-10" d="M192.58,161.89l-22.7-12.36-1.26,2.33,23.21,12.64Q192.18,163.2,192.58,161.89Z"/><path class="cls-10" d="M194.42,156.85l-22-12-1.27,2.33,22.29,12.14C193.75,158.51,194.07,157.68,194.42,156.85Z"/><path class="cls-10" d="M173.73,142.47l0,.07,21.8,11.88c.38-.8.78-1.59,1.19-2.37l-13.84-7.54A55,55,0,0,1,173.73,142.47Z"/><path class="cls-10" d="M189.25,145l8.71,4.74c.44-.76.9-1.52,1.37-2.26l-4.86-2.66A50.78,50.78,0,0,1,189.25,145Z"/></g><polygon class="cls-4" points="194.47 94.08 212.01 78.39 225.25 71.78 195.5 70.39 193.2 85.71 194.47 94.08"/><g class="cls-24"><path class="cls-10" d="M189.79,254.23l18.9-39c-.69-.62-1.36-1.26-2-1.92l-19.28,39.79C188.2,253.48,189,253.85,189.79,254.23Z"/><path class="cls-10" d="M193.75,256.32l.71.43,18.43-38c-.72-.55-1.43-1.11-2.13-1.69l-18.61,38.4Z"/><path class="cls-10" d="M199,259.65l18.36-37.89c-.76-.47-1.5-1-2.23-1.46l-18.35,37.85C197.48,258.64,198.22,259.13,199,259.65Z"/><path class="cls-10" d="M203.26,262.92l18.67-38.53c-.79-.41-1.57-.83-2.33-1.26l-18.47,38.11Q202.21,262.07,203.26,262.92Z"/><path class="cls-10" d="M207.42,266.49l19.32-39.86q-1.23-.52-2.43-1.08l-18.95,39.12C206.06,265.27,206.74,265.87,207.42,266.49Z"/><path class="cls-10" d="M211.46,270.31l20.26-41.8c-.85-.29-1.69-.59-2.51-.9l-19.75,40.76C210.14,269,210.81,269.66,211.46,270.31Z"/><path class="cls-10" d="M214.87,273.73l.64.38,21.16-43.66-2.45-1-20.77,42.87Z"/><path class="cls-10" d="M217.85,275.57c.71.48,1.41,1,2.12,1.5l21.61-44.59-2.46-1-21.34,44Z"/><path class="cls-10" d="M224.31,280.27l22.3-46-2.49-.95-22,45.32C222.89,279.17,223.6,279.72,224.31,280.27Z"/><path class="cls-10" d="M228.59,283.61l23-47.47-2.49-.94-22.64,46.72Z"/><path class="cls-10" d="M232.82,287l23.75-49-2.49-.94-23.37,48.23Z"/><path class="cls-10" d="M240.18,284l21.29-43.93-2.41-1.1-22.67,46.76C237.64,285.1,238.91,284.53,240.18,284Z"/><path class="cls-10" d="M244.14,282.61l3.59-2,18.56-38.3-2.41-1.1-20.14,41.56Z"/><path class="cls-10" d="M255.6,276.51l15.51-32-2.41-1.11-17,35.1Z"/><path class="cls-10" d="M263.54,272.28l12.4-25.58-2.41-1.11-14,28.87Q261.55,273.4,263.54,272.28Z"/><path class="cls-10" d="M271.76,267.47l9-18.58-2.42-1.1L267.62,270C269,269.13,270.38,268.31,271.76,267.47Z"/><path class="cls-10" d="M280.22,262.18l5.39-11.12L283.19,250,276,264.88Q278.11,263.55,280.22,262.18Z"/><path class="cls-10" d="M229.3,284.18l5.24,2.54c1-.54,2-1.05,2.94-1.52l-19.11-9.26C222.14,278.52,225.74,281.32,229.3,284.18Z"/><path class="cls-10" d="M210.13,269l30.56,14.81c1.14-.45,2.29-.86,3.45-1.2l.07,0-41.59-20.16C205.23,264.49,207.75,266.71,210.13,269Z"/><path class="cls-10" d="M249.89,279.43,189,249.94l-1.16,2.39L247,281C248,280.45,248.93,279.94,249.89,279.43Z"/><path class="cls-10" d="M255.8,276.4l-64.45-31.23-1.15,2.38,62.63,30.36Z"/><path class="cls-10" d="M261.63,273.33l-68-32.93-1.15,2.38,66.23,32.1C259.71,274.37,260.67,273.85,261.63,273.33Z"/><path class="cls-10" d="M266.24,270.76l1-.6L196,235.62,194.82,238l69.65,33.75Z"/><path class="cls-10" d="M272.69,266.91l-74.4-36.06-1.16,2.39L270,268.55Z"/><path class="cls-10" d="M278,263.59,200.6,226.08l-1.16,2.39,75.92,36.79Z"/><path class="cls-10" d="M281.42,261.41c.34-.52.67-1.05,1-1.57l-79.51-38.53-1.15,2.39,78.87,38.22Z"/><path class="cls-10" d="M285.19,255.29l-80-38.75-1.16,2.38,79.76,38.65C284.29,256.82,284.74,256.05,285.19,255.29Z"/><path class="cls-10" d="M287.16,251.74c-9.44-4.18-18.78-8.53-28.19-12.8q-3.33-1.29-6.66-2.53L286.49,253C286.72,252.56,286.94,252.15,287.16,251.74Z"/></g><polygon class="cls-4" points="179.1 90.87 189.98 70.39 167.26 64.8 177.41 74.39 179.1 90.87"/><polygon class="cls-25" points="189.98 70.39 182 85.41 179.1 90.87 194.47 94.08 193.2 85.71 195.5 70.39 189.98 70.39"/><polygon class="cls-26" points="195.5 70.39 205.92 62.6 225.25 71.78 195.5 70.39"/><polygon class="cls-26" points="189.98 70.39 183.49 59.22 167.26 64.8 189.98 70.39"/><circle class="cls-27" cx="209.74" cy="79.23" r="4"/><circle class="cls-27" cx="176.26" cy="74.39" r="4"/><polygon class="cls-6" points="173.25 103.67 186.95 101.53 205.26 112.18 200 112.18 173.25 106.85 173.25 103.67"/><polygon class="cls-4" points="173.25 106.85 180.1 114.92 189.29 114.92 200 112.18 173.25 106.85"/><polygon class="cls-6" points="179.1 90.87 186.92 96.02 194.47 94.08 179.1 90.87"/><circle class="cls-17" cx="247.23" cy="106.36" r="4.69"/><polygon class="cls-28" points="167.88 41.55 165.08 19.96 170 4.04 187.29 0 231.19 3.9 190.04 29.98 167.88 41.55"/><polygon class="cls-29" points="192.04 27.98 227.27 38.61 187.29 0 192.04 27.98"/><polygon class="cls-26" points="227.27 38.61 237.75 51.85 220.25 8.52 187.29 0 227.27 38.61"/><polygon class="cls-27" points="240.41 72.23 237.75 51.85 220.25 8.52 231.19 3.9 250.54 72.89 240.41 72.23"/><polygon class="cls-26" points="231.19 3.9 250.54 72.89 253.16 85.41 259.92 91.16 251.58 14.08 231.19 3.9"/><polygon class="cls-27" points="259.92 91.16 273.85 69.78 251.58 14.08 259.92 91.16"/><polygon class="cls-26" points="273.85 69.78 282.71 29.62 251.58 14.08 273.85 69.78"/><polygon class="cls-29" points="282.71 29.62 278.85 16.33 231.19 3.9 251.58 14.08 282.71 29.62"/><polygon class="cls-28" points="278.85 16.33 256.9 2.52 231.19 3.9 278.85 16.33"/><polygon class="cls-29" points="192.04 27.98 165.08 19.96 170 4.04 187.29 0 192.04 27.98"/><polygon class="cls-4" points="201.08 95.06 206.41 106.85 203.74 96.77 201.08 95.06"/><polygon class="cls-4" points="176.26 92.16 169.84 101.53 173.25 92.16 176.26 92.16"/></svg>