<svg id="Layer_1" data-name="Layer 1" xmlns="http://www.w3.org/2000/svg" viewBox="0 0 400 400"><defs><style>.cls-1{fill:#8f8f8f;}.cls-1,.cls-10,.cls-11,.cls-12,.cls-13,.cls-14,.cls-15,.cls-16,.cls-17,.cls-18,.cls-19,.cls-2,.cls-20,.cls-21,.cls-22,.cls-23,.cls-24,.cls-25,.cls-26,.cls-27,.cls-28,.cls-3,.cls-4,.cls-5,.cls-6,.cls-7,.cls-8,.cls-9{fill-rule:evenodd;}.cls-2,.cls-9{fill:#2b2b2b;}.cls-2{opacity:0.15;}.cls-3{fill:#738d57;}.cls-4{fill:#4f5253;}.cls-5{fill:#737373;}.cls-6{fill:#5a753d;}.cls-7{fill:#c4c4c4;}.cls-8{fill:#cececd;}.cls-10{fill:#446125;}.cls-11{fill:#709d53;}.cls-12{fill:#99c26d;}.cls-13{fill:#ececeb;}.cls-14{fill:#835940;}.cls-15{fill:#a77e62;}.cls-16{fill:#c09c84;}.cls-17{fill:#9da1a2;}.cls-18{fill:#6f7173;}.cls-19{fill:#858686;}.cls-20{fill:#72c9a6;}.cls-21{fill:#3f8f6f;}.cls-22{fill:#dddddc;}.cls-23{fill:#474747;}.cls-24{fill:#54b08b;}.cls-25{fill:#35785d;}.cls-26{fill:#8ce0dc;}.cls-27{fill:#c9ad9b;}.cls-28{fill:#fff;}</style></defs><title>diplomats_ENFJ_famous_real_barack_obama</title><polygon class="cls-1" points="231.03 332.46 234 273.9 223.55 258.97 203.2 274.15 207.24 332.35 213.15 347.76 231.03 332.46"/><polygon class="cls-2" points="99.61 387.3 179.88 374.05 221.01 384.09 270.92 392.74 201.99 400.38 130.16 398.13 99.61 387.3"/><polygon class="cls-3" points="230.82 213.53 250.78 238.71 261.79 215.19 256.75 187.05 234.31 158.65 217.4 184.79 230.82 213.53"/><polygon class="cls-4" points="229.17 368.08 237.63 387.6 234.63 389.18 204.08 389.44 201.5 388.08 207.55 368.73 224.39 352.71 229.17 368.08"/><polygon class="cls-5" points="231.03 332.46 229.17 368.08 218.31 368.41 207.55 368.74 207.24 332.35 231.03 332.46"/><polygon class="cls-4" points="199.19 395.14 237.93 395.43 237.63 387.6 198.9 387.31 199.19 395.14"/><polygon class="cls-6" points="154.09 197.79 149.17 160.36 105.87 215.69 139.02 240.73 154.09 197.79"/><path class="cls-7" d="M195.05,174.54s0,.06-.05.09,0-.13.05-.09h0M158,244.46l8.53,9.61L202.78,249s-3.56-32.34-5.86-54.4v-.1l0-.44-.05-.54-.06-.53v0l-.05-.49c-1.09-10.49-1.83-18.15-1.65-17.92-.2-.25-4.88-6.41-11.87-5.24-3.9.66-9.38,9-13.3,9.87l1.7,1.47c-7.55,1.74-14,3.16-14,3.16l.31,47.44-.13,1.13.14.21Z"/><path class="cls-8" d="M141.22,242.36l8.73,8.81,2.48.09,2,1.77-.1-1.7,11,.39-.1-8.36,2-62.13h0v-.52h0l0,0h0l0,0h0l-.07,0h0l-.08,0h0l-.1-.05h0l-.11-.06h0l-.13-.06h0l-.14-.08h0l-.16-.09h0l-.17-.09h0l-.19-.1h0l-.2-.1h0l-.21-.12h0l-.23-.11h0l-.23-.12h0l-.25-.13h0l-.26-.13h0l-.26-.14h0l-.28-.15h0l-.28-.14h0l-.29-.15h0l-.3-.16h0l-.3-.16h0l-.31-.16h0l-.32-.16h0L162,178h0l-.32-.16h0l-.33-.17h0l-.33-.17h0l-.34-.17h0l-.33-.17h0l-.34-.17h0l-.34-.17h0l-.33-.17h0l-.34-.16h0l-.34-.17h0l-.33-.17h0l-.33-.17h0l-.32-.16h0l-.32-.16h0l-.33-.16h0l-.32-.16h0l-.31-.15h0l-.31-.15h0l-.3-.14h0l-.29-.14h0l-.28-.14h0l-.28-.13h0l-.27-.12h0l-.26-.12h0l-.25-.12h0l-.24-.11h0l-.24-.1h0l-.22-.09h0l-.21-.09h0l-.2-.08h0l-.18-.07h0l-.17-.06h0l-.16-.06h0l-.14-.05h0l-.12,0h0l-.12,0h0l-.09,0h0a.14.14,0,0,0-.09,0l-.1,0h0l-.1,0h0l-.12.07c-.07.07-.16.14-.24.23h0l-.14.15h0l-.13.17h0l-.15.19h0c-.2.27-.41.59-.63,1l-.34.58h0l-.36.63h0l-.18.33-.19.35h0l-.38.74h0l-.38.77-.2.4h0l-.39.81h0l-.4.84h0l-.19.43h0l-.59,1.29h0c-.33.72-.65,1.44-.95,2.14h0l-.19.42h0l-.18.41h0l-.17.41h0l-.33.79h0l-.78,1.83h0c-.8,1.91-1.32,3.22-1.32,3.22Z"/><polygon class="cls-9" points="143.31 246.72 148.26 248 187.71 248.18 190.09 252.17 187.61 256.8 147.96 255.72 143.31 246.72"/><polygon class="cls-10" points="194.55 220.12 187.71 248.18 187.61 256.8 212.47 273.33 234 273.9 234.3 158.65 194.55 220.12"/><polygon class="cls-10" points="149.17 160.36 126.92 203.74 134.28 248.81 147.96 255.72 148.26 248 149.17 160.36"/><polygon class="cls-6" points="166.7 177.53 162.93 183.53 154.5 232.38 165.31 243.37 179.78 231.83 171.95 183.62 166.7 177.53"/><polygon class="cls-11" points="150.86 184.76 153.93 188.4 154.82 248.14 137.29 197.84 150.86 184.76"/><polygon class="cls-12" points="157.8 167.51 155.54 157.3 149.17 160.36 137.29 197.84 153.93 188.4 157.8 167.51"/><polygon class="cls-12" points="188.5 179.35 188.36 191.88 196.64 205.69 213.49 203.5 234.31 158.65 229.99 156.29 188.5 179.35"/><polygon class="cls-3" points="154.51 173.09 162.93 183.53 171.95 183.62 187.52 171.91 163.13 161.83 154.51 173.09"/><polygon class="cls-13" points="171.5 166.48 167.62 168.17 153.93 188.4 155.54 157.3 163.94 153.25 171.5 166.48"/><polygon class="cls-14" points="155.48 135.85 167.62 168.17 178.45 168.41 182.01 169.22 202.57 157.24 211.51 128.44 155.48 135.85"/><polygon class="cls-15" points="182.27 144.9 197.25 144.91 187.74 171.38 217.11 148.02 223.17 109.45 216.56 29.22 188.53 38.56 182.27 144.9"/><polygon class="cls-14" points="217.25 90.75 206.88 94.26 223.17 109.45 225.21 96.52 217.25 90.75"/><polygon class="cls-16" points="219.86 57.26 229.89 66.81 225.21 96.52 206.88 94.26 209.59 64.73 219.86 57.26"/><polygon class="cls-4" points="207.17 23.6 228.2 27.43 229.89 66.81 209.59 64.73 217.19 55.37 205.25 55.82 202.32 46.42 207.17 23.6"/><polygon class="cls-17" points="229 46 229.48 57.32 209.59 64.73 205.25 55.82 229 46"/><polygon class="cls-18" points="208.23 6.65 228.2 27.43 202.32 46.42 184.6 50.51 173.58 39.77 167.29 20.96 181.54 11.71 208.23 6.65"/><polygon class="cls-19" points="123.5 28 125.34 20.69 143.9 6.03 187.99 1.38 190.3 10.26 177.25 20.13 123.5 28"/><path class="cls-18" d="M124,23.48,121.87,20l22-14L126.81,24.35,124,23.48"/><polygon class="cls-19" points="187.99 1.38 208.23 6.65 177.25 20.13 187.99 1.38"/><polygon class="cls-16" points="115.81 52.93 117.15 106.08 144.81 146.08 182.27 144.9 200.55 102.29 202.32 46.42 184.6 44.61 177.25 20.13 126.81 24.35 115.81 52.93"/><polygon class="cls-19" points="115.81 52.93 126.81 24.35 121.87 20 115.81 52.93"/><polygon class="cls-14" points="213.98 70.31 224.28 71.61 212.74 84.88 213.98 70.31"/><polygon class="cls-13" points="217.1 148.02 178.45 168.41 188.36 191.88 229.99 156.29 217.1 148.02"/><polygon class="cls-11" points="188.36 191.88 187.71 248.18 213.49 203.5 188.36 191.88"/><polygon class="cls-20" points="203.73 182.16 217.58 187.84 213.48 196.22 199.63 190.54 203.73 182.16"/><polygon class="cls-21" points="210.89 185.09 203.73 182.16 201.39 186.95 208.55 189.88 210.89 185.09"/><polygon class="cls-13" points="210.89 185.09 217.58 187.84 216.99 189.03 210.3 186.29 210.89 185.09"/><polygon class="cls-13" points="209.13 188.69 215.82 191.43 216.41 190.23 209.72 187.49 209.13 188.69"/><polygon class="cls-13" points="200.81 188.15 214.65 193.82 215.24 192.63 201.39 186.95 200.81 188.15"/><polygon class="cls-13" points="199.63 190.54 213.48 196.22 214.07 195.02 200.22 189.34 199.63 190.54"/><polygon class="cls-3" points="126.92 203.74 105.87 215.69 122.03 248.41 143.18 214.9 126.92 203.74"/><polygon class="cls-10" points="283.79 221.91 250.78 238.71 256.75 187.05 266.37 183.27 275.54 185.37 283.79 221.91"/><polygon class="cls-22" points="257.66 177.18 256.75 187.05 275.54 185.37 273.7 177.18 265 174.67 257.66 177.18"/><polygon class="cls-16" points="256.29 147.58 257.66 177.18 266.6 171.73 268.15 160.83 261.79 147.16 256.29 147.58"/><polygon class="cls-15" points="283.33 163.54 273.7 177.18 257.66 177.18 268.15 160.83 284.48 157.45 283.33 163.54"/><polygon class="cls-16" points="299.15 147.79 284.48 157.45 273.7 177.18 294.57 165.01 299.15 147.79"/><polygon class="cls-23" points="193.06 286.16 148.26 369.73 151.54 333.7 167.38 278.15 175.25 269.68 193.06 286.16"/><polygon class="cls-21" points="215.79 263.19 209.16 395.22 201.99 400.38 198.36 381.24 203.63 264.7 207.8 259.16 212.56 259.13 215.79 263.19"/><polygon class="cls-24" points="195.77 255.78 205.59 308.42 201.99 400.38 130.16 398.13 110.34 307.35 121.51 304.92 195.77 255.78"/><polygon class="cls-25" points="212.99 314.67 223.47 308.9 211.63 297.13 104.37 296.39 98.91 299.95 110.34 307.35 205.59 308.42 212.99 314.67"/><polygon class="cls-21" points="223.57 244.3 205.93 226.88 201.28 238.23 211.44 301.39 223.47 308.9 223.57 244.3"/><polygon class="cls-20" points="114.82 224.49 98.91 299.95 211.44 301.39 205.93 226.88 114.82 224.49"/><polygon class="cls-16" points="127.37 224.82 134.31 233.95 151.03 235.77 155.74 225.24 142.43 220.48 127.37 224.82"/><polygon class="cls-15" points="129.68 214.59 152.22 215.11 155.74 225.24 127.37 224.82 129.68 214.59"/><polygon class="cls-24" points="146.38 276.82 141.84 277.68 138.86 281.76 141.21 281.44 142.27 279.63 146.98 278.64 146.38 276.82"/><path class="cls-24" d="M150.86,272.65c-.33,0-1.33,1.58-1.33,1.58l-4.61,2.58.87,2.73s8.61-2,9.08-2-4-4.94-4-4.94"/><polygon class="cls-24" points="153.03 279.64 152.31 280.02 148.43 285.29 155.88 290.66 163.41 284.88 159.38 279.93 153.03 279.64"/><path class="cls-24" d="M152,277.58l.32,2.44,3.42,2.21,3.65-2.3.82-2.78s-8.15-.16-8-.29-.19.72-.19.72"/><polygon class="cls-24" points="165.7 277.27 170.15 278.46 172.78 282.74 170.45 282.25 169.55 280.37 164.94 279.05 165.7 277.27"/><path class="cls-24" d="M161.58,272.79c.33,0,1.2,1.67,1.2,1.67l4.37,2.91-1.1,2.67s-8.42-2.58-8.88-2.6,4.41-4.65,4.41-4.65"/><polygon class="cls-24" points="163.43 265.18 165.89 265.22 167.98 261.61 166.14 258.71 171.84 252.54 180.68 248.48 175.57 258.3 174.22 265.84 162.78 274.46 162.41 270.48 163.43 265.18"/><polygon class="cls-24" points="149.61 264.68 147.16 264.55 145.37 260.8 147.46 258.04 142.31 251.48 133.84 246.8 138.09 256.95 138.8 264.57 149.53 274.23 150.18 270.05 149.61 264.68"/><polygon class="cls-24" points="154.24 260.47 152.32 261.48 150.38 264.11 161.46 265.3 162.49 263.44 161.31 261.73 159.07 259.72 154.24 260.47"/><polygon class="cls-24" points="154.27 255.43 154.07 254.52 156.31 253.62 160.97 255.91 160.45 256.58 161.31 261.73 158.84 260.85 156.98 261.47 155.47 260.86 152.32 261.48 155.48 258.22 154.25 256.29 154.27 255.43"/><polygon class="cls-24" points="149.77 266.21 148.56 267.71 149.53 274.23 155.93 280.01 162.78 274.46 164.35 268.25 161.76 266.15 149.77 266.21"/><path class="cls-20" d="M159.14,277.42l1.88-1.53.36-8.45-1.81-.06ZM155,279.16l.94.85.87-.7.51-12-1.81-.07Zm-3.91-3.54,1.74,1.58.43-10.05-1.81-.06Z"/><polygon class="cls-24" points="149.54 262.97 148.56 267.71 164.35 268.28 164.35 268.25 163.52 263.21 159.68 264.08 156.65 262.34 152.92 263.92 149.54 262.97"/><polygon class="cls-26" points="154.07 254.52 152.41 254.98 152.38 256.8 155.68 256.41 154.07 254.52"/><path class="cls-24" d="M150.41,241.51a2.09,2.09,0,0,1,2.11,2.1,2.13,2.13,0,0,1-2.28,1.93,2.11,2.11,0,0,1-2.12-2.09,2.14,2.14,0,0,1,2.29-1.94m14.09.51a2.11,2.11,0,0,0-2.28,1.93,2.09,2.09,0,0,0,2.11,2.09,2.12,2.12,0,0,0,2.28-1.93A2.09,2.09,0,0,0,164.5,242Zm5.17,3.17a1.75,1.75,0,0,0-1.87,1.59,1.7,1.7,0,0,0,1.73,1.7,1.73,1.73,0,0,0,1.86-1.58A1.71,1.71,0,0,0,169.67,245.19ZM145,244.31a1.71,1.71,0,0,1,1.72,1.71,1.8,1.8,0,1,1-1.72-1.71Zm12.57-4.93a2.47,2.47,0,0,1,2.49,2.47,2.51,2.51,0,0,1-2.7,2.29,2.48,2.48,0,0,1-2.49-2.48A2.51,2.51,0,0,1,157.56,239.38Z"/><polygon class="cls-24" points="134.48 271.01 135.18 277.21 140.37 278.86 138.92 274.23 134.48 271.01"/><polygon class="cls-24" points="177.36 271.01 176.65 277.21 171.47 278.86 172.92 274.23 177.36 271.01"/><polygon class="cls-15" points="128.08 61.48 121.21 67.54 135.31 75.67 142.59 93.52 149.43 85.69 158.89 91.96 171.68 72.43 186.45 62.1 175.46 57.63 159.69 63.07 153.29 67.45 150.85 71.23 146.73 67.62 142.62 63.84 128.08 61.48"/><polygon class="cls-14" points="146.04 89.46 142.59 93.52 151.58 99.09 158.89 91.96 146.04 89.46"/><polygon class="cls-14" points="132.6 107.17 144.69 121.91 163.42 120.71 179.25 101.96 132.6 107.17"/><polygon class="cls-9" points="158.73 58.15 159.69 63.07 176.95 59.91 186.45 62.1 186.45 60.3 176.29 55.38 158.73 58.15"/><polygon class="cls-9" points="142.87 59.13 126.93 59.37 120.6 66.36 121.21 67.54 128.05 64.3 142.61 64.13 142.87 59.13"/><polygon class="cls-27" points="146.73 67.62 146.47 79.84 142.59 93.52 158.89 91.96 154.52 80.13 153.29 67.45 146.73 67.62"/><polygon class="cls-28" points="138.15 109.16 172.44 105.02 162.84 116.71 145.32 117.76 138.15 109.16"/><polygon class="cls-15" points="169.54 88.57 182.5 96.84 181 116.87 186.46 94.75 169.54 88.57"/><polygon class="cls-15" points="137.73 91.15 129.1 102.81 132.24 120.52 125.28 101.44 137.73 91.15"/><path class="cls-14" d="M163.8,86.25a1.61,1.61,0,0,1,0,3.21,1.61,1.61,0,0,1,0-3.21"/><path class="cls-9" d="M134.09,68.16A4.08,4.08,0,1,1,130,72.23a4.07,4.07,0,0,1,4.07-4.07"/><path class="cls-9" d="M171.83,65.53a4.08,4.08,0,1,1-4.07,4.07,4.08,4.08,0,0,1,4.07-4.07"/><polygon class="cls-15" points="181.74 68 193.53 67.65 192.49 71.64 181.74 68"/><polygon class="cls-15" points="128.1 74.48 118.61 74.2 119.45 77.41 128.1 74.48"/></svg>