<svg id="Layer_1" data-name="Layer 1" xmlns="http://www.w3.org/2000/svg" viewBox="0 0 400 400"><defs><style>.cls-1,.cls-17{fill:#2b2b2b;}.cls-1{opacity:0.1;}.cls-2{fill:#3aa0ba;}.cls-3{fill:#5e5045;}.cls-4{fill:#524439;}.cls-5{fill:#74665a;}.cls-6{fill:#318fa6;}.cls-7{fill:#b48c71;}.cls-8{fill:#d0ab92;}.cls-9{fill:#27788c;}.cls-10{fill:#72cbcc;}.cls-11{fill:#369496;}.cls-12{fill:#1c7678;}.cls-13{fill:#8f7f74;}.cls-14{fill:#83624d;}.cls-15{fill:#fff;}.cls-16{fill:#5ec0d9;}.cls-18{fill:#d8bca9;}.cls-19{fill:#165e60;}</style></defs><title>sentinels_ISFJ_famous_real_beyonce</title><polygon class="cls-1" points="292.08 387.05 181.83 400 86.27 388.86 183.5 376.68 292.08 387.05"/><polygon class="cls-2" points="299.53 167.18 313.73 160.36 305.59 142.68 289.37 143.73 287.84 159.32 299.53 167.18"/><polygon class="cls-3" points="177.38 155.14 176.68 147.97 190.4 144.49 199.16 153.47 177.38 155.14"/><polygon class="cls-4" points="188.93 177.62 182.32 170.31 182.46 160.08 177.38 155.14 194.99 150.48 204.11 170.25 188.93 177.62"/><polygon class="cls-3" points="249.21 141.85 266.61 151.73 250.18 182.29 224.71 159.94 249.21 141.85"/><polygon class="cls-5" points="259.51 113.59 266.05 124.52 266.61 151.73 235.78 157.44 222.83 160.99 240.72 118.05 259.51 113.59"/><polygon class="cls-6" points="290.27 181.17 302.04 178.11 313.73 160.36 287.84 159.32 285.19 172.89 290.27 181.17"/><polygon class="cls-7" points="227.98 177.21 248.72 163.29 283.04 206.44 263.62 218.9 220.25 200.03 227.98 177.21"/><polygon class="cls-8" points="285.19 172.89 263.62 218.9 292.22 228.5 296.19 205.19 288.53 183.33 285.19 172.89"/><polygon class="cls-9" points="274.4 195.86 296.19 205.19 302.04 178.11 285.19 172.89 274.4 195.86"/><polygon class="cls-9" points="148.01 367.77 157.61 369.51 155.66 385.04 152.04 385.04 148.01 367.77"/><polygon class="cls-9" points="129.56 372.58 115.36 383.44 115.36 387.75 147.17 387.75 157.61 369.51 155.8 359.91 129.56 372.58"/><polygon class="cls-6" points="149.89 350.37 136.66 357.89 115.36 383.44 145.85 383.16 155.8 359.91 149.89 350.37"/><polygon class="cls-9" points="247.4 374.67 255.4 382.53 255.4 387.75 222.76 387.75 222.9 382.53 247.4 374.67"/><polygon class="cls-6" points="241.9 349.19 246.28 360.75 255.4 382.53 222.9 382.53 228.26 360.75 241.9 349.19"/><polygon class="cls-7" points="205.43 180.41 182.46 160.08 139.1 207.9 162.14 215.63 168.12 208.46 189.21 196.63 205.43 180.41"/><polygon class="cls-8" points="217.61 283.35 184.48 323.23 152.32 336.18 158.24 311.81 178.07 267.27 206.68 262.68 217.61 283.35"/><polygon class="cls-7" points="184.48 323.23 155.8 359.91 136.66 357.89 158.24 311.81 184.48 323.23"/><polygon class="cls-8" points="261.94 266.92 251.37 317.04 236.4 338.13 222.83 320.17 217.61 283.35 228.47 260.52 261.94 266.92"/><polygon class="cls-7" points="251.37 317.04 246.28 360.75 228.26 360.75 222.83 320.17 251.37 317.04"/><polygon class="cls-10" points="232.02 155.77 248.72 163.29 246.56 211.45 213.43 218.62 177.66 201.63 182.46 160.08 192.06 157.86 232.02 155.77"/><path class="cls-11" d="M246.56,211.45,245,227.32l-55,29.16-6.34-1-6-53.88ZM212,259.68l-.21.14-1-.21Z"/><polygon class="cls-12" points="244.96 227.32 243.78 239.43 211.97 259.68 210.79 259.61 189.98 256.48 181.07 232.75 180.51 227.39 244.96 227.32"/><polygon class="cls-3" points="155.53 59.37 146.96 66.19 158.59 96.75 162.83 63.83 155.53 59.37"/><polygon class="cls-13" points="167.15 35.22 146.96 66.19 157.13 68.56 161.86 66.12 171.39 43.99 167.15 35.22"/><polygon class="cls-3" points="239.81 114.91 242.6 124.24 266.05 124.52 285.12 93.68 249.35 91.73 239.88 115.4 239.81 114.91"/><polygon class="cls-7" points="243.71 112.75 246.15 131.13 235.78 157.44 202.65 178.95 200.69 133.84 216.91 37.93 243.43 45.52 249.07 90.9 243.71 112.75"/><path class="cls-14" d="M199.86,143.59c.77.07,7,6.82,7,6.82l16,1.53-20.18,27-16.92-33.83Z"/><polygon class="cls-14" points="242.53 108.44 238.42 112.55 246.15 131.13 251.99 117.97 242.53 108.44"/><polygon class="cls-8" points="250.67 83.17 244.61 87.63 244.2 95.7 238.42 112.55 251.99 117.97 261.81 95.15 250.67 83.17"/><polygon class="cls-3" points="238.14 77.33 244.2 95.7 251.78 90.27 247.19 75.45 238.14 77.33"/><polygon class="cls-5" points="244.48 39.81 231.74 47.4 238.14 77.33 251.64 90.27 261.81 95.15 285.12 93.68 267.65 54.64 244.48 39.81"/><polygon class="cls-4" points="248.86 21.51 270.71 39.88 267.65 54.64 231.67 47.47 212.81 20.11 248.86 21.51"/><polygon class="cls-3" points="236.26 10.37 256.03 6.13 270.71 39.88 229.51 24.15 236.26 10.37"/><polygon class="cls-5" points="200.77 7.93 221.72 3.9 256.03 6.13 229.51 24.15 188.17 32.09 189 21.51 200.77 7.93"/><polygon class="cls-13" points="172.51 29.93 159.35 17.54 202.51 0 221.72 3.9 192.9 24.85 172.51 29.93"/><polygon class="cls-13" points="183.5 39.33 192.9 24.85 229.51 24.15 231.74 47.4 191.93 54.5 183.5 39.33"/><polygon class="cls-3" points="173.34 49.49 168.89 41.9 159.35 17.54 192.9 24.85 190.95 46.56 173.34 49.49"/><polygon class="cls-8" points="168.89 41.9 157.13 68.56 155.8 111.99 176.68 147.97 206.82 150.41 223.73 119.99 231.74 47.4 190.95 46.56 168.89 41.9"/><polygon class="cls-15" points="171.6 120.69 191.86 119.65 202.09 122.71 194.15 130.16 180.16 128.97 171.6 120.69"/><polygon class="cls-16" points="176.27 119.51 174.32 121.18 183.44 129.25 190.32 129.81 200.21 123.27 200.21 121.87 206.96 120.83 191.72 133.15 182.53 132.59 169.1 118.6 173.62 119.65 176.27 119.51"/><polygon class="cls-7" points="200.28 81.57 197.28 84.29 189.98 86.38 188.03 94.24 187.4 86.38 182.6 82.9 180.65 80.18 167.5 74.4 159.49 74.61 173.06 88.39 182.74 104.47 185.04 103.64 191.72 108.65 222.13 78.09 210.02 78.16 200.28 81.57"/><polygon class="cls-14" points="185.04 104.61 180.09 108.51 186.78 113.03 191.79 109.55 185.04 104.61"/><polygon class="cls-5" points="194.85 82.13 212.88 75.94 222.13 78.09 211.41 79.42 197.28 84.29 194.85 82.13"/><polygon class="cls-5" points="184.41 80.46 168.26 73.01 159.49 74.61 167.5 76.35 182.6 82.9 184.41 80.46"/><path class="cls-17" d="M175.25,83.38a4,4,0,1,1-4.76,3A4,4,0,0,1,175.25,83.38Z"/><path class="cls-17" d="M207.81,86A4,4,0,1,1,203.06,89,3.95,3.95,0,0,1,207.81,86Z"/><polygon class="cls-18" points="187.4 86.38 180.09 108.51 191.79 109.55 189.98 86.38 187.4 86.38"/><polygon class="cls-7" points="173.69 108.79 167.08 117.97 166.17 111.78 173.69 108.79"/><polygon class="cls-7" points="200.21 110.88 209.68 120.27 208.98 113.03 200.21 110.88"/><polygon class="cls-6" points="206.96 120.83 201.11 120.83 186.22 118.25 174.74 119.3 169.1 118.6 174.32 121.18 186.22 122.15 200.21 123.27 206.96 120.83"/><polygon class="cls-14" points="255.12 99.04 249.84 96.68 245.03 109.55 255.12 99.04"/><polygon class="cls-19" points="243.78 239.43 210.51 248.27 183.64 255.51 178.07 267.27 217.61 283.35 261.94 266.92 243.78 239.43"/><polygon class="cls-8" points="168.12 208.46 139.1 207.9 166.73 243.12 190.67 247.57 177.45 231.91 168.12 208.46"/><polygon class="cls-8" points="175.29 241.73 196.59 236.37 201.88 250.64 183.37 256.06 173.06 251.05 175.29 241.73"/><polygon class="cls-7" points="177.45 231.91 196.59 236.37 173.06 251.05 166.73 243.12 177.45 231.91"/><polygon class="cls-15" points="294.66 146.23 290.97 151.66 294.87 157.09 298.9 151.45 294.66 146.23"/><polygon class="cls-10" points="291.67 133.43 295.49 134.26 292.78 142.75 291.67 133.43"/><polygon class="cls-10" points="288.67 143.24 282.41 137.67 285.61 134.82 288.67 143.24"/><polygon class="cls-10" points="280.32 144.07 279.35 147.56 288.39 147.97 280.32 144.07"/></svg>