<svg id="Layer_1" data-name="Layer 1" xmlns="http://www.w3.org/2000/svg" viewBox="0 0 400 400"><defs><style>.cls-1{fill:#b2879c;}.cls-2{fill:#d0a0b7;}.cls-3{fill:#cdcccb;}.cls-4{fill:#594165;}.cls-5{fill:#95637c;}.cls-6{fill:#785d87;}.cls-7{fill:#e5e6e5;}.cls-8{fill:#f4c9b2;}.cls-21,.cls-9{fill:#000001;}.cls-9{fill-opacity:0.15;}.cls-10{fill:#5e5f5f;}.cls-11{fill:#7d7c7d;}.cls-12{fill:#393939;}.cls-13{fill:#444648;}.cls-14{fill:#8f759f;}.cls-15{fill:#c1907d;}.cls-16{fill:#fff;}.cls-17{fill:#5e5044;}.cls-18{fill:#999;}.cls-19{fill:#fce3d4;}.cls-20{fill:#74665b;}.cls-21{fill-opacity:0.25;}.cls-22{fill:#686b6d;}.cls-23{fill:#2b2b2b;}.cls-24{fill:#b4b4b4;}.cls-25{fill:#ffefe7;}.cls-26{fill:#7c7c7c;}.cls-27{fill:none;}</style></defs><title>analysts_INTP_famous_real_bill_gates</title><g id="Layer_1-2" data-name="Layer_1"><g id="_897682640" data-name=" 897682640"><polygon class="cls-1" points="107.7 88.73 121.6 127.14 116.77 130.08 65.41 135.86 44.56 159.77 24.06 108.53 22.53 96.16 107.7 88.73"/><polygon class="cls-2" points="104.87 92.39 117.48 127.49 65.41 135.86 48.68 150.82 29.01 99.45 104.87 92.39"/><polygon class="cls-3" points="384.42 85.55 379.12 84.38 364.39 95.33 363.81 98.16 366.75 98.51 384.42 85.55"/><polygon class="cls-4" points="267.8 207.6 279.81 211.37 294.3 198.88 298.43 184.27 268.98 158.47 265.2 164.95 264.73 199.35 267.8 207.6"/><polygon class="cls-5" points="156 131.73 130.56 151.17 43.5 162.95 49.39 155.41 67.77 138.21 152.23 129.02 156 131.73"/><polygon class="cls-4" points="176.85 164.95 173.08 158.94 140.69 185.1 141.86 197.7 155.88 211.72 169.55 207.83 173.67 201.47 176.85 164.95"/><polygon class="cls-6" points="125.49 220.68 155.88 211.72 130.08 166.48 119.6 163.54 111.23 168.49 125.49 220.68"/><polygon class="cls-7" points="124.9 157.06 130.08 166.48 111.23 168.49 108.41 158.47 116.3 154.94 124.9 157.06"/><polygon class="cls-8" points="117.71 142.81 124.9 157.06 98.28 159.42 81.08 150.94 117.71 142.81"/><polygon class="cls-2" points="311.85 123.49 314.44 131.73 322.34 137.39 325.75 139.15 327.17 136.44 323.05 130.44 330.47 125.02 330.11 121.6 327.52 121.13 320.1 126.08 315.51 120.54 311.85 123.49"/><polygon class="cls-8" points="326.11 148.23 322.34 137.39 311.85 123.49 308.32 126.08 316.33 156.82 326.11 148.23"/><polygon class="cls-1" points="362.74 92.98 331.29 112.65 336.36 120.19 344.13 123.84 370.75 103.93 362.74 92.98"/><polygon class="cls-2" points="360.51 90.03 331.64 112.41 331.53 116.06 334.23 114.77 362.74 92.98 360.51 90.03"/><polygon class="cls-9" points="287.82 382.42 219.5 363.57 147.28 381.94 216.43 395.14 287.82 382.42"/><path class="cls-10" d="M165.07,267.79l16.49,54.31,18.15,7.3,15.43-3.88s1.05-23.44,1.53-22.15L211.72,266l-10.13.23h0l-8.72-4.83-28,6.48Z"/><polygon class="cls-11" points="181.56 322.1 215.14 325.4 213.49 356.5 202.89 360.51 192.05 356.74 181.56 322.1"/><polygon class="cls-11" points="254.49 322.22 266.26 269.92 235.04 255.31 206.06 268.62 218.79 325.75 233.75 330.47 254.49 322.22"/><polygon class="cls-10" points="218.79 325.75 254.49 322.22 246.35 358.38 237.52 363.34 226.09 358.74 218.79 325.75"/><polygon class="cls-12" points="253.66 373 246.35 358.38 226.09 358.74 223.38 373 226.92 375.23 250 375 253.66 373"/><polygon class="cls-12" points="214.31 371.23 213.49 356.5 192.05 356.74 172.38 371.23 178.26 374.05 209.13 374.05 214.31 371.23"/><polygon class="cls-13" points="165.07 267.8 210.07 286.76 266.26 269.92 204.77 263.91 165.07 267.8"/><polygon class="cls-4" points="267.8 207.6 266.26 269.92 165.07 267.8 169.55 207.83 175.32 203.94 208.19 220.32 261.44 201 267.8 207.6"/><polygon class="cls-6" points="268.98 158.47 267.8 207.6 207.6 227.39 169.55 207.83 173.08 158.94 184.39 155.76 210.31 161.18 256.02 155.18 268.98 158.47"/><polygon class="cls-14" points="221.15 167.31 200.06 166.48 196.64 177.56 206.53 194.52 225.85 178.97 221.15 167.31"/><polygon class="cls-15" points="242.11 137.39 231.28 155.18 209.72 165.43 191.93 149.05 184.27 127.96 228.1 121.25 242.11 137.39"/><polygon class="cls-3" points="220.79 169.43 210.31 161.18 200.53 166.25 208.31 179.32 220.79 169.43"/><polygon class="cls-1" points="153.88 123.61 156 131.73 68.83 141.39 65.29 138.68 65.53 133.03 153.88 123.61"/><path class="cls-16" d="M69.53,125.25l9,.24-2.83-7.42-8.13,2.12,2.12,5.06h-.12Zm-3.18-7.65h0l8.13-2.12-2.94-7.66L63.64,111l2.71,6.6Zm16.14-14h0l3.89,9-9.31,2.36L74,107l8.48-3.29h0Zm-4.36,13.78L87.44,115l4.71,10.84-11-.23L78,117.48h0Z"/><polygon class="cls-14" points="15.46 109.11 22.53 96.16 45.15 154.59 65.53 133.03 68.83 141.39 43.5 162.95 15.46 109.11"/><polygon class="cls-8" points="258.13 116.42 247.41 146.58 225.51 159.18 231.75 136.8 214.67 136.68 227.51 26.42 244.94 33.37 259.79 77.78 258.13 116.42"/><polygon class="cls-17" points="281.81 75.54 267.91 86.5 271.21 77.31 253.54 92.03 245.06 69.77 240.23 36.31 274.04 48.68 281.81 75.54"/><polygon class="cls-18" points="253.54 92.03 241.17 89.68 240.23 36.31 260.84 75.89 253.54 92.03"/><polygon class="cls-17" points="256.37 119.01 281.81 75.54 269.21 77.54 256.84 94.86 256.37 119.01"/><polygon class="cls-15" points="245.41 101.58 252.25 100.04 261.67 104.99 256.72 119.13 245.41 101.58"/><polygon class="cls-19" points="165.43 136.44 146.81 98.39 150.23 30.3 158.59 25 227.51 26.42 239.29 31.13 231.63 102.28 214.67 136.68 165.43 136.44"/><polygon class="cls-19" points="250.71 73.89 269.21 77.54 261.67 104.99 245.41 101.58 250.71 73.89"/><polygon class="cls-15" points="263.44 81.55 256.02 80.49 253.54 92.03 263.44 81.55"/><polygon class="cls-20" points="269.21 25.47 281.81 75.54 240.23 36.31 250.71 25 269.21 25.47"/><polygon class="cls-17" points="229.98 4.86 269.21 25.47 240.23 36.31 220.08 18.52 229.98 4.86"/><polygon class="cls-20" points="174.85 10.4 229.98 4.86 240.23 36.31 184.86 40.55 171.31 32.42 176.26 27.71 173.55 26.3 174.85 10.4"/><polygon class="cls-17" points="147.52 27.48 174.85 10.4 179.91 24.3 184.86 40.55 150.94 35.49 149.28 35.6 147.52 27.48"/><polygon class="cls-7" points="247.41 146.58 256.02 155.18 225.85 178.97 210.31 161.18 247.41 146.58"/><polygon class="cls-7" points="191.81 148.58 210.31 161.18 196.64 177.56 184.15 155.76 191.81 148.58"/><polygon class="cls-1" points="322.34 114.3 328.46 109.7 337.89 129.38 337.42 134.21 322.34 114.3"/><polygon class="cls-8" points="352.5 131.03 328.46 109.7 337.42 134.21 343.31 136.92 352.5 131.03"/><polygon class="cls-19" points="333.06 162.25 352.5 131.03 322.34 137.39 316.33 156.82 325.05 162.72 333.06 162.25"/><path class="cls-7" d="M333.06,162.24l-16.73-5.42L310.91,166l6.95,6.48,11.9-.59s3.18-9.77,3.18-9.66Z"/><polygon class="cls-6" points="313.97 222.21 329.88 171.9 311.03 166.01 279.81 211.37 313.97 222.21"/><polygon class="cls-21" points="104.87 92.39 117.48 127.49 115.12 127.73 102.99 94.98 30.07 102.16 29.01 99.45 104.87 92.39"/><path class="cls-3" d="M355.91,93.56l4.6,5.89-1.77,1.42L354,95.1l1.89-1.42h0Zm-3.89,3h0l-1.88,1.41,2.83,3.42,1.77-1.41L352,96.51Zm-3.64,2.83h0l4.59,5.77-1.89,1.41-4.59-5.77,1.89-1.41Zm-3.89,2.94h0l-1.89,1.42,2.83,3.41,1.76-1.41-2.7-3.42Zm-3.89,3h0l4.59,5.77-1.77,1.41-4.59-5.77,1.89-1.41h-.12Zm-5.77,4.47h0l2.82,3.42,1.77-1.41-2.71-3.54-1.88,1.42Z"/><rect class="cls-22" x="223.38" y="373" width="30.28" height="5.77"/><rect class="cls-22" x="172.38" y="371.23" width="41.94" height="5.07"/><polygon class="cls-20" points="148.81 58.81 147.52 27.48 148.7 30.3 150.94 35.49 148.81 58.81"/><polygon class="cls-8" points="168.13 59.52 156.82 62.11 154.47 66.23 151.88 69.06 153.64 72.95 170.84 76.01 174.26 96.16 181.92 99.22 189.34 96.04 197.7 82.02 201.83 73.77 216.55 74.95 220.79 64.82 220.68 62.94 207.83 59.17 194.88 62.94 188.63 68.36 181.33 73.54 178.74 68.71 175.67 63.52 168.13 59.52"/><path class="cls-17" d="M221.26,58.81l-.58,4-8.13-1.18L195,62.82l.59-4,16.85-1.18,8.83,1.07Zm-65.5.47L161.89,58,176,59.87l-.36,3.54-14-2-4.83.59-1.06-2.82Z"/><polygon class="cls-15" points="181.21 102.4 189.34 96.04 174.26 96.16 181.21 102.4"/><polygon class="cls-15" points="202.3 106.29 193.58 109 170.02 108.76 170.02 111.23 193.81 111.82 203 108.64 202.3 106.29"/><path class="cls-23" d="M166.86,70.6A4,4,0,1,1,163,74.7,4,4,0,0,1,166.86,70.6Z"/><path class="cls-23" d="M209,70.6a4,4,0,1,1-3.86,4.1A4,4,0,0,1,209,70.6Z"/><path class="cls-24" d="M175.91,69.41,154,69.06l-.24,13.19,20-.11L176,69.3ZM179,66.59,176.14,85.2l-25.68.12.83-19.2Z"/><path class="cls-24" d="M191.46,68.94,192.05,82,216,81.78l1.18-13.66Zm-2.71-2.71,32-1.41,1.3,2L220.55,68l-1.41,16.85-29.92.35-.35-19Z"/><polygon class="cls-25" points="189.34 96.04 188.75 68.24 178.62 68.59 174.26 96.16 189.34 96.04"/><polygon class="cls-8" points="197 97.81 214.31 107.82 210.19 99.1 197 97.81"/><polygon class="cls-8" points="170.14 99.45 161.18 111.35 163.54 102.05 170.14 99.45"/><polygon class="cls-26" points="250 77.42 220.44 68 220.79 64.82 250.71 73.89 250 77.42"/><polygon class="cls-8" points="221.02 76.37 229.39 79.43 230.45 76.37 221.02 76.37"/><polygon class="cls-8" points="220.79 78.96 227.51 84.85 229.63 82.25 220.79 78.96"/><polygon class="cls-8" points="164.95 48.33 186.04 51.15 215.61 48.92 164.95 48.33"/></g><rect class="cls-27" x="0.5" y="0.5" width="399" height="399"/></g></svg>