<svg id="Layer_1" data-name="Layer 1" xmlns="http://www.w3.org/2000/svg" viewBox="0 0 400 400"><defs><style>.cls-1{fill:#be8e00;}.cls-2{fill:#e4c728;}.cls-3{fill:#fff6af;}.cls-4{fill:#e1cf85;}.cls-5{fill:#c0b174;}.cls-6{fill:#9e8f60;}.cls-7{fill:#f4c9b2;}.cls-8{fill:#c1907d;}.cls-9{fill:#f3d65d;}.cls-10{fill:#755800;}.cls-11{fill:#846400;}.cls-12{fill:#cbac14;}.cls-13,.cls-19{fill:#2b2b2b;}.cls-13{fill-opacity:0.1;}.cls-14{fill:#ab913c;}.cls-15{fill:#9d7700;}.cls-16{fill:#bb8e2d;}.cls-17{fill:#fce3d4;}.cls-18{fill:#ffefe7;}.cls-20{fill:none;}</style></defs><title>explorers_ISFP_famous_real_kevin_costner</title><g id="Layer_1-2" data-name="Layer_1"><g id="_847057792" data-name=" 847057792"><path class="cls-1" d="M177.33,178.24l15.42-8.17s20.85,2.72,24.48,1.82,13.6-.91,13.6-.91l-6.35,35.37-12.69,18.13-24.49,2.73-9.06-32.65-.91-15.42Z"/><polygon class="cls-2" points="246.25 145.59 236.27 131.08 233.55 143.78 233.55 149.22 237.18 152.84 246.25 145.59"/><polygon class="cls-3" points="150.13 9.57 182.77 1.41 241.71 9.57 234.46 15.92 216.32 19.54 178.24 25.89 150.13 9.57"/><path class="cls-4" d="M150.12,9.57h92.5l-39.9,19-45.34-5.44Z"/><polygon class="cls-5" points="258.04 45.84 241.71 9.57 216.32 19.54 219.95 46.75 222.67 54 258.04 45.84"/><polygon class="cls-6" points="229.02 47.66 258.04 45.84 251.69 72.14 238.99 83.92 224.48 83.02 229.02 47.66"/><polygon class="cls-7" points="234.46 148.31 251.69 72.14 237.18 71.23 235.36 82.11 229.02 81.21 229.02 47.66 216.32 19.54 159.19 70.32 162.82 143.78 193.65 161.01 221.76 161.01 234.46 148.31"/><path class="cls-8" d="M212.7,142.87h8.16l-21.77,15.42L171,151.94l-3.63-13.61L190,134.71Z"/><polygon class="cls-9" points="205.44 191.84 219.95 161.91 240.81 161.91 218.13 188.21 211.79 193.65 205.44 191.84"/><polygon class="cls-2" points="201.81 218.13 205.44 191.84 218.13 188.21 215.41 199.09 201.81 218.13"/><polygon class="cls-9" points="187.3 193.65 198.19 188.21 201.81 219.04 192.75 213.6 187.3 193.65"/><polygon class="cls-2" points="173.7 159.19 187.3 152.84 198.19 188.21 191.84 200 173.7 159.19"/><path class="cls-10" d="M166.45,229.93l.9-10-4.53-39-7.26-14.51c-5.44,18.13-11.78,37.18-17.23,55.31Z"/><polygon class="cls-11" points="143.78 205.44 166.44 229.93 129.27 243.53 128.36 239.9 130.18 219.95 137.43 210.88 143.78 205.44"/><polygon class="cls-12" points="105.69 219.95 114.76 217.23 133.8 219.95 132.9 227.21 125.64 230.83 131.08 235.36 127.45 252.59 110.22 252.59 109.32 245.34 112.04 242.62 108.41 225.39 106.6 223.58 105.69 219.95"/><polygon class="cls-9" points="105.69 210.88 109.32 206.35 130.18 206.35 133.8 210.88 106.6 212.7 105.69 210.88"/><polygon class="cls-2" points="102.97 219.95 137.43 219.95 137.43 210.88 102.97 210.88 102.97 219.95"/><polygon class="cls-7" points="116.57 223.58 106.6 223.58 109.32 245.34 118.39 242.62 116.57 223.58"/><polygon class="cls-7" points="132.9 227.21 122.01 227.21 122.01 233.55 131.08 235.36 132.9 227.21"/><polygon class="cls-13" points="206.35 375.92 298.85 384.99 237.18 398.6 101.16 384.99 206.35 375.92"/><polygon class="cls-14" points="227.21 368.67 220.86 387.71 238.99 390.43 257.13 387.71 249.88 368.67 248.06 365.04 229.02 364.14 227.21 368.67"/><polygon class="cls-14" points="155.56 361.42 131.99 379.55 160.1 382.27 180.05 379.55 180.05 360.51 176.42 358.69 155.56 361.42"/><polygon class="cls-12" points="155.56 361.42 180.05 361.42 203.63 304.28 161.01 317.88 155.56 361.42"/><polygon class="cls-2" points="203.63 304.28 214.51 333.31 228.11 346.9 248.97 320.61 248.97 290.68 230.83 293.4 203.63 304.28"/><polygon class="cls-12" points="227.21 368.67 249.88 368.67 248.97 320.61 214.51 333.31 227.21 368.67"/><polygon class="cls-2" points="185.49 289.77 163.73 293.4 161.01 317.88 191.84 333.31 203.63 304.28 185.49 289.77"/><polygon class="cls-14" points="177.33 290.68 192.75 301.56 203.63 304.28 213.6 301.56 245.34 286.15 232.65 254.41 204.53 241.71 177.33 290.68"/><polygon class="cls-11" points="201.81 250.78 213.6 301.56 248.97 290.68 248.06 238.99 211.79 245.34 201.81 250.78"/><polygon class="cls-15" points="183.68 241.71 169.17 247.16 163.73 294.31 192.75 301.56 198.19 275.27 201.81 250.78 183.68 241.71"/><polygon class="cls-11" points="201.81 250.78 169.17 247.16 156.47 166.44 177.33 152.84 179.14 184.59 201.81 219.04 204.53 229.93 201.81 250.78"/><polygon class="cls-15" points="170.98 157.38 161.91 171.89 201.81 219.04 180.96 161.91 170.98 157.38"/><polygon class="cls-11" points="287.05 234.46 259.85 168.26 253.5 169.17 244.43 218.13 250.78 221.76 250.78 224.48 269.82 238.99 287.05 234.46"/><polygon class="cls-10" points="234.46 152.84 243.53 158.29 259.85 168.26 248.06 241.71 201.81 250.78 201.81 219.04 228.11 179.14 234.46 152.84"/><polygon class="cls-11" points="201.81 219.04 246.25 170.98 240.81 150.13 235.36 149.22 201.81 219.04"/><polygon class="cls-15" points="234.46 244.44 252.59 259.85 287.05 234.46 250.78 221.76 234.46 244.44"/><polygon class="cls-16" points="238.09 239.9 234.46 244.44 248.06 263.48 252.59 259.85 238.09 239.9"/><polygon class="cls-9" points="161.91 142.87 167.35 170.98 211.79 180.05 179.14 158.29 161.91 142.87"/><polygon class="cls-2" points="179.14 167.35 193.65 162.82 200 159.19 157.38 136.52 179.14 167.35"/><polygon class="cls-4" points="133.8 56.72 122.92 24.08 130.18 24.08 136.52 32.24 133.8 56.72"/><polygon class="cls-3" points="153.75 11.38 122.92 24.08 132.9 29.52 140.15 34.05 153.75 20.45 153.75 11.38"/><polygon class="cls-2" points="179.14 167.35 211.79 180.05 243.53 158.29 200.91 162.82 179.14 167.35"/><polygon class="cls-9" points="179.14 167.35 243.53 158.29 246.25 145.59 200 159.19 179.14 167.35"/><polygon class="cls-5" points="182.77 25.89 150.13 9.57 146.5 21.36 151.03 27.7 154.66 32.24 182.77 25.89"/><polygon class="cls-17" points="216.32 19.54 212.7 142.87 148.31 142.87 135.62 106.6 132.9 29.52 146.5 21.36 151.03 27.7 182.77 25.89 196.37 17.73 216.32 19.54"/><path class="cls-7" d="M169.17,108.41l10-29.92,22.67-15.42-13.6-4.53c0-.91-15.42,6.35-15.42,6.35L171,67.6,164.64,74l-6.35-6.35-3.63-6.34c-.91,0-9.07-.91-9.07-.91L137.43,64l11.79,13.6,8.16,29.92,6.35-4.53m5.44,4.53Z"/><polygon class="cls-5" points="170.98 62.16 190.02 56.72 201.81 63.98 188.21 61.26 170.98 68.51 170.98 62.16"/><polygon class="cls-5" points="158.29 63.07 145.59 59.44 138.33 65.79 147.41 63.98 158.29 68.51 158.29 63.07"/><polygon class="cls-8" points="233.55 101.16 243.53 110.22 245.34 101.16 233.55 101.16"/><polygon class="cls-8" points="158.29 108.41 163.73 113.85 169.17 108.41 161.01 106.6 158.29 108.41"/><polygon class="cls-18" points="158.29 68.51 158.29 108.41 169.17 108.41 170.98 68.51 158.29 68.51"/><polygon class="cls-8" points="158.29 120.2 174.61 121.11 184.58 114.76 185.49 116.57 175.52 124.73 158.29 122.01 158.29 120.2"/><path class="cls-19" d="M150.12,75.77a3.63,3.63,0,1,1-3.62,3.62A3.62,3.62,0,0,1,150.12,75.77Z"/><path class="cls-19" d="M180.05,75.77a3.63,3.63,0,1,1-3.63,3.62A3.63,3.63,0,0,1,180.05,75.77Z"/><polygon class="cls-17" points="245.34 101.16 251.69 72.14 237.18 71.23 233.55 101.16 245.34 101.16"/><polygon class="cls-8" points="239.9 77.58 247.16 77.58 238.09 89.37 239.9 77.58"/><polygon class="cls-7" points="149.22 45.84 164.63 46.75 190.93 44.93 165.54 50.38 164.63 50.38 164.63 50.38 149.22 45.84"/><polygon class="cls-7" points="156.47 41.31 165.54 41.31 182.77 39.49 165.54 44.03 165.54 44.03 165.54 44.03 156.47 41.31"/><polygon class="cls-7" points="176.42 105.69 187.3 106.6 195.47 117.48 176.42 105.69"/><polygon class="cls-17" points="101.16 228.11 106.6 223.58 109.32 245.34 102.06 241.71 101.16 228.11"/><polygon class="cls-10" points="131.99 384.08 131.99 379.55 180.05 379.55 180.05 384.08 131.99 384.08"/><polygon class="cls-10" points="220.86 392.25 220.86 387.71 257.13 387.71 257.13 392.25 220.86 392.25"/></g><rect class="cls-20" x="0.5" y="0.5" width="399" height="399"/></g></svg>