<svg id="Layer_1" data-name="Layer 1" xmlns="http://www.w3.org/2000/svg" viewBox="0 0 400 400"><defs><style>.cls-1{fill:#c2987a;}.cls-1,.cls-10,.cls-11,.cls-12,.cls-13,.cls-14,.cls-15,.cls-2,.cls-3,.cls-4,.cls-5,.cls-6,.cls-7,.cls-8,.cls-9{fill-rule:evenodd;}.cls-2{fill:#8b6651;}.cls-3{fill:#1d7678;}.cls-4{fill:#3aa0ba;}.cls-15,.cls-5{fill:#070908;}.cls-5{opacity:0.15;}.cls-6{fill:#6d6e71;}.cls-7{fill:#474748;}.cls-8{fill:#308fa6;}.cls-9{fill:#185e60;}.cls-10{fill:#4fa9aa;}.cls-11{fill:#dfbda5;}.cls-12{fill:#e9cbb7;}.cls-13{fill:#030303;}.cls-14{fill:#fff;}.cls-15{opacity:0.3;}</style></defs><title>sentinels_ISFJ_famous_real_vin_diesel</title><polygon class="cls-1" points="147.98 282.58 142.64 284.94 132.11 283.33 131.09 260.32 142.64 265.11 147.98 282.58"/><polygon class="cls-1" points="155.21 235.37 151.32 229.73 143.38 214.8 130.74 212.07 131.09 260.32 138.34 269.74 146.57 272.27 147.82 260.15 155.21 235.37"/><polygon class="cls-2" points="146.05 189.77 137.07 189.15 130.74 212.07 151.32 229.73 160.16 209.6 155.24 195.72 146.05 189.77"/><polygon class="cls-3" points="160.95 150.12 145.71 157.79 142.5 169.45 143.88 174.16 140.82 175.52 139.5 180.33 141.9 183.57 156.63 186.44 160.18 183.32 163.2 156.06 160.95 150.12"/><polygon class="cls-4" points="139.5 180.33 156.63 186.44 140.66 185.8 138.49 184 139.5 180.33"/><polygon class="cls-2" points="147.98 282.58 131.09 260.32 147.82 260.15 155.53 278.49 147.98 282.58"/><polygon class="cls-5" points="283.95 381.02 199.76 399.08 116.05 377.54 202.28 363.03 283.95 381.02"/><polygon class="cls-6" points="183.99 367.47 183.91 372.84 141.41 373.27 141.36 367.96 164.73 362.51 183.99 367.47"/><polygon class="cls-7" points="182.09 349.38 183.99 367.47 141.36 367.96 160.97 349.52 169.73 346.36 182.09 349.38"/><polygon class="cls-8" points="147.82 260.15 171.49 255.94 189.13 278.65 198.47 299.94 196.85 305.78 189.6 310.34 159.66 309.09 154.16 303.23 147.82 260.15"/><polygon class="cls-6" points="252.13 377.47 252.35 383.39 219.12 383.57 218.93 377.38 235.96 374.03 252.13 377.47"/><polygon class="cls-7" points="245.43 358.54 252.13 377.47 218.93 377.38 224.85 358.56 237.19 353.59 245.43 358.54"/><polygon class="cls-4" points="257.06 264.3 251.57 308.75 242.65 314.45 206.07 312.63 196.85 305.78 173.3 261.39 180.79 259.56 251.41 261.2 257.06 264.3"/><polygon class="cls-3" points="180.21 274.42 147.82 260.15 173.02 257.92 256.96 264.71 180.21 274.42"/><polygon class="cls-3" points="260.53 235.62 177.11 207.12 170.79 229.92 173.3 261.39 256.96 264.71 260.53 235.62"/><polygon class="cls-9" points="154.04 206.41 169.41 201.17 177.11 207.12 173.3 261.39 147.82 260.15 154.04 206.41"/><polygon class="cls-3" points="228.89 202.65 234.23 158.57 213.52 147.64 194.19 144.17 182.79 163.5 177.83 196.46 228.89 202.65"/><polygon class="cls-10" points="260.61 145.16 248.71 155.57 231.37 160.03 194.19 144.17 214.51 135.74 232.35 135.74 260.61 145.16"/><polygon class="cls-9" points="174.36 144.66 177.83 161.51 180.31 192.25 160.18 183.32 157.9 176.57 160.95 150.12 169.92 145.65 174.36 144.66"/><polygon class="cls-10" points="155.03 132.77 160.95 150.12 174.94 147.47 166.73 131.33 155.03 132.77"/><polygon class="cls-11" points="260.53 235.62 247.23 207.61 223.93 196.71 180.31 192.25 175.35 200.67 176.82 211.31 216.99 238.84 260.53 235.62"/><polygon class="cls-1" points="279.45 192.25 260.53 235.62 223.93 196.71 225.59 188.5 229.98 183.82 269.02 177.33 274.48 179.84 279.45 192.25"/><polygon class="cls-2" points="171.64 177.62 180.31 192.25 168.41 189.27 157.9 176.57 171.64 177.62"/><path class="cls-12" d="M137.07,189.15l18.31,6.95,3.87-4.1-2.62-5.56L138.49,184S137.22,189.19,137.07,189.15Z"/><polygon class="cls-12" points="142.5 169.45 157.9 176.57 160.29 182.27 156.63 186.44 140.82 175.52 142.5 169.45"/><polygon class="cls-9" points="272.32 174.43 252.18 181.34 226.78 182.66 231.37 160.03 260.61 145.16 272.32 174.43"/><polygon class="cls-2" points="279.45 192.25 225.59 188.5 247.93 180.84 274.48 179.84 279.45 192.25"/><polygon class="cls-4" points="274.48 179.84 225.59 188.5 226.78 182.66 272.32 174.43 274.48 179.84"/><polygon class="cls-8" points="181.8 218.27 176.69 213.15 171.88 217.53 176.02 222.73 181.8 218.27"/><polygon class="cls-8" points="180.25 240.3 175.14 235.19 170.34 239.56 174.47 244.76 180.25 240.3"/><polygon class="cls-2" points="220.96 95.09 229.38 103.52 219.35 130.56 199.64 132.27 194.51 144.3 180.31 192.25 164.94 123.35 138.67 105.5 165.94 108.97 220.96 95.09"/><polygon class="cls-1" points="230.37 127.81 239.74 103.46 237.56 79.98 252.68 69.82 238.8 26.2 217.49 12.81 212.53 13.8 209.06 22.73 211.04 90.63 216.99 98.56 224.43 105.5 219.35 130.56 230.37 127.81"/><polygon class="cls-2" points="239.74 103.46 231.86 83.2 238.8 84.19 244.46 91.18 239.74 103.46"/><polygon class="cls-11" points="237.81 60.89 252.68 69.82 244.46 91.18 231.86 83.2 237.81 60.89"/><polygon class="cls-2" points="241.77 70.31 246.73 72.79 239.79 77.25 241.77 70.31"/><polygon class="cls-12" points="214.26 7.61 238.8 26.2 212.53 13.8 189.23 8.85 177.83 0.92 214.26 7.61"/><polygon class="cls-11" points="143.63 24.21 177.83 0.92 212.53 13.8 216.99 98.56 166.43 113.93 138.67 105.5 143.63 24.21"/><polygon class="cls-1" points="200.14 42.06 188.74 38.09 173.37 44.54 169.41 62.38 171.68 73.74 187.75 49 200.14 42.06"/><polygon class="cls-1" points="159.99 46.52 161.47 62.88 159 74.52 154.04 56.43 147.6 51.97 151.07 46.02 159.99 46.52"/><polygon class="cls-13" points="200.63 38.59 200.14 42.06 188.74 39.58 173.87 48.01 173.37 44.54 188.24 35.61 200.63 38.59"/><polygon class="cls-13" points="159.99 46.52 151.56 44.04 146.36 49.74 147.6 51.97 152.55 47.26 160.48 50.73 159.99 46.52"/><polygon class="cls-12" points="173.37 44.54 159.99 46.52 159 74.52 165.19 75.02 171.84 73.58 173.37 44.54"/><polygon class="cls-2" points="166.43 79.23 171.84 73.58 159 74.52 166.43 79.23"/><polygon class="cls-2" points="187.25 80.22 157.26 86.42 162.96 92.12 180.81 90.14 187.25 80.22"/><path class="cls-14" d="M183,83l-21.29,4.6c-.24.08,2.25,2.28,2.25,2.28l15.32-1.67Z"/><path class="cls-13" d="M188.39,56.43c2,0,3.69-2.34,3.69-5.2S190.42,46,188.39,46s-3.7,2.34-3.7,5.21S186.35,56.43,188.39,56.43Z"/><path class="cls-13" d="M154.53,63.62c1.77,0,3.21-2.12,3.21-4.71s-1.44-4.71-3.21-4.71-3.22,2.12-3.22,4.71S152.76,63.62,154.53,63.62Z"/><polygon class="cls-3" points="230.37 127.81 232.35 135.74 194.51 144.3 194.69 124.83 230.37 127.81"/><polygon class="cls-2" points="144.45 288.42 147.98 282.58 132.11 283.33 144.45 288.42"/><polygon class="cls-1" points="176.82 211.31 180.31 192.25 157.9 176.57 154.04 206.41 176.82 211.31"/><path class="cls-15" d="M257,264.71l-40-25.87,43.54-3.22s-3.47,28.68-3.57,29.09ZM170.51,148.3h0L185,176.53l-4.65,15.72-9.8-43.95Zm6.31,63h0l-24.06,6.17L154,206.41Z"/><polygon class="cls-4" points="154.16 303.23 196.85 305.78 182.09 349.38 160.97 349.52 154.16 303.23"/><polygon class="cls-8" points="196.85 305.78 251.57 308.75 245.43 358.54 224.85 358.56 196.85 305.78"/></svg>