<svg xmlns="http://www.w3.org/2000/svg" xmlns:xlink="http://www.w3.org/1999/xlink" viewBox="0 0 400 400"><defs><style>.a{fill:#35785e;}.b{fill:#474748;}.c,.n{fill:#2b2b2b;}.d{fill:#cecdcc;}.e{fill:#98c16c;}.f{fill:#44622d;}.g{fill:#709c52;}.h{fill:#d0ae95;}.i{fill:#a8836c;}.j{fill:#eed2c1;}.k{fill:#f6e5db;}.l{fill:#74c7a5;}.m{fill:#54af8a;}.n{opacity:0.1;}.o{fill:#ebebea;}.p{fill:#3f8e6f;}.q{fill:#5a753d;}.r{clip-path:url(#a);}.s{fill:#c76363;}.t{fill:#9e3f3f;}.u{fill:#a35151;}.v{fill:#f0bc67;}.w{fill:#e1a940;}.x{fill:#fff;}</style><clipPath id="a"><polygon class="a" points="220.01 188.85 213.45 242.93 228.18 257.4 243.11 245.34 234.93 189.45 220.01 188.85"/></clipPath></defs><title>diplomats_ENFP_famous_real_robert_downey_jr</title><polygon class="b" points="184.53 17.22 192.14 0 266.71 8.95 251.12 36.32 204.5 49.56 184.53 17.22"/><polygon class="b" points="175 20.91 163.61 50.68 176.97 70.76 194.5 38.52 175 20.91"/><polygon class="c" points="185.64 43.97 169.96 33.02 168.18 18.49 192.14 0 212.68 37.71 185.64 43.97"/><polyline class="d" points="270.68 157.91 255.81 259.81 229.56 270.67 208.08 261.02 189.64 239.31 177.82 187.45 199.73 159.11 270.68 157.91"/><polygon class="e" points="222.72 72.23 222.31 78.74 228.7 90.89 238.16 94.25 256.85 91.57 260.77 85.44 259.79 73.42 254.83 70.05 237.61 68.48 224.16 70.79 222.72 72.23"/><polygon class="f" points="185.86 179.16 181.54 165.14 157.06 224.68 176.3 249.63 186.82 235.8 185.86 179.16"/><polygon class="g" points="126.62 230.24 176.3 249.63 161.25 215.15 134.04 208.79 128.19 218.25 126.62 230.24"/><path class="c" d="M273.32,27.43,272.12,20,266.71,9l-17,27.81Z"/><polygon class="h" points="216.48 174.22 262.64 147.26 278.17 110.43 272.12 102.83 276.99 62.21 251.77 37.23 228.28 125.25 216.48 174.22"/><polygon class="i" points="238.51 139.96 236.46 148.79 260.22 148.55 239.86 167.04 215.62 173.8 205.5 151.27 205.93 149.33 238.51 139.96"/><path class="i" d="M279.77,88.22,261.46,85l0-5.92s21.65,5,21.88,5S279.77,88.22,279.77,88.22Z"/><polygon class="j" points="186.64 43.97 176.97 70.76 183.07 124.73 205.93 149.33 236.46 148.79 258.27 127.29 263.45 54.1 251.77 37.23 209.09 29.6 186.64 43.97"/><polygon class="h" points="229.66 101.81 239.53 78.91 254.83 70.05 243.56 65.86 226.02 69.59 221.53 79.81 229.66 101.81"/><polygon class="h" points="207.33 101.91 215.62 79.54 210.59 67.51 194.87 66.5 186.18 69.17 200.61 77.52 207.33 101.91"/><polygon class="h" points="232.1 101.97 240.17 113.53 234.22 102.04 232.1 101.97"/><path class="j" d="M270.28,83.29l13.37,4.39-5.48,22.75s-13.55-1.67-13.14-2.11S270.28,83.29,270.28,83.29Z"/><polygon class="i" points="279.7 91.26 273.55 89.01 271.57 99.55 279.7 91.26"/><polygon class="c" points="210.19 124.64 228.28 125.25 223.38 130.48 233.26 140.9 244.71 135.66 245.12 123.47 249.81 136.05 236.46 148.79 205.93 149.33 192.96 135.32 195.32 121.79 197.74 136.65 204.1 142.71 215.78 130.46 210.19 124.64"/><polygon class="c" points="196.66 118.55 197.26 113.84 213.76 108.55 215.97 109.51 218.5 108.85 239.83 111.27 242.1 117.64 217.47 112.33 196.66 118.55"/><polygon class="i" points="200.44 122.25 200.69 118.75 238.19 117.09 238.23 119.91 200.44 122.25"/><polygon class="i" points="207.33 101.91 218.2 107.16 229.66 101.81 207.33 101.91"/><polygon class="k" points="207.33 101.91 215.62 79.54 221.53 79.81 229.66 101.81 207.33 101.91"/><polygon class="c" points="186.18 69.17 184.44 66.92 194.08 61.28 210.82 64 210.59 67.51 194.87 66.5 186.18 69.17"/><path class="h" d="M261.52,76.15l-4.6-4.68-33,.7-11.88-.62h-29l-4,5.89.34,13.46,3.1,8.18,24.33-.54,7.33-17.46,8,.15,8.47,18,26.46-.45,2-3.75,2.68-4.59Zm-51.72,10-4.79,8-15.21,2-7.86-5.15.65-12.37,1.53-3.63,26.45-.56Zm4.6-7.74L213.81,75l9-.24.42,3.64Zm34.88,17.34-16.36-1L226.2,87l.41-12,30.24,0,1,2.52.4,12.53Z"/><polygon class="l" points="183.32 70.12 180.29 76.55 182.48 93.94 188.2 96.17 205.9 94.95 213.35 83.01 213.36 74.47 211.78 70.77 183.32 70.12"/><polygon class="c" points="224.3 64.63 226.02 69.59 243.56 65.86 255.5 71.41 256 68.01 242.91 61.35 224.3 64.63"/><polygon class="l" points="255.72 70.1 259.21 73.12 259.17 93.05 251.12 95.74 232.21 95.52 223.56 83.86 223.03 75.22 224.49 71.39 255.72 70.1"/><polygon class="m" points="206.62 77.41 184.18 72.97 210.63 72.42 209.86 84.18 206.62 77.41"/><polygon class="m" points="227.07 83.83 226.67 73.02 256.91 73 230.91 76.55 227.07 83.83"/><circle class="c" cx="239.17" cy="78.41" r="4.22"/><circle class="c" cx="200.85" cy="78.37" r="4.22"/><polygon class="i" points="278.17 110.43 274.19 119.88 265.03 108.32 278.17 110.43"/><polygon class="h" points="198.67 111.46 204.71 100.22 203.69 99.09 198.67 111.46"/><path class="a" d="M263.58,75.15,257,69.53l-73.86.09-5.5,6.44,1.82,14.85,2.07,3,7.59,3.34L207,95.64l6.72-11.28.59-5.21,8.77.16.75,5.9,7.35,11.06,19.09.65,9-3.88,2.68-4.58Zm-53.72,9-4.79,8-15.21,2L182.41,89l-.73-11.37L184.17,73l26.46-.55Zm4.59-6.77.57-5,7.29-.09.34,5Zm34.89,16.37-16.36-1-5.91-9L226.67,73h30.24l2,3.52-.6,11.53Z"/><path class="c" d="M286.8,41.06,295,43.48l-11.33,44.2-13.37-4.39,2.57-13.18-9.4-16Z"/><polygon class="b" points="263.45 54.1 249.69 36.76 272.12 20.01 294.98 43.48 263.45 54.1"/><polygon class="a" points="284.06 86.1 280.63 81.37 263.53 75.16 261.91 81.73 283.65 87.68 284.06 86.1"/><polygon class="n" points="162.17 395.09 236.75 382.04 315.83 396.78 235.38 400 162.17 395.09"/><polygon class="b" points="274.33 374.58 279.4 392.38 262.62 393.23 245.83 392.38 248.41 377.01 262.62 370.85 274.33 374.58"/><polygon class="b" points="226.93 379.12 226.93 389.96 206.31 391.24 182.8 389.96 202.98 370.79 215.08 368.61 226.93 379.12"/><polygon class="f" points="306.49 271.46 297.4 250.51 292.53 265.24 285.7 281.36 306.49 271.46"/><polyline class="o" points="205.93 149.33 228.97 165.14 212.63 178.82 199.73 159.11 205.5 151.27"/><polygon class="p" points="220.01 188.85 212.63 178.82 228.97 165.14 243.32 180.03 234.93 189.45 227.77 196.08 220.01 188.85"/><polygon class="m" points="220.01 188.85 212.63 178.82 236.89 168.46 240.59 174.51 220.01 188.85"/><polyline class="o" points="270.68 157.91 243.32 180.03 228.97 165.14 262.64 147.26"/><polygon class="f" points="220.01 188.85 213.45 242.93 228.18 257.4 243.11 245.34 234.93 189.45 220.01 188.85"/><polyline class="q" points="270.68 157.91 263.51 191.67 245.67 219.41 255.81 259.81 254.03 270.67 276.1 273.08 299.09 227.86 293.93 166.53"/><polyline class="g" points="270.68 157.91 284.43 175.39 277.27 180.82 280.85 192.28 245.67 219.41 270.68 157.91"/><polyline class="f" points="293.93 166.53 285.96 227.25 296.42 240.52 313.05 233.47 293.93 166.53"/><polygon class="g" points="273.72 265.84 270.14 283.93 285.7 281.36 313.05 233.47 285.96 227.25 273.72 265.84"/><polygon class="b" points="197.97 330.93 190.53 278.58 227.77 272.04 237.91 280.96 243.88 286.91 237.66 299.95 232.89 336.28 213.8 351.75 197.97 330.93"/><polygon class="c" points="202.98 370.79 197.97 330.93 232.89 336.28 226.93 379.12 202.98 370.79"/><polygon class="b" points="242.44 336.88 237.66 299.95 229.56 285.13 240.31 270.84 280.63 277.63 285.7 281.36 279.75 327.36 260.94 354.13 242.44 336.88"/><polygon class="c" points="248.41 377.01 242.44 336.88 279.75 327.36 274.33 374.38 248.41 377.01"/><polygon class="c" points="255.22 256.8 208.08 257.4 208.08 261.62 191.55 281.9 237.66 299.95 285.7 281.36 274.68 263.53 262.62 265.94 255.22 256.8"/><polygon class="q" points="181.54 165.14 199.73 159.11 199.13 189.86 210.47 220.62 218.22 284.53 182.25 280.92 181.88 210.97 181.54 165.14"/><polygon class="g" points="184.39 197.71 210.47 220.62 199.73 159.11 184.39 179.61 190.95 185.04 184.39 197.71"/><rect class="c" x="245.83" y="392.38" width="33.57" height="4.39"/><rect class="c" x="182.8" y="389.96" width="44.13" height="4.16"/><polygon class="a" points="220.01 188.85 213.45 242.93 228.18 257.4 243.11 245.34 234.93 189.45 220.01 188.85"/><g class="r"><polygon class="m" points="218.51 199.72 240.78 213.11 240.07 203.32 219.44 191.69 218.51 199.72"/><polygon class="m" points="242.52 237.15 241.77 226.85 217.11 211.63 216.17 219.68 242.52 237.15"/><polygon class="m" points="237.99 250.51 243 245.45 215.12 228.63 214.25 236.08 237.99 250.51"/></g><polygon class="s" points="152.68 222.92 164.26 221.51 151.61 257.21 134.57 241.71 152.68 222.92"/><polygon class="t" points="85.22 221.64 80.61 233.58 97.42 254.92 116.64 263.86 125.87 249.03 94.91 217.39 85.22 221.64"/><polygon class="s" points="144.85 230.68 150.06 246.45 151.61 257.21 116.64 263.86 116.69 252.8 117.2 236.33 144.85 230.68"/><polygon class="t" points="144.85 230.68 150.06 246.45 116.69 252.8 117.2 236.33 144.85 230.68"/><polygon class="u" points="90.7 166.86 74.32 163.91 66.25 211.35 80.61 233.58 95.45 225.58 109.7 198.75 90.7 166.86"/><polygon class="s" points="151.09 177.79 142.36 161.76 112.06 152.51 74.32 163.91 85.64 178.21 143.58 182.81 151.09 177.79"/><polygon class="v" points="131.94 193.82 165.48 182.45 142.36 161.76 142 173.12 112.93 178.21 108.34 166.86 85.64 178.21 93.21 191.94 131.94 193.82"/><polygon class="w" points="93.21 191.94 165.48 182.45 164.26 221.51 150.06 246.45 144.87 239.63 123.37 242.45 116.69 252.8 95.45 225.58 93.21 191.94"/><polygon class="x" points="141.03 204.33 156.02 198.92 155.85 204.33 140.78 212.09 141.03 204.33"/><polygon class="x" points="124.45 207.62 124.23 214.92 106.97 210.76 107.14 205.58 124.45 207.62"/></svg>