<svg id="Layer_1" data-name="Layer 1" xmlns="http://www.w3.org/2000/svg" viewBox="0 0 400 400"><defs><style>.cls-1{fill:#7d7c7d;}.cls-2{fill:#969697;}.cls-3{fill:#95637c;}.cls-20,.cls-4{fill:#2b2b2b;}.cls-17,.cls-4{fill-opacity:0.15;}.cls-5{fill:#8f759f;}.cls-6{fill:#b2879c;}.cls-7{fill:#e5e6e5;}.cls-8{fill:#fff;}.cls-9{fill:#fce3d4;}.cls-10{fill:#f4c9b2;}.cls-11{fill:#444648;}.cls-12{fill:#d0a0b7;}.cls-13{fill:#c1907d;}.cls-14{fill:#b3b2b3;}.cls-15{fill:#d6d7d6;}.cls-16{fill:#ffefe7;}.cls-17{fill:#070908;}.cls-18{fill:#785d87;}.cls-19{fill:#666566;}.cls-21{fill:none;}</style></defs><title>analysts_INTP_famous_real_albert_einstein</title><g id="Layer_1-2" data-name="Layer_1"><g id="_897680080" data-name=" 897680080"><polygon class="cls-1" points="44.91 105.34 39.38 94.27 33.96 97.69 39.96 250.83 51.04 258.02 55.4 252.48 44.91 105.34"/><polygon class="cls-2" points="161.54 112.53 39.38 94.27 51.04 258.02 185.69 250.48 189.57 239.05 182.51 235.75 74.13 237.05 67.53 120.19 141.39 130.2 156.47 126.31 162.13 121.84 161.54 112.53"/><polygon class="cls-3" points="281.34 230.57 297.36 237.64 308.67 234.34 309.5 210.31 278.64 175.32 275.33 210.07 281.34 230.57"/><polygon class="cls-4" points="310.08 380.89 232.34 368.87 157.89 378.18 228.45 393.84 310.08 380.89"/><polygon class="cls-5" points="286.88 382.3 282.17 384.54 259.9 384.42 255.43 382.3 260.49 364.98 260.49 362.51 280.05 362.74 280.99 364.98 286.88 382.3"/><polygon class="cls-5" points="219.61 359.32 219.85 377.83 213.6 379.59 184.15 379.47 177.79 377.83 200.06 359.32 213.37 356.15 219.61 359.32"/><polygon class="cls-1" points="180.5 278.4 203.71 272.39 218.79 275.93 239.53 303.26 231.28 326.23 211.13 331.17 190.28 318.92 180.5 278.4"/><polygon class="cls-2" points="284.17 286.64 248.83 274.63 221.26 281.7 243.17 328.23 264.38 331.41 282.52 325.87 284.17 286.64"/><polygon class="cls-6" points="297.36 237.64 326.23 250.83 329.76 210.07 321.98 201.47 312.09 203.71 297.36 237.64"/><polygon class="cls-7" points="329.76 210.07 312.09 203.71 316.45 194.28 325.28 193.46 330.58 200.76 329.76 210.07"/><polygon class="cls-1" points="165.54 127.49 60.34 113.59 65.88 242 187.93 238.46 191.22 236.22 214.31 160.36 165.54 127.49"/><polygon class="cls-8" points="92.39 146.22 80.49 146.22 75.66 146.22 75.78 167.9 90.86 170.84 91.44 165.31 81.55 164.13 81.78 159.89 91.44 162.01 91.56 156.94 81.9 156.71 82.25 150.23 92.15 151.41 92.39 146.22"/><polygon class="cls-8" points="98.63 154.12 98.16 157.65 108.17 158.47 108.64 154.12 98.63 154.12"/><polygon class="cls-8" points="98.16 161.65 107.35 161.54 106.29 165.9 97.81 165.19 98.16 161.65"/><polygon class="cls-8" points="114.3 151.99 111.59 167.54 117.24 168.49 119.36 157.18 122.78 157.18 121.25 169.08 126.9 169.9 128.08 157.06 130.2 157.06 130.08 170.49 136.68 171.43 134.91 152.11 114.3 151.99"/><polygon class="cls-8" points="139.04 153.76 156.94 152.7 157.41 158.94 147.05 158.94 148.81 168.96 156.47 167.07 158 172.02 142.93 174.14 139.04 153.76"/><polygon class="cls-8" points="158.71 146.46 158.71 149.87 162.83 149.76 161.18 155.18 163.66 157.53 169.19 154.7 168.49 152.7 164.6 153.64 166.96 149.87 166.13 145.99 158.71 146.46"/><polygon class="cls-3" points="199.82 173.67 202.77 198.29 190.87 222.44 175.91 222.21 169.55 205.83 199.82 173.67"/><polygon class="cls-6" points="159.3 197.94 151.29 200.41 147.64 210.89 167.54 239.05 184.86 226.8 190.87 222.44 159.3 197.94"/><polygon class="cls-7" points="159.3 197.94 147.64 210.89 141.98 203 142.57 194.76 152.11 191.58 159.3 197.94"/><polygon class="cls-9" points="142.93 174.14 152.11 191.58 141.98 203 133.03 194.17 127.37 185.69 134.32 178.97 142.93 174.14"/><polygon class="cls-10" points="112.18 179.32 123.25 175.32 142.93 174.14 131.26 185.45 120.42 183.57 112.18 179.32"/><polygon class="cls-10" points="117.24 188.98 123.6 185.92 131.26 185.45 141.98 203 117.83 192.75 117.24 188.98"/><polygon class="cls-8" points="104.4 175.91 131.26 185.45 117.24 188.98 102.05 183.57 104.4 175.91"/><polygon class="cls-6" points="282.99 264.26 259.9 265.79 203.71 259.08 185.69 250.48 190.87 222.44 202.53 211.13 274.28 199.12 280.16 206.77 282.99 264.26"/><polygon class="cls-11" points="180.5 278.4 232.1 304.78 284.17 286.64 221.38 271.68 180.5 278.4"/><polygon class="cls-3" points="282.99 264.26 185.69 250.48 180.5 278.4 284.17 286.64 282.99 264.26"/><polygon class="cls-12" points="278.64 175.32 280.16 206.77 190.87 222.44 199.82 173.67 207.25 170.49 225.74 181.44 268.5 171.08 278.64 175.32"/><polygon class="cls-13" points="253.31 151.64 250 170.96 225.74 181.44 213.6 172.61 209.72 164.36 204.77 158.83 238.11 151.99 253.31 151.64"/><polygon class="cls-14" points="331.29 132.32 263.79 161.06 267.09 138.68 275.93 129.02 302.9 124.08 331.29 132.32"/><polygon class="cls-10" points="263.79 161.06 258.85 170.73 239.53 175.44 245.65 154.47 224.91 160.95 231.16 142.22 232.93 94.27 242.82 62.94 248.83 57.4 259.9 107.58 264.5 112.65 272.04 138.45 263.79 161.06"/><polygon class="cls-15" points="255.43 112.53 264.5 112.65 286.88 102.64 276.39 75.54 247.89 58.34 255.43 112.53"/><polygon class="cls-7" points="286.88 102.64 315.15 114.42 331.29 132.32 275.93 129.02 279.69 113.12 286.88 102.64"/><polygon class="cls-15" points="325.52 101.46 331.29 132.32 286.88 102.64 306.79 97.69 325.52 101.46"/><polygon class="cls-14" points="316.68 54.69 325.52 101.46 286.88 102.64 247.89 58.34 281.34 50.21 316.68 54.69"/><polygon class="cls-15" points="280.87 10.04 316.68 54.69 247.89 58.34 254.36 35.37 280.87 10.04"/><polygon class="cls-7" points="219.14 6.15 280.87 10.04 247.89 58.34 209.72 66.23 209.72 32.07 219.14 6.15"/><polygon class="cls-15" points="190.28 18.64 219.14 6.15 209.72 66.23 196.76 60.93 189.34 45.27 190.28 18.64"/><polygon class="cls-7" points="165.78 29.71 190.28 18.64 197.35 61.17 183.33 64.58 177.21 60.7 167.9 50.8 165.78 29.71"/><polygon class="cls-15" points="168.72 93.45 156.47 126.31 170.61 131.85 179.91 128.55 168.72 93.45"/><polygon class="cls-14" points="152.94 70.59 160.71 75.54 168.72 93.45 161.54 112.53 152.94 70.59"/><polygon class="cls-15" points="165.78 29.71 152.94 70.59 168.72 93.45 175.56 74.48 177.21 60.7 165.78 29.71"/><polygon class="cls-14" points="179.91 128.55 156.47 126.31 172.14 142.81 181.09 148.34 179.91 128.55"/><polygon class="cls-9" points="238.58 141.63 237.87 95.45 247.89 58.34 177.21 60.7 168.72 93.45 172.14 142.81 185.69 159.06 224.91 160.95 238.58 141.63"/><polygon class="cls-10" points="215.85 92.62 231.4 95.21 214.78 108.88 208.42 124.9 198.76 113.71 202.18 100.63 209.13 95.45 215.85 92.62"/><polygon class="cls-10" points="192.87 100.63 188.16 95.45 182.04 93.8 174.38 95.45 183.8 109.7 187.1 125.37 195.94 115.71 192.87 100.63"/><polygon class="cls-13" points="275.93 129.02 272.63 124.66 263.2 129.61 272.04 138.45 275.93 129.02"/><polygon class="cls-9" points="286.88 102.64 275.93 129.02 263.2 129.61 265.44 101.46 286.88 102.64"/><polygon class="cls-13" points="279.69 109.23 270.39 119.13 271.68 109.47 279.69 109.23"/><polygon class="cls-2" points="231.4 95.21 227.04 89.91 209.48 88.85 209.13 95.45 231.4 95.21"/><polygon class="cls-2" points="187.93 88.85 188.16 95.45 174.38 95.45 176.26 90.5 187.93 88.85"/><polygon class="cls-16" points="208.42 124.9 202.3 113.36 202.18 100.63 195.23 100.63 194.17 113.24 188.16 125.37 197.59 128.2 208.42 124.9"/><polygon class="cls-15" points="231.04 138.45 208.42 124.9 209.13 136.21 216.91 145.04 231.04 138.45"/><polygon class="cls-15" points="188.16 125.37 189.93 135.15 184.39 145.04 178.38 136.68 188.16 125.37"/><polygon class="cls-7" points="216.91 145.04 184.39 145.04 188.16 125.37 197.11 130.67 208.42 124.9 216.91 145.04"/><polygon class="cls-13" points="197.23 133.03 208.42 124.9 197.59 128.2 188.16 125.37 197.23 133.03"/><polygon class="cls-7" points="263.79 161.06 268.5 171.08 242.23 200.76 225.74 181.44 263.79 161.06"/><polygon class="cls-7" points="207.25 170.49 211.96 197.94 225.74 181.44 209.72 164.36 207.25 170.49"/><polygon class="cls-17" points="188.63 234.34 173.79 234.57 167.54 239.05 164.6 234.81 65.64 236.58 65.88 242 187.93 238.46 188.63 234.34"/><path class="cls-17" d="M117.83,192.75,142,202.89l5.77,8,19.91,28.16,23.21-16.61-5.18,28-35,2-4.12-12.72-8.84-4.48-7.89-27.09-27.8-24.51,15.31,5.3.47,3.77Zm112.27-6.36h0l-4.36-5.06L212,197.82l18.14-11.55Z"/><rect class="cls-18" x="177.79" y="377.83" width="42.18" height="4.24"/><rect class="cls-18" x="255.43" y="382.3" width="31.45" height="4.83"/><polygon class="cls-19" points="190.28 318.92 231.28 326.23 219.61 359.32 200.06 359.32 190.28 318.92"/><polygon class="cls-1" points="243.17 328.23 282.52 325.87 280.99 364.98 260.49 364.98 243.17 328.23"/><path class="cls-20" d="M214,103a3.65,3.65,0,1,1-3.65,3.65A3.64,3.64,0,0,1,214,103Z"/><path class="cls-20" d="M182.51,103a3.65,3.65,0,1,1-3.66,3.65A3.65,3.65,0,0,1,182.51,103Z"/><polygon class="cls-10" points="180.03 75.89 198.76 78.96 238.11 72.59 199 75.66 180.03 75.89"/><polygon class="cls-10" points="181.09 71.3 199.94 72.71 238.93 67.41 181.09 71.3"/><polygon class="cls-10" points="225.38 107.82 236.58 107.94 235.4 110.88 225.38 107.82"/><polygon class="cls-10" points="224.8 111.35 233.87 114.3 231.63 117.48 224.8 111.35"/><polygon class="cls-10" points="173.32 112.18 177.56 111.23 173.67 113.83 173.32 112.18"/><polygon class="cls-10" points="171.55 108.29 175.79 107.35 171.9 109.94 171.55 108.29"/><polygon class="cls-9" points="328.35 165.19 316.45 194.28 326.7 192.64 332.94 182.74 333.41 167.07 328.35 165.19"/><polygon class="cls-10" points="345.07 191.58 330.58 200.76 316.45 194.28 332.94 182.74 348.85 186.16 345.07 191.58"/><polygon class="cls-9" points="366.04 182.86 348.85 186.16 330.58 200.76 354.38 197.59 366.04 182.86"/></g><rect class="cls-21" x="0.5" y="0.5" width="399" height="399"/></g></svg>