<svg xmlns="http://www.w3.org/2000/svg" viewBox="0 0 1170 350"><defs><style>.a,.c{fill:#fff;}.a,.aa,.ab,.ac,.ad,.ae,.af,.ag,.b,.c,.d,.e,.f,.g,.h,.i,.j,.k,.l,.o,.p,.q,.r,.s,.t,.u,.v,.w,.x,.y,.z{fill-rule:evenodd;}.a{opacity:0.3;isolation:isolate;}.b{fill:#ececeb;}.d{fill:#f2f2f2;}.e{fill:#cececd;}.f{fill:#dddddc;}.g{fill:#6f7173;}.h{fill:#9da1a2;}.i{fill:#8f8f8f;}.j,.m{fill:#737373;}.k{fill:#858686;}.l{fill:#c4c4c4;}.n,.z{fill:#474747;}.o{fill:#a3a3a3;}.p{fill:#fffeff;}.q{fill:#3f8f6f;}.r{fill:#54b08b;}.s{opacity:0.1;}.t{fill:#4f5253;}.u{opacity:0.2;}.v{fill:#35785d;}.w{fill:#dfbda5;}.x{fill:#c3987b;}.y{fill:#738d57;}.aa{fill:#5a753d;}.ab{fill:#99c26d;}.ac{fill:#8b6651;}.ad{fill:#e8cab6;}.ae{fill:#446125;}.af{fill:#72c9a6;}.ag{fill:#2b2b2b;}</style></defs><title>enfp-campaigner-personality-header</title><path class="a" d="M-26-20H1194.7V378H-26Z"/><path class="b" d="M-16.5-8H1187V358H-16.5Z"/><path class="c" d="M47.3,36.8,81.5,25.1l9.9,8.7L126.8,23l61,17.7L169.2,55l6.9,19.4L158.8,80,100.9,57.5,68.5,66.6,47.3,36.8Z"/><path class="d" d="M187.8,40.7l-44.5,9.9-13.9-7.7-24.2,4.7.5,6.1-32-1.3L47.3,36.8,68.5,66.6l32.4-9.1L158.8,80l17.3-5.6L169.2,55l18.6-14.3Z"/><path class="c" d="M361.9,18.3l35.8-4.9,7.7,6.4,25.1-1.1L417.1,31.4l-26.2-3.2-25.1,8.2L318.5,20.8,331.2,13l30.7,5.3Z"/><path class="d" d="M430.5,18.7l-18.7,6.4L398.4,23l-34.6,5.2-45.3-7.4,47.3,15.6,25.1-8.2,26.2,3.2Z"/><path class="c" d="M186.2,117.2l26.8-10,8.2,9.1,22.1-2.1,8.6,13.4-39.3,5.1-4.8-9.5-31.9,5.2,10.3-11.2Z"/><path class="d" d="M243.3,114.2l-13,11.2-20.7-9.1-20.3,3.9-13.4,8.2,31.9-5.2,4.8,9.5,39.3-5.1Z"/><path class="c" d="M971.8,54.1,1002,34.7l15.1,13.4S1078,30.4,1079.8,30s15.1,11.7,15.1,11.7l-11.2,11.2,44.9,5.2,16,28.5-44.5-6.5-57.5,25.5-17.3-20.7L978.3,96l-48-16.9-5.2-14.3,46.7-10.7Z"/><path class="d" d="M930.4,79.2l52.7-11.7L993,77.9l39.8-17.8,42.3,14.3.5-15.1,8.2-6.5L1098,70.9,1128.7,58l16,28.5L1100.2,80l-57.5,25.5-17.3-20.7L978.3,96,930.4,79.2Z"/><path class="c" d="M610.6,34.6l62.2-18.1,10.4,11.7,24.6,1.3s17.7,17.7,16.4,17.7-50.6,11.2-50.6,11.2L645.5,43.3l-24.2.4-10.7-9.1Z"/><path class="d" d="M724.2,47.2,700.5,36.8l-29.9,3-2.5,4.8L646,33.3l-35.4,1.3,10.8,9.1,24.2-.4,28.1,15.1,50.5-11.2Z"/><path class="e" d="M92.9,343.2,172,224.8l102.4-76.9,49.7-82.1,51.8,60.9,23.4-14.3,48.4,59.7,29.4-5.2L597.2,342.3l-278.7-3.9L92.9,343.2Z"/><path class="c" d="M344.4,159.5l19.9-23.7,16,16,17.2,6.9,5.7-8.7,9.9,13.9,4.8-13.4,17.9,6.9-36.5-45-23.4,14.3L324.1,65.8l-49.7,82.1L239,174.4l2.5-.2,38.9-21.1L298.6,125l-8.7,34.5,20.8-13.4,6.5,11.3L328.4,144l16,15.5Z"/><path class="e" d="M832.3,284.4l83.8-83.8,27.7,8.6,87.3-81.6,16.4,12.1,24.6-28.6,70.4,73.1,33.3-22.9,41.5,46.2-9.9,159-433-6.5,57.9-75.6Z"/><path class="c" d="M1175.8,161.3l-33.3,22.9-70.4-73.1-24.6,28.6-16.4-12.1-87.3,81.6-27.7-8.6-38.4,38.3,28.9-19.7,3,16.4,18.2-19.5-1.3,10.4L968,206.6,992.2,182l9,1.7,27.7-20.3-13.8,25.5,23.7-22,.9,16.8,23.3-19.8,16,35.8,16.9-23.7,9.9,13.8,6.1-14.7,54,41.9-12.1-20.7,12.1-10.8,12.5,10.3,4.3-9,25.2,10.2-32.1-35.7Z"/><path class="f" d="M-38,223l81-76,16,13,51-60,66,95L312,337l-337,8Z"/><path class="c" d="M20.4,177.5l.6,8.3,15.3-12.2,3.3,7.8,17.3-16.5,5.7,8.7L82.3,150l7.2,8.6,12.8-11,26.6,24.8-8.1-26.3,9.6,1.8,9.5,13.7,12.5-.5L110,100,59,160,43,147,8.2,179.7Z"/><path class="f" d="M497.8,243.4,559.2,182l12.9,13.8,53.6-70,21.6,20.3,44.5-51.8L745,171.6l25.9-15.1,54.9,51,23.8-15.1,170.2,155.1-612.3-3,90.3-101.1Z"/><path class="c" d="M572.1,195.8,559.2,182l-54.8,54.8,7.2-2.9,38.9-31.2,3.5,9.6,13.8-10.9-13.4,22.5L573,213.5l26.3-28,8.3.8L627,166l4.8,12.5,18.1,9.1,21.2-27.2,9.5,11.7,16-16,6.5,8.2,6.9-12.1,43.2,47.5,7.3-5.2,16.9,8.7,12.5-7.8,19.5,28.5,9-6.5,25.1,7,20.3,10.3,23.4,7.4,14.2-2.5-51.8-47.2-23.8,15.1-54.9-51L745,171.6,691.8,94.3l-44.5,51.8-21.6-20.3-53.6,70Z"/><path class="g" d="M254.7,220.6l-36-1.4-1.1,47.7,23.1,6.6,14-52.9Z"/><path class="h" d="M278,253.4l27.1,5.7-1.5,10.7-9-2.6L278,253.4Z"/><path class="i" d="M266.2,244.1l9.3,16.9,19.1,6.2-20-33.4-8.4,10.3Z"/><path class="j" d="M267.4,256l7.2-22.2-12.5-3Z"/><path class="k" d="M294,194.8l3.5,9.8-6.8,2-.9-2.5,4.7-1.1-1.6-3.4,1.1-4.8Z"/><path class="l" d="M230.9,209.6l8.2,10.9-.3-19.9Z"/><path class="j" d="M297.4,178.3l-30.7-6.7,15.7-12.5Z"/><path class="d" d="M297.4,178.3,289.2,223l-19.5-2.8-7.6,10.6-11.4,6.3-11.6-16.6-.1-19.2,28.3-29.7,30.1,6.7Z"/><path class="e" d="M266.5,181.5l4.8,7.5,4.3,9.9,1.5,3.8,2.5-3,.5-6.7,12.4-5.5-9.8-2.6-4.8-.8-11.4-2.6Z"/><path class="f" d="M262.4,170.5l-8.5,46.9,8.2,13.4-11.4,6.3-11.6-16.6-8.2-10.9,11.7-19.5,19.8-19.6Z"/><path class="k" d="M249.5,189.1l.4,11-11.8.1.7-3.2,8-.1v-5.2l2.7-2.6Z"/><path class="h" d="M267.7,172.9,239,201.3l-8.1,8.3-4.1-32.1L251.6,154l30.8,5.1-14.7,13.8Z"/><path class="j" d="M226.8,177.5l-18.7,8,22.8,24.1Z"/><path class="l" d="M269.7,220.2l-20.8-3.9,13.2,14.5Z"/><polygon class="m" points="283.7 183 283.2 185 293 187.5 283.7 183"/><polygon class="m" points="278.5 182.1 266.5 181.5 277.9 184.1 278.5 182.1"/><path class="c" d="M277.9,184.1l-2.3,14.8,4,.8,2.9-14.8Z"/><path class="i" d="M268.9,207.6l7.6-.7,5.4,3.5-6.5-.2Z"/><path class="i" d="M268.9,207.6l-4.2-1.5,10.6,7.1,10.6-2.6-4-.2-6.5-.2Zm-25.3,19.5-7.7-.2-1.7,30.3-1.7,22.2,19.7-4-1.5-38.3-7.1-10Z"/><path class="h" d="M250.7,237.1l11.4-6.3,7,12.2-3.6,30.1-13.3,2.3-1.5-38.3Z"/><path class="i" d="M232.5,279.4l33.3-8.7-.1,7.3-32.3,6.3-.9-4.9Z"/><path class="g" d="M233.4,284.3l5.3,25.4,48.1-10.2L265.7,278l-32.3,6.3Z"/><path class="j" d="M235.9,226.9l-1.7,29.6-9-28.5Z"/><path class="d" d="M305.1,259.1l9-.2-1,10.5-9.5.4,1.5-10.7Z"/><path class="f" d="M314.1,258.9l4.7,4.1-.3,4.8-5.4,1.6,1-10.5Z"/><path class="h" d="M234.2,256.5l-13.7,2.4-7.6-8L225.2,228Z"/><path class="i" d="M212.9,250.9l-4.5,20.4,7.5,4.8,4.6-17.2-7.6-8Z"/><path class="d" d="M208.4,271.3l-.7,7,7.8,6.5.4-8.7Z"/><path class="e" d="M207.9,279l3.4,9.3,4.2-3.5-7.6-5.8Z"/><path class="j" d="M239.1,220.5l-.3-19.9-7.9,9Z"/><circle class="n" cx="270.84" cy="189.88" r="2.22"/><circle class="n" cx="285.06" cy="192.4" r="2.04"/><path class="i" d="M382.7,193.7l-11,11-2-12Z"/><path class="l" d="M372.3,162.7,383.5,181l-.8,12.7-12.5,1.1,2.1-32.1Z"/><path class="g" d="M344.6,153.4,307.7,165l24,68.1,30.7-5-17.8-74.7Z"/><path class="o" d="M337.2,165.8l18.7,6.4,7.8,42.7-21,4.8-7-24.4-2-28.5Z"/><path class="k" d="M365.2,157.9l5.8,30.6,6.5-7.5L372,157.2Z"/><path class="d" d="M327.9,105l45.4-7.2,14,53.2-22.9,6.3-8,15.1-19.2-6.6v-6.6l-2.6-14.5-8.2.9-1.7-12,9.7-1.7L327.9,105Z"/><path class="f" d="M336.5,103.5l15.7,57.1,12.7-3.4-8.5,15.2-19.2-6.6v-6.6l-2.6-14.5-8.2.9L324.7,134l9.7-2.1L327.9,105l8.6-1.5Z"/><path class="e" d="M347.7,117.6l8.4,5.1,8.1,13.8,3.1,2.9,1.7-4-4.1-14.7,9.5-10.3-7.9,1.6-18.8,5.6Z"/><path class="c" d="M358.6,114l5.2-1,5.2,22.4-4.8,1.1L358.6,114Z"/><path class="j" d="M357.2,123.7a2,2,0,0,1-2,2.2,2.48,2.48,0,0,1-2.1-2.4,2,2,0,0,1,2-2.2A2.32,2.32,0,0,1,357.2,123.7Z"/><path class="i" d="M356.8,144.2,369,143l7.9-2.9.4,1.9-7.9,2.2-12.1,1.6Z"/><path class="l" d="M367.8,156.5,347,162l8.9,10.2Z"/><path class="j" d="M327.9,104.6l-10.4,3-8.8,29.5,28.5,22.1-2.6-14.5-8.2.9L324.7,134l9.7-2.1-2.3-11.7Z"/><path class="o" d="M327.2,137.1l4.5-.9,1.1,5.5Z"/><path class="j" d="M347.7,117.6l5.5-3.6,6.5-.5Zm26.7-7.2-12.1,2.9,5.6-2.9m4.3,9.9a2,2,0,0,1-2,2.2,2.48,2.48,0,0,1-2.1-2.4,2,2,0,0,1,2-2.2A2.32,2.32,0,0,1,372.2,120.3Z"/><path class="h" d="M317.5,107.6l20.3,1,35.5-10.8-44.8-5.9Z"/><path class="l" d="M328.5,91.9,347,74.8l26.3,23Z"/><path class="h" d="M347,74.8l28.9-10.6-2.6,33.6Z"/><path class="j" d="M369.9,77.6l6-13.4,14.9,8.7-7,13.8Z"/><path class="k" d="M337.2,165.8l-11.7,3.3,10.2,26.2,6.5-2.1Z"/><path class="i" d="M355.9,172.2l9.7-12.6,5.4,28.9,3.3,21.2-10.6,5.2-7.8-42.7Z"/><path class="j" d="M342.7,219.7l20.7-6.6,10.7-2.9,1.4,8.4L344.1,227l-1.4-7.3Z"/><path class="h" d="M344.1,227l21.7,12.9,9.7-21.3L344.1,227Z"/><path class="i" d="M375.5,218.6l22.7,34-13.9,8.9-18.5-21.6,9.7-21.3Z"/><path class="h" d="M384.3,261.5l13.9-8.9,5,10.5-17.3.6Zm-18.5-21.6-5.5,25-15.5.8-.7-38.7,21.7,12.9Z"/><path class="i" d="M325.5,169.1l-.5,45.4,17.7,5.2-7-24.4Z"/><path class="b" d="M335.7,195.3l-15.3-14.4,9.2,24.4,6.1-10Z"/><path class="c" d="M320.4,180.9l10.8-6,7.1,17.5-2.6,2.9Z"/><path class="p" d="M383.5,181h-6l-6-17.8,10.4,3.6Z"/><path class="h" d="M954.3,251.9l-2,44,10.5-2.5V251.9Z"/><path class="q" d="M929.3,232.9l-25.5,21,112,10-19.5-28Z"/><path class="r" d="M945.8,200.9l-41.5,35.5,119,6-29.5-41.5Z"/><path class="q" d="M948.3,174.4l-20,31.5,82-3.5-28-44Z"/><path class="r" d="M931.8,186.9l39.5-57,26.5,29.5Z"/><path class="h" d="M1107.2,236.5l2,34.5h6.5l-2.5-36.5Z"/><path class="q" d="M1083.2,243.5l63-7-21-14-36,1Z"/><path class="r" d="M1079.7,228l59.5-4.5-20-11.5-23-3.5Z"/><path class="q" d="M1084.2,213l51,2-20-29.5-14.5,5.5Z"/><path class="r" d="M1090.7,196.5l36.5-5.5-21-24.5Z"/><path class="h" d="M608.3,269.5l-4,30.5,3,.5,4.5-31Z"/><path class="q" d="M591.3,270.5,605.8,259h12l8.5,15.5Z"/><path class="r" d="M594.8,261.5l16-17.5,10,1.5,9,22Z"/><path class="q" d="M602.3,249l29,2-10.5-20.5h-8.5Z"/><path class="r" d="M603.8,233l26-.5L614.3,209Z"/><path class="h" d="M38.8,313l-1.3,30.5H33.2l1.6-32.3Z"/><path class="q" d="M54.7,319.2,13,313l13.9-12.4,23.8.9Z"/><path class="r" d="M57,305.4l-39.4-3.9,13.3-10.2,15.2-3.1Z"/><path class="q" d="M54,292.2l-33.7,1.7,13.2-26.1,9.6,4.9Z"/><path class="r" d="M49.7,277.6l-24.1-4.9L39.5,251Z"/><path class="h" d="M132.5,267l3,34.5H130l-2.5-35Z"/><path class="q" d="M106,272l51-5.5L141.5,249l-27,3Z"/><path class="r" d="M106,256l44.5-2.5-11-18.5L117,233.5Z"/><path class="q" d="M107.5,238.5,147,240l-17-23-8-.5Z"/><path class="r" d="M114,221.5l25,2.5-7-37Z"/><path class="e" d="M69.5,313.5l-88.5-8L-23,345l73-10.5Z"/><path class="o" d="M120.5,326.5,105,295l-52,1.5L45,328Z"/><path class="l" d="M105,295l35-5,38,47.5-57.5-11Z"/><path class="b" d="M140,290l-63-5L53,296.5l49.5-1Z"/><path class="e" d="M923,286.5,830,283l55,19.5Z"/><path class="h" d="M1154.5,273l28,14-2,11.5L1143,307l-22-7Z"/><path class="l" d="M1033.5,289.5,1063,260l91.5,13-43,36Z"/><path class="h" d="M983.5,280.5,945,283l-13,30.5,76-9Z"/><path class="b" d="M945,283l42-15.5-3.5,13Z"/><path class="l" d="M984.5,267.5l43,30.5-19.5,6.5-24.5-24Z"/><path class="l" d="M1063.5,324l-7-13,16.5-34,81.5,34.5Z"/><path class="o" d="M877,304l46-17.5,41,22-62,10Z"/><path class="l" d="M914,313l-65-26,5,37Z"/><path class="e" d="M514.5,334.5l71-8,43.5,9-89.5,17Z"/><path class="o" d="M423.5,339.5l55,40h-139l-64-14Z"/><path class="l" d="M305,334l143.5-4,27.5,2.5-200.5,33Z"/><path class="f" d="M175.5,365l45-27,84.5-4-29.5,31.5Z"/><path class="l" d="M201,315.5l49.5,4.5-30,18L191,344.5Z"/><path class="o" d="M142.5,331,201,315.5,198,344Zm190-71L320,281.5l18.5-8Z"/><path class="l" d="M389.5,262.5l-14,30,116-21Z"/><path class="b" d="M389.5,262.5l168-9.5L606,289.5l-120.5-17Z"/><path class="o" d="M375.5,292.5l110-20L575,285,452.5,309.5Z"/><path class="l" d="M389.5,262.5l-57-2.5,6,13.5Z"/><path class="f" d="M389.5,262.5l-51,11L237.5,305l96,14,42-26.5Z"/><path class="l" d="M375.5,292.5l77,17-4,20.5-115-11Z"/><path class="o" d="M448.5,330l-228,8,17-33,96,14Z"/><path class="e" d="M220.5,338,99,320,49.5,371l126-6Z"/><path class="l" d="M99,320-7,326.5l-9.5,44,66,.5Z"/><path class="f" d="M425.5,341l50.5-8.5,36.5,2,63.5,33-97.5,12Z"/><path class="o" d="M452.5,309.5,516,322l-3.5,12.5-64-4.5Z"/><path class="f" d="M452.5,309.5,575,285l31,4.5L516,322Z"/><path class="l" d="M516,322l90-32.5,104.5,16-12,11-186,18Z"/><path class="f" d="M585.5,326.5l43.5,9,99,8,39-27H698.5Z"/><path class="o" d="M698.5,316.5,724,288l42.5,13,.5,15.5Z"/><path class="e" d="M724,288l44-3.5L766.5,301Z"/><path class="l" d="M679.5,339.5,576,367.5,543.5,350,629,335.5Z"/><path class="o" d="M679.5,339.5l48.5,4L718.5,379,576,367.5Z"/><path class="h" d="M728,343.5l123-7-8,23L718.5,379Z"/><path class="e" d="M767,316.5l73,4,11,16-123,7Z"/><path class="f" d="M851,336.5l139.5,5-2-41L840,320.5Z"/><path class="o" d="M851,336.5l139.5,5,22,28L843,359.5Zm9-19-20,3L810,319l16-45,21.5-11.5Z"/><path class="l" d="M826,274l-58.5-7,.5,17.5L766.5,301l.5,15.5,43,2.5Z"/><path class="b" d="M767.5,267l49-9.5,31,5L826,274Z"/><path class="l" d="M988.5,300.5l68,10.5,7,13-73,17.5Z"/><path class="h" d="M990.5,341.5l73-17.5,34,9-85,36.5Z"/><path class="f" d="M1012.5,369.5l85-36.5,87-10-6,43.5Z"/><path class="b" d="M1063.5,324l117-25.5,4,24.5-87,10Z"/><path class="f" d="M1073,277l-84.5,23.5,68,10.5Z"/><polygon class="s" points="575.25 275.92 489.26 269.25 413.37 276.7 489.43 285.28 575.25 275.92"/><polygon class="t" points="467.17 270.27 450.82 276.68 447.97 270.36 450.27 259.82 455.32 257.93 462.85 260.3 467.17 270.27"/><polygon class="t" points="529.23 261.82 522.77 273.54 510.03 266.93 508.97 259.64 520.47 254.3 529.23 261.82"/><polygon class="u" points="520.93 254.7 510.03 266.93 508.97 259.64 512.73 255.59 520.93 254.7"/><polygon class="u" points="450.27 259.82 456.88 257.93 462.85 260.3 448.91 266.08 450.27 259.82"/><polygon class="g" points="520.88 271.66 510.03 266.93 510.84 275.74 545.11 276.03 544.92 266.55 529.23 261.82 520.88 271.66"/><polygon class="g" points="473.62 280.18 473.44 269.98 458.37 268.39 451.86 275.03 447.97 270.36 447.53 280.18 473.62 280.18"/><polygon class="r" points="512.08 197.02 527.25 243 516.24 253.02 503.67 251.82 498.03 234.76 487.4 227.84 472.47 251.82 462.85 257.93 447.01 250.63 447.17 204.68 455.47 182.05 512.08 197.02"/><polygon class="q" points="507.66 200.49 523.63 245.75 517.6 248.81 499.87 208.87 507.66 200.49"/><polygon class="q" points="496.51 219.33 511.13 251.11 503.67 251.82 487.4 227.84 488.61 208.69 496.51 219.33"/><polygon class="q" points="478.59 220.85 466.75 253.05 460.45 252.4 470.4 209.36 478.59 220.85"/><polygon class="q" points="464.38 200.91 455.63 253.26 450.15 250.92 452.15 211.73 464.38 200.91"/><polygon class="v" points="527.25 243 503.67 251.82 508.97 259.64 530.24 252.04 527.25 243"/><polygon class="v" points="472.47 251.82 447.01 250.63 446.99 259.64 467.04 260.55 472.47 251.82"/><polygon class="v" points="496.51 219.33 487.4 227.84 478.59 220.85 488.61 204.3 496.51 219.33"/><polygon class="w" points="548.34 151.01 553.6 136.93 561.89 139.83 569.32 146.62 554.52 159.77 548.34 151.01"/><polygon class="x" points="556.95 146.36 551.85 132.34 547.42 132.43 548.34 151.01 552.42 155.56 556.95 146.36"/><polygon class="x" points="553.6 136.93 566.58 123.41 574.8 131.1 569.32 146.62 553.6 136.93"/><polygon class="t" points="415.35 182.81 440.21 199.62 446.99 186.06 415.35 182.81"/><polygon class="l" points="423.59 115.91 477.27 116.39 468.56 127.56 448.06 128.38 423.59 115.91"/><polygon class="g" points="448.52 124.24 423.59 115.91 421.41 133.58 421.29 147.01 418.46 157.55 415.35 182.81 456.14 188.66 448.52 124.24"/><polygon class="t" points="469.81 121.59 448.52 124.24 447.49 133.57 443.96 187.23 481.59 179.01 469.81 121.59"/><polygon class="h" points="421.41 133.58 427.65 137.53 436.65 139.13 432.92 164.32 418.46 157.55 419.83 146.4 421.75 141.72 421.41 133.58"/><polygon class="l" points="436.65 139.13 419.83 146.4 421.41 133.58 436.65 139.13"/><polygon class="y" points="504.26 138.06 513.14 165.89 512.08 197.02 496.51 219.33 488.61 208.69 478.59 220.85 460.41 195.33 446.99 193.24 449.42 167.56 468.56 127.56 504.26 138.06"/><polygon class="t" points="490.44 164.94 479.5 194.72 488.61 201.71 498.34 195.02 490.44 164.94"/><polygon class="z" points="498.34 195.02 479.5 194.72 488.61 208.69 498.34 195.02"/><polygon class="z" points="500.02 154.36 490.44 164.94 481.35 153.02 491.35 151.27 500.02 154.36"/><polygon class="aa" points="454.88 162.43 454.88 143.43 447.49 133.57 429.21 175.42 442.04 174.76 449.42 170.69 454.88 162.43"/><polygon class="q" points="510.8 136.68 524.16 148.27 521.29 156.32 513.14 165.89 510.8 136.68"/><polygon class="ab" points="524.16 148.27 541.77 162.55 538.58 169.18 521.99 172.1 513.14 165.89 524.16 148.27"/><polygon class="y" points="521.99 172.1 548.37 150.72 562.06 164.94 536.97 182.53 521.99 172.1"/><polygon class="ab" points="491.35 151.27 481.98 134.75 468.56 127.56 466.03 163.7 491.35 151.27"/><polygon class="ab" points="510.8 136.68 495.16 139.99 491.35 151.27 513.14 165.89 510.8 136.68"/><polygon class="q" points="468.56 127.56 447.49 133.57 454.88 162.43 468.56 127.56"/><polygon class="aa" points="508.06 123.31 498.03 131.37 498.03 146.4 510.8 136.68 508.06 123.31"/><polygon class="aa" points="472.52 108.75 468.56 127.56 480.31 139.79 479.5 124.53 472.52 108.75"/><polygon class="v" points="449.42 113.28 472.52 108.75 473.77 102.1 469.77 94.74 460.54 100.6 449.42 113.28"/><polygon class="q" points="547.62 68.87 537.96 89.29 534.88 114.89 541.26 110.31 547.07 108.92 553.03 105.99 552.12 73.78 551.44 69.71 547.62 68.87"/><polygon class="ab" points="541.34 88.66 547.07 108.92 534.88 114.89 536.61 107.01 540.84 104.85 539.27 99.03 541.34 88.66"/><polygon class="w" points="547.62 68.87 531.46 127.26 508.06 123.31 496.11 141.88 491.35 151.27 486.41 134.86 469.77 94.74 500.14 67.06 532.07 51.91 547.62 68.87"/><polygon class="ac" points="525.93 54.82 547.75 69.02 540.05 57.11 532.07 49.39 526.79 50.9 525.93 54.82"/><polygon class="x" points="520.16 95.31 516.13 77.13 511.4 68.01 523.56 67.7 523.87 73.18 520.16 95.31"/><polygon class="x" points="529.05 74.13 532.07 69.53 542.4 74.69 526.39 88.87 529.05 74.13"/><polygon class="ac" points="525.06 96.24 521.87 99.19 520.16 95.31 525.06 96.24"/><polygon class="x" points="500.14 67.06 489 119.29 498.49 127.26 503.05 134.86 498.03 146.4 491.35 151.27 480.31 139.79 472.52 108.75 473.77 102.1 469.77 94.74 500.14 67.06"/><polygon class="ad" points="529.05 74.13 525.06 96.24 520.16 95.31 523.87 73.18 529.05 74.13"/><polygon class="ac" points="500.14 67.06 489.03 85.31 478.02 92.35 489.52 96.88 472.52 108.75 469.77 94.74 480.84 82.68 500.14 67.06"/><polygon class="q" points="532.07 69.53 539.05 68.31 542.4 74.69 532.07 69.53"/><polygon class="q" points="523.56 67.7 518.39 64.36 511.4 68.01 523.56 67.7"/><polygon class="y" points="533.51 108.11 518.25 117.51 503.97 102.91 533.51 108.11"/><polygon class="c" points="529.71 108.38 520.16 108.71 507.68 104.34 515.85 111.89 521.67 112.86 529.71 108.38"/><polygon class="ae" points="533.51 108.11 521 104.01 503.97 102.91 520.16 109.17 533.51 108.11"/><polygon class="ab" points="488.7 77.49 489.52 96.88 465.01 99.08 471.06 92.36 484.36 91.71 483.48 81.05 488.7 77.49"/><polygon class="ac" points="508.06 123.31 480.56 117.51 503.05 134.86 508.06 123.31"/><polygon class="q" points="500.14 67.06 465.01 79.2 441.21 95.05 449.42 113.28 500.14 67.06"/><polygon class="q" points="498.03 60.64 476.46 34.28 439.08 68.01 498.03 60.64"/><polygon class="q" points="439.08 68.01 423.59 82.59 441.21 95.05 442.67 79.2 439.08 68.01"/><polygon class="af" points="532.07 51.91 532.07 46.57 525.08 34.59 476.46 34.28 491.95 58.85 532.07 51.91"/><polygon class="r" points="532.07 51.91 552.12 73.78 563.06 60.41 525.08 34.59 532.07 51.91"/><polygon class="r" points="532.07 51.91 441.21 95.05 439.08 68.01 532.07 51.91"/><polygon class="x" points="460.41 195.33 464.38 200.91 452.15 211.73 447.17 204.68 450.15 196.57 460.41 195.33"/><polygon class="ab" points="429.21 175.42 443.64 207.18 460.41 195.33 449.42 170.69 429.21 175.42"/><path class="ag" d="M538.4,83.2a3.15,3.15,0,1,1-3.14-3.14A3.14,3.14,0,0,1,538.4,83.2Z"/><path class="ag" d="M518,78.64a3.15,3.15,0,1,1-3.14-3.14A3.15,3.15,0,0,1,518,78.64Z"/></svg>