<svg xmlns="http://www.w3.org/2000/svg" viewBox="0 0 900 350" width="900" height="350" style="width:100%;height:100%"><defs><clipPath id="a"><path d="M0 0h900v350H0z"/></clipPath></defs><g clip-path="url(#a)"><g display="block"><path fill="#ECECEB" d="M444.49996185 174.50000048l-11.75-5.75000021 35.25000191-5.7499998L480.49996352 156.25l15.50000024 3.25 26.68800163 22.37400055-78.18800354-7.37400007z"/><path fill="#DEDDDC" d="M422.74996948 182l-4-8.25 14-5 43 1.75 46.93799973 11.375 2.81200027 2.375s-9.75 9-10.75 9.5-92-11.75-92-11.75z"/><path fill="#C5C5C5" d="M386.74999237 194.75l18.99999619-14.25 13-6.75 41 11 57.1519966 5.44099998L516.24999238 200.75l-100.00000381 2-29.49999619-8z"/><path fill="#437D65" d="M148.49998474 226.49999976l23-15.66600013 63.33300018-1L278.49998474 233l-21.5 4-108.5-10.50000024z"/><path fill="#4A9274" d="M290.16697693 215.66699982L263.33397729 211.5 236.49997711 224l1.5 3.5 3-1.16599989L276.3339777 231l13.83299923-15.33300018z"/><path fill="#5CB28F" d="M148.49997711 219.33300018L172.66697693 228.833l-6.83399964 8.1680004-28 .66599942-5.5-6.49999976 16.16699982-11.83399988z"/><path fill="#5CB28F" d="M164.3329773 232l-15.5-1.83300018-16.5 1-23.5 10.33300018.5 2.83300018 18.66699981 2L133.3329773 242.5l31-10.5z"/><path fill="#627A49" d="M121.91697693 218.83400345l.9800005 4.26099872-18.30600071 29.86800099-.75199986-8.73700047 18.07800007-25.39199924z"/><path fill="#78905F" d="M121.04497957 208.16500092l-8.87500047 1.99000024 10.72700047 12.94000006 9.06300044-10.85600018-10.91500044-4.07400012z"/><path fill="#ECECEB" d="M113.49899292 244.37499237l19-1.875 107.58700562-6.76699829 4.41299438 2.5169983 12.5-1.25 143.16699219-11.33399964 498.33300781 27.83399963-160.66700745 96.66600037-633.72401428-22.91600037 9.39102173-82.875z"/><path fill="#292929" d="M890.49996948 252.83300209l-444.5-38.16700172-188.66700744 22.16699981L244.49996948 238.25l-21.23999023 2.09000206-39.17700196 1.24300003-12.41601562 4.25-39.16699219-3.33300018-7.5 2.75 46.5 7.5 50.55300904-10.11100006 71.6139984 10.52699852 63.5-3.33299828 64.66599275 6.99999905 40.16699981-8.33299923 123.45500183 3.72699928-91.28500175 19.96000009-4.20899964 16.18900008-88.3900013 18.45499992 257.72500611 22.66400147L805.49996948 309.5l93-55.9999981-8-.66699981z" opacity=".1"/><path fill="#5CB28F" d="M846.83296967 228.16600037l-9.83300019-6.41699982-18.5 4.41699982 12.66699982 17.66699981 24.33300018-7.99999976-8.66699981-7.66700005z"/><path fill="#79C8A7" d="M871.99996948 249.25l-5-9.5-14.5-13.75-15.5-4.25 5.83300019 10.75 29.16699981 16.75z"/><path fill="#5CB28F" d="M448.83396912 194.5l33.66700029-2 42.66500044 6.33300018L481.0009694 223l-32.1670003-28.5z"/><path fill="#79C8A7" d="M474.16698456 212.50000024L472.99898529 205l49.5-3.16699982 2.33399963 19-50.66600036-8.33299994zM448.8329773 194.5l-58.08300019-9.25-.25 35.58399963 59.66600037-5L448.83297729 194.5z"/><path fill="#5CB28F" d="M448.1669693 204.16600037L410.49896948 206.5l-37.66599981 17.66600037L428.49897003 225.5l19.66799927-21.33399963z"/><path fill="#437D65" d="M448.1669774 204.16699982L424.99897767 212l-28.83200073 20.16699982 91.33200073 6-39.33200025-34z"/><path fill="#4A9274" d="M471.1669693 211.5l1.83300018-6.5-24.16599989-10.5-38.3340001 12 14.5 5.5 36.1669998 4.5 10-5z"/><path fill="#5CB28F" d="M578.49996948 226l-66.049-11.768-39.451-9.232-27 9.66700006 10.5 11.16600012 8 .66699982 114-.5z"/><path fill="#78905F" d="M78.32197666 227.90699959l21.00400019-10.06900025 7.8119998 44.78699875-11.283 9.375-5.03400004-21.6989994-12.49899995-22.3939991z"/><path fill="#627A49" d="M118.24797821 247.34999943l-14.40899992-3.125-5.1500001 25.28700065 5.44000006 2.43099976 17.70599985-20.48500013-3.58699989-4.10800028z"/><path fill="#A2D083" d="M130.05197906 268.35500145l2.44799996-25.8540001-28.65999985 1.72500039 26.2119999 24.12899971z"/><path fill="#9CC372" d="M99.32597733 217.83899975l-31.49399949-11.00500012-10 31.16600037 41.49399949-20.16100025z"/><path fill="#5CB28F" d="M296.49998474 220.83300018L275.1669848 218.5 256.99998474 237l17.83299995 5.91600037 21.66700005-22.08300019z"/><path fill="#437D65" d="M417.16697693 233.50000226l-8.33300018 12.33400023-45.08499909-2.83400058 1.75-3.49999953 35.61399937-15.87000036 16.0539999 9.87000024z"/><path fill="#5CB28F" d="M386.49996948 229.99999976l26.5-8.99999976 24.2140007 6.85500002L448.49996948 239.75l-39.66699981 6.08399963-22.33300019-15.83399987z"/><path fill="#4A9274" d="M824.8329773 235.5l18-3 28.5 24.58399963-41.83300019-.25L824.8329773 235.5z"/><path fill="#5CB28F" d="M839.49996948 239.16600037l15.33300019 8.66700005 16.5 9.24999976 19.16699981-4.25-12-14.33399963-20-.66600037-15.66699981-5.33399963-3.33300019 6.66699982z"/><path fill="#9CC372" d="M129.0669794 196.49999905l-16.8970003 13.65599966 19.79000091 2.0840001-2.8930006-15.73999976z"/><path fill="#4A9274" d="M171.83397675 237.66600037l-.16799927 8.16699981-28.08200073-2.375-11.08399964-.95899987 6.16599941-6.33299994 26.16800023-4.16699982 7 5.66699982z"/><path fill="#4A9274" d="M171.66698122 245.83400154l20.9579997-7.20800018-14.55499988-15.27000046-13.23699993 8.64500022 6.83400011 13.83300042z"/><path fill="#D0CFCE" d="M506.49998522 181.83400059l16.18600035.04199981 3.1459999 1.125-10.54800033 9.78100014-37.5340004-6.28099996 28.75000048-4.667z"/></g><g display="block"><path fill="#DEDDDC" d="M711.97000694 26.16699982l-74.47099876 10L714.94900703 48.5l62.9810009 15.33399963L845.166008 21.5l-74.46999932 17.99999976-58.72600174-13.33299994z"/><path fill="#ECECEB" d="M845.166008 21.5l-52.76900101 7.333-75.74699974-14.66600018-79.15099907 22L699.62900925 35.5l71.91799926 8.33300018L845.166008 21.5z"/><g><path fill="#DEDDDC" d="M387.69599152 36.02500057l74.47000122 7.38300038-77.44900132 9.10500002-62.98199844 11.32000017-84.7350006-25.34700013 91.96899985 7.38199997 58.72699929-9.8430004z"/><path fill="#ECECEB" d="M236.99899292 38.48600057l70.2669983-.492 75.74700164-10.8280002 79.15200043 16.2420001-62.13000107-.4920001-71.91699982 6.15200042-91.11899948-10.58200022z"/></g></g><g display="block"><path fill="#939292" d="M57.87599969 243.62498474l-22.25000024 1.25L27.5 312.16798401l40.33399963 6.33300018 15.54199982-73-25.49999976-1.87599945z"/><path fill="#A5A5A5" d="M69.125 240.37498474l2.04199982 4.79100037-3.33399964 73.33300018 16.5-2 16-34.66600037L95.5 242.7489853l-26.375-2.37400055z"/><path fill="#939292" d="M106.1629982 268.6129837l-25.32999992 2.29100037-6.66699982 46.59500122 29.94300032 9.75 16.09000062-41.16800117-14.0360012-17.46800042z"/><path fill="#A5A5A5" d="M118.608998 272.62198639l9.1410001 1.29399872 6.75 42.16500091-30.3909998 11.16899872-2.18500042-47.1819992 16.68500012-7.44599915z"/><path fill="#D0CFCE" d="M115.66600037 266.6659851l-34.83300019 4.23700023 21.09100008 9.1650002 25.82500029-6.15200018-12.08300018-7.25000024zM95.5 242.74998474l-38.62599945-3.875-21.25 6 35.74999952 2 24.12599993-4.125z"/></g><g display="block"><path fill="#292929" d="M274.23701477 284.67600948L348.738015 295.1320095l76.1360008-11.76300002-79.40300082-7.84100008-71.2340002 9.14800007z" opacity=".1"/><path fill="#787879" d="M358.86701775 275.88100815l-13.3410008 12.78499985-19.45500064-3.61400032 8.06000042-47.2479992 20.01100063.27899933 4.72500039 37.79800034z"/><path fill="#939292" d="M364.42501974 236.13700867l11.9510007 48.3600006-30.85000039 4.16899873-1.94600105-50.86199952 20.84500074-1.66699981z"/><path fill="#88898A" d="M301.89101791 86.33300018l-20.0810008-12.15899658-13.131001 8.8239975 5.97500134 159.8089981 12.99299955 4.79499818 14.24400091-161.2689972z"/><path fill="#A5A5A5" d="M281.81101227 74.1740036l120.69000244 8.33799744 11.46400452 152.37400055-126.31900406 12.71599579-5.8350029-173.42799378z"/><path fill="#787879" d="M355.39301968 254.34100628l3.4740001 32.3779993 5.69599997-.69399929-6.67000007-32.23999881-2.5.5559988z"/></g><g display="block"><path fill="#ECECEB" d="M295.22101593 88.3480072l5.41899872 144.03799439 100.47100067-8.75499726-9.17200089-129.44599914-96.7179985-5.83699799z"/><path fill="#79C8A7" d="M361.09001637 219.60000896l-.55700017-9.03300023 5.55999995-.417-.55599976-6.80900007 11.94999981-.69500017.2789998 6.11500025 5.69799996-.41700006.83300018 9.17200017-23.20699977 2.08400011zM307.69301414 117.41000366l5.17600012-13.35900044 2.43200016 1.66700005 3.89099998-8.54599952 5.69799977 11.39499962 2.40600014-3.09000003 4.40300035 12.07499957-24.00600052-.14199925z"/><path fill="#C5C5C5" d="M306.47701263 129.82900548h54.61199952l.27799987 3.89199996-54.7519989.694-.13800049-4.58599996zM306.68601799 141.43300176l54.50799942-.76399994v3.85599994l-54.36999893 1.49399996-.13800049-4.58599996zM306.89401627 153.03600657l54.8199997-.903-.1040001 3.64799995-54.57799912 1.83999997-.13800048-4.58499992zM333.43601799 191.46000665l54.47399902-3.26599997.17200089 3.64799997-54.43899918 3.16199997-.20700073-3.54399997zM332.81001854 182.91300195l54.47399902-3.26599997.17399979 3.64799997-54.43999863 3.16199997-.20800018-3.54399997z"/></g><g display="block"><path fill="#292929" d="M318.10899353 303.72297797l-90.17700005-8.37599978-78.90699958 7.7379998 79.08399963 8.92700016 90-8.28900018z" opacity=".1"/><path fill="#585B5B" d="M204.95799541 296.4089768l-16.9989996 6.6599996-2.95699977-6.57199955 2.3909998-10.96099996 5.25299978-1.96499968 7.82399988 2.47099972 4.48799991 10.36699986zM269.48399448 287.62097907l-6.71599984 12.18299985-13.24099993-6.87099981-1.1029997-7.58099985 11.95099974-5.55200005 9.10899973 7.82099986z"/><path fill="#292929" d="M260.85499191 280.21297503l-11.32700014 12.72000026-1.10300016-7.58000016 3.90600013-4.2110002 8.52400017-.9289999zM187.39199305 285.53597641l6.875-1.96500015 6.20200014 2.472-14.4960003 6.00000012 1.41900016-6.50699997z" opacity=".2"/><path fill="#88898A" d="M260.80999136 297.84497333l-11.28200102-4.91199995.84000015 9.16099978 35.6360016.29900026-.20000077-9.85800004-16.32000005-4.91400027-8.67399991 10.22400022zM211.67299366 306.70997906l-.19000053-10.61100006-15.66799951-1.64900017-6.76800036 6.90200013-4.04599953-4.8550002-.45600033 10.2130003h27.12800026z"/><path fill="#5CB28F" d="M251.6539936 220.2479763l15.78100014 47.79999924-11.45000076 10.42300224-13.07500076-1.24900055-5.85799885-17.73600101-11.05800033-7.20100021-15.51700043 24.93600177-10.00699902 6.35099793-16.46300125-7.5889988.16400146-47.77100086 8.63100052-23.52999973 58.85199929 15.56599998z"/><path fill="#4A9274" d="M247.06499434 223.85497475l16.60300016 47.05999946-6.27000046 3.18200112-18.43400001-41.52900124 8.1010003-8.71299934zM235.47299409 243.43897533l15.19300055 33.04300023-7.75600051.73999977-16.91600037-24.93700004 1.2640009-19.90300012 8.21499943 11.05700016zM216.83299446 245.01897717L204.5259943 278.4979782l-6.54699993-.67500114 10.34200007-44.75300026 8.51200002 11.94900036zM202.06799221 224.29097748l-9.10600007 54.4300003-5.69599998-2.43099975 2.07999993-40.74900055 12.72200012-11.25z"/><path fill="#437D65" d="M267.43499088 268.04697418l-24.52499962 9.1739999 5.5159998 8.1310004 22.11399937-7.89800041-3.10499955-9.40699989zM210.47699356 277.22197533l-26.47000027-1.23799992-.02999973 9.36899996 20.85099983.94700003 5.64900017-9.07800007zM235.4719925 243.43897748l-9.4779997 8.84600043-9.1619997-7.26600027 10.42599964-17.20800066 8.21399975 15.6280005z"/></g><g display="block"><path fill="#4A9274" d="M248.10499573 155.18299866l16.11499977 14.37299955-2.98499966 8.37699997-8.47200012 9.94599962-6.533-17.77099955 1.875-14.9249996z"/><path fill="#9CC372" d="M264.21999598 169.5549984l13.80199956 12.59800005 7.20899964 12.18199968-18.9009993 5.40000057-13.5669992-11.85600018 11.4569993-18.32400012z"/></g><g display="block"><path fill="#78905F" d="M243.52799988 158.9469986l9.23600006 28.93099975-1.11100006 32.37000084-16.18100167 23.19099999-8.2149992-11.05699921-10.42500007 12.63599777-18.89600002-26.52700043-13.960001-2.1779995 2.52800179-26.70399951 19.90299892-41.57899952 37.12100125 10.91699982z"/><path fill="#585B5B" d="M229.15299809 186.88799858l-11.37399972 30.9619999 9.47799966 7.26600074 10.10999969-6.95100021-8.21399963-31.27700043z"/><path fill="#515152" d="M237.36699772 218.1649971l-19.58799935-.31499958 9.47799966 14.533 10.10999969-14.21800042zM239.12299728 175.8899982l-9.97000017 11.00000024-9.4460002-12.39499998 10.39400018-1.82300044 9.0220002 3.21800018z"/><path fill="#9CC372" d="M230.10099792 172.67199993l-9.74099993-17.17100048-13.9530003-7.47200012-2.62599946 37.5680008 26.3199997-12.9250002zM248.93099928 158.18299866l-14.86299992 2.7689991-3.96700048 11.72100046 22.66200065 15.20599958-3.83200025-29.69599914z"/><path fill="#627A49" d="M246.31099987 143.10199928l-9.16900015 9.7409997-3.21099996 13.25299978 15-7.91299963-2.61999989-15.08099985zM207.61999846 133.21099854l-1.21400023 14.81900006 13.69400024 16.02100009-3.02800011-15.60000009-9.4519999-15.24000006z"/></g><g display="block"><path fill="#437D65" d="M184.48200226 141.18899155l23.13800049-7.97799993.33399963-7.03400016-5.17500019-7.00199985-8.65999985 7.3599999-9.63700008 14.65400004z"/><path fill="#4A9274" d="M279.2360003 81.36699295l-7.01200032 22.41199946.49800014 26.81199956 5.91600013-5.63899994 5.78200006-2.2689991 5.71600032-3.86600017-5.55800032-33.0369997-1.28699994-4.09300041-4.05500007-.3199997z"/><path fill="#9CC372" d="M275.60899973 102.64799595l8.80999994 20.03499985-11.69799995 7.90699958-9.26000023-8.5079999 2.98700046-7.16499984 6.92199994 7.30400026 4.05099976-2.82900023-2.45299995-5.77399993-5.0730002 5.4289999-3.55700016-3.74899995 9.27100039-12.64999974z"/><path fill="#DFBEA7" d="M279.23600388 81.36699295l-8.2650013 62.44799995-24.65999937-.71099853-15.0800004 12.53000069-3.22499943 6.15099716-2.33600044-3.68499756-22.89000035-38.92500114 27.31100083-32.8579998 30.6970005-20.18999863 18.44799996 15.23999786z"/><path fill="#8F6C5A" d="M254.88700485 70.00799036l24.51399994 11.49500036-9.63899994-11.16600036-9.3340001-6.79800034-5.21600009 2.30400038-.3249998 4.16499996z"/><path fill="#C49A7F" d="M254.75500011 112.53399277l-6.76100003-18.1420002-6.17499984-8.71800041 12.47399998-2.05599976 1.10999966 5.59700012-.64799977 23.31900025zM260.86899996 89.44999027l2.44799995-5.17399978 11.37900019 3.83699941-14.44799996 16.89699984.62099982-15.55999947z"/><path fill="#8F6C5A" d="M259.93900013 112.7899884l-2.86500001 3.49600005-2.319-3.7520001 5.18400001.25600005z"/><path fill="#C49A7F" d="M230.09100151 86.31698608l-3.98799992 55.38200188 10.91700078 6.84499931-3.0890007 17.5530014-3.82999993 6.57600022-10.0000002-8.62200165-12.48200015-30.83899974.33600044-7.03500009-5.17500114-7.00199962 27.31100082-32.8580017z"/><path fill="#E9CCB9" d="M260.86900401 89.44999123l-.92999983 23.34000015-5.18400001-.25699997.648-23.31900024 5.46599984.23600006z"/><path fill="#8F6C5A" d="M230.09100151 86.31599236l-8.82700014 20.38400006-10.32600021 8.82999968 12.49300003 3.00899983-15.8119998 14.67300033-4.84000015-14.0369997 9.67600011-14.0090003 17.63600016-18.8499999z"/><path fill="#4A9274" d="M263.31600475 84.2749899l7.02100015-2.254 4.35700011 6.092-11.37800026-3.838zM254.29199982 83.61798999l-5.79900006-2.70099995-6.67300007 4.7579999 12.47200013-2.05699995z"/><path fill="#78905F" d="M270.34100342 123.80298758L255.9690032 135.671988l-16.79400015-12.99400043 31.16600037 1.125z"/><path fill="#FFFEFF" d="M266.56400013 124.62899113l-9.77800036 1.74999994-13.48800039-2.72600001 9.51600027 6.63400006 6.13700009.148 7.61300039-5.806z"/><path fill="#4F683D" d="M270.34100342 123.80299035l-13.47400022-2.42900005-17.69200015 1.30400002 17.56700015 4.1220001 13.59900022-2.99700007z"/><path fill="#9CC372" d="M219.80100346 98.69799042l3.63000011 19.84100008-24.9300003 5.78300047 3.40299987-5.0250001.9630003-1.42300033.90100002-1.32999993 13.60199976-2.58299994-2.4369998-10.8509996 2.48899985-2.25600052 1.58400011-1.43599987.79500008-.72000026z"/><path fill="#8F6C5A" d="M246.31099987 143.1019907l-29.14999962-2.02500057L233.931 166.09699059l12.37999988-22.99499989z"/><path fill="#4A9274" d="M230.09100151 86.31599045l-34.44100046 17.5390005-22.23100042 19.73699952 11.06299972 17.59800053 45.60900116-54.87400055zM226.99500084 80.00299168l-25.99699998-24.04799939-33.64899993 40.09199906 59.6459999-16.04399967zM167.34900165 96.04799175l-13.86599994 17.24300027 19.93400001 10.30100036-.76900005-16.5340004-5.29900002-11.01000023z"/><path fill="#79C8A7" d="M260.78800583 66.1269908l-.76600075-5.49600006-8.914999-11.3360002-50.10900117 6.65999985 19.47600079 23.08200073 40.31400013-12.91000032z"/><path fill="#5CB28F" d="M260.78799915 66.12699115l23.78999996 19.65200055 9.34700013-15.3370006-42.8180008-21.14700056 9.68100071 16.83200061z"/><path fill="#5CB28F" d="M260.78800201 66.12598991l-87.3690033 57.4659996-6.06900024-27.54399978 93.43800354-29.92199982z"/><path fill="#3C3C3B" d="M271.7990036 97.44699118c.24899984 1.78699997-.99800014 3.43899992-2.78500005 3.68799999-1.78800002.24900007-3.43899993-.99900007-3.68700007-2.787-.24899984-1.787.99800014-3.4379999 2.78500006-3.68699998 1.78800001-.24900007 3.43799999.9979999 3.68700006 2.78599999zM250.18100023 95.67399237c.24900008 1.78699997-.99900007 3.43799999-2.787 3.68700006-1.787.24899984-3.4379999-.99800014-3.68699997-2.78600007-.24900008-1.787.9979999-3.43699998 2.78599998-3.68600005 1.78699997-.24899983 3.43899992.99699998 3.688 2.78500006z"/></g><g display="block"><path fill="#627A49" d="M192.18499565 184.27699947v-19.75199985l-7.68799972-10.25300026-19.00399971 43.51399994 13.34599971-.6800003 7.66400004-4.23200036 5.68199968-8.59699917z"/><path fill="#4A9274" d="M206.40699577 148.02999878l-21.90999984 6.24200058 7.68799996 30.00600052 14.22199988-36.2480011z"/></g><g display="block"><path fill="#C49A7F" d="M197.9369955 218.49199486l4.13100053 5.79999971-12.72200037 11.24999952-5.17600035-7.32999956 3.0960002-8.43900001 10.671-1.28099966z"/><path fill="#9CC372" d="M165.49299622 197.78599262l15.00900006 33.01700115 17.43500018-12.3100009-11.43300009-25.6180005-21.01100015 4.91100025z"/></g><path fill="#78905F" d="M278.02299309 182.15300083l20.47700023-7.23700046.74999905 23.25-32.91999817 1.56800079 11.69299889-17.58100033z" display="block"/><g display="block"><path fill="#8F6C5A" d="M298.06100082 175.3060019l11.87999964-4.3610003 6.3630004 3.49400044-8.38800043 12.97000026L297.75 186.45200205l.31100082-11.14600015z"/><path fill="#585B5B" d="M305.10300064 194.04599762l36.03899956-67.98899841-3.90099907-1.72499848-36.60099983 67.20100022 4.46299934 2.51299667z"/><path fill="#C49A7F" d="M311.4320004 170.10100079l10.43500018 1.51999998-7.0880003 16.6500001-11.61600017-1.71500016 8.26900029-16.45499992z"/><path fill="#DFBEA7" d="M306.84699973 179.1859994l9.46900025-10.15300036-1.6880002-3.33799982-16.56800031 9.6120001.56200027 6.334 8.225-2.45499993z"/></g><g display="block"><path fill="#9FA3A4" d="M565.14703178 149.07100487l39.58099938 7.28499984-4.12800026 50.26599885-1.36199951 14.65500068-53.27599907-42.09400034 19.18499946-30.11199903z"/><path fill="#787879" d="M596.95801973 152.7140026l-1.296 3.2790003-1.49699974 23.19099998 17.72599983-1.33600045.12199974-27.56200027-3.27799988 1.45700073-11.77699995.97099972z"/><path fill="#9FA3A4" d="M660.49902916 154.00900269l11.65399933 68.31700134 37.88199997 2.59000015-3.23699951-75.44000244-41.11899949 5.18099976"/><path fill="#88898A" d="M822.549016 260.5319972l-5.82800007 16.7550006-11.17199993-2.42800046-4.12800026-17.97000026 21.12800026 3.64300012z"/><path fill="#787879" d="M702.58901834 151.74300385l1.94199992 4.85599899-3.31799984 60.06100082 13.19299984-5.18099975 3.48099994-61.1930008-15.29799986 1.45700074z"/><path fill="#C5C5C5" d="M672.2350254 146.40000296l45.65200043 3.88599991-13.35499954 6.3139999-35.29100037-4.04699994 2.99399949-6.15299987z"/><path fill="#787879" d="M718.13001251 258.34600067l52.93799973 7.28499985.72800064-22.09799957-53.66600037 14.81299972zM735.857018 276.31600165l6.07100006 10.43999982 7.16200021-2.66899967 6.07199955-19.18400001-25.8619995-1.94299984 6.55699967 13.3559997z"/><path fill="#88898A" d="M796.5660286 269.51700807c0 .72900009-7.52799798 22.58299994-7.52799798 22.58299994l-14.3260002-1.2140007-.97300054-19.6689992-28.16699981-4.12900018L741.92803 286.758008l-11.17099952-1.94299984-5.09899903-6.07000017.97099686-24.04099989 31.08300161 6.0710001 34.72500086-1.45699978 4.1289978 10.19899965z"/><path fill="#88898A" d="M820.12002373 249.848001l-31.32499981 12.3840003-16.02900028-24.28299999 32.0550003-4.12900066 15.29899979 16.02800035z"/><path fill="#787879" d="M811.13602124 163.64200592l22.82500018-2.4280014-2.21100044 109.5359993-15.02999973 6.538002.9710002-12.87100219-16.26999999 9.22800064-1.21399975 11.89900208-11.17000007 6.55599975-.24200058-29.86800003 26.71099996-13.11300087-4.36999978-85.47699928z"/><path fill="#9FA3A4" d="M822.79101753 167.77000046l-2.2670002 3.4810028-5.0170002 77.86899949-30.1119995-7.04299927 11.41400003-79.64900208 25.98199987 5.34199906z"/><path fill="#C5C5C5" d="M783.8570385 156.59900284l5.18099975.97200012 44.92300034 3.64300013-13.43700028 10.03700018-15.29799997-2.99500037-27.52100027 2.59000016 6.15200043-14.24700022zM578.50303078 147.89800262l34.53899955 2.77299989-17.38 5.32099998-20.39799987-.97099996 3.23900032-7.1229999z"/><path fill="#87614C" d="M525.16102457 180.72200394l-8.25700045 9.47000026-1.61800003 2.59099988 13.59800035 12.86900016 15.3800003-7.12200022-10.68500043-15.8659997-8.41799974-1.94200038z"/><path fill="#ECECEB" d="M546.6910286 173.35400295l-11.65500016-9.34899997-18.1320005 26.18599987 13.03200054 2.34800052 21.61200047-6.55700016-4.85700036-12.62800026z"/><path fill="#437D65" d="M543.7780304 181.12600327l-13.84199906 11.4130001 5.58499909 27.68300057 57.55099868-.97100067 5.82799912-32.29699994-55.12199783-5.82800006z"/><path fill="#4A9274" d="M550.09103012 156.479002l-15.05599976 7.52800083-5.09900093 28.53200054 61.43600083-1.13300133-.64700127-26.87299919-12.10199928-8.05400085h-28.53199959z"/><path fill="#D0CFCE" d="M638.80602074 165.9890027l-6.15100003-9.38999986-13.59900045 10.36199999-9.71400023 19.74999952 10.36000014.97200012 19.10400057-21.69399977z"/><path fill="#627A49" d="M627.7980194 179.58800316l-9.22900008 8.33700085 7.28499985 24.68799972 45.97600173 1.61900044 5.66699982-23.9590006-49.69900131-10.68500041z"/><path fill="#78905F" d="M639.21103191 155.62800217l-.40499973 10.3609991-8.3369999.56599999-6.79899978 3.64300012-5.10000038 17.72600031 57.30800056 4.77599907 2.18599892-31.00099945-8.9850006-1.57899952-29.86799909-4.49199962z"/><path fill="#FFFEFF" d="M625.22902834 141.2490027l-4.7290002-3.36500001 4.88800012 1.29899996 3.68500007.12199998 3.93500018-1.083-3.20200014 3.10399997-4.57700003-.0769999z"/><path fill="#ECECEB" d="M670.53602552 191.81100273l7.52700022-30.11199951 9.37999985 3.46099853-.55599976 36.04100037-2.99600029 3.9659996-14.64999962-4.53299903 1.2949996-8.82299996z"/><path fill="#9CC372" d="M759.235013 295.65399647l-3.92799949 5.11800012v4.52200022l27.84999943.11999989.23799992-4.2840001-24.15999985-5.47600013z"/><path fill="#627A49" d="M767.0890131 279.70599937l-5.35500002 7.97399998-6.42699957 13.092 28.08799935.35799981-1.90499974-12.02199984-14.40100002-9.40199995z"/><path fill="#4A9274" d="M750.66601753 227.81500149l-9.2729997 3.04199981-6.79400021 1.44099999-15.82999945 1.46799946-1.90400123 12.13900041 6.18900108 9.99799967 40.94099999-.71399975.7140007-17.37699985-14.04300118-9.99699974zM788.51202726 244.24000156l14.04399968-14.7579993-1.90399981 21.89899921-11.90199995 11.18699932-.23799992-18.32799923z"/><path fill="#4A9274" d="M783.03803253 240.66900063l5.7119999 21.89899921-7.26000023 26.54099941-19.75599957-1.4279995-4.88000011-27.01699972 26.18400001-19.9949994z"/><path fill="#5CB28F" d="M782.08602595 213.53300285l-20.3559997 35.11899948-4.87599946 12.01200104 31.89599896 1.90499878 14.02399921-33.81599998-20.687999-15.21999932z"/><path fill="#437D65" d="M761.73002708 248.65100574l13.76500046-6.8070004-14.44300043-10.68100046-11.72900045 7.03200042 12.40700042 10.45600044z"/><path fill="#88898A" d="M722.57803059 282.32500648l-4.44799996 11.23200036-10.92699986-.7290001-14.14299983-36.92399978 28.80200004-1.42900086.7159996 27.85000038z"/><path fill="#787879" d="M465.26402855 281.13500142l17.1379993 23.80300021 12.85299992-4.04599952 10.9489994-38.56200028-27.37399911-1.19000053-13.56599951 19.99500012zM614.828022 241.30300331l38.00599861 74.10899925 15.70999957-5.7140007 2.47700023-16.6269989 46.13799906-15.0550003.97200012 15.54100036 13.11299896-4.61400032 3.07600022-64.1420002L614.828022 241.30300331z"/><path fill="#88898A" d="M454.86902618 238.76399612l3.91799927 64.34400177 23.61400604 1.82900048 2.93499756-15.5900011 142.8180008 11.47700023 2.54199981 12.68299865 22.1380005 1.9050026 1.83300017-57.06400108-199.79800415-19.58400155z"/><path fill="#88898A" d="M611.77303314 218.96800232l42.89499665 39.38100052 87.84400177-26.42800093.02099609-18.66600084-130.7599945 5.71300125z"/><path fill="#9FA3A4" d="M527.9850254 222.77700424l-90.770998 5.07799912 1.90499878 17.77300024 215.54899598 12.72099924-.2709961-19.47799933-126.41200065-16.09399927z"/><path fill="#C5C5C5" d="M549.56702423 207.54200172l192.96599579 5.71299935-88.13599396 25.61499977-217.1819992-11.0159998 112.35199737-20.31199932z"/><path fill="#292929" d="M549.56703186 207.54200172l192.96600342 5.71399975-18.6150055 5.41100002-40.916996-2.41600001-49.9829998 10.28499973-2.5170002-10.78499973-41.5569992-1.51899994-19.44300461 6.76899982-19.93399811-13.45899964z" opacity=".1"/><path fill="#C49A7F" d="M646.25303078 210.34600002l22.98800063-9.71299965 13.67899918 4.04699946 4.12900162 6.9610002-30.75900078 6.4759996-7.85099983-2.75199986-2.18600082-5.01899975z"/><path fill="#8F6C5A" d="M686.85201931 201.2050004l.1970005 10.43700028-17.80800056-11.00800038 17.61100006.5710001z"/><path fill="#C49A7F" d="M639.21102095 212.2070055l-8.7420001-2.42800045-8.49900056 10.68500018 11.04900045 6.07100034 12.99100047-6.07100034-6.79900026-8.25699973z"/><path fill="#DFBEA7" d="M646.2530284 210.34600163l-15.78500033-.56599999 15.54100036 10.68400002 10.28100014-2.34700013-10.03700018-7.7709999z"/><g><path fill="#A98268" d="M515.2860241 192.7810049l-2.83399964 21.45100022 35.21099949 3.88500023 5.4630003-5.9090004-3.55999947-4.66599989-34.28000069-14.76100015zM575.83202267 212.69400324l-8.49999984-8.13500036-8.13599984 7.16400033.6079998 7.1629998 10.56299996 1.82100058 5.46499992-8.01300035z"/><path fill="#C09E87" d="M567.33302402 204.55899954l-17.76600027 2.9829998-1.9039998 10.57600021 12.14199996.76900006 7.52800011-14.32800007z"/></g></g><g display="block"><path fill="#757778" d="M605.82102552 147.13000298l-5.94900003-4.93700028 7.44000006-31.85900116 2.22399997 4.25300026 1.38800002 28.10300064-5.10300002 4.44000054z"/><path fill="#585B5B" d="M599.871027 142.19200325l11.5949993-1.61899948 2.47700024 6.4199996 25.1449995-4.1130004 7.04299927 15.05500031-16.22999906 8.70199966-30.02999926-24.44499969zM684.515028 130.50400543l-5.85199988 7.35599995-8.46500003 19.3909998-1.12099982 2.86999988 8.9849999 1.57899952 6.45299983-31.19599915z"/><path fill="#585B5B" d="M665.80302763 135.91300297l-7.69600058 14.69400024 5.88600064 10.47000027 5.0849998-.95500088 15.43700051-29.61799908-4.8180008-2.9810009-9.76299965.32600022-4.13099992 8.06400013z"/><path fill="#ECECEB" d="M641.63802385 168.1340003l-17.96900034 2.06400013 12.38400078-18.6170001 18.94099999 3.88500023 9.95599937-3.11600018 4.12700081 7.76999998-8.41700077 17.6869998-19.02199984-9.67299986z"/><path fill="#585B5B" d="M610.67702556 120.41800117l10.42299962-31.77700042-15.5239997 5.79399967-6.77599954 18.15600061 4.71399975 14.13999987 7.16299987-6.31299973z"/><path fill="#757778" d="M609.669025 117.35200119l11.43100018-28.71099949-15.35700035-2.73499966-6.94099999 26.68599987 8.51100016-2.25899982 2.356 7.0189991zM677.5700249 90.50500107l-7.00799983 13.32999992-.533 18.90499973-.717 8.04300023 15.20199966-.27799988-6.94399982-40z"/><path fill="#757778" d="M658.2990222 97.6070013l-3.3670001 9.95799971 10.91200023 20.94700003 3.46900005 2.2709999 8.2570002-40.27700042-6.61800003-1.73699951-12.65300035 8.8380003z"/><path fill="#585B5B" d="M636.65602684 95.61100245l-4.85099983-3.83799983 8.27399921-17.02199935 18.16600013-1.57400132 19.3259995 17.32900065-22.63999942 17.05899984-19.72699925 1.80400086 1.45199966-13.75800085z"/><path fill="#757778" d="M618.24102592 85.3890022l10.99500084-11.12399995 29.00900078-1.0880003-23.52900076 19.1590004-8.21900034 2.03100014-7.53899955-1.77000046-.71700097-7.20799983z"/><path fill="#8F6C5A" d="M658.63102436 151.63100195l-13.12500048-8.8840003-17.62700033 6.8210001 13.75900042 18.56700039 9.22700012-6.43500042 7.76600027-10.06899977z"/><path fill="#C49A7F" d="M667.53402615 137.59500384l-2.58399964 14.75500036-14.08500004 9.34899902 5.68599987-10.61400032-4.73399981-.22499847-15.01699964-2.89800072 12.25599957-7.80800009 5.875-32.58899927 11.10099983 19.04399967 1.50199986 10.98599982z"/><path fill="#DFBEA7" d="M651.81802368 150.86100006l-42.25699997-.87599945-2.24899864-39.65100098 11.64699936-17.7369995 15.6730001-.23600007 20.29999947 15.20499992-3.11400032 43.29500008z"/><path fill="#8F6C5A" d="M625.65202558 133.11500096l-2.80599987-2.21499997 2.08999988-.72699994 2.85399988.87599993-2.13799989 2.06599998z"/><path fill="#C49A7F" d="M635.71002549 118.04800296l-7.92100018 13.00099969-1.51799965-7.81399966 1.71299982-5.22399997 1.99800014-4.49499989 8.55699993-1.92299986 6.99999976 2.0909996-9.82899982 4.36400009zM622.11902475 113.53200197l1.5409999 4.24599982 1.17800044 5.138-1.9920001 7.98300029-6.66900015-13.27600027-5.79300022-4.07500004 4.69200015-2.5090003 7.04299998 2.4930005z"/><path fill="#585B5B" d="M660.33602363 111.83800268l-5.4040001-4.27300024 4.32000008 13.83200026 4.9800001 2.7920003-.17400026-9.3010003-3.72199982-3.05000002zM638.41702503 110.27100062l7.1219998 3.41400004-7.7349998-.77200002-7.82299981.60400004.77399969-1.88700003 7.66200012-1.35900003zM610.38402605 113.54800296l4.66200006-3.204 6.28200018 1.268.78999997 1.92100001-5.62600011-.546-6.1080001.56099999z"/><path fill="#E9CCB9" d="M622.8460257 130.90000153l.81299997-13.1210003 4.32500005.23300028-.19499994 13.03700018-4.94300007-.14900016z"/><path fill="#8F6C5A" d="M667.53402507 137.59500122l-5.39800012-8.87699985 3.70800013-.20699978 4.51200014 1.4289999-2.82200015 7.65499973z"/><path fill="#DFBEA7" d="M670.35702515 129.94100094l-1.83800006-4.59500003-1.361-1.12600005-.028-2.44999993-3.0729999-6.88100004-1.92200017 13.829 8.22200013 1.22300005z"/><path fill="#8F6C5A" d="M667.13102387 121.76900291l-1.09899996 4.84000016 2.48799991-1.26300013-1.38899995-3.57700003z"/><path fill="#585B5B" d="M605.74302483 85.90500212l13.21500027 6.6919999 10.2770003-18.32999991-23.49200057 11.638z"/><path fill="#3C3C3B" d="M616.64602476 119.92500138c1.157.06200004 2.1519999-.83300006 2.21399993-1.99000007.06000018-1.157-.83299994-2.15099996-1.98999993-2.213-1.15799995-.0610001-2.15200003.83200002-2.2129999 1.99-.06200004 1.15699996.8319999 2.15100004 1.9889999 2.21300007zM635.55702597 120.929003c1.157.06200004 2.15099996-.83300006 2.213-1.99000007.0610001-1.157-.83299995-2.15099996-1.99-2.21200007-1.158-.06200004-2.15199996.83100009-2.21300007 1.98900007-.06200004 1.15699996.83300006 2.15100003 1.99000007 2.21300007z"/><path fill="#79C8A7" d="M617.81602573 136.80300522l6.84500027 6.76399994 4.5869999-.204 7.41800022-6.52600002-9.5440002 2.08200002-9.30600019-2.11599994z"/><path fill="#4A9274" d="M626.61902457 137.12600124l-3.03300005.31499994-5.77100014-.63800001 8.93200019 3.5840001 9.91800019-3.55000007-6.68700028.811-3.3589999-.52199996z"/></g><g display="block"><path fill="#413632" d="M813.58595371 194.0149908l6.34800053 7.61699963 1.74499988 3.65000057-15.2340002 20.15299988-15.2340002-24.75500011 22.375-6.66499996z"/><path fill="#7A584C" d="M743.28695679 187.90499306l-20.70899964-3.09399987-20.70899963 12.37699974 13.80599976 15.23499978 20.94699955-4.28499985 6.66499996-20.2329998z"/><path fill="#627A49" d="M751.14195824 205.51999187l-6.66599942-34.51599979-21.89799976 13.80599928 14.04399958 23.3279996 14.5199996-2.61799909z"/><path fill="#78905F" d="M804.93795538 168.14699173l14.99500036 33.4840002-20.3920002 12.6960001-2.22800064-18.67700004 7.62500048-27.50300026zM787.77095985 160.20098877l2.3729992 23.2870016-2.22099877 40.84899999-14.74800062 7.97000122-12.12200022 1.2539978-11.72900009 4.63400269-7.9319992-7.3370018 3.08499908-59.85300065 9.37300014-1.93299865 33.92100048-8.8710022z"/><path fill="#627A49" d="M795.10595703 165.85599136l9.83200073 2.29199982-2.16400146 60.60499954-27.27899933 13.0909996-14.4430008-8.28299903 3.80500031-35.81200028 5.2140007-22.08200073 25.03499985-9.81099892z"/><path fill="#A2D083" d="M789.40595913 157.79199219l5.69900036 8.06400013-1.61600018 22.39299965-20.5560007 2.5369997 9.53800046-22.68499994 6.93500006-10.30899954zM757.70295763 190.78699207l-9.38000011-3.9140005 2.59000015-17.2819996 4.85600006-5.82800006 7.29800022 7.8970003-5.36400032 19.12699986z"/><path fill="#5F473E" d="M791.21096039 225.6729908l.31599998 7.5380001 7.37899971 5.23600007 30.9449997-15.78900016-8.17299938-17.3770002-30.46700001 20.39200019zM790.57596111 232.49599123l-14.43999982-6.58499956-6.90400004 12.37799978 7.14100003 7.77599955 12.37800002-4.20499945 1.82499981-9.36400032z"/><path fill="#7A584C" d="M776.13595772 225.9109888l16.00600004-.95199966 6.76400042 13.48799992-10.15600026 3.4119997-12.6140002-15.94799995z"/></g><g display="block"><path fill="#7A584C" d="M728.24197388 96.0370102l-1.38299942 18.3600006-2.83800125 40.84000016 23.79000091 3.47499942 15.57200003 12.8720007-1.47300005 15.82699966 9.82400036 4.15200043 22.5890007-65.7709999-.80900192-7.59700013-8.87799836-21.31299973-36.61400032.41799927-19.78000068-1.26300049z"/><path fill="#5F473E" d="M784.63497448 96.88201141l-12.19400024 67.40499878-6.0880003-2.74400043-18.54199982-2.83199978 8.15399933 8.59899902 2.7880001 10.18200112-1.05200004 13.29400062 7.15500069 6.96399689 8.07599997-6.96399689 16.47299981-32.99400139 5.05800057-10.69899983-.1400013-5.60500007 4.20300102-2.54199981 6.77099991-13.15400029-11.78300094-7.59700012-8.87899876-21.31299782z"/><path fill="#413632" d="M780.42697334 162.59600496l-32.61600113-3.88499975 10.9420004 18.78199959 21.67400073-14.89699984zM798.5259738 138.94700384l-8.01200009-2.49800014 3.95000004 10.64400005 4.06200005-8.1459999zM794.32297659 133.28400517l1.8729999-6.48999978 4.26099992 1.1079998-6.13399982 5.38199998z"/><path fill="#585B5B" d="M771.78197384 98.41600609l12.85399961-1.53399944 7.40500021.42199993 11.6779995-2.95499993-35.79899979-16.45899963-4.95899963 12.58699942 8.8210001 7.93899965z"/><path fill="#3C3C3B" d="M799.1959734 109.96500587l2.56599998 6.22500039 3.53600025 9.60300016-11.7840004-2.95500016-2.99900007 9.81300044-5.54900026-2.61200047 4.20900059-15.64199972 10.0209999-4.43200064z"/><path fill="#585B5B" d="M786.16797543 102.8740077l6.50400018-2.82700014 11.51699972 3.66400027.53700066 10.68600011-14.21100044-3.00699997-4.34700012-8.51600027z"/><path fill="#787879" d="M786.16697216 102.87400818l18.55900002 11.52299964.57099914 11.39499963-16.12299967-11.39499963-3.00699949-11.52299964z"/><path fill="#585B5B" d="M761.9619751 99.58900738l-3.41900063-11.43600035-9.06400013-8.30200052-13.55599975 5.00300026-14.62500096 13.29500007 17.78000069-6.1179999 10.20599985 9.07200038 12.67800093-1.51399994z"/><path fill="#3C3C3B" d="M749.2849741 101.10300788l-20.41100025-4.43199977-2.0149994 17.72700024-5.56000041-16.24900055 11.99400007-9.4090004 5.7859999.75700092 10.20600009 11.60599956z"/><path fill="#585B5B" d="M749.47897339 79.85000706l-10.40099955 9.64700016-17.78099966 8.65100017 12.88899958-16.67199993 15.29299963-1.6260004z"/><path fill="#787879" d="M749.47897434 79.85000706l12.482 19.73900032 9.82000005-1.17400074-3.86299992-20.52600003-18.43900013 1.96100045z"/><path fill="#3C3C3B" d="M803.7189722 94.35000753l.47000027 9.36200047-18.02200031-.8380003-1.53200054-5.99099994 19.08400059-2.53300023z"/><path fill="#413632" d="M736.54197407 139.62500906l23.0020008 2.48900008-13.57600045 7.61699987-9.42600035-10.10599995z"/><path fill="#D0CFCE" d="M740.95297432 141.68900609l12.86800003 1.44300008-7.72099996 4.10100007-5.14700007-5.54400015z"/><path fill="#5F473E" d="M738.63397312 110.55000591l-7.18399906.56599999 14.14099932 19.68499946 6.33500004 4.07299996 18.21399927-19.85499954-8.08799935-2.3199997-7.75 1.6409998-1.01799988 4.58199977-4.7520001 5.60099995-3.09100008-6.20500004.03700018-4.93999958-6.84400034-2.82800007z"/><path fill="#3C3C3B" d="M741.83697295 120.68600845c0 1.66700006-1.352 3.01699996-3.01799996 3.01699996-1.66600005 0-3.01599996-1.3499999-3.01599996-3.01699996 0-1.666 1.3499999-3.01699996 3.01599996-3.01699996 1.66599996 0 3.01799996 1.35099995 3.01799996 3.01699996zM761.47697234 122.5450058c0 1.666-1.35099995 3.01699996-3.01799996 3.01699996-1.66600005 0-3.01599996-1.35099995-3.01599996-3.01699996s1.3499999-3.01699996 3.01599996-3.01699996c1.66700001 0 3.01799996 1.35099995 3.01799996 3.01699996z"/><path fill="#413632" d="M745.81797326 131.25300813l-2.7149998 2.63999995 4.44799978 3.39399997 4.37399977-2.41399998-6.10699975-3.61999994z"/><path fill="#836255" d="M745.44097352 118.31800842l-2.33800006 15.57499981 8.8230002.98099995 1.35899996-15.95199967-7.8440001-.60400009z"/><path fill="#3C3C3B" d="M731.6759739 107.77900624l14.19799995 1.80999995-.39599991 3.78999996-14.02799988-2.26299995.22599983-3.33699996zM754.30197239 114.34100771l.33999967-3.90299988 15.83799983 1.30099988-.33999968 3.2809999-15.83799982-.6789999z"/></g><g display="block"><path fill="#5F473E" d="M691.21797085 170.00899458l-.82800007-7.44699997-7.44500017-11.85900026-11.60100031 9.82100033 3.87800026 15.00100017 15.99600029-5.51600027z"/><path fill="#413632" d="M699.215971 170.97399426l-8.8250003-8.4119997-15.16799974 12.9619997 14.6639998 7.22299976 10.1559999 3.80900001-.82699967-15.58199977z"/><path fill="#7A584C" d="M701.31297112 185.28599358l1.74499988-8.72699976-5.5539999-19.67699957-4.68200016 1.4279995 2.14300013 11.74300014-3.01499987 3.33200014 5.5539999 11.42600012 3.80900002.47499943z"/><g><path fill="#5F473E" d="M689.88697243 182.74699593l12.69399976 32.84899902 21.10599947-4.60199928-20.62999963-34.43599892-13.1699996 6.18899918z"/></g></g><g display="block"><path fill="#A98268" d="M550.15498352 154.50900078l18.30999994 8.80900001 10.15800047-6.84000015 2.06399918-19.79099941-6.30599976-45.53199864s-17.625-3.20100021-18.37199974-.75799942c-.75 2.44299698-5.91399956 64.1949978-5.91399956 64.1949978l.05999947-.0830002z"/><path fill="#87614C" d="M549.46698499 145.40200043l12.38100028 9.59299993 5.8249998.05299998.79199982 8.26999998-9.92399978 6.63999986-23.36800003-21.29199981 14.2939999-3.26399994zM574.81298316 127.55200195l-3.21000016 1.99799991 9.08500004 7.01600003.68700027-4.81599995-6.56200015-4.19799999z"/><path fill="#585B5B" d="M574.31498075 104.71499968l-4.7440002 8.30499994-.53200007 5.68000019 7.71300024 1.50299978 6.84999997-3.00199985 1.45700025-10.26000023-10.7440002-2.22599983z"/><path fill="#88898A" d="M572.08998394 92.46500015l-7.408 2.23700047 4.88800002 18.31700039 15.48899984-6.07800055.9289999-11.71499967-13.89799976-2.76100064z"/><path fill="#585B5B" d="M560.33698368 89.24000049l4.34500027 5.46200013 21.30499935.52400017-11.19599986-19.0340004-14.45399976 13.0480001z"/><path fill="#757778" d="M521.02998352 75.24100018l20.80600071-3.2699995 32.95600033 4.2199993-10.4280014 19.23999978-43.33399964-20.18999958zM527.71298313 89.95100117l-9.4979999-.65700054-5.53199983 5.61900043 8.35499984 18.13700008 6.6749999-23.09899997z"/><path fill="#585B5B" d="M523.83498383 98.91699982l2.66700077-4.57699967-8.28600026-5.04500031 2.81500054-14.0519998 43.65099907 19.4590001-40.84700012 4.21499968z"/><path fill="#C09E87" d="M519.92498398 99.92399788l.2140007 54.08200073 41.70899963.98999977 2.83300019-60.29399872-26.09300018 1.01799965-12.08700013-1.37800026-6.57600021 5.58199883z"/><path fill="#A98268" d="M532.7509842 113.59999847l1.80800008 1.7579999 2.12899995 3.11199999 1.17199993 1.94499993 3.03000009-1.36899996 3.51600015-3.16999983 4.26699972-1.51900006 6.40499974-.54200029.70000076 1.55999994-5.37300015 5.5400002-7.97500014 10.4020002-3.89600003-4.32600022-1.30499994 2.84000015-8.30600024-10.07200015-4.22700023-5.94400012 2.6970005-1.84800005 5.3579998 1.63300037z"/><path fill="#87614C" d="M535.79498434 129.12700152l-1.04299998 2.19 4.755 3.36999995 2.92299997-3.36999995-6.63499999-2.19z"/><path fill="#585B5B" d="M524.69598341 113.81500167l9.86200047 1.54300004-1.95200015-3.86400008-7.22300005-.12199998-.68700027 2.44300002zM548.1479832 111.6750009l-3.74099982 4.20200015 11.37199974-.50100005-.34599972-2.85100007-7.2850002-.85000002z"/><path fill="#CAAF9E" d="M535.64398432 116.90200043l-.89300013 14.41600036h7.67800021l.398-14.06900024-7.18300008-.34700012z"/><path fill="#C09E87" d="M573.28898191 115.47200012l10.3130002 1.72800017-2.227 14.54999971-9.773-2.20099974 1.6869998-14.07700014z"/><path fill="#87614C" d="M579.62798357 120.05300045l-4.23600006-.79500008-.68200016 6.07999993 4.91800022-5.28499985zM531.0779829 137.57600021l18.77400017.3219998-4.18599987 8.2479999-12.28500032-.09899998-2.30299998-8.47099972z"/><path fill="#FFFEFF" d="M533.43998241 138.97100341l13.7460003.22299993-1.25500012 2.29499996-11.84700012-.27199995-.64400006-2.24599994z"/><path fill="#3C3C3B" d="M529.69198427 116.0159986c1.27599999-.23200011 2.49399986.61399996 2.72599998 1.889.23000002 1.27200002-.612 2.49200004-1.889 2.72399992-1.273.23100018-2.48999995-.61399996-2.72200006-1.88599992-.23099995-1.27499998.61300003-2.49699998 1.88500008-2.727zM548.72198305 117.10400033c1.27699998-.23199987 2.49299994.61100006 2.72500005 1.88600007.23099995 1.275-.61100006 2.49299988-1.88800007 2.72400006-1.273.23199988-2.48999995-.61100006-2.72200006-1.88600006-.23099995-1.275.61300003-2.49299989 1.88500008-2.72400007z"/></g><g display="block"><path fill="#ECECEB" d="M575.83203125 164.37000847l13.11200047 49.86199951 41.52400112-4.45199966-11.65700054-48.80799866-42.97900105 3.3979988z"/><path fill="#DFBEA7" d="M584.33103108 181.36900902l-5.69099998-6.2680006-1.67499995 13.6340003 7.88199997 9.63200044-.51600004-16.99800014z"/><path fill="#C49A7F" d="M578.65403128 175.05500793l14.0539999 5.58500004-2.54999972 12.8710003-5.31200021 4.85599994-6.19199997-23.31200028z"/></g><g display="block"><path fill="#ECECEB" d="M.16600037 45.16599941l24 72.66800022L114 118.5l8.75-9.625 25 3.625-16.605999-12.67200089L164.5 63.5 130.49900055 13l-79-12.66600037L.16600037 45.16599941z"/><path fill="#292929" d="M57.57800102 77.42000103l-9.37400055-3.125L16.75 83.75000095l57.07500029 17.41600037 61.34100008-15.66600025-32.28300095-12.14200031-45.3049984 4.06200027z" opacity=".1"/><path fill="#9CC372" d="M81.32399893 18.835001l1.3460002 3.9829998 13.25999974-5.54399982-13.66900014-5.78999982-.9369998 7.35099983z"/><path fill="#437D65" d="M80.20999688 22.64299965l-.61499995 1.58199978-.08800006.1170001 3.16400003-1.52300024-.40999996-11.33500004-.96700005-.08799982-1.08400001 11.24700022zM59.44499779 61.80400056l40.7840004 17.50099975 10.75699996-21.5949998-23.60200023-3.93300008-7.86800003-10.11599922-24.24400044-.48200036 4.17300034 18.6249997z"/><path fill="#4A9274" d="M62.97800028 51.52800035l-7.7069999-8.3489995L34 83.99900055l41.93300056 9.355999 12.41399956-21.59599877-5.30599975-46.9089985-1.7819996-2.11200332-1.05000114-.0949974-17.23099935 28.8849988z"/><path fill="#5CB28F" d="M75.93400383 93.3540001l47.39799881-8.68899918-12.34599972-26.9559995-9.87399971 8.91199982-18.44199932-43.802001-1.41200066-.08099746-5.3239994 70.61599731z"/></g></g></svg>