<svg xmlns="http://www.w3.org/2000/svg" viewBox="0 0 900 350"><defs><style>.cls-1{fill:#cecdcc;}.cls-1,.cls-10,.cls-11,.cls-12,.cls-13,.cls-14,.cls-15,.cls-16,.cls-17,.cls-18,.cls-19,.cls-2,.cls-3,.cls-31,.cls-32,.cls-33,.cls-34,.cls-35,.cls-36,.cls-37,.cls-38,.cls-4,.cls-40,.cls-41,.cls-42,.cls-43,.cls-5,.cls-6,.cls-7,.cls-8,.cls-9{fill-rule:evenodd;}.cls-2{fill:#a2a1a1;}.cls-21,.cls-3{fill:#dcdcdb;}.cls-4{fill:#010101;}.cls-4,.cls-42{opacity:0.1;}.cls-5{fill:#4f5353;}.cls-20,.cls-6{fill:#c3c3c3;}.cls-7{fill:#848585;}.cls-27,.cls-8{fill:#95637c;}.cls-23,.cls-9{fill:#734d61;}.cls-10,.cls-25{fill:#795d88;}.cls-11,.cls-28{fill:#8f759f;}.cls-12,.cls-24{fill:#594265;}.cls-13,.cls-26{fill:#b2879c;}.cls-14{fill:#d1a0b8;}.cls-15{fill:#9b9fa0;}.cls-16,.cls-30{fill:#543042;}.cls-17,.cls-39,.cls-42{fill:#2b2b2b;}.cls-18,.cls-29{fill:#a587b8;}.cls-19,.cls-22{fill:#ebebea;}.cls-31{fill:#6f7273;}.cls-32{fill:#8e8e8e;}.cls-33{fill:#593e35;}.cls-34{fill:#debca4;}.cls-35{fill:#c2977a;}.cls-36{fill:#8a6651;}.cls-37{fill:#e8c9b6;}.cls-38{fill:#fff;}.cls-40{fill:#474748;}.cls-41{fill:#737474;}.cls-43{fill:#fff0e8;}</style></defs><title>analysts_Commander_ENTJ_friendships</title><g id="background"><polygon class="cls-1" points="9.33 34.55 192 51.33 180.13 197.71 21.3 207.87 9.33 34.55"/><polygon class="cls-2" points="110.37 133.12 83.67 124.64 65.67 128.64 70 202.99 158.64 205.27 174.42 173.2 156.33 92.46 134.75 83.78 114.33 100.85 114.33 149 110.37 133.12"/><polygon class="cls-3" points="13.83 97.21 72.33 97.21 72.33 201.49 81.33 203.46 83.67 124.64 127.17 124.64 129.17 166.3 136.29 143.49 134.75 83.78 187.92 86.16 183.17 214.69 13.83 228.88 13.83 97.21"/><polygon class="cls-4" points="751.59 335.67 639.05 350 563 335.67 320 348 265.5 322 187.92 345.33 61.33 303.5 117.29 278.35 259.39 251.68 595.19 261.83 702 295.67 751.59 335.67"/><polygon class="cls-4" points="900 315.7 769.48 334.33 708.33 287.17 833.04 274.92 900 315.7"/><polyline class="cls-5" points="815 205.35 852.88 215.13 826.42 229.92 776.32 218 816 205.35"/><path class="cls-6" d="M806.18,204.33l-43,13.67,68.57,36.5,19.93-24.58,12.83-16.6Zm19.32,22.34L783.21,218l26.12-8.83,38.34,7Z"/><polygon class="cls-7" points="816 243 826.83 233.83 864.5 213.32 862.33 302.33 833.04 308.82 816 243"/><polygon class="cls-2" points="763.17 218 826.83 233.83 833.04 308.82 814.6 307.5 773.19 267.46 764.68 252.1 763.17 218"/><polygon class="cls-8" points="808.83 185.17 793.13 220.03 825.5 226.67 827.33 213.32 818.33 196.25 808.83 185.17"/><polygon class="cls-9" points="825 182 839 220.27 825.5 226.67 818.33 196.25 813.83 181 825 182"/><polygon class="cls-10" points="798.98 168.82 818.33 196.25 860.08 185.17 836.84 129.89 801.99 141.83 798.98 168.82"/><polygon class="cls-11" points="794.41 137.06 773.84 184.5 818.33 196.25 817.86 153.33 794.41 137.06"/><polygon class="cls-12" points="829.5 89.68 858 138.79 817.86 153.33 799.74 110.72 829.5 89.68"/><polygon class="cls-10" points="797.7 98 777.07 141.83 817.86 153.33 818.33 106.57 797.7 98"/><polygon class="cls-10" points="831.6 53.5 852.88 101.26 818.33 106.57 796.23 49.02 831.6 53.5"/><polygon class="cls-11" points="802.3 52.5 778.95 99.92 818.33 106.57 817.86 59.44 802.3 52.5"/><polygon class="cls-11" points="809.47 47.49 817.92 12.13 846.29 61.17 817.86 59.44 809.47 47.49"/><polygon class="cls-9" points="773.19 310.7 764.68 310.82 751.59 302.25 760.67 291.12 780.09 296.71 773.19 310.7"/><polygon class="cls-13" points="756.79 268.12 749.9 263.76 741.89 272.52 735.25 291.12 749.9 307.69 761.55 300.18 767.93 299.05 756.79 268.12"/><polygon class="cls-13" points="751.03 299.93 761.55 300.18 759.04 320.09 744.89 307.69 751.03 299.93"/><polygon class="cls-9" points="740.51 293.86 761.55 300.18 744.89 307.69 740.51 293.86"/><polygon class="cls-8" points="798.11 257.26 790.72 251.35 749.9 263.76 762.05 289.29 801.99 274.58 798.11 257.26"/><polygon class="cls-13" points="819.89 284.9 819.64 263.76 790.72 251.35 797.73 262.74 800.86 281.84 820.58 289.89 819.89 284.9"/><polyline class="cls-9" points="820.14 313.2 833.04 308.82 819.64 263.76 811.88 279.42 808.12 297.05 819.89 312.33"/><polygon class="cls-13" points="777.07 312.33 787.53 312.33 797.86 306.43 803.62 309.57 818.33 310.57 812.63 302.82 811.88 279.42 767.93 299.05 777.07 312.33"/><polygon class="cls-14" points="789.47 316.83 787.53 312.33 767.93 299.05 764.68 310.82 775.57 321.21 789.47 316.83"/><polygon class="cls-14" points="807.25 318.08 803.62 309.57 812.63 302.82 833.04 308.82 822.02 321.84 807.25 318.08"/><polygon class="cls-14" points="803.62 264.37 812.63 253.73 811.88 279.42 799.74 274.58 803.62 264.37"/><polygon class="cls-9" points="796.23 267.66 797.73 262.74 812.63 253.73 807.11 273.79 796.23 267.66"/><polygon class="cls-14" points="786.97 268.12 781.33 260.49 764.68 252.1 772.13 268.58 786.97 268.12"/><polygon class="cls-9" points="776.32 266.75 764.68 252.1 764.68 269.38 776.32 266.75"/><polygon class="cls-9" points="781.33 298.18 783.21 302.82 797.86 306.43 811.88 279.42 778.95 293.58 781.33 298.18"/><polygon class="cls-8" points="765.93 291.92 765.52 295.3 767.93 299.05 783.21 302.82 785.63 295.3 772.13 284.9 765.93 291.92"/><polygon class="cls-14" points="764.93 283.65 762.05 289.29 765.52 295.3 770.44 291.92 774.32 298.18 785.63 295.3 778.15 277.89 765.52 280 764.93 283.65"/><polygon class="cls-13" points="781.33 260.49 764.68 269.38 762.05 289.29 767.93 284.4 775.07 283.03 776.32 287.17 785.63 295.3 811.88 279.42 797.73 262.74 781.33 260.49"/><polygon class="cls-8" points="767.06 271.01 775.82 275.51 775.82 278.39 778.45 276.39 795.6 280 776.32 287.17 773.19 283.53 767.93 284.4 767.06 271.01"/><polygon class="cls-14" points="775.82 275.51 767.93 284.4 770.56 288.16 776.32 287.17 778.45 276.39 775.82 275.51"/><polygon class="cls-15" points="22.17 201.83 129.17 189.42 107 220.82 19.17 222.64 22.17 201.83"/><polyline class="cls-15" points="161.5 49.33 161.5 58.33 181.78 192.1 210.63 31.33 159.91 49"/><polygon class="cls-7" points="206.62 32.33 194.15 40.5 161.5 58.33 13.83 47.33 13.83 17.67 206.62 32.33"/><path class="cls-6" d="M0,0,8.5,242l205.19-26.83,5.95-126.56.18-11.18.92-57.4ZM189.51,192.1,30.56,216.73,23.73,33.36,194.15,40.5l.47,24.29Z"/><polygon class="cls-16" points="767.93 284.4 770.44 291.92 776.32 287.17 767.93 284.4"/><path class="cls-17" d="M785.63,281.84a2.42,2.42,0,1,1-2.42-2.42A2.42,2.42,0,0,1,785.63,281.84Z"/><path class="cls-17" d="M771.89,277a2.42,2.42,0,1,1-2.41-2.42A2.41,2.41,0,0,1,771.89,277Z"/><polygon class="cls-9" points="798.98 321.09 803.62 309.57 822.02 321.84 798.98 321.09"/><polygon class="cls-9" points="794.73 320.71 787.53 312.33 775.57 321.21 794.73 320.71"/><polygon class="cls-8" points="735.88 279.09 732.63 300.81 744.89 307.69 741.89 272.52 735.88 279.09"/><polygon class="cls-18" points="817.92 12.13 786.68 61.05 817.86 59.44 817.92 12.13"/><polygon class="cls-3" points="36.6 71.61 63.3 63.94 74.66 71.3 104.74 63.94 120.7 75.6 98.6 84.5 62.77 80.88 51.33 81.74 36.6 71.61"/><polygon class="cls-19" points="36.6 71.61 63.3 63.94 74.66 71.3 104.74 63.94 120.7 75.6 100.75 74.22 73.06 77.34 59.93 74.22 36.6 71.61"/><polygon class="cls-20" points="104.66 135.18 108.14 135.12 108.21 131 104.53 131 104.66 135.18"/><polygon class="cls-20" points="92.27 135.38 96.43 135.31 96.43 131 92.2 131 92.27 135.38"/><polygon class="cls-20" points="92.38 145.49 96.34 145.54 96.43 140.82 92.3 140.77 92.38 145.49"/><polygon class="cls-20" points="104.8 145.66 108.18 145.69 108.11 140.97 104.72 140.92 104.8 145.66"/><polygon class="cls-20" points="121.33 131.13 117.02 131.13 117.09 135.41 121.51 135.34 121.33 131.13"/><polygon class="cls-20" points="117.13 140.99 117.2 145.69 121.8 145.82 121.6 141.04 117.13 140.99"/><polygon class="cls-20" points="92.25 175.48 96.41 175.48 96.48 171.17 92.25 171.1 92.25 175.48"/><polygon class="cls-20" points="92.25 188.51 96.23 188.17 96.38 183.92 92.25 183.8 92.25 188.51"/><polygon class="cls-20" points="54.44 173.42 54.35 169.38 44.78 170.02 44.85 174.06 54.44 173.42"/><polygon class="cls-20" points="56.15 161.05 64.97 160.62 64.86 155.42 56.05 155.85 56.15 161.05"/><polygon class="cls-20" points="56.64 185.41 65.51 184.7 65.43 180.94 56.56 181.53 56.64 185.41"/><polygon class="cls-20" points="56.4 173.29 65.24 172.7 65.15 168.66 56.31 169.25 56.4 173.29"/><polygon class="cls-20" points="54.73 185.57 54.63 181.66 44.99 182.29 45.05 186.35 54.73 185.57"/><polygon class="cls-20" points="43.73 106.13 43.8 110.45 52.97 110.45 52.86 106.13 43.73 106.13"/><polygon class="cls-20" points="53.25 122.72 53.15 118.11 43.92 118.11 44 122.72 53.25 122.72"/><polygon class="cls-20" points="54.15 161.14 54.03 155.95 44.56 156.41 44.65 161.6 54.15 161.14"/><polygon class="cls-20" points="53.53 134.7 53.43 130.38 44.13 130.38 44.2 134.88 53.53 134.7"/><polygon class="cls-20" points="42.55 156.51 33.05 156.97 33.18 162.16 42.65 161.7 42.55 156.51"/><polygon class="cls-20" points="42.82 170.15 33.4 170.77 33.51 174.81 42.9 174.19 42.82 170.15"/><polygon class="cls-20" points="42.03 130.38 32.37 130.38 32.49 135.1 42.12 134.92 42.03 130.38"/><polygon class="cls-20" points="43.06 182.42 33.72 183.04 33.82 187.25 43.14 186.5 43.06 182.42"/><polygon class="cls-20" points="55.62 134.66 64.39 134.5 64.29 130.38 55.53 130.38 55.62 134.66"/><polygon class="cls-20" points="55.38 122.72 64.12 122.72 64.02 118.11 55.28 118.11 55.38 122.72"/><polygon class="cls-20" points="41.79 118.11 32.06 118.11 32.17 122.72 41.88 122.72 41.79 118.11"/><polygon class="cls-20" points="41.55 106.13 31.75 106.13 31.86 110.45 41.63 110.45 41.55 106.13"/><polygon class="cls-20" points="55.13 110.45 63.85 110.45 63.75 106.13 55.04 106.13 55.13 110.45"/></g><g id="bubble_2" data-name="bubble 2"><polygon class="cls-1" points="593.57 35.41 619.84 28.91 700.39 4.55 770.5 50.99 769.48 129.21 722.41 154.15 688.71 147.19 594.53 66.45 593.57 35.41"/><polygon class="cls-21" points="236.91 48.74 300.61 4.55 346.71 30.16 375.42 42.68 386.03 19.61 461.88 0 619.84 28.91 641.74 68.09 644.95 100.85 620.28 107.74 595.19 123.2 584.83 116.22 581.92 127.27 515.43 127.27 447.68 95.7 447.68 83.93 437.73 92.46 407.56 90.43 375.44 108.5 300.61 111.65 273.06 95.7 236.91 48.74"/><polygon class="cls-22" points="386.03 19.61 375.42 42.68 346.71 30.16 300.61 4.55 236.91 48.74 273.06 95.7 300.61 111.65 375.44 108.5 421.81 124.22 520.5 149.93 461.88 0 386.03 19.61"/><polygon class="cls-21" points="394.32 38.91 358.91 18.36 300.61 4.55 236.91 48.74 273.06 95.7 300.61 111.65 374.79 108.53 394.32 38.91"/><polygon class="cls-23" points="472.54 45.17 458.86 54.74 490.49 69.94 512 70.17 509.62 64.91 503.06 56.66 503.88 52.18 501.96 47.92 481.88 42.69 472.54 45.17"/><polygon class="cls-24" points="559.56 87.04 533.86 113.59 573.56 122.21 569.96 83.66 559.56 87.04"/><polygon class="cls-25" points="543.95 106.57 551.07 104.46 576.08 107.81 573.1 82.8 533.86 93.64 543.95 106.57"/><polygon class="cls-26" points="291.77 82.95 289.71 62.81 259.41 49.5 244.1 59.17 236.91 48.74 252.17 92.31 265.5 102.22 270.69 106.84 295.02 133.12 307.33 134.88 307.33 115.23 306.54 105.06 291.77 82.95"/><polygon class="cls-27" points="275.7 94.45 252.17 92.31 263.5 121.82 246.28 127.27 265.5 128.64 295.02 133.12 275.7 94.45"/><polygon class="cls-27" points="283.51 83.78 295.9 100.85 306.54 105.06 305.17 87.45 289.71 62.81 283.51 83.78"/><polygon class="cls-27" points="262.4 71.75 249.93 85.16 236.91 48.74 259.41 49.5 262.4 71.75"/><polygon class="cls-28" points="551.07 104.46 543.95 95.7 533.86 103.28 533.86 121.19 545.56 116.54 551.07 104.46"/><polygon class="cls-24" points="600.39 70.69 574.68 97.25 614.38 105.87 610.79 67.31 600.39 70.69"/><polygon class="cls-25" points="584.78 90.22 591.89 88.11 616.91 91.47 613.92 66.45 574.68 77.29 584.78 90.22"/><polygon class="cls-28" points="591.89 88.11 587.76 77.41 574.68 86.93 574.68 104.85 586.39 100.19 591.89 88.11"/><path class="cls-29" d="M641.74,68.09,595.81,54.52l-47.5,15.07L520.5,91.87l-10.05,32.36,10.05,25.7,55.8-8.1,27.45,6.74-8-9.26,18.58-2.87Zm-78,48.13L538,111.1l6-15.4,25-3.39Zm39.91-14.53-25-6.82,9.17-17.46,24.33,5.47Z"/><polygon class="cls-26" points="443.96 56.38 462.01 52.54 512 70.17 519.81 81.76 493.09 78.32 463.2 68.47 443.96 56.38"/><polygon class="cls-27" points="472.97 83.97 443.96 56.38 519.81 81.76 480.23 86.14 472.97 83.97"/><polygon class="cls-27" points="473.17 28.93 472.54 45.17 501.96 47.92 473.17 28.93"/><polygon class="cls-30" points="493.01 52.54 503.88 52.19 509.63 64.91 492.26 58.04 493.01 52.54"/><polygon class="cls-30" points="490.75 51.97 490.01 57.25 482.78 54.8 484.08 50.94 490.75 51.97"/><polygon class="cls-30" points="481.88 50.59 475.21 49.55 474.26 52.32 480.67 54.24 481.88 50.59"/><polygon class="cls-29" points="514.33 14.67 516.17 25.5 526.33 32.17 541.67 32.17 552.17 24.08 553 16.67 518.69 10.39 514.33 14.67"/><polygon class="cls-28" points="522.94 15.17 522.94 24.5 530.5 19.61 522.94 15.17"/><polygon class="cls-28" points="540.17 18.33 545.5 19.83 539 26 540.17 18.33"/><polygon class="cls-22" points="284.61 35.41 283.84 39.42 279.87 37.56 282.85 40.49 277.48 40.95 283.01 41.57 280.04 44.58 283.78 42.3 284.08 46.48 285.13 42.54 288.13 45.07 285.9 41.57 289.53 40.95 285.96 40.18 289.12 38.3 285.13 39.46 284.61 35.41"/><polygon class="cls-22" points="729.97 114.73 729.19 118.73 725.23 116.88 728.2 119.81 722.84 120.26 728.37 120.89 725.4 123.89 729.13 121.62 729.44 125.79 730.49 121.86 733.49 124.39 731.26 120.89 734.89 120.26 731.32 119.5 734.48 117.62 730.49 118.78 729.97 114.73"/><polygon class="cls-22" points="322.74 74.74 319.72 75.48 319.74 72.15 318.66 75.14 316.64 71.58 317.97 75.6 314.94 74.5 317.71 76.36 314.92 77.91 317.98 77.37 317.18 80.26 318.9 77.6 320.49 79.91 319.87 77.2 322.18 78.78 320.11 76.39 322.74 74.74"/><polygon class="cls-22" points="722.41 78.36 719.39 79.1 719.41 75.77 718.33 78.76 716.31 75.19 717.64 79.22 714.61 78.12 717.38 79.98 714.59 81.53 717.64 80.99 716.85 83.87 718.57 81.21 720.15 83.53 719.54 80.81 721.85 82.4 719.78 80.01 722.41 78.36"/><polygon class="cls-22" points="659.82 39.96 657.5 38.4 659.73 36.39 657.08 37.48 658.24 33.97 656.36 37.3 655.26 34.61 655.69 37.58 652.97 36.65 655.17 38.37 652.77 39.59 655.58 39.12 655 41.58 656.44 39.53 656.78 42.03 657.12 39.2 659.82 39.96"/><polygon class="cls-22" points="326.83 38.55 324.51 36.98 326.75 34.98 324.1 36.07 325.26 32.56 323.38 35.88 322.28 33.2 322.71 36.17 319.99 35.24 322.19 36.96 319.79 38.17 322.6 37.71 322.02 40.17 323.46 38.12 323.8 40.62 324.14 37.79 326.83 38.55"/><polygon class="cls-22" points="445.4 32.83 446.85 34.27 444.96 35.39 447.01 34.99 445.68 37.34 447.5 35.22 447.91 37.3 448.02 35.11 449.84 36.16 448.5 34.62 450.4 34.09 448.32 34.03 449.08 32.35 447.76 33.61 447.88 31.77 447.23 33.75 445.4 32.83"/><polygon class="cls-22" points="439.79 68.37 440.53 71.95 436.6 71.78 440.08 73.19 435.79 75.42 440.59 74.02 439.17 77.55 441.48 74.37 443.18 77.72 442.69 74.1 446.05 75.16 442.99 73.02 445.78 71.25 442.56 71.85 444.53 69.2 441.62 71.54 439.79 68.37"/><polygon class="cls-22" points="527.6 44.07 528.34 47.66 524.41 47.48 527.89 48.89 523.6 51.12 528.4 49.72 526.98 53.25 529.29 50.07 530.99 53.42 530.5 49.8 533.86 50.86 530.8 48.72 533.59 46.95 530.37 47.55 532.34 44.9 529.43 47.24 527.6 44.07"/><polygon class="cls-20" points="452.48 10.49 453.23 14.08 449.3 13.91 452.78 15.31 448.49 17.54 453.29 16.14 451.87 19.67 454.18 16.49 455.88 19.84 455.38 16.22 458.75 17.28 455.69 15.14 458.48 13.37 455.26 13.97 457.23 11.32 454.32 13.66 452.48 10.49"/><polygon class="cls-22" points="581.98 29.67 580.02 31.05 579.1 28.64 579.16 31.09 576.71 29.09 578.79 31.62 576.3 31.67 578.81 32.24 577.23 34.13 579.28 32.9 579.51 35.19 580.01 32.8 581.8 34.02 580.6 32.24 582.7 32.74 580.55 31.59 581.98 29.67"/><polygon class="cls-20" points="436.48 39.79 434.51 41.16 433.6 38.76 433.65 41.21 431.2 39.2 433.29 41.73 430.8 41.79 433.31 42.35 431.73 44.24 433.78 43.01 434.01 45.31 434.51 42.91 436.3 44.14 435.1 42.35 437.2 42.85 435.04 41.71 436.48 39.79"/><polygon class="cls-20" points="440.31 88.53 437.65 87.46 439.47 84.98 437.04 86.63 437.46 82.87 436.28 86.6 434.6 84.14 435.67 87.03 432.75 86.68 435.32 87.93 433.17 89.66 435.89 88.6 435.83 91.19 436.84 88.83 437.71 91.26 437.45 88.35 440.31 88.53"/><polygon class="cls-20" points="485.84 129.39 485.47 127.22 487.83 127.41 485.77 126.49 488.4 125.25 485.49 125.98 486.42 123.89 484.96 125.75 484.01 123.7 484.23 125.89 482.23 125.17 484.02 126.52 482.3 127.53 484.25 127.24 483.01 128.78 484.81 127.44 485.84 129.39"/><polygon class="cls-22" points="615.45 51.63 613.24 50 615.52 48.13 612.87 49.08 614.16 45.69 612.17 48.87 611.21 46.19 611.5 49.12 608.88 48.1 610.96 49.88 608.55 50.96 611.33 50.63 610.65 53.02 612.16 51.07 612.38 53.53 612.84 50.77 615.45 51.63"/><polygon class="cls-22" points="505.07 93.14 507.11 94.95 504.69 96.6 507.39 95.89 505.83 99.13 508.07 96.16 508.79 98.89 508.75 95.97 511.26 97.21 509.35 95.27 511.83 94.4 509.05 94.49 509.93 92.19 508.27 93.98 508.27 91.53 507.57 94.22 505.07 93.14"/><polygon class="cls-26" points="700.39 4.55 687.23 24.5 693.9 47.57 713.5 59.17 738.76 67.65 769.48 62.81 770.5 50.99 700.39 4.55"/><polygon class="cls-27" points="706.02 32.13 715.63 45.69 723.5 32.13 706.02 32.13"/><polygon class="cls-27" points="739.38 47.75 730.38 54.52 750.5 60.38 739.38 47.75"/><polygon class="cls-27" points="702.88 13.13 699.63 18.38 706.75 18.38 702.88 13.13"/></g><g id="chair"><polygon class="cls-7" points="318.5 113.59 300.61 111.65 322.98 215.44 369.33 213.69 318.5 113.59"/><polygon class="cls-2" points="329.28 111.72 315.66 119.67 341.5 212.63 385 210.32 375.44 110.26 354.3 109.39 329.28 111.72"/><polygon class="cls-4" points="342.46 131.17 323.31 147.19 341.5 212.63 385 210.32 375.44 110.26 346.69 114.78 342.46 131.17"/><polygon class="cls-15" points="644.95 322.48 634.5 330.25 625.83 322.48 625.08 295.67 654.33 270.82 644.95 322.48"/><polygon class="cls-31" points="690.15 320.65 682.38 326.96 668.25 318.38 664.24 304.36 686.14 309.21 690.15 320.65"/><polygon class="cls-7" points="721.17 182.83 729.33 184.33 743 186.66 702 295.67 703.93 323.51 682.38 326.96 677.09 310.5 654.84 310.67 650.5 329.25 634.5 330.25 645.95 294.59 645.95 281.63 702 183.83 721.17 182.83"/><polygon class="cls-32" points="654.84 279.17 641.76 290.43 645.95 294.59 690.56 294.85 680.74 268.42 654.84 279.17"/><polygon class="cls-2" points="718.5 182.9 717 190.47 690.56 294.85 680.74 290.67 665.5 162.19 718.5 182.9"/><polygon class="cls-6" points="677.09 162.19 683.27 173.11 717 190.47 743 186.66 685.99 159.47 677.09 162.19"/><polygon class="cls-4" points="677.09 162.19 662.74 234.94 680.74 290.67 700.39 254.91 707.7 194.14 700.39 180.32 707.67 169.81 685.99 159.47 677.09 162.19"/><polygon class="cls-31" points="206.62 297.64 204.09 308.21 194.15 303.5 185.8 288 209 283.53 206.62 297.64"/><polygon class="cls-31" points="124.25 302.26 131.26 311.75 145.25 304.92 145.25 285.25 127.17 283.53 124.25 302.26"/><polygon class="cls-15" points="159.68 305.99 165.23 324.11 175.07 319.71 186.07 299 204.09 291.77 204.09 308.21 211.4 305.99 218.5 294.1 215.04 264.06 166.5 262 159.68 305.99"/><polygon class="cls-7" points="117.5 152.36 94.75 152.36 117.5 279.5 113.5 304.92 131.26 311.75 134.25 288.25 152.92 296 148.17 317.5 165.23 324.11 167.77 287 117.5 152.36"/><polygon class="cls-32" points="140 250.3 132.25 258.6 148.17 271.5 178 258.6 140 250.3"/><polygon class="cls-32" points="185.71 257.82 177.96 266.11 194.15 279.17 199.96 277.61 212 297.39 223.6 271.5 185.71 257.82"/><polygon class="cls-2" points="113.5 152.36 107 159.47 132.25 258.6 148.17 253 198.41 201.64 180.96 138.88 113.5 152.36"/><polygon class="cls-4" points="152.84 168.82 131.26 179.76 127.17 219.48 134.75 243.33 148.17 271.5 198.41 201.64 172.55 143.3 150.46 164.5 152.84 168.82"/><polygon class="cls-6" points="180.96 138.88 151.78 154.22 107 159.47 94.75 152.36 159.27 138.58 180.96 138.88"/><polygon class="cls-4" points="180.96 138.88 150.46 164.5 136.29 143.49 159.27 138.58 180.96 138.88"/><polygon class="cls-6" points="386.78 105.5 363.55 111.65 315.66 119.67 300.61 111.65 353.38 100.85 386.78 105.5"/><polygon class="cls-4" points="386.78 105.5 363.55 111.65 346.69 114.78 339.07 103.78 353.38 100.85 386.78 105.5"/></g><g id="_2nd_character" data-name="2nd character"><polygon class="cls-33" points="210.63 270.1 235.45 262 229.5 291.51 221.47 299 212 297.39 210.19 278.35 210.63 270.1"/><polygon class="cls-9" points="182.75 275.33 194.15 279.17 194.15 303.5 187.92 308.21 175.67 305.99 167.77 287 182.75 275.33"/><polygon class="cls-9" points="196.8 256.88 221.47 251.53 235.45 262 210.19 278.35 187.92 270 157.82 259.7 196.8 256.88"/><polygon class="cls-9" points="161.5 256.88 148.17 253 148.17 271.5 167.77 287 161.5 256.88"/><polyline class="cls-8" points="187.92 258.5 185.57 266.17 194.15 279.17 167.77 287 148.17 253 150.46 247.62 176.67 243.33 187.92 258.17"/><polygon class="cls-9" points="151.11 232.85 157.82 186.41 142.85 177.69 127.17 218.27 151.11 232.85"/><polygon class="cls-9" points="226.38 185.47 235.45 215.01 233.61 226.63 220.74 237.85 210.63 205.27 213.71 176.65 226.38 185.47"/><polygon class="cls-8" points="235.46 197.96 220.74 237.85 245.81 227.87 251.52 204.05 244.08 196.42 235.46 197.96"/><polygon class="cls-8" points="189.51 192.1 202.16 173.85 216.84 178.54 220.74 237.85 184.55 241.97 150.87 238.29 154.99 187.37 162.74 181.22 166.49 170.84 189.51 192.1"/><polygon class="cls-12" points="203.56 185.43 226.76 186.66 224.5 178.4 203.31 176.4 203.56 185.43"/><polygon class="cls-33" points="221.47 251.53 185.57 266.17 171.65 248.78 190.05 247.6 221.47 251.53"/><polygon class="cls-10" points="211.4 305.99 224.29 307.15 246.66 305.99 229.86 289.71 212 297.39 211.4 305.99"/><rect class="cls-24" x="211.4" y="305.99" width="35.26" height="4.43"/><polygon class="cls-11" points="194.15 303.5 203.31 319.71 189.19 321.92 175.07 319.71 175.67 305.99 194.15 303.5"/><rect class="cls-24" x="175.07" y="319.71" width="28.24" height="4.42"/><polygon class="cls-9" points="204.09 218.73 208.07 237.93 167.77 238.18 171.3 223.95 179.25 201.64 189.51 192.1 198.41 201.64 204.09 218.73"/><polygon class="cls-12" points="176.5 180.09 148.94 189.42 142.85 177.69 168.71 170.1 176.5 180.09"/><polygon class="cls-13" points="168.71 170.1 171.3 223.95 189.51 192.1 168.71 170.1"/><polygon class="cls-13" points="189.51 192.1 204.09 218.73 203.31 176.4 189.51 192.1"/><polygon class="cls-13" points="191.06 207.87 193.67 212.65 188.89 215.91 185.42 210.91 191.06 207.87"/><polygon class="cls-13" points="190.85 222.64 186.07 225.68 189.76 230.46 193.89 227.42 190.85 222.64"/><polygon class="cls-12" points="150.87 238.29 180.13 238.1 189.98 240.57 199.96 237.98 220.74 237.85 221.47 251.53 199.28 250.3 191.87 248.84 180.2 249.25 150.46 247.62 150.87 238.29"/><path class="cls-13" d="M200,238l-19.83.12.07,11.15,19.08,1.05L200,238Zm-5,8.33H184.33l.22-4.34,10.64-.43Z"/><polygon class="cls-4" points="189.51 192.1 218.76 178.28 203.31 176.4 189.51 192.1"/><polygon class="cls-12" points="154.86 147.35 161.63 144.35 174.42 151.25 168.21 159.22 149.86 163.95 154.86 147.35"/><polygon class="cls-34" points="239.58 107.29 238.66 124.64 230.62 178.54 204.18 177.96 187.02 182.9 173.31 172.34 175.75 143.45 180 140.83 180.57 127.25 176.53 107.56 197.05 92.84 220.02 101.76 222.65 89.71 239.58 107.29"/><polygon class="cls-35" points="177.38 107.76 194.02 130.24 198.68 179.91 189.51 192.1 168.71 170.1 168.21 159.22 169.34 155.19 168.74 151.42 161.21 151.58 158.64 134.28 169.81 132.5 175.5 141.83 179.14 141.63 179.95 127.51 177.38 107.76"/><polygon class="cls-35" points="232.71 131.17 194.02 130.24 205.54 139.03 213.41 155.59 232.71 131.17"/><polygon class="cls-36" points="197.41 166.3 216.84 169.63 229.86 166.15 216.42 161.6 197.41 166.3"/><polygon class="cls-10" points="197.41 166.3 213.41 155.59 221.28 155.85 229.86 166.15 197.41 166.3"/><polygon class="cls-37" points="215.22 130.75 213.41 155.59 221.28 155.85 221.42 130.9 215.22 130.75"/><polygon class="cls-10" points="194.02 130.24 232.71 131.17 233.15 126.11 196.15 127.37 194.02 130.24"/><polygon class="cls-12" points="221.28 155.81 217.11 158.82 213.41 155.59 221.28 155.81"/><polygon class="cls-36" points="162.23 137.47 167.89 136.75 170.99 147.67 162.23 137.47"/><polygon class="cls-36" points="204.18 177.96 185.57 177.53 189.51 192.1 204.18 177.96"/><polygon class="cls-36" points="168.74 151.42 173.71 151.36 168.21 159.22 168.74 151.42"/><polygon class="cls-11" points="238.27 107.33 241.56 99.48 249.93 91.87 238.66 124.64 238.27 107.33"/><polygon class="cls-11" points="177.38 107.76 163.17 102.14 140.91 98.91 149.79 129.73 168.29 129.54 183.17 127.01 177.38 107.76"/><polygon class="cls-10" points="238.27 107.33 223.37 93.89 214.78 88 205.3 77.59 249.93 91.87 238.27 107.33"/><polygon class="cls-10" points="177.38 107.76 198.87 96.03 184.04 86.95 165.94 82.95 140.91 98.91 177.38 107.76"/><polygon class="cls-11" points="205.3 77.59 178.46 69.01 165.94 82.95 198.87 96.03 222.19 105.06 223.37 93.89 205.3 77.59"/><polygon class="cls-10" points="183.17 127.01 149.79 129.73 154.86 147.35 161.21 151.58 159.48 134.9 170.03 133.97 174.44 144.64 180.63 142.72 183.17 127.01"/><path class="cls-17" d="M232.41,135.68a3,3,0,1,1-3.41-2.49A3,3,0,0,1,232.41,135.68Z"/><path class="cls-17" d="M211,134.92a3,3,0,1,1-3.4-2.49A3,3,0,0,1,211,134.92Z"/><polygon class="cls-16" points="127.17 218.27 152.49 218.27 159.68 239.25 148.17 253 127.17 218.27"/><polygon class="cls-35" points="175.92 248.37 180.96 260.41 164.61 266.17 158.02 260.9 164.89 250.3 175.92 248.37"/><polygon class="cls-34" points="158.02 260.9 148.17 253 159.68 239.25 175.92 248.37 158.02 260.9"/><polygon class="cls-1" points="230.5 188.12 244.56 176.4 246.66 161.17 229.5 161.17 230.5 188.12"/><polygon class="cls-10" points="235.46 186.2 242.04 179.76 243.5 164.33 233 164.33 233.16 182.9 235.46 186.2"/><polygon class="cls-36" points="235.46 197.96 240.78 200.83 246.66 201.83 248.61 189.4 235.54 191.37 235.46 197.96"/><polygon class="cls-35" points="259.41 188.42 251.52 204.05 240.78 200.83 248.61 189.4 251.52 186.2 259.41 188.42"/><polygon class="cls-37" points="233.15 181 244.56 176.4 259.41 188.42 248.61 189.4 239.54 187.42 233.15 181"/><polygon class="cls-34" points="248.61 189.4 239.92 194.21 230.5 188.12 233.15 181 248.61 189.4"/></g><g id="main_character" data-name="main character"><polygon class="cls-35" points="449.25 126.75 445.42 119.67 456.75 106.33 459.67 109.83 455.75 124.5 449.25 126.75"/><polyline class="cls-34" points="454.83 127.27 464.33 125.4 473.83 117.68 478.33 101.35 474 99.92 466.75 113 445.42 119.67 454.5 127.27"/><polygon class="cls-13" points="447.17 141.55 433.04 158.67 418.9 154.91 421.31 123.2 447.17 141.55"/><polygon class="cls-4" points="477.81 281.92 405.22 274.49 315.22 285.71 397.64 291.51 477.81 281.92"/><polygon class="cls-8" points="433.04 158.67 442.92 128.42 454.92 125.4 462.32 134.88 458.17 159.9 433.04 158.67"/><polygon class="cls-9" points="445.42 119.67 464.33 125.4 462.32 134.88 442.9 128.54 445.42 119.67"/><polygon class="cls-16" points="351.48 234.94 369.33 239.92 382.25 214.36 369.58 214.35 351.48 234.94"/><polygon class="cls-11" points="425.01 221.35 414.21 241.67 390.44 254.31 381.38 221.35 417.22 203.46 425.01 221.35"/><polygon class="cls-9" points="414.21 241.67 396.94 244.98 388.4 246.25 391.61 266.1 398.96 266.1 403.52 261.32 414.21 241.67"/><polygon class="cls-8" points="403.52 261.32 423.07 275.96 407.57 278.35 390.06 275.96 391.61 266.1 403.52 261.32"/><polygon class="cls-9" points="391.83 280.75 398.83 280.75 400.12 278.21 407.93 280.75 423.31 280.75 423.31 275.96 391.83 275.96 391.83 280.75"/><polygon class="cls-18" points="400.61 229.02 396.94 244.98 384.33 248.37 371.74 247.1 360.76 214.35 380.62 197.71 394.33 221.35 400.61 229.02"/><polygon class="cls-8" points="371.74 247.1 378.15 268.63 385.55 270.61 391.61 266.1 396.94 244.98 371.74 247.1"/><polygon class="cls-13" points="391.61 266.1 398.83 280.75 388.4 283.42 373.95 280.75 378.15 268.63 391.61 266.1"/><polygon class="cls-10" points="424.34 203.46 400.61 229.02 364.31 204.97 398.07 191.62 424.34 203.46"/><polygon class="cls-11" points="403.77 139.31 393.69 148.57 393.09 171.53 398.07 191.62 412.52 201.49 411.02 167.03 403.77 139.31"/><polygon class="cls-18" points="393.69 148.57 381.51 144.43 379.5 172.7 382.72 202.99 398.07 191.62 393.69 148.57"/><polygon class="cls-3" points="407.85 155.28 380.38 156.41 380.76 164.51 408.8 161.62 407.85 155.28"/><polygon class="cls-3" points="410.7 174.32 380.49 176.88 381.71 184.78 411.71 181.09 410.7 174.32"/><polygon class="cls-18" points="355.27 135.51 335.18 144.8 360.76 162.48 359.33 136.89 355.27 135.51"/><polygon class="cls-10" points="335.18 144.8 333.53 162.48 363.55 168.03 358.68 156.6 335.18 144.8"/><polygon class="cls-13" points="358.42 164.65 333.53 162.48 330.94 190.19 363.55 182.87 358.42 164.65"/><polygon class="cls-16" points="421.31 123.2 425.01 221.35 412.52 201.49 403.77 139.31 410.02 132.12 421.31 123.2"/><polygon class="cls-9" points="381.51 144.43 382.72 202.99 351.48 234.94 355.27 135.51 371.97 137.33 381.51 144.43"/><polygon class="cls-34" points="363.55 125.97 366.32 116.67 363.55 103.36 359.2 102.91 355.77 106.63 355.14 101.96 353.38 100.73 353.38 69.59 405.87 56.28 423.07 111.74 404.49 117.68 397.21 132.1 393.69 148.57 391.12 137.8 385.65 131.99 376.39 126.11 363.55 125.97"/><polygon class="cls-35" points="365.34 66.56 369.33 73.23 370.84 77.25 383.64 124.71 404.49 117.68 398.67 125.97 399.09 133.12 399.84 139.31 393.69 148.57 383.85 136.89 363.55 125.97 363.55 111.65 365.58 105.03 363.55 103.36 355.77 106.63 353.38 100.73 355.27 89.55 353.38 69.59 365.34 66.56"/><polygon class="cls-36" points="359.66 94.45 364.31 96.58 358.41 99.97 357.21 96.9 359.66 94.45"/><polygon class="cls-35" points="370.84 77.25 381.89 76.12 390.17 89.55 383.85 70.39 370.84 77.25"/><polygon class="cls-35" points="404.24 66.45 396.09 77.06 393.09 67.65 404.24 66.45"/><polygon class="cls-37" points="393.09 67.65 398.96 87.04 390.17 89.55 383.85 70.39 393.09 67.65"/><polygon class="cls-36" points="398.96 87.04 396.45 92.31 390.17 89.55 398.96 87.04"/><polygon class="cls-36" points="376.39 126.11 399.09 133.12 404.49 117.68 376.39 126.11"/><polygon class="cls-36" points="412.77 95.33 381.23 104.61 393.09 113.59 409.75 108.92 412.77 95.33"/><polygon class="cls-38" points="409.76 98.26 386.78 105.5 390.15 108.29 408.66 102.84 409.76 98.26"/><polygon class="cls-11" points="353.38 69.59 363.55 90.56 353.38 100.73 353.38 69.59"/><polygon class="cls-9" points="324.75 93.19 330.61 90.57 333.8 86.16 340.62 71.11 344.04 53.19 350.64 43.06 346.71 30.16 370.02 27.58 386.03 19.61 395.33 32.38 405.1 40.95 412.74 51.16 419.93 57.53 423.07 62.81 431.48 63.81 418.75 72.7 413.9 79.38 411.11 67.76 405.87 56.28 378.36 61.63 353.38 69.59 352.38 87.29 353.38 100.73 338.42 99.85 325.51 102.74 326.86 98.31 324.75 93.19"/><polygon class="cls-13" points="324.75 93.19 348.11 94.7 333.8 86.16 324.75 93.19"/><polygon class="cls-8" points="348.11 94.7 351.12 64.82 341.5 53.19 333.8 86.16 348.11 94.7"/><polygon class="cls-16" points="351.12 64.82 386.28 54.52 346.71 30.16 341.5 53.19 351.12 64.82"/><polygon class="cls-9" points="386.28 54.52 405.12 48.74 405.1 40.95 386.03 19.61 378.69 49.02 386.28 54.52"/><polygon class="cls-14" points="386.03 19.61 378.12 49.5 346.71 30.16 386.03 19.61"/><polygon class="cls-8" points="419.93 57.53 418.17 68.08 405.12 48.74 405.1 40.95 419.93 57.53"/><polygon class="cls-13" points="419.93 57.53 418.17 68.08 434.86 62.12 419.93 57.53"/><polygon class="cls-16" points="434.86 62.12 434.86 68.08 413.55 81.03 405.87 56.28 405.12 48.74 418.17 66.56 434.86 62.12"/><polygon class="cls-16" points="351.12 64.82 353.38 69.59 353.38 100.73 325.51 102.74 324.75 93.19 342.46 91.33 351.12 64.82"/><polygon class="cls-8" points="405.12 48.74 386.28 54.52 351.12 64.82 353.38 69.59 405.87 56.28 405.12 48.74"/><polygon class="cls-8" points="371.21 28.91 373.47 15.6 361.92 4.55 364.53 18.88 371.21 28.91"/><polygon class="cls-13" points="371.21 28.91 361.92 4.55 358.91 18.36 371.21 28.91"/><polygon class="cls-36" points="363.55 103.36 369.58 100.6 363.55 111.65 363.55 103.36"/><polygon class="cls-8" points="385.65 131.99 363.55 125.97 350.24 121.19 355.27 135.51 393.69 148.57 385.65 131.99"/><polygon class="cls-16" points="363.55 117.68 350.24 121.19 363.55 125.97 363.55 117.68"/><polygon class="cls-8" points="404.49 117.68 393.69 148.57 421.31 123.2 404.49 117.68"/><circle class="cls-39" cx="378.91" cy="76.6" r="2.65"/><path class="cls-17" d="M401.32,70.39a2.66,2.66,0,1,1-2.65-2.65A2.65,2.65,0,0,1,401.32,70.39Z"/><polygon class="cls-11" points="402.98 60.92 369.33 73.23 370.84 77.25 404.24 66.45 402.98 60.92"/><rect class="cls-23" x="373.95" y="280.75" width="24.88" height="4.79"/><polygon class="cls-6" points="375.42 191.62 373.95 186.66 373.95 169.85 393.64 168.82 389.61 187.92 375.42 191.62"/><polygon class="cls-10" points="375.42 191.62 376.64 185.55 376.32 172.5 390 171.44 387.79 188.4 375.42 191.62"/><polygon class="cls-3" points="386.3 192.13 393.09 188.52 396.1 175.56 378.25 173.71 375.94 190.75 386.3 192.13"/><polygon class="cls-10" points="386.3 192.13 390 189.13 393.09 177.75 380.49 176.88 378.94 192.13 386.3 192.13"/><polygon class="cls-35" points="379.5 192.25 382.25 184.78 393.09 188.52 390.78 200.75 382.72 202.99 379.5 192.25"/><polygon class="cls-34" points="369.38 191 373.95 186.66 382.25 184.78 382.72 202.99 368.12 203.46 369.38 191"/><polygon class="cls-8" points="353.38 176.65 330.94 190.19 359.35 200.33 371.14 194.76 366.57 183.07 353.38 176.65"/><polygon class="cls-16" points="366.57 183.07 359.35 200.33 368.12 203.46 373.95 186.66 366.57 183.07"/></g><g id="_3rd_character" data-name="3rd character"><polygon class="cls-16" points="591.91 302.33 574.49 307.67 574.49 312.67 605.22 312.67 591.91 302.33"/><polygon class="cls-9" points="597.43 283.67 593.57 290.67 574.49 307.67 603.46 307.67 609.33 295.67 597.43 283.67"/><polygon class="cls-12" points="610.8 263.33 595.19 261.83 593.57 290.67 605.97 297.85 629.35 281.42 610.8 263.33"/><polygon class="cls-10" points="637.28 236.5 625.08 252.83 595.19 261.83 614.32 273.32 644.49 266.33 637.28 236.5"/><polygon class="cls-11" points="631 243 625.08 252.83 637.28 269.15 680.04 263.33 631 243"/><polygon class="cls-9" points="603.88 308.19 584.83 316.19 584.83 322.48 625.83 322.48 625.66 316.5 603.88 308.19"/><polygon class="cls-8" points="617.21 294.85 605.97 297.85 584.83 316.19 625.66 316.5 625.5 310.67 617.21 294.85"/><polygon class="cls-10" points="605.97 297.85 614.32 273.32 645.95 275.52 642 290.67 625.5 310.67 605.97 297.85"/><polygon class="cls-9" points="679.67 244.85 685.99 256.41 683.48 268.42 661.24 269.15 651.33 260.5 679.67 244.85"/><polygon class="cls-18" points="614.32 273.32 651.33 260.5 683.48 268.42 677.34 287 642 290.67 614.32 273.32"/><polygon class="cls-11" points="683.48 268.42 680.74 290.67 642 290.67 683.48 268.42"/><polygon class="cls-13" points="700.39 190.47 708.33 194.46 707.67 253.67 680.91 237.17 680.74 223.68 700.39 190.47"/><polygon class="cls-38" points="680.91 179.83 648.54 213.32 639.52 178.34 660.92 174.96 680.91 179.83"/><polygon class="cls-34" points="640.26 97.5 632.63 89.25 623.94 87.61 611.34 156.83 634.14 162.63 661.89 166.83 674.45 117.45 677.09 95.28 658.3 93 640.26 97.5"/><polygon class="cls-35" points="644.95 167.59 611.34 156.83 661.27 165.92 671.41 115.31 677.09 95.28 688.22 108.88 685.07 119.43 677.34 132.36 680.82 133.29 682.78 137.06 686.88 134.1 690.19 126.92 693.88 132.58 698.35 135.08 691.72 140.54 688.71 147.19 686.79 151.37 685.8 159.76 681.05 180.32 639.52 178.34 644.95 167.59"/><polygon class="cls-40" points="620.28 107.74 617.02 83.66 629.35 85.66 620.28 107.74"/><polygon class="cls-13" points="617.45 185.55 609.33 211.96 612.34 227.21 625.68 236.5 626.4 204.03 617.45 185.55"/><polygon class="cls-8" points="614.32 217.21 608.17 223.68 595.19 227.85 606.18 245.91 626.4 246.67 625.08 228.44 614.32 217.21"/><polygon class="cls-9" points="614.32 217.21 616.57 233.78 609.33 239.33 598.63 228.78 605.12 227.82 614.32 217.21"/><polygon class="cls-35" points="603.75 215.08 605.22 209.43 583.49 199.77 581.92 204.45 591.91 210.55 597.5 215.86 603.75 215.08"/><polygon class="cls-35" points="602.06 211.96 597.39 228.4 608.99 231.84 611.96 223.68 602.06 211.96"/><polygon class="cls-34" points="600.72 203.54 604.21 201.8 614.32 217.21 611.96 223.68 603.75 215.08 600.72 203.54"/><polygon class="cls-37" points="603.75 215.08 591.91 210.55 591.11 226.74 599.52 229.03 603.75 215.08"/><polygon class="cls-35" points="661.89 115.68 650.29 120.21 641.49 135.57 642.55 121.28 644.95 113.57 649.75 110.94 660.13 108.88 661.89 115.68"/><polygon class="cls-35" points="635.56 107.14 637.79 112.58 638.13 118.22 635.27 125.14 622.71 104.67 628.64 98 635.56 107.14"/><polygon class="cls-40" points="649.13 107.39 662.5 105.75 666.03 113.47 661.89 115.68 660.25 109.75 649.75 110.94 649.13 107.39"/><polygon class="cls-40" points="637.79 104.18 628.64 98 622.71 104.67 626.17 107.39 630.25 102.7 635.56 107.14 637.79 104.18"/><polygon class="cls-37" points="637.79 112.58 633.58 133.6 636.94 135.87 641.49 135.57 644.95 113.57 637.79 112.58"/><polygon class="cls-36" points="626.4 141.83 651.69 143.67 642.67 153.33 632.35 152.33 626.4 141.83"/><polygon class="cls-34" points="682.78 137.06 681.05 141.01 688.71 147.19 698.35 135.08 690.19 126.92 682.78 137.06"/><polygon class="cls-41" points="640.26 97.5 617.02 83.66 641.74 68.09 643.66 84.21 640.26 97.5"/><polygon class="cls-32" points="640.26 97.5 641.74 68.09 706.02 92.31 692.15 96.55 677.09 95.28 640.26 97.5"/><polygon class="cls-41" points="706.02 92.31 708.49 129.89 697.27 120.42 688.22 108.88 677.09 95.28 706.02 92.31"/><polygon class="cls-40" points="688.22 108.88 677.34 132.36 682.78 137.06 690.19 126.92 698.35 135.08 708.49 129.89 688.22 108.88"/><polygon class="cls-36" points="693.9 135.57 690.94 132.61 687.23 138.79 693.9 135.57"/><polygon class="cls-36" points="688.71 147.19 683.27 142.74 685.71 160.16 688.71 147.19"/><polygon class="cls-36" points="633.58 133.6 637.04 139.28 641.49 135.57 633.58 133.6"/><polygon class="cls-8" points="680.91 179.83 650.39 202.56 667.95 216.51 690.79 230.86 700.39 190.47 680.91 179.83"/><polygon class="cls-8" points="639.52 178.34 617.45 185.55 624.18 207.93 636.58 210.58 650.39 202.56 639.52 178.34"/><polygon class="cls-9" points="690.79 230.86 683.57 250.91 676.15 257.27 644.95 254.83 644.21 229.02 650.39 202.56 690.79 230.86"/><polygon class="cls-16" points="650.39 202.56 624.18 207.93 625.08 252.83 637.67 257.27 644.95 254.83 650.39 202.56"/><path class="cls-39" d="M626.36,113.78a3,3,0,1,0,3-3A3,3,0,0,0,626.36,113.78Z"/><path class="cls-39" d="M650.29,119.21a3,3,0,1,0,3-3A3,3,0,0,0,650.29,119.21Z"/><polygon class="cls-36" points="669.83 165.6 611.34 156.83 639.52 169.19 639.52 178.34 669.83 165.6"/><polygon class="cls-8" points="690.79 230.86 662.83 245.83 660.22 252.17 665.5 260.5 707.67 253.67 690.79 230.86"/><polygon class="cls-38" points="629.35 143.58 647.57 145.02 643.66 148.83 631.67 147.58 629.35 143.58"/><polygon class="cls-32" points="639.52 248.67 651.33 250.17 648 225.59 630 229.92 639.52 248.67"/><polygon class="cls-10" points="639.52 248.67 646.5 231.84 645.95 228.52 633.33 231.5 639.52 248.67"/><polygon class="cls-15" points="635.25 248.96 650.39 251.94 646.5 231.84 630 235.42 635.25 248.96"/><polygon class="cls-10" points="639.52 252.25 646.35 241.45 645 234.75 633.33 237.88 639.52 252.25"/><polygon class="cls-34" points="646.35 241.45 662.83 245.83 665.5 260.5 651.33 260.5 643.17 251.67 646.35 241.45"/><polygon class="cls-35" points="637.67 257.27 635.17 248.67 646.35 241.45 651.33 260.5 637.67 257.27"/></g><g id="table"><polygon class="cls-31" points="546.33 302.82 536.33 319.71 485.67 295.87 545 290.11 546.33 302.82"/><polygon class="cls-31" points="265.5 232.97 269.5 302.33 315 326.96 327.67 240.93 265.5 232.97"/><polygon class="cls-32" points="331.67 247.6 309.33 254.91 315 326.96 339.67 324.11 345.33 307.15 527 304.36 536.33 319.71 560 316.5 563 241.59 331.67 247.6"/><polygon class="cls-32" points="298.67 222.07 259.41 211.03 259.41 243 309.33 254.91 320 232.97 298.67 222.07"/><polygon class="cls-2" points="319.67 228.27 307.33 241.97 309.33 254.91 574.49 248.67 574.49 228.27 319.67 228.27"/><polygon class="cls-6" points="307.33 241.97 574.49 228.27 471 204.05 259.41 211.03 307.33 241.97"/><polygon class="cls-42" points="434 215.14 467.18 226.75 504.67 218.73 467.18 212.63 434 215.14"/><polygon class="cls-42" points="352.83 226.25 377.43 233.65 388.98 228.27 401.93 228.81 434.45 222.63 390.44 217.56 352.83 226.25"/><polygon class="cls-13" points="454 190.47 446.25 182.83 459.5 172.5 468.63 178.34 479.09 173.5 491 184.5 470.25 196.25 454 190.47"/><polygon class="cls-9" points="446.25 182.83 454.25 217.21 467.18 221.15 472.75 211.96 468.5 185.55 446.25 182.83"/><polygon class="cls-8" points="491 184.5 468.5 185.55 467.18 221.15 480.25 218.5 491 184.5"/><polygon class="cls-8" points="459.5 172.5 468.5 185.55 479.09 173.5 459.5 172.5"/><polygon class="cls-3" points="379.37 213.69 394.64 219.38 377.43 233.65 356.25 222.78 379.37 213.69"/><polygon class="cls-10" points="379.49 215.74 390 221.15 377 230 361.88 223.13 379.49 215.74"/><polygon class="cls-19" points="390.72 213.69 405.51 216.56 401.73 226.25 372.44 224.14 390.72 213.69"/><polygon class="cls-43" points="395.73 212.47 410.68 211.03 434.45 222.63 405.55 225.27 395.73 212.47"/><polygon class="cls-13" points="409.91 211.97 410.01 213.28 412.05 214.18 411.75 212.79 409.91 211.97"/><polygon class="cls-13" points="405.69 220.28 405.13 222.13 407.56 223.78 407.56 221.47 405.69 220.28"/><polygon class="cls-13" points="390.91 214.69 388.98 215.84 391.31 216.19 392.59 215.22 390.91 214.69"/><polygon class="cls-13" points="399.5 223.01 398.47 224.54 400.57 224.93 401.38 223.44 399.5 223.01"/></g></svg>