<svg xmlns="http://www.w3.org/2000/svg" xmlns:xlink="http://www.w3.org/1999/xlink" viewBox="0 0 1170 350"><defs><style>.a{fill:none;}.b{fill:#cececd;}.aa,.ab,.ac,.ad,.ae,.ag,.b,.c,.d,.g,.h,.i,.j,.l,.m,.n,.o,.p,.q,.r,.t,.u,.v,.w,.x,.y,.z{fill-rule:evenodd;}.c,.e,.k,.n,.q{fill:#fff;}.c{opacity:0.4;}.c,.k,.q{isolation:isolate;}.d{fill:#9da1a2;}.f{clip-path:url(#a);}.g{fill:#c4c4c4;}.h{fill:#858686;}.i{fill:#a3a3a3;}.j{fill:#8f8f8f;}.k{opacity:0.2;}.l{fill:#737373;}.m{fill:#ececeb;}.o{fill:#4f5253;}.p{fill:#474747;}.q{opacity:0.7;}.r{fill:#dddddc;}.s{clip-path:url(#b);}.t{fill:#6f7173;}.u{opacity:0.1;}.v{fill:#dfbda5;}.w{fill:#c3987b;}.x{fill:#8b6651;}.af,.y{fill:#2b2b2b;}.z{fill:#755800;}.aa{fill:#856400;}.ab{fill:#9e7700;}.ac{fill:#e5c828;}.ad{fill:#ccad14;}.ae{fill:#e8cab6;}.ag{fill:#f4d75d;}</style><clipPath id="a"><circle class="a" cx="338.8" cy="85.5" r="68.5"/></clipPath><clipPath id="b"><rect class="a" x="776.5" y="223.1" width="397.1" height="130.4"/></clipPath></defs><title>esfp-entertainer-personality-header</title><path class="b" d="M-8-4H1183V361H-8Z"/><path class="c" d="M921.9-59,773,354l327,4Z"/><path class="c" d="M1145.9-59,992,354l338,4ZM702-59,535,354l335,4Z"/><path class="c" d="M492.5-59,315,354l356,4Z"/><path class="c" d="M121.4-59-75,354l394,4Z"/><path class="c" d="M323.5-59,155,354l338,4Z"/><path class="d" d="M335.5-35H342V14h-6.5Z"/><path class="d" d="M324.3,11h29V23h-29Z"/><circle class="e" cx="338.8" cy="85.5" r="68.5"/><g class="f"><path class="g" d="M242.6,73.8l12.6-12.6,11.4,11.4L254,85.1Zm47.9,47.7,12.6-12.6,11.4,11.4-12.6,12.6Zm-24-23.8,12.6-12.6,11.4,11.4L277.9,109Zm71.8,71.7,12.6-12.6,11.4,11.4-12.6,12.6Z"/><path class="d" d="M314.4,145.4,327,132.8l11.4,11.4-12.6,12.6Z"/><path class="g" d="M338.3,121.5l12.6-12.6,11.4,11.4-12.6,12.6Zm23.9,24,12.6-12.6,11.4,11.4-12.6,12.6ZM266.6,49.9l12.6-12.6,11.4,11.4L278,61.3Zm23.9,23.8,12.6-12.6,11.4,11.4L301.9,85.1Zm23.9,23.9L327,85l11.4,11.4L325.8,109Zm71.7,24L398.7,109l11.4,11.4L397.5,133ZM290.5,25.8l12.6-12.6,11.4,11.4L301.9,37.2Zm47.8,47.9,12.6-12.6,11.4,11.4L349.7,85.1Zm23.9,24,12.6-12.6,11.4,11.4L373.6,109ZM314.4,49.8,327,37.2l11.4,11.4L325.8,61.2Zm23.9-24,12.6-12.6,11.4,11.4L349.7,37.2ZM314.4,1.9,327-10.7,338.4.7,325.8,13.3Zm95.7,95.7L422.7,85l11.4,11.4L421.5,109Zm-24-23.8,12.6-12.6,11.4,11.4L397.5,85.2Zm-23.9-24,12.6-12.6,11.4,11.4L373.6,61.2ZM314.4,168.2l11.4-11.4,12.6,12.6L327,180.8Z"/><path class="g" d="M386.2,96.4,397.6,85l12.6,12.6L398.8,109Zm-23.9,24L373.7,109l12.6,12.6L374.9,133Zm-23.9,23.8,11.4-11.4,12.6,12.6L351,156.8ZM410,72.5l11.4-11.4L434,73.7,422.6,85.1Zm-95.6,47.9L325.8,109l12.6,12.6L327,133Z"/><path class="d" d="M338.4,96.4,349.8,85l12.6,12.6L351,109Z"/><path class="g" d="M386.1,48.6l11.4-11.4,12.6,12.6L398.7,61.2Z"/><path class="d" d="M362.2,72.5l11.4-11.4,12.6,12.6L374.8,85.1Z"/><path class="g" d="M290.5,144.3l11.4-11.4,12.6,12.6-11.4,11.4Z"/><path class="d" d="M362.3,24.7l11.4-11.4,12.6,12.6L374.9,37.3Z"/><path class="g" d="M338.3,48.6l11.4-11.4,12.6,12.6L350.9,61.2Z"/><path class="g" d="M266.6,120.4,278,109l12.6,12.6L279.2,133Z"/><path class="d" d="M314.4,72.5l11.4-11.4,12.6,12.6L327,85.1Z"/><path class="d" d="M290.5,96.5l11.4-11.4,12.6,12.6-11.4,11.4Z"/><path class="g" d="M338.4.7l11.4-11.4L362.3,2,351,13.3ZM266.5,72.5l11.4-11.4,12.6,12.6L279.1,85.1ZM242.7,96.4,254.1,85l12.6,12.6L255.3,109,242.7,96.4Zm71.7-71.7,11.4-11.4,12.6,12.6L327,37.3Z"/><path class="d" d="M290.5,48.6l11.4-11.4,12.6,12.6L303,61.2Z"/></g><path class="d" d="M693.8,216l-23.4,5.8v74.4h46.8V221.8L693.8,216Zm.3,72.4L676,228.6h36.3Z"/><path class="h" d="M660.3,300.7h8.6v50.8h-8.6Zm58.2,0h8.6v50.8h-8.6Z"/><path class="i" d="M660.2,295.2h66.9v9.1H660.2Z"/><path class="d" d="M562.8,216l-23.4,5.8v74.4h46.8V221.8L562.8,216Zm.3,72.4L545,228.6h36.3Z"/><path class="h" d="M529.3,300.7h8.6v50.8h-8.6Zm58.2,0h8.6v50.8h-8.6Z"/><path class="i" d="M529.2,295.2h66.9v9.1H529.2Z"/><path class="j" d="M622,274.3h12.6v68H622Z"/><path class="i" d="M526.2,267.5H730.5v8.8H526.2Z"/><path class="d" d="M600.4,342.2h55.8V351H600.4ZM363.8,216l-23.4,5.8v74.4h46.8V221.8L363.8,216Zm.3,72.4L346,228.6h36.3Z"/><path class="h" d="M330.3,300.7h8.6v50.8h-8.6Zm58.2,0h8.6v50.8h-8.6Z"/><path class="i" d="M330.2,295.2h66.9v9.1H330.2Z"/><path class="d" d="M232.8,216l-23.4,5.8v74.4h46.8V221.8L232.8,216Zm.3,72.4L215,228.6h36.3Z"/><path class="h" d="M199.3,300.7h8.6v50.8h-8.6Zm58.2,0h8.6v50.8h-8.6Z"/><path class="i" d="M199.2,295.2h66.9v9.1H199.2v-9.1Z"/><path class="j" d="M292,274.3h12.6v68H292Z"/><path class="i" d="M196.2,267.5H400.5v8.8H196.2Z"/><path class="d" d="M270.4,342.2h55.8V351H270.4Z"/><path class="k" d="M-12-9H1181V356H-12Z"/><path class="d" d="M91.8,202.4,73.7,278.7l25,.4,8.8-32.6Z"/><path class="d" d="M105.8,239l23.4-14.8,15.4,63.3-25-6.4L105.8,239Z"/><path class="h" d="M98.7,279.1,79.7,329,45.1,350l28.6-71.3Z"/><path class="l" d="M79.7,329l17,21H45.1Z"/><path class="h" d="M91.8,202.4l15.7,44.1,21.7-22.3Zm27.8,78.7L89.4,327.4l31.4,2,23.8-41.9Z"/><path class="l" d="M89.4,327.4,107.3,350h24l-10.5-20.6Z"/><path class="m" d="M142.3,188.7l20,31.9,16.2-10.7-15.7-36.7Z"/><path class="d" d="M168.3,186.1l-5.5-12.9-20.5,15.5,7.9,12.6,18.1-15.2Z"/><path class="m" d="M103.1,128.8,82.2,118.5l-4.6,17.9,21.5,16.2,4-23.8Z"/><path class="d" d="M88.8,144.8l12.9,10.1,1.4-26.1L95.5,125Z"/><path class="g" d="M119.2,137l-16.1-8.2L91.8,202.4l37.4,21.8,33.7-50.8-7-18.5Z"/><path class="m" d="M129.1,282.7l16,47.5,6.8,3.8,8.5-33.2-31.3-18.1Z"/><path class="h" d="M150.3,340.5l-1,9.5h-5.2l.3-7.1Z"/><path class="i" d="M145.1,330.2,122.9,350h14.7l12.7-9.5,1.6-7.9Z"/><path class="m" d="M118.2,279.4l-49.5,4-5.3-8.9,17.5-11.1Z"/><path class="h" d="M68.7,283.4,54.2,294.9l-4.7-4.6,9.6-8.9Z"/><path class="i" d="M63.4,274.5l-31.1-1.7,10.6,10.6H68.7Z"/><path class="n" d="M205,192.1,183.9,168l-12.1,5.2,6.5,28.3,26.7-9.4Z"/><path class="b" d="M171.8,173.2l-8.5-24.1,13.4-10.5,7.2,29.4-12.1,5.2Z"/><path class="h" d="M198.2,246.2l-20.9,14.6L133,230.5,185.5,193l12.7,53.2Z"/><path class="d" d="M217.1,196l-38.5-15.7,19.6,65.9,27-8.2,6.2-17.6L217.1,196Z"/><path class="h" d="M244.8,210.6,239.6,241l27.7,13,.6-45-23.1,1.6Z"/><path class="h" d="M285.9,232.5l-3.3,32.9L267.3,254l18.6-21.5Z"/><path class="l" d="M254.6,214.2,267.3,254l10.1-31-8.2-15ZM291.7,152l15,31.9-15,26.7-10.1-12Z"/><path class="d" d="M262.5,142.6l29.2,9.4-13.3,63.2-15.9-72.6Z"/><path class="m" d="M262.5,142.6l-54.7,21.2,10.8,27.5L198.1,198l33.3,22.4,36.9-7.6-1.2-11.5-8.5.9-1.5-7.2,20.2-2.1-14.8-50.3Z"/><path class="b" d="M258.3,178.3l-17.8-4.7-4.4-1.6,1.8-4.9,5.2-1.5,5.8-14.5,8.2,7,2.4,7.2Z"/><path class="l" d="M259.5,165l3.6,12.1-4.8,1.2,1.2-13.3Zm-2.4-6.9-3.7-9.1-4.5,2.1Z"/><path class="d" d="M238.3,187.6,236,172.7l-8.9-7.8-4,14Z"/><path class="n" d="M228.5,167.8l8,16.2-5.7-1.3-4.7-10Zm28.6-9.7-19.2,9,2.6,6.5,19-8.3Z"/><path class="l" d="M249,157.3c.4,1.1-.5,2.5-2,3.1s-3.2.2-3.6-.9.5-2.5,2-3.1S248.5,156.2,249,157.3Zm6.3,15.5c.4,1.1-.5,2.5-2,3.1s-3.2.2-3.6-.9.5-2.5,2-3.1S254.8,171.7,255.3,172.8Z"/><path class="b" d="M274.8,184.1l-52.1,16.7-4.1-9.5L198.2,198l.2.2,33,22.2,36.9-7.6-1.2-11.5-8.5.9-1.5-7.2,20.2-2.1-2.5-8.8Z"/><path class="g" d="M276.9,210.5l-.8-5.1-7.8.7,8.6,4.4Zm-58.3-19.2,4.1,9.5,2.5,6.1-27-8.9,20.4-6.7Z"/><path class="d" d="M277.3,192.9,257.1,195l1.5,7.2,8.5-.9,1.2,11.5,4.5,15.1,4.5-35Z"/><path class="h" d="M277.3,192.9l14.4,17.7L267.3,254Z"/><path class="d" d="M306.7,183.9l-9.8,43L267.3,254Zm-51.4,31.6-1.7-6.2-2.7,7.1,4.4-.9Z"/><path class="b" d="M225.2,238l-11.4,32-15.9-16,.3-7.8,27-8.2Z"/><path class="n" d="M197.9,254l-20.6,6.8.7,9.2h35.8Z"/><path class="g" d="M177.3,260.8l-16.9,39.1L80.9,263.4,133,230.5Z"/><path class="b" d="M177.3,260.8l-19.5,3.6,4.2,16.3L179.3,270l-2-9.2Z"/><path class="m" d="M157.8,264.4,149,267l2.6,9.8,10.4,3.9Z"/><path class="m" d="M177.3,260.8,164,257.3l-6.2,7.1Zm27.5-142.6-26.1,47.2-22.8-10.5-21.1,4.6L119.2,137l11.3-38.3,9.2,3.3-1,11.2,6.3.7,3.6-14.5,13.6-4.3,42.6,23.1Z"/><path class="b" d="M164.5,111.6l4.3,24.1,3,5.3,4.9-1.3,1.3-6.3,17.6-6.3-8.6-8.2-8.3-4.3Zm-2.3-17.8-17.8,55.1,11.5,6-21.1,4.6L119.2,137l11.3-38.3,9.2,3.3-1,11.2,6.3.7,3.6-14.5Z"/><path class="g" d="M155.9,154.9l-11.5-6-7.6-3.6-2,14.2,21.1-4.6ZM124,121l10.4-2.1-8.8-3.6Zm10.4-6.8,1.4-8.6-4.3-1.3,2.9,9.9Z"/><path class="l" d="M178.7,114.6l-12.5-7-1.7,4Zm8.3,4.3,11.2,5.2-2.6,3-8.6-8.2Z"/><path class="n" d="M178.7,114.6l-9.9,21.1,7.9,4L187,118.9Z"/><path class="l" d="M172,122.3c-.5,1.9-2.2,3.2-3.8,2.7s-2.4-2.4-1.9-4.3,2.2-3.2,3.8-2.7S172.5,120.3,172,122.3Zm18.5,9.2c-.5,1.9-2.2,3.2-3.8,2.7s-2.4-2.4-1.9-4.3,2.2-3.2,3.8-2.7S191,129.6,190.5,131.5Z"/><path class="d" d="M153.9,134.7,179,148.3l-8.2,5.2-13.2-6.6-3.7-12.2Z"/><path class="n" d="M158.2,139.3l15.6,9-2.7,2.3-11.9-5-1-6.3Z"/><path class="d" d="M204.8,118.2,178,72.3l-24.4,5.9,8.6,16.9,42.6,23.1Z"/><path class="h" d="M153.6,78.2l-24.1,2.3,1,18.2,9.2,3.3-1,11.2,6.3.7,3.6-14.5,13.6-4.3Z"/><path class="m" d="M119.2,137l-3.3,22.2,18.9.3Zm15.6,22.5,11.5,11.6,9.6-16.2-21.1,4.6Z"/><path class="b" d="M82.2,118.5l-.3-26.4-8.9-2-8.6,32.1,13.2,14.2Z"/><path class="m" d="M81.9,92.1,92.5,80.9l-2-21.8L79.3,56.8,73.7,71.6,73,90.1Z"/><path class="b" d="M90.5,59.1,79.3,56.8,73.7,71.6l18.2,2.5Z"/><path class="n" d="M91.1,65.5l-4.6-.8L81.9,92.1,92.5,80.9Z"/><path class="d" d="M257.5,206.8l7.3-.8.4,3.8-7.7-3Z"/><path class="h" d="M204.8,118.2l3.3-19.7L178,72.3Z"/><path class="o" d="M685.2,9.2l6.2,14.7,11-11.5,1.4,15.9,14-7.4-3.6,15.4,15.6-2.7-8.2,13.6,15.7,2.2-12,10.4,14.3,7L724.9,73l11.4,11.1-15.8,1.3,7.4,14-15.5-3.6,2.8,15.7-13.6-8.3L699.3,119l-10.4-12.1-7,14.3-6.1-14.7-11.1,11.4-1.3-15.8-14.1,7.4L653,94.1l-15.7,2.7,8.3-13.6-15.8-2.3,12.1-10.3-14.3-7,14.6-6.2L630.8,46.3,646.7,45l-7.5-14,15.5,3.6L652,18.9l13.6,8.3,2.2-15.8,10.4,12.1,7-14.3Z"/><path class="p" d="M795.1,9.8,799.6,25l12.3-10-.5,15.9,14.8-5.8-5.4,15,15.9-.9-9.8,12.5,15.4,4.1-13.2,8.9,13.4,8.6-15.3,4.4L837.3,90l-15.9-.5,5.8,14.8-15-5.4.9,15.9L800.5,105l-4,15.4-8.9-13.1L779,120.6l-4.4-15.2-12.4,10,.6-15.9-14.9,5.8,5.4-15-15.8.9,9.7-12.5-15.4-4.1L745,65.7l-13.4-8.6,15.3-4.4L736.8,40.4l15.9.5L747,26.1l14.9,5.4L761,15.6l12.6,9.8,4-15.4,8.9,13.1,8.6-13.3Z"/><path class="o" d="M909.1,12.4l1.4,15.8,14.1-7.5L921,36.2l15.6-2.8L928.5,47l15.7,2.2-12,10.4,14.3,7-14.6,6.2,11.5,11-15.9,1.4,7.5,14-15.5-3.5,2.8,15.6-13.6-8.2-2.2,15.8-10.4-12-6.9,14.3-6.3-14.6-11,11.4-1.4-15.8-14,7.5,3.6-15.5L844.4,97l8.2-13.6-15.7-2.2,11.9-10.4-14.3-7,14.7-6.2-11.5-11,15.8-1.4-7.5-14,15.5,3.5-2.8-15.6,13.7,8.2,2.1-15.8,10.5,12,6.9-14.3,6.2,14.6Z"/><path class="p" d="M1001.4,9.7l4.6,15.2,12.2-10.3-.3,15.9,14.7-5.9-5.2,15,15.9-1.1-9.6,12.7,15.4,3.8-13,9.1,13.5,8.4-15.3,4.7,10.3,12.1-15.9-.3,5.9,14.8-15-5.2,1.1,15.8-12.7-9.6-3.8,15.5-9.1-13.1-8.4,13.5-4.6-15.2-12.2,10.2.3-15.9-14.8,6,5.2-15-15.8,1.1,9.6-12.7-15.5-3.8L952,66.3l-13.5-8.4,15.2-4.7L943.5,41.1l15.9.3-6-14.8,15,5.2L967.3,16,980,25.5l3.8-15.4,9.1,13.1,8.5-13.5Z"/><path class="n" d="M1040,145.1V184l-25.9,7.5Z"/><path class="j" d="M1065.3,138.4l-25.3,6.7-1.2,69.3,71.6-1.4,7-55.1-4.6-2Z"/><path class="m" d="M1063.3,156.2l10.1,20.4,20.4-11.4-10.5-27.1Z"/><path class="l" d="M1073.4,176.6l10.8-6.1-4.1-10.8,7.3-8.2-5.5-12.1-2.1,1.9-6.9,6.7,1.7,10.5-7.1,6.1,5.9,12Z"/><path class="n" d="M1081.3,145.1l12.5,20.1,9.1-18.6-35.3-8.5-4.3,18.1,18-11.1Z"/><path class="m" d="M1065.6,83.1l-14.9,51.8,62.1,21,13.6-29.7-9-5.2-10.8,10.7-6.1-6.7,22.2-27.3-14.6-10.8-21,3.8-8.7-11.4-12.8,3.8Z"/><path class="b" d="M1099.7,110.5l-17.2,8.1-6.4,2.6-2.7-5.5,2.1-4.1-10.2-12.8,19.2-1.1Z"/><path class="n" d="M1079.6,98l-6.2,17.7,9.1,2.9,7.3-16.9-5.3-4Z"/><path class="b" d="M1112.8,155.9l13.6-29.7-9-5.2-10.8,10.7-5.9-6.5-9.5,23.4,21.6,7.3Zm1.6-64.4L1101,124.4l21.7-26.7-8.3-6.2Z"/><path class="l" d="M1101.7,106.1l-16.6-9.9-18.3-2-1.5,4.6h18.6l15.8,11.7Zm-23.3-26.8,19.2-4.1,10.5,11.7-21,3.8Zm44.3,18.4,11.6,8.1-7.9,20.4-9-5.2-10.8,10.7-5.9-6.5,22-27.5Z"/><path class="l" d="M1094.3,114.6a2.92,2.92,0,1,1-2.2-3.7A3,3,0,0,1,1094.3,114.6Zm-20.6-7.3a2.92,2.92,0,1,1-2.2-3.7A3,3,0,0,1,1073.7,107.3Zm-10.4,12.5,26.7,9.3-9,5.5-15.7-5.5Z"/><path class="n" d="M1066.5,122.9l18.6,6.4-4.7,3.6-13.1-4.7Zm50.9,35,27.4,53.6-34.7-.6,2.9-24.2,4.4-28.8Z"/><path class="m" d="M1144.8,211.5,1113,186.7l-16.2,11.4.2,12.5,47.8.9Z"/><path class="b" d="M1096.8,198.1l-21.6,12.8,21.8-.3-.2-12.5Z"/><path class="g" d="M1115,151l1.6-3.5,2.6-6.2-7.9-5.5L1115,151Zm.7-18.1,2.6-6.4,3.8,2Z"/><path class="m" d="M1039.3,184l6.9,11-19,14.9-13.3.2.2-18.6,25.2-7.5Z"/><path class="b" d="M1046.2,195l8.1,14.7-27.1.2Z"/><path class="q" d="M805.6,191.2h2.8v16.3h-2.8Z"/><path class="q" d="M801.5,207.2h11v3.1h-11ZM790.6,180,807,193.2,823.4,180Z"/><path class="j" d="M818.2,184.2H795.8l11.2,9Z"/><path class="q" d="M855.6,191.2h2.8v16.3h-2.8Z"/><path class="q" d="M851.5,207.2h11v3.1h-11ZM840.6,180,857,193.2,873.4,180Z"/><path class="j" d="M868.2,184.2H845.8l11.2,9Z"/><path class="q" d="M905.6,191.2h2.8v16.3h-2.8Z"/><path class="q" d="M901.5,207.2h11v3.1h-11ZM890.6,180,907,193.2,923.4,180Z"/><path class="j" d="M918.2,184.2H895.8l11.2,9Z"/><path class="i" d="M971.9,151.5V139.1h2v-6.3H962v6.3h2v12.4a10.8,10.8,0,0,0-6.8,10v48.9h21.6V161.5a11,11,0,0,0-6.9-10Z"/><path class="j" d="M963.9,147.3v4.2a10.8,10.8,0,0,0-6.8,10v48.9h21.6V161.5a10.6,10.6,0,0,0-6.8-10v-4.2Z"/><path class="r" d="M957.1,169.8h21.6v17.6H957.1Z"/><path class="j" d="M963.9,138.7h8v1.6h-8Z"/><path class="g" d="M776.5,223.1h397.1V353.5H776.5Z"/><g class="s"><path class="b" d="M801.6,216.1l-10.8-.3,14.5,44,23.6-14.4-27.3-29.3Zm51.3,55.1L823,313.6,838,359l37.9-63.2-23-24.6Zm83.3,89.3L904,325.9l-39.2,34.4,71.4.2Z"/><path class="b" d="M890.4,217.9l-14-1.4-47.5,28.9,24,25.8,37.5-53.3ZM761.1,286.7l-20.3,74.5,48.2.7,34-48.3-17.7-53.8-44.2,26.9Zm160.8-67.4-46,76.5L904,325.9l72.4-63.4-19.6-43.3-34.9.1Zm104.2-.4-42.3.2,17.1,21.9,25.2-22.1ZM985.9,360.2l27.2,1,4.2-8.3-18-39.8-13.4,47.1Zm58.9-62.8,26-52.3-20.1-26.5-24.6.3-11.4,39.8ZM979.9,214l-25.2.7,2.1,4.5,27-.1-3.9-5.1Zm21,27-24.5,21.5,22.9,50.6,15.4-54.4L1000.9,241Z"/><path class="b" d="M1044.8,297.4l-27.5,55.5,4.2,9.4,37.3-1.5,15.9-25.1ZM1177.1,277l-.4-59.1-28.6,1.4-21.4,33.8,29,56.8Z"/><path class="b" d="M1074.7,335.7l18.5,23.8-34.4,1.3-2,3.2,66.1-3.5,16.3-25.1-35.1-46.3Zm104.1,19.6-23.1-45.4-16.5,25.5,15.9,20.9Z"/><path class="b" d="M1070.8,245.1l33.3,44,22.6-36-19.5-38.4h-59.5l3,3.9,33.4-.4Z"/></g><path class="d" d="M776.5,219.8H1174v4.9H776.5Z"/><path class="g" d="M768.8,209.8H1174V221H768.8Z"/><path class="h" d="M901.1,276.3H949v5.9H901.1Z"/><path class="j" d="M882.4,351.8l20.1-103,7.2,1.4-20.1,103Zm58.1-101.5,7.2-1.4,20.1,103-7.2,1.4-20.1-103Z"/><path class="d" d="M888.5,243.4h73.8v11.9H888.5Z"/><path class="h" d="M771.1,276.3H819v5.9H771.1Z"/><path class="j" d="M752.4,351.8l20.1-103,7.2,1.4-20.1,103Zm58-101.5,7.2-1.4,20.1,103-7.2,1.4-20.1-103Z"/><path class="d" d="M758.5,243.4h73.8v11.9H758.5Z"/><path class="h" d="M1031.1,276.3H1079v5.9h-47.9Z"/><path class="j" d="M1012.4,351.8l20.1-103,7.2,1.4-20.1,103-7.2-1.4Zm58.1-101.5,7.2-1.4,20.1,103-7.2,1.4-20.1-103Z"/><path class="d" d="M1018.5,243.4h73.8v11.9h-73.8V243.4Z"/><path class="t" d="M598.5,165.1,578,177.4l15.7,23.3,19.4-11.1-14.6-24.5Z"/><path class="i" d="M593.7,200.7l-25.2-37.9-13.4,6.6L573.9,212l19.8-11.3Z"/><path class="b" d="M568.5,162.8l-1.1-16.1-5.7-3.3-17.4,10.9,10.8,15.1,13.4-6.6Z"/><path class="m" d="M561.7,143.4l-4-6.3-17.9,6.8,4.5,10.4Z"/><path class="r" d="M567.4,147.7l-8.3,3.3,4.3,14.3,5.1-2.5Z"/><path class="n" d="M554.6,154.3l13-3.7-.2-3.9-5.7-3.3-9.4,5.9,2.3,5Z"/><path class="o" d="M641.2,350H610.4l25.5-21.6Z"/><path class="t" d="M618.7,286.9,641.2,350l9.1-63.3-31.6.2Z"/><path class="t" d="M635.7,232.3l-17,54.6,32.1.7,4.4-52.7Z"/><path class="t" d="M632.4,228.5l18.1,27.8,8.3-31.8-26.4,4Z"/><path class="o" d="M661.4,304.6l-11.8,33.7,25-15.5Z"/><path class="t" d="M670.1,272.1l4.5,50.7-22.9-25Z"/><path class="h" d="M688.9,222.1l4.5,31.1-41.7,44.6-14.1-20.1,18.8-52Z"/><path class="j" d="M656.2,138.2l25.2-.7,7.5,84.6-56.5,6.4-33.9-63.4,17.6-14.6,40.1-12.3Z"/><path class="m" d="M579.4,89.9l8,56.1h23.3l7.1,6.2,13.4,10.3,25-24.3-6.6-19.3,7.3-1.9-1.2-16-11.3,1-7.1-17.2-57.9,5.1Z"/><path class="b" d="M656.9,117l-1.2-16-11.3,1-7.1-17.2-10,.9,2,54.7,1.9,22.1,25-24.3-6.6-19.3,7.3-1.9Z"/><path class="g" d="M587.4,146h23.3l7.1,6.2,13.4,10.3,3.5-22.8Z"/><path class="b" d="M621.8,101.3l-12,14.1-3.3,6.6-4.3-5.7v-6.1l-13.4-5.7,11.3-5.6,8.5-1.4Z"/><path class="n" d="M600.1,98.9l2.1,17.4,7.6-.9-1.2-17.9-8.5,1.4Z"/><path class="o" d="M608.6,97.5l13.2,3.8V96.5ZM588,99.8l12.1-.9-11.3,5.6"/><path class="l" d="M619.9,108.2a2.94,2.94,0,1,1-2.9-3.4A3.17,3.17,0,0,1,619.9,108.2Zm-22.4,2.1a2.94,2.94,0,1,1-2.9-3.4A3.17,3.17,0,0,1,597.5,110.3Z"/><path class="g" d="M649.1,113.3l-.5-8,4.5-.7Z"/><path class="l" d="M592.8,124.8l30.4-3-7.8,10.3-15.3,1.7-7.3-9Z"/><path class="n" d="M598,126.7l19.8-2.1-4.5,5.9-11.5,1.4Z"/><path class="t" d="M579.4,89.9l2.8-24.5,44.5-2.1L596.6,92.1Z"/><path class="j" d="M582.2,65.4l-20.3-.7,17.5,25.2Zm14.4,26.7,30.1-28.8L648.2,68,637.3,84.8l-40.7,7.3Z"/><path class="l" d="M637.3,84.8,648.2,68l7.5,33-11.3,1-7.1-17.2Z"/><path class="i" d="M705.7,178.1l-19.3,17.4,10.3,14.6,32.5-25.7Z"/><path class="b" d="M686.4,195.5l-16.8,2.4-.9,11.3Z"/><path class="m" d="M686.4,195.5l-20.8,14.6,12,13.7,19.1-13.7Z"/><path class="j" d="M681.4,137.5l47.8,46.9-44.5-7.3Z"/><path class="t" d="M706.4,162l-25-24.5,3.3,39.6,11.9,2Z"/><polygon class="u" points="375.07 350.25 460.68 340.46 530.8 348.62 459 355.33 375.07 350.25"/><polygon class="v" points="471.31 181.87 503.98 216.2 500.85 222.7 482.13 215.51 471.79 206.69 472.95 191.64 471.31 181.87"/><polygon class="w" points="482.13 215.51 518.64 206.69 521.59 209.39 522.26 217.19 499.33 228.21 482.13 215.51"/><polygon class="x" points="522.24 208.1 531.35 199.81 535.15 206.23 534.72 214.86 522.26 217.19 520.65 212.53 522.24 208.1"/><polygon class="w" points="530.89 197.09 537.29 195.94 542.93 209.74 534.72 214.86 531.02 207.43 530.89 197.09"/><polygon class="v" points="518.64 206.69 520.65 212.53 526.12 209.45 527.48 204.86 531.78 208.95 535.06 207.88 530.89 197.09 525.52 199.49 518.64 206.69"/><polygon class="y" points="413.76 167.89 440.2 169.21 440.2 146.65 413.76 167.89"/><polygon class="t" points="406.09 107.88 388.67 134.32 414.47 127.93 406.09 107.88"/><polygon class="z" points="446.16 350.25 421.33 349.73 420.27 342.32 432.06 342.32 446.16 350.25"/><polygon class="v" points="430.02 188.81 409.42 217.57 416.66 222.3 430.7 217.57 432.26 196.62 430.02 188.81"/><polygon class="w" points="430.7 217.57 392.33 206.18 389.24 208.71 388.15 216.46 413.33 228.87 430.7 217.57"/><polygon class="z" points="481.06 332.25 458.87 319.61 462.05 312.73 473.08 322.32 481.06 332.25"/><polygon class="aa" points="445.13 303.28 464.58 295.44 476.65 269.62 437.95 279.39 445.13 303.28"/><polygon class="v" points="476.4 306.73 483.15 329.77 480.09 329.04 476.58 327.22 466.93 317.74 465.23 312.01 467.59 307.29 471.79 299.61 476.4 306.73"/><polygon class="w" points="481.11 270.38 476.4 306.73 467.59 307.29 464.58 295.44 472.52 268.84 481.11 270.38"/><polygon class="v" points="432.26 322.52 431.07 332.59 447.11 347.15 443.43 348.4 428.61 344.85 422.64 340.6 421.35 334.12 432.26 322.52"/><polygon class="w" points="438.67 316.74 431.07 332.59 421.35 334.12 424.3 311.67 428.07 305.07 438.67 316.74"/><polygon class="x" points="424.46 311.6 438.67 316.74 445.13 303.28 432.74 299.61 424.46 311.6"/><polygon class="x" points="462.48 287.14 464.58 295.44 481.11 270.38 468.05 265.39 462.48 287.14"/><polygon class="v" points="429.89 188.42 471.31 181.87 458.37 202.8 429.89 188.42"/><polygon class="ab" points="429.89 188.42 430.7 217.57 450.57 207.94 458.2 199.75 429.89 188.42"/><polygon class="ab" points="458.2 199.75 471.31 181.87 482.13 215.51 464.73 210.34 458.2 199.75"/><polygon class="z" points="430.7 217.57 431.29 236.32 458.28 262.33 482.13 215.51 458.2 199.75 430.7 217.57"/><polygon class="ac" points="433.22 245.84 481.11 270.38 444.05 303.72 435.35 302.25 414.06 256.97 433.22 245.84"/><polygon class="ad" points="414.06 256.97 445.13 303.28 424.3 311.67 414.06 256.97"/><polygon class="x" points="388.66 207.39 380.01 198.62 375.87 204.82 375.82 213.46 388.15 216.46 390 211.9 388.66 207.39"/><polygon class="w" points="380.62 195.92 374.29 194.44 367.91 207.9 375.82 213.46 379.93 206.24 380.62 195.92"/><polygon class="v" points="392.33 206.18 390 211.9 384.71 208.53 383.6 203.87 379.08 207.72 375.87 206.47 380.62 195.92 385.85 198.62 392.33 206.18"/><polygon class="y" points="524.06 130.65 523.38 143.26 505.73 142.47 509.63 122.18 524.06 130.65"/><polygon class="o" points="518.4 103.58 531.66 125.76 517 129.94 511.12 125.92 508.76 108.78 518.4 103.58"/><polygon class="p" points="531.66 125.76 511.12 125.92 500.7 132.11 505.73 142.47 531.66 125.76"/><polygon class="p" points="388.67 134.32 421.73 149.81 438.11 151.55 438.67 132.12 429.89 117.12 388.67 134.32"/><polygon class="aa" points="505.81 130.58 511.39 150.59 497.8 155.17 500.12 148.07 503.71 146.82 502.28 141.44 501.28 137.3 505.81 130.58"/><polygon class="v" points="436.12 134.72 440.23 158.42 447.84 180.24 461.63 181.14 469.73 171.5 493.82 179.03 518.4 103.58 460.13 117.66 436.12 134.72"/><polygon class="w" points="461.25 134.41 453.53 167.69 469.73 171.5 460.22 182.74 459.31 190.91 442.02 186.5 438.11 151.55 439.51 145.68 436.12 134.72 455.23 118.98 461.25 134.41"/><polygon class="w" points="499.09 121.24 496.64 123.12 491.61 138.64 502.82 128.89 507.19 125.19 499.09 121.24"/><polygon class="w" points="491.51 121.43 487.8 117.28 475.77 116.97 483.09 130.65 484.03 142.13 491.51 121.43"/><polygon class="x" points="449.96 145.33 438.11 151.55 436.12 134.72 447.33 123.3 457.72 132.46 449.96 145.33"/><polygon class="ae" points="491.51 121.43 496.64 123.12 489.87 144.02 484.03 142.13 491.51 121.43"/><polygon class="x" points="484.03 142.13 485.92 146.65 489.87 144.02 484.03 142.13"/><polygon class="x" points="516.82 108.45 460.69 137.24 450.69 136.61 454.4 127.67 487.8 117.28 518.4 103.58 516.82 108.45"/><polygon class="o" points="425.63 105.11 422.4 97.36 391.6 89.61 415.51 143.68 430.98 129.94 432.98 118.82 425.63 105.11"/><polygon class="t" points="415.51 109.19 391.6 89.61 436.12 85.06 430.73 100.7 415.51 109.19"/><polygon class="o" points="490.37 79 452.97 65.33 415.51 109.19 461.06 96.4 490.37 79"/><polygon class="y" points="501.73 115.78 507.19 125.19 499.09 121.24 501.73 115.78"/><polygon class="aa" points="464.73 144.86 485.39 148.12 496.98 156.43 478.28 168.76 464.73 144.86"/><polygon class="p" points="473.67 154.46 481.02 152.03 487.43 159.4 482.56 162.69 477.34 160.86 473.67 154.46"/><polygon class="n" points="473.67 154.46 487.43 159.4 492.31 156.11 470 148.06 473.67 154.46"/><polygon class="aa" points="454.88 130.9 449.96 145.33 430.07 139.04 431.19 135.68 436.12 134.72 446.38 137.8 448.21 132.26 454.88 130.9"/><polygon class="x" points="469.73 171.5 448.27 164.53 459.31 190.91 469.73 171.5"/><polygon class="y" points="432.98 118.82 415.51 143.68 454.88 130.9 432.98 118.82"/><path class="af" d="M503.9,132.11a3.2,3.2,0,1,1-3.2-3.2A3.2,3.2,0,0,1,503.9,132.11Z"/><path class="af" d="M484.89,125.76a3.21,3.21,0,1,1-3.21-3.21A3.21,3.21,0,0,1,484.89,125.76Z"/><polygon class="p" points="527.89 98.46 461.25 134.41 415.51 109.19 468.68 102.09 527.89 98.46"/><polygon class="j" points="527.89 98.46 507 72.3 415.51 109.19 527.89 98.46"/><polygon class="p" points="388.67 134.32 438.11 151.55 413.76 167.89 388.67 134.32"/><polygon class="w" points="421.35 334.12 428.61 344.85 450.4 346.43 446.16 350.25 420.27 342.32 421.35 334.12"/><polygon class="ab" points="439.4 340.15 435.34 346.93 438.67 347.95 442.05 342.56 439.4 340.15"/><polygon class="w" points="467.59 307.29 466.93 317.74 486.46 330.41 481.06 332.25 462.05 312.73 467.59 307.29"/><polygon class="ab" points="479.99 319 472.86 323.83 475.01 326.04 481.02 322.49 479.99 319"/><polygon class="ag" points="481.11 270.38 414.06 256.97 431.29 236.32 481.11 270.38"/></svg>