<svg xmlns="http://www.w3.org/2000/svg" viewBox="0 0 900 350" width="900" height="350" style="width:100%;height:100%"><defs><clipPath id="a"><path d="M0 0h900v350H0z"/></clipPath></defs><g clip-path="url(#a)"><g display="block"><path fill="#BC8F2D" d="M253.24899644 81.41899729l-1.37400002 7.17199993h1.37400002l2.75000006-7.17199993h-2.75000006z"/><path fill="#F4D75D" d="M195.39400244 53.22099686l-7.75700045 10.2340002h16.6060009l-8.84900045-10.2340002z"/><path fill="#CCAD14" d="M191.51500607 63.4549973l-5.14900017 7.8499999h18.967l-4.48499965-7.8499999h-9.33300018zM189.12499905 79.73299646l-2.37199974 3.686 18.57999992 1.53199994-2.70800018-6.52799988-13.5 1.30999994z"/><path fill="#F4D75D" d="M188.96999979 71.30499744l-3.63499975 8.39100027 19.99799919.19500018-3.75799942-8.58600045h-12.60500002z"/><path fill="#BC8F2D" d="M231.98899585 80.92599797v7.66400004l1.011-1.71400023.91599999-6.25-1.92699999.3000002z"/><path fill="#CCAD14" d="M227.37499857 77.18799663l-4.23000002 4.96799993 18.68799973-.46799993-3.89499999-5.43599987-10.56299972.93599987z"/><path fill="#F4D75D" d="M226.4589982 71.91699648l-3.31399965 6.13000011 18.68900013-1.85800004-3.50000048-5.52200007-11.875 1.25z"/><path fill="#CCAD14" d="M227.02300644 65.89499736l-3.87899971 7.10500002 18.68900013-2.16000009-6.03800035-5.47600007-8.77200007.53100014z"/><path fill="#F4D75D" d="M231.49999842 59.37099695l-8.35499987 8.16800022 17.68799973-1.87900018-9.33299986-6.28900004zM264.49901175 52.92199707l-11.25000023 6.95399976 15.8760004 2.36799979-4.62600017-9.32199955z"/><path fill="#CCAD14" d="M257.25401175 60.47299671l-8.7540003 7.0650003 20.62400054 2.08700013-2.50000047-8.37500024-9.36999977-.77700019z"/><path fill="#F4D75D" d="M252.25801182 67.91799736l-5.88300038 6.79299998 21.62400055 2.1650002-1.74600029-7.5400002-13.99499988-1.41799998z"/><path fill="#CCAD14" d="M250.36399984 75.10999656L245.125 80.62499654l21.75 2.12499988-1.58100033-6.1459999-14.92999983-1.49399996z"/><path fill="#F4D75D" d="M277.03799778 79.16599703l-7.15499979 5.7939999 12.99199963 1.60000015-5.83699984-7.39400005z"/><path fill="#CCAD14" d="M272.15701413 85.23999763l-4.15799975 4.74699986 14.00599956.90699994-1.01099968-4.56599986-8.83700013-1.08799994z"/><path fill="#BC8F2D" d="M857.75302148 178.2289977l-.51199997-5.64400005-2.35000002.04500008 1.14899999 5.53699994 1.713.06200004zM869.55300927 183.8729949l-.51199996-5.64400005-2.35000003.04500007 1.149 5.53699994 1.713.06200004z"/><path fill="#E5C828" d="M854.17200147 154.53599858l4.91000022 4.75-10.08600045 1.57200003 5.17600023-6.32200003z"/><path fill="#CCAD14" d="M856.90401077 159.624995l3.57399988 5.23099994-11.13399982 1.59299993 2.41599989-6.023 5.14400005-.80099988z"/><path fill="#E5C828" d="M858.96902537 165.06999612l3.09200025 3.8409999-13.77000046 2.58899993 2.70800018-5.33299995 7.97000003-1.09699988z"/><path fill="#CCAD14" d="M859.80000544 169.27199745l3.54899978 4.08300007-15.6619997.52100002.60399961-2.37500004 11.5090003-2.22900005z"/><path fill="#E5C828" d="M867.103 162.92599678l3.81400006 3.6889999-7.83400012 1.22099995L867.103 162.92599678z"/><path fill="#CCAD14" d="M869.22498584 166.87899375l3.50800013 3.9289999-9.22000026.9749999 1.71800017-4.2809999 3.99399996-.6229999zM871.47502923 174.37199354l2.34200025 4.4460001-10.57400036-.32200003 1.47700023-3.04700005 6.75499988-1.07700002z"/><path fill="#E5C828" d="M870.74802303 171.01899529l3.033 4.10799992-10.59000016.56599986 2.64499998-4.15399992 4.91200018-.51999986z"/><path fill="#C4C4C4" d="M459.58702087 122.3939972l22.66300965-3.50500108 46.79699707 10.8350029 57.06100035.23599816 55.79100084 16.03600025 32.88599777 3.5039997 41.86000824 11.17500008-132.60900688 44.19600117-124.44900704-82.47700119z"/><path fill="#CECECD" d="M661.93899536 163.2089901l27.1989975 27.2930007 148.45199966 25.69599962 62.4090004-10.69799996-42.16600037-29.9159994-50.6669979 7.98899983-60.91700173-25.82099962-84.30999756 5.45699883z"/><path fill="#C4C4C4" d="M746.8669815 155.11399841l11.3820038 13.63600064-22.39500237 29.83700084L677.09698296 205.5l-22.48000145-34.3720007 7.32100296-7.91899967 84.92899704-8.09500122z"/><path fill="#C4C4C4" d="M746.8669815 155.11399841l11.38300324 13.63600064-22.39500046 29.83700084L677.09698296 205.5l-22.48000145-34.3720007 7.32100296-7.91899967 84.92899704-8.09500122z"/><path fill="#DDDDDC" d="M858.41699219 173.66699886l-19.45999909 42.9440012-69.25799942-20.89400196-9.0320015-43.35000133 97.75 21.3000021z"/><path fill="#C4C4C4" d="M850.18097878 192.21499252l25.99399948 17.3690002-12.50799942 15.3110001-24.70999909-8.28400039 11.22399903-24.3959999z"/><path fill="#CECECD" d="M850.18200302 192.2149918l25.99500036 17.3690002 23.82300043-4.08400058-41.58300018-31.83199978-8.2350006 18.54700017zM.0550232 179.62499619l41.44396972 4.56599807 22.50001526 22.67900086-12.03599548 15.52500152 426.08898925-4.26799774 119.94699097-42.4750042-201.74398804-77.62599754-130.96199798-.75200271-92.66999817-16.34700013L.05502319 179.6249962z"/><path fill="#A3A3A3" d="M.0550003 179.625l41.44399977 4.56599998 54.50199938-52.63000106-3.11600113-5.02799988L.05500031 179.625z"/><path fill="#C4C4C4" d="M64.00000763 206.86999893l168.36000061-90.06100082 46.90200043 43.914999-227.29800415 61.67099953 12.0360031-15.5249977z"/><path fill="#DDDDDC" d="M265.2940092 103.60299301l53.09000111 37.06400108-33.10400104 25.5300007-17.28000021-13.0300007-35.64000082-36.3579998 32.93400097-13.20600128z"/><path fill="#A3A3A3" d="M316.6689949 139.46899796l-51.37600326-35.86600113 33.53500366-11.53199768 58.48999977 24.70700073 30.71800041 11.62799835 37.13000107 26.0939999 51.14300156 61.54699894-159.6400032-76.57799911z"/><path fill="#C4C4C4" d="M171.45999908 80.92699623l59.59699822 37.2840004 67.77200127-26.14100027-127.36899949-11.14300013z"/><path fill="#DDDDDC" d="M373.6559906 122.96899986l101.55600357 5.43800068 40.958004 15.75899983-88.50400353 11.66900062-19.56199836-13.12900066-34.44800568-19.73700047z"/><path fill="#DDDDDC" d="M620.05999756 172.74500275l-341.0019989-13.78300476L0 236.90999985l59 39.47500038 70.55899048 10.70899773-27.55999756 35.9070015 64.36999512 27h550.27502441L900 312.375v-77.34899998l-153.75-79.7890005-102.58299255-8.5699997-23.6070099 26.07800293z"/><path fill="#C4C4C4" d="M59 276.38499832L279.05899906 158.961998l80.40699673 9.68200302L489.58700562 196.75l-360.02799988 90.34400177L59 276.38499832z"/><path fill="#CECECD" d="M166.3690033 350.00099754H351l37.17500305-43.04600143-221.80599975 43.04600143zM504.76499939 268.126997l211.87999725 81.87400245 128.15799713-143.6190033-63.83300018-29.78900146-276.2049942 91.5340023z"/><path fill="#ECECEB" d="M389.00001526 218.66699219l212.30400085-43.125-3.17900085-3.66699982-16.70200348-10.61199951-65.2539978-17.09700012-185.02100373 11.0699997 57.852005 63.43099975z"/></g><g opacity=".1" display="block"><path fill="#2B2B2B" d="M713.87501526 232.50000715l13.75499725-7.05400038 30.70199967-9.94400024 54.16699981 3.9980011 58.99999619 25.49999905-71.49999666 11.50000095-86.12399626-24.00000048zM118.79000092 320.35200548l43.08700084-14.9550004 58.60599995 9.96900041-56.40199995 9.96700042-45.29100084-4.98100043zM275.40299988 262.0010109l21.93998718 5.8939991 87.49300766 51.04300117 137.6649971-34.24400091 73.92100525-13.35999966-56.13200378-17.73000097-41.25999833-15.0510006-223.62699508 23.44800186zM616.3349762 300.53500605l58.0240004-12.71700049 63.30800033 12.71700049-67.18600035 18.40199995-54.14600038-18.40199995zM220.66699982 273.5830152L233.25 268.91701531l8.08399963 3.83299995L229.25 275.8330152l-8.58300018-2.25zM266.25 287.83301526l7.583-2.50000006 8.667 2.41800006-8.75 2.66600005-7.5-2.58400005zM498.333992 320.3330149l6.6660002-2.16600006 7.75000017 2.16600005-6.75000018 1.66700001-7.66600019-1.667zM573.75000763 333.16701525l10.3320002-1.917 8.83400017 3.83299995-15.33400012 1.16700006-3.83200025-3.083zM524.33300781 315.75000036l12.41700006-5.49999988 9.33299994 6.24999988-12 2.33299982-9.75-3.08299982zM856.86302805 276.02600908l6.00399978-.842 6.00300019 1.58899995-6.8370002 2.14899996-5.16999977-2.8959999zM857.25097656 300.69700623l9-1.125 9 2.125-10.25 2.875-7.75-3.875zM831.91799736 293.42200673l12.0139997-2.7570001 10.49500012 1.4230001-10.66700011 3.41700006-11.84199971-2.08300006zM73.33300018 144.66800815L66.125 150.37600803l14.75 4.25 5.12500012-6.95799994 18.33300006-2.99999994-11.6670003-8.33300048-19.3329997 8.33300048z"/></g><g display="block"><path fill="#755800" d="M844.80201852 284.88300037l-.41799998 7.66200018-2.06199998-.31200027-1.13599997-10.50199986 3.61599993 3.15199995z"/><path fill="#E5C828" d="M831.91805363 279.37800813l12.88399958-13.45800042 5.36500001 11.2460004-5.365 7.7169999-12.8839996-5.50499988z"/><path fill="#F4D75D" d="M844.80200243 265.9200077v18.9630003l11.77600002-5.3789997-11.77600002-13.5840006z"/><path fill="#755800" d="M866.25103569 295.94599438v6.625l1.91699994-1.62400008 2.97899997-7.1919999-4.89599991 2.19099998z"/><path fill="#E5C828" d="M866.5010078 281.91399288l-10.41799999 8.36599982 10.16799999 5.66599977 7.08200001-6.7799998-6.83200001-7.25199979z"/><path fill="#F4D75D" d="M866.50000763 281.91399288l-.25 14.03199959 12.66499996-5.66599977-12.41499996-8.36599982z"/><path fill="#755800" d="M862.86602342 272.47200489v4.95300007l1.27700001-1.21399999 1.98900002-5.3770001-3.26600003 1.63800002z"/><path fill="#E5C828" d="M863.03300786 261.98299694l-6.95000005 6.25499988 6.78199995 4.2349999 3.96800005-4.30599988-3.79999995-6.1839999z"/><path fill="#F4D75D" d="M863.03205013 261.98299694l-.16699981 10.48999977 8.44799995-4.2349999-8.28100014-6.25499987z"/><path fill="#E5C828" d="M519.08203125 300.99899292l13.41699982 8.75 24.33300018-2.33400011-16.33299994-9.41599989-21.41700006 3z"/><path fill="#FFF" d="M531.33203125 302.66599298l3.41700006 2.75 7.33299994-1.08400006-4-2.25000006-6.75.58400012z"/><path fill="#755800" d="M532.50001574 309.74898505l1.74999988 7 2.8319999-7.41700005-4.58199978.41700005zM578.33202338 330.33200788v5.58399988l4.58400011-5.9159999-4.5840001.33200002z"/><path fill="#E5C828" d="M571.83203125 320.16599274l6.5 10.16600036 20.5-.33300018-9.33300018-8.16700006-17.66699982-1.66600012z"/><path fill="#FFF" d="M580.16602325 323.83198512l1.83300019 2.66699993 7.33300018-.16699993-2.50000024-2.5h-6.66600013z"/><path fill="#755800" d="M504.08202338 317.74899292l2.25000006 3.58299994 1.08400005-5.66599988-3.3340001 2.08299994z"/><path fill="#E5C828" d="M494.16602325 313.7500078l8.41600013-4.3339998 11.00000024 3.41599983-9.50000018 4.9179998-9.91600019-3.99999982z"/><path fill="#FFF" d="M500.49902344 313.2489851l3.333-1.333 3.667 1.333-3.917 1.417-3.083-1.417z"/><path fill="#755800" d="M273.25003088 284.00000787l.83200001 5.66599989 2.5-6.4159999-3.33200001.75z"/><path fill="#E5C828" d="M262.99902344 281.1659851l10.833-4.16700005 12.667 3.16700006-13.33299995 4.16599989-10.16700005-3.1659999z"/><path fill="#FFF" d="M271.000031 280.99898511l3.16699987.417 4.4149999-1.25-4.3319999-.75-3.24999988 1.583z"/><path fill="#755800" d="M233.1660235 267.41500783l-3.91800005 8.0849998-2.16600007-9.58399963 6.08400011 1.49899983z"/><path fill="#E5C828" d="M216.25002289 264.83200073l16.91600013 2.58300019 10.00000023-8.91600013-13.50000018-3.25000024-13.41600018 9.58300018z"/><path fill="#FFF" d="M225.99902344 262.16497803l5-3.75 3.5 2.33399999-8.5 1.416z"/><path fill="#AC923C" d="M720.26104736 102.69999504l-11.48899841 30.5510006 24.29399872 7.24799919 49.59599876-17.69599915 22.11300093 12.4319992 14.55399984-3.57599925 25.66999913 6.1999998 55-23.66299962-50.6649971-6.36100054-65.00000191-9.18499947-39.27900124-.93899917-24.79399872 4.98899841z"/><path fill="#CCAD14" d="M817.90901566 79.99198914l-33.57600022 18.65800058 60.66600013 17.4419998 55.00000024-1.89699936-26.99900055-36.33300019-55.0909996 2.12999917z"/><path fill="#E5C828" d="M900 114.19599152l-3.33300018-35.81699944L873 77.86199188l27 36.33399964z"/><path fill="#F4D75D" d="M878.00000763 46.99899197l-5 30.86299991 23.66600037.51699925-18.66600037-31.37999916z"/><path fill="#E5C828" d="M849.33405304 40.98999023l23.66600037 36.87200165 5-30.86300087-28.66600037-6.00900078z"/><path fill="#AC923C" d="M754.38703156 57.3329897l9.33300018-10.33300114h25.19199943l37.5869999 3.41900062 46.50099945 27.44300032-88.66699982 20.78800058-26.38999939-14.48900032-3.55599975-26.82800007z"/><path fill="#CCAD14" d="M838.33405304 22.55799103l-97 6.97800064 131.66600037 48.32600021-34.66600037-55.30400085z"/><path fill="#E5C828" d="M679.333004 57.3319912h75.05399704l-34.12699843 45.36800003-47.01699876-36.96000004 6.09000015-8.408z"/><path fill="#CCAD14" d="M704.97305489 41.33299255l49.41399955 16h-56.38800048l6.97400093-16z"/><path fill="#E5C828" d="M704.97301483 41.33299375l36.36000157-11.79599977 47.57800197 17.46299982-34.5240016 10.3329997-49.41400194-15.99999975z"/><path fill="#F4D75D" d="M772.666008-.00100708l-31.33399964 29.5380001 97.00099945-6.97800016L772.666008-.00100708z"/><path fill="#858686" d="M792.33303642 157.03899854l-16.66800117 3.63499982-14.9989996-8.30799962-13.72399997-8.56600046-2.20100022-7.46799945-11.6760006 4.1659994 25.37300063 28.36200047 22.45299959 7.72999955 11.44200134-19.5509997z"/><path fill="#858686" d="M792.33304977 157.03899384l-3.00099945 39.7110014-18.66600051 45.20100116-21.34699997-11.41400147 31.57299995-53.94599914-5.00199986-9.77999878 16.44299984-9.77200317zM834.13405418 135.23499298l-10.86499929 4.6439972v.00100326l-3.93500018-8.22000122-17.00100017-4.105999v28.21899796l-11.41999912 83.81299973 18.18399906-2.12400055 20.14900017-85.09599877 15.7529993-14.50699806-10.86499977-2.62400055z"/><path fill="#A3A3A3" d="M802.33304977 127.55399704l-19.67200088-4.75099945 9.6720004 34.23600197-21.66699933 84.91200065 20.24699936-2.36500167 20.04699936-84.90600014-8.6269989-27.12600136zM839.63903046 136.56398678l-13.88899947 8.49900007-2.75099992-5.14300004 11.13499975-4.68599996 5.50499964 1.32999993z"/><path fill="#A3A3A3" d="M746.2490158 155.23498869l14.41699982-2.8699994 31.66699982 4.67399954-6.98900032 11.94199967-33.72399902-7.74199962-5.3710003-6.0040002z"/><path fill="#A3A3A3" d="M733.06602764 140.49799895l27.60000038 11.86699987-15.92500019-16.0319996-11.67500019 4.16499973z"/><path fill="#CCAD14" d="M754.38702059 57.33299637l-34.12699938 45.36700058 16.40599918 8.28699875 47.66599942-12.3369999-29.94499922-41.31699943z"/><path fill="#BC8F2D" d="M41.39102575 155.98198915l-2.19899997-5.22399998 2.09599996-1.0619998 1.58599996 5.4289999-1.48299995.85699988z"/><path fill="#E5C828" d="M33.42402601 133.38398743l-2.10599994 6.5 9.64400005-3.351-7.5380001-3.149z"/><path fill="#CCAD14" d="M33.4020257 139.15999484l-.69899988 6.29599977 10.57600021-3.82299985-4.96100011-4.18099986-4.91600022 1.70799994z"/><path fill="#E5C828" d="M34.13702583 144.9369924l-.92500019 4.84500004 12.37800026-4.25199998-5.23600012-2.84000003-6.21699995 2.24699998z"/><path fill="#CCAD14" d="M35.37702656 149.03698766l-1.65700007 4.44200003 13.74800015-4.60500002-3.76300001-2.69700002-8.32800007 2.86000001z"/><path fill="#E5C828" d="M25.9500258 146.8649993l-1.63599992 5.05000019 7.48999977-2.6030001-5.85399985-2.4470001z"/><path fill="#CCAD14" d="M25.93202567 151.35199404l-1.25099969 5.11699986 8.59799957-3.47099988-3.5289998-2.97299989-3.81800008 1.3269999zM27.46702576 159.02298784l.02100038 5.02600003 9.18300009-5.25300003-2.73500025-1.99500012-6.46900022 2.22200012z"/><path fill="#E5C828" d="M26.53202581 155.72099805l-.74800014 5.05299997 9.61400032-4.47500002-4.28600013-2.42699993-4.58000005 1.84899998zM51.10502625 145.07899046l-1.54299975 6.3349998 10.55799961-6.03799987-4.17799985-.86599994-4.83700001.569z"/><path fill="#CCAD14" d="M50.82802606 141.59799886l-2.62500024 6.36399984 11.91600036-2.5859999-4.54100012-3.77799994h-4.75z"/><path fill="#E5C828" d="M53.07702637 137.84699225l-4.875 5.83400011 9.5-2.08400005-4.625-3.75000006zM74.7860241 111.32499361l.41499996 11.1170001 9.37000012-1.60300016 17.24900031-12.0449996-11.63600016-4.35200024-15.39800024 6.8829999z"/><path fill="#E5C828" d="M76.76902676 122.44199443l-3.52400017 13.85200047 16.10199971 2.16399956 15.84100013-19.07800007-9.9380002-6.31799984-18.48099947 9.37999988z"/><path fill="#F4D75D" d="M88.41802764 123.05498695l.92799985 15.40299988 4.10799992-18.11800003-5.03599977 2.71500015z"/><path fill="#2B2B2B" d="M82.4260254 122.49299133l6.2379999 4.64399993 4.78999997-6.79699993-5.03599996 2.71499997-5.99199992-.56199997z" opacity=".2"/><path fill="#CCAD14" d="M84.45402431 109.52599096l3.96399975 13.52900029-16.13199997 1.03499984.95900011-13.89300012 11.20900011-.671z"/><path fill="#2B2B2B" d="M90.56602478 104.48399496l-4.97299981 8.57800007-11.11099982-2.93800008 16.08399963-5.63999999z" opacity=".2"/><path fill="#F4D75D" d="M80.41502571 92.57499504l-7.17099953 16.02299976 11.20999957.9289999 8.99999952-7.42599987-13.03899956-9.52599979z"/><path fill="#E5C828" d="M64.04502487 137.06799364l-2.94200039 7.85299969 14.01200033-.28999996 9.45600008-6.78299988-12.2850002-4.05099976-8.24099982 3.27099991zM80.41602683 92.57399464l4.03799987 16.95300007-13.94999981.83500003 9.91199994-17.7880001z"/><path fill="#F4D75D" d="M73.24402523 136.2939918l1.8699994 8.33700014 14.23199988-6.17200011-5.79599952-6.58800012-10.30599976 4.4230001z"/><path fill="#2B2B2B" d="M83.5500269 131.87099028l-9.61799986 7.48899984-9.88599986-2.29099989 19.50399971-5.19799995z" opacity=".2"/><path fill="#BC8F2D" d="M75.11402416 144.63099861l-.32799995 7.46000004 1.786-1.39700007 1.53999998-7.36300016-2.99800003 1.3000002z"/><path fill="#E5C828" d="M63.91802597 126.34099007l-3.79899979 11.05900001 13.12500012-1.10699987 15.08300007-5.6840002-5.65700054-8.16700011-18.75199986 3.89900017z"/><path fill="#CCAD14" d="M72.78502607 126.34099531l.45899964 9.95199967-13.1239996 1.10599994 3.63399983-10.5749998 9.03100013-.4829998z"/><path fill="#2B2B2B" d="M82.70502663 122.4929936l-9.86799983 6.73199987-9.08500024-2.39999992 18.95300007-4.33199996z" opacity=".2"/><path fill="#F4D75D" d="M69.80902696 105.48498917l15.9400003 15.82700014-12.9650004 5.0300002-14.852.79500008 11.8770001-21.65200042z"/><path fill="#E5C828" d="M69.80902481 105.48498917l2.9749999 20.85700035-14.85200023.79500007 11.87700033-21.65200042z"/><path fill="#BC8F2D" d="M89.34602344 138.4579959v7.54099988l1.54400006-.95699978 1.73400006-7.19400024-3.27800012.61000013z"/><path fill="#ECECEB" d="M24.64602661 35.60999274L60.72802544 24.1899929l26.8169999 5.71099997h39.49600173l13.1649971 5.70899987-22.42899704 6.79999995-56.56200218 2.71799994-36.56899834-9.51799989z"/><path fill="#C4C4C4" d="M117.77702713 42.40899348l22.42899704-6.7980001-44.85899925 2.17599989-35.59399987-3.12800003-35.10699844.95200015 36.56899834 9.51800012 56.56200218-2.72000003z"/><path fill="#ECECEB" d="M569.25502014 25.59199286l37.54899979-14.47300005 103.25699997 7.23600006-14.50699997 13.37699985-40.1090002 5.04300022-42.66899968-4.16600036-29.01300049.87699985-14.50799942-7.89399957z"/><path fill="#C4C4C4" d="M612.7770195 32.60899258l42.66800022 4.16699981 40.1090002-5.04400015 14.50699998-13.37599992-36.6949997 5.59100008-104.11100006 1.64499998 14.50699997 7.89400005 29.0149994-.87699985z"/></g><g display="block"><path fill="#B48C71" d="M564.95699406 165.6179986l5.63900041 13.0430007 12.01800013-13.86200094-9.43300022-28.05200053-9.4690002 13.0260005 1.24499988 15.84500027z"/><path fill="#D0AB92" d="M531.40599537 126.05799866l-6.15400028 3.47599983-11.30400086 25.20300019 7.96600151 31.0430001h35.88699913l11.21300125-49.03199959-9.76100158-4.94600105-27.84699917-5.74399948z"/><path fill="#B48C71" d="M525.25199509 129.53299904l-4.21899987 2.25300026-10.96899986 22.3249998 8.03199986 17.408 7.15599987-41.98600006z"/><path fill="#CCAD14" d="M525.25199533 129.53199863l5.9230001 29.26600075-18.52400018-.6789999 12.60100008-28.58700085zM531.17599297 158.79699765l27.7930007-26.99700032 14.21100091 4.9470005-13.96700096 49.03100014-28.03700065-26.98100032z"/><path fill="#B48C71" d="M529.31699622 149.61099899l3.58800006-5.31400001-1.73000003 14.5-1.85800003-9.186z"/><path fill="#BC8F2D" d="M512.65099525 158.11899948l53.98199845 1.605999-7.42000008 26.05400085-23.09199905 8.13199997-14.20700073-8.13199997-9.26299859-27.65999985z"/></g><g display="block"><path fill="#D0AB92" d="M519.20800209 59.98999596l-8.78000069 46.12399864 35.75700093 11.17200088 16.76100063-37.29400062-13.47500038-23.79299927-17.81700039-3.2310009-12.4460001 7.02200127z"/><path fill="#B48C71" d="M534.69900131 136.74699593l24.27099967-4.94600106 16.3969996-38.3569994-12.4199996-13.45100116-16.76300001 37.29400062-11.48499966 19.460001z"/><path fill="#83624D" d="M555.15500355 120.25899315l-20.45699978 16.48799991-3.65700054-24.19199943 24.11400032 7.70399952zM563.14400244 98.46099758l8.18999958 4.4139998-2.50699973 5.86799979-5.68299985-10.28199959z"/><path fill="#4F5253" d="M569.90100121 87.52499557l-5.6539998 9.48300004.81599998-14.72200013 4.83799982 5.23900009z"/><path fill="#6F7173" d="M558.97000027 131.80099487l-2.24399948 20.27300263 13.57000064-5.20199967 11.84899903-11.01399994-1.90699959-20.019001 15.20599937-19.64500022-3.07500076-33.0769999-25.1289997-24.5870018-34.73399926-3.86999894-26.52199936 27.7140007 8.83399963 6.55500031 4.3899994-8.93799973 12.44799995-7.0229988 15.21900058-1.35100174 16.07300019 28.3760004 12.41899967 13.4519996-16.39700031 38.3559981z"/><path fill="#D0AB92" d="M568.4940005 85.99899673l-5.34999997 12.46299983 8.19199991 4.41299963 4.03200007-9.42999971-6.87400002-7.44599975z"/><path fill="#83624D" d="M567.07500339 95.29399586l6.28200006-1.17699993-4.10100001-4.02100003-2.18100005 5.19799996z"/><path fill="#4F5253" d="M531.6550026 52.96799707l.85099983-18.30900049 34.7329998 3.8710003L549.4700024 56.1989975l-17.81499982-3.23100043z"/><path fill="#6F7173" d="M592.36899948 63.1159954L562.9470005 79.99299497l12.41999913 13.45199997 20.07599926 2.7489996-3.0739994-33.07799912z"/><path fill="#858686" d="M567.2399981 38.52899551l-17.76899934 17.67100025 13.47599936 23.79300046 29.42199945-16.87700034-25.12899947-24.58700037z"/><path fill="#4F5253" d="M595.4430008 96.19299316l-15.20599962 19.64600087-21.26799941 15.96200084 16.39799953-38.3580017 20.0759995 2.75z"/><path fill="#4F5253" d="M558.96999931 131.79999876l23.17399979 4.05699968-11.84899989 11.01499987-11.3249999-15.07199955z"/><path fill="#6F7173" d="M524.87600195 110.62799454l-5.22099983 6.43799972 5.59699976 12.4659996 7.82899988-3.4739995-2.03999996-13.50300025-6.16499985-1.92699957z"/><path fill="#AC923C" d="M521.88800192 95.14699864l1.28399992 4.28499991 6.49300018 2.34299988 7.02300009-2.34299988-14.8000002-4.2849999z"/><path fill="#755800" d="M527.63700128 96.19299585l-1.54299999-1.708h-5.35599994l6.49199986 3.73199999 9.45799995 1.21599996-5.64699984-3.23999995h-3.40400004z"/><path fill="#D8BCA9" d="M531.04100078 76.73899794l3.65700013.73799991-3.0430001 11.54199982-5.21700013-1.04199982 4.6030001-11.23799991z"/><path fill="#83624D" d="M526.43900084 87.97699475l1.56200004 2.69000006 3.65400005-1.64800003-5.21600009-1.04200003z"/><path fill="#B48C71" d="M534.69900036 77.4769969l5.92499983-3.81799984 11.12299955 2.4289999-10.95899951 6.19899994-9.13299954 6.73199982 3.04399967-11.54199982zM531.04100084 76.73899794l-1.75499987-5.85699988-8.14299989-3.2119999 2.39299989 10.50099982 4.10800004 6.8609997 3.39699983-8.29299974z"/><path fill="#856400" d="M540.6240015 73.65799747l3.32799983-2.08300004 7.79399991 4.51200008-11.12199974-2.42900004zM529.28700209 70.88099706l-2.86600006-3.90400004-5.278.694 8.14400006 3.21000004z"/><path fill="#2B2B2B" d="M542.91700315 80.90499551c0 1.40099995-1.06300008 2.53700011-2.37400007 2.53700011-1.31200003 0-2.37400007-1.13600016-2.37400007-2.5370001 0-1.40200003 1.06200004-2.53900011 2.37400007-2.53900011 1.311 0 2.37400007 1.13700008 2.37400007 2.5390001zM527.25000143 76.73899841c0 1.40100003-1.06200004 2.53800011-2.37400007 2.53800011-1.31200004 0-2.37400007-1.13700008-2.37400007-2.5380001 0-1.40199996 1.06200003-2.53800011 2.37400007-2.53800011 1.31200003 0 2.37400007 1.13600015 2.37400007 2.5380001z"/><path fill="#4F5253" d="M531.04200172 112.5549984l-5.78900003 16.97800064 7.82800007-3.47500038-2.03900004-13.50300026zM519.20900154 59.989995l-13.22599983 2.38400078 8.72299981 21.26399994 4.50300002-23.64800072z"/><path fill="#858686" d="M519.65500164 117.06600022l8.7479999 3.22199989 2.63799978-7.73300004-6.16499984-1.92699981-5.22099984 6.43799996z"/><path fill="#E5C828" d="M571.81000066 100.58199918l-1.66000006.57200003-1.32299998-1.14999998.33500004-1.722 1.65899995-.57200003 1.322 1.15100003-.33299995 1.72099995z"/><g><path fill="#B48C71" d="M525.25200224 129.5319928l9.4460001 7.21399986-1.6170001-10.68799972-7.829 3.47399985z"/></g></g><g display="block"><path fill="#D0AB92" d="M501.5349865 135.6190033l11.11600017 22.5 4.8210001 14.40200042-16.13700008-2.16600036-9.27900029-27.96799946 9.4790001-6.7680006z"/><path fill="#E5C828" d="M491.89898682 142.32400322l9.63599991-6.70499992 1.64399982 3.32999992-9.97199965 6.90999985-1.30800008-3.53499985z"/></g><g display="block"><path fill="#B48C71" d="M492.05497932 142.38800049l-7.33300018-2.98599959 7.57300013-17.1539998 8.93899996 5.21499967.30000019 8.15700007-9.4790001 6.76799965z"/><path fill="#F4D75D" d="M504.76397896 95.29400063l-21.98499966-3.375-1.35299969 19.06899929 6.3449998 6.95600003-3.04900027 21.45800048-5.34799957 4.09899902 13.83199966 2.3579998-2.45499993-6.63699913-1.64999997-8.3039999 4.02699995-8.1110003.84099996-5.80700004L501.53497887 113.625l3.22900009-18.33099937z"/><path fill="#D0AB92" d="M501.53497887 135.62000227l1.05200004-7.98399997-8.6170001-10.6360004-.84100008 5.80700017 3.43200004 4.88100022-1.86799991 5.3120001 2.17799997 5.95000028 4.66400004-3.3300004z"/><path fill="#AC923C" d="M487.85797882 92.81300044l-1.4790001-9.37600017-7.09799977-3.68799972-9.47899989 4.80999994 1.05200005 11.44799996 11.29599977 4.78399992.62899994-8.87199986 5.079.89399993z"/><path fill="#F4D75D" d="M472.43497849 86.60400033v7.204l7.74800014-3.99199999-7.74800014-3.21200001zM474.1649785 84.52200043l6.52600003 4.42500007-.95799995-6.68200016-5.56800008 2.2570001zM481.76397884 88.34000063l.82700002-5.11999989 3.08300006 1.56099993-3.91000008 3.55899996zM480.69097853 91.2900002l-6.52600003 3.64600009 6.52600003 2.9500001V91.2900002zM486.0279783 89.47300041l-.35399997-1.82700002-2.48300004 2.86600005 3.19000006.778-.35300005-1.81700003z"/><path fill="#D0AB92" d="M487.77097829 117.94500065l-5.52100022.94399929L482.20797825 136.375l2.86599994.5550003 5.67700004 2.29099942 2.3770001-16.41399956-5.35700004-4.86199951z"/><path fill="#CCAD14" d="M484.72197914 96.19399929l16.81200028 2.2680006-2.53500033 13.01899958-7.0999999 3.97900057-8.0170002-4.8300004.84000015-14.43600035z"/><path fill="#F4D75D" d="M495.25697888 99.56000102l-1.288 1.33299999 1.288 1.33499999.962-1.335-.962-1.33299998zM497.36997785 101.89400065l-1.288 1.333 1.288 1.33499998.962-1.33499999-.962-1.333zM495.9809779 104.8970009l-1.288 1.333 1.288 1.335.962-1.335-.962-1.333zM497.2829784 98.93700081l-.60400002.62400001.60400001.62400002.45000001-.62400002-.45-.624z"/></g><g display="block"><path fill="#D0AB92" d="M513.94800663 221.41300392l-3.16100025 29.26300049 10.83399999 2.21500015 12.04799998-27.4800005-19.72099972-3.99800014zM563.74900627 223.47600365l-3.91299963 30.15200042h-10.6079998l-7.32099962-29.19400024 21.84199905-.95800018z"/><path fill="#83624D" d="M513.94900513 221.4140035l18.77700042 6.14700018 2.45100022-5.04300016-6.78500033-3.3730002-14.44300031 2.26900017zM563.74900532 223.96100312l-21.02199936 3.73499984-1.2460003-4.85099983 7.33399988-4.35099983 14.93399978 5.46699982z"/><path fill="#CCAD14" d="M521.62100601 252.89100504l1.41699982 4.65099978-13.78799981 11.05600047h-15.16399986l16.70099974-17.92200088 10.83400011 2.21500063z"/><path fill="#755800" d="M517.84200573 261.70900273l-.56499982 6.8900001h4.00399989l3.28199989-9.47400009-2.94199992-6.23400008-3.77900004 8.81800007z"/><path fill="#CCAD14" d="M549.22900724 253.62800312l-6.61899995 20.66399956h16.60199976l.62400007-20.66399956h-10.60699988z"/><path fill="#755800" d="M559.83700657 253.62800312l4.98199987 7.72399974-2.98899997 12.93999982h-2.61699997l.62400007-20.66399956z"/></g><g display="block"><path fill="#9E7700" d="M521.91302109 185.77899933l-7.9659996 35.63399887 49.80100059 2.54800034 2.88500023-21.00999964-7.42099953-17.17199957h-37.2990017z"/><path fill="#D0AB92" d="M561.83002377 191.64900017l19.59199953-30.38599968 6.77399969 20.02399987-21.56299973 21.66399985-4.8029995-11.30200004z"/><path fill="#BC8F2D" d="M559.21202087 185.77900124l-45.26499939 35.63399887 39.14599991-14.50399947 8.73600006-15.25999952-2.61700058-5.86999988z"/><path fill="#2B2B2B" d="M553.09302187 206.90900093l12.69099998 2.2209999.84899998-6.1789999-13.53999996 3.958z" opacity=".2"/><path fill="#B48C71" d="M561.83002305 191.64899921H551.755023l6.7140001 15.26000023 8.16400016-3.95800018-4.80300021-11.30200005z"/><path fill="#D0AB92" d="M551.75402117 191.64899921l-4.68900013 7.70800012 6.02800014 7.55200011h5.37600014l-6.71500015-15.26000023z"/></g><g display="block"><path fill="#CCAD14" d="M653.4599824 285.24901009l-11.04900027 12.58799982 15.67400015 2.69899988 11.46699965-2.69899988 1.8930006-10.01900006-9.50699997-6.16799974-8.47800016 3.59899998z"/><path fill="#BC8F2D" d="M653.46098232 285.24800873l17.98500037 2.56900024 27.48899961-28.13199942-31.3429997-14.68899972-13.64899993-7.36499977-15.89799976-6.07999993 15.41599941 53.6969986z"/><path fill="#B58B00" d="M667.59198189 244.99700928l1.79500007 19.95400047 14.64299995 12.33099937 14.90399999-17.59699964 3.52600002-17.73399973-10.13800001-12.02499962-24.73000002 15.07099915z"/><path fill="#BC8F2D" d="M671.44498253 287.81800795l-2.9119997 15.41500043 15.62799954 2.69799996 11.6059997-2.69799996-1.96899985-17.72800064-11.64799977-3.85400009-10.70499992 6.1670003z"/><path fill="#755800" d="M642.41298294 297.83801079h27.13999939l-1.0199995 5.3959999h-26.11999989v-5.3959999zM668.58198357 303.23300743h27.13899994l.04700088 5.3959999h-27.18600082v-5.3959999z"/><path fill="#9E7700" d="M646.63398361 261.47000885l22.75399971 3.48099995 2.05800057 22.86699962-17.98600006-2.56900024-6.82600022-23.77899933z"/><path fill="#856400" d="M698.9339838 259.68500996l-29.54599952 5.2670002 2.0579996 22.86700057 22.35200024-2.31300067 5.13599968-25.8210001z"/></g><g display="block"><path fill="#856400" d="M716.64504051 244.33400726l-7.5799998-32.80800056-7.31500018 22.59900045-.32099962 13.01700068 15.2159996-2.80800057z"/><path fill="#9E7700" d="M645.75404406 167.17301178l-3.0800004 25.71200132-4.00699997 6.28299976 2.28200054 8.12399983-2.90299988 24.25899935 15.89599979 6.08099937 13.64999974-25.5769987v-9.95399988l-5.65199948-38.89099849-16.18600034 3.96299744z"/><path fill="#9E7700" d="M712.5270462 174.39001274l-3.46199989 37.13700009-4.35100079 7.90000057-12.39099979 10.49899864-24.7310009-17.87099934-1.5909996-5.6800003 1.5909996-4.27399993 19.0120008-22.70399976 19.01300073-10.53499985 6.90999984 5.52799988z"/><path fill="#856400" d="M709.06504536 211.52700996l18.56599998 13.91899872-6.59800005-44.25099945-10.98399973-8.78699875-.9840002 39.11899948z"/><path fill="#BC8F2D" d="M694.40704346 228.0990119l14.65699947-16.57200003 18.56699955 13.91900003-25.16899967 12.81700003-8.05499935-10.16400003z"/><path fill="#D0AF96" d="M694.40704417 228.10000849l-2.08500027 1.82600021 10.14000034 12.02699995v-3.68900013l-8.05500007-10.16400003z"/><path fill="#ECECEB" d="M671.44704485 173.57201147l-7.12900019 6.01100016-2.37900018-16.37400055 9.50800037 10.3630004zM699.19404507 158.73001099l-27.7479992 14.8429997 9.67999983 9.95299982 18.06799937-24.79599952z"/><path fill="#DDDDDC" d="M659.07004166 228.10000944l8.52100038 3.3670001 21.54700041-3.84100055-21.5470004-15.5710001-8.5210004 16.04500055z"/><path fill="#856400" d="M653.94204521 237.63201225l13.64900065 7.36499989 24.73100042-15.0710001-3.18400002-2.30099964-21.5470004 3.84100008-8.52199984-3.3670001-5.1270008 9.53299987z"/><path fill="#C4C4C4" d="M671.44604301 173.5730114l-3.85400009 28.52799988 13.5340004-18.57499981-9.6800003-9.95300007zM667.59204388 212.05500889v19.41200065l21.54599952-3.84100055-21.54599952-15.5710001z"/><path fill="#CCAD14" d="M661.94004345 163.20901108l-11.3920002 10.36299896 5.69600034 6.5090003-3.42499995 4.62399984 14.77300024 17.39599919-5.65200043-38.8919983zM667.59204292 202.10201263l31.60199929-43.37200164 6.42199897 10.13200092-10.0199995 13.10299993-7.53499961.6919999 1.8829999 5.81800009-22.35199905 13.6270008z"/><path fill="#DDDDDC" d="M671.44604373 173.5730114l-3.85399988 28.52799988-3.2739999-22.51799965 7.12799978-6.01000023z"/><path fill="#CCAD14" d="M671.44704492 209.58400917l-2.69899995-2.69699995 2.69899995-2.69899996 2.69699996 2.69899996-2.69699996 2.69699995z"/></g><g display="block"><path fill="#BC8F2D" d="M642.6750679 192.88401322l-1.717 14.40699954-9.5090003 5.40400029-21.28000022-33.29899979 9.8920002-6.65299988 22.61400032 20.14099984z"/><path fill="#856400" d="M645.7540679 167.17201233l-15.39400006 14.745 12.31500006 10.9669999 3.079-25.7119999z"/></g><g display="block"><path fill="#EFD3C2" d="M647.2940712 89.98601532l15.93000078-7.45100021 26.46300077 7.45100021 3.59700013 17.84999943-8.4770012 43.50699901-42.9090004-5.34599876 5.39599992-56.01099968z"/><path fill="#A9846C" d="M691.3150711 152.1620121l-19.86899995 21.41100025-9.5069995-10.36299991v-14.71700001l29.37599946 3.66899967z"/><path fill="#D0AF96" d="M671.44707108 173.5730095l27.7459998-14.84099961 14.0040002-37.24399948-19.913-13.65100098-8.37299978 42.97599983-13.46400022 22.76000023z"/><path fill="#EFD3C2" d="M703.72107387 116.93901253l-4.35499978 12.78599977 9.40799999 3.5279994 4.42399978-11.76599955-9.477-4.54799962z"/><path fill="#FFF" d="M652.5620699 130.5810132l22.22400092 2.6719997-5.52400064 7.4519999-13.23199988-1.13199973-3.4680004-8.99199987z"/><path fill="#A9846C" d="M669.73307085 141.74901533l-14.41099977-1.2329998-4.29199982-11.12699986 25.58399963 3.0769999-6.88100004 9.28299976zm-12.99499989-3.11899972l12.05299998 1.0309999 4.16600036-5.62100005-18.86400032-2.26799989 2.64499998 6.85800004z"/><path fill="#F7E6DC" d="M661.94007057 109.38401318h4.23700005l-.898 13.42000007-5.58800006-.51000023 2.24900001-12.90999984z"/><path fill="#A9846C" d="M659.69107127 122.29401445l1.86199993 3.78999997 3.7259999-3.27999998-5.58799983-.50999999z"/><path fill="#856400" d="M670.48207283 104.63101351l8.83099985 1.73399997 4.3989997 1.99199998-3.37199975-4.17499995-9.217-1.99099994-.6409998 2.43999994zM659.6900711 101.93201125v2.699l-7.12899994-.64199996-5.26699996.89900005 3.46799993-2.9560001h8.92799998z"/><path fill="#D0AF96" d="M670.48207092 104.63101292l-4.3039999 4.75299978-.89799976 12.91099977 7.96399963-5.3559997 10.46799958-8.58200002-5.33099962-2.3130002-7.89899993-1.41299963zM659.69107103 104.63101387l2.24900008 4.75299978-1.67199994 9.59100008-12.97399997-14.08699989 5.26799988-.89900017 7.12899995.6420002z"/><path fill="#A9846C" d="M699.36507273 129.72400951l6.91499996 10.15600014 2.49300003-6.62800002-9.408-3.52800012zM703.4330728 126.08401155l6.03599978-3.78899991-4.36699986-1.47699988-1.66899991 5.2659998z"/><path fill="#4F5253" d="M647.2940712 71.74401188l15.9300003 10.79100025-15.9300003 7.45100033V71.74401188z"/><path fill="#9DA1A2" d="M707.92907143 78.38001156L689.6870718 89.98701179l30.5739994 12.71500027-12.33199977-24.3220005z"/><path fill="#4F5253" d="M713.19707203 121.4870119l-9.477-4.54800033-1.9979999 5.86500073-5.99799967-3.01500034 2.4409995-8.56400013-4.88100004-3.38899994-3.59799957-17.85000038 30.5739994 12.71500039-7.06299972 18.786z"/><path fill="#6F7173" d="M658.01307297 73.02801228l5.21100044 9.50699997 26.46299982 7.4499998 18.2420001-11.60499972-34.68500042-12.63899976-15.23099994 7.2869997z"/><path fill="#858686" d="M663.2240715 82.5350132l10.02099991-16.79400063-25.95199966 6.00300026L663.2240715 82.5350132z"/><path fill="#2B2B2B" d="M675.68507195 115.87101364c0 1.34800005-1.09299994 2.44099999-2.43999999 2.44099999-1.34900005 0-2.44199998-1.09299994-2.44199998-2.44099999s1.09299993-2.44099998 2.44199998-2.44099998c1.34700005 0 2.43999999 1.09299993 2.43999999 2.44099998zM658.01307106 113.43001175c0 1.34800005-1.09299993 2.44099998-2.43999998 2.44099998-1.348 0-2.44199999-1.09299993-2.44199999-2.44099998s1.09399998-2.44099999 2.44199999-2.44099999c1.34700005 0 2.43999998 1.09299994 2.43999998 2.44099999z"/></g><g display="block"><path fill="#AC923C" d="M601.8830204 127.7350142l-1.14800072-9.7110002-8.50099972-3.8279996-9.40999957 4.13999987-.67900086 12.73600006 13.76400042 4.7739997v-8.11099983h5.97400045z"/><path fill="#F4D75D" d="M584.03701973 121.31101441v7.47800017l9.27600002-4.14500007-9.27600002-3.3330001zM586.10801935 119.1510142l7.81400013 4.594-1.14700007-6.93599988-6.66700006 2.34199989zM595.20801973 123.74401426l.98900009-5.9460001 3.69300007 1.6220001-4.68200016 4.324zM593.92201948 126.17601418l-7.81400013 3.78300012 7.81400013 3.06300008v-6.8460002zM595.58802032 125.05101413l5.14599991 1.12599998-.84399998-3.78399992-4.30199993 2.65799994zM595.90901852 127.73501587h20.4260006l-.42700005 18.52699995-7.58100033 5.17199999-.25599992 6.38000006-.46700001 17.39099931-3.6450001 1.79400063-2.6539998-1.45800019 1.28399991-24.19899976-6.6800003-4.96100008v-18.64599991z"/><path fill="#EFD3C2" d="M611.58201933 174.77001667l-13.58199978.88099957.33400011-19.73499966 9.8139999-.02900028 3.43399977 10.40399998v8.47900039z"/><path fill="#D0AF96" d="M611.58201912 163.20901346l-3.43400004-7.32099962-.54399991 19.3159995 2.56499993 4.19199992 5.58099997-3.8119998-4.16799995-12.375z"/><path fill="#F4D75D" d="M607.60501957 175.20401382l4.74800014 7.76399994h-15.9300003l4.8820002-7.42700004h3.21099996l3.089-.3369999z"/><path fill="#EFD3C2" d="M608.32701921 151.43301487l-.1789999 4.454 3.43399978 7.3209998v7.14700013l4.1680001 5.22799969 4.30999983-2.84000015v-12.10399962l-11.7329998-9.20599985z"/><path fill="#CCAD14" d="M597.54901981 130.57901478h16.01799965v13.71899986l-8.00899982 6.2290001-7.39699984-6.2290001-.61199999-13.71899986z"/><path fill="#F4D75D" d="M606.12201871 132.66601527l-1.288 1.33299999 1.288 1.33499999.962-1.335-.962-1.33299998zM608.23501958 134.99901354l-1.288 1.333 1.288 1.33499999.962-1.335-.962-1.33299999zM606.84601964 138.00301516l-1.288 1.333 1.288 1.33499998.962-1.33499999-.962-1.33299999zM608.14802013 132.0420137l-.60300003.62400002.60300003.62400001.44900002-.62400001-.44900002-.62400002z"/></g><g display="block"><path fill="#E5C828" d="M302.6309967 131.00000763l-16.39900207 6.9999981 13.83000183 39.33300018-3.04100037 16 .41900063 7.33199882 34.1359992 15.36400223 4.57000017-8.36199951 20.8010006-23.65400124 8.14100075-55.6079998-18.06500054-3.6780014-44.3920002 6.27300262z"/><path fill="#BC8F2D" d="M302.6299982 130.99900436l-2.56900024 46.33399964-13.82900047-39.33399964 16.39800072-7zM359.4659965 168.64400673l-11.4280002-43.87200165 17.04800033 3.63300133-5.62000013 40.23900032z"/><path fill="#755800" d="M365.08700085 128.4050045l10.02699995 25.03400087-15.64799977 15.20600081 5.62099982-40.24000168zM286.23199749 137.99900436l-7.86699963 22.98699975 21.69599915 16.34699989-13.82899952-39.33399964z"/><path fill="#CCAD14" d="M300.060997 177.33200407l31.58100081 14.50200033 25.30500079-7.82100057-23.87600089-16.68100024-33.0100007 10.00000048z"/><path fill="#BC8F2D" d="M329.58699608 140.66600418l-.56500006 28.41799975 2.62000004 22.74999952 2.89200005-23.50699973-4.94700003-27.66099954zM323.89099884 154.83300436h-19.3199997v-3.16799999h19.3199997v3.16799999z"/></g><g display="block"><path fill="#BC8F2D" d="M267.54499722 152.83300781l32.51599979 24.50099945-21.3389998 11.66699982-20.25899977-24.66799974 9.08199978-11.49999953z"/><path fill="#C3987B" d="M256.8509978 145.26600838l-9.0060004 13.69600057 10.6180004 5.37200022 9.08200037-11.50000036-10.69400036-7.56800043z"/><path fill="#DFBDA5" d="M256.85099792 145.26600933l-11.6789999-2.14799976-5.3210001 9.36499989 7.99500001 6.47899997 9.005-13.6960001z"/><path fill="#DFBDA5" d="M267.54499817 152.83400917l-4.78500015-14.68400001h-5.9090001v14.68400001l7.10700012 4.54199982 3.58700013-4.54199982z"/></g><g display="block"><path fill="#DFBDA5" d="M384.83699656 143.30000734l3.19899988-14.89499998 4.38000011-1.35299968 2.75299978 8.19799971-6.1969999 12.03199983-2.64300001 4.79699993-3.0480001-2.88399983 1.55600024-5.89499998z"/><path fill="#C3987B" d="M408.2889986 119.5430069l2.01099968 3.53200006-15.13100004 12.17600012-1.75499964-6.02300012 14.875-9.68500006z"/><path fill="#C3987B" d="M395.16999722 153.25000763l8.36899995-3.75-8.36899995-14.25-6.19899989 12.03200006-2.83599996 4.94000006 3.68300009 3.79899979 5.35199976-2.77099991z"/><path fill="#BC8F2D" d="M379.5029955 82.16700745l19.54400062 50.1439991-3.87700034 2.94000053-15.66700029-46.63800049v-6.44599914z"/><path fill="#CCAD14" d="M383.25299454 115.33400726v5.41699982l6.63000011-1.23799992 7.36999989-2.59599995 3.08300018-3.33299995.41699982-4.41699981-6.91700006 1.70899963-2.43699991 2.75000024-8.14600003 1.70799994z"/><path fill="#F4D75D" d="M383.25299454 115.3340075l2.91699981.58299995 8.58300019-2.833 6-3.917-8.083.8340001-1.98700006.85099984.46600009 1.27400005-3.11200011 1.25-.59700012-1.134-1.76999999.759-2.41699981 2.33300006z"/><path fill="#CCAD14" d="M380.41999674 106.83400726l1.41599989 4.33300019 4.6650002-1.72200013 5.50099993-2.61100006 3.65200018-3.5-.90199995-2.33300018-4.8690002 1.25000024-2.88999998 2.1559999-6.57300007 2.42700004zM377.66999674 98.91700745l.75 2.91699981 4.8319999-.83399987 4.08499992-1.58299994 5.41499996-4.64199996-2.75-2.27499986-4.58199989 3.29199982-2.95800007 1.542-4.79199982 1.583zM376.83699656 93.83400702l10.33199977-4.00000003-2.33199977-3.44000002-8 2.21800005v5.222z"/><path fill="#BC8F2D" d="M394.75299454 113.08400745l2.5 3.833 3.08299994-3.333.41700006-4.417-6 3.917zM386.16999698 115.91700745l3.71399998 3.59599995-6.63199997 1.237v-5.4159999l2.91799999.58299995z"/><path fill="#F4D75D" d="M380.41999674 106.8340075l4.41699982-.75 5.16600012-2.02100006 4.74899984-3.06300005h-5.47699988l-2.10500002.83299995.51 1.29200011-2.8749999 1.12599999-.38600015-1.00800002-1.99899983.92400003-2 2.66700005z"/><path fill="#BC8F2D" d="M389.88299775 104.10900745l2.11900002 2.72500005 3.65099996-3.50000006-.90100002-2.33400005-4.86899996 3.10900006zM384.83599722 106.08300757l1.66499985 3.36300004-4.66499985 1.72100007-1.41699993-4.3340001 4.41699993-.75z"/><path fill="#F4D75D" d="M377.66999674 98.9170072l4.79199993-.60299992 4.91600001-1.79300004 2.62399984-4.01999992-5.49299991 2.50699997.273.70199997-2.54999995 1.00000005-.20000005-.57100004-.44500005.203-3.91699982 2.57499994zM384.83599663 86.39400697l-8 7.44000005v-5.222l8-2.21800005z"/><g><path fill="#DFBDA5" d="M402.39199722 129.43900871l5.71200001 13.2670002-4.56599998 6.79500008-8.36800003-14.25 7.222-5.81200028z"/></g><g><path fill="#BC8F2D" d="M359.46499634 168.64400959l25.3699994-25.34400082 10.33399916 9.95000077-17.0489993 24.02600097-18.65499926-8.63200092z"/></g></g><g display="block"><path fill="#755800" d="M299.5869999 116.14500427l10.47800016-6.125-.0150001 5.748 2.64100002 6.502-13.10400009-6.125zM346.45099974 108.78600597l10.8670001 7.99199963-27.73200035 23.88799953 4.0710001-19.91599965 12.79400015-11.9639995z"/><path fill="#DFBDA5" d="M313.7470007 53.88100433l35.06300067 1.92699814 11.44599915-3.36399841 2.90100098 54.09399986-16.70500184 2.24900055-6.26099872 10.47699928-15.8710003 5.47200013-10.77400016-9.30999947-14.84999943-23.23200035-5.45900154-12.30300045-.1459999-11.76500034 20.65600108-14.24499894z"/><path fill="#C3987B" d="M317.7579995 54.10100174l7.22800008 57.27400017 21.46600008-2.58899975-8.11599922 6.08899975 1.49099922 6.43400001-10.24100017 19.35699845-10.097-11.25299836-8.44299996-8.56500053-8.93099976-20.94799948.38399983-4.63199997-3.802001-3.07299995 10.11700058-5.18399954-5.90399933-11.88700008-9.67399979 4.7670002-4.08200073-9.0510006 19.20300007-13.24299812 5.38899994-3.71500016 4.01200015.21899796zM346.17399883 85.84000397l-7.67900037-15.50300026-12.01300002-6.03200054 15.24000025-2.06099987 2.99399996 5.00700044 3.73799992 10.14399982-2.27999974 8.4450004zM350.3560009 66.84300375l1.33400011-4.41599989 9.03399992-1.22399998-10.19299984 19.66399956-.17500019-14.02399969z"/><path fill="#8B6651" d="M308.8159995 87.01000261l-10.11999988 5.18599975 3.41799999 7.70199979 6.7019999-12.88799954zM345.3409996 75.21400452l-18.75599956 10.8829999-5.73499966-7.487-2.89000034-.56299996-1.00899983-2.14899993 7.98399973-2.28900003 20.40599966 1.60500002zM351.00199652 75.07300496l10.75800037 5.41999984-.12200022-2.2529999-1.569-4.23699987-9.06700015 1.06999993z"/><path fill="#856400" d="M309.09499931 59.1700039l12.71899987 27.08100127-10.08899975 6.61700058-8.81500006-17.74300092-9.67299986 4.76599997-4.08300018-9.05099988 10.46099996-8.96600056 9.48000002-2.70400047z"/><path fill="#E8CAB6" d="M350.3569994 66.84300327l-5.64100004.40899945 1.45900012 18.58899974 5.63899993-.42299938-1.45700001-18.5749998z"/><path fill="#8B6651" d="M304.28900003 85.40700269l-2.53100001-6.50400019-5.78300012 2.6860001 8.31400013 3.81800009z"/><path fill="#856400" d="M326.48300076 64.30500412l11.15899992-5.09000015 4.08099985 3.02800008-15.23999977 2.06200007zM351.69100094 62.4270041l5.03199977-3.71600008 3.99999982 2.49300003-9.0319996 1.22300005z"/><path fill="#8B6651" d="M359.94699955 89.64300442l-31.76799965 2.37800002 10.6329999 7.56999993 13.7579999-.89699983 7.37699985-9.05100012z"/><path fill="#FFF" d="M355.97099876 91.8610046l-22.31399917 1.64600002 5.8409996 4.518 11.91699982-.80599999 4.55599975-5.35800004z"/><path fill="#8B6651" d="M351.81499887 85.41600215l-2.96099994 3.41000009-2.67899993-2.98699999 5.63999987-.4230001z"/><path fill="#856400" d="M317.95999956 78.04600525l-14.31200027-1.43199998-.73799992-1.48999995 7.90800008-.84200001 6.1579999 1.66999997.98400021 2.09399997z"/><path fill="#8B6651" d="M346.45199966 108.78600454l-28.06800079 3.38400007 21.44300032 9.13800025 6.62500047-12.52200032z"/><path fill="#BC8F2D" d="M352.25599861 35.06800365l-52.2860012 4.30100012-11.66399956 13.55299998 33.56800043-6.57299996 30.38200033-11.28100014z"/><path fill="#755800" d="M317.75699997 54.1010027l-28.60300064 16.73999976-.84700012-17.92000007 24.31000042-7.20199967 5.14000034 8.38199997z"/><path fill="#856400" d="M317.75799847 54.10100365l-5.96899891-3.40199995.82799911-4.98000017 39.6399994-10.65000042-.59000016 10.79100042-2.8579998 9.94700044-31.05099964-1.70600032z"/><path fill="#BC8F2D" d="M352.25600338 35.06800365l-3.44699955 20.73899937 11.44599962-3.36399937 17.08999968-19.22799968-25.08899975 1.85299968z"/><path fill="#474747" d="M323.73499966 68.76900196l-28.28100014 2.09099984-2.21799946 9.0309999 9.67399979-4.76699984 21.57699966 1.18799996.42300034-4.06899988-1.1750002-3.47399998zM350.35600019 66.84300447l-5.64100004.40900015-.65899992 2.21599993 1.03799987 2.60300008 5.63599992-.4710002.908-1.84199988-1.28199983-2.91500008z"/><path fill="#4F5253" d="M367.95700073 65.57000256l1.10800171 14.87999963-18.06300068-5.37699985-.64600014-8.23000002 17.60099911-1.27299976zm-22.61599922 9.64399981l-20.10300064 8.63799977-1.50300026-15.08199977 20.98000097-1.51800013.62599993 7.96200013z"/><path fill="#9E7700" d="M322.96100044 125.73800635l-23.375-9.59399962 5.89799977 14.8559997 24.10200023 9.66599966-6.625-14.92799974z"/></g><g display="block"><path fill="#BC8F2D" d="M316.8289814 246.33100724l-4.82800007 10.66900039h-22.78799915l7.80699968-16.12400055 19.80899954 5.45500016zM297.02098274 193.33300781v25.98700059l9.65100003 23.60100066 17.54900026-11.38800048 11.92400026-23.86600018-39.12400055-14.33400059z"/><path fill="#E5C828" d="M310.6839819 262.002007h-21.47099972v-5.00199985h22.7859993l-1.31499958 5.00199986z"/><path fill="#856400" d="M297.02098274 228.25000727l9.56400013 11.82000005 13.86299992-.98600006 5.21100044-10.4289999-28.63800049-9.33500004v8.92999995z"/><path fill="#9E7700" d="M297.02098179 228.25100803l24.5039997 8.67899996-4.69700002 9.40099997-19.80699968-5.45499993v-12.625zM297.02098274 193.33300781l27.63300038 20.5 3.7130003-9.65899998-31.34600068-10.84100002z"/><path fill="#E5C828" d="M302.63098216 242.29800606l-5.60899997 6.57600021h10.13199997v-5.29100013l-4.523-1.28500008z"/><path fill="#E2A942" d="M302.62998152 242.29700637l4.52399993 1.28600001 1.34599995-5.9590001-5.23399996-1.3829999-.63599992 6.05599999z"/></g><g display="block"><path fill="#84614F" d="M212.86599493 182.86801147l-23.05000067 24.00099993 16.0730008 11.05499983 16.81300079-27.54500008-9.83600092-7.51099968z"/><path fill="#412B23" d="M217.2919941 186.25100803l-.63700009 3.08300019 4.62099981 3.12800026 1.42400003-2.08300019 12.87799954-5.00800013-6.97699976-5.72199989-6.32599973-5.7800002-4.9829998 12.38199996z"/><path fill="#BC8F2D" d="M225.67699616 119.31800842l-2.53299992 51.68300057 4.65299988 7.67099952.07299995-52.79500007-2.19299991-6.55900002z"/><path fill="#CCAD14" d="M233.14699364 154.3480103l1.84400081 5.51300001-7.17100048.99499989-8.38100004-.1329999-4.27300024-2.342-1.92700005-4.35500003 7.62000037-.61399984 3.41800004 1.96899986 8.86999959-1.03299999z"/><path fill="#F4D75D" d="M233.14699364 154.34800851l-2.77000046 1.58500004-9.69900012.03799999-7.43900037-1.94500003 8.51000047-1.90300002 2.31199997.19200003-.03999996 1.45499998 3.59100014.21100001.22099972-1.35699997 2.05999994.16999995 3.25400067 1.55400002z"/><path fill="#CCAD14" d="M233.13899517 144.73300886l.03200054 4.8900001-5.33300042-.16400003-6.48799992-.78500008-4.9070003-2.31899994.12400055-2.682 5.3809998-.38400005 3.67499996 1.21000003 7.5159998.23399997zM233.24299335 135.73900783l.22999955 3.2240001-5.20299983.796-4.6960001-.22200012-7.09099984-2.879 2.0250001-3.25100012 5.7829998 1.79100013 3.53599996.56299997 5.41600036-.02199996zM232.35999393 130.28400803l-11.87800025-.55500007 1.204-4.29699993 8.8970003-.46399999 1.77699995 5.31599999z"/><path fill="#BC8F2D" d="M220.67799401 155.97000813l-1.23900008 4.75300003-4.273-2.34200001-1.92600012-4.35599995 7.4380002 1.94499993zM230.37599492 155.93300879l-2.55699992 4.92299998 7.17199993-.99499989-1.84399998-5.513-2.77100003 1.58499991z"/><path fill="#F4D75D" d="M233.13899326 144.73300838l-4.75100016.73899997-5.9460001-.29799998-5.87500024-1.501 5.57400036-1.86299996 2.4269999.13099992-.08200002 1.48800005 3.30899992.167.05100012-1.15500005 2.34899998.25800008 2.94400024 2.03399997z"/><path fill="#BC8F2D" d="M222.57899451 145.18100935l-1.22899997 3.4939999-4.90900004-2.31999993.12400007-2.68199992 6.01399994 1.50799995zM228.38699389 145.47200906l-.54999996 3.98699987 5.33400011.16400004-.03200006-4.88999987-4.7520001.73899996z"/><path fill="#F4D75D" d="M233.2429924 135.7400089l-5.08200002 1.01500004-5.61400008-.14999998-4.03999996-3.19800007 6.444.68300002-.03799998.804 2.93500006.152.01099992-.64900001.52100015.055 4.86299991 1.288zM221.6859951 125.43200803l10.67399979 4.852-1.77799988-5.31599999-8.8959999.46399999z"/><g><path fill="#674736" d="M235.50099277 169.74600792l-7.61299967-3.86899948-1.05400014 9.12099957.89300012 5.12300015-3.34899997.83399987 2.70099997 7.72199965 8.49899984-3.30599976-.07700015-15.625z"/></g><g><path fill="#84614F" d="M228.71699476 179.87400675l-.829-13.99700022-7.31200012 2.26000023-2.5270001.78100014-5.18400001 13.9499998-1.579 1.99699975 5.3829999 4.56900024.6240003-3.18299961 4.32699991-2.58400011 1.09899998-6.74000019.30699992-.52899998 1.352 4.5580002 4.33900022-1.08200025z"/></g><g><path fill="#755800" d="M212.8659935 182.86801052l9.83599997 7.5109998-2.2199998 4.27099979-10.73000001-8.52999973 3.11399984-3.25199986z"/></g></g><g display="block"><path fill="#84614F" d="M128.03398895 186.2520051l12.84399891-11.43100023 24.2470007-7.92399979 10.71699905-2.6289997-8.50599957 38.79999923-39.30199909-16.81599951z"/><path fill="#BC8F2D" d="M175.84298706 178.6720066l15.20300102 13.8550005-2.45900154 29.86799908-40.8219986 8.03300095-1.07500076-11.43200016-4.99600029-8.76900006 5.4770012-10.45599985 16.7779994-2.42300033 11.89399957-18.67600012z"/><path fill="#CCAD14" d="M163.94898987 197.34700602l-22.2550006 12.87999994-13.65900087-23.97599983 35.91400147 11.0959999z"/><path fill="#E5C828" d="M191.04499054 192.52700615l-15.00700033 4.82100105h-12.08900034l11.89300036-33.08000183 15.20300031 28.25900078z"/><path fill="#674736" d="M163.94898766 197.34800482l-3.4880001-11.09599972 5.48400021 5.54699986-1.9960001 5.54899986z"/></g><path fill="#84614F" d="M141.69398499 210.2270137l-22.90399933 22.7209996 5.00899982-42.92399978 4.23599982-3.77199936 13.65899969 23.97499955z" display="block"/><path fill="#674736" d="M153.35398483 219.89000559l-17.52699959-3.84400034-17.03699958 16.90200043 31.03099918-2.52100039 3.533-10.5369997z" display="block"/><g display="block"><path fill="#674736" d="M150.49900436 284.50000381l-4.69400024 14.14699936 4.69400024 1.35300446 8-14.25000382-8-1.25z"/><path fill="#755800" d="M132.45100403 293.28800106l10.95799994 4.5159998 3.85800004-10.70899964-3.85800004-10.70899963-10.95799994 16.90199947z"/><path fill="#BC8F2D" d="M188.58600235 222.39500427l-37.75999832 6.76100159-7.41700173 9.37099838v59.27600098l18.20500088 5.42200088 27.14000034-5.269001 9.10300065-61.7119999-7.52300072-3.95199966-1.7480011-9.89700127z"/><path fill="#CCAD14" d="M165.0560031 225.35400581l-21.6470008 51.03100014 54.44800187-40.14200115-9.27200127-13.84800053-23.5289998 2.95900154zM137.50300407 320.83400822h19.66399956l-4.47699976-20.2670002-9.28100014-2.76300049-5.90599966 23.03000069z"/><path fill="#674736" d="M145.79200447 298.51300049l-2.98099983 10.16600036 9.18799972-.05400037-1.38899993-8.67699981-4.81799996-1.43500018z"/><path fill="#CCAD14" d="M175.3700037 300.55300713l10.79899997 18.0220003h12.51700001l-9.93299996-20.62000083-13.38300002 2.59800053z"/><path fill="#755800" d="M175.3700043 300.55300331l-1.35000003.26200009-1.45599985 7.52499961 5.30599988 10.23499966h2.85599982v-9.08299968l-5.35599982-8.93899968z"/><g><path fill="#674736" d="M180.7270031 299.51300764l6.29999986 8.75400019 6.13799986-1.14900017-4.41199982-9.1630001-8.0259999 1.55800008z"/></g><g><path fill="#755800" d="M143.40900373 297.80300045l-8.15999984 8.19700027-.5 14.83300042h2.75399995l5.9059999-23.03000069z"/></g></g><path fill="#674736" d="M175.84199524 164.26800537l26.78199959 29.26500082-12.8069998 13.33700037 1.22800004-14.34300041-15.20299983-28.25900078z" display="block"/><g display="block"><path fill="#84614F" d="M165.29099369 97.90000725l21.46199894 42.76200104-37.28899908 19.67299842-21.99899912-33.80199873 5.63399887-30.04700029 12.6079998-6.97499847 19.58400059 8.38899803z"/><path fill="#674736" d="M163.94999123 173.04601097l-1.89699936 9.16199875-21.17400027-7.38599968-29.24299955-34.6079998 15.82999992-13.6819992 22.22699929 33.80299949 14.25699997 12.71100044z"/><path fill="#412B23" d="M163.94999075 173.04500484l4.32800054-22.63599967-23.1060009 12.33899986 18.77800036 10.29699981z"/><path fill="#84614F" d="M121.39299023 151.7590065l7.9499997-6.71499944-9.7049997-11.74499964-8.00099968 6.91599965 9.75599968 11.54399943z"/><path fill="#412B23" d="M129.3429885 145.0440073l-2.5969999 13.05200005-5.35299992-6.33600003 7.94999981-6.71600002zM115.25898933 140.75100493l8.04800034 1.77800012-4.02400017-4.32600021-4.02400017 2.5480001z"/><path fill="#8C6D5D" d="M152.14499235 118.35100842l5.45599978 11.84900045 5.36599977-3.30900025-7.20099974-10.55300022-3.6209998 2.01300002z"/><path fill="#412B23" d="M162.96698904 126.89000559l-1.23000014 4.67199993-4.13600004-1.36199999 5.36600018-3.30999994z"/><path fill="#674736" d="M155.76699352 116.3380087l.93899966-4.82799989 6.17100024-3.75600052 3.12999987-1.33699989-3.93499994 19.1760006-6.30499983-9.2550003zM152.14599037 118.35100698l-4.80300003-2.43700027-8.07500023 4.36000013-3.18200016 2.06 21.51600075 7.86600012-5.45600033-11.84899998z"/><path fill="#2B2B2B" d="M165.48398757 116.33800562c0 1.38899998-1.12599993 2.51699988-2.51799996 2.51699988-1.38899999 0-2.51599996-1.1279999-2.51599996-2.51699988 0-1.39099999 1.12699997-2.5189999 2.51599996-2.5189999 1.39200003 0 2.51799996 1.12799991 2.51799996 2.5189999zM150.21399093 125.57500894c0 1.38899999-1.12599993 2.51699989-2.51799996 2.51699989-1.38899999 0-2.51599996-1.1279999-2.51599996-2.51699989 0-1.39099998 1.12699997-2.51899989 2.51599996-2.51899989 1.39200003 0 2.51799996 1.1279999 2.51799996 2.5189999z"/><path fill="#856400" d="M156.70699358 111.5100069l6.17099988-3.75500005 3.12899983-1.33699995-4.47199988-1.07800007-5.76799989 3.39800003.94000006 2.77200004zM147.3429885 115.91400647l-1.18799973-2.25800013-8.362 4.20400022-1.70599984 4.47400023 3.18199968-2.06000018 8.07399988-4.36000014z"/><path fill="#2B2B2B" d="M124.3489905 129.2260089l3.11600012 13.54399966-7.82600022-9.47099971 4.7100001-4.07299996z"/><path fill="#755800" d="M154.24999237 141.66700363l18-9.79199982-6.75.875-1.551 2.16699994-3.06199992.08299995-6.63700008 6.66699993z"/><path fill="#856400" d="M172.24999237 131.8760066l-.4130001 8.79200006-8.06699992 4.37600016-9.51999998-3.37600016 18-9.79200006z"/><path fill="#ECECEB" d="M155.9449892 140.74500608l8.31 1.54699994 4.95800013-2.875 1.54799986-6.73099995-14.81599999 8.05900001z"/><path fill="#2B2B2B" d="M145.7069931 89.51100636l12.49599982-4.55999995 5.7459998 3.63999987 1.34200002 9.30999994-19.58399964-8.38999986z"/><path fill="#474747" d="M172.62498617 80.92700768l-12.16400003-1.03600026-2.2579999 5.06000042 12.09299994 22.92199993 2.329-26.9460001z"/><path fill="#4F5253" d="M145.2619915 67.33400726L140.87999153 78.903007l4.82800007 10.60899976 26.91599941-8.58399963-27.3619995-13.59399987z"/><path fill="#474747" d="M100.39799118 88.43700743l12.8569994 8.04999971h19.84299946l12.6079998-6.97599983-.44599915-22.1779995-44.86199951 21.10399962z"/><path fill="#6F7173" d="M93.41298866 120.53300858l21.84600044-5.71500016 17.84000039-18.33200025-32.70100022-8.04900027-6.9850006 32.09600068z"/><path fill="#4F5253" d="M89.10198975 138.15800476l12.16200065 4.61300087 10.3729999-2.5550003 15.82899977-13.68199969 5.63400077-30.0470004-39.68700027 24.04700016-4.31100082 17.62399936z"/><path fill="#474747" d="M121.39398956 151.76000738l-8.13799953 16.19500017-24.15400028-29.79800033 22.53499984 2.05800056 9.75699997 11.5449996zM140.87899017 174.82101059l-12.84499967 11.43200016-9.79499972-12.10200024 9.79499972-2.27600002 12.84499967 2.9460001z"/><path fill="#2B2B2B" d="M121.39398956 151.76000786l19.48600006 23.06200027-22.64000034-.67000007-4.9840002-6.19700003 8.13800048-16.19500017z"/></g><g display="block"><path fill="#AC923C" d="M175.41599178 191.08100843l.5-9.16599989 7.41699988-3.66600036 9.5729999 4.71800041-.30500031 11.36699963-11.34799957 4.48700046v-7.62300014l-5.8369999-.1170001z"/><path fill="#F4D75D" d="M191.04199076 185.16300821v7.02600003l-7.64799977-3.89300001 7.64799977-3.13300002zM189.33399129 183.13100827l-6.44199991 4.31599986.94499993-6.5159998 5.49699998 2.19999994zM181.8329928 187.44900823l-.816-5.58799982-3.046 1.5259999 3.862 4.06199992zM182.89199138 189.73400784l6.4419999 3.55599999-6.4419999 2.87800002v-6.43400001zM181.5189917 188.67600834l-4.24399995 1.05900002.69599998-3.556 3.54799998 2.49699998zM182.30199146 190.71100807h-20.4260006l.42700005 18.5260005 7.58100033 5.17199993.25599992 6.38000012-.59799993 18.28699922 3.64499998 1.79300118 1.4159999-7.92300034 1.01900005-18.62900018 6.6800003-4.96000004v-18.64600039z"/><path fill="#674736" d="M166.36999273 212.01100922l12.60300017 5.91200018-1.47600031 11.22200012-13.00899983 1.28200006-.53900003-8.9570002 2.421-9.45900016z"/><path fill="#CCAD14" d="M164.0809927 192.84000778h16.01799965v13.71799946l-8.00899983 6.22799969-7.39699983-6.22799969-.612-13.71799946z"/><path fill="#F4D75D" d="M172.6539916 194.92600787l-1.288 1.33399999 1.288 1.33399999.962-1.334-.962-1.33399998zM174.76599301 197.25900805l-1.288 1.335 1.288 1.33299998.962-1.33299999-.962-1.33499999zM173.37699117 200.2640078l-1.288 1.33299995 1.288 1.33299995.962-1.33299995-.962-1.33299994zM174.67999301 194.30300766l-.604.62300002.604.625.45000001-.625-.45-.62300002z"/><path fill="#84614F" d="M153.35199213 219.88900936l13.01699972-7.87800014-1.8819995 18.41600036h-14.66799974l3.53299952-10.53800022z"/><path fill="#DDDDDC" d="M164.0809927 240.87000847h15.31599998l-4.7939999-7.92399979h-4.86000014l-5.66199994 7.92399979z"/></g><g display="block"><path fill="#755800" d="M328.36600876 204.1729927l-22.22800064 57.82799817 81.89699936 44.99799824 35.30099868-48.62399817-25.75-21.24700022-69.2199974-32.95499801z"/><path fill="#9E7700" d="M328.3670082 204.17199326l68.6380005 37.21500015 7.2480011-33.0720005-72.61199952-16.48200036-3.27400207 12.3390007z"/><path fill="#9E7700" d="M397.58600616 237.12899208l-9.55000305 69.8710003 116.80000305-38.5-10.66200256-55-96.58799744 23.6289997z"/><path fill="#E2A942" d="M331.64000702 191.83299255l66.11199951 32.66699982 91.83399963-27.7509998-91.83399963-25.83299983-66.11199951 20.91699981z"/><path fill="#BC8F2D" d="M489.58600616 196.74999237l-91.83300018 27.75000095-.74900055 16.88600064 97.16999817-27.88600064-4.58799744-16.75000095z"/><path fill="#DDDDDC" d="M358.00300598 192.99999213l41.04400063-14.66600013 61.5380001 16.9100002-61.08200073 18.25600017-41.5-20.50000024z"/><path fill="#755800" d="M364.38500977 196.1519928l35.07699966-14.40200043-.41399956-3.41600037-41.04599952 14.66600037 6.38299942 3.15200043z"/><path fill="#856400" d="M398.50000763 182.3749919l51.9109993 15.91000032 10.17499923-3.04100037-61.53899955-16.9090004-.54699898 4.04000044z"/><path fill="#858686" d="M366.59500504 197.2439928l42.6989994-16.01799964 8.14700127 2.16299963-43.3520012 17.55699968-7.49399947-3.70199966zM378.73200798 203.23899174l44.6040001-18.40299988 9.48400115 2.77799988-46.2539997 19.49600029-7.83400155-3.8710003zM389.74600983 208.6799922l51.09000015-19.10100031 9.54999924 2.86300087-52.79999924 20.11100006-7.84000015-3.87300062z"/><path fill="#A3A3A3" d="M417.99500847 209.75299168l-49.16199875-21.89599991.92099953-2.8920002 4.33600044.3760004 39.37100029 19.83099986 4.53399849 4.58099985z"/><path fill="#C4C4C4" d="M390.97401047 188.0979929l-1.80800009-2.14799977-7.16700006.63199997-5.48300004 7.05999977 2.21600008 5.40700024 2.533 3.1449995 6.34899997-2.76699972-.55799985-3.45500004 3.91799999-7.87399995z"/><path fill="#ECECEB" d="M390.97400522 188.09899187l-4.55699979.21099997-5.584 7.93099987.43200016 5.95399988 7.6409998-3.13199997.96600007-1.83599997-2.81600004-1.25399995 2.0060001-3.16000008 2.13800001 1.1450001.7249999-1.78499997-.9510002-4.07399988z"/><path fill="#C4C4C4" d="M399.9940095 193.64199305l-2.99000001-2.05599976-3.22600002 1.31899977-4.61200004 6.94600004 2.46000003 6.21700006 2.28200001 1.0239997 2.58199996-4.3139999.53799998-3.56499989 2.96600008-5.57100002zM407.64300966 198.22599125l-5.14399975-1.1630001-3.03799993 5.13200014-.63999987 5.91600019 2.42799974 1.06599998 2.95600003-4.94600022 1.019-3.17699992 2.41899978-2.82800007zM409.87900972 201.60099077l-2.36299991 4.95500022.12699985 3.23700017 3.0020001-.25400019 1.10400003-4.257 3.00499993-3.6810002h-4.875z"/><path fill="#ECECEB" d="M399.99400759 193.64199305l-4.82399988 1.36999988-3.16800023 5.35600002 1.90500021 6.7239999 5.23299993-1.92399978.85399997-3.5660001-2.99099995-1.19900002 1.288-2.82100009 2.9569999 1.43900013 1.25000023-1.95799994-2.50400018-3.421zM407.6430068 198.22499275l-3.10800002 2.13199973-3.28600003 3.81500009v5.00499985l5.023-4.64499987-1.55299997-.68999996 1.10599994-2.50600002.54500008.26500011.8829999.38099992.3900001-3.75699985zM411.13600764 209.49999046l-3.49199996.29400015 3.85499995-7.10400009 3.25600011-1.0880003.60099984 1.6960001-1.52699995 2.2440001-.36699999-.36899998-1.65 1.76499999.78600004.41199994-1.46200004 2.1500001z"/><path fill="#A3A3A3" d="M441.6130066 200.60899258l-49.11399842-20.44199992 1.42000008-4.83900022 3.90099906-.1949997 8.3039999 5.11800003 30.95500088 15.77699948 4.5339985 4.58100033z"/><path fill="#C4C4C4" d="M416.16601086 178.28999186l-4.35699988-2.4699998-10.51499986 8.15799985.53299999 5.05400005 4.681 3.42399978 4.7229998-2.17299985-.20099997-3.66899991 5.13599992-8.32400012z"/><path fill="#ECECEB" d="M416.16600847 178.29099178l-11.83300018 7.57600019 2.17500019 6.59000018 6.46000004-2.7050004.5209999-1.66999984 1.32800008-3.26899993 4.45800018-2.75800002-3.1090002-3.76400018z"/><path fill="#C4C4C4" d="M425.1700077 183.5019927l-5.89599983-1.44700002-6.30599983 3.31899976v10.0420003l3.61999989 1.53499984 3.51899993-3.3169999.53799999-3.56600005 4.52499986-6.56599993zM431.13400936 187.412992l-2.58500004-1.546-3.92799997 3.88599968-1.5999999 3.50600011-.68900013 4.90799992 4.54900002 2.48199987.94200003-5.5619998 1.01700008-3.17799997 2.29399991-4.4959998zM433.4970144 192.4559927l-2.72700011 4.6489998.49100017 3.54300011 3.58799994.7079997.23400003-5.33199983 3.2890001-3.56799978h-4.87500013z"/><path fill="#ECECEB" d="M425.17000532 183.5009923l-7.25299978 3.91199994-1.329 9.53799987 4.83099991-2.85500002.912-2.07499993-1.27300001-.55799997 1.25399996-2.82099998 1.59600008.75099999 1.26199984-5.8919999zM431.13400626 187.41299248l-4.61699986 2.84100008-1.34700012 4.97099995-.24100018 4.38799978 1.95300007 1.03600025 2.64000012-5.42400003-1.18499996-.527 1.10599995-2.50599999 1.00300002.62399995 3.74100017-1.39799988-3.0530002-4.00500011zM433.43700734 198.99999213l1.06099996-1.93799996.74800002.29799998.60799992.616 1.28500009-2.49100012-.5999999-1.6949997-2.7190001 1.57399988-2.69700003 3.19899995-.62199998 3.63099998 2.51300001.49599981 1.72500002-3.0109998-1.30200001-.67900002z"/></g><g display="block"><path fill="#F4D75D" d="M434.40198994 181.22598648l-5.78999997-16.03199959 21.36400033-24.04499972-2.55599976-26.11000096 9.55599976-10.85699845-3.66699982 11.89699936 4.2670002 32.96400023-20.0170002 20.92999887-3.15700054 11.25300026zM420.06698895 177.1539917l3.2699998-18.98200035 13.25400036-20.36299992-5.76500034-40.72300052 6.06599998-19.62400055-12.17000001 15.88100052 2.81700009 38.79500007-16.21300006 22.9130001 8.74100018 22.10300065zM367.10898972 194.30799103zM384.10898972 204.30799103zM435.10898972 197.30799103zM391.10898972 207.3079834zM426.10898876 193.30799103zM385.10898972 193.30799103zM420.10898876 193.30799103zM447.10898972 193.30799103z"/></g></g></svg>