<svg xmlns="http://www.w3.org/2000/svg" viewBox="0 0 1170 350"><defs><style>.a,.k{fill:#dddddc;}.b,.e{fill:#fff;}.ab,.ac,.ad,.ae,.af,.ag,.ai,.ak,.al,.am,.an,.ao,.ap,.b,.c,.h,.i,.k,.l,.m,.n,.o,.p,.q,.r,.s{fill-rule:evenodd;}.c,.y{fill:#ececeb;}.d{opacity:0.7;}.f,.h{fill:#cececd;}.g,.i{fill:#c4c4c4;}.j,.l{fill:#a3a3a3;}.m,.z{fill:#9da1a2;}.n,.t{fill:#8f8f8f;}.o,.x{fill:#858686;}.p{opacity:0.1;isolation:isolate;}.q,.u{fill:#737373;}.r,.w{fill:#4f5253;}.s,.v{fill:#6f7173;}.aa{fill:#fff0e8;}.ab{opacity:0.1;}.ac{fill:#856400;}.ad,.aj{fill:#bf8f00;}.ae{fill:#755800;}.af{fill:#b58b00;}.ag,.ah{fill:#e5c828;}.ai{fill:#9e7700;}.ak{fill:#dfbda5;}.al{fill:#c3987b;}.am{fill:#8b6651;}.an{fill:#e8cab6;}.ao{fill:#474747;}.ap{fill:#ccad14;}</style></defs><title>estp-entrepreneur-personality-header</title><path class="a" d="M-10-9H1180V359H-10Z"/><path class="b" d="M714.5,28.1l41.2-7.5,8.9,9.6,28.9-1.6L778.1,47.9l-30.2-4.8L719,55.4,664.5,31.8,679.1,20Z"/><path class="c" d="M793.5,28.6,772,38.4l-15.5-3.3-39.8,7.8L664.5,31.8,719,55.4l28.9-12.3,30.2,4.8,15.4-19.3Z"/><path class="b" d="M1083.6,2.1l-27.9-17.9-14,12.4s-56.2-16.3-57.8-16.7-14,10.8-14,10.8L980.3,1.1,938.8,5.9,924.2,32l41.1-6,53,23.5,15.9-19.1,43.5,10.4L1122,25.3l4.8-13.2-43.2-10Z"/><path class="c" d="M1121.9,25.2l-48.6-10.8-9.2,9.6L1027.4,7.7l-39,13.1L988,6.9l-7.6-6L967.2,17.6,938.9,5.7,924.2,32l41-6,53.1,23.5,15.9-19.1,43.5,10.3,44.2-15.5Z"/><path class="b" d="M398.3,27.4l43.6-10.5,12.7,7.7L499.9,15l77.9,15.8L554,43.6,562.9,61l-22.1,5-74-20.1L425.4,54,398.3,27.4Z"/><path class="c" d="M577.8,30.8l-56.9,8.9-17.7-6.9L472.3,37l.6,5.4L432,41.3,398.3,27.4,425.4,54l41.4-8.1,74,20.1,22.1-5L554,43.6l23.8-12.8Z"/><path class="b" d="M46.6,28.1,82.2,14.9l10.9,12,29.3-2.8,11.5,17.8L81.7,48.7,75.3,36.1,32.9,43Z"/><path class="c" d="M122.4,24.1,105.2,39,77.6,26.9,50.7,32.1,32.9,43l42.4-6.9,6.4,12.6,52.2-6.8Z"/><g class="d"><path class="e" d="M839.9,319,1018.1,94.5,1201.5,319l-106.9,27.2Z"/><path class="f" d="M899.3,325.4l87.9-158.2-3.3-12.7-16.5,3.9L839.9,319l59.4,6.4Z"/><path class="g" d="M987.2,167.2l19-15,4.3,9.3L956.8,346.7l-73.1-9.4L987.2,167.2Z"/><path class="f" d="M1010.5,161.5l8.1-18.7,8.5,19.2-.4,177.7-70.3-.5,54.1-177.7Z"/><path class="g" d="M1027.1,162l11-9.4,10,8.5,68.4,181.4-93.6,1.8,4.2-182.3Z"/><path class="f" d="M1048.1,161.1l4.2-8.5,6.7,3.8,117.8,187-73.2,3.8Z"/><path class="g" d="M1201.5,319,1062.8,149.2l-3.8,7.2,106.6,171.8Z"/></g><g class="d"><path class="f" d="M596,324.2,785.6,86,959.2,321.7,596,324.2Z"/><path class="f" d="M672,315.1,757.4,143l-23,7.3L617.1,297.7,672,315.1Z"/><path class="g" d="M757.4,143l8.1,8.5L730.9,297.1l-26.9,15-34.6-3.9,88-165.2Z"/><path class="f" d="M765.5,151.5l13.6-16.6,4.7,26.4,12.4,154.2-70-4.3,39.3-159.7Z"/><path class="g" d="M783.8,161.3l14.6-9.8,11.1,13.2,39.7,160.6-56-10.2-9.4-153.8Z"/><path class="f" d="M809.5,164.7l4.8-17.2,11.8,16.4,84.6,152.4-70.1-11.4Z"/><path class="g" d="M951.6,311.4l-120-162.8-5.5,15.3,79.3,147.9Z"/><path class="e" d="M734.6,150.1l51-64.1,46.7,63.4-6.2,14.5-11.8-16.4-4.8,17.2-11.1-13.2-14.6,9.8-4.7-26.4-14.4,15.3-7.3-7.2-22.8,7.1Z"/></g><g class="d"><path class="b" d="M-160.1,316.9,48.9,60.5,210.3,289.2l-95,25.3Z"/><path class="h" d="M-148.3,316.8l35.8-.4L.1,139.7-8,130.3-156.9,312.9l8.6,3.9Z"/><path class="i" d="M.1,139.7l3.8,16.8L-73,316.9l-47.9-1Z"/><path class="h" d="M3.9,156.5l12.7-16.2,8.5,12L-21.8,306.4H-73Z"/><path class="i" d="M25.1,152.3l13.2-10.7,16.2,10.7,1.8,169.8L-28,314.5Z"/><path class="h" d="M54.5,152.3l9.9-11.7L94.7,307.8l-40.9,7.6.7-163.1Z"/><path class="i" d="M64.4,140.6l4.3-10.5,9.7,10.5,64.2,164.3L94.7,316.4,64.4,140.6Z"/><path class="h" d="M78.6,141.6l2.8-9.9L93.5,140l74.7,149.2-34.7,8.6L78.6,141.6Z"/><path class="i" d="M208,285.9,97.9,130.1,93.5,140l77.6,156.4Z"/></g><path class="j" d="M-70.4,344.5,185.4,21.9l1.1.9L-69.3,345.4Z"/><path class="j" d="M185.3,22h1.4V41.3h-1.4Zm-30,38h1.4V79.3h-1.4Zm-30,38h1.4v19.3h-1.4Zm-30,38h1.4v19.3H95.3Zm-30,38h1.4v19.3H65.3Zm-30,37h1.4v19.3H35.3Zm-30,39H6.7v19.3H5.3ZM198,55.5l14.4-8.1,1.3,2.3-14.4,8.1Z"/><path class="j" d="M209.3,51.7l.9-.8,5,5.7-.9.8Z"/><path class="j" d="M203.2,62.5l13-6.4.5,1.1-13,6.4Zm8.5-14.2,2.4-3.4,3.4,2.4-2.4,3.4Z"/><path class="j" d="M195.6,52.9l.7-.5,10.2,14-.7.5Z"/><path class="j" d="M205.8,67l.1-1,4.6.4-.1,1ZM185.3,15.4v7.8l8.6-4.1Z"/><g class="d"><path class="f" d="M159.7,332,378,51,578,329l-418.3,3Z"/><path class="f" d="M247.2,321.2l98.4-203-26.5,8.7L184,300.7Z"/><path class="g" d="M345.6,118.2l9.3,10.1L315.1,300l-31,17.7-39.9-4.6L345.6,118.2Z"/><path class="f" d="M354.9,128.3l15.7-19.7,5.4,31.3,14.3,181.8-80.6-5,45.2-188.4Z"/><path class="g" d="M376,139.9l16.8-11.6,12.8,15.6,45.7,189.4-64.4-12.1Z"/><path class="f" d="M405.6,143.9l5.5-20.4,13.6,19.4,97.5,179.8-80.8-13.5L405.6,143.9Z"/><path class="g" d="M569.3,316.9,431.1,124.8l-6.4,18.1L516,317.3Z"/><path class="e" d="M319.4,126.6,378,51l53.9,74.8-7.2,17.1-13.6-19.4-5.5,20.4-12.8-15.6L376,139.9l-5.4-31.3-16.5,18.1-8.5-8.5Z"/></g><path class="e" d="M432.9,303,649.6,30,872.5,303,742.6,336,432.9,303Z"/><path class="f" d="M505.1,310.7,612,118.3l-4-15.4-20.1,4.7L432.9,303l72.2,7.7Z"/><path class="g" d="M612,118.3l23.1-18.2,5.2,11.4L575,336.6l-88.9-11.4Z"/><path class="f" d="M640.3,111.5l9.8-22.8,10.4,23.4L660,328l-85.5-.5Z"/><path class="g" d="M660.5,112.1l13.3-11.4,12.1,10.2,83.2,220.6-113.8,2.2Z"/><path class="f" d="M685.9,110.9l5.2-10.2,8.1,4.5L842.5,332.6l-89,4.6Z"/><path class="g" d="M872.5,303,703.9,96.5l-4.7,8.7L828.9,314.1,872.5,303Z"/><path class="f" d="M-40,324,186,40,393,321Z"/><path class="f" d="M50.6,313.1,152.4,107.9,125,116.7-14.8,292.4l65.4,20.7Z"/><path class="g" d="M152.4,107.9l9.6,10.2L120.8,291.7,88.7,309.5l-41.2-4.6,104.9-197Z"/><path class="f" d="M162,118.1l16.3-19.9,5.6,31.6,14.8,183.8-83.5-5.1Z"/><path class="g" d="M183.9,129.8l17.4-11.7,13.2,15.8,47.3,191.4-66.7-12.2L183.9,129.8Z"/><path class="f" d="M214.5,133.9l5.7-20.6,14.1,19.6L335.2,314.6,251.6,301,214.5,133.9Z"/><path class="g" d="M384,308.7,240.9,114.6l-6.6,18.3,94.5,176.3Z"/><path class="e" d="M125.3,116.4,186,40l55.7,75.6-7.4,17.3-14.1-19.6-5.7,20.6-13.2-15.8-17.4,11.7-5.6-31.6-17.1,18.3-8.8-8.6-27.1,8.5Z"/><path class="f" d="M930,324,1156,40l207,281Z"/><path class="f" d="M1020.6,313.1l101.8-205.2-27.4,8.8L955.2,292.4l65.4,20.7Z"/><path class="g" d="M1122.4,107.9l9.6,10.2-41.2,173.6-32.1,17.8-41.2-4.6Z"/><path class="f" d="M1132,118.1l16.3-19.9,5.6,31.6,14.8,183.8-83.5-5.1L1132,118.1Z"/><path class="g" d="M1153.9,129.8l17.4-11.7,13.2,15.8,47.3,191.4-66.7-12.2-11.2-183.3Z"/><path class="e" d="M1095.3,116.4,1156,40l55.7,75.6-7.4,17.3-14.1-19.6-5.7,20.6-13.2-15.8-17.4,11.7-5.6-31.6-17.1,18.3-8.8-8.6-27.1,8.5Z"/><path class="b" d="M654.9,316.9,896,60.5l186.3,228.7L972.7,314.5l-317.8,2.4Z"/><path class="h" d="M668.5,316.8l41.3-.4L839.7,139.7l-9.3-9.4L658.6,312.9l9.9,3.9Z"/><path class="i" d="M839.7,139.7l4.5,16.8L755.4,316.9l-55.2-1Z"/><path class="h" d="M844.2,156.5l11.9-13.3,12.5,9.1L814.5,306.4H755.4l88.8-149.9Z"/><path class="i" d="M868.6,152.3l15.2-10.7,18.7,10.7,2.1,169.8-97.2-7.6Z"/><path class="h" d="M902.5,152.3l11.4-11.7,35,167.2-47.2,7.6.8-163.1Z"/><path class="i" d="M913.9,140.6l5.1-10.5,11.1,10.5,74.1,164.3-55.3,11.5-35-175.8Z"/><path class="k" d="M930.4,141.6l3.1-9.9,14,8.3,86.2,149.2-40,8.6L930.4,141.6Z"/><path class="i" d="M1079.6,285.9l-127-155.8-5.1,9.9L1037,296.4l42.6-10.5Z"/><path class="c" d="M991.4,305.1l-47.8-26.7L1187,147l-3.6,184.2Z"/><path class="l" d="M1033.9,225.7h149.5v9.2H1033.9Zm-268,0H688L552.7,300.5l7.6,6.4L689,235h76.9Z"/><path class="i" d="M572,300v21.3h13V292.7L572,300Z"/><path class="m" d="M585,292.7v28.6h13V285.5l-13,7.2Z"/><path class="i" d="M598,285.5v35.8h13v-43Z"/><path class="m" d="M611,278.3v43h13V271.1Z"/><path class="i" d="M624,271.1v50.2h13V263.8Z"/><path class="m" d="M637,263.8v57.5h13V256.6Z"/><path class="i" d="M650,256.6v64.7h13V249.4Z"/><path class="m" d="M663,249.4v71.9h13V242.2l-13,7.2Z"/><path class="i" d="M676,321.3h13V235l-13,7.2Z"/><path class="k" d="M643.4,311.5l51.4-16.9,66,20.4-82.2,47.1Z"/><path class="c" d="M-13.9,285.5l120.2,7L-14.6,329.1Z"/><path class="c" d="M-10.4,319.2l187.7-54.1,84.4,27.4L38.8,358.6l-53.4,3.5,4.2-42.9Z"/><path class="c" d="M261.7,292.5l48.5,9.1-54.8,54.2L36,357.9Z"/><path class="c" d="M249.7,359.3l60.5-57.7,77.3-1.4,46.4,63.3-184.2-4.2Z"/><path class="k" d="M387.5,300.2l77.4-18.3,103.3,16.9L495.1,360l-61.2,3.5-46.4-63.3Z"/><path class="h" d="M568.2,298.8l75.2,12.7L495.1,360Z"/><path class="c" d="M497.9,360l145.5-48.5,72.5,49.2-218-.7Z"/><path class="h" d="M760.8,315l57.7,16.9L805.1,360l-89.2.7-37.3,1.4Z"/><path class="k" d="M760.8,315l97.8-35.2L694.8,294.6l66,20.4Z"/><path class="c" d="M760.8,315l97.8-35.2,85-1.4,47.8,26.7-77.3,52.8-95.6-26Z"/><path class="k" d="M991.4,305.1l192,26.1-1.4,28.1-267.9-1.4,77.3-52.8Z"/><path class="i" d="M754,75.5h13v221H754Z"/><path class="m" d="M689,235h13v61.6H689Z"/><path class="i" d="M702,235h13v61.6H702Z"/><path class="m" d="M715,235h13v61.6H715Z"/><path class="i" d="M728,235h13v61.6H728Z"/><path class="m" d="M741,235h13v61.6H741Z"/><path class="n" d="M1027,75.5h13v221h-13Z"/><path class="m" d="M1092,235h13v61.6h-13Z"/><path class="i" d="M1105,235h13v61.6h-13Z"/><path class="m" d="M1118,235h13v61.6h-13Z"/><path class="i" d="M1131,235h13v61.6h-13Z"/><path class="m" d="M1144,235h13v61.6h-13Z"/><path class="i" d="M1157,235h13v61.6h-13Zm-78,0h13v61.6h-13Z"/><path class="m" d="M1066,235h13v61.6h-13Z"/><path class="i" d="M1053,235h13v61.6h-13Z"/><path class="m" d="M1040,235h13v61.6h-13ZM739.3,43.3h314.8V83.8H739.3Z"/><path class="o" d="M739.3,82.3h314.8v1.8H739.3Z"/><path class="e" d="M753.3,55.1c0-.2,0-.3.1-.4s.3-.1.6-.1a1.72,1.72,0,0,1,.8.1c.1,0,.2.1.3.2l8.4,11V57.6a3.09,3.09,0,0,0-.2-1.1.68.68,0,0,0-.6-.4l-.6-.1c-.2,0-.3-.1-.3-.2a1.3,1.3,0,0,1,0-1c.1-.1.1-.2.2-.2a3.87,3.87,0,0,1,.9.1,4.91,4.91,0,0,0,1.1.1,5.74,5.74,0,0,0,1.2-.1,3.87,3.87,0,0,1,.9-.1c.1,0,.3.1.3.2a.75.75,0,0,1,.1.5c0,.3,0,.4-.1.5s-.2.1-.4.2l-.4.1a.7.7,0,0,0-.5.4,2.68,2.68,0,0,0-.2,1.1V70.2a.75.75,0,0,1-.1.5c-.1.1-.3.1-.7.1h-.2c-.3,0-.4,0-.5-.1s-.2-.1-.3-.3l-8.4-10.9v8.3a2.68,2.68,0,0,0,.2,1.1.68.68,0,0,0,.6.4l.5.1c.2,0,.3.1.3.2a1.3,1.3,0,0,1,0,1c-.1.1-.1.2-.3.2a4.4,4.4,0,0,1-.9-.1,5.74,5.74,0,0,0-1.2-.1,4.91,4.91,0,0,0-1.1.1,4.4,4.4,0,0,1-.9.1c-.1,0-.2-.1-.3-.2a.75.75,0,0,1-.1-.5c0-.3,0-.4.1-.5s.2-.1.3-.2l.4-.1a1.27,1.27,0,0,0,.6-.4,2.87,2.87,0,0,0,.2-1.2V55.1Zm15.4,13.1,5-13c.1-.2.1-.3.2-.4s.3-.1.6-.1.5,0,.5.1.1.1.2.3L780,68.2a1.61,1.61,0,0,0,.4.7.55.55,0,0,0,.5.3l.4.1c.2,0,.3.1.3.2a.75.75,0,0,1,.1.5c0,.3,0,.5-.1.5a.37.37,0,0,1-.3.1c-.1,0-.4-.1-1-.2a5,5,0,0,0-2.8,0c-.5.1-.8.2-.9.2s-.4,0-.4-.1a2,2,0,0,1-.1-.5c0-.3,0-.4.1-.5s.2-.1.3-.2l.3-.1a.22.22,0,0,0,.2-.2c0-.1.1-.1.1-.2v-.3a.37.37,0,0,0-.1-.3l-1-2.9h-4.6l-1,2.9c0,.1-.1.2-.1.3v.3a.37.37,0,0,0,.1.3c0,.1.1.1.2.1l.5.1c.2,0,.3.1.3.2a4.33,4.33,0,0,1,.1.5c0,.2,0,.3-.1.4s-.2.2-.3.2a3.87,3.87,0,0,1-.9-.1,4.14,4.14,0,0,0-1-.1,3.44,3.44,0,0,0-.9.1,3.44,3.44,0,0,1-.9.1c-.1,0-.2-.1-.3-.2a.75.75,0,0,1-.1-.5c0-.3,0-.4.1-.5s.2-.1.4-.2l.4-.1a.55.55,0,0,0,.5-.3l.3-.6Zm5-9.3-1.8,4.9h3.5Zm12-2.4H783c-.3,0-.6,0-.7.1a1.38,1.38,0,0,0-.3.4l-.1.4c-.1.2-.2.4-.3.4s-.3.1-.6.1a.75.75,0,0,1-.5-.1c-.1-.1-.1-.2-.1-.4v-.3l.4-2.1c.1-.3.1-.5.2-.6s.2-.1.4-.1a2.35,2.35,0,0,1,.8.2,1.08,1.08,0,0,0,.8.2h8.9a1.08,1.08,0,0,0,.7-.3,1.69,1.69,0,0,1,1-.3.37.37,0,0,1,.3.1c.1.1.1.1.1.2v.3l-.4,2.5a.76.76,0,0,1-.2.5c-.1.1-.2.1-.4.1s-.5,0-.6-.1a.52.52,0,0,1-.2-.4L792,57c0-.2-.1-.3-.3-.4a2.51,2.51,0,0,0-1-.1h-2.2V67.4a3.09,3.09,0,0,0,.2,1.3.68.68,0,0,0,.6.4l.5.1c.1,0,.3.1.3.2a.75.75,0,0,1,.1.5c0,.3,0,.5-.1.6s-.2.1-.4.1-.4-.1-1-.2a10,10,0,0,0-1.6-.2,10.4,10.4,0,0,0-1.5.2c-.6.1-1,.2-1.2.2s-.2-.1-.3-.2a.75.75,0,0,1-.1-.5c0-.3,0-.5.1-.6s.2-.1.3-.2l.5-.1c.3-.1.5-.2.6-.5a3.92,3.92,0,0,0,.2-1.3Zm14.9-.5-.4.1a.92.92,0,0,0-.6.4,3.47,3.47,0,0,0-.2,1.3v9.5a3.71,3.71,0,0,0,.2,1.4.68.68,0,0,0,.6.4l.4.1c.2.1.3.1.3.2a2,2,0,0,1,.1.5c0,.3,0,.5-.1.6s-.1.1-.3.1-.5-.1-1.1-.2a10.4,10.4,0,0,0-1.5-.2,7.84,7.84,0,0,0-1.4.2c-.6.1-1,.2-1.1.2a.37.37,0,0,1-.3-.1,3.54,3.54,0,0,1-.1-.6c0-.4.1-.6.4-.7l.4-.1c.3-.1.5-.2.6-.5a3.47,3.47,0,0,0,.2-1.3V57.8a3.47,3.47,0,0,0-.2-1.3,1,1,0,0,0-.6-.5l-.4-.1c-.3-.1-.4-.3-.4-.7s0-.5.1-.6.1-.1.3-.1.5.1,1.1.2a5.73,5.73,0,0,0,3,0c.6-.1.9-.2,1.1-.2a.37.37,0,0,1,.3.1,3.54,3.54,0,0,1,.1.6c-.1.5-.2.8-.5.8Zm9.5-1.5a6.74,6.74,0,0,1,5.3,2.3,8.35,8.35,0,0,1,2.1,5.9,8.35,8.35,0,0,1-2.1,5.9,6.88,6.88,0,0,1-5.3,2.3,6.74,6.74,0,0,1-5.3-2.3,8.35,8.35,0,0,1-2.1-5.9,8.35,8.35,0,0,1,2.1-5.9A6.74,6.74,0,0,1,810.1,54.5Zm0,1.8A3.56,3.56,0,0,0,807,58a8,8,0,0,0-1.1,4.7,8.82,8.82,0,0,0,1.1,4.7,3.68,3.68,0,0,0,3.1,1.7,3.85,3.85,0,0,0,3.2-1.7,8,8,0,0,0,1.2-4.7,8,8,0,0,0-1.2-4.7A3.74,3.74,0,0,0,810.1,56.3Zm10.1-1.2c0-.2,0-.3.1-.4s.3-.1.6-.1a1.72,1.72,0,0,1,.8.1c.1,0,.2.1.3.2l8.4,11V57.6a3.09,3.09,0,0,0-.2-1.1.68.68,0,0,0-.6-.4L829,56c-.2,0-.3-.1-.3-.2a1.3,1.3,0,0,1,0-1c.1-.1.1-.2.2-.2a3.87,3.87,0,0,1,.9.1,4.91,4.91,0,0,0,1.1.1,5.74,5.74,0,0,0,1.2-.1,3.87,3.87,0,0,1,.9-.1c.1,0,.3.1.3.2a.75.75,0,0,1,.1.5c0,.3,0,.4-.1.5s-.2.1-.4.2l-.4.1a.7.7,0,0,0-.5.4,2.68,2.68,0,0,0-.2,1.1V70.2a.75.75,0,0,1-.1.5c-.1.1-.3.1-.7.1s-.4,0-.5-.1-.2-.1-.3-.3l-8.4-10.9v8.3a2.68,2.68,0,0,0,.2,1.1.68.68,0,0,0,.6.4l.5.1c.2,0,.3.1.3.2a1.3,1.3,0,0,1,0,1c-.1.1-.1.2-.3.2a4.4,4.4,0,0,1-.9-.1,5.74,5.74,0,0,0-1.2-.1,4.91,4.91,0,0,0-1.1.1,4.4,4.4,0,0,1-.9.1c-.1,0-.2-.1-.3-.2a.75.75,0,0,1-.1-.5c0-.3,0-.4.1-.5s.2-.1.3-.2l.4-.1a1.27,1.27,0,0,0,.6-.4,2.87,2.87,0,0,0,.2-1.2V55.1Zm15.4,13.1,5-13c.1-.2.1-.3.2-.4s.3-.1.6-.1.5,0,.5.1.1.1.2.3l4.8,13.1a1.61,1.61,0,0,0,.4.7.55.55,0,0,0,.5.3l.4.1c.2,0,.3.1.3.2a.75.75,0,0,1,.1.5c0,.3,0,.5-.1.5a.37.37,0,0,1-.3.1c-.1,0-.4-.1-1-.2a5,5,0,0,0-2.8,0c-.5.1-.8.2-.9.2s-.4,0-.4-.1a2,2,0,0,1-.1-.5c0-.3,0-.4.1-.5s.2-.1.3-.2l.3-.1a.22.22,0,0,0,.2-.2c0-.1.1-.1.1-.2v-.3a.37.37,0,0,0-.1-.3l-1-2.9h-4.6l-1,2.9c0,.1-.1.2-.1.3v.3a.37.37,0,0,0,.1.3c0,.1.1.1.2.1l.5.1c.2,0,.3.1.3.2a4.33,4.33,0,0,1,.1.5c0,.2,0,.3-.1.4s-.2.2-.3.2a3.87,3.87,0,0,1-.9-.1,4.14,4.14,0,0,0-1-.1,3.44,3.44,0,0,0-.9.1,3.44,3.44,0,0,1-.9.1c-.1,0-.2-.1-.3-.2a.75.75,0,0,1-.1-.5c0-.3,0-.4.1-.5s.2-.1.4-.2l.4-.1a.55.55,0,0,0,.5-.3,1.36,1.36,0,0,0,.3-.6Zm5-9.3-1.8,4.9h3.5ZM855.2,56l-.4.1c-.3.1-.5.2-.6.5a3.92,3.92,0,0,0-.2,1.3V67a2.81,2.81,0,0,0,.3,1.5,1.25,1.25,0,0,0,1.1.4,6.57,6.57,0,0,0,1.9-.2,1.34,1.34,0,0,0,.7-.6,6.89,6.89,0,0,0,.3-.8.7.7,0,0,1,.8-.6c.3,0,.6,0,.7.1a.52.52,0,0,1,.2.4c0,.1-.1.5-.2,1.2a14.16,14.16,0,0,0-.4,2c-1.2-.1-2.3-.1-3.2-.1h-2.4c-1.2,0-2.4.1-3.5.2H850c-.2,0-.3,0-.4-.1s-.1-.2-.1-.4,0-.5.1-.6.2-.1.3-.2l.5-.1a1,1,0,0,0,.6-.5,3.92,3.92,0,0,0,.2-1.3V57.8a3.47,3.47,0,0,0-.2-1.3c-.1-.3-.3-.4-.6-.5l-.4-.1c-.2,0-.3-.1-.3-.2s-.1-.2-.1-.5,0-.5.1-.6a.37.37,0,0,1,.3-.1,6.59,6.59,0,0,0,.9.2,9.85,9.85,0,0,0,1.7.2,7.72,7.72,0,0,0,1.5-.2,6.59,6.59,0,0,0,.9-.2.52.52,0,0,1,.4.2,1.3,1.3,0,0,1,0,1c.1.2,0,.3-.2.3Zm14.2,4-.5,7.6v.5a2,2,0,0,0,.2.9.92.92,0,0,0,.6.4l.4.1c.2,0,.3.1.3.2a2,2,0,0,1,.1.5.75.75,0,0,1-.1.5.37.37,0,0,1-.3.1,3.44,3.44,0,0,1-.9-.1,4.91,4.91,0,0,0-1.1-.1,2.49,2.49,0,0,0-.8.1,2.49,2.49,0,0,1-.8.1c-.2,0-.3-.1-.3-.2a.75.75,0,0,1-.1-.5.55.55,0,0,1,.4-.6l.3-.1a1,1,0,0,0,.5-.4,4.54,4.54,0,0,0,.2-.8l1.1-12.9a.59.59,0,0,1,.2-.5c.1-.1.3-.1.6-.1a1.05,1.05,0,0,1,.9.5c0,.1,0,.1.1.1l5.2,10.9,4.5-10.8a1.4,1.4,0,0,1,.4-.7c.1-.1.3-.1.6-.1.5,0,.8.2.8.6L883.3,68a1.29,1.29,0,0,0,.2.8,1,1,0,0,0,.5.4l.4.1c.2,0,.3.1.3.2s.1.2.1.4,0,.5-.1.6-.2.2-.3.2-.4-.1-.9-.2a10,10,0,0,0-1.6-.2,10.5,10.5,0,0,0-1.3.2,8.38,8.38,0,0,1-1,.2c-.1,0-.2-.1-.3-.2a.75.75,0,0,1-.1-.5c0-.3,0-.5.1-.5s.2-.1.3-.2l.4-.1a2.19,2.19,0,0,0,.5-.3,1.72,1.72,0,0,0,.1-.8v-.3l-.9-8-4.1,9.9a1.38,1.38,0,0,1-.3.4.75.75,0,0,1-.5.1.9.9,0,0,1-.5-.1l-.3-.3L869.4,60Zm23.8-5.5a6.74,6.74,0,0,1,5.3,2.3,8.35,8.35,0,0,1,2.1,5.9,8.35,8.35,0,0,1-2.1,5.9,6.88,6.88,0,0,1-5.3,2.3,6.74,6.74,0,0,1-5.3-2.3,8.35,8.35,0,0,1-2.1-5.9,8.35,8.35,0,0,1,2.1-5.9A7,7,0,0,1,893.2,54.5Zm0,1.8a3.56,3.56,0,0,0-3.1,1.7,8,8,0,0,0-1.1,4.7,8.82,8.82,0,0,0,1.1,4.7,3.68,3.68,0,0,0,3.1,1.7,3.85,3.85,0,0,0,3.2-1.7,8,8,0,0,0,1.2-4.7,8,8,0,0,0-1.2-4.7A3.51,3.51,0,0,0,893.2,56.3Zm14.2-.3-.4.1c-.3.1-.6.2-.7.5a5,5,0,0,0-.2,1.7c0,4.5.3,7.5.8,8.9a2.83,2.83,0,0,0,2.7,2.2,2.67,2.67,0,0,0,2.7-1.9c.6-1.3.8-3.4.8-6.4V58.4a6.25,6.25,0,0,0-.2-1.8c-.1-.3-.4-.4-.8-.5l-.3-.1c-.2,0-.3-.1-.3-.2s-.1-.2-.1-.5,0-.5.1-.6a.37.37,0,0,1,.3-.1,3.75,3.75,0,0,1,.8.1,4.48,4.48,0,0,0,1.1.1,7.38,7.38,0,0,0,1.2-.2c.5-.1.8-.2.9-.2s.2.1.3.2.1.3.1.6,0,.4-.1.4-.2.1-.4.2l-.3.1c-.2.1-.4.1-.5.2a.76.76,0,0,0-.2.5c0,.2-.1,1-.1,2.3s-.1,2.6-.1,3.7c-.2,2.8-.7,4.9-1.6,6.2a4.41,4.41,0,0,1-3.9,1.9,6.18,6.18,0,0,1-2.5-.5,5.48,5.48,0,0,1-1.8-1.6,6.91,6.91,0,0,1-.9-2.3,31.6,31.6,0,0,1-.4-4.4c0-.7-.1-1.6-.1-2.7,0-2-.3-3.1-.8-3.2l-.3-.1c-.1,0-.3-.1-.3-.2a3.54,3.54,0,0,1-.1-.6c0-.3,0-.4.1-.5s.2-.1.4-.1.4.1.9.2a7.84,7.84,0,0,0,1.4.2,11.14,11.14,0,0,0,1.7-.2c.6-.1.9-.2,1-.2s.3,0,.4.1a.75.75,0,0,1,.1.5c0,.3,0,.4-.1.5,0,.3-.1.4-.3.4Zm11.2-.9c0-.2,0-.3.1-.4s.3-.1.6-.1a1.72,1.72,0,0,1,.8.1c.1,0,.2.1.3.2l8.4,11V57.6a3.09,3.09,0,0,0-.2-1.1.68.68,0,0,0-.6-.4l-.6-.1c-.2,0-.3-.1-.3-.2a1.3,1.3,0,0,1,0-1c.1-.1.1-.2.2-.2a3.87,3.87,0,0,1,.9.1,4.91,4.91,0,0,0,1.1.1,5.74,5.74,0,0,0,1.2-.1,3.87,3.87,0,0,1,.9-.1c.1,0,.3.1.3.2a.75.75,0,0,1,.1.5c0,.3,0,.4-.1.5s-.2.1-.4.2l-.4.1a.7.7,0,0,0-.5.4,2.68,2.68,0,0,0-.2,1.1V70.2a.75.75,0,0,1-.1.5c-.1.1-.3.1-.7.1h-.2c-.3,0-.4,0-.5-.1s-.2-.1-.3-.3L920,59.5v8.3a2.68,2.68,0,0,0,.2,1.1.68.68,0,0,0,.6.4l.5.1c.2,0,.3.1.3.2a1.3,1.3,0,0,1,0,1c-.1.1-.1.2-.3.2a4.4,4.4,0,0,1-.9-.1,5.74,5.74,0,0,0-1.2-.1,4.91,4.91,0,0,0-1.1.1,4.4,4.4,0,0,1-.9.1c-.1,0-.2-.1-.3-.2a.75.75,0,0,1-.1-.5c0-.3,0-.4.1-.5s.2-.1.3-.2l.4-.1a1.27,1.27,0,0,0,.6-.4,2.87,2.87,0,0,0,.2-1.2V55.1Zm19.2,1.4h-2.7c-.3,0-.6,0-.7.1a1.38,1.38,0,0,0-.3.4l-.1.4c-.1.2-.2.4-.3.4s-.3.1-.6.1a.75.75,0,0,1-.5-.1c-.1-.1-.1-.2-.1-.4v-.3l.4-2.1c.1-.3.1-.5.2-.6s.2-.1.4-.1a2.35,2.35,0,0,1,.8.2,1.08,1.08,0,0,0,.8.2H944a1.08,1.08,0,0,0,.7-.3,1.69,1.69,0,0,1,1-.3.37.37,0,0,1,.3.1c.1.1.1.1.1.2v.3l-.4,2.5a.76.76,0,0,1-.2.5c-.1.1-.2.1-.4.1s-.5,0-.6-.1a.52.52,0,0,1-.2-.4l-.1-.5c0-.2-.1-.3-.3-.4a2.51,2.51,0,0,0-1-.1h-2.2V67.2a3.09,3.09,0,0,0,.2,1.3.68.68,0,0,0,.6.4l.5.1c.1,0,.3.1.3.2a.75.75,0,0,1,.1.5c0,.3,0,.5-.1.6s-.2.1-.4.1-.4-.1-1-.2a10,10,0,0,0-1.6-.2,10.4,10.4,0,0,0-1.5.2c-.6.1-1,.2-1.2.2s-.2-.1-.3-.2a.75.75,0,0,1-.1-.5c0-.3,0-.5.1-.6s.2-.1.3-.2l.5-.1c.3-.1.5-.2.6-.5a3.92,3.92,0,0,0,.2-1.3l-.1-10.5Zm8.5,11.7,5-13c.1-.2.1-.3.2-.4s.3-.1.6-.1.5,0,.5.1.1.1.2.3l4.8,13.1a1.61,1.61,0,0,0,.4.7.55.55,0,0,0,.5.3l.4.1c.2,0,.3.1.3.2a.75.75,0,0,1,.1.5c0,.3,0,.5-.1.5a.37.37,0,0,1-.3.1c-.1,0-.4-.1-1-.2a5,5,0,0,0-2.8,0c-.5.1-.8.2-.9.2s-.4,0-.4-.1a2,2,0,0,1-.1-.5c0-.3,0-.4.1-.5s.2-.1.3-.2l.3-.1a.22.22,0,0,0,.2-.2c0-.1.1-.1.1-.2v-.3a.37.37,0,0,0-.1-.3l-1-2.9H949l-1,2.9c0,.1-.1.2-.1.3v.3a.37.37,0,0,0,.1.3c0,.1.1.1.2.1l.5.1c.2,0,.3.1.3.2a4.33,4.33,0,0,1,.1.5c0,.2,0,.3-.1.4s-.2.2-.3.2a3.87,3.87,0,0,1-.9-.1,4.14,4.14,0,0,0-1-.1,3.44,3.44,0,0,0-.9.1,3.44,3.44,0,0,1-.9.1c-.1,0-.2-.1-.3-.2a.75.75,0,0,1-.1-.5c0-.3,0-.4.1-.5s.2-.1.4-.2l.4-.1a.55.55,0,0,0,.5-.3q.15,0,.3-.6Zm5-9.3-1.8,4.9H953ZM965.9,56l-.4.1a.92.92,0,0,0-.6.4,3.47,3.47,0,0,0-.2,1.3v9.5a3.71,3.71,0,0,0,.2,1.4.68.68,0,0,0,.6.4l.4.1c.2.1.3.1.3.2a2,2,0,0,1,.1.5c0,.3,0,.5-.1.6s-.1.1-.3.1-.5-.1-1.1-.2a10.4,10.4,0,0,0-1.5-.2,7.84,7.84,0,0,0-1.4.2c-.6.1-1,.2-1.1.2a.37.37,0,0,1-.3-.1,3.54,3.54,0,0,1-.1-.6c0-.4.1-.6.4-.7l.4-.1c.3-.1.5-.2.6-.5a3.47,3.47,0,0,0,.2-1.3V57.8a3.47,3.47,0,0,0-.2-1.3,1,1,0,0,0-.6-.5l-.4-.1c-.3-.1-.4-.3-.4-.7s0-.5.1-.6.1-.1.3-.1.5.1,1.1.2a5.73,5.73,0,0,0,3,0c.6-.1.9-.2,1.1-.2a.37.37,0,0,1,.3.1,3.54,3.54,0,0,1,.1.6c-.1.5-.2.8-.5.8Zm3.2-.9c0-.2,0-.3.1-.4s.3-.1.6-.1a1.72,1.72,0,0,1,.8.1c.1,0,.2.1.3.2l8.4,11V57.6a3.09,3.09,0,0,0-.2-1.1.68.68,0,0,0-.6-.4l-.6-.1c-.2,0-.3-.1-.3-.2a1.3,1.3,0,0,1,0-1c.1-.1.1-.2.2-.2a3.87,3.87,0,0,1,.9.1,4.91,4.91,0,0,0,1.1.1,5.74,5.74,0,0,0,1.2-.1,3.87,3.87,0,0,1,.9-.1c.1,0,.3.1.3.2a.75.75,0,0,1,.1.5c0,.3,0,.4-.1.5s-.2.1-.4.2l-.4.1a.7.7,0,0,0-.5.4,2.68,2.68,0,0,0-.2,1.1V70.2a.75.75,0,0,1-.1.5c-.1.1-.3.1-.7.1h-.2c-.3,0-.4,0-.5-.1s-.2-.1-.3-.3l-8.4-10.9v8.3a2.68,2.68,0,0,0,.2,1.1.68.68,0,0,0,.6.4l.5.1c.2,0,.3.1.3.2a1.3,1.3,0,0,1,0,1c-.1.1-.1.2-.3.2a4.4,4.4,0,0,1-.9-.1,5.74,5.74,0,0,0-1.2-.1,4.91,4.91,0,0,0-1.1.1,4.4,4.4,0,0,1-.9.1c-.1,0-.2-.1-.3-.2a.75.75,0,0,1-.1-.5c0-.3,0-.4.1-.5s.2-.1.3-.2l.4-.1a1.27,1.27,0,0,0,.6-.4,2.87,2.87,0,0,0,.2-1.2V55.1Zm24.6,7.2V62a2.77,2.77,0,0,0,3-3,2.35,2.35,0,0,0-.7-1.9,2.14,2.14,0,0,0-1.8-.7c-.3,0-.6,0-.7.1a.52.52,0,0,0-.2.4V67.3a4.87,4.87,0,0,0,.2,1.5.67.67,0,0,0,.7.5l.7.1c.1,0,.3.1.3.2s.1.2.1.4,0,.5-.1.6-.2.2-.3.2-.6-.1-1.2-.2a12.77,12.77,0,0,0-1.7-.2,7.72,7.72,0,0,0-1.5.2c-.6.1-.9.2-1,.2a.22.22,0,0,1-.2-.2,4.33,4.33,0,0,1-.1-.5c0-.3,0-.5.1-.5s.2-.1.3-.2l.4-.1c.3-.1.5-.2.6-.5a3.92,3.92,0,0,0,.2-1.3V58a3.47,3.47,0,0,0-.2-1.3c-.1-.3-.3-.4-.6-.5l-.4-.1c-.2,0-.3-.1-.3-.2a2,2,0,0,1-.1-.5c0-.3,0-.5.1-.6a.52.52,0,0,1,.4-.2,4.4,4.4,0,0,1,.9.1,7.57,7.57,0,0,0,1.5.1,9.15,9.15,0,0,0,1.6-.1,6.82,6.82,0,0,1,1.2-.1h.5a4.4,4.4,0,0,1,3.2,1,3.84,3.84,0,0,1,1.1,2.9,4.69,4.69,0,0,1-1.1,3.1,3.35,3.35,0,0,1-2.7,1.3,3.59,3.59,0,0,1-1.1-.2,1,1,0,0,1-1.1-.4Zm6.6,5.9,5-13c.1-.2.1-.3.2-.4s.3-.1.6-.1.5,0,.5.1.1.1.2.3l4.8,13.1a1.61,1.61,0,0,0,.4.7.55.55,0,0,0,.5.3l.4.1c.2,0,.3.1.3.2a.75.75,0,0,1,.1.5c0,.3,0,.5-.1.5a.37.37,0,0,1-.3.1c-.1,0-.4-.1-1-.2a5,5,0,0,0-2.8,0c-.5.1-.8.2-.9.2s-.4,0-.4-.1a2,2,0,0,1-.1-.5c0-.3,0-.4.1-.5s.2-.1.3-.2l.3-.1a.22.22,0,0,0,.2-.2c0-.1.1-.1.1-.2v-.3a.37.37,0,0,0-.1-.3l-1-2.9H1003l-1,2.9c0,.1-.1.2-.1.3v.3a.37.37,0,0,0,.1.3c0,.1.1.1.2.1l.5.1c.2,0,.3.1.3.2a4.33,4.33,0,0,1,.1.5c0,.2,0,.3-.1.4s-.2.2-.3.2a3.87,3.87,0,0,1-.9-.1,4.14,4.14,0,0,0-1-.1,3.44,3.44,0,0,0-.9.1,3.44,3.44,0,0,1-.9.1c-.1,0-.2-.1-.3-.2a.75.75,0,0,1-.1-.5c0-.3,0-.4.1-.5s.2-.1.4-.2l.4-.1a.55.55,0,0,0,.5-.3l.3-.6Zm4.9-9.3-1.8,4.9h3.5Zm17.1,3.9,3.6,5.5a10.44,10.44,0,0,0,1,1.4c.3.3.5.6.8.7v.5c-.3.1-.6.1-.8.2a1.27,1.27,0,0,1-.6.1,3.44,3.44,0,0,1-2.1-.8,13.69,13.69,0,0,1-2.3-2.9l-2.3-3.7h-1.2v3.7a4.14,4.14,0,0,0,.2,1.4,1,1,0,0,0,.6.5l.4.1c.2,0,.3.1.3.2s.1.2.1.5,0,.5-.1.6-.2.1-.4.1-.4-.1-1-.2a10.4,10.4,0,0,0-1.5-.2,7.84,7.84,0,0,0-1.4.2c-.5.1-.9.2-1,.2s-.3,0-.3-.1-.1-.2-.1-.5,0-.5.1-.6.2-.1.3-.2l.4-.1c.3-.1.5-.2.6-.5a3.92,3.92,0,0,0,.2-1.3V58.1a3.71,3.71,0,0,0-.2-1.4.92.92,0,0,0-.6-.4l-.4-.1c-.2,0-.3-.1-.3-.2a2,2,0,0,1-.1-.5c0-.3,0-.5.1-.6a.52.52,0,0,1,.4-.2,4.4,4.4,0,0,1,.9.1,8.08,8.08,0,0,0,1.5.1,12.27,12.27,0,0,0,1.7-.1,11.56,11.56,0,0,1,1.7-.1,4.14,4.14,0,0,1,3.1,1,3.69,3.69,0,0,1,1.1,2.9,4.75,4.75,0,0,1-.6,2.4,4.45,4.45,0,0,1-1.8,1.8Zm-3.8-.6h.3a1.21,1.21,0,0,1,.5.1,2.56,2.56,0,0,0,1.9-.8,3.33,3.33,0,0,0,.7-2.3,3.8,3.8,0,0,0-.6-2.2,2.14,2.14,0,0,0-1.7-.8h-.4c-.2,0-.4.1-.6.1v5.9Zm15.3-6.2-.4.1c-.3.1-.5.2-.6.5a3.47,3.47,0,0,0-.2,1.3v9.5a4.14,4.14,0,0,0,.2,1.4,1,1,0,0,0,.6.5l.4.1c.2,0,.3.1.3.2s.1.2.1.5,0,.5-.1.6-.2.1-.4.1-.4-.1-1-.2a10.4,10.4,0,0,0-1.5-.2,7.72,7.72,0,0,0-1.5.2c-.6.1-.9.2-1,.2a.37.37,0,0,1-.3-.1.75.75,0,0,1-.1-.5c0-.3,0-.5.1-.6s.2-.1.3-.2l.4-.1c.3-.1.5-.2.6-.5a3.92,3.92,0,0,0,.2-1.3V58a3.47,3.47,0,0,0-.2-1.3c-.1-.3-.3-.4-.6-.5l-.4-.1c-.2,0-.3-.1-.3-.2a1.3,1.3,0,0,1,0-1c.1-.1.2-.2.3-.2s.4.1,1,.2a10.4,10.4,0,0,0,1.5.2,7.72,7.72,0,0,0,1.5-.2c.6-.1.9-.2,1-.2s.2.1.3.2.1.3.1.6,0,.4-.1.4c.1,0,0,.1-.2.1Zm7,0-.3.1a2,2,0,0,0-.8.4,13.26,13.26,0,0,0-1,1.1l-3.2,4.2,4.8,6.1a13.06,13.06,0,0,0,1.4,1.6,3.47,3.47,0,0,0,.9.6v.6c-.3.1-.6.1-.9.2s-.5.1-.8.1a3.7,3.7,0,0,1-2.1-.6,8.94,8.94,0,0,1-2.1-2.2l-3.9-5.2,4.3-5.9c.1-.1.2-.3.3-.4a.31.31,0,0,0,.1-.2.37.37,0,0,0-.1-.3c-.1-.1-.2-.1-.4-.2l-.2-.1c-.2,0-.3-.1-.3-.2s-.1-.2-.1-.5a1.08,1.08,0,0,1,.1-.6c.1-.1.2-.2.3-.2s.3.1.8.2a4.32,4.32,0,0,0,2.6,0c.4-.1.7-.2.7-.2.2,0,.3.1.3.2s.1.3.1.6,0,.4-.1.4c-.2.3-.3.4-.4.4Z"/><path class="e" d="M753.3,55.1c0-.2,0-.3.1-.4s.3-.1.6-.1a1.72,1.72,0,0,1,.8.1c.1,0,.2.1.3.2l8.4,11V57.6a3.09,3.09,0,0,0-.2-1.1.68.68,0,0,0-.6-.4l-.6-.1c-.2,0-.3-.1-.3-.2a1.3,1.3,0,0,1,0-1c.1-.1.1-.2.2-.2a3.87,3.87,0,0,1,.9.1,4.91,4.91,0,0,0,1.1.1,5.74,5.74,0,0,0,1.2-.1,3.87,3.87,0,0,1,.9-.1c.1,0,.3.1.3.2a.75.75,0,0,1,.1.5c0,.3,0,.4-.1.5s-.2.1-.4.2l-.4.1a.7.7,0,0,0-.5.4,2.68,2.68,0,0,0-.2,1.1V70.2a.75.75,0,0,1-.1.5c-.1.1-.3.1-.7.1h-.2c-.3,0-.4,0-.5-.1s-.2-.1-.3-.3l-8.4-10.9v8.3a2.68,2.68,0,0,0,.2,1.1.68.68,0,0,0,.6.4l.5.1c.2,0,.3.1.3.2a1.3,1.3,0,0,1,0,1c-.1.1-.1.2-.3.2a4.4,4.4,0,0,1-.9-.1,5.74,5.74,0,0,0-1.2-.1,4.91,4.91,0,0,0-1.1.1,4.4,4.4,0,0,1-.9.1c-.1,0-.2-.1-.3-.2a.75.75,0,0,1-.1-.5c0-.3,0-.4.1-.5s.2-.1.3-.2l.4-.1a1.27,1.27,0,0,0,.6-.4,2.87,2.87,0,0,0,.2-1.2V55.1Zm15.4,13.1,5-13c.1-.2.1-.3.2-.4s.3-.1.6-.1.5,0,.5.1.1.1.2.3L780,68.2a1.61,1.61,0,0,0,.4.7.55.55,0,0,0,.5.3l.4.1c.2,0,.3.1.3.2a.75.75,0,0,1,.1.5c0,.3,0,.5-.1.5a.37.37,0,0,1-.3.1c-.1,0-.4-.1-1-.2a5,5,0,0,0-2.8,0c-.5.1-.8.2-.9.2s-.4,0-.4-.1a2,2,0,0,1-.1-.5c0-.3,0-.4.1-.5s.2-.1.3-.2l.3-.1a.22.22,0,0,0,.2-.2c0-.1.1-.1.1-.2v-.3a.37.37,0,0,0-.1-.3l-1-2.9h-4.6l-1,2.9c0,.1-.1.2-.1.3v.3a.37.37,0,0,0,.1.3c0,.1.1.1.2.1l.5.1c.2,0,.3.1.3.2a4.33,4.33,0,0,1,.1.5c0,.2,0,.3-.1.4s-.2.2-.3.2a3.87,3.87,0,0,1-.9-.1,4.14,4.14,0,0,0-1-.1,3.44,3.44,0,0,0-.9.1,3.44,3.44,0,0,1-.9.1c-.1,0-.2-.1-.3-.2a.75.75,0,0,1-.1-.5c0-.3,0-.4.1-.5s.2-.1.4-.2l.4-.1a.55.55,0,0,0,.5-.3l.3-.6Zm5-9.3-1.8,4.9h3.5Zm12-2.4H783c-.3,0-.6,0-.7.1a1.38,1.38,0,0,0-.3.4l-.1.4c-.1.2-.2.4-.3.4s-.3.1-.6.1a.75.75,0,0,1-.5-.1c-.1-.1-.1-.2-.1-.4v-.3l.4-2.1c.1-.3.1-.5.2-.6s.2-.1.4-.1a2.35,2.35,0,0,1,.8.2,1.08,1.08,0,0,0,.8.2h8.9a1.08,1.08,0,0,0,.7-.3,1.69,1.69,0,0,1,1-.3.37.37,0,0,1,.3.1c.1.1.1.1.1.2v.3l-.4,2.5a.76.76,0,0,1-.2.5c-.1.1-.2.1-.4.1s-.5,0-.6-.1a.52.52,0,0,1-.2-.4L792,57c0-.2-.1-.3-.3-.4a2.51,2.51,0,0,0-1-.1h-2.2V67.4a3.09,3.09,0,0,0,.2,1.3.68.68,0,0,0,.6.4l.5.1c.1,0,.3.1.3.2a.75.75,0,0,1,.1.5c0,.3,0,.5-.1.6s-.2.1-.4.1-.4-.1-1-.2a10,10,0,0,0-1.6-.2,10.4,10.4,0,0,0-1.5.2c-.6.1-1,.2-1.2.2s-.2-.1-.3-.2a.75.75,0,0,1-.1-.5c0-.3,0-.5.1-.6s.2-.1.3-.2l.5-.1c.3-.1.5-.2.6-.5a3.92,3.92,0,0,0,.2-1.3Zm14.9-.5-.4.1a.92.92,0,0,0-.6.4,3.47,3.47,0,0,0-.2,1.3v9.5a3.71,3.71,0,0,0,.2,1.4.68.68,0,0,0,.6.4l.4.1c.2.1.3.1.3.2a2,2,0,0,1,.1.5c0,.3,0,.5-.1.6s-.1.1-.3.1-.5-.1-1.1-.2a10.4,10.4,0,0,0-1.5-.2,7.84,7.84,0,0,0-1.4.2c-.6.1-1,.2-1.1.2a.37.37,0,0,1-.3-.1,3.54,3.54,0,0,1-.1-.6c0-.4.1-.6.4-.7l.4-.1c.3-.1.5-.2.6-.5a3.47,3.47,0,0,0,.2-1.3V57.8a3.47,3.47,0,0,0-.2-1.3,1,1,0,0,0-.6-.5l-.4-.1c-.3-.1-.4-.3-.4-.7s0-.5.1-.6.1-.1.3-.1.5.1,1.1.2a5.73,5.73,0,0,0,3,0c.6-.1.9-.2,1.1-.2a.37.37,0,0,1,.3.1,3.54,3.54,0,0,1,.1.6c-.1.5-.2.8-.5.8Zm9.5-1.5a6.74,6.74,0,0,1,5.3,2.3,8.35,8.35,0,0,1,2.1,5.9,8.35,8.35,0,0,1-2.1,5.9,6.88,6.88,0,0,1-5.3,2.3,6.74,6.74,0,0,1-5.3-2.3,8.35,8.35,0,0,1-2.1-5.9,8.35,8.35,0,0,1,2.1-5.9A6.74,6.74,0,0,1,810.1,54.5Zm0,1.8A3.56,3.56,0,0,0,807,58a8,8,0,0,0-1.1,4.7,8.82,8.82,0,0,0,1.1,4.7,3.68,3.68,0,0,0,3.1,1.7,3.85,3.85,0,0,0,3.2-1.7,8,8,0,0,0,1.2-4.7,8,8,0,0,0-1.2-4.7A3.74,3.74,0,0,0,810.1,56.3Zm10.1-1.2c0-.2,0-.3.1-.4s.3-.1.6-.1a1.72,1.72,0,0,1,.8.1c.1,0,.2.1.3.2l8.4,11V57.6a3.09,3.09,0,0,0-.2-1.1.68.68,0,0,0-.6-.4L829,56c-.2,0-.3-.1-.3-.2a1.3,1.3,0,0,1,0-1c.1-.1.1-.2.2-.2a3.87,3.87,0,0,1,.9.1,4.91,4.91,0,0,0,1.1.1,5.74,5.74,0,0,0,1.2-.1,3.87,3.87,0,0,1,.9-.1c.1,0,.3.1.3.2a.75.75,0,0,1,.1.5c0,.3,0,.4-.1.5s-.2.1-.4.2l-.4.1a.7.7,0,0,0-.5.4,2.68,2.68,0,0,0-.2,1.1V70.2a.75.75,0,0,1-.1.5c-.1.1-.3.1-.7.1s-.4,0-.5-.1-.2-.1-.3-.3l-8.4-10.9v8.3a2.68,2.68,0,0,0,.2,1.1.68.68,0,0,0,.6.4l.5.1c.2,0,.3.1.3.2a1.3,1.3,0,0,1,0,1c-.1.1-.1.2-.3.2a4.4,4.4,0,0,1-.9-.1,5.74,5.74,0,0,0-1.2-.1,4.91,4.91,0,0,0-1.1.1,4.4,4.4,0,0,1-.9.1c-.1,0-.2-.1-.3-.2a.75.75,0,0,1-.1-.5c0-.3,0-.4.1-.5s.2-.1.3-.2l.4-.1a1.27,1.27,0,0,0,.6-.4,2.87,2.87,0,0,0,.2-1.2V55.1Zm15.4,13.1,5-13c.1-.2.1-.3.2-.4s.3-.1.6-.1.5,0,.5.1.1.1.2.3l4.8,13.1a1.61,1.61,0,0,0,.4.7.55.55,0,0,0,.5.3l.4.1c.2,0,.3.1.3.2a.75.75,0,0,1,.1.5c0,.3,0,.5-.1.5a.37.37,0,0,1-.3.1c-.1,0-.4-.1-1-.2a5,5,0,0,0-2.8,0c-.5.1-.8.2-.9.2s-.4,0-.4-.1a2,2,0,0,1-.1-.5c0-.3,0-.4.1-.5s.2-.1.3-.2l.3-.1a.22.22,0,0,0,.2-.2c0-.1.1-.1.1-.2v-.3a.37.37,0,0,0-.1-.3l-1-2.9h-4.6l-1,2.9c0,.1-.1.2-.1.3v.3a.37.37,0,0,0,.1.3c0,.1.1.1.2.1l.5.1c.2,0,.3.1.3.2a4.33,4.33,0,0,1,.1.5c0,.2,0,.3-.1.4s-.2.2-.3.2a3.87,3.87,0,0,1-.9-.1,4.14,4.14,0,0,0-1-.1,3.44,3.44,0,0,0-.9.1,3.44,3.44,0,0,1-.9.1c-.1,0-.2-.1-.3-.2a.75.75,0,0,1-.1-.5c0-.3,0-.4.1-.5s.2-.1.4-.2l.4-.1a.55.55,0,0,0,.5-.3,1.36,1.36,0,0,0,.3-.6Zm5-9.3-1.8,4.9h3.5ZM855.2,56l-.4.1c-.3.1-.5.2-.6.5a3.92,3.92,0,0,0-.2,1.3V67a2.81,2.81,0,0,0,.3,1.5,1.25,1.25,0,0,0,1.1.4,6.57,6.57,0,0,0,1.9-.2,1.34,1.34,0,0,0,.7-.6,6.89,6.89,0,0,0,.3-.8.7.7,0,0,1,.8-.6c.3,0,.6,0,.7.1a.52.52,0,0,1,.2.4c0,.1-.1.5-.2,1.2a14.16,14.16,0,0,0-.4,2c-1.2-.1-2.3-.1-3.2-.1h-2.4c-1.2,0-2.4.1-3.5.2H850c-.2,0-.3,0-.4-.1s-.1-.2-.1-.4,0-.5.1-.6.2-.1.3-.2l.5-.1a1,1,0,0,0,.6-.5,3.92,3.92,0,0,0,.2-1.3V57.8a3.47,3.47,0,0,0-.2-1.3c-.1-.3-.3-.4-.6-.5l-.4-.1c-.2,0-.3-.1-.3-.2s-.1-.2-.1-.5,0-.5.1-.6a.37.37,0,0,1,.3-.1,6.59,6.59,0,0,0,.9.2,9.85,9.85,0,0,0,1.7.2,7.72,7.72,0,0,0,1.5-.2,6.59,6.59,0,0,0,.9-.2.52.52,0,0,1,.4.2,1.3,1.3,0,0,1,0,1c.1.2,0,.3-.2.3Zm14.2,4-.5,7.6v.5a2,2,0,0,0,.2.9.92.92,0,0,0,.6.4l.4.1c.2,0,.3.1.3.2a2,2,0,0,1,.1.5.75.75,0,0,1-.1.5.37.37,0,0,1-.3.1,3.44,3.44,0,0,1-.9-.1,4.91,4.91,0,0,0-1.1-.1,2.49,2.49,0,0,0-.8.1,2.49,2.49,0,0,1-.8.1c-.2,0-.3-.1-.3-.2a.75.75,0,0,1-.1-.5.55.55,0,0,1,.4-.6l.3-.1a1,1,0,0,0,.5-.4,4.54,4.54,0,0,0,.2-.8l1.1-12.9a.59.59,0,0,1,.2-.5c.1-.1.3-.1.6-.1a1.05,1.05,0,0,1,.9.5c0,.1,0,.1.1.1l5.2,10.9,4.5-10.8a1.4,1.4,0,0,1,.4-.7c.1-.1.3-.1.6-.1.5,0,.8.2.8.6L883.3,68a1.29,1.29,0,0,0,.2.8,1,1,0,0,0,.5.4l.4.1c.2,0,.3.1.3.2s.1.2.1.4,0,.5-.1.6-.2.2-.3.2-.4-.1-.9-.2a10,10,0,0,0-1.6-.2,10.5,10.5,0,0,0-1.3.2,8.38,8.38,0,0,1-1,.2c-.1,0-.2-.1-.3-.2a.75.75,0,0,1-.1-.5c0-.3,0-.5.1-.5s.2-.1.3-.2l.4-.1a2.19,2.19,0,0,0,.5-.3,1.72,1.72,0,0,0,.1-.8v-.3l-.9-8-4.1,9.9a1.38,1.38,0,0,1-.3.4.75.75,0,0,1-.5.1.9.9,0,0,1-.5-.1l-.3-.3L869.4,60Zm23.8-5.5a6.74,6.74,0,0,1,5.3,2.3,8.35,8.35,0,0,1,2.1,5.9,8.35,8.35,0,0,1-2.1,5.9,6.88,6.88,0,0,1-5.3,2.3,6.74,6.74,0,0,1-5.3-2.3,8.35,8.35,0,0,1-2.1-5.9,8.35,8.35,0,0,1,2.1-5.9A7,7,0,0,1,893.2,54.5Zm0,1.8a3.56,3.56,0,0,0-3.1,1.7,8,8,0,0,0-1.1,4.7,8.82,8.82,0,0,0,1.1,4.7,3.68,3.68,0,0,0,3.1,1.7,3.85,3.85,0,0,0,3.2-1.7,8,8,0,0,0,1.2-4.7,8,8,0,0,0-1.2-4.7A3.51,3.51,0,0,0,893.2,56.3Zm14.2-.3-.4.1c-.3.1-.6.2-.7.5a5,5,0,0,0-.2,1.7c0,4.5.3,7.5.8,8.9a2.83,2.83,0,0,0,2.7,2.2,2.67,2.67,0,0,0,2.7-1.9c.6-1.3.8-3.4.8-6.4V58.4a6.25,6.25,0,0,0-.2-1.8c-.1-.3-.4-.4-.8-.5l-.3-.1c-.2,0-.3-.1-.3-.2s-.1-.2-.1-.5,0-.5.1-.6a.37.37,0,0,1,.3-.1,3.75,3.75,0,0,1,.8.1,4.48,4.48,0,0,0,1.1.1,7.38,7.38,0,0,0,1.2-.2c.5-.1.8-.2.9-.2s.2.1.3.2.1.3.1.6,0,.4-.1.4-.2.1-.4.2l-.3.1c-.2.1-.4.1-.5.2a.76.76,0,0,0-.2.5c0,.2-.1,1-.1,2.3s-.1,2.6-.1,3.7c-.2,2.8-.7,4.9-1.6,6.2a4.41,4.41,0,0,1-3.9,1.9,6.18,6.18,0,0,1-2.5-.5,5.48,5.48,0,0,1-1.8-1.6,6.91,6.91,0,0,1-.9-2.3,31.6,31.6,0,0,1-.4-4.4c0-.7-.1-1.6-.1-2.7,0-2-.3-3.1-.8-3.2l-.3-.1c-.1,0-.3-.1-.3-.2a3.54,3.54,0,0,1-.1-.6c0-.3,0-.4.1-.5s.2-.1.4-.1.4.1.9.2a7.84,7.84,0,0,0,1.4.2,11.14,11.14,0,0,0,1.7-.2c.6-.1.9-.2,1-.2s.3,0,.4.1a.75.75,0,0,1,.1.5c0,.3,0,.4-.1.5,0,.3-.1.4-.3.4Zm11.2-.9c0-.2,0-.3.1-.4s.3-.1.6-.1a1.72,1.72,0,0,1,.8.1c.1,0,.2.1.3.2l8.4,11V57.6a3.09,3.09,0,0,0-.2-1.1.68.68,0,0,0-.6-.4l-.6-.1c-.2,0-.3-.1-.3-.2a1.3,1.3,0,0,1,0-1c.1-.1.1-.2.2-.2a3.87,3.87,0,0,1,.9.1,4.91,4.91,0,0,0,1.1.1,5.74,5.74,0,0,0,1.2-.1,3.87,3.87,0,0,1,.9-.1c.1,0,.3.1.3.2a.75.75,0,0,1,.1.5c0,.3,0,.4-.1.5s-.2.1-.4.2l-.4.1a.7.7,0,0,0-.5.4,2.68,2.68,0,0,0-.2,1.1V70.2a.75.75,0,0,1-.1.5c-.1.1-.3.1-.7.1h-.2c-.3,0-.4,0-.5-.1s-.2-.1-.3-.3L920,59.5v8.3a2.68,2.68,0,0,0,.2,1.1.68.68,0,0,0,.6.4l.5.1c.2,0,.3.1.3.2a1.3,1.3,0,0,1,0,1c-.1.1-.1.2-.3.2a4.4,4.4,0,0,1-.9-.1,5.74,5.74,0,0,0-1.2-.1,4.91,4.91,0,0,0-1.1.1,4.4,4.4,0,0,1-.9.1c-.1,0-.2-.1-.3-.2a.75.75,0,0,1-.1-.5c0-.3,0-.4.1-.5s.2-.1.3-.2l.4-.1a1.27,1.27,0,0,0,.6-.4,2.87,2.87,0,0,0,.2-1.2V55.1Zm19.2,1.4h-2.7c-.3,0-.6,0-.7.1a1.38,1.38,0,0,0-.3.4l-.1.4c-.1.2-.2.4-.3.4s-.3.1-.6.1a.75.75,0,0,1-.5-.1c-.1-.1-.1-.2-.1-.4v-.3l.4-2.1c.1-.3.1-.5.2-.6s.2-.1.4-.1a2.35,2.35,0,0,1,.8.2,1.08,1.08,0,0,0,.8.2H944a1.08,1.08,0,0,0,.7-.3,1.69,1.69,0,0,1,1-.3.37.37,0,0,1,.3.1c.1.1.1.1.1.2v.3l-.4,2.5a.76.76,0,0,1-.2.5c-.1.1-.2.1-.4.1s-.5,0-.6-.1a.52.52,0,0,1-.2-.4l-.1-.5c0-.2-.1-.3-.3-.4a2.51,2.51,0,0,0-1-.1h-2.2V67.2a3.09,3.09,0,0,0,.2,1.3.68.68,0,0,0,.6.4l.5.1c.1,0,.3.1.3.2a.75.75,0,0,1,.1.5c0,.3,0,.5-.1.6s-.2.1-.4.1-.4-.1-1-.2a10,10,0,0,0-1.6-.2,10.4,10.4,0,0,0-1.5.2c-.6.1-1,.2-1.2.2s-.2-.1-.3-.2a.75.75,0,0,1-.1-.5c0-.3,0-.5.1-.6s.2-.1.3-.2l.5-.1c.3-.1.5-.2.6-.5a3.92,3.92,0,0,0,.2-1.3l-.1-10.5Zm8.5,11.7,5-13c.1-.2.1-.3.2-.4s.3-.1.6-.1.5,0,.5.1.1.1.2.3l4.8,13.1a1.61,1.61,0,0,0,.4.7.55.55,0,0,0,.5.3l.4.1c.2,0,.3.1.3.2a.75.75,0,0,1,.1.5c0,.3,0,.5-.1.5a.37.37,0,0,1-.3.1c-.1,0-.4-.1-1-.2a5,5,0,0,0-2.8,0c-.5.1-.8.2-.9.2s-.4,0-.4-.1a2,2,0,0,1-.1-.5c0-.3,0-.4.1-.5s.2-.1.3-.2l.3-.1a.22.22,0,0,0,.2-.2c0-.1.1-.1.1-.2v-.3a.37.37,0,0,0-.1-.3l-1-2.9H949l-1,2.9c0,.1-.1.2-.1.3v.3a.37.37,0,0,0,.1.3c0,.1.1.1.2.1l.5.1c.2,0,.3.1.3.2a4.33,4.33,0,0,1,.1.5c0,.2,0,.3-.1.4s-.2.2-.3.2a3.87,3.87,0,0,1-.9-.1,4.14,4.14,0,0,0-1-.1,3.44,3.44,0,0,0-.9.1,3.44,3.44,0,0,1-.9.1c-.1,0-.2-.1-.3-.2a.75.75,0,0,1-.1-.5c0-.3,0-.4.1-.5s.2-.1.4-.2l.4-.1a.55.55,0,0,0,.5-.3q.15,0,.3-.6Zm5-9.3-1.8,4.9H953ZM965.9,56l-.4.1a.92.92,0,0,0-.6.4,3.47,3.47,0,0,0-.2,1.3v9.5a3.71,3.71,0,0,0,.2,1.4.68.68,0,0,0,.6.4l.4.1c.2.1.3.1.3.2a2,2,0,0,1,.1.5c0,.3,0,.5-.1.6s-.1.1-.3.1-.5-.1-1.1-.2a10.4,10.4,0,0,0-1.5-.2,7.84,7.84,0,0,0-1.4.2c-.6.1-1,.2-1.1.2a.37.37,0,0,1-.3-.1,3.54,3.54,0,0,1-.1-.6c0-.4.1-.6.4-.7l.4-.1c.3-.1.5-.2.6-.5a3.47,3.47,0,0,0,.2-1.3V57.8a3.47,3.47,0,0,0-.2-1.3,1,1,0,0,0-.6-.5l-.4-.1c-.3-.1-.4-.3-.4-.7s0-.5.1-.6.1-.1.3-.1.5.1,1.1.2a5.73,5.73,0,0,0,3,0c.6-.1.9-.2,1.1-.2a.37.37,0,0,1,.3.1,3.54,3.54,0,0,1,.1.6c-.1.5-.2.8-.5.8Zm3.2-.9c0-.2,0-.3.1-.4s.3-.1.6-.1a1.72,1.72,0,0,1,.8.1c.1,0,.2.1.3.2l8.4,11V57.6a3.09,3.09,0,0,0-.2-1.1.68.68,0,0,0-.6-.4l-.6-.1c-.2,0-.3-.1-.3-.2a1.3,1.3,0,0,1,0-1c.1-.1.1-.2.2-.2a3.87,3.87,0,0,1,.9.1,4.91,4.91,0,0,0,1.1.1,5.74,5.74,0,0,0,1.2-.1,3.87,3.87,0,0,1,.9-.1c.1,0,.3.1.3.2a.75.75,0,0,1,.1.5c0,.3,0,.4-.1.5s-.2.1-.4.2l-.4.1a.7.7,0,0,0-.5.4,2.68,2.68,0,0,0-.2,1.1V70.2a.75.75,0,0,1-.1.5c-.1.1-.3.1-.7.1h-.2c-.3,0-.4,0-.5-.1s-.2-.1-.3-.3l-8.4-10.9v8.3a2.68,2.68,0,0,0,.2,1.1.68.68,0,0,0,.6.4l.5.1c.2,0,.3.1.3.2a1.3,1.3,0,0,1,0,1c-.1.1-.1.2-.3.2a4.4,4.4,0,0,1-.9-.1,5.74,5.74,0,0,0-1.2-.1,4.91,4.91,0,0,0-1.1.1,4.4,4.4,0,0,1-.9.1c-.1,0-.2-.1-.3-.2a.75.75,0,0,1-.1-.5c0-.3,0-.4.1-.5s.2-.1.3-.2l.4-.1a1.27,1.27,0,0,0,.6-.4,2.87,2.87,0,0,0,.2-1.2V55.1Zm24.6,7.2V62a2.77,2.77,0,0,0,3-3,2.35,2.35,0,0,0-.7-1.9,2.14,2.14,0,0,0-1.8-.7c-.3,0-.6,0-.7.1a.52.52,0,0,0-.2.4V67.3a4.87,4.87,0,0,0,.2,1.5.67.67,0,0,0,.7.5l.7.1c.1,0,.3.1.3.2s.1.2.1.4,0,.5-.1.6-.2.2-.3.2-.6-.1-1.2-.2a12.77,12.77,0,0,0-1.7-.2,7.72,7.72,0,0,0-1.5.2c-.6.1-.9.2-1,.2a.22.22,0,0,1-.2-.2,4.33,4.33,0,0,1-.1-.5c0-.3,0-.5.1-.5s.2-.1.3-.2l.4-.1c.3-.1.5-.2.6-.5a3.92,3.92,0,0,0,.2-1.3V58a3.47,3.47,0,0,0-.2-1.3c-.1-.3-.3-.4-.6-.5l-.4-.1c-.2,0-.3-.1-.3-.2a2,2,0,0,1-.1-.5c0-.3,0-.5.1-.6a.52.52,0,0,1,.4-.2,4.4,4.4,0,0,1,.9.1,7.57,7.57,0,0,0,1.5.1,9.15,9.15,0,0,0,1.6-.1,6.82,6.82,0,0,1,1.2-.1h.5a4.4,4.4,0,0,1,3.2,1,3.84,3.84,0,0,1,1.1,2.9,4.69,4.69,0,0,1-1.1,3.1,3.35,3.35,0,0,1-2.7,1.3,3.59,3.59,0,0,1-1.1-.2,1,1,0,0,1-1.1-.4Zm6.6,5.9,5-13c.1-.2.1-.3.2-.4s.3-.1.6-.1.5,0,.5.1.1.1.2.3l4.8,13.1a1.61,1.61,0,0,0,.4.7.55.55,0,0,0,.5.3l.4.1c.2,0,.3.1.3.2a.75.75,0,0,1,.1.5c0,.3,0,.5-.1.5a.37.37,0,0,1-.3.1c-.1,0-.4-.1-1-.2a5,5,0,0,0-2.8,0c-.5.1-.8.2-.9.2s-.4,0-.4-.1a2,2,0,0,1-.1-.5c0-.3,0-.4.1-.5s.2-.1.3-.2l.3-.1a.22.22,0,0,0,.2-.2c0-.1.1-.1.1-.2v-.3a.37.37,0,0,0-.1-.3l-1-2.9H1003l-1,2.9c0,.1-.1.2-.1.3v.3a.37.37,0,0,0,.1.3c0,.1.1.1.2.1l.5.1c.2,0,.3.1.3.2a4.33,4.33,0,0,1,.1.5c0,.2,0,.3-.1.4s-.2.2-.3.2a3.87,3.87,0,0,1-.9-.1,4.14,4.14,0,0,0-1-.1,3.44,3.44,0,0,0-.9.1,3.44,3.44,0,0,1-.9.1c-.1,0-.2-.1-.3-.2a.75.75,0,0,1-.1-.5c0-.3,0-.4.1-.5s.2-.1.4-.2l.4-.1a.55.55,0,0,0,.5-.3l.3-.6Zm4.9-9.3-1.8,4.9h3.5Zm17.1,3.9,3.6,5.5a10.44,10.44,0,0,0,1,1.4c.3.3.5.6.8.7v.5c-.3.1-.6.1-.8.2a1.27,1.27,0,0,1-.6.1,3.44,3.44,0,0,1-2.1-.8,13.69,13.69,0,0,1-2.3-2.9l-2.3-3.7h-1.2v3.7a4.14,4.14,0,0,0,.2,1.4,1,1,0,0,0,.6.5l.4.1c.2,0,.3.1.3.2s.1.2.1.5,0,.5-.1.6-.2.1-.4.1-.4-.1-1-.2a10.4,10.4,0,0,0-1.5-.2,7.84,7.84,0,0,0-1.4.2c-.5.1-.9.2-1,.2s-.3,0-.3-.1-.1-.2-.1-.5,0-.5.1-.6.2-.1.3-.2l.4-.1c.3-.1.5-.2.6-.5a3.92,3.92,0,0,0,.2-1.3V58.1a3.71,3.71,0,0,0-.2-1.4.92.92,0,0,0-.6-.4l-.4-.1c-.2,0-.3-.1-.3-.2a2,2,0,0,1-.1-.5c0-.3,0-.5.1-.6a.52.52,0,0,1,.4-.2,4.4,4.4,0,0,1,.9.1,8.08,8.08,0,0,0,1.5.1,12.27,12.27,0,0,0,1.7-.1,11.56,11.56,0,0,1,1.7-.1,4.14,4.14,0,0,1,3.1,1,3.69,3.69,0,0,1,1.1,2.9,4.75,4.75,0,0,1-.6,2.4,4.45,4.45,0,0,1-1.8,1.8Zm-3.8-.6h.3a1.21,1.21,0,0,1,.5.1,2.56,2.56,0,0,0,1.9-.8,3.33,3.33,0,0,0,.7-2.3,3.8,3.8,0,0,0-.6-2.2,2.14,2.14,0,0,0-1.7-.8h-.4c-.2,0-.4.1-.6.1v5.9Zm15.3-6.2-.4.1c-.3.1-.5.2-.6.5a3.47,3.47,0,0,0-.2,1.3v9.5a4.14,4.14,0,0,0,.2,1.4,1,1,0,0,0,.6.5l.4.1c.2,0,.3.1.3.2s.1.2.1.5,0,.5-.1.6-.2.1-.4.1-.4-.1-1-.2a10.4,10.4,0,0,0-1.5-.2,7.72,7.72,0,0,0-1.5.2c-.6.1-.9.2-1,.2a.37.37,0,0,1-.3-.1.75.75,0,0,1-.1-.5c0-.3,0-.5.1-.6s.2-.1.3-.2l.4-.1c.3-.1.5-.2.6-.5a3.92,3.92,0,0,0,.2-1.3V58a3.47,3.47,0,0,0-.2-1.3c-.1-.3-.3-.4-.6-.5l-.4-.1c-.2,0-.3-.1-.3-.2a1.3,1.3,0,0,1,0-1c.1-.1.2-.2.3-.2s.4.1,1,.2a10.4,10.4,0,0,0,1.5.2,7.72,7.72,0,0,0,1.5-.2c.6-.1.9-.2,1-.2s.2.1.3.2.1.3.1.6,0,.4-.1.4c.1,0,0,.1-.2.1Zm7,0-.3.1a2,2,0,0,0-.8.4,13.26,13.26,0,0,0-1,1.1l-3.2,4.2,4.8,6.1a13.06,13.06,0,0,0,1.4,1.6,3.47,3.47,0,0,0,.9.6v.6c-.3.1-.6.1-.9.2s-.5.1-.8.1a3.7,3.7,0,0,1-2.1-.6,8.94,8.94,0,0,1-2.1-2.2l-3.9-5.2,4.3-5.9c.1-.1.2-.3.3-.4a.31.31,0,0,0,.1-.2.37.37,0,0,0-.1-.3c-.1-.1-.2-.1-.4-.2l-.2-.1c-.2,0-.3-.1-.3-.2s-.1-.2-.1-.5a1.08,1.08,0,0,1,.1-.6c.1-.1.2-.2.3-.2s.3.1.8.2a4.32,4.32,0,0,0,2.6,0c.4-.1.7-.2.7-.2.2,0,.3.1.3.2s.1.3.1.6,0,.4-.1.4c-.2.3-.3.4-.4.4Z"/><path class="p" d="M836.9,312.4l64.6-7.1,61.8,7.2-58.4,9.2-68-9.3Z"/><path class="q" d="M862.7,251.7,895,274l5.8,26.1.1,4.7-14.7-6.3-23.5-46.8Z"/><path class="r" d="M886.2,298.5l-13.31,12.77.71,2.83h27.9l.1-9.6Z"/><path class="q" d="M946.2,187.9l14,47.1-26.1-6.5Z"/><path class="k" d="M960.2,235l-29,19.8,2.9-26.3Z"/><path class="q" d="M882,171.2,844.3,207l28.8,10.2Z"/><path class="n" d="M863.9,213.8l-3.1-48.7-19.5.1,3,41.8,19.6,6.8Z"/><path class="o" d="M860.8,165.1l-19.5.1.8,10.9,19.4-.3Z"/><path class="c" d="M860.8,165.1l4.5-15.1-8.4-16-12.1.2L839,150.5l2.3,14.7,19.5-.1Z"/><path class="h" d="M844.8,134.2,839,150.5l26.3-.5-8.4-16Z"/><path class="b" d="M856,165.1h4.8l4.5-15.1-4.2-8.1-5.2.2.1,23Z"/><path class="n" d="M897.7,176.3,882,171.2l-19.3,80.5,65.8,15.4,17.7-79.2-17.7-3.8Z"/><path class="r" d="M893.3,258.9l20.4-78.6-1.3-.3h-.1L892,258.6Z"/><path class="o" d="M898.3,182.8l.5-6.2-1.1-.3L882,171.2l-1.7,7.2,18,4.4Zm47.9,5.1-17.7-3.8-3.9-1-2.8,5.5,22.8,6.3,1.6-7Z"/><path class="c" d="M896.4,99.1l-17.8,55.3,17.5,7.3,1.6,14.6,30.8,7.8,22.2-39.6,5.1-27.1L896.4,99.1Z"/><path class="h" d="M894.5,118.2l6.9,16.2-1.4,2.5,2.2,5.9,4.9-3.1,16.7-10.6-10.6-4-7.5-2.8-11.2-4.1Z"/><path class="n" d="M912.6,125l13.2-.3-2,4.4Zm-16.7-11,9.8,8.3-11.2-4.1Zm-1.9,9.6,2.7,4.6,5.8-.8-.7-1.2-4.3.6-2.1-3.5Zm18.8,7.4,2.7,4.6,5.7-.8-.6-1.2-4.3.6-2.2-3.5-1.3.3Z"/><path class="b" d="M905.7,122.3,900,136.9l7.1,2.8,5.5-14.7-6.9-2.7Z"/><path class="m" d="M891.2,146.1l21.2,8.4-1,2-20.9-8.4Z"/><path class="h" d="M955.8,117.4,937,111.6l-21.5,56.3-19.4-6.2,1.6,14.6,30.8,7.8,22.2-39.6,5.1-27.1Z"/><path class="l" d="M915.5,167.9l-17.8,8.4-1.6-14.6,19.4,6.2Z"/><path class="q" d="M896.4,99.1l16.3,15.6,31-1.5Z"/><path class="r" d="M898.7,90l-2.3,9.1,59.4,18.3,2.7-7.7Z"/><path class="q" d="M898.7,90,883.2,58.3l88.2,44.5-12.9,6.9Z"/><path class="o" d="M944,113.8l-18.3,32,5.2,3.7,9-10.9,10.8,5.9,5.1-27.1Z"/><path class="i" d="M936.9,154.5l2.7,9.8,4.1-7.4-6.8-2.4Zm.9-4.7,3.6-6.1,4.3,2.1-7.9,4Z"/><path class="s" d="M897.7,176.3l1.1,14.2L912.3,180Z"/><path class="s" d="M912.3,180l3.7,13.7,12.5-9.6L912.3,180Z"/><path class="r" d="M916.9,203.4a2.9,2.9,0,1,1-2.9-2.9A2.9,2.9,0,0,1,916.9,203.4ZM913,219.9a2.9,2.9,0,1,1-2.9-2.9A2.9,2.9,0,0,1,913,219.9Zm-3.8,17.9a2.9,2.9,0,1,1-2.9-2.9A2.9,2.9,0,0,1,909.2,237.8Z"/><path class="q" d="M862.7,251.7l65.8,15.4,2.7-12.3-65.3-16.5Z"/><path class="i" d="M884.4,256.8l14,3.3,2.9-12.8-13.7-3.4Zm13-8.8-1.9,10-7.4-2,2.1-10,7.2,2Z"/><path class="r" d="M862.7,251.7,895,274l33.5-6.9-65.8-15.4Z"/><path class="n" d="M895,274l5.8,26.1,17.8,9.3,9.9-42.3Z"/><path class="q" d="M918.6,309.4l-2.1,8.6H886.9l-.67-3,14.57-14.9,17.8,9.3Z"/><path class="p" d="M242.7,322.7l54.1-6.6,51.7,7.1-48.8,8.7-57-9.2Z"/><path class="t" d="M270.2,182.3l-29.8-1,21.7,20.5Z"/><path class="u" d="M240.4,181.3l-6.9,16.3,26.2,10.5,2.4-6.3-21.7-20.5Z"/><path class="v" d="M233.5,197.6l10.2,35.8,16-25.3-26.2-10.5Z"/><path class="u" d="M318.2,193.3l6.3,18.2-9.6,10.1,3.3-28.3Z"/><path class="w" d="M288.6,305.5l2.2,15.4h26.9l.19-3.6-12-11.5-17.3-.3Z"/><path class="u" d="M275.7,307.2v16.1h26.9l.9-4.36-9.1-12.64-18.7.9Z"/><path class="u" d="M261.2,275.9l14.5,31.3,30.2-1.4,15.9-47.5-51.9,1.4Z"/><path class="x" d="M261.2,275.9l14.5,31.3,18.7-.9,1-30.7-11.5-16.3-14,.4Z"/><path class="v" d="M271.6,263.6l23.8,12,26.4-17.3-67.5,4.2,17.3,1.1Z"/><path class="x" d="M263.1,191.7l-3.3,41.4,1.6,27.7,60.4-2.5-3.3-66-55.4-.6Z"/><path class="j" d="M300.1,259.2V196.6h-4.4v62.8l4.4-.2Zm9.3-78.7L322.6,192l-21.4,8.5,1.9-16.5Z"/><path class="y" d="M304.5,182.4l-3.3,18.1L288,199.4l-3-18.9Z"/><path class="f" d="M286.8,191.4l16.6-3.3,1.1-5.7L285,180.5Z"/><path class="u" d="M317.7,130.6a27.34,27.34,0,0,0,.5-5c0-15.6-13-28.2-29.1-28.2S260,110,260,125.6v1.2l57.7,3.8Z"/><path class="y" d="M319.8,144.3l-.5,40.3-57.1-2.8-6.5-43Z"/><path class="f" d="M277.3,139,293,163.5h10.1l12.6-21.2L277.3,139Z"/><path class="e" d="M293,141.5h10.1v21.9H293Z"/><path class="u" d="M293,163.5l-10.7,7.4L310,172l-6.9-8.5Zm-3.6-12.7a3,3,0,0,1-6,0,3,3,0,0,1,6,0Zm22.8,2a3,3,0,1,1-3-3A3,3,0,0,1,312.2,152.8Z"/><path class="f" d="M262.2,181.8l13.2.7-.8-42.2-18.9-1.5,6.5,43Z"/><path class="u" d="M266.4,157.1l4.6-.8-1.9-16.4-13.4-1.1,1.7,11.3,7.3-1.2,1.7,8.2Z"/><path class="j" d="M259.3,162.7l.8,4.9,4.9-6.1-5.7,1.2Zm-3.6-23.9,64.1,5.5,1.7-18.1-65-6.1-.8,18.7Z"/><path class="t" d="M264.3,139.5l2.5.2,1.5-18.5-2.4-.2Zm11.6,1,2.5.2,1.5-18.4-2.5-.2Zm11.6,1,2.4.2,1.5-18.3-2.4-.3-1.5,18.4Zm11.6,1,2.4.2,1.5-18.3-2.5-.2Zm11.5,1,2.5.2,1.5-18.2-2.5-.2Z"/><path class="u" d="M262.8,229.8l18.9-14-9.9-23.3-8.7-.8-.3,38.1Z"/><path class="j" d="M263.1,191.7l-24.4,45,23.3-3.3,12-20.9Z"/><path class="z" d="M262,233.4l7.9,27.4-8.7,15.1-22.5-39.2,23.3-3.3Z"/><path class="j" d="M254.3,167.6l31.5,15.3,2.2,16.5-24.9-7.7Z"/><path class="y" d="M269.9,260.8l1.7,2.8-3.3,15.9-7.1-3.6,8.7-15.1Z"/><path class="v" d="M268.3,279.5l-7.1-3.6,5.3,11.5,1.8-7.9Z"/><path class="z" d="M318.2,217.5l18.6,9L330,243.3l-16.7-6.6Z"/><path class="f" d="M336.8,226.5l15.4,7.7-9.9,21.7L330,243.3l6.8-16.8Z"/><path class="y" d="M336.6,250l5.7,5.9,9.9-21.7-9.3-4.6L336.6,250Z"/><path class="z" d="M339.1,237.4l2.2-2.8L354.6,245l-2.2,2.8Z"/><path class="aa" d="M336.8,239.7l4.1,1.9,5.2-10.4-9.3-4.7-2.7,6.8,2.7,6.4Z"/><path class="j" d="M354.9,245.1l4.9-7.8-5.5-8.8,6.4-11.2L357,232.1l8.6,7.5-10.7,5.5ZM264,157.3l-1-5.6-3.4.6Z"/><path class="q" d="M388.5,181.9,369.6,193l-6.7-10.6Z"/><path class="p" d="M368.4,320.4l62.6-9.9,60.5,3.5-56.4,11.7-66.7-5.3Z"/><path class="f" d="M441.7,199.7l19.7,1.3-1.9,18.1-14.6-1.3Z"/><path class="v" d="M469,152.6c-6.5-1.7-12.3-1-12.9,1.5s4.1,5.9,10.5,7.6,12.3,1,12.9-1.5S475.5,154.3,469,152.6Zm-1.8,6.9c-4.2-1.1-7.4-3-7-4.3s4-1.4,8.2-.3,7.4,3,7,4.3S471.4,160.6,467.2,159.5Z"/><path class="v" d="M443.8,255.1l-2.7-.7,24.3-93.6,2.7.7Z"/><path class="z" d="M446.3,298.5l-8.3-.9L463.3,59.4l8.8-3.3Z"/><path class="x" d="M463.3,59.4,458,45.1l8.1-4.9,6,15.9-8.8,3.3Z"/><path class="v" d="M458,45.1l-16.5-2.5,8.2-4.9,16.4,2.5Z"/><path class="x" d="M455.2,308.5h-8.3V68.9l8.3-4.1Z"/><path class="u" d="M446.9,68.9l-6.8-13.6,7.5-5.7,7.6,15.2-8.3,4.1Z"/><path class="w" d="M440.1,55.3l-16.7-.8,7.6-5.6,16.6.7Z"/><path class="u" d="M459.8,250.2l-3.3,47-18,3.2-13.4-32.9,34.7-17.3Z"/><path class="j" d="M436.2,294.7l2.3,5.7,18-3.2.5-7.4Z"/><path class="v" d="M438.5,300.4l-.7,13.2H474l-.82-3.58L456.5,297.2l-18,3.2Z"/><path class="u" d="M424.9,268,413,304.7,395,308l-16.1-47.9Z"/><path class="j" d="M392.6,302.3,395,308l18-3.3,2.5-7.8-22.9,5.4Z"/><path class="v" d="M395,308l-.8,13.2h36.2l-1.11-3.9L413,304.7Z"/><path class="y" d="M452.3,218.4l7.2.7,1.9-18.1-9.5-.6.4,18Z"/><path class="t" d="M388.5,181.9l-9.6,78.2,38.6,13.3-4.8-95.8-24.2,4.3Z"/><path class="z" d="M412.7,177.6l4.8,95.8,42.3-23.2L435.2,175l-22.5,2.6Z"/><path class="x" d="M422.3,176.5l21.1,82.7,4.1-2.2L427,175.9Z"/><path class="o" d="M388.5,181.9l-28.8,2.9-1.3-19.7,34.1.8-4,16Z"/><path class="q" d="M432.8,159l2.4,16-46.7,6.9.6-12.1L432.8,159Z"/><path class="c" d="M432.1,115l11.3,45.9-54.3,8.9-9-47.7Z"/><path class="h" d="M399.8,136.3,415,148.6l6,3.1,3.2-5,7.7-17.2-10,1.1-10.7,2.6-11.4,3.1Z"/><path class="b" d="M411.2,133.2l3.8,15.4,9.2-1.9-2.3-16.1Z"/><path class="q" d="M410.4,141.5a2.78,2.78,0,0,1-2.7,2.8,2.71,2.71,0,0,1-2.7-2.8,2.7,2.7,0,1,1,5.4,0Zm20.1-4.2a2.7,2.7,0,1,1-2.7-2.8A2.71,2.71,0,0,1,430.5,137.3Z"/><path class="h" d="M389.1,169.8l7.1-1.1-11.7-47.2-12.2,6.8,4.2,25.3Z"/><path class="m" d="M398.8,137l33.1-7.5-.6-3.3L398.2,134Zm11.7,19,18.4-3.3v1.8l-17.5,3.6Z"/><path class="q" d="M371.4,130.4l61.4-13-8.1-27.3-59.7,15,6.4,25.3Z"/><path class="l" d="M384.3,127.7h31.3l17.2-10.3Z"/><path class="n" d="M390.6,126.5l5.8,21.7-19.9,5.4-5.1-23.2ZM365,105.1l26.5-20.2,33.2,5.2Z"/><path class="u" d="M388.5,181.9,374.6,221l18.6-2.2,12.3-30-17-6.9Z"/><path class="x" d="M374.6,221l18.6-2.2,8,14.4-6.1,6.9L374.6,221Z"/><path class="u" d="M387.4,244.1l17-19.1,5.1,5.3-16.8,18.9-5.3-5.1Z"/><path class="p" d="M482.3,324.4l70.4-3.9,67,6.2L556,332.2l-73.7-7.8Z"/><path class="s" d="M556.5,311.4l-7.1,14h19.5l.61-2.7Z"/><path class="q" d="M528.3,279.6l21.1,45.8L575.5,281l-47.2-1.4Z"/><path class="q" d="M545.1,311.4l-7.1,14h19.5l.61-2.7Z"/><path class="n" d="M517,279.6l21,45.8L564.2,281Z"/><path class="q" d="M485.1,203.1,510.8,281l5.2-1,4.2-58.4Z"/><path class="l" d="M498.4,208.8l-.9,8.9,5,2.5,1.2-9.3-5.3-2.1Z"/><path class="n" d="M522,174l-36.9,29.1,35.1,18.5Z"/><path class="q" d="M595.8,196.4l10.7-23.1-14.2-6.9L588.9,182Z"/><path class="n" d="M557.7,196.9,591,182l4.8,14.4-22,17-14.2.7-1.9-17.2Z"/><path class="b" d="M618.9,152.9l2.5-12.4,9,6.2,10.5-6.9-3.4,12,15.3-3.3L640.4,157l15.6,6.2-12.8,3.4,9.8,13.6-11.4-1.9,3.6,12.6-14.8-7.3.4,16L621.4,187l-7.1,8.5-1.4-12.8-8.2,7.1,3.9-14.7,10.3-22.2Z"/><path class="n" d="M611.8,150.6l5.9-1.9,2,6.3-5.9,1.9Z"/><path class="r" d="M588.7,163.3l36.8-13.4,8.3,22.6L596.9,186l-8.2-22.7Z"/><path class="m" d="M518.3,205.1,516,280l67.2,3-22.5-82.2Z"/><path class="q" d="M533.2,243.8l11.3-15.1-26.2-23.6-.8,28.6Z"/><path class="q" d="M561.3,127.6l14.1,16.8-5.5,18.8Z"/><path class="c" d="M561.3,127.6l13.2,47-19.1,7.6-15.5,11.9-18.7-23.4,7.8-30.9,32.3-12.2Z"/><path class="h" d="M539.9,194.1l3.6-2.7-15.7-46.9-6.6,26.2,18.7,23.4Z"/><path class="i" d="M574.5,174.6l-36.7,10,2.1,9.5,15.5-11.9,19.1-7.6Z"/><path class="h" d="M532.8,149.1l18.9,11.1,4.8,3.1,2.3-5.3,5-18.7-9.6,2.4-7,2Z"/><path class="b" d="M547.2,143.7l4.5,16.5,7.1-2.2-4.6-16.3Z"/><path class="q" d="M547.2,143.7l-1-3.5-13.4,8.9Zm6.2-5.3.8,3.3,9.6-2.4-10.4-.9Zm-7.3,14.4a3,3,0,0,1-2.5,3.2,2.94,2.94,0,0,1-3-2.7,3,3,0,0,1,2.5-3.2A2.82,2.82,0,0,1,546.1,152.8Zm18.1-5.2a3,3,0,0,1-2.5,3.2,2.94,2.94,0,0,1-3-2.7,3,3,0,0,1,2.5-3.2A2.94,2.94,0,0,1,564.2,147.6Zm-12.4,22.9,5.4-4.6,6,1.2-5.3,4-6.1-.6Z"/><path class="n" d="M547.8,170.5l10.5-.6,8.4-5.1-7.2,8.4-11.7-2.7Z"/><path class="q" d="M529,139.8l-7.8,30.9-24.5,11.2,4.8-30.8L529,139.8Z"/><path class="s" d="M521.2,170.7l18.7,23.4-43.2-12.2Z"/><path class="n" d="M501.5,151.1l59.8-23.5-8.1-23.5-57.8,29.3,6.1,17.7Z"/><path class="q" d="M495.4,133.4l11-48.8,8.5-5.5,38.3,25-57.8,29.3Z"/><path class="n" d="M506.4,84.6l-5.5,2.1-3.2-11.2,14.7-10.6L521.8,75l-6.9,4.1-8.5,5.5Z"/><path class="q" d="M539.9,194.1l15.5-11.9,5.3,18.6-24,4.8,3.2-11.5Z"/><path class="l" d="M539.9,194.1l-20.4-5.9-1.2,16.9,18.4.5Z"/><path class="n" d="M518.3,205.1l18.4.5,7.8,23.1L530,233.3l-11.7-28.2Z"/><path class="i" d="M536.7,205.6l32.3-6.9,4.8,14.7-29.3,15.3Z"/><path class="l" d="M569,198.7,582.9,174l12.4,6.8-21.5,32.6L569,198.7Z"/><path class="h" d="M582.9,174l1.2-21.6L597.6,166l-2.3,14.8Z"/><path class="c" d="M584.1,152.4l21.3,4.6-7.8,9Z"/><circle class="g" cx="617" cy="165.4" r="8.4"/><path class="q" d="M621.8,165.4a4.8,4.8,0,1,1-4.8-4.8A4.8,4.8,0,0,1,621.8,165.4Z"/><path class="h" d="M600,167.1l4.3-1.5.8,2.4-4.3,1.5Z"/><circle class="x" cx="560.8" cy="236.4" r="2.9"/><path class="o" d="M567.8,256.3a2.9,2.9,0,1,1-2.9-2.9A3,3,0,0,1,567.8,256.3Z"/><path class="o" d="M578.8,267l-62.5,5.1L516,280l67.2,3Z"/><polygon class="ab" points="659.73 318.07 735.57 311.44 809.92 320.65 735.96 326 659.73 318.07"/><polygon class="ac" points="785.98 196.75 766.11 230.94 781.42 236.14 796.27 216.86 785.98 196.75"/><polygon class="ac" points="713 180.58 695.03 207.46 697.68 220.31 705.05 228.06 714.43 220.05 716.67 197.33 713 180.58"/><polygon class="ad" points="695.03 207.46 679.22 206.09 676.78 214.15 679.06 223.82 705.05 228.06 695.03 207.46"/><polygon class="ac" points="715.16 255.22 711.93 280.29 719.96 293.28 734.52 290.85 748.71 267.57 715.16 255.22"/><polygon class="ae" points="734.52 290.85 711.93 280.29 709.49 299.17 716.94 306.26 725.66 305.37 734.52 290.85"/><polygon class="af" points="709.07 301 703.21 304.63 693.2 313.35 711.42 314.71 724.97 313.35 725.66 305.37 713 297.93 709.07 301"/><polygon class="ag" points="713.61 300.75 707.48 306.26 703.21 304.63 709.49 299.17 711.93 297.93 713.61 300.75"/><polygon class="ad" points="736.46 272.52 740.52 286.61 753.32 293.28 766.11 289.84 773.41 256.19 746.43 264.1 736.46 272.52"/><polygon class="ac" points="766.11 289.84 740.52 286.61 745.82 304.97 754.32 309.25 762.49 308.05 766.11 289.84"/><polygon class="af" points="745.82 304.97 740.52 317.33 753.53 319.16 764.07 317.33 762.49 308.05 756.87 304.44 754.09 303.72 751.36 303.72 745.82 304.97"/><rect class="ah" x="740.52" y="317.34" width="23.55" height="3.65" transform="translate(1504.59 638.32) rotate(-180)"/><polygon class="ag" points="756.87 306.94 756.05 312.81 749.28 312.81 751.51 305.98 754.09 305.37 756.87 306.94"/><rect class="ah" x="693.17" y="313.29" width="31.8" height="3.65" transform="translate(1418.13 630.24) rotate(-180)"/><polygon class="ai" points="715.16 255.22 736.46 272.52 773.41 256.19 747.78 252.64 735.57 245.1 728.09 250.73 715.16 255.22"/><polygon class="ag" points="719 184.46 728.09 180.42 734.32 188.97 739.33 200.97 755.88 195.34 772.25 191.75 779.89 200.23 774.82 230.94 772.25 238.83 773.41 256.19 742.38 261.5 735.57 245.98 727.25 259.73 715.16 255.22 714.43 220.05 719 184.46"/><polygon class="ae" points="777.17 178.12 770.99 171.66 770.05 177.57 766.31 183.82 777.17 178.12"/><polygon class="ae" points="734.65 164.46 722.41 170.9 728.09 180.42 739.33 200.97 738.73 180.07 734.65 164.46"/><polygon class="ad" points="774.82 230.94 772.25 191.75 785.98 196.75 774.82 230.94"/><polygon class="ad" points="713 180.58 714.43 220.05 728.09 180.42 713 180.58"/><rect class="aj" x="754.4" y="204.96" width="3.28" height="23.8" transform="translate(423.03 929.42) rotate(-80.96)"/><polygon class="ak" points="776.66 113.39 741.13 109.65 730.19 104.32 718.25 159.42 734.65 164.46 736.9 171.58 739.19 176.25 754.22 184.46 766.59 176.65 785.38 155.2 792.92 143.46 795.03 131.39 776.66 113.39"/><polygon class="al" points="772.6 112.96 755.78 170.62 734.65 164.46 736.59 171.85 736.42 179.13 739.33 200.97 758.29 190.05 769.76 179.56 780.66 162.56 781.05 157.74 785.38 155.21 776.09 148.23 784 136.98 792.92 143.46 798.53 134.82 781.46 118.08 776.66 113.39 772.6 112.96"/><polygon class="al" points="738.76 140.93 749.06 126.25 762.13 122.02 747.17 117.41 743.33 122.07 737.88 131.88 738.76 140.93"/><polygon class="al" points="737.73 120.73 737.13 115.98 728.26 113.25 735.22 135.11 737.73 120.73"/><polygon class="am" points="776.09 148.23 785.38 155.21 780.66 162.56 776.09 148.23"/><polygon class="am" points="741.37 130.15 758.39 144.39 765.4 137.63 768.4 137.53 769.77 135.48 762.13 131.83 741.37 130.15"/><polygon class="am" points="735.71 129.08 724 132.89 724.5 130.6 726.78 126.5 735.71 129.08"/><polygon class="ac" points="780.45 119.58 763.16 145.33 772.18 153.77 784 136.98 792.92 143.46 798.53 134.82 789.52 123.9 780.45 119.58"/><polygon class="an" points="737.73 120.73 743.33 122.07 738.76 140.93 733.17 139.58 737.73 120.73"/><polygon class="am" points="780.9 147.32 784.53 141.05 789.89 144.75 780.9 147.32"/><polygon class="ac" points="762.13 122.02 751.77 114.97 747.17 117.41 762.13 122.02"/><polygon class="ac" points="737.13 115.98 732.7 111.34 728.26 113.25 737.13 115.98"/><polygon class="al" points="724.29 142.59 755.8 150.22 743.86 156.26 730.19 153.09 724.29 142.59"/><polygon class="b" points="727.92 145.52 750.05 150.85 743.43 154.54 731.6 151.77 727.92 145.52"/><polygon class="am" points="733.17 139.58 735.57 143.56 738.76 140.93 733.17 139.58"/><polygon class="ae" points="768.4 137.53 783.01 138.39 784 136.98 776.2 134.82 769.74 135.53 768.4 137.53"/><polygon class="am" points="734.65 164.46 762.28 172.52 736.42 179.13 734.65 164.46"/><polygon class="ad" points="741.13 87.78 792.92 100.73 802.37 116.55 769.76 104.32 741.13 87.78"/><polygon class="ai" points="772.6 112.96 798.53 134.82 802.37 116.55 779.16 105.19 772.6 112.96"/><polygon class="ac" points="772.6 112.96 779.16 110.44 779.16 105.19 741.13 87.78 739.92 98.96 741.13 109.65 772.6 112.96"/><polygon class="ad" points="741.13 87.78 716.24 81.78 730.19 104.32 741.13 109.65 741.13 87.78"/><polygon class="ao" points="764.15 127.05 792.2 133.81 792.92 143.46 784 136.98 762.13 134.68 762.39 130.43 764.15 127.05"/><polygon class="ao" points="737.73 120.73 743.33 122.07 743.62 124.45 742.14 126.96 736.56 125.56 735.96 123.52 737.73 120.73"/><path class="r" d="M720.27,116.55l17.46,4.18-2,8.35-19,2.58,3.6-15.11Zm23.06,5.52,20.82,5-4,15.25-18.75-12.15Z"/><polygon class="ad" points="753.53 184.88 777.17 178.12 772.25 191.75 739.33 200.97 753.53 184.88"/><polygon class="ap" points="772.25 238.83 739.19 224.25 735.57 224.25 714.74 234.95 735.57 245.1 772.25 238.83"/><polygon class="ad" points="739.33 200.97 739.19 224.25 735.57 245.98 735.57 224.25 739.33 200.97"/><polygon class="ad" points="796.27 216.86 766.59 236.34 768.06 245.1 773.05 250.74 805.98 234.67 796.27 216.86"/><polygon class="ao" points="766.59 236.34 759.22 241.06 773.05 250.74 766.59 236.34"/><polygon class="ai" points="764.68 297 743.49 296.9 745.82 304.97 762.49 308.05 764.68 297"/><polygon class="ap" points="756.86 307.01 756.86 301 751.16 300.43 751.5 306.02 756.86 307.01"/><polygon class="ai" points="729.86 298.48 710.75 289.46 709.49 299.17 725.66 305.37 729.86 298.48"/><polygon class="ap" points="713.61 300.75 714.74 294.64 710.25 293.28 709.49 299.17 713.61 300.75"/><polygon class="ao" points="679.22 206.09 669.91 205.41 666.49 213.37 668.43 223.84 679.06 223.82 679.22 206.09"/><polygon class="s" points="679.22 206.09 671.98 193.97 667.96 195.19 671.04 211.34 679.15 214.32 679.22 206.09"/><polygon class="r" points="669.91 205.41 651 204.32 651 208.16 671.04 211.34 669.91 205.41"/><polygon class="s" points="658.35 209.33 659.73 221.02 668.43 223.84 671.04 211.34 658.35 209.33"/><path class="ap" d="M772.2,84.53l21,9.18,13.58,8.6-7.59,29.35L758.62,92.15Z"/><path class="ag" d="M772.2,84.53l21.4-3.23,7.91,10.85,5.28,10.16Z"/><path class="ap" d="M793.6,81.3l7.32-4.59L811,73.2l3,25.3L802.19,90Z"/><path class="af" d="M793.6,81.3,814,98.5l-7.22,3.81Z"/><path class="ag" d="M793.6,81.3,811,73.2,794.57,73Z"/></svg>