<svg id="Layer_1" data-name="Layer 1" xmlns="http://www.w3.org/2000/svg" viewBox="0 0 400 400"><defs><style>.cls-1,.cls-14{fill:#2b2b2b;}.cls-1{opacity:0.1;}.cls-2{fill:#a27e6e;}.cls-3{fill:#ececeb;}.cls-4{fill:#cececd;}.cls-5{fill:#369496;}.cls-6{fill:#1c7678;}.cls-7{fill:#3aa0ba;}.cls-8{fill:#5ec0d9;}.cls-9{fill:#73cfe5;}.cls-10{fill:#dddddc;}.cls-11{fill:#50a9aa;}.cls-12{fill:#7f5d4e;}.cls-13{fill:#165e60;}.cls-15{fill:#5b5b5b;}.cls-16{fill:#9ca0a1;}.cls-17{fill:#593e35;}.cls-18{fill:#4f5253;}.cls-19{fill:#474747;}.cls-20{fill:#6f7173;}.cls-21{fill:#aa8d80;}.cls-22{fill:#734d60;}.cls-23{fill:#543042;}</style></defs><title>sentinels_famous_real_aretha_franklin</title><polygon class="cls-1" points="102.92 372.61 57.89 375.81 109.72 398.03 193.56 400 258.79 400 342.11 373.03 306.4 367.26 102.92 372.61"/><polygon class="cls-2" points="183.56 131.9 186.33 128.93 221.68 131.26 241.62 131.55 212.78 172.88 188.99 175.38 177.13 169.91 177.76 155.42 183.56 131.9"/><polygon class="cls-3" points="183.56 131.9 163.83 126.5 155.3 141.66 149.74 169.11 153.85 192.16 162.43 206.19 192.06 214.56 227.34 202.76 256.63 129.63 235.61 128.35 190.12 170.11 183.56 131.9"/><polygon class="cls-4" points="161.42 222.76 162.43 206.19 227.34 202.76 225.64 226.35 200.18 228.82 161.42 222.76"/><polygon class="cls-5" points="217.84 180.14 223.07 156.15 232.84 157.95 258.57 177.38 267.27 208.09 234.97 216.26 227.34 202.76 217.84 180.14"/><polygon class="cls-6" points="285.25 204.51 267.27 208.09 223.07 156.15 235.61 128.35 256.63 129.63 277.25 164.33 285.25 204.51"/><polygon class="cls-5" points="295.4 166.44 285.25 204.51 256.63 129.63 281.87 140.55 295.4 166.44"/><polygon class="cls-7" points="119.32 308.94 102.92 372.61 142.01 384.4 166.2 353.69 145.84 316.13 119.32 308.94"/><polygon class="cls-8" points="195.92 380.54 142.01 384.4 144.94 327.28 145.84 316.13 194.45 315.64 219.08 345.07 195.92 380.54"/><polygon class="cls-7" points="256.83 388.39 195.92 380.54 194.45 315.64 248.19 309.1 281.58 348.32 256.83 388.39"/><polygon class="cls-8" points="306.4 367.26 270.42 312.43 248.19 309.1 253.43 329.88 256.83 388.39 306.4 367.26"/><polygon class="cls-6" points="102.69 197.18 95.13 174.98 140.48 155.68 146.74 161.15 133.25 174.34 102.69 197.18"/><polygon class="cls-9" points="161.59 229.55 161.42 222.76 225.64 226.35 236.67 233.09 201.28 240.38 161.59 229.55"/><polygon class="cls-10" points="138.28 261.9 172.23 272.85 167.5 379 80.34 358.07 119.79 282.33 138.28 261.9"/><polygon class="cls-3" points="161.59 229.55 175.2 229.94 172.23 272.85 149.71 268.34 117.15 256.63 161.59 229.55"/><polygon class="cls-3" points="208.02 366.88 167.5 379 172.23 272.85 175.19 256.4 212.34 270.51 208.02 366.88"/><polygon class="cls-10" points="172.23 272.85 175.2 229.94 191.72 230.57 212.34 270.51 210.91 274.09 193.22 276.75 172.23 272.85"/><polygon class="cls-10" points="255.56 382.57 208.02 366.88 193.22 276.75 211.97 249.55 256.16 271.13 255.56 382.57"/><polygon class="cls-3" points="193.22 276.75 191.72 230.57 209.9 231.26 251.26 265.09 219.55 270.11 193.22 276.75"/><polygon class="cls-3" points="310.8 352.07 255.56 382.57 219.55 270.11 244.26 256.45 247.67 253.59 310.8 352.07"/><polygon class="cls-10" points="219.55 270.11 209.9 231.26 236.67 232.27 247.67 253.59 219.55 270.11"/><polygon class="cls-11" points="217.84 180.14 229.77 258.98 239.81 271.43 238.88 196.47 252.03 123.61 239.1 116.82 219.66 157.53 217.84 180.14"/><polygon class="cls-5" points="239.81 271.43 240.46 291.59 255.82 304.43 289.28 293.89 264.08 230.99 275.67 232.79 238.88 196.47 239.81 271.43"/><polygon class="cls-6" points="255.82 304.43 247.37 206.38 254.24 210.44 270.76 294.56 255.82 304.43"/><polygon class="cls-5" points="113.53 145.4 153.94 137 157.23 124.86 160.27 136.79 157.38 140.43 137.94 146.72 124.97 176.68 95.13 174.98 113.53 145.4"/><polygon class="cls-11" points="177.9 126.95 160.27 255 149.71 267.01 153.85 192.16 156.8 125.23 180.15 122.57 177.9 126.95"/><polygon class="cls-6" points="137.27 209.91 115.13 165.2 157.38 140.43 153.85 192.16 137.27 209.91"/><polygon class="cls-12" points="137.27 209.91 127.83 169.85 129.66 136.43 117.47 147.15 102.69 197.18 137.27 209.91"/><polygon class="cls-13" points="137.27 209.91 127.83 169.85 111.71 166.65 102.69 197.18 137.27 209.91"/><polygon class="cls-14" points="109.32 175.47 115.36 164.24 130.07 140.06 145.55 147.56 127.83 169.85 118.53 181.52 109.32 175.47"/><polygon class="cls-14" points="129.66 136.43 131.28 122.57 144.77 129.59 157.38 140.43 145.55 147.56 129.66 136.43"/><polygon class="cls-15" points="133.42 119.03 148.05 112.53 161.74 121.54 159.78 137 143.57 128.28 133.42 119.03"/><polygon class="cls-16" points="131.28 122.57 157.38 140.43 159.78 137 133.42 119.03 131.28 122.57"/><polygon class="cls-2" points="129.66 136.43 142.63 138.85 136.1 153.47 127.36 163.21 115.36 164.24 129.66 136.43"/><polygon class="cls-12" points="142.63 138.85 148.88 157.5 127.83 169.85 127.36 163.21 142.63 138.85"/><polygon class="cls-12" points="221.64 200.05 209.27 179.67 204.34 182.58 207.33 197.46 221.64 200.05"/><polygon class="cls-2" points="221.64 200.05 200.28 192.16 196.34 205.06 194.4 215.89 216.95 219.13 221.64 210.03 221.64 200.05"/><polygon class="cls-12" points="200.28 192.16 181.29 190.02 181.29 205.71 194.4 215.89 200.28 192.16"/><polygon class="cls-6" points="216.95 219.13 221.64 200.05 229.57 200.53 226.01 222.42 216.95 219.13"/><polygon class="cls-11" points="129.66 177.62 133.21 192.16 155.25 170.53 155.99 160.79 129.66 177.62"/><polygon class="cls-6" points="180.15 122.57 184.01 122.1 186.69 129.98 183.56 131.9 176.83 134.21 177.9 126.95 180.15 122.57"/><polygon class="cls-5" points="149.71 267.01 148.19 287.12 132.29 299.29 102.69 287.47 134.77 208.99 137.27 209.91 153.85 192.16 149.71 267.01"/><polygon class="cls-6" points="132.29 299.29 144.94 201.7 137.27 209.91 117.15 293.25 132.29 299.29"/><polygon class="cls-17" points="229.82 123.22 211.4 136.47 197.37 153.51 172.8 114.23 218.11 117.67 229.82 123.22"/><polygon class="cls-12" points="234.96 113.55 237.96 120.64 232.08 131.28 197.37 153.51 209.82 128.18 191.42 126.89 194.95 56.17 222.51 47.8 237.87 80.54 234.96 113.55"/><polygon class="cls-17" points="233.71 101.54 227.13 102.61 237.96 120.64 241.23 109.69 233.71 101.54"/><path class="cls-18" d="M228.53,97.89l-1.4,4.72,14.21,7.09,4.86-8.7s-7.83-13.7-8.11-14.27-9.45,11.17-9.45,11.17Z"/><polygon class="cls-19" points="248.49 98.67 253.37 103.18 262.85 81.66 253.59 87.88 248.49 98.67"/><polygon class="cls-14" points="245.91 95.24 239.71 100.98 241.23 109.69 253.37 103.18 254.69 88.21 245.91 95.24"/><path class="cls-20" d="M233.93,95.28l5.76.73,0,5,15-12.66S244.55,76.94,244,77s-17.41,10.47-17.41,10.47Z"/><polygon class="cls-19" points="228.63 84.35 222.9 93.21 227.13 102.61 239.7 95.9 233.7 87.88 228.63 84.35"/><polygon class="cls-20" points="256.47 65.22 260.42 70.2 262.85 81.66 250.29 82.96 251.47 67.09 256.47 65.22"/><polygon class="cls-18" points="249.52 76.72 256.92 78.81 262.85 81.66 254.69 88.21 250.74 86.52 249.52 76.72"/><path class="cls-14" d="M249,75.24l11.44-5.15,3.65-11.47s-20.54-3.79-19.65-3.93S249,75.24,249,75.24Z"/><polygon class="cls-14" points="246.17 62.33 250.82 65.71 256.92 78.81 250.74 86.52 244.55 83.22 235.36 59.07 246.17 62.33"/><polygon class="cls-19" points="241.71 60.62 241.59 65.67 244.55 83.22 233.7 87.88 230.08 64.11 240.64 54.03 241.71 60.62"/><polygon class="cls-14" points="226.87 65.59 225.13 70.39 222.9 93.21 233.7 87.88 234.87 68.39 226.87 65.59"/><polygon class="cls-19" points="248.22 44.01 253.48 48 263.96 58.73 246.25 58.92 243.11 45.98 248.22 44.01"/><polygon class="cls-14" points="247.99 28.02 254.37 29.25 253.48 48 243.3 51.29 242.9 38.26 247.99 28.02"/><polygon class="cls-20" points="241.04 43.27 246.7 43.77 250.82 65.71 241.49 65.66 239.94 58.26 227.35 35.23 241.04 43.27"/><path class="cls-18" d="M236.24,11.68l7-1.47,11.07,19-7.67,14.63S224,20.41,224,21.06s12.36-9.26,12.36-9.26Z"/><path class="cls-19" d="M232.07,27.72l7-3,7.65,19.18-16.5,5.26s-7.55-17.28-7.49-18S232.07,27.72,232.07,27.72Z"/><polygon class="cls-14" points="229.69 12.42 236.59 15.12 239.04 24.7 229.02 27.45 207.08 17.49 229.69 12.42"/><polygon class="cls-20" points="215.96 11.1 221.94 8.11 243.29 10.21 236.59 15.12 216.16 15.54 215.96 11.1"/><polygon class="cls-14" points="225.09 38.45 234.88 35.79 239.94 58.26 234.87 68.39 219.25 42.34 225.09 38.45"/><path class="cls-20" d="M206.89,12.13l9.27,3.41L239,24.7l-4.17,11.2L200.4,24.28l6.47-11.93Z"/><polygon class="cls-14" points="209.58 25.9 234.88 35.79 226.87 41.91 199.31 42.07 209.58 25.9"/><polygon class="cls-18" points="212.88 7.25 216.16 15.54 211.38 29.77 182.43 11.63 197.63 3.15 212.88 7.25"/><polygon class="cls-14" points="200.18 5.47 213.08 0 221.94 8.11 216.16 15.54 203.33 5.21 200.18 5.47"/><polygon class="cls-20" points="173.19 8.71 185 3.14 213.08 0 203.33 5.21 182.22 18.09 168.65 11.98 173.19 8.71"/><polygon class="cls-14" points="157.16 13.57 154.96 6.11 176.7 1.31 185 3.14 174.81 10.73 157.16 13.57"/><path class="cls-19" d="M162.47,24.06c1.78.93,0-8.69,0-8.69l12.31-4.52L203.22,5.2l.91,12.14L186.2,24.72,164,25.08l-1.66-1.14Z"/><polygon class="cls-18" points="150.18 22.87 149.92 18.44 154.96 6.11 174.81 10.73 167.38 14.41 150.18 22.87"/><polygon class="cls-20" points="141.97 36.3 137.73 33.29 149.92 18.44 167.38 14.41 154.91 41.08 141.97 36.3"/><polygon class="cls-14" points="140.24 67.61 134.32 82.39 145.9 95.03 172.84 81.14 162.93 64.14 140.24 67.61"/><polygon class="cls-19" points="142.29 64.08 137.69 71.69 134.32 82.39 167.55 80.12 161.86 42.02 142.29 64.08"/><polygon class="cls-14" points="141.15 39.42 132.81 56.86 137.69 71.69 165.22 53.11 141.15 39.42"/><polygon class="cls-18" points="156.72 33.53 146.57 34.06 137.73 33.29 132.81 56.86 153.22 49.63 156.72 33.53"/><polygon class="cls-14" points="174.37 23.68 167.38 14.41 146.57 34.06 150.68 43.46 168.6 39.46 174.37 23.68"/><polygon class="cls-20" points="202.56 35.09 211.38 29.77 226.87 41.91 234.87 68.39 225.13 70.39 218.2 52.93 199.13 48.72 202.56 35.09"/><polygon class="cls-18" points="185.61 22.8 183.37 22.6 167.38 14.41 167.23 26.8 185.35 50.37 189.68 43.04 185.61 22.8"/><polygon class="cls-14" points="186.64 46.96 186.64 30.04 183.37 22.6 204.13 17.34 211.38 29.77 202.56 35.09 186.64 46.96"/><polygon class="cls-2" points="150.68 43.46 145.9 95.03 164.93 124.56 191.42 126.89 216.61 97.72 218.2 52.93 202.56 35.09 186.64 30.04 171.87 27.87 167.23 26.8 150.68 43.46"/><polygon class="cls-19" points="164.43 95.66 165.76 102.92 171.68 110.49 185.31 109.74 193.62 97.07 178.88 93.21 164.43 95.66"/><polygon class="cls-10" points="173.24 94.98 183.15 93.5 191.42 96.48 190.03 99.01 167.55 98.2 166.8 95.66 173.24 94.98"/><polygon class="cls-12" points="154.08 67.08 161.26 60.98 159.05 67.3 154.08 67.08"/><polygon class="cls-12" points="193.62 59.96 203.67 66.74 195.8 65.53 193.62 59.96"/><polygon class="cls-17" points="169.77 73.93 166.4 82.71 175.69 90.28 188.56 83.76 169.77 73.93"/><polygon class="cls-14" points="173.48 53.82 162.07 51.67 154.08 55.67 161.61 54.67 174.17 57.27 173.48 53.82"/><polygon class="cls-14" points="184.44 53.53 198.15 51.49 207.09 57.45 197.69 54.86 184.08 56.92 184.44 53.53"/><polygon class="cls-12" points="166.4 82.7 164.09 63.43 154.08 55.67 161.61 54.67 174.17 57.27 174.81 59.26 181.46 59.73 184.08 56.92 197.69 54.86 207.09 57.45 191.76 63.43 188.56 83.76 166.4 82.7"/><polygon class="cls-21" points="174.81 59.26 173.24 74.89 166.4 82.7 188.56 83.76 181.37 75.46 181.46 59.73 174.81 59.26"/><polygon class="cls-22" points="167.38 111.24 162.23 95.66 164.98 96.32 172.41 105.5 182.03 106.12 192.88 97.45 195.54 97.23 187.19 110.49 183.62 113.4 171.05 113.4 167.38 111.24"/><path class="cls-23" d="M162.23,95.66l11.94-3.53,7.88-.41,13.49,5.51-2.66.22-13.59-2.59a13.85,13.85,0,0,1-2.13-.13L165,96.32Z"/><polygon class="cls-12" points="165.58 80.12 157.9 98.18 158.54 86.22 165.58 80.12"/><polygon class="cls-12" points="189.8 79.74 201.37 98.57 201.16 89.24 189.8 79.74"/><path class="cls-14" d="M192.09,59.28a3.84,3.84,0,1,1-4.15,3.49A3.83,3.83,0,0,1,192.09,59.28Z"/><path class="cls-14" d="M164.43,59.75a3.83,3.83,0,1,1-4.15,3.48A3.83,3.83,0,0,1,164.43,59.75Z"/><polygon class="cls-13" points="226.01 222.42 229.57 200.53 285.25 204.51 275.67 232.79 226.01 222.42 226.01 222.42"/></svg>