<svg id="Layer_1" data-name="Layer 1" xmlns="http://www.w3.org/2000/svg" viewBox="0 0 400 400"><defs><style>.cls-1{fill:#cecdcc;}.cls-1,.cls-10,.cls-11,.cls-12,.cls-13,.cls-14,.cls-15,.cls-16,.cls-17,.cls-18,.cls-19,.cls-2,.cls-20,.cls-21,.cls-22,.cls-23,.cls-24,.cls-3,.cls-4,.cls-5,.cls-6,.cls-7,.cls-8,.cls-9{fill-rule:evenodd;}.cls-2,.cls-7{fill:#2b2b2b;}.cls-2{opacity:0.1;}.cls-3{fill:#474748;}.cls-4{fill:#795d88;}.cls-5{fill:#594265;}.cls-6{fill:#4f5353;}.cls-8{fill:#6f7273;}.cls-9{fill:#95637c;}.cls-10{fill:#d1a0b8;}.cls-11{fill:#734d61;}.cls-12{fill:#9b9fa0;}.cls-13{fill:#8f759f;}.cls-14{fill:#c3c3c3;}.cls-15{fill:#c18f7c;}.cls-16{fill:#f4cab2;}.cls-17{fill:#fbe3d4;}.cls-18{fill:#8e8e8e;}.cls-19{fill:#fff;}.cls-20{fill:#fff0e8;}.cls-21{fill:#dcdcdb;}.cls-22{fill:#b2879c;}.cls-23{fill:#eed2c1;}.cls-24{fill:#ebebea;}</style></defs><title>analysts_ENTJ_famous_real_franklin_d_roosevelt</title><polygon class="cls-1" points="168.44 2.19 217.65 0 207.81 4.92 177.47 13.94 154.23 8.75 168.44 2.19"/><polygon class="cls-2" points="338.41 378.25 209.55 400 61.59 368.74 148.25 365.42 279.95 367.68 338.41 378.25"/><polygon class="cls-3" points="149.76 137.93 136.37 137.56 143.24 160.21 154.37 150.62 149.76 137.93"/><polygon class="cls-4" points="125.05 203.99 112.32 203.44 93.71 220.87 113.08 229.36 137.3 237.55 136.49 223.3 125.05 203.99"/><polygon class="cls-5" points="154.37 161.58 157.25 167.93 149.13 236.92 142.26 241.76 128.87 202.54 154.37 161.58"/><polygon class="cls-6" points="282.23 372.5 269.74 375.97 236.76 373.78 247.84 349.6 263.39 348.68 272.6 352.12 282.23 372.5"/><polygon class="cls-7" points="238.81 377.47 282.23 378.1 282.23 372.5 238.88 371.88 236.76 373.78 238.81 377.47"/><polygon class="cls-8" points="272.6 352.12 247.75 350.96 237.79 287.63 263.39 280.75 272.6 352.12"/><polygon class="cls-9" points="224.85 382.49 246.04 377.58 254.53 287.23 251.85 285.12 216.58 263.48 213.44 376.19 224.85 382.49"/><polygon class="cls-10" points="151.87 378.64 224.85 382.49 230.84 278 217.82 273.58 127.36 270.48 123.32 274.51 151.87 378.64"/><polygon class="cls-11" points="254.53 287.23 230.84 278 123.32 274.51 105.19 266.13 110.96 259.21 230.51 242.1 263.87 284.52 254.53 287.23"/><polygon class="cls-6" points="142.26 241.76 136.99 237.97 112.14 167.23 114.57 163.31 119.76 166.2 145.61 237.11 142.26 241.76"/><polygon class="cls-12" points="112.84 146.59 121.98 150.39 124.66 158.12 119.76 166.2 98.42 169.08 93.36 155.94 112.84 146.59"/><polygon class="cls-8" points="119.19 135.63 126.69 137.93 137.64 149.47 133.61 165.62 128.99 173.12 119.76 166.2 122.07 154.08 112.84 146.59 119.19 135.63"/><polygon class="cls-6" points="141.1 168.5 128.99 173.12 133.03 150.62 138.8 147.16 146.29 148.32 141.1 168.5"/><polygon class="cls-12" points="132.45 133.32 146.29 148.32 133.03 150.62 119.19 135.63 132.45 133.32"/><polygon class="cls-5" points="270.87 153.34 291.16 188.5 302.83 222.96 278.01 221.52 266.04 215.25 261.65 180.62 270.87 153.34"/><polygon class="cls-4" points="309.54 220.52 286.03 243.78 273.43 254.73 264.83 230.73 291.16 188.5 309.54 220.52"/><polygon class="cls-4" points="270.88 153.51 262.94 254.76 225.31 238.3 186.67 238.87 186.67 209.46 190.38 202.02 240.89 179.46 254.73 148.89 270.88 153.51"/><polygon class="cls-13" points="168.79 153.51 154.37 161.58 145.61 237.11 150.33 241.18 186.67 238.87 190.89 234.71 191.29 204.84 171.1 179.46 168.79 153.51"/><polygon class="cls-5" points="198.78 221.57 191.16 214.43 184.94 222.15 190.96 228.85 198.78 221.57"/><polygon class="cls-13" points="246.66 183.5 254.73 148.89 210.9 168.5 191.29 204.84 246.66 183.5"/><polygon class="cls-4" points="164.07 185.5 191.29 204.84 184.36 166.2 168.79 153.51 164.07 185.5"/><polygon class="cls-14" points="214.36 175.43 213.78 165.04 206.28 161 190.71 161.58 184.94 162.74 180.32 170.24 185.52 186.96 203.98 189.27 214.36 175.43"/><polygon class="cls-6" points="191.29 204.84 203.98 189.27 201.67 169.66 196.48 167.35 193.01 169.66 185.52 186.96 191.29 204.84"/><polygon class="cls-15" points="238.97 123.55 232.41 142.69 200.7 154.71 179.09 143.2 172.96 126.57 164.34 111.06 212.58 93.64 238.97 123.55"/><polygon class="cls-3" points="209.74 160.43 201.67 169.66 193.01 169.66 187.82 159.85 201.09 154.08 209.74 160.43"/><polygon class="cls-16" points="252.62 92.41 241.68 137.28 221.36 149.13 228.78 129.34 206.68 128.56 222.02 60.68 225.57 38.81 248.03 40.05 252.62 92.41"/><polygon class="cls-1" points="248.19 58.88 235.36 55.29 235.53 44.72 225.57 38.81 229.01 19.68 232.68 13.94 256.79 20.22 261.65 50.87 248.19 58.88"/><polygon class="cls-15" points="252.62 92.41 241.54 72.18 250.68 72.18 256.79 75.33 252.62 92.41"/><polygon class="cls-17" points="261.65 50.87 245.27 46.7 241.54 72.18 256.79 75.33 261.65 50.87"/><polygon class="cls-15" points="255.34 55.06 249.56 53.42 248.93 66.87 255.34 55.06"/><polygon class="cls-14" points="217.65 0 256.79 20.22 229.01 19.68 213.27 12.57 205.62 4.92 208.35 3.01 217.65 0"/><polygon class="cls-17" points="223.01 109.06 206.68 128.56 162.34 125.95 147.57 115.13 146.17 65.2 147.12 42.64 154.23 8.75 176.1 10.66 207.81 4.92 229.01 19.68 227.49 59.59 223.01 109.06"/><polygon class="cls-16" points="183.71 38.19 178.29 42.19 176.26 35.06 179.91 37.35 183.71 38.19"/><polygon class="cls-16" points="162.51 38.15 166.57 37.67 170.6 34.89 168.5 42.05 162.51 38.15"/><polygon class="cls-16" points="171.72 72.16 164.34 69.47 146.17 65.2 147.88 63.89 179.2 64.36 198.59 64.66 199.74 66.04 178.56 69.92 171.72 72.16"/><path class="cls-16" d="M186.21,52.48l-8.48,9.32-5.89-10.95,10.51-6.66,18.08.09L204,49.64l-17.74,2.84Zm-16.75-5.87-4.34-2.51L148.76,44,147,45.44l-.23,5.48,13.29.5,6.48,10.37,5.63-6.29Z"/><polygon class="cls-18" points="206.68 39.71 206.68 42.57 194.98 39.54 178.29 42.19 179.91 37.35 196.46 35.58 206.68 39.71"/><polygon class="cls-18" points="166.57 37.67 168.5 42.05 154.43 39.83 147.42 41.24 148.18 37.62 154.32 36.31 166.57 37.67"/><polygon class="cls-15" points="185.94 98.48 192.49 85.77 155.16 85.77 161.61 97.59 185.94 98.48"/><polygon class="cls-19" points="188.16 87.77 184.98 95.69 162.9 95.02 159.59 87.51 188.16 87.77"/><path class="cls-8" d="M200.7,42.64l6,6,4.07,3.76-4.31,1.65-.3,6.61-6.56,5.47-21.91-.69-1.2-3.74,22,1.08,4.25-3.92.33-9.05-3.37-3.52L183,47l-7.66,4.67.87-4.48s5.88-4.43,6.23-4.41S200.7,42.64,200.7,42.64Z"/><path class="cls-8" d="M147.12,42.64l-5.19,5.47-.27,11.48,4.51,5.61,19.91.42,2.43-3.9-21.73-.08-1.92-3.17.17-8.92,2.39-3.16,16.92-.25L173,53.07l-2.05-6.37-5.71-3.52C164.85,43.21,147.12,42.64,147.12,42.64Z"/><polygon class="cls-20" points="170.91 46.7 176.23 47.16 178.56 69.92 171.18 71.07 164.34 69.47 170.91 46.7"/><polygon class="cls-15" points="171.18 74.9 178.56 69.92 164.34 69.47 171.18 74.9"/><polygon class="cls-21" points="242.13 133.78 254.73 148.89 214.36 175.43 201.09 154.08 242.13 133.78"/><polygon class="cls-21" points="177.54 140.09 201.09 154.08 180.32 170.24 168.79 153.51 177.54 140.09"/><polygon class="cls-22" points="257.72 241.52 276.02 264.41 242.81 274.33 230.97 268.3 226.47 235.18 231.46 224.78 257.72 241.52"/><polygon class="cls-16" points="242.12 241.86 257.72 241.52 260.28 248.5 257.13 254.12 241.54 248.21 242.12 241.86"/><polygon class="cls-17" points="277.12 255.57 277.46 276.96 258.55 268.69 252.52 262.31 257.72 241.52 272.22 247.28 277.12 255.57"/><polygon class="cls-15" points="263.87 284.52 277.46 276.96 252.52 262.31 242.81 274.33 263.87 284.52"/><polygon class="cls-21" points="286.03 243.78 277.12 255.57 257.72 241.52 264.83 230.73 286.03 243.78"/><polygon class="cls-6" points="100.73 160.43 93.36 155.94 91.53 162.94 98.42 169.08 100.73 160.43"/><polygon class="cls-21" points="96.09 200.85 112.32 203.44 113.9 229.64 96.87 226.78 91.88 215.56 96.09 200.85"/><polygon class="cls-10" points="113.51 223.15 231.46 224.78 230.97 268.3 105.19 266.13 113.51 223.15"/><polygon class="cls-15" points="82.53 192.5 96.35 208.57 96.87 226.78 64.45 215.56 75.67 211.2 82.53 192.5"/><polygon class="cls-16" points="79.39 188.57 80.04 206.21 78.17 213.69 64.45 215.56 70.06 190.63 79.39 188.57"/><polygon class="cls-17" points="95.81 192.79 96.4 210.11 83.94 199.52 80.04 206.21 74.42 203.72 79.39 188.57 95.81 192.79"/><polygon class="cls-16" points="183.02 71.21 202.08 90.86 193.32 74.95 183.02 71.21"/><polygon class="cls-16" points="161.24 71.8 150.44 89.5 154.35 74.78 161.24 71.8"/><polygon class="cls-9" points="169.15 337.06 163.93 338.29 160.62 343.53 163.33 343.05 164.5 340.74 169.9 339.34 169.15 337.06"/><path class="cls-11" d="M174.2,331.65c-.38,0-1.49,2-1.49,2l-5.24,3.4,1.09,3.42s9.89-2.74,10.44-2.74S174.2,331.65,174.2,331.65Z"/><polygon class="cls-9" points="176.93 340.41 176.11 340.92 171.81 347.69 180.61 354.24 189.12 346.71 184.3 340.59 176.93 340.41"/><path class="cls-11" d="M175.66,337.85l.45,3.07,4,2.68,4.16-3,.85-3.54s-9.43,0-9.28-.12S175.66,337.85,175.66,337.85Z"/><polygon class="cls-9" points="191.51 337.04 196.7 338.4 199.88 343.72 197.18 343.17 196.07 340.83 190.7 339.3 191.51 337.04"/><path class="cls-11" d="M186.6,331.5c.38,0,1.44,2.08,1.44,2.08l5.15,3.53-1.18,3.4s-9.82-3-10.36-3S186.6,331.5,186.6,331.5Z"/><polygon class="cls-11" points="188.48 321.83 191.32 321.81 193.63 317.19 191.4 313.58 197.78 305.62 207.87 300.22 202.29 312.77 200.98 322.34 188.04 333.58 187.47 328.56 188.48 321.83"/><polygon class="cls-11" points="172.48 321.63 169.64 321.54 167.45 316.86 169.77 313.31 163.59 305.19 153.64 299.55 158.9 312.23 159.97 321.83 172.71 333.69 173.32 328.39 172.48 321.63"/><polygon class="cls-11" points="177.69 316.17 175.51 317.5 173.36 320.89 186.21 322.05 187.33 319.67 185.91 317.55 183.26 315.08 177.69 316.17"/><polygon class="cls-11" points="177.56 309.81 177.3 308.67 179.86 307.45 185.32 310.2 184.74 311.06 185.91 317.55 183.02 316.51 180.9 317.35 179.12 316.63 175.51 317.5 179.06 313.29 177.57 310.89 177.56 309.81"/><polygon class="cls-22" points="172.34 319.47 171.36 325.49 172.71 333.69 180.31 340.8 188.04 333.58 189.65 325.69 188.51 319.34 184.11 320.56 180.54 318.46 176.28 320.57 172.34 319.47"/><path class="cls-23" d="M174.54,335.4l2.08,1.94.15-12.7-2.09,0-.14,10.79Zm4.65,4.35,1.12,1.05,1-.92.19-15.18-2.1,0-.19,15.08Zm4.74-2.33,2.12-2,.13-10.68-2.09,0Z"/><polygon class="cls-22" points="172.34 319.47 171.36 325.49 189.65 325.72 189.65 325.69 188.51 319.34 184.11 320.56 180.54 318.46 176.28 320.57 172.34 319.47"/><polygon class="cls-1" points="177.3 308.67 175.4 309.29 175.42 311.6 179.22 311 177.3 308.67"/><path class="cls-11" d="M180.82,289.44a3,3,0,1,1-3,3,3,3,0,0,1,3-3Zm-14.37,6.61a2.08,2.08,0,1,1-2.11,2.05,2.09,2.09,0,0,1,2.11-2.05Zm28.57.36a2.08,2.08,0,1,0,2,2.1,2.08,2.08,0,0,0-2-2.1Zm-6.08-3.85a2.55,2.55,0,1,0,2.51,2.57,2.54,2.54,0,0,0-2.51-2.57Zm-16.32-.21a2.55,2.55,0,1,1-2.57,2.52A2.55,2.55,0,0,1,172.62,292.35Z"/><polygon class="cls-9" points="155.19 330.1 156.22 337.9 162.27 339.82 160.44 334.02 155.19 330.1"/><polygon class="cls-9" points="204.78 328.77 204.18 336.62 198.24 338.86 199.76 332.98 204.78 328.77"/><path class="cls-7" d="M158.12,55.29a2.87,2.87,0,1,0-2.87-2.87A2.89,2.89,0,0,0,158.12,55.29Z"/><path class="cls-7" d="M189,55.29a2.87,2.87,0,1,0-2.88-2.87A2.88,2.88,0,0,0,189,55.29Z"/><polygon class="cls-8" points="169.36 51.55 176.68 51.55 176.23 47.16 170.91 46.7 169.36 51.55"/><polygon class="cls-6" points="206.71 48.66 245.27 46.7 244.63 51.08 206.47 54.07 206.71 48.66"/><polygon class="cls-8" points="168.11 47.8 164.34 62.72 166.56 61.64 171.45 46.7 168.11 47.8"/><polygon class="cls-8" points="178.56 47.8 175.86 47.13 177.7 61.72 180.45 63.05 178.56 47.8"/><polygon class="cls-13" points="235.96 205.58 250.92 206.09 250 215.37 235.04 214.86 235.96 205.58"/><polygon class="cls-5" points="243.69 205.84 235.96 205.58 235.44 210.88 243.17 211.15 243.69 205.84"/><polygon class="cls-24" points="243.69 205.84 250.92 206.09 250.79 207.41 243.56 207.17 243.69 205.84"/><polygon class="cls-24" points="243.3 209.82 250.53 210.06 250.66 208.74 243.43 208.49 243.3 209.82"/><polygon class="cls-24" points="235.3 212.21 250.26 212.72 250.39 211.39 235.44 210.88 235.3 212.21"/><polygon class="cls-24" points="235.04 214.86 250 215.37 250.13 214.04 235.17 213.53 235.04 214.86"/></svg>