<svg xmlns="http://www.w3.org/2000/svg" viewBox="0 0 1170 350"><defs><style>.a,.d{fill:#ececeb;}.a,.b,.l,.m,.n,.o,.p,.q{fill-rule:evenodd;}.a{opacity:0.3;}.a,.r{isolation:isolate;}.b,.f{fill:#cececd;}.c{fill:#dddddc;}.e{fill:#fff;}.g{fill:#a3a3a3;}.h{fill:#8f8f8f;}.i{fill:#c4c4c4;}.j{fill:#9da1a2;}.k{fill:#858686;}.l,.s{fill:#3f8f6f;}.af,.m{fill:#54b08b;}.ag,.n{fill:#738d57;}.ac,.o{fill:#99c26d;}.p,.y{fill:#b8c745;}.q,.x{fill:#d9e354;}.ah,.r,.v{fill:#2b2b2b;}.r{opacity:0.1;}.t{fill:#709d53;}.u{fill:#dfbda5;}.v{opacity:0.1;}.w{fill:#e8f078;}.z{fill:#c3987b;}.aa{fill:#8b6651;}.ab{fill:#e8cab6;}.ad{fill:#5a753d;}.ae{fill:#35785d;}</style></defs><title>infp-mediator-personality-header</title><path class="a" d="M-26-20H1194.7V378H-26Z"/><path class="b" d="M-15.5-22.5h1192V360H-15.5Z"/><path class="c" d="M-45,245l314-13,338,25,190-18,410.5,10.5L1218,164,1208,25,1031,78,662,51,330,88,93,47-49,76Z"/><path class="d" d="M-66,230l343-26,327,41,200.5-31.5L1213,231l25-174-203,43L674,64,329,118,125,81-64,97Z"/><path class="e" d="M-77,206l339-19,350,28,214-20,405,13,11-101-203,11L679,94,331,130,89,111-81,129Z"/><path class="d" d="M235.5,109.5,169,109l15.5,19.5L204,137l8.4-5.6L228,143l12.5,31.5-4,23.5,9.5,3.5,3.5-23,57-16.5,4.7-10.4,11.3,7.9,7-14.5L346,121.5ZM223,134l-4.6-4H229l10,1.8,1.5,8.7Zm23,34.5-4.5-15,7-4.5,1.2-15.2,3.8.7,5.9,9ZM304,158l-49.5,9.5,8.2-18.9,3.8,5.9,16-4,15.5-8,9.4,6.5Z"/><path class="d" d="M521.5,106.5l-26.5-6L339,119l23.5,16,12-4.5,8,8,1.1-.5,1.9,9L409,167.5,399.5,204l11,2.5L416,170l41-25,3-10.3,4.5-.2,6-7,15-3ZM413,157.5,390,143l-1.4-7.6,8.9-4.4,21.7,7.1Zm41-16L420,158l13.6-22.9,6.4-3.6,4,4,11.2-.5Z"/><circle class="d" cx="178.5" cy="160.5" r="20.5"/><path class="f" d="M-3.5,248,7,204,5,232.5l11.5-23,4.5,19v-40L28.5,220l13-41.5L70,163,46,181.5,39.5,224l8,13.5L55,211l-1,21,13-42-5.5,44L82,209.5l-6-27,12.5,30-13,19,17-6.5L97,205l2,28,10-52.5-2,32,6.5,21,1-41.5,3,34,15-24L126,223l7.5,11.5L141,205v19.5l10-41-3,37,12-16L156,221l19,10-1.5-27.5L180,227l5.5-41-10-16.5,15,16.5L189,226l7.5-21.5-1,27,10.5-15,2,11,7.5-30L229,180l-10.5,23,2.5,26,7-12.5,3,12.5,8.5-19.5L237,226l13-25.5,2.5,26.5,6-13.5-3-18.5,7,18-.5,12.5,9.5-12.5L270,224.5l8-14-.5,12.5,6.5-24.5,5.5,28,1-15,5,13.5,7.5-29v23.5L315.5,178l7-3.5-4.5,10v39L328.5,203,326,219.5l14-8.5-2.5,8.5s10.5-21.5,11-20,2,29,2,29l1,4.5,5.5-22.5,2.5,17,7-10.5,2.5,16.5,10.5-32-1.5,33,10-9-.5,9.5L399,214.5l1.5,20,2-35,13,30.5,1-23,6,20.5,3.5-12,5,22.5,10.5-24-.5,19,9.5-22.5-5-25.5,10,26.5-7,26.5L463,225l3.5,17.5,8-19,1,18.5,9-8-1.5,8.5,7.5-25,1,21,8.5-22,3.5,24.5,2.5-49,3.5,50,8-12v13l12-15L525,244.5l20.5-23-11,24,9.5-6,2,8,3.5-14.5,4.5,16V217l5.5,33,7.5-11,7,16.5,4.5-16,4,12L591,232v19.5l12-14-.5-17,8,17-6,13,13-12-1,8.5,9-20,1.5,24,8.5-26.5-.5,25,9-16L640,248l8.5-26,6.5,25.5-1-34L665,239l.5-20,4,12.5L674,218l9.5,28,11-28.5-4,28,12.5-13,.5,9,6-24.5,6,23.5.5-17,5,20.5,9-30.5-2,25,10.5-8.5L735,218l10,12.5,1.5,7L748,228l6,9-1-12,8.5,10.5L759,214l9,18.5,1.5-7L778,233l-4.5-24.5,11,24,4.5-12,2,15.5,10-16.5L811.5,237V226l7.5,10.5,2.5-13.5L832,233.5l1-14,4.5,15L839,225l11,12-3-18.5,10.5,16L860,223l3,13.5,7.5-26.5,9-5.5-6,9-.5,24,5-11.5,2,8.5,3-12.5,7.5,14,2-8,6,6.5.5-9.5,6,11,7-9.5.5,9,7-9L928,240l-.5-14.5,10,14L940,228l6.5,11.5.5-13,2.5,7,8-6,8,12L968,232l4.5,5.5-4-16.5,12,17,2.5-11,3.5,11.5,2-26,2,26,9-20,.5-12.5,3.5,13-2,19,4-7,7,11.5-1-14.5,5,10,2-10,6,12.5,10-9.5-4.5,10.5,12-8.5,4.5,9,2-13,6,15,2.5-29.5,1.5,24.5,5-17.5L1065,236l7.5-5.5-2,12.5,12-23-5,23.5,9.5-11-1-12,5.5,12.5-3.5,9,12-11-1.5,9.5,6.5-20,1,20,4-11-2-8,6,7.5,4.5,16,2-13.5,3,9.5-1.5-19,8,21,1-9.5,7.5,9.5,4.5-9.5,1.5,9,5.5-19,2.5,20.5,3-9.5,2,9,5-31,2.5,32,10-20.5-3,17.5,18-9.5-3.5,11.5H1200l.5,25,1.5,34-1223.5-8,7.5-49Z"/><path class="d" d="M667,76.5l-60.9,12H600l.1,1.2-29.6,5.8,22.5,25,8.7-3.3L603,140l35.5,36,3,46.5,14-1-5-46,35-19.5,59-32,5-5.6,7,2.1,23.5-5L787.5,88Zm-24.5,92L609,137l.6-19.9,3.4.4,7.5-6.5L645,121.5l6.5-16.5,7.3.4.2,16.1Zm9.5-4,17-39,3.4-19.2,12.1.7,8-3.5,8.8,5.8L695,141Zm90.5-45-41.5,20,8.6-24.8,5.9,3.8,4.5-9,24.2,7.3ZM152,100l-29.5-4.5-26.2.4L77,87.5-6,107l.5,8L7,129.5l10.6-3,13.9,4,13,5,7-3.5L78,175l-7.5,32.5,13.5,1L86.5,180l4.2-11.5,26.8-19,17.3-22.1,11.2-1.9,13.5-8.5,22-10.5ZM59,128.5,69.5,122l13.7,2,.3,2.5L78,164Zm55,17L94.2,157.9l2.3-23.4,25-9.5,6.5,1.1Zm895-41-153.5-15-25.8,3.8-.2-.8H822l.7,1.8L791,99l12,23.5,29-3.1,14.5,39.1L878,174l-8.5,29.5,10.5-1,9-27.5,46.5-18.5,11.3-30.4,11.2.4ZM847.5,153l-10.2-34.1,3.7-.4,15,8,5.9-3.6L873,160.5Zm30,8-10-41.5,5-3,25.3,8-4.8,12ZM933,151l-44.5,11.5L899,141l13.8-11.7,11.7,3.7,4-7.5,12.9.4Z"/><path class="d" d="M1179,112.5l7-9.5-11.5-16L1021,106.5l-16.6.3.1-1.8-5.5-2-.1,3.8-27.4.4-1.5-1.8-4.2,1.9-9.3.1,2,1,17,17,4.3-1.2L995,141l24.5,39,31,3.5,10,25.5,19.5-.5L1062,179l9-15.5,28-3,33.4-25,18.6-.5,3.5-13.5,5.3-6.5ZM984.7,122.8l2.8-.8,10.9,3.2-.4,13.3Zm35.8,47.2-17-32,.3-11.1,10.7,12.6,14.5-4,13-5.7-6.5,17.7,12,22.5Zm38-4.5-9-19,10.7-13.3,9.8,1.8,7.5-9,10.6,1.7L1086,129ZM1096,156l-22-3,16.5-21.5,5-2.6,19,3.1,6-8.5,7.5,3,1.8,3.6Z"/><path class="g" d="M949.3,144.7l-16.5,26.9L962,150.9Z"/><path class="h" d="M983.7,194.6l-2.2,40.7-13.7-42Z"/><path class="g" d="M940.8,272l25.6-86.2,17.3,8.8L944.3,272Z"/><path class="i" d="M931.7,271.5l17.6-126.8,18.1-3.1L934.7,271.9l-3-.4Z"/><path class="g" d="M933.6,272l-7.1-110.1-11,4.9L929.6,272Z"/><path class="i" d="M915.5,166.8,893.8,146l32.7,15.9-11,4.9Z"/><path class="h" d="M902.9,215.4l1.4,29.7,8.6-30.7Z"/><path class="g" d="M929.9,272l-16.2-63.1-10.8,6.5L927.6,272ZM678,266l-5.5-46-17,11,18,35Z"/><path class="h" d="M631.5,220.4l3.5,32.5,7-31Z"/><path class="g" d="M667.5,265.9l-25-50-11,4.5L664,265.9Z"/><path class="i" d="M655.5,231l-.5,19,17.5-30Z"/><path class="g" d="M706.5,176.5l4,28.5-14-25.5Z"/><path class="i" d="M678,266l18.5-96.5,10,7-26.2,89.4Z"/><path class="g" d="M681.5,265.9l15.5-35-1.5,21.5L684,265.9Zm360.5-2.4-8-44.5-8-21,12.5,19.5,7,46Zm3.5,0-3-51,12,2.5-5.1,48.4Z"/><path class="i" d="M1042.5,212.5l17-30.5-5,33Z"/><path class="g" d="M1090,200.5l4.5,38.5L1082,199Z"/><path class="i" d="M1049.5,263l31.5-69,9,6.5L1052.5,263Z"/><path class="g" d="M1040.4,263.5l-16.2-45.9-6,3,20.1,42.8Z"/><path class="i" d="M1018.2,220.6l-1,29.5,7-32.5-6,3Zm36.6,42.2,15.7-20.8,12-9-25.4,29.8Z"/><path class="g" d="M1036.4,263.1l-11.3-17.7,3.4,9.3,5.6,8.3Zm40.9-.3,7.8-17.2,6.4-3.5L1080,262.9l-2.7-.1Zm-.6-.1.4-14.8-2.3,14.9Zm4.4.1,7.8-11.9,4.5.4-10.7,11.4-1.6.1Z"/><path class="i" d="M1088.9,250.9l4,6.8.5-6.4Z"/><path class="g" d="M1136.4,223.6l-4.8,18.8,10.3-18.9-5.5.1Z"/><path class="i" d="M1151.6,260.1l-9-39.2-6.2,2.7,13.1,36.5Z"/><path class="g" d="M1152.4,259.9l-8.2-54.4,7.1-3.4,2.3,57.8Z"/><path class="i" d="M1144.2,205.5,1129.4,191l21.9,11.1Z"/><path class="g" d="M1154.1,259.7l4.7-32.5,7.2,2.8-10.2,29.8Z"/><path class="i" d="M1158.8,227.2l11.2-11-4,13.8Z"/><path class="g" d="M1146.3,259.5l-4.8-13.2.2,5.9,2.9,7.2,1.7.1Zm-3.2-.2-4.5-5.5,1.9,5.5ZM246.5,221.2l7.4,23.1-16-23.2,8.6.1Z"/><path class="i" d="M222.8,266.1l14.1-48.2,9.6,3.3L226,266.1Z"/><path class="g" d="M221.6,265.9l12.8-67-11.2-4.2-3.6,71.2Z"/><path class="i" d="M234.4,198.9,257.5,181l-34.3,13.7Z"/><path class="g" d="M218.9,265.6l-7.5-40-11.2,3.5,16,36.7Z"/><path class="i" d="M211.4,225.6,194,212.1l6.2,17Z"/><path class="g" d="M231,265.4l7.5-16.3-.2,7.3-4.6,8.8Zm5-.3,7.1-6.8-3,6.8Zm-95.9-15.6,3.6-29.8,11.3,7.1-11.9,22.7Z"/><path class="h" d="M170.9,219.9,168.6,241,164,220.9l6.9-1Z"/><path class="g" d="M147,249.4,163.6,217l7.3,2.9-21.5,29.5Z"/><path class="i" d="M155,226.8l.4,12.3-11.7-19.4,11.3,7.1Z"/><path class="g" d="M121.2,191.4l-2.7,18.5,9.3-16.5Z"/><path class="i" d="M140.1,249.5l-12.3-62.6-6.6,4.5,17.3,58Z"/><path class="g" d="M137.8,249.4l-10.3-22.7,1,14,7.6,8.7Zm-46.4-1.7-7.8-24.6-6.4-5,11.5,29.8Zm.6-.1-.5-21.2,2.4,21.3Zm-4.4.1-7.8-16.9-4.5.5L86,247.6l1.6.1Z"/><path class="i" d="M79.8,230.8l-4,9.6-.5-9.1Z"/><path class="g" d="M9.4,156.7l12.5,22.8-22-17.6Zm6.5,107.8-19.4-73-13,7.5,29.7,65.5Z"/><path class="i" d="M22.8,264.1,9.4,156.7l-13.6-2.6L20.4,264.5Z"/><path class="g" d="M21.3,264.5l5.4-93.2,8.3,4.1L24.3,264.5Z"/><path class="i" d="M35,175.4l16.4-17.5L26.7,171.3Z"/><path class="h" d="M44.5,216.5l-1.1,25.3-6.5-26.1Z"/><path class="g" d="M24.1,264.5l12.2-53.4,8.2,5.4-18.7,48Z"/><path class="i" d="M615.5,97.8,646,43.2l15-11.8,12.5-2.3-55,77.7Z"/><path class="h" d="M617.5,92.8,633,42.7,650.5,35,616,99.6Zm-65,22.7,66-8.7-69,14.1Z"/><path class="g" d="M556.5,109.6l61-16.8,1,14-66,8.7ZM524,159.1l-2.5-54.5,11.5-3.2ZM501.5,270.5l7.5-34.1,18.5-54.1-1,88.2Z"/><path class="i" d="M527.5,182.3l22-77.3L533,101.4l-24,135,18.5-54.1Z"/><path class="g" d="M527.5,182.3l22-77.3,7,4.6L531,269.6l-4.5.9Z"/><path class="g" d="M533,101.4l73.5-64.1,18.5-.5L549.5,105Z"/><path class="i" d="M521.5,104.6l65-77.8,20,10.5L533,101.4Z"/><path class="h" d="M549.5,105,625,36.8l19-4.5-87.5,77.3Z"/><path class="g" d="M556.5,109.6,644,32.3l17-.9Z"/><path class="h" d="M413-20.9,431,7.7l25.5-1.3,24,39,40-1.8L529,55.5l46-15,14,12.2,27,3.8,2.5-11.6,25,3.3,12-8.2,49,10.9,13-22.7L774,26.4l49-43.2Z"/><path class="g" d="M431-25l2,26.4L462.5,0,490,28l35-1.2L536,40l40.5-15.9L598,45l12.5-9.5L653,28.6l36.5,9.6,1-15.5L761,19.1l46.5-37.7Z"/><path class="i" d="M450-25l4,13.6,23,5.5,12,29.5,34-8.1,16.5,7.2,38.5-5,26,8.2,29-9.5,41.5,7.7,11-6.8,66-15,16-25.5Z"/><path class="g" d="M340.7,70.6,374,8.5l4,13.7L343.4,74.8l-2.7-4.2Z"/><path class="g" d="M336.5,64.1l24-61.3L374,8.5,340.7,70.6Z"/><path class="j" d="M334.5,140.1l2,8.9L319,275.9l-8-4.3Z"/><path class="i" d="M342.5,166.5l-5.9-19.6L319,275.9l13-.5Z"/><path class="g" d="M332,275.4l10.5-108.9L349,276.3Z"/><path class="h" d="M342.5,166.5,310,65.6l10.5-.5L343,150Z"/><path class="i" d="M343,150l9-5.7,6,131.6-9,.4-6.5-109.8L343,150Z"/><path class="g" d="M343,150,329,97.6l7.5-33.5L352,144.3l-9,5.7Z"/><path class="g" d="M329,97.6l-8.5-32.5,4-14.2,12,13.2Z"/><path class="j" d="M352,144.3l8.5,7.5,2,121.2-4.5,2.9-6-131.6Z"/><path class="i" d="M352,144.3,336.5,64.1,347,79.2l13.5,72.6-8.5-7.5Z"/><path class="g" d="M320.5,65.1,273,19.8,262,42l48,23.6Z"/><path class="g" d="M320.5,65.1,273,19.8l16,4.3Z"/><path class="h" d="M320.5,65.1,289,24.1l6-8.5,29.5,35.3Z"/><path class="h" d="M343.1,74.8,378,22.2l2,7-33,50Z"/><path class="h" d="M334,25.9l-33,5.5L290,47.8,252,66l-12.5-6L193,84.9,164.5,47.8,149,53.9,117,21.6l-13,6.7-46-40,516.5-1.5-63,50.7L486,31.4,456.5,50.2l-43-18.8L381,52,361.5,33.2,348,44.8Z"/><path class="g" d="M75-11.7l25,30.1,33.5-4.2,24,25.9L177,34.4l32,25.5,17.5-22.2L256,53.3l23.5-14.2L290,16l50,1.9,13,10.9,25-6.6L391,34l27-18.9,37.5,18.4,31-11.8,24,2.8,53-36.2Z"/><path class="i" d="M139.5.9l21,19.9L186,22.2l12.5,13.6L228,22.2l28.5,6.6,30-22.7L340,1.9l17,14.6,17-.9,15.5,5.2,34-15.6,29,15.6L476,14.2l16.5.9,39-27.3L116-13.7Z"/><path class="h" d="M816-4.7,888.5,96.6l-8,12.3L805.5-4.7Zm74.5,81.2L842-3.2,825-4.7l62,95.1Z"/><path class="k" d="M921.5,88.8,1098-3.7l17.5-1-198,105.9Z"/><path class="j" d="M925.5,81.1,1072-2.7l26-1L921.5,88.8Z"/><path class="j" d="M931.5,276l-31-99.2-5,16.4,21,83.3Z"/><path class="j" d="M916.5,276.5l-21-83.3L892,204l7.5,69.9Z"/><path class="i" d="M931.5,276l8.5-3.1L903.5,159.3l-3,17.5Z"/><path class="j" d="M900.5,176.8l3.5-73,13.5-2.6-14,60.1Z"/><path class="i" d="M900.5,176.8l3.5-73L891.5,75l4,118.2Z"/><path class="j" d="M895.5,193.2,891.5,75l-5,90.5L892,204Z"/><path class="k" d="M904,103.8l4-52.5,24.5-40.6L947,6.1Z"/><path class="h" d="M904,103.8,947,6.1l23.5-2.6-53,97.7Z"/><path class="j" d="M891.5,75l-11,33.9,6,56.6Zm0,0,16-21.6L904,103.8Z"/><path class="h" d="M917.5,101.2,1128-5.8l-12.5,1.1Z"/><path class="g" d="M887,90.4,825-4.7h-9L886,95Z"/><path class="h" d="M682.5-27.9,697,14.8l38,3.1,26.5,13.9L774,28.7l10.5,15.9L832,17.9l29.5,1L875,30.2l21.5-17.4,36,27.2L968,22l7.5-10.3L995,21V35.9l53.5,7.7,9-32.9,38,16.5,79-28.7L1189-25.8Z"/><path class="g" d="M689.5-30.4l16,36,35.5,1,18.5,13.9,14-4.7L792,24.6,835.5,5l28,7.2L874,19.4,891.5,6.1,918,17.9l24-9.8,17.5,9.8L977,5.6l27,6.1,4.5,14.9L1039,37.9l5.5-34.4,46.5,9.8L1153.5.9,1165-33Z"/><path class="i" d="M742.5-6.3l15,15.5,18-3.6,14,10.8,37-19.1,40,8.8,18-8.8,30,13.9,20-8.2,22,5.1,20-8.7L1012,5.6l5,11.8,12.5,9.8L1040-4.2l49,8.7,41-8.7,7.5-25.2L693-29.9Z"/><path class="l" d="M387.8,132.4l2.5-23.2,12,15.3Z"/><path class="m" d="M402.3,124.5,417.4,113l-2.5,22.6Z"/><path class="n" d="M390.8,139l11.5-14.5.3,6.4-1.9,5.1Z"/><path class="o" d="M402.3,124.5l7.6,16.7-9.2-5.2Z"/><path class="l" d="M433.8,87.3,422.9,75.2l13.6.9Z"/><path class="m" d="M436.5,76.1l1-13.2L448,74.7Z"/><path class="n" d="M438.6,88.8l-2.1-12.7,3.4,2.8,1.8,3.4-3.1,6.5Z"/><path class="o" d="M436.5,76.1l12.2,3.8-7,2.4Z"/><path class="l" d="M160.2,121.8l11-12.1-13.6.9Z"/><path class="m" d="M157.6,110.6l-1-13.2L146,109.2Z"/><path class="n" d="M155.4,123.3l2.2-12.7-3.4,2.8-1.8,3.4Z"/><path class="o" d="M157.6,110.6l-12.2,3.8,7,2.4Z"/><path class="l" d="M233.4,98.8l-11.2-6.1,3.2,10.1Z"/><path class="m" d="M225.4,102.8l-9.9,3.3,11,5.8Z"/><path class="n" d="M235.4,102.1l-10,.7,2.8,2.2,2.9.7Z"/><path class="o" d="M225.4,102.8l5.1,8.6.6-5.7-5.7-2.9Z"/><path class="l" d="M991.5,110.5l9.5-8.6-10.7-.4Z"/><path class="m" d="M990.3,101.5l.2-10.3-9.1,8.3,8.9,2Z"/><path class="n" d="M987.6,111.2l2.7-9.7-2.9,1.9-1.6,2.5Z"/><path class="o" d="M990.3,101.5l-9.8,2,5.3,2.4Z"/><path class="l" d="M1074.1,131.4l4.5-16.1-12.1,7Z"/><path class="m" d="M1066.5,122.3l-7-11.6-4.3,15.6Z"/><path class="n" d="M1070.3,135l-3.8-12.7-1.9,4.2-.1,3.9Z"/><path class="o" d="M1066.5,122.3l-9.5,9.1,7.5-1Z"/><path class="p" d="M318.5,110.5l.5,19L304.5,110Z"/><path class="q" d="M289.1,131.9,300.5,103l18,7.5Zm0,0,37.8-9.7L316.4,137Z"/><path class="p" d="M326.9,122.2,321,156.5,316.4,137Z"/><path class="q" d="M289.1,131.9l15.4,9.1-19,5.5Z"/><path class="p" d="M304.5,141v22.5l-19-17Z"/><path class="q" d="M289.1,131.9,279,144.5,270.5,128Z"/><path class="p" d="M270.5,128,264,169.5l15-25Z"/><path class="q" d="M289.1,131.9l-3.6-25.4L271,119Z"/><path class="p" d="M285.5,106.5,255,114l16,5Zm329.7,84.2.5,19-14.5-19.5Z"/><path class="q" d="M585.7,212.1l11.5-28.9,18,7.5Zm0,0,37.9-9.7-10.5,14.8Z"/><path class="p" d="M623.6,202.4l-5.9,34.3-4.6-19.5Z"/><path class="q" d="M585.7,212.1l15.5,9.1-19,5.5Z"/><path class="p" d="M601.2,221.2v22.5l-19-17Z"/><path class="q" d="M585.7,212.1l-10,12.6-8.5-16.5Z"/><path class="p" d="M567.2,208.2l-6.5,41.5,15-25Z"/><path class="q" d="M585.7,212.1l-3.5-25.4-14.5,12.5Z"/><path class="p" d="M582.2,186.7l-30.5,7.5,16,5Z"/><path class="p" d="M354.9,187l8.1-15.4,7,10.7Z"/><path class="q" d="M354.9,187l15.4,3.1-5.1,9.7Z"/><path class="p" d="M354.9,187l4.6,17.8-12-.7Z"/><path class="q" d="M354.9,187l-16.1-1.6,3,12Z"/><path class="p" d="M354.9,187l-3.8-17.4-10.2,7.3,14,10.1Z"/><path class="p" d="M566.2,132l11.6-12.9,4.2,12.1Z"/><path class="q" d="M566.2,132l14.2,6.7-7.3,8.3Z"/><path class="p" d="M566.2,132l.2,18.4L555,146.8,566.2,132Z"/><path class="q" d="M566.2,132,551,126.6v12.3Z"/><path class="p" d="M566.2,132l.5-17.8L555,118.9Z"/><path class="p" d="M457.7,246.9l7.6-15.6,7.4,10.5Z"/><path class="q" d="M457.7,246.9l15.4,2.7-4.7,9.8-10.7-12.5Z"/><path class="p" d="M457.7,246.9l5.1,17.7-12-.4,6.9-17.3Z"/><path class="q" d="M457.7,246.9l-16.1-1.1,3.2,11.9,12.9-10.8Z"/><path class="p" d="M457.7,246.9l-4.4-17.3-9.9,7.7Z"/><path class="r" d="M898,334.5l9.3-1,8.3,1.9-9.9,1.5-7.7-2.4Z"/><path class="h" d="M908.3,328.9l-2.3,6.7-2-7.5Z"/><path class="g" d="M897.1,324.4l10.8-2.5,9.7,4.8L906,330.6l-8.9-6.2Z"/><path class="d" d="M903.1,325.4l4.6-1,3.1,1.6-5,.9-2.7-1.5Z"/><path class="r" d="M940.9,293.7l-9.2-1-8.4,1.9,10,1.5,7.6-2.4Z"/><path class="h" d="M930.7,288.1l2.3,6.8,2-7.6-4.3.8Z"/><path class="g" d="M941.9,283.6l-10.8-2.5-9.7,4.9,11.6,3.8,8.9-6.2Z"/><path class="d" d="M935.9,284.6l-4.6-1-3.1,1.6,5,1,2.7-1.6Z"/><path class="r" d="M973.2,315l-9.2-2-8.4,1,9.7,2.6Z"/><path class="h" d="M963.6,308.3l1.6,7,2.7-7.3Z"/><path class="g" d="M975.2,305.1l-10.5-3.7-10.1,3.8,11.1,5.1,9.5-5.2Z"/><path class="d" d="M969.2,305.4l-4.5-1.4-3.3,1.2,4.9,1.5,2.9-1.3Z"/><path class="r" d="M1091.3,322.5l-7.2-1.5-6.7.8,7.7,2Z"/><path class="h" d="M1083.7,317.3l1.2,5.5,2.2-5.8-3.4.3Z"/><path class="g" d="M1092.9,314.7l-8.3-2.9-8,3,8.8,4Z"/><path class="d" d="M1088.1,315l-3.6-1.2-2.5,1,3.8,1.2,2.3-1Z"/><path class="r" d="M1037.1,342.1l-7.2-1.6-6.7.8,7.7,2.1Z"/><path class="h" d="M1029.5,336.8l1.2,5.5,2.2-5.7-3.4.2Z"/><path class="g" d="M1038.7,334.3l-8.3-2.9-8,3,8.8,4Z"/><path class="d" d="M1033.9,334.5l-3.6-1.1-2.5.9,3.8,1.2,2.3-1Z"/><path class="r" d="M1069.3,298l-9.3-1-8.3,1.9,10,1.5,7.6-2.4Z"/><path class="h" d="M1059.1,292.4l2.3,6.7,2-7.5Z"/><path class="g" d="M1070.3,287.9l-10.8-2.5-9.7,4.8,11.6,3.9,8.9-6.2Z"/><path class="d" d="M1064.3,288.9l-4.6-1-3.1,1.6,5,.9Z"/><path class="r" d="M1137.2,331.2l-9.3-1-8.3,1.9,10,1.5,7.6-2.4Z"/><path class="h" d="M1127,325.6l2.3,6.8,1.9-7.6-4.2.8Z"/><path class="g" d="M1138.2,321.1l-10.8-2.5-9.7,4.9,11.6,3.8,8.9-6.2Z"/><path class="d" d="M1132.2,322.1l-4.7-1-3,1.6,5,1Z"/><path class="r" d="M1153.5,293.1l-9.3-1-8.3,1.9,10,1.5,7.6-2.4Z"/><path class="h" d="M1143.3,287.4l2.3,6.8,2-7.5Z"/><path class="g" d="M1154.5,283l-10.8-2.5-9.7,4.8,11.6,3.9,8.9-6.2Z"/><path class="d" d="M1148.5,284l-4.6-1-3.1,1.5,5,1Z"/><path class="r" d="M863.6,307.5l-7.8-1.7-7.2.8,8.3,2.2Z"/><path class="h" d="M855.4,301.7l1.4,6,2.3-6.2Z"/><path class="g" d="M865.4,299l-9-3.2-8.7,3.2,9.5,4.4Z"/><path class="d" d="M860.2,299.2l-3.9-1.2-2.7,1,4.2,1.3,2.4-1.1Z"/><path class="r" d="M740.7,324.5l9.3-1,8.3,1.9-9.9,1.5-7.7-2.4Z"/><path class="h" d="M751,318.8l-2.3,6.8-2-7.5Z"/><path class="g" d="M739.8,314.4l10.8-2.5,9.7,4.8-11.6,3.9-8.9-6.2Z"/><path class="d" d="M745.8,315.4l4.6-1,3.1,1.5-5,1-2.7-1.5Z"/><path class="r" d="M661.7,340.7l9.3-1,8.3,1.9-9.9,1.5-7.7-2.4Z"/><path class="h" d="M672,335.1l-2.3,6.8-2-7.6,4.3.8Z"/><path class="g" d="M660.8,330.6l10.8-2.5,9.7,4.9-11.6,3.8-8.9-6.2Z"/><path class="d" d="M666.8,331.6l4.6-1,3.1,1.6-5,1-2.7-1.6Z"/><path class="r" d="M781.9,293.7,774,292l-7.2.9,8.3,2.2,6.8-1.4Z"/><path class="h" d="M773.7,288l1.3,5.9,2.4-6.2-3.7.3Z"/><path class="g" d="M783.6,285.2l-9-3.1-8.7,3.2,9.6,4.4,8.1-4.5Z"/><path class="d" d="M778.4,285.5l-3.8-1.3-2.8,1.1,4.2,1.3,2.4-1.1Z"/><path class="r" d="M588.8,339.6l9.3-1,8.3,1.9-10,1.5Z"/><path class="h" d="M599,333.9l-2.3,6.8-2-7.5Z"/><path class="g" d="M587.8,329.5l10.8-2.5,9.7,4.8-11.6,3.9-8.9-6.2Z"/><path class="d" d="M593.8,330.5l4.6-1,3.1,1.5-5,1-2.7-1.5Z"/><path class="r" d="M608.5,319.1l9.3-1,8.3,1.9-10,1.6Z"/><path class="h" d="M618.8,313.5l-2.4,6.8-1.9-7.6,4.3.8Z"/><path class="g" d="M607.5,309l10.9-2.5,9.6,4.9-11.6,3.8-8.9-6.2Z"/><path class="d" d="M613.5,310l4.7-1,3.1,1.6-5.1,1Z"/><path class="r" d="M521.2,296.5l9.3-1,8.3,1.9-9.9,1.5-7.7-2.4Z"/><path class="h" d="M531.5,290.8l-2.3,6.8-2-7.5Z"/><path class="g" d="M520.3,286.4l10.8-2.5,9.7,4.8-11.6,3.9-8.9-6.2Z"/><path class="d" d="M526.3,287.4l4.6-1,3.1,1.5-5,1-2.7-1.5Z"/><path class="r" d="M514.6,336.5l-7.9-1.7-7.2.8,8.3,2.2Z"/><path class="h" d="M506.4,330.7l1.3,6,2.4-6.2-3.7.2Z"/><path class="g" d="M516.3,328l-9-3.2-8.6,3.3,9.5,4.3,8.1-4.4Z"/><path class="d" d="M511.1,328.2l-3.8-1.2-2.8,1,4.2,1.3,2.4-1.1Z"/><path class="r" d="M497.5,320.4l-7.9-1.7-7.2.9,8.3,2.2,6.8-1.4Z"/><path class="h" d="M489.2,314.7l1.4,6,2.3-6.3-3.7.3Z"/><path class="g" d="M499.2,311.9l-9-3.1-8.7,3.2,9.6,4.4Z"/><path class="d" d="M494,312.2l-3.9-1.3-2.7,1.1,4.2,1.3Z"/><path class="r" d="M399.2,341.4l-8.5-1.8-7.8.8,9,2.3Z"/><path class="h" d="M390.3,335.6l1.5,6,2.5-6.2Z"/><path class="g" d="M401,332.9l-9.7-3.2-9.4,3.2,10.3,4.4,8.8-4.4Z"/><path class="d" d="M395.4,333.2l-4.2-1.3-3,1,4.6,1.3Z"/><path class="r" d="M352.9,311.1l-7-1.6-6.6.9,7.6,2.1Z"/><path class="h" d="M345.6,305.4l1.2,6,2.1-6.3-3.3.3Z"/><path class="g" d="M354.6,302.6l-8.1-3.1-7.8,3.4,8.5,4.2Z"/><path class="d" d="M349.9,302.9l-3.4-1.2-2.6,1.1,3.8,1.2Z"/><path class="r" d="M416.6,283.7l-7.8-1.7-7.3.8,8.4,2.2,6.7-1.3Z"/><path class="h" d="M408.4,277.9l1.3,6,2.4-6.2-3.7.2Z"/><path class="g" d="M418.3,275.2l-8.9-3.2-8.7,3.2,9.5,4.4Z"/><path class="d" d="M413.1,275.4l-3.8-1.2-2.8,1,4.2,1.3,2.4-1.1Z"/><path class="r" d="M230.3,333.4l-8.6-2-8,1.1,9.2,2.5,7.4-1.6Z"/><path class="h" d="M221.3,326.7l1.5,7,2.6-7.3Z"/><path class="g" d="M232.3,323.4l-9.9-3.5-9.5,3.8,10.4,5Z"/><path class="d" d="M226.6,323.8l-4.3-1.4-3,1.2,4.6,1.5,2.7-1.3Z"/><path class="r" d="M187.2,298l9.3-.9,8.3,1.9-10,1.5Z"/><path class="h" d="M197.4,292.4l-2.3,6.8-2-7.6,4.3.8Z"/><path class="g" d="M186.2,288l10.8-2.5,9.7,4.8-11.6,3.9-8.9-6.2Z"/><path class="d" d="M192.2,288.9l4.6-.9,3.1,1.5-5,1-2.7-1.6Z"/><path class="r" d="M166.6,327.2l8.2-.8,7.3,1.6-8.8,1.4Z"/><path class="h" d="M175.6,322.3l-2,5.9-1.7-6.6Z"/><path class="g" d="M165.8,318.4l9.5-2.2,8.5,4.2-10.2,3.4Z"/><path class="d" d="M171,319.2l4.1-.8,2.7,1.4-4.4.8-2.4-1.4Z"/><path class="r" d="M40.8,308.2l9-1,7.9,1.9-9.5,1.6Z"/><path class="h" d="M50.7,302.6l-2.3,6.8-1.8-7.6,4.1.8Z"/><path class="g" d="M39.9,298.1l10.4-2.5,9.3,4.8-11.2,3.9-8.5-6.2Z"/><path class="d" d="M45.6,299.1l4.5-1,3,1.5-4.9,1Z"/><path class="r" d="M31,330.3l-7.6-1.6-7,.8,8.1,2.2Z"/><path class="h" d="M23,324.8l1.4,5.8,2.2-6.1-3.6.3Z"/><path class="g" d="M32.7,322.1l-8.7-3-8.4,3.1,9.2,4.2,7.9-4.3Z"/><path class="d" d="M27.7,322.4l-3.8-1.2-2.7,1,4.1,1.2Z"/><path class="r" d="M133.2,337.4l-7.7-.9-6.9,1.5,8.2,1.4Z"/><path class="h" d="M124.7,332.7l1.9,5.6,1.7-6.2Z"/><path class="g" d="M134.1,329.1l-9-2.2-8.1,3.9,9.6,3.3,7.5-5Z"/><path class="d" d="M129.1,329.8l-3.8-.8-2.6,1.2,4.1.9,2.3-1.3Z"/><path class="r" d="M28.8,283.8l-7.7-.9-6.9,1.4,8.3,1.4Z"/><path class="h" d="M20.4,279l1.8,5.6,1.7-6.2Z"/><path class="g" d="M29.7,275.5l-8.9-2.2-8.1,3.9,9.6,3.3,7.4-5Z"/><path class="d" d="M24.7,276.2l-3.8-.9-2.6,1.3,4.2.8,2.2-1.2Z"/><path class="r" d="M149.8,291.7l-6.6-.8-6,1.3,7.1,1.2Z"/><path class="h" d="M142.5,287.6l1.6,4.8,1.5-5.3Z"/><path class="g" d="M150.6,284.5l-7.7-1.9-7,3.4,8.3,2.8Z"/><path class="d" d="M146.3,285.1l-3.3-.7-2.2,1.1,3.6.7Z"/><path class="r" d="M238.2,311.1l-6.2-1.4-5.7.8,6.6,1.8,5.3-1.2Z"/><path class="h" d="M231.7,306.3l1.1,5.1,1.9-5.3-3,.2Z"/><path class="g" d="M239.7,304l-7.2-2.6-6.9,2.7,7.6,3.7,6.5-3.8Z"/><path class="d" d="M235.5,304.2l-3-1-2.2.9,3.3,1Z"/><path class="r" d="M296.2,291.6l-6.2-1.4-5.7.8,6.6,1.8,5.3-1.2Z"/><path class="h" d="M289.7,286.8l1.1,5,1.9-5.2Z"/><path class="g" d="M297.7,284.4l-7.2-2.5-6.9,2.7,7.6,3.6,6.5-3.8Z"/><path class="d" d="M293.5,284.7l-3-1-2.2.9,3.3,1,1.9-.9Z"/><path class="r" d="M272.8,298.4l-7.1-1.6-6.5.9,7.5,2.1Z"/><path class="h" d="M265.4,292.7l1.2,6,2.2-6.3-3.4.3Z"/><path class="g" d="M274.5,289.9l-8.1-3.1-7.9,3.3,8.5,4.3,7.5-4.5Z"/><path class="d" d="M269.8,290.2l-3.5-1.2-2.5,1,3.7,1.3,2.3-1.1Z"/><path class="r" d="M295.2,342.6l-7-1.7-6.6,1,7.5,2.1Z"/><path class="h" d="M287.9,336.9l1.1,6,2.2-6.3-3.3.3Z"/><path class="g" d="M296.9,334l-8.1-3-7.9,3.3,8.6,4.3,7.4-4.6Z"/><path class="d" d="M292.2,334.4l-3.5-1.2-2.5,1,3.8,1.3,2.2-1.1Z"/><path class="r" d="M370.4,328.6l-8.6-1.9-7.9,1,9.1,2.6Z"/><path class="h" d="M361.5,322l1.4,6.9,2.6-7.3Z"/><path class="g" d="M372.4,318.7l-9.8-3.6-9.6,3.8,10.4,5,9-5.2Z"/><path class="d" d="M366.7,319.1l-4.2-1.5-3.1,1.2,4.6,1.5Z"/><path class="r" d="M570.3,314.2l-7.8-1.7-7.2.8,8.3,2.2Z"/><path class="h" d="M562.1,308.4l1.4,6,2.3-6.2Z"/><path class="g" d="M572.1,305.7l-9-3.2-8.7,3.2,9.5,4.4Z"/><path class="d" d="M566.9,305.9l-3.9-1.2-2.7,1,4.2,1.3,2.4-1.1Z"/><path class="r" d="M599.8,288.1l9.3-1,8.3,1.9-9.9,1.6-7.7-2.5Z"/><path class="h" d="M610.1,282.5l-2.3,6.8-2-7.6,4.3.8Z"/><path class="g" d="M598.9,278l10.8-2.5,9.7,4.9-11.6,3.8-8.9-6.2Z"/><path class="d" d="M604.9,279l4.6-1,3.1,1.6-5,1-2.7-1.6Z"/><path class="r" d="M645.1,285.2l6.8-1.3,6.2.8-7.2,1.8Z"/><path class="h" d="M652.3,280.4l-1.3,5.1-1.9-5.4Z"/><path class="g" d="M643.7,277.9l7.8-2.6,7.4,2.9-8.2,3.6Z"/><path class="d" d="M648.2,278.2l3.3-1,2.4.9-3.6,1-2.1-.9Z"/><path class="r" d="M103.1,315.7l9-1,8,1.9-9.6,1.5Z"/><path class="h" d="M113,310l-2.2,6.8-1.9-7.6,4.1.8Z"/><path class="g" d="M102.2,305.5l10.4-2.5,9.3,4.9-11.1,3.9Z"/><path class="d" d="M108,306.5l4.4-1,3,1.6-4.8,1Z"/><path class="r" d="M69,320.5l-7.6-1.6-7.1.8,8.1,2.2Z"/><path class="h" d="M61,315l1.3,5.8,2.3-6.1L61,315Z"/><path class="g" d="M70.7,312.3l-8.8-3-8.4,3.1,9.3,4.2,7.9-4.3Z"/><path class="d" d="M65.6,312.6l-3.7-1.2-2.7,1,4.1,1.2Z"/><path class="r" d="M91.2,291.2l-7.8-.9-6.9,1.5,8.3,1.3Z"/><path class="h" d="M82.7,286.4l1.9,5.7,1.6-6.2Z"/><path class="g" d="M92.1,282.9l-9-2.2L75,284.6l9.6,3.3,7.5-5Z"/><path class="d" d="M87.1,283.6l-3.9-.8L80.6,284l4.2.9,2.3-1.3Z"/><path class="r" d="M450,311.8l9.3-1,8.3,1.9-10,1.5-7.6-2.4Z"/><path class="h" d="M460.2,306.2l-2.3,6.7-1.9-7.5,4.2.8Z"/><path class="g" d="M449,301.7l10.8-2.5,9.7,4.8-11.6,3.9-8.9-6.2Z"/><path class="d" d="M455,302.7l4.6-1,3.1,1.6-5,.9Z"/><path class="r" d="M454.3,339.8l-7.8-1.7-7.2.9,8.3,2.2Z"/><path class="h" d="M446.1,334.1l1.4,5.9,2.3-6.2-3.7.3Z"/><path class="g" d="M456.1,331.3l-9-3.1-8.7,3.2,9.5,4.4Z"/><path class="d" d="M450.9,331.6l-3.9-1.3-2.8,1.1,4.2,1.2,2.5-1Z"/><path class="r" d="M429.2,328.7l-7.8-1.7-7.3.9,8.4,2.2,6.7-1.4Z"/><path class="h" d="M421,323l1.4,6,2.3-6.3-3.7.3Z"/><path class="g" d="M431,320.2l-9-3.1-8.7,3.2,9.5,4.4Z"/><path class="d" d="M425.8,320.5l-3.9-1.2-2.8,1,4.2,1.3,2.5-1.1Z"/><path class="r" d="M118.8,278.1l-6.6-.8-6,1.3,7.1,1.2Z"/><path class="h" d="M111.5,274l1.6,4.8,1.5-5.3Z"/><path class="g" d="M119.6,270.9l-7.7-1.9-7,3.4,8.3,2.8Z"/><path class="d" d="M115.3,271.5l-3.3-.7-2.2,1.1,3.6.7Z"/><path class="r" d="M188.8,271.1l-6.6-.8-6,1.3,7.1,1.2Z"/><path class="h" d="M181.5,267l1.6,4.8,1.5-5.3Z"/><path class="g" d="M189.6,263.9l-7.7-1.9-7,3.4,8.3,2.8Z"/><path class="d" d="M185.3,264.5l-3.3-.7-2.2,1.1,3.6.7Z"/><path class="r" d="M729.1,279.1l-7.2-1.6-6.7.8,7.7,2.1Z"/><path class="h" d="M721.5,273.8l1.2,5.5,2.2-5.7Z"/><path class="g" d="M730.7,271.3l-8.3-2.9-8,3,8.8,4Z"/><path class="d" d="M725.9,271.5l-3.6-1.1-2.5.9,3.8,1.2Z"/><path class="r" d="M1029.1,279.1l-7.2-1.6-6.7.8,7.7,2.1Z"/><path class="h" d="M1021.5,273.8l1.2,5.5,2.2-5.7Z"/><path class="g" d="M1030.7,271.3l-8.3-2.9-8,3,8.8,4Z"/><path class="d" d="M1025.9,271.5l-3.6-1.1-2.5.9,3.8,1.2Z"/><path class="r" d="M1102.1,269.1l-7.2-1.6-6.7.8,7.7,2.1Z"/><path class="h" d="M1094.5,263.8l1.2,5.5,2.2-5.7-3.4.2Z"/><path class="g" d="M1103.7,261.3l-8.3-2.9-8,3,8.8,4Z"/><path class="d" d="M1098.9,261.5l-3.6-1.1-2.5.9,3.8,1.2,2.3-1Z"/><path class="r" d="M273.1,269.9l-5.4-.7-4.9,1.1,5.8.9Z"/><path class="h" d="M267.1,266.5l1.3,4,1.2-4.4Z"/><path class="g" d="M273.7,264l-6.3-1.5-5.7,2.7,6.8,2.4Z"/><path class="d" d="M270.2,264.5l-2.7-.5-1.8.8,2.9.6Z"/><path class="r" d="M73.1,259.9l-5.4-.7-4.9,1.1,5.8.9Z"/><path class="h" d="M67.1,256.5l1.3,4,1.2-4.4Z"/><path class="g" d="M73.7,254l-6.3-1.5-5.7,2.7,6.8,2.4Z"/><path class="d" d="M70.2,254.5l-2.7-.5-1.8.8,2.9.6,1.6-.9Z"/><path class="r" d="M793.1,269.9l-5.4-.7-4.9,1.1,5.8.9,4.5-1.3Z"/><path class="h" d="M787.1,266.5l1.3,4,1.2-4.4Z"/><path class="g" d="M793.7,264l-6.3-1.5-5.7,2.7,6.8,2.4Z"/><path class="d" d="M790.2,264.5l-2.7-.5-1.8.8,2.9.6Z"/><path class="r" d="M893.1,262.9l-5.4-.7-4.9,1.1,5.8.9,4.5-1.3Z"/><path class="h" d="M887.1,259.5l1.3,4,1.2-4.4Z"/><path class="g" d="M893.7,257l-6.3-1.5-5.7,2.7,6.8,2.4Z"/><path class="d" d="M890.2,257.5l-2.7-.5-1.8.8,2.9.6Z"/><path class="r" d="M1023.2,311.2l-9.3-1-8.3,1.9,10,1.5Z"/><path class="h" d="M1013,305.6l2.3,6.8,1.9-7.6-4.2.8Z"/><path class="g" d="M1024.2,301.1l-10.8-2.5-9.7,4.9,11.6,3.8,8.9-6.2Z"/><path class="d" d="M1018.2,302.1l-4.7-1-3,1.6,5,1Z"/><path class="r" d="M688.5,311.1l9.3-1,8.3,1.9-10,1.6Z"/><path class="h" d="M698.8,305.5l-2.4,6.8-1.9-7.6,4.3.8Z"/><path class="g" d="M687.5,301l10.9-2.5,9.6,4.9-11.6,3.8-8.9-6.2Z"/><path class="d" d="M693.5,302l4.7-1,3.1,1.6-5.1,1Z"/><polygon class="s" points="801.43 217.29 823.44 212.18 841.76 205.32 850.1 218.48 862.18 231.53 854.36 239.64 849.87 249.79 861.45 253.03 882.32 254.33 876.82 257.45 874.83 261.14 856.91 276.29 834.84 297.61 831.44 299.14 826.96 304.76 826.11 296.42 822.76 289.95 811.41 246.84 801.43 217.29"/><polygon class="t" points="768.53 178.83 782.48 185.01 802.74 188.64 805 177.75 803.76 166.46 813.23 168.11 821.45 166.75 827.86 166.92 835.52 165.56 847.72 162.83 861.56 154.1 866.55 167.48 879.03 190.29 874.78 198.63 869.67 220.3 866.72 198.8 861.45 185.35 857.59 182.69 850.67 182.35 845.51 191.14 844.32 198.51 842.16 201.46 841.76 205.32 823.61 209.46 801.43 217.29 783.9 200.67 764.1 185.58 767.45 182.63 768.53 178.83"/><polygon class="u" points="777.49 38.72 782.14 37.98 784.98 35.08 799.05 29.64 812.32 21.3 833.03 30.04 851.29 34.23 854.47 46.77 861.56 61.52 862.87 65.72 865.19 69.01 865.47 87.73 868.37 122.39 873.7 132.03 882.72 143.03 871.15 147.4 861.56 154.1 849.53 160.9 835.52 165.56 825.88 167.43 821.45 166.75 809.94 167.82 803.76 166.46 798.2 164.76 791.67 166.24 798.14 156.53 804.38 142.75 798.54 129.76 790.2 117.68 777.43 111.61 762.18 106.5 773.35 77.52 781.12 46.26 780.5 41.84 777.49 38.72"/><polygon class="v" points="770.8 328.44 834.5 317.86 911.93 325.98 851.97 336.3 770.8 328.44"/><polygon class="u" points="790.2 117.68 762.18 106.5 781.12 46.26 788.5 42.52 796.04 38.88 807.5 34.46 816.12 47.39 817.88 46.49 821.4 53.75 804.78 122.84 790.2 117.68"/><polygon class="w" points="781.07 46.26 784.98 35.08 812.32 21.3 814.08 34.63 807.5 34.46 796.04 38.88 788.5 42.52 781.07 46.26"/><polygon class="x" points="812.32 21.3 851.29 34.23 861.56 61.52 865.19 69.01 854.24 65.21 843.35 61.58 832.46 57.72 821.34 53.86 816.12 47.39 807.5 34.46 812.32 21.3"/><polygon class="y" points="821.34 53.86 832.18 57.66 843.35 61.58 854.24 65.21 865.19 69.01 868.37 122.39 824.91 61.35 821.34 53.86"/><polygon class="z" points="795.53 61.8 789.86 77.23 779.59 58.85 795.53 61.8"/><polygon class="z" points="799.33 62.48 812.89 72.52 801.37 74 790.82 86.36 799.33 62.48"/><polygon class="z" points="821.34 53.86 804.78 122.84 807.16 125.39 813.46 126.24 817.88 120.74 821 112.86 822.87 92.09 821.34 53.86"/><polygon class="aa" points="786.91 85.17 787.87 89.31 790.82 86.36 786.91 85.17"/><polygon class="y" points="799.33 62.48 812.04 68.1 812.89 72.52 799.33 62.48"/><polygon class="y" points="795.53 61.8 780.84 56.47 779.59 58.85 795.53 61.8"/><polygon class="aa" points="813.46 126.24 804.38 142.75 790.2 117.68 804.78 122.84 813.46 126.24"/><polygon class="ab" points="799.33 62.48 790.82 86.36 786.91 85.17 795.53 61.8 799.33 62.48"/><polygon class="w" points="824.91 61.35 835.52 165.56 821.45 166.75 821 112.86 821.4 53.75 824.91 61.35"/><polygon class="x" points="826.84 79.78 861.56 154.1 882.72 143.03 868.37 122.39 824.91 61.35 826.84 79.78"/><polygon class="x" points="821 112.86 804.38 142.75 791.67 166.24 821.45 166.75 821 112.86"/><polygon class="y" points="826.84 79.78 861.56 154.1 835.52 165.56 832.57 136.23 827.52 113.88 826.84 79.78"/><polygon class="ac" points="773.92 91.81 785.43 99.81 800.41 100.21 784.24 104.23 773.92 91.81"/><polygon class="ad" points="773.92 91.81 778.63 93.51 785.15 94.59 789.35 96.01 794.28 98.84 800.41 100.21 785.43 99.81 773.92 91.81"/><polygon class="ae" points="777.49 38.72 784.98 35.08 788.67 42.57 781.07 46.26 777.49 38.72"/><polygon class="af" points="788.5 42.52 796.04 38.88 799.67 46.37 792.07 50.06 788.5 42.52"/><polygon class="ae" points="799.39 46.26 806.99 42.57 810.56 50.12 803.08 53.75 799.39 46.26"/><polygon class="af" points="810.39 50.12 817.88 46.49 821.57 54.03 814.02 57.66 810.39 50.12"/><polygon class="ae" points="821.34 53.86 828.89 50.17 832.46 57.72 824.91 61.35 821.34 53.86"/><polygon class="af" points="832.18 57.66 839.66 53.98 843.35 61.58 835.75 65.15 832.18 57.66"/><polygon class="ae" points="843.07 61.35 850.67 57.72 854.24 65.21 846.7 68.89 843.07 61.35"/><polygon class="af" points="854.01 65.15 861.56 61.52 865.19 69.01 857.7 72.69 854.01 65.15"/><polygon class="ad" points="821.28 75.98 826.84 79.78 828.15 93.06 821.17 88.35 821.28 75.98"/><polygon class="ac" points="821.17 88.35 828.15 93.06 829.11 102.7 821.11 98.28 821.17 88.35"/><polygon class="ad" points="821.11 98.28 829.11 102.7 830.25 113.42 821.06 108.32 821.11 98.28"/><polygon class="ac" points="821.06 108.32 830.25 113.42 831.44 125.28 821.06 119.32 821.06 108.32"/><polygon class="ad" points="821.06 119.32 831.44 125.28 832.57 136.23 821.11 129.87 821.06 119.32"/><polygon class="ag" points="803.76 166.46 801.43 217.29 835.52 165.56 821.45 166.75 803.76 166.46"/><polygon class="ac" points="802.74 188.64 768.53 178.83 765.3 181.78 764.1 185.58 801.43 217.29 802.74 188.64"/><polygon class="u" points="768.53 178.83 763.14 173.27 756.28 178.38 748.79 166.24 746.75 166.24 750.26 182.46 764.1 185.58 768.53 178.83"/><polygon class="aa" points="765.86 175.99 750.26 182.46 747.26 175.14 746.75 166.24 748.79 166.24 753.72 172.42 756.28 178.38 759.51 174.52 763.14 173.27 765.86 175.99"/><polygon class="ad" points="861.56 154.1 844.32 198.51 833.82 201.75 812.43 200.67 835.52 165.56 861.56 154.1"/><polygon class="ac" points="812.43 200.67 844.32 198.51 841.76 205.32 826.67 216.16 801.43 217.29 812.43 200.67"/><polygon class="ag" points="861.56 154.1 879.03 190.29 850.67 182.35 861.56 154.1"/><polygon class="ac" points="861.45 185.35 869.67 220.3 875.76 210.81 875.12 202.83 879.03 190.29 861.45 185.35"/><polygon class="u" points="869.67 220.3 876.78 221.03 885.24 218.61 875.11 202.82 869.67 220.3"/><polygon class="af" points="841.76 205.32 862.18 231.53 835.41 236.01 801.43 217.29 841.76 205.32"/><polygon class="s" points="862.18 231.53 849.87 249.79 856.34 268.85 822.76 289.95 801.43 217.29 862.18 231.53"/><polygon class="ae" points="849.87 249.79 882.32 254.33 878.98 259.1 874.83 261.14 834.33 298.01 832.46 300.34 826.96 304.76 822.76 289.95 849.87 249.79"/><polygon class="u" points="882.32 254.33 892.7 250.59 898.32 281.5 874.83 261.14 882.32 254.33"/><polygon class="z" points="891.63 275.72 889.36 288.82 898.32 281.5 891.63 275.72"/><polygon class="u" points="834.33 298.01 846.24 306.86 834.5 329.89 826.96 304.76 834.33 298.01"/><polygon class="z" points="834.5 329.89 821.11 329.61 832.18 322.06 834.5 329.89"/><polygon class="aa" points="882.32 254.33 879.88 265.56 874.83 261.14 882.32 254.33"/><polygon class="aa" points="826.96 304.76 837.23 300.22 834.84 297.61 826.96 304.76"/><polygon class="z" points="876.78 221.03 891.67 208.71 894.16 218.46 887.58 222.2 876.78 221.03"/><polygon class="s" points="720.91 44.47 732.99 22.92 738.32 42.83 720.91 44.47"/><polygon class="af" points="738.32 42.83 757.72 37.89 745.98 58.77 738.32 42.83"/><polygon class="ag" points="721.19 52.19 738.32 42.83 736 49.12 731.97 53.38 721.19 52.19"/><polygon class="ac" points="738.32 42.83 738.83 62.23 731.97 53.38 738.32 42.83"/><polygon class="s" points="907.03 46.43 895 24.82 889.61 44.73 907.03 46.43"/><polygon class="af" points="889.61 44.73 870.21 39.79 882.01 60.67 889.61 44.73"/><polygon class="ag" points="906.74 54.03 889.61 44.73 892.84 52.05 896.02 55.28 906.74 54.03"/><polygon class="ac" points="889.61 44.73 889.1 64.13 896.02 55.28 889.61 44.73"/><polygon class="s" points="908.41 166.07 912.39 141.62 924.24 158.52 908.41 166.07"/><polygon class="af" points="924.24 158.52 940.75 147.18 936.84 170.89 924.24 158.52"/><polygon class="ag" points="911.31 173.1 924.24 158.52 923.73 165.44 921.86 170.6 911.31 173.1"/><polygon class="ac" points="924.24 158.52 931.33 176.5 921.86 170.6 924.24 158.52"/><polygon class="ad" points="739.6 166.24 751.62 166.24 751.62 154.27 739.6 154.27 739.6 166.24"/><polygon class="ag" points="743.97 182.69 743.74 197.32 746.69 197.32 746.46 182.69 743.97 182.69"/><polygon class="y" points="745.55 154.27 744.36 139.97 761.04 144.45 751.62 154.27 745.55 154.27"/><polygon class="y" points="751.62 156.88 767.34 149.67 772.95 163.85 751.62 161.36 751.62 156.88"/><polygon class="y" points="751.62 163.85 769.95 168.05 756.28 178.38 748.79 166.24 751.62 166.24 751.62 163.85"/><polygon class="y" points="746.75 166.24 750.26 182.46 735.85 182.69 742.49 166.24 746.75 166.24"/><polygon class="y" points="739.6 166.24 728.54 180.87 719.29 171.91 739.6 162.83 739.6 166.24"/><polygon class="y" points="739.6 160.9 718.16 166.01 716 153.93 739.6 158.12 739.6 160.9"/><polygon class="y" points="739.6 156.14 721.33 146.55 733.76 139.01 743.68 154.27 739.6 154.27 739.6 156.14"/><polygon class="x" points="745.55 154.27 751.62 160.28 745.55 166.24 739.6 160.28 745.55 154.27"/><path class="ah" d="M783.39,65.89A3.12,3.12,0,0,1,786.57,69a3.17,3.17,0,0,1-3.18,3.17A3.21,3.21,0,0,1,780.16,69,3.17,3.17,0,0,1,783.39,65.89Z"/><path class="ah" d="M804.27,73.43a3.27,3.27,0,0,1,3.23,3.24,3.22,3.22,0,0,1-3.23,3.17,3.17,3.17,0,0,1-3.18-3.17A3.23,3.23,0,0,1,804.27,73.43Z"/></svg>