<svg xmlns="http://www.w3.org/2000/svg" viewBox="0 0 1170 350"><defs><style>.a,.ac,.k{fill:#fff;}.b,.r{fill:#c4c4c4;}.c{fill:#a3a3a3;}.d,.m{fill:#cececd;}.e,.l{fill:#ececeb;}.f{fill:#737373;}.g{fill:#6f7173;}.h{fill:#858686;}.i,.s{fill:#8f8f8f;}.ai,.j{fill:#9da1a2;}.k{opacity:0.4;}.k,.n,.p{isolation:isolate;}.aa,.ab,.ac,.ai,.al,.l,.m,.q,.r,.s,.t,.u,.v,.w,.x,.y,.z{fill-rule:evenodd;}.an,.n,.p{fill:#2b2b2b;}.n{opacity:0.2;}.aa,.o{fill:#dddddc;}.p{opacity:0.1;}.af,.q{fill:#594165;}.ah,.t{fill:#c3987b;}.ad,.u{fill:#8b6651;}.aj,.v{fill:#785d88;}.w{fill:#b3889d;}.x{fill:#96637c;}.y{fill:#543042;}.ae,.z{fill:#734d60;}.ab{fill:#dfbda5;}.ag,.al{fill:#9075a0;}.ak{fill:#a688ba;}.am{fill:#e8cab6;}</style></defs><title>intp-logician-personality-header</title><path class="a" d="M260.7,22.7H910V226H260.7Z"/><path class="b" d="M560.3,189l8.4,15-46.6.6-1.2-6.8.8-10.8Z"/><path class="c" d="M559.9,188.3l-39,9.5-1.7-9.5,19.4-2Z"/><path class="d" d="M498.1,185.2l-7.9,2.6-2.8-2.1,4.8-4.7,3.7,1.4,2.2,2.8Z"/><path class="e" d="M539.1,114l25,37-14,11.5-1.3,8.9-28.9,1.4-3.6-7.7L504.1,161l7.2-27,27.8-20Z"/><path class="d" d="M513.3,134.3l27.9,35.5,8.9-7.3-1.3,8.9-12.4,2.4H518.6l-2.8-7.5L504.1,161l2.1-8.1,7.1-18.6Zm25-3.5-.7-3.5,7.2-1-2.2,10.8,3.5,5.4-3.9,2.5-10.6-5.5-8.3-.2,6.8-7.3,4.6,1.8,3.6-3Z"/><path class="f" d="M534.7,141.7a2.2,2.2,0,1,1-2.2-2.2A2.16,2.16,0,0,1,534.7,141.7Zm12.2-8.3a2.2,2.2,0,1,1-2.2-2.2A2.22,2.22,0,0,1,546.9,133.4Z"/><path class="c" d="M546.1,142.5V146l-3.9-1Z"/><path class="a" d="M542.2,145l-7.5-11.2,3.6-3,7.8,11.7-3.9,2.5Z"/><path class="f" d="M523.3,139.3l6.8-7.3-3.4-1.2-3.4,8.5Zm21.5-13-6.7-2-.5,3Z"/><path class="g" d="M539.1,114l-6.1,4.4-5.9-1.4-3.8-4.6,9-.9Z"/><path class="f" d="M522.1,126.3l-8.8,8-3.2,10,10.8,6.8-2.6,7.2-12.1-5.4-2.1,8.1-5.5-4.2.7-26,11-10.1,7.9,2.2,3.9,3.4Z"/><path class="h" d="M522.1,126.3l9.6-.5,1.3-7.4-9.7-6-13,8.3,11.8,5.6Z"/><path class="c" d="M550.1,162.5l-13.7,10.3,4.9,1,8.8-1.8Zm-34.3,3.8,2-4.7,1.4,5-1.3,5.4-2.1-5.7Zm-2.5-7-5.2-2.3-1.3,3.1Zm23.1-1.4,8.4-7,1.3,3-3.9,8.2Z"/><path class="b" d="M550.1,172l-40,1.8-.7,7.8,1.9,6.7,49,.7-10.2-17Z"/><path class="b" d="M510.1,173.8h-8.4l-.8,7.2,1.4,7.3h9Z"/><path class="e" d="M501.7,173.8l-21.1-4.9,1.5,4.9,20.2,14.5Z"/><path class="i" d="M805.5,128.2l-15-9.3,7.3,13.6ZM774.3,167l-10.7,9,4.6-13.3,6.1,4.3Zm88-28.2,8.2-14.3-14,10.9,5.8,3.4ZM727.7,122.3l-8.7,5.9,5.4-12.2Z"/><path class="b" d="M875.4,153.2l31.9,9-3.7,21.9-18.2-16.8-10-14.1Z"/><path class="i" d="M716.1,91.7,706,78l1.2,13.7Z"/><path class="c" d="M619.2,116l10.6,6.2,7.2,8,1.5,7.5-1.5,6.7-6.7-5.2-3-5.7-5.5-9.2Z"/><path class="j" d="M612.6,101.5l29.7,20.8-1.1,5.5-4.2,2.4L619.2,116l-3.9-5.3Z"/><path class="i" d="M637,130.2l14.8,6.7L673.3,149l-4.8,5L637,144.4Z"/><path class="b" d="M642.3,122.3l11.1,4.3,18.6,5.1,11.5,6.6L673.3,149,637,130.2l5.3-7.9Z"/><path class="d" d="M563.7,106.3,565,116l7.3-6,1.4,9.7,6.6-6.3v11.8l7.8-8.5v9.5l8.2-5.9,1.5,10.2,6-7,1,8.3,6.3-5.2.6,6.9,5.3-4.4,1.2,5.3,5.2-2.6-28.7-17-31-8.5Zm58.1,31.2-8.5-3.1,1.1,8.3-9.2-4.2,2.5,9-8.8-3.1,1.4,8.4-9.1-3.5,2.3,8.3-9.7-2.2,1.2,8.3,19.5-10.5Z"/><path class="b" d="M627.3,133.5,610,96l-26.9,2.5L559,103Z"/><path class="c" d="M552.1,101.3l75.2,32.2-44.2-35Z"/><path class="b" d="M627.3,133.5l9.7,10.9-32.3,34.1L586.3,167Z"/><path class="c" d="M627.3,133.5l-22.6,45L580.3,167Zm26.1-6.9,32.8-25.1,5.8,1-12.3,17.9-13.2,11.3Z"/><path class="d" d="M666.5,131.7,692,102.5l4.7,1L687,122.3l-11.1,13.1-9.4-3.7Z"/><path class="i" d="M683.5,138.3,713,107.7l-16.3-4.2-20.8,31.9Z"/><path class="j" d="M686.2,101.5l26.8,6.2,19.4,6.7,18.1,2.9-9.2-11-17.5-6.6-27.1-6.5Z"/><path class="d" d="M741.3,106.3l-5.8-6.8L721,96l-24.3-2.8Z"/><path class="c" d="M696.7,93.2,727.3,89l8.2,10.5Z"/><path class="j" d="M637,144.4l4.3,17.3-12.4,9.6,8.1-26.9Z"/><path class="i" d="M637,144.4l-1.9,22.1-6.2,4.8,8.1-26.9Z"/><path class="j" d="M642.3,122.3l1-25.1,7.2,15.3Z"/><path class="i" d="M642.3,122.3l4.8-17,3.4,7.2Z"/><path class="d" d="M627.3,133.5,606,109.8,583.1,98.5Zm0,0-5.5,21.9-17.1,23.1Z"/><path class="c" d="M713,107.7l70,69.8,5.5-10.2L766,144.4l-36.7-32.5L713,107.7Z"/><path class="b" d="M729.3,111.9l40.2,34.4,21,15.9,7.3-8.2-47.3-36.7Z"/><path class="d" d="M729.3,111.9l61.2,50.3-2,5.1Z"/><path class="i" d="M779.5,174l38-59.2h21l7,5.6-11.7,13.1-6.9,7.8-38.4,43.2-9-10.5Z"/><path class="j" d="M794.2,151.1l3.6-18.6,26.7-27.2,6.5,4.5-10,14Z"/><path class="d" d="M794.2,151.1,831,109.8l7.5,5Z"/><path class="c" d="M822.5,146.3l12.4,17.4,13.9,24.1,24.7,30,14.8-6.8-30.5-36.7-30.9-33Z"/><path class="i" d="M834.9,163.7l3.6,23.1,17.9,36.1,4.1,6,13-11.1-38.6-54.1Z"/><path class="b" d="M826.9,141.3l6.9-7.8,29.5,30.2,34.5,40.6-9.5,6.7-61.4-69.7Z"/><path class="d" d="M833.8,133.5l4.7-5.3,27.3,21.1,37.8,34.8,3.7,14.9-9.5,5.3Z"/><path class="c" d="M845.5,120.4l58.1,63.7-65.1-55.9Z"/><path class="j" d="M738.2,132.8l-8.9,33.1-8.8-21.5,17.7-11.6Zm3.1-26.5L756,98.5l-4-22.2Z"/><path class="i" d="M738.2,132.8,724.4,154l4.9,11.9,8.9-33.1Zm3.1-26.5,13-17.3,1.7,9.5Z"/><path class="j" d="M824.5,105.3,808.3,82.8,829,93.2Z"/><path class="i" d="M824.5,105.3,820.7,89l-12.4-6.2Z"/><path class="k" d="M263.1,28.3H932V219.1H263.1Z"/><path class="l" d="M0,0V351H1170V0ZM898.6,178.1,847,206.9H328.8l-51.6-28.8V66.7l51.6-28.8H847l51.6,28.8Z"/><path class="m" d="M939.7,0h3.1V350h-3.1Zm-758,0h3.1V350h-3.1Z"/><path class="d" d="M848.6,212.9H327.2l-56-31.3V63.2l56-31.3H848.6l56,31.3V181.6l-56,31.3Zm-518.3-12H845.4l47.1-26.3V70.3L845.4,44H330.3L283.2,70.3V174.6l47.1,26.3Z"/><path class="c" d="M131.3,187.3h-7v-5.5h-3.4v9h10.4v4.4H120.9V209h3.4V198.6h10.4V187.3ZM0,253.9H30.7v20.5H0Z"/><path class="b" d="M26.8,204.6h122v69.9H26.8Z"/><path class="i" d="M41.7,218.4H122v31.1H41.7Z"/><path class="e" d="M124.5,252H39.2V215.9h85.3Zm-80.3-5h75.3V220.9H44.2ZM136,215.9h4v8h-4Zm0,14h4v8h-4Z"/><path class="i" d="M112.3,274.5h-9.8V259.3h9.8l.8,5Z"/><path class="c" d="M122,274.5h-9.7V259.3H122l.9,6.5Z"/><path class="i" d="M131.8,274.5H122V259.3h9.8l2,7Z"/><path class="c" d="M141.5,274.5h-9.7V259.3h9.7l1.3,7.6Z"/><path class="i" d="M151.3,274.5h-9.8V259.3h9.8l1.7,6.5Z"/><path class="c" d="M161,274.5h-9.7V259.3H161l1.3,5.7Z"/><path class="i" d="M170.8,274.5H161V259.3h9.8l1,7Z"/><path class="c" d="M180.5,274.5h-9.7V259.3h9.7l.8,6.5Z"/><path class="i" d="M190.3,274.5h-9.8V259.3h9.8l1,6Z"/><path class="c" d="M190.3,259.3h9.8v15.2h-9.8Z"/><path class="b" d="M79,245l-8.5-11.1-4.8-10.1Zm2.8-2-9.5-14,7.7,8Zm-10.1-3.4L62,224.7l3.7,8.5,6,6.4Z"/><path class="j" d="M97,150.8l-15.2,3.9-10.1-3.9V114.1H97Zm-25.5,0L73.2,163l-1.7,13.2H0V150.8Z"/><path class="c" d="M71.5,150.8H97L71.5,176.2Z"/><path class="n" d="M71.7,114.1H97v9.6H71.7Z"/><path class="j" d="M161,80.7H133V47.8h28Zm-21.5-6.5h15.1V54.3H139.5Z"/><path class="o" d="M39.9,0H148V96.9H39.9Z"/><path class="j" d="M59.3,0h1.8V91.2H59.3Z"/><path class="c" d="M34.8,0H153V18.5H34.8Z"/><path class="b" d="M54.9,116.9,95,114.1l37.9,2.8,15-20L93.9,94l-54,2.9Z"/><path class="c" d="M91.8,96.9h4.1v20H91.8Zm-26,0h4.1v20H65.8Zm52,0h4.1v20h-4.1Z"/><path class="c" d="M50.6,111.2l4.3,5.7h78l4.3-5.7Z"/><path class="j" d="M39.9,91H148v6H39.9Z"/><path class="e" d="M138.7,82.9H70.2V46h68.5Zm-65.5-3h62.5V49H73.2Z"/><path class="i" d="M122,54h8.4v3.3H122Zm0,6h8.4v3.3H122Zm0,6h8.4v3.3H122Z"/><circle class="a" cx="113.6" cy="56.3" r="2.3"/><circle class="a" cx="113.6" cy="66.3" r="2.3"/><path class="i" d="M77.5,53.2H79V76.4H77.5Zm3,0H82V76.4H80.5Zm3,0H85V76.4H83.5Zm3,0H88V76.4H86.5Zm3,0H91V76.4H89.5Zm3,0H94V76.4H92.5Zm3,0H97V76.4H95.5Z"/><path class="j" d="M26.1,0H161V14.5H26.1Z"/><path class="d" d="M45.7,150.8h4.9v25.3H45.7Zm-25,0h4.9v25.3H20.7Z"/><path class="a" d="M355.8,216.5V204.6H341.4v11.9l-6.4,5.4v25.9h27.2V221.9l-6.4-5.4Z"/><path class="i" d="M338.1,228.2h21.4v16.4H338.1Z"/><path class="a" d="M465.8,222.5v-5.9H447.7v5.9l-8.1,10.4v10.9l3.8,4h26.7l3.8-4V232.9l-8.1-10.4Z"/><path class="i" d="M471.6,243.3l-2.6,2.8H444.3l-2.4-2.8v-9.9l3-3.4h23.9l2.8,3.4v9.9Z"/><path class="b" d="M459,236.4l1.2,1.6-2.9,1.4-.1-1.5Zm1.2,4.8,2.5-1v2.3Zm2.1-7.3h1.3l.6,2.5-1.9-.7Z"/><path class="a" d="M327.5,204.6H312.1L315,209v38.8h9.7V209Z"/><path class="i" d="M316.7,219.8h6.2V246h-6.2Z"/><path class="a" d="M1114.1,74.5V60.8l-14.9-2.9,3.1-9.2L1090.8,35l-6.4,21,9.6,8.8-6.9,6.7,10.2,12.8,16.8-9.8Zm-5.8-25.8-9.1-12.2,9.1-10.9,3.9,12.3ZM1090.8,35l-5.4-9.4,6.9-9.6,2.4,14Z"/><path class="b" d="M1109.1,77.4l1.2-7.7-6.9-7.4-6.9,10.2,4.9,9.4,7.7-4.5Zm-12.6-14.6-5-4.9,1.2-9.2,3.8,6Z"/><path class="h" d="M1121.5,69.7l-36.1,15.4,36.1,20.6Z"/><path class="f" d="M1121.5,91.1V83.7L1099.2,93l7.2,4.1,15.1-6Z"/><path class="c" d="M1120.5,119.3l31.8,2.1,17.7-2.1V37.9l-21.5-1.4-28,1.4Z"/><path class="h" d="M1150.5,144.2H1170V119.3h-49.5Z"/><path class="f" d="M1170,128.9h-37.9l6.1,5.1H1170Z"/><path class="e" d="M1126.9,47h2.5V74.5h-2.5Zm0,31h2.5v27.5h-2.5Z"/><path class="j" d="M1145.2,78l13.4.9L1170,78V37.9l-11.7-1-13.1,1V78Z"/><path class="h" d="M1145.2,78l8.3,7.5H1170V78Z"/><path class="d" d="M1120.5,37.9l15.5-9.6,16.3-1.5,17.7,1.5v9.6Z"/><path class="c" d="M1136,22.9h34v5.4h-34Z"/><path class="a" d="M987.5,0a32.58,32.58,0,0,0-1.1,8.3,31.2,31.2,0,1,0,62.4,0,32,32,0,0,0-1.1-8.3Z"/><path class="h" d="M976.1,12h82.4V26H976.1Z"/><path class="j" d="M963.2,0h108.2V20H963.2Z"/><path class="j" d="M908.2,0V9H748V0H734V23H922.2V0Z"/><path class="j" d="M806.7,9H748V0H734V23h62.3ZM680,0h16.7V47.5H680Z"/><path class="d" d="M683.5,53.2H623.9L619.2,20l4.7-20h59.6Z"/><path class="b" d="M753.5,53.2H693.9V0h99.6Z"/><path class="d" d="M584.7,0V8.5H544.9V0h-8V16.5h55.8V0Z"/><path class="b" d="M559.3,0V22.7l22,28.5,37.9-3.4,4.7-25.1V0Z"/><path class="j" d="M559.3,22.7l20,30.5h44.6V22.7Z"/><path class="a" d="M660.3,39.6H676v5.8H660.3Zm0-10H676v5.8H660.3Zm0-10H676v5.8H660.3Z"/><path class="j" d="M702,32.4h2.3V45.3H702Zm5,0h2.3V45.3H707Zm5,0h2.3V45.3H712Zm5,0h2.3V45.3H717Z"/><path class="j" d="M247.4,75.7,244,68.1l-2.7,1.6,1.8,7.7,4.3-1.7Z"/><path class="b" d="M263.1,125.5l13-4.8,10,2.3,7.3,3.6-28.7,10.8-1.5-5.4-.1-6.5Z"/><path class="f" d="M276.1,120.7l17.3,5.9-4.6-10.5-7.9,1.5Z"/><path class="j" d="M288.8,116.1l-10.5-23-6,1.6-5.9,3.6,9.7,22.4,12.7-4.6Z"/><path class="f" d="M278.3,93.1l-8-7L267,92.2l-.6,6.1Z"/><path class="j" d="M270.3,86.1,247.4,75.7,243.1,81l-1.3,5.3,24.6,12Z"/><path class="f" d="M247.4,75.7l-4.8.6-3.8,4,3,6Zm-2.3,140.2h9.3v17.6h-9.3Z"/><path class="c" d="M226,232.2h47.5v7.2H226Z"/><path class="d" d="M214.7,238h70.1v10.7H214.7V238Z"/><path class="a" d="M208.3,98.3l-5.3,7.9v7.9l9.5-11.8Z"/><path class="o" d="M212.5,102.3,203,114.1v17l3.8-1.6Z"/><path class="a" d="M212.5,102.3l-5.7,27.2,4.6-1.8,4.7-21.9Z"/><path class="o" d="M216.1,105.8l1.9,1.9-.4,17.5-6.2,2.5Z"/><path class="a" d="M200,97.4l-5.3.9-1,5Zm23.3,13.8,5.4,3.6-1.9,3.5h-2Zm-30.9-3.5-4,2.4.8,4.7h3.2Zm3.1-16.3h-6.9l.9,3.3Zm25.2,18.9,1,13.3-4.1,1.6.4-17.5,2.7,2.6Z"/><path class="b" d="M277.2,196.8,213.8,222l-17.6-44.3-4.5-7.4-4.3-14.7,31-13.8,32.4-11.4,5.3,10.7,3.5,11.4,17.6,44.3Z"/><path class="j" d="M250.9,130.7l-63.4,25.2,2.9-19.8,43.4-17.3,17.1,11.9Z"/><path class="i" d="M271.7,210l-44.8,17.8-13.2-6,31.8-10.9,31.6-14.3Z"/><path class="f" d="M220.3,224.8l54.1-21.5,2.7-6.7-63.4,25.2,6.6,3Z"/><path class="a" d="M200.9,160.8l43.7-17.4,2,5.1-43.7,17.4Z"/><path class="d" d="M214.9,155.2l15.7-6.2,2,5.1-15.7,6.2Z"/><path class="i" d="M189.5,180.4l6.7-2.7-8.8-22.1-12.3,4.9,8.7,10,5.7,9.9Z"/><path class="f" d="M189.5,180.4l3.4-1.3-14-20.2-3.8,1.6,4.1,5.8,4.2,7.3,6.1,6.8Z"/><path class="b" d="M179.2,166.3l-1.9,39,7.1-5.2,4.6-5.2.5-14.5-10.3-14.1Z"/><path class="f" d="M189,194.9l.3,6.2-.6,5.1-11.4-.9L189,194.9Z"/><path class="j" d="M189,194.9l24.5,1.4.5,6.3-1.6,5.7-23.7-2.1.3-11.3Z"/><path class="i" d="M266.4,149.8l-6.8,2.7-8.8-22.1,12.3-4.9.6,13.2,2.7,11.1Z"/><path class="f" d="M266.4,149.8l-3.4,1.4L259.3,127l3.8-1.5,3.3,24.3Zm-52.9,46.5,4.7,2.3,4.2,5.7-10,4Z"/><path class="j" d="M213.5,196.3l10-19.5,6.6,1.7,3.7,2.9-11.4,22.9-8.9-8Z"/><path class="f" d="M223.5,176.8l1.6-2,3.2-.8,4.5,2,1.8,2.2-.8,3.2-10.3-4.6Z"/><path class="j" d="M228.3,174l-3.4-4.6L223,168l-2.9.3,3.4,8.5,4.8-2.8Zm4.5,2,5.6-1.2,2.5.3.9,2.2-8,4.1-1-5.4Z"/><path class="f" d="M224.9,169.4l1.6-7.9-2.9-1.9-3.5,8.7,4.8,1.1Zm13.5,5.4,3.7-6.2,3,.7-3.3,8Zm-49.8-26.4,55.9-22.1-4.5-3.2-50.7,20.5-.7,4.8Z"/><path class="j" d="M152.5,106l37.9,30.1-3.7,4.6-19.5-14.3-18.4-15.8Z"/><path class="h" d="M150.8,113.4l17,12.3,18.9,15-28.1-3.2-7.8-24.1Z"/><path class="f" d="M167.8,125.7l-19-15.1,9.7,26.7Z"/><path class="j" d="M231.9,87.4l51.3-53-1.5-3.3-4.9-2.8-51.3,53,2.4,3.9,4,2.2Z"/><path class="c" d="M229.2,101.6l2.7-14.2-6.4-6.1-14.1,3.2L219.8,95l9.4,6.6Z"/><path class="f" d="M203,93.2l8.4-8.7,17.8,17.2-8.4,8.7Z"/><path class="o" d="M236.3,70.2l1.7-1.7,6.3,6.1-1.7,1.7Zm13.9-14.4,1.7-1.7,6.3,6.1-1.7,1.7-6.3-6.1Zm13.9-14.4,1.7-1.7,6.3,6.1-1.7,1.7Z"/><path class="j" d="M238.8,80.3l-3.5-.4L231.9,81v1.9l9.9,3.4Z"/><path class="f" d="M231.9,82.9l-2.7-10.5,3.4,1.6,2.7,5.9Zm7.3-15.7h-5.4l2.5,3Z"/><path class="a" d="M203,114.1l-4.7,18.8,4.7-1.8Z"/><path class="j" d="M276.8,28.3l5.2,1.5h5.3l-1-15.3H276.1Z"/><path class="j" d="M276.8,28.3l6.4.9,4.1.6-4.1,4.6Z"/><path class="j" d="M222.6,0l-28,38.4,3,2.9,4.2,2.3L233.4.1l-.1-.1Zm-5.4,69.9L201.8,43.6l-4.2.7L193.4,46l16.4,28.3Z"/><path class="o" d="M203.7,25.9l1.4-1.9,7.1,5.2-1.4,1.9Zm6.1,31.4L208.5,55l-7.6,4,1.4,2.3,7.5-4Z"/><path class="j" d="M201.8,43.6l-7.2-5.2L193.4,46Z"/><path class="j" d="M323.5,15.4H182L172,0H333.5Z"/><path class="h" d="M178.3,9.7l3.7,5.7H323.5l3.7-5.7Z"/><path class="d" d="M0,351H1170V228.2H728.9l-25.4,27.1H215l-24.7,24.4H0Z"/><path class="b" d="M253.9,260.9h3.5v90.4h-3.5Zm520.7-25h3.5V351.3h-3.5Z"/><path class="p" d="M726.4,227.6,701,254.7H209L187.3,279H0v15.3H196.3L218,270H710l25.4-27.1H1170V227.6Z"/><path class="a" d="M726.4,220.6,701,247.7H209L187.3,272H0v15.3H193.3L215,263H706l25.4-27.1H1170V220.6Z"/><path class="b" d="M262.9,278.1l4.9-4.9,4.9,4.9-4.9,4.9Z"/><path class="j" d="M272.7,278.1l-4.9,5-5-5Z"/><path class="b" d="M238.9,278.1l4.9-4.9,4.9,4.9-4.9,4.9Z"/><path class="j" d="M248.7,278.1l-4.9,5-5-5Z"/><path class="b" d="M783.6,252.2l4.9-4.9,4.9,4.9-4.9,4.9-4.9-4.9Z"/><path class="j" d="M793.5,252.1l-5,5-4.9-5Z"/><path class="b" d="M759.6,252.2l4.9-4.9,4.9,4.9-4.9,4.9-4.9-4.9Z"/><path class="j" d="M769.5,252.1l-5,5-4.9-5Z"/><path class="c" d="M46.8,303.5h3.1V341H46.8Zm6,0h3.1V341H52.8Zm6,0h3.1V341H58.8Zm6,0h3.1V341H64.8Zm6,0h3.1V341H70.8Zm6,0h3.1V341H76.8Zm6,0h3.1V341H82.8Zm6,0h3.1V341H88.8Zm58,0h3.1V341h-3.1Zm6,0h3.1V341h-3.1Zm6,0h3.1V341h-3.1Zm6,0h3.1V341h-3.1Zm6,0h3.1V341h-3.1Zm6,0h3.1V341h-3.1Zm6,0h3.1V341h-3.1Zm6,0h3.1V341h-3.1Z"/><path class="e" d="M759.8,291.7l16.6-16.6L793,291.7l-16.6,16.6Z"/><path class="h" d="M1086.9,128.8l15.4,7-.5,2.8-2,1.9-17.5-4,1.4-4.1,3.2-3.6Z"/><path class="f" d="M1102.3,135.8l4.5,9.3-6.9,4.8-.1-9.4,2.5-4.7Z"/><path class="h" d="M1053.9,123.4v14.8h-6.6l-3.5-16.8,4.6.7Z"/><path class="f" d="M1016.3,99.3l-24.5,2.2-1.2,5.4,1.2,5.3,24.5-7.1Z"/><path class="h" d="M991.8,101.5l-9-4.7-11-2.4,20,17.8Z"/><path class="f" d="M991.8,101.5,989,91.3l-9-.8-8.2,3.9Z"/><path class="h" d="M989,91.3l-7.9-19.8-9.3,22.9Z"/><path class="f" d="M1035.7,119.3l-6.2,10.4,2.2,11.3-6.4-6.3-3.9-7.8Z"/><path class="c" d="M1059.8,77l6.2,13.5-4.2,2.8-2.3-1.8-4-7.5,1.2-4.3,3.1-2.7Z"/><path class="h" d="M1066,90.5l-6.2,10.3-2.3-3,2-6.3,2.6-.4Z"/><path class="c" d="M960.2,132l38.6-54.7,6.7,5-38.8,54.2Zm-45,28.5,37.6,9.5-1.5,8.5-37.3-9Zm40.5,7.3,3.1-26.8,7.9.9L962.8,173ZM1006,68l35.2,11.3.3,4.2-2.6,3.4L1009,77.6Z"/><path class="h" d="M949.5,166.1l1.7,16.3,14.7-8.2L953.5,164l-4,2.1Zm21.1-23.9-16.1,1.1,2.2-15.1,15.1,8.3ZM1008,84.3l-14.7-9.1L1007,64.8l5.3,15.7Zm33.2-5,18.6-2.3-4.3,7-8.6,1.5-2.8,1.4h-5.2Z"/><path class="f" d="M1016.3,99.3,1053,86.9l8.8,17.1-4.8,11.4-5.3,8-19.3-5-16.1-19.1Z"/><path class="c" d="M1038.9,86.9l2.6,14.9,3.5-2.5,1-2.5.9-11.3Z"/><path class="h" d="M1046,96.8l7,2-1.1,3h-10.4Z"/><path class="c" d="M1016.3,99.3l21.5,4.7-2.1,15.3-7.2,3.2-18.7-4.7,6.5-18.5Z"/><path class="h" d="M1035.7,119.3l-17.5.6-3.2,8.3,5.3.6,3-1.3Z"/><path class="c" d="M1023.3,127.5l8.4,13.5-7.9.8-8.8-13.6,8.3-.7Zm38.5-23.5,7,9,12.2,7.3,11.7-1.3-12.4,20.8h-19.5l-9.1-16.4,10.1-19.4Z"/><path class="a" d="M1068.9,121.9a3.7,3.7,0,1,1-3.7-3.7A3.76,3.76,0,0,1,1068.9,121.9Z"/><path class="f" d="M1066.5,121.9a1.3,1.3,0,1,1-1.3-1.3A1.32,1.32,0,0,1,1066.5,121.9Z"/><path class="a" d="M1078.4,127.5a3.69,3.69,0,0,1-3.7,3.7,3.7,3.7,0,0,1,0-7.4A3.69,3.69,0,0,1,1078.4,127.5Z"/><path class="f" d="M1076.1,127.5a1.3,1.3,0,1,1-1.3-1.3A1.32,1.32,0,0,1,1076.1,127.5Zm-5.4,2.5-4.3,1-1-4.3Z"/><path class="b" d="M1070.7,130v-6.2l-5.3,2.9Z"/><path class="h" d="M1066.4,131l-1.8.8,1.1,1.3.7-2.1Zm17.3-8.7,4.6-.4-2.3,4.3-2.3-3.9Zm-18.3-10.1-3.2-4-2,4Z"/><path class="f" d="M1068.5,135.2l-6.7-7-3.3,4.2Z"/><path class="h" d="M909.7,150.6l9.3,2.1-5.6,24.1-9.3-2.1Z"/><path class="i" d="M765.4,291.6l11-11,11,11-11,11Z"/><path class="j" d="M820,282.2h19.9l.9-3.6-.9-3.6H816l1.4,4.5Z"/><path class="c" d="M816,275l-16,20.2v3.9l3,5.1,17-22Z"/><path class="j" d="M800,295.2l-23.5-7.8-4.3,4.2,4.3,4.3,26.5,8.3Z"/><path class="c" d="M839.9,269.9h5.5v17.4h-5.5Z"/><path class="f" d="M877.8,296l-17,2.8L844.4,296V259.4l18.1,1.5,15.4,6.2Z"/><path class="e" d="M917.1,322l-56.3,1.6L805.3,322l30-26h51.8Z"/><path class="c" d="M860.4,307.8h1.5v18.6h-1.5Z"/><path class="h" d="M907.5,264.7l-43.6-10,2.6-11.5,43.6,10Z"/><path class="c" d="M902,270l-10.7-2.5,5.5-23.9,10.7,2.5Z"/><path class="h" d="M821.3,232.8l43.8,10-2.6,11.5-43.8-10Zm57.1-128.9,36.8,8.5-2.9,12.8-36.8-8.5Z"/><path class="j" d="M880.6,263.1l-39.5-10.2-4.4-4.4L868.9,108l53,12.2-15.6,67.9-9.1,32.6-2,16-5.5,24-9.1,2.4Z"/><path class="i" d="M894.7,113.8l1.6.4L862,263.3l-1.6-.4,34.3-149.1Z"/><path class="f" d="M890.2,184.4l16.2,3.7-11.2,48.6L879,233Z"/><path class="a" d="M887.7,218.5l3,.7-2.6,11.5-3-.7ZM867,152.2l37.1,8.5-1,4.5L866,156.7Z"/><path class="b" d="M874.4,153.9l1.4.3-1,4.5-1.4-.3Zm10.6,2.4,1.6.4-1,4.5-1.6-.4Zm10.9,2.5,1.4.3-1,4.5-1.4-.3Z"/><path class="f" d="M875.6,135.2l17.6-11,11,17.6-17.6,11Z"/><path class="a" d="M882,136.7l9.7-6.1,6.1,9.7-9.7,6.1Zm-28.1,60.7,3.5.8-.8,3.5-3.5-.8Zm-2.2,9.7,3.5.8-.8,3.5-3.5-.8Zm-2.3,9.7,3.5.8-.8,3.5-3.5-.8Zm-2.3,9.8,3.5.8-.8,3.5-3.5-.8Z"/><path class="c" d="M826.8,227.6l10.7,2.5L832,254l-10.7-2.5Z"/><path class="j" d="M877.9,267.1l-33.5-7.7-7.7-10.9,53,12.2Z"/><path class="c" d="M853.3,244v52l7.1,11.8h1.5L869,296V244Z"/><path class="a" d="M857.2,248v47.3l4,6.6,3.9-6.6V248Z"/><path class="c" d="M917.1,339.8l-55.2-1.4-56.6,1.4V322H917.1Z"/><path class="i" d="M805.3,333.9H917.1v5.9H805.3Z"/><circle class="f" cx="820.8" cy="339.8" r="10.2"/><path class="e" d="M825,339.8a4.2,4.2,0,1,0-4.2,4.2A4.23,4.23,0,0,0,825,339.8Z"/><circle class="f" cx="860.8" cy="339.8" r="10.2"/><path class="e" d="M865,339.8a4.2,4.2,0,1,0-4.2,4.2A4.23,4.23,0,0,0,865,339.8Z"/><circle class="f" cx="900.8" cy="339.8" r="10.2"/><path class="e" d="M905,339.8a4.2,4.2,0,1,0-4.2,4.2A4.23,4.23,0,0,0,905,339.8Z"/><path class="h" d="M1125,284.3h-10.9V263.4H1125l1.9,9.4Z"/><path class="c" d="M1145.9,284.3H1125V263.4h20.9l1.1,9.4Z"/><path class="h" d="M1145.9,284.3V263.4l15.2,6.7-6.6,8.5-8.6,5.7Z"/><path class="c" d="M1106.8,256.1h10.9v35.6h-10.9Zm63.2,54.3-24.1-26.1,15.2-14.2,9,9.7Z"/><path class="a" d="M1108.3,323.6l-70.5,2.7-64.5-2.7V205.8l20-40.9,44.5-3.7,50.5,3.7,20,40.9V323.6Z"/><path class="c" d="M1088.3,344.6l-50.5-2.3-44.5,2.3-20-21h135Z"/><path class="b" d="M978.3,205.8h124.9V318.3H978.3Z"/><path class="h" d="M986,337l7.3,7.6h95l7.3-7.6Z"/><path class="b" d="M1088.3,165.1l-47.5-4.5-47.5,4.5V139.8h95Z"/><path class="c" d="M993.3,156h95.1v9.1H993.3V156Z"/><path class="a" d="M998.3,145h7.2v6.5h-7.2Z"/><path class="f" d="M1009.8,145h7.5v1.5h-7.5Zm0,3h7.5v1.5h-7.5Z"/><path class="c" d="M1043.8,139.8l6.5-4.6,7.2,4.6Z"/><path class="h" d="M1057.5,139.8,1053,145l-6.1-1-3.1-4.2Z"/><path class="c" d="M993.3,344.6h95.1V350H993.3v-5.4Z"/><path class="c" d="M1033.6,284.5l-15.5,12.4-15.8,11.2-6.7-18.9,21.7-16.3,16.3,11.6Z"/><path class="h" d="M1002.3,308l31.3-23.6,1.7,2.2L1004,310.2l-1.7-2.2Zm10.5-40.8-21.5,16.2,1.1,2.3,1.7,1.4,21.5-16.2-.9-2.3-1.9-1.4Z"/><path class="c" d="M991.3,283.4l-5.9,10.2-.2,8.9,5.1-2.9,4.6-4.4-.8-8.1-2.8-3.7Z"/><path class="h" d="M985.2,302.5l9.7-7.3,1.3,1.8-9.7,7.3Z"/><path class="c" d="M1012.8,267.2l11.5-2.8,8.6,2.2-4.8,4.6-4.9,2.8-7.6-3.1Z"/><path class="h" d="M1034.1,268.4l-9.7,7.3-1.3-1.8,9.7-7.3,1.3,1.8Z"/><circle class="b" cx="1012.4" cy="288.9" r="6.7"/><path class="h" d="M1010.6,284.9a.93.93,0,1,1-1.3-.2A1,1,0,0,1,1010.6,284.9Zm5.2,7a.93.93,0,1,1-1.3-.2A.95.95,0,0,1,1015.8,291.9Zm-7.4-1.1a.93.93,0,1,1-.2,1.3A.95.95,0,0,1,1008.4,290.8Zm7-5.2a.93.93,0,1,1-.2,1.3A.95.95,0,0,1,1015.4,285.6Zm-4.5,7.5a.91.91,0,1,1,.8,1A.91.91,0,0,1,1010.9,293.1Zm1.2-8.6a.91.91,0,1,1,.8,1A1,1,0,0,1,1012.1,284.5Zm4.8,4.1a.85.85,0,0,0-1,.8.91.91,0,0,0,.8,1,.85.85,0,0,0,1-.8A1.05,1.05,0,0,0,1016.9,288.6Zm-8.6-1.2a.91.91,0,1,0,.8,1A1.05,1.05,0,0,0,1008.3,287.4Z"/><path class="f" d="M999.4,282.6l10.6-8,1.7,2.3-10.6,8Z"/><path class="f" d="M1076.5,315l-31.2-10.8,7.9-37.9,6.4-3.1,31.2,10.8Z"/><path class="e" d="M1058.5,265.9l28.6,9.9-12.4,35.7-2.9,1.9-29.6-10.3,13.4-36Z"/><path class="h" d="M1053.3,266.3l31.2,10.8-14.2,41-31.2-10.8Z"/><path class="b" d="M1058,275.3l17.1,5.9-2.6,7.6-17.1-5.9Z"/><path class="h" d="M1059.3,278.6l12.2,4.2-.2.7-12.2-4.2Zm1.5,2.6,7.9,2.8-.2.7-7.9-2.8Z"/><path class="e" d="M1027.2,248.3l4.5,4.5-3,2.2-4-2.3Zm-1.7-9,2.7,1.5-2.7,1.7-2.3-1.6,2.3-1.6Zm4.2-23.1,2,3.6-3,1.2-1.5-1.7ZM1008,230.6l1.8,2.7-5,2.9-1.4-3.7,4.6-1.9Zm60.6.9,4.1,4.7-4.7,2-1.7-3.3,2.3-3.4Zm15.1,21.5,3.4-1.3,1.2,4.4-4.6,1.7V253Zm-5.4,8.3,3.4-1.6v4.7l-3.4-1Zm1.7-33.6-1.7,3.8L1076,229l2-2.8Zm1.7-9.1-3.4-4.1-1.5,2,1.5,2.1Zm-52.3,10.5,3.5,1.5-1.2,2.8-2.3-.9v-3.4Zm-18.7,30.6,2.3-2.7,1.6,5-3.7,1.2-.2-3.5Z"/><path class="d" d="M1103.3,256.1h5.1v35.4h-5.1Z"/><path class="c" d="M1099.8,256.1h3.5v35.6h-3.5Z"/><path class="c" d="M270.3,327.1l-15.6-5.5-3.7,2-2.3,1.8,21.6,9.6.5-3.1Z"/><path class="i" d="M254.7,321.6l-6-14.5-1.9,2.3-1,3.6,2.9,12.4Z"/><path class="c" d="M248.7,307.1l-18.2,2,.8,1.2,2,1.5,12.5,1.2,2.9-5.9Z"/><path class="c" d="M233.3,311.8l-5.5,9.4,2.7-12.1Z"/><path class="i" d="M270.3,335h-9.6l4,15h4.6l-1.9-10,10.6,4-4.5-6.2Z"/><path class="f" d="M286.7,340.6l-4.8,1.2L278,344l16.4,6h8.5l-16.2-9.4Z"/><path class="i" d="M302.9,289.7l-6.5-10.4-2,11.5,6.7,8.4Z"/><path class="f" d="M302.9,289.7l8-8.5v8.5Z"/><path class="i" d="M302.9,289.7l19.7-2.1,4.1,1.1,1.2,3.9-10.5,11-9.4-7.7-5.1-6.2Z"/><path class="f" d="M302.9,289.7l-6.5,16.6,21-2.7Zm19.7-2.1,5.3,5,5.9-6.1-11.2,1.1Z"/><path class="a" d="M317.4,293.2a2.4,2.4,0,1,1-2.4-2.4A2.37,2.37,0,0,1,317.4,293.2Z"/><path class="i" d="M317.4,303.6l-27.8,25.5-7.3-8.4-5.5-14.4,40.6-2.7Z"/><path class="f" d="M276.8,306.3l-6.5,20.8,6.9-6.1,4.7-5.9Z"/><path class="c" d="M270.3,327.1l6.2-6.5,5.4-5.5,12.5,22.6L278,344Z"/><path class="i" d="M270.3,327.1l3.2,8.4L278,344l8.7-3.4,7.7-2.9-24.1-10.6Z"/><path class="c" d="M308.3,312l-8.3.3,5.2,12.2,2.9-1.9,1-2.4-.8-8.2Z"/><path class="i" d="M309.1,320.2l9.1,5.1-.8,1.1-2.4.6-9.8-2.5,3.9-4.3Z"/><path class="c" d="M322.3,319.2,339,282l6.2,11.5-11.4,31-6.1-5.1-5.4-.2Z"/><path class="f" d="M320.8,335l-4.6-2.1,7.6-17,3.9,3.5Z"/><path class="c" d="M318.2,325.3l6.8.1-.5,3.4-2.2,2.6L315,327Z"/><path class="i" d="M325,325.4a41.64,41.64,0,0,1,1.6,4,34.62,34.62,0,0,0-4.3,1.9l2.7-5.9Z"/><path class="f" d="M300,312.3l-1.7,8.9,4-3.4ZM278,344l-7.7-16.9V335Z"/><polygon class="q" points="394.81 350.13 399.15 343.06 394.49 331.22 390.4 337.27 391.81 350.13 394.81 350.13"/><polygon class="q" points="448.86 349.91 451.3 340.56 448.01 334.43 444.09 330.91 441.93 338.18 445.35 349.91 448.86 349.91"/><polygon class="l" points="433.07 247.6 478.42 293.58 443.62 227.04 435.82 232.53 433.07 247.6"/><polygon class="r" points="435.82 244.71 478.42 293.58 452.93 323.39 439.75 281.05 435.82 244.71"/><polygon class="s" points="360.48 316.6 452.93 323.39 444.9 302.95 379.64 292.49 360.48 316.6"/><polygon class="t" points="405.43 330.36 406.54 300.98 384.38 300.98 394.49 331.22 402.08 338.04 405.43 330.36"/><polygon class="t" points="454.11 328.56 449.02 306.98 428.08 306.98 444.09 330.91 451.73 340.18 454.11 328.56"/><polygon class="u" points="449.02 306.98 433.07 302.74 424.07 300.98 432.27 313.24 449.02 306.98"/><polygon class="u" points="405.59 326.23 391.84 323.3 393.5 328.26 405.59 326.23"/><polygon class="v" points="444.09 330.91 454.11 328.56 476.02 349.91 455.4 349.91 444.09 330.91"/><polygon class="v" points="394.49 331.22 405.43 330.36 415.96 350.13 394.81 350.13 394.49 331.22"/><polygon class="i" points="419.88 193.38 435.82 244.71 443.62 227.04 446.25 186.18 419.88 193.38"/><polygon class="w" points="334.44 76.9 323.35 105.11 299.84 136.35 307.65 83.83 334.44 76.9"/><polygon class="x" points="326.9 194.39 302.07 177.09 325.26 170.13 333.97 173.31 326.9 194.39"/><polygon class="x" points="334.44 76.9 299.84 136.35 332.85 126.21 334.44 76.9"/><polygon class="y" points="365.86 152.23 326.9 194.39 323.35 137.24 365.86 152.23"/><polygon class="z" points="299.84 136.35 323.35 124.29 341.08 130.57 357.47 140.29 365.86 152.23 299.84 136.35"/><polygon class="y" points="323.35 124.29 355.09 141.09 341.57 120.05 323.35 124.29"/><polygon class="v" points="384.38 238.76 418.16 236.36 434.11 250.58 449.02 306.98 406.54 300.98 384.38 238.76"/><polygon class="aa" points="408.83 157.67 424.38 196.92 446.25 186.18 446.61 180.59 424.38 155.16 408.83 157.67"/><polygon class="ab" points="410.89 60.74 416.53 64.74 439.75 129.38 414.24 140.54 404.19 172.35 379.64 158.93 348.44 121.46 339.46 69.43 391.56 45.83 410.89 60.74"/><polygon class="t" points="404.19 172.35 408.62 163.92 406.85 163.92 394.66 152.37 368.76 87.25 359.27 79.16 339.46 124.91 355.09 141.09 359.4 143.45 365.86 152.23 379.64 166.49 390.6 172.35 404.19 172.35"/><polygon class="u" points="384.38 153.65 406.85 163.92 406.85 163.92 412.42 153.57 414.24 140.54 384.38 153.65"/><polygon class="w" points="359.27 79.16 387.61 69.04 396.6 59.08 391.99 43.3 336.53 67.99 346.37 82.75 359.27 79.16"/><polygon class="u" points="355.09 141.09 359.7 134.66 365.86 152.23 355.09 141.09"/><polygon class="ab" points="355.09 141.09 362.55 130.7 345.34 111.34 339.46 124.91 355.09 141.09"/><polygon class="u" points="347.21 118.52 353.96 126.77 342.85 124.66 347.21 118.52"/><polygon class="ac" points="366.79 134.97 363.4 138.37 356.21 131.16 359.77 127.58 366.79 134.97"/><polygon class="ad" points="416.95 110.19 414.3 115.36 407.89 113.47 416.95 110.19"/><polygon class="ae" points="375.95 90.56 380.69 89.69 383.8 85.81 390.6 85.81 381.5 83.65 375.95 90.56"/><polygon class="ae" points="406.1 81.39 409.74 80.17 412.17 74.43 417.43 74.43 410.39 72.41 406.1 81.39"/><polygon class="af" points="394.12 128.05 403.5 125.54 411.76 128.05 406.85 122.72 403.7 123.66 402.03 122.09 394.12 128.05"/><polygon class="ag" points="394.62 127.92 399.73 129.73 408.83 127.16 403.5 125.54 394.62 127.92"/><polygon class="ah" points="424.1 98.65 414.92 105.11 412.31 100.77 424.1 98.65"/><polygon class="ah" points="383.28 113.47 406.39 109.73 406.27 103.28 383.28 113.47"/><polygon class="ah" points="377.89 98.63 397.33 98.47 394.94 92.43 377.89 98.63"/><polygon class="ah" points="419.59 83.5 414.24 92.05 411.76 86.27 419.59 83.5"/><polygon class="x" points="391.99 43.3 387.61 69.04 410.89 60.74 391.99 43.3"/><polygon class="z" points="345.34 111.34 359.77 127.58 365.83 118.64 350.52 99.37 359.27 79.16 336.53 67.99 323.35 124.29 334.43 124.72 339.46 124.91 345.34 111.34"/><polygon class="l" points="385.68 186.64 383.24 198.08 402.94 207.61 409.95 204.11 396.73 187.69 396.73 187.69 385.68 186.64"/><polygon class="l" points="407.96 160.48 429.11 194.59 437.46 170.13 407.96 160.48"/><polygon class="r" points="424.38 155.16 452.25 136.08 477.7 140.44 446.61 180.59 424.38 155.16"/><polygon class="ai" points="477.7 140.44 480.38 105.23 470.55 98.06 452.25 136.08 477.7 140.44"/><polygon class="l" points="468.44 74.41 460.31 53.01 452.33 55.21 456.4 76.78 448.02 107.14 454.93 112.86 471.27 108.35 487.61 103.85 490.62 95.4 468.44 74.41"/><polygon class="aj" points="487.7 96.1 475.71 84.75 455.15 90.75 450.87 106.24 455.52 110.09 485.68 101.78 487.7 96.1"/><polygon class="ab" points="466.71 76.26 471.85 64.37 483.36 81.82 482.14 87.37 475.7 84.83 466.71 76.26"/><polygon class="t" points="458.85 74.26 467.27 87.21 475.7 84.83 471.85 64.37 458.85 74.26"/><rect class="ak" x="456.71" y="103.06" width="3.18" height="3.18" transform="translate(170.51 476.37) rotate(-65.11)"/><rect class="ak" x="456.42" y="99.07" width="1.37" height="1.37" transform="translate(173.89 472.17) rotate(-65.06)"/><rect class="ak" x="461.65" y="102.76" width="1.37" height="1.37" transform="translate(173.65 479.1) rotate(-65.07)"/><rect class="ak" x="461.65" y="98.74" width="1.37" height="1.37" transform="translate(177.3 476.78) rotate(-65.07)"/><polygon class="al" points="408.62 241.56 449.02 306.78 435.82 244.71 422.71 240.42 408.62 241.56"/><polygon class="q" points="428.19 212.83 424.38 196.95 405.59 203.24 408.62 241.35 408.83 241.58 435.82 244.71 428.19 212.83"/><polygon class="af" points="345.34 111.34 342.23 118.52 339.46 109.22 372.38 96.18 375.95 105 345.34 111.34"/><polygon class="am" points="416.95 110.19 407.89 113.47 397.33 87.11 406.39 83.83 416.95 110.19"/><path class="af" d="M413.9,102.36l22.76-8.28-7.35-18.55L372.38,96.18l7.51,18.53,24.79-9L398.88,91,408,87.67Zm-31.65,7-4.36-10.76,17.05-6.2,4.27,10.77Zm48.93-17.77L416.26,97,411.9,86.28l15-5.43Z"/><polygon class="aa" points="379.64 166.49 398.53 190.59 402.94 207.61 408.62 241.56 405.59 326.23 360.48 316.6 389.61 236.36 360.48 185.6 379.64 166.49"/><polygon class="r" points="408.62 241.56 360.48 316.6 384.38 238.76 397.33 236.36 408.62 241.56"/><polygon class="s" points="409.95 204.13 390.61 207.61 376.34 220.88 384.38 238.76 408.62 241.56 408.62 241.56 409.95 204.13 409.95 204.13"/><polygon class="l" points="379.64 166.49 375.31 190.02 398.53 190.59 391.92 179.3 379.64 166.49"/><polygon class="al" points="404.19 172.35 399.31 180.59 393.15 183.72 379.64 166.49 404.19 172.35"/><polygon class="q" points="404.22 172.36 404.19 172.35 393.15 183.72 398.53 190.59 406.13 184.13 404.22 172.36"/><polygon class="ai" points="360.48 185.6 376.34 220.88 429.11 194.59 414.24 190.08 398.53 190.59 360.48 185.6"/><polygon class="r" points="429.1 194.59 424.38 155.16 418.68 148.38 411.76 148.38 398.53 190.59 429.1 194.59"/><polygon class="t" points="411.76 148.38 417.89 128.25 428.82 132.97 434.11 141.9 424.38 155.16 411.76 148.38"/><polygon class="t" points="417.89 128.25 432.44 123.86 439.75 129.38 430.81 132.69 417.89 128.25"/><polygon class="ab" points="417.89 128.25 439.75 129.38 441.15 139.38 434.11 141.9 417.89 128.25"/><circle class="an" cx="392.76" cy="100.34" r="2.55"/><circle class="an" cx="420.83" cy="89.95" r="2.55"/></svg>