<svg xmlns="http://www.w3.org/2000/svg" viewBox="0 0 1170 350"><defs><style>.a,.f{fill:#dddddc;}.b{fill:#c4c4c4;}.ab,.ad,.ao,.c,.g,.p,.r,.t,.z{fill:#2b2b2b;}.aa,.ae,.af,.ag,.ah,.ai,.aj,.ak,.al,.am,.an,.ao,.ap,.aq,.ar,.as,.at,.au,.c,.d,.e,.f{fill-rule:evenodd;}.c,.g{opacity:0.1;}.ab,.ad,.c,.g,.p,.r,.t,.z{isolation:isolate;}.d,.s{fill:#9da1a2;}.e,.m{fill:#fff;}.h,.k,.n,.o,.w{fill:none;stroke-miterlimit:10;}.h{stroke:#a3a3a3;}.h,.o{stroke-width:2px;}.i{fill:#8f8f8f;}.aa,.j{fill:#a3a3a3;}.k,.o{stroke:#c4c4c4;}.l{fill:#cececd;}.n{stroke:#9da1a2;stroke-width:3px;}.p{opacity:0.11;}.q{fill:#858686;}.r{opacity:0.13;}.t{opacity:0.2;}.ap,.u{fill:#6f7173;}.v{fill:#737373;}.w{stroke:#cececd;}.x{fill:#ececeb;}.aj,.y{fill:#4f5253;}.z{opacity:0.14;}.ab{opacity:0.18;}.ac{fill:#474747;}.ad{opacity:0.16;}.ae{fill:#dfbda5;}.af{fill:#8b6651;}.ag{fill:#c3987b;}.ah{fill:#e8cab6;}.ai{fill:#369496;}.ak{fill:#72cbcc;}.al{fill:#8ce0dc;}.am{fill:#27788c;}.an{fill:#318fa6;}.aq{fill:#50a9aa;}.ar{fill:#1c7678;}.as{fill:#5ec0d9;}.at{fill:#3aa0ba;}.au{fill:#73cfe5;}</style></defs><title>isfj-defender-personality-header</title><path class="a" d="M0,0H1170V350H0Z"/><path class="b" d="M0,186.7H1170V350H0Z"/><path class="c" d="M434,259.1H204.5l-8.5-7.6V240.6l224,.5V227.8l14.5,9.8Z"/><path class="d" d="M196,21.4H407V227.8H196Z"/><path class="e" d="M213.5,41.2h176V207.8h-176Z"/><path class="d" d="M292.7,30.9h17.5V221.3H292.7Z"/><path class="d" d="M202.7,134.5V117.6H400.2v16.9Z"/><path class="f" d="M184.5,227.8H420v14H184.5Z"/><path class="g" d="M693.6,42.9,664.8,25.4a6.46,6.46,0,0,0,.4-1.9,5.1,5.1,0,1,0-9.2,3L629.5,42.9Zm-57.1-2,21-13a5,5,0,0,0,6.1-.8l22.7,13.8Z"/><path class="c" d="M787,158.3H541.5l-5-4.8,5-112.6,240.4-4,5.1,4Z"/><path class="h" d="M659.3,21.4,631,38.9h57Z"/><circle class="i" cx="659.1" cy="21.4" r="5.1"/><path class="e" d="M539,38.9H779.5V151H539Z"/><path class="j" d="M782,153.5H536.5V36.4H782Zm-240.5-5H777V41.4H541.5Z"/><path class="h" d="M556,120h75"/><path class="k" d="M724.5,136V55.5"/><path class="h" d="M688,56h22.5M688,62h22.5M688,68h22.5M688,74h16.5M556,128h75m-75,8h35"/><path class="b" d="M642,109.5h32V136H642Z"/><path class="l" d="M688,86.8h22.5v49.3H688Z"/><path class="h" d="M738,56h22.5M738,62h22.5M738,68h22.5M738,74h16.5"/><path class="l" d="M738,86.8h22.5v49.3H738Z"/><path class="g" d="M889.6,52.3l-9.4-8.5a4.55,4.55,0,0,0,.5-2,4.5,4.5,0,1,0-9,0,4,4,0,0,0,.6,2.2l-9.6,8.3,1.3,1.5,9.6-8.3a4.38,4.38,0,0,0,2.5.8,5.12,5.12,0,0,0,2.7-.9l9.4,8.5Z"/><path class="g" d="M910,140.5H844v-88h66Z"/><path class="i" d="M887.6,50.3l-9.4-8.5a4.55,4.55,0,0,0,.5-2,4.5,4.5,0,1,0-9,0,4,4,0,0,0,.6,2.2l-9.6,8.3,1.3,1.5,9.6-8.3a4.38,4.38,0,0,0,2.5.8,5.12,5.12,0,0,0,2.7-.9l9.4,8.5Z"/><path class="m" d="M842.5,51h63v85h-63Z"/><path class="n" d="M842.5,51h63v85h-63Z"/><path class="l" d="M851.7,88.7H871V128H851.7Z"/><path class="o" d="M876.7,105H896v23H876.7Z"/><path class="o" d="M851.7,61.3H871m5.7,0H896m-19.3,5H896m-19.3,5H896m-19.3,5h15m-15,5H896m-19.3,5H896m-19.3,5h15m-15,5h9.9m-34.9-30H871m-19.3,5H871"/><path class="p" d="M56.7,350V320.7H159.9l-1.2,29.5L196,350V78.2L174.7,56,61.3,221.8l-28,26.9V350.2Z"/><path class="g" d="M130,27.7l12,10-.7,7.8h10.5L162,61.3l-53.3,5-6-35.7Z"/><path class="q" d="M53,41.4h69.3V56H53Z"/><path class="r" d="M116,41.4H53v5.3h57Z"/><path class="s" d="M48.3,34H116v7.4H48.3Z"/><path class="i" d="M65,21.4h65V33.9H65Z"/><path class="i" d="M24,56V350.2H42.9V300.8H155.8v49.4h18.9V56Z"/><path class="l" d="M42.9,77.2H155.7v91.1H42.9Zm0,109.6H155.7v94H42.9Z"/><path class="t" d="M57.3,236.5l5.2-5.2,5.2,5.2-5.2,5.2Z"/><path class="a" d="M56.9,233.7l5.2-5.2,5.2,5.2-5.2,5.2Z"/><path class="t" d="M57.3,124.5l5.2-5.2,5.2,5.2-5.2,5.2Z"/><path class="a" d="M56.9,121.7l5.2-5.2,5.2,5.2-5.2,5.2Z"/><path class="u" d="M258.3,317.2l19.1-30.5,11.9,9.6-22.8,20.9Z"/><path class="s" d="M289.3,296.3l13.2,6.8L288.8,283l-14.6,6.4,15.1,6.9Z"/><path class="q" d="M254.7,315.4,270.6,278l12.8,6-21.9,32.3Zm-9.1,2.7L236,289l-7.3,9.1Z"/><path class="q" d="M251.9,315.4l-3.6-26.9-4.1,29.6,7.7-2.7Z"/><path class="j" d="M236,289l-14.6,27.8-.9-22.8Zm34.6-11,20.5.9-1.8,34.2Z"/><path class="q" d="M251.9,315.4l4.6-31.4-10.9-20.1,2.7,24.6,3.6,26.9Z"/><path class="s" d="M251.9,315.4l-3.6-26.9,20-18.2-10,46.9Zm-7.7,2.7,4.1-29.6L226,274.4Z"/><path class="j" d="M248.3,288.5l-15.5,1.4L226,274.4Zm0,0h15.5l4.5-18.2-20,18.2Z"/><path class="q" d="M270.6,350H241.9l-9.1-37.8h46.9Z"/><path class="j" d="M235,321.2h42.5l2.2-9H232.8l2.2,9Zm40.4,8.8,1-4.1H236.1l1,4.1Z"/><path class="m" d="M983.3,51h149.3V350H983.3Z"/><path class="i" d="M969.3,36.4V350h18V332.3l1.7-32.5-1.7-133V54.4h141.4l-3.4,138.8,3.4,156.8h18V36.4Z"/><path class="b" d="M1080.7,36.4h12.7V350h-12.7Z"/><path class="j" d="M1128.7,350h-35.4l-2-151.7,2-161.9,35.4,18Z"/><path class="g" d="M1097.3,224.9l6.1,19.4,4.5-8.6v-12l-10.6,1.2Z"/><path class="s" d="M1106.4,224.9l-.7,7.2h-3.8l-4.6-7.2,4.6-7.3h3.8Z"/><path class="i" d="M1106.4,224.9l-.7,7.2h-3.8l-4.6-7.2Z"/><path class="a" d="M1114.7,224.9l-6.8,10.8-6.8-10.8,6.8-10.8Z"/><path class="g" d="M1128.7,54.4l41.3,62.1V350h-41.3Z"/><path class="g" d="M678,350H443.5l.3-131.3L663,217.6l15,8.9Z"/><path class="i" d="M428.5,217.6H663V350.1H428.5Z"/><path class="b" d="M443,231.1H557V336.7H443Z"/><path class="u" d="M569,231.1h79.3v42.2H569V231.1Zm0,53.8h79.3v51.8H569Z"/><path class="t" d="M455.3,282.5l5.2-5.2,5.2,5.2-5.2,5.2Z"/><path class="a" d="M454.9,279.7l5.2-5.2,5.2,5.2-5.2,5.2Z"/><path class="b" d="M603.3,273.3H578V251l12.6-2.7,12.7,2.7Z"/><path class="v" d="M580.3,259.1H601v12.2H580.3Z"/><path class="l" d="M603.3,251H578l10-8h5.3Z"/><path class="i" d="M588,238.6h5.3V243H588Z"/><path class="s" d="M641.3,245.5l-14.7-1-14.6,1v27.8h29.3V245.5Z"/><path class="v" d="M616.2,249.5h20.9v19.8H616.2V249.5Z"/><path class="b" d="M612,238.6h29.3v6.9H612Z"/><path class="w" d="M620,255.3h12.3m-12.3,3h6.6"/><path class="q" d="M607.3,304.1h19.8v32.5H607.3Zm-32,16.3h27v16.3h-27Z"/><path class="i" d="M575.3,320.4h27v4.3h-27Z"/><path class="s" d="M617.3,297.3h24v39.4h-24Z"/><path class="w" d="M623.3,305.8H636m-12.7,3H636m-12.7,3H636m-12.7,3H636"/><path class="u" d="M475.3,184.3l-17.1,26.3,21.5,25.9,18.6,2.1,14.7-3.4,3.7-57.3-41.4,6.4Z"/><path class="b" d="M441,97.8l-11.3,9,5.6,18.3,5.7-13.6V97.8Z"/><path class="m" d="M441,97.8l48.2-15.3L523,142.7Z"/><path class="x" d="M493.4,90,523,97.8v44.9Zm-2.6,34,14,47.2L527,158.3l-4-15.6Z"/><path class="m" d="M527,158.3l-22.2,12.9-18,15.6,23.5,3.4Z"/><path class="x" d="M441,97.8l-13.2,63.5,41.5,10.4,9.5,18.7,26-22.4-14-44Z"/><path class="l" d="M490.8,124l-11.3,49.9-10.2-2.2,8.4,22.6L509,168.7,490.8,124Zm-47-5.9,31.5,8.8-20.1,13.6Z"/><path class="m" d="M460.5,122.8l-5.3,17.7-4.9-1.3,4.3-18.1Z"/><path class="j" d="M455.2,140.5l-3.5,2.3-1.4-3.6Zm14.1,31.2,17.5,3.3-9.1,19.3Zm35.8-12.5-8.6-1.9,5.3,8.4,7.2,3Z"/><path class="q" d="M443.6,149.9l7.8-1.6,6.8,4.5h-7.8Z"/><path class="j" d="M443.6,149.9l6.8,2.9h7.8l-8.5,2.8-6.1-5.7Z"/><path class="m" d="M475.3,126.9l-9-5.8-5.8,1.7Zm-31.5-8.8,9-1.8,1.8,4.8Z"/><path class="b" d="M527,158.3v19.6l-6.1,8.8-10.6,3.5L527,158.3Z"/><path class="y" d="M470.7,132.7a3.3,3.3,0,1,1-3.3-3.3A3.2,3.2,0,0,1,470.7,132.7Zm-21.5-5.8a3.3,3.3,0,1,1-3.3-3.3A3.27,3.27,0,0,1,449.2,126.9Z"/><path class="z" d="M441,97.8l47.5,36.4,16.6,25L490.8,124Z"/><path class="s" d="M479.7,236.5v8l13.7,3.6,23.6-2.6-4-10.3Z"/><path class="v" d="M479.7,244.5l-8.5,48.6,12.8-5.3,5.2-43-9.5-.3Z"/><path class="u" d="M471.2,293.1,500,328.6l11.7,7.1,15.3,1-27.3-51.8L482,282.5l-10.8,10.6Z"/><path class="v" d="M500,328.6l-9.2,14.6,18.1,1.3,18.1-1.3v-6.5Z"/><path class="u" d="M490.8,343.2H527V350H490.8Z"/><path class="q" d="M479.7,244.5l6.9,21.6,6.8-21.9-13.7.3Z"/><path class="q" d="M493.4,244.2l-25.5,56.2,8.8,10.4,14.1,6.2L517,262.7V245.5l-23.6-1.3Z"/><path class="a" d="M490.8,317,484,330.7l-13-8.1-8.5-11.8,5.4-10.4L490.8,317Z"/><path class="x" d="M462.5,310.8l-4.3,9.6,4.3,12.6,12.8,17,8.7-19.3-21.5-19.9Z"/><path class="a" d="M458.2,320.4h-9l-3.3,10.3,3.3,11,26.1,8.3-17.1-29.6Z"/><path class="x" d="M449.2,320.4l-9.4-2.7-5.7,13,15.1,11Z"/><path class="v" d="M518.3,175l8.4,42.6H497.8l5-28.5L518.3,175Z"/><path class="aa" d="M540.1,224.2l-9.2-1.9v53.1l-19.3,17.7-19.4-17.7V222.3l-9.2,1.9v56.9l24,21.6v35l4.6,2.8,4.5-2.8v-35l24-21.6V224.2Z"/><path class="d" d="M540.1,224.2H483v-6.6h57.1ZM507,337.7h9.1v12.4H507Z"/><path class="aa" d="M492.2,254.5H531V264H492.2Z"/><path class="x" d="M526.7,217.6,517,249.5h-4.5l-4.3-2.5V217.6Z"/><path class="m" d="M517,249.5l2.5,5-8.5.8-7.2-.8,4.4-7.5Z"/><path class="l" d="M519.5,254.5l-3.1,9.4H505.9l-2.1-9.4Z"/><path class="r" d="M497.8,217.6l10.4,6.6v-6.6Zm21.7,36.9v9.4h-3.1Z"/><path class="l" d="M223.8,231.1l8.2-9.3,7.3,10.6L226,242.9Z"/><path class="x" d="M232,221.8l10.7-.5,7.6,5.1-11,6Z"/><path class="j" d="M232.7,237.6l6.6,3.8-2.6,2.1-10.7-.6Z"/><path class="i" d="M179,221.2l24.8,15.3-1.1,13.2-26-6.4Z"/><path class="j" d="M202.7,249.7l24.1-4-3-14.6-20,5.4-1.1,13.2Z"/><path class="s" d="M151.8,323.8,162,339.5h14.7l7.1-3.8L201.4,306l-32.6,7.5-17,10.3Z"/><path class="q" d="M162,339.5l-2.1,10.7,39.9-.2-16-14.3L162,339.5Z"/><path class="s" d="M179,221.2l-.8,45.8L154,276.3l-31.7,4.5,16.5-75.7Z"/><path class="q" d="M178.2,267l23.2,39-49.6,17.8-29.5-43,29.5-4.3,26.4-9.5Z"/><path class="ab" d="M126.8,260l25,16.5,4-10.9Z"/><path class="u" d="M174.7,350h-5.4l-2-83h9.4Z"/><path class="t" d="M176.4,280.8l.2-7.5h-9.2l.2,7.5Z"/><path class="u" d="M182.7,276.5H151.8V267h24.4Z"/><path class="s" d="M120.5,188.3l-4.2,26.6,22.5-9.8Z"/><path class="q" d="M137.8,151l-23.5,35.7,37.5,28.2Z"/><path class="s" d="M173,139.2l-38,2.2,7,30.3,19.5-16.3Z"/><path class="q" d="M224.3,126.6,229,158l-18.7,25-6.5-41.6Z"/><path class="x" d="M208.5,141.4l11,66.6-30.2,5.7-15,9.4-17.5-5.6-5.3-18Z"/><path class="l" d="M168.5,182.2l7,34.4,13.8-2.9-15,11.4-18.6-11.4-4.2-14.2,17-17.3Z"/><path class="j" d="M189.3,213.7l-20.5,3.9,5.5,7.5Z"/><path class="l" d="M178.2,172.2l7.1-7.2,7.3-1.6,14.4,2.9-8.5,22-3.9,1.2-16.4-17.3Z"/><path class="m" d="M192.6,163.4l8.8,17.3-.9,7.6-5.9,1.2.7-8.7-10-15.8,7.3-1.6Z"/><path class="j" d="M200.5,188.3l-3,5-2.9-3.8ZM189.3,201l13.4-4.2v2.1l-13.4,4.7Z"/><path class="q" d="M207,166.3l-9.4-5-5,2.1Z"/><circle class="ac" cx="203.8" cy="174.1" r="2.4"/><circle class="ac" cx="183.8" cy="178.1" r="2.4"/><path class="b" d="M224.3,126.6,157,196.8l-15-25.1,39.4-40.9,42.9-4.2Z"/><path class="s" d="M142,171.7l37,49.5-10.2,6.3-17-12.6Z"/><path class="q" d="M175.5,216.6l-23.7-1.7L173,226.7l6-5.5Z"/><path class="m" d="M162,267l5.3-7,10.9-5.2.1,9.1-5.3,7.9Z"/><path class="x" d="M178.2,254.8l9.6,16-5.1,5.7-9.7-4.7,5.2-17Z"/><path class="i" d="M151.8,214.9,147,250l-5,5.3L126.8,260l12-54.9,13,9.8Z"/><path class="b" d="M147,250l20.3,10-3.5,11.8-37-11.8Z"/><path class="l" d="M179,221.2l10.3-.4,2.6,8.4-8.1,1.1Zm0,0-3.7,9.1-9,1.1,4.1-10.1,8.6-.1Z"/><path class="q" d="M1027.7,344.3V350h38l-14.2-14.3-14.5,2.9-9.3,5.7Z"/><path class="j" d="M1043.7,266l7.8,69.7L1030,340l-27-55.7-15.7,48V253l36,5.5Z"/><path class="i" d="M1043.7,266,1003,284.3l-15.7-16V253Z"/><path class="ad" d="M969.3,148.6l18,13.7V150.5Z"/><path class="j" d="M1044.7,172l-1,94-56.4-13V166.8l11.4-2.8Z"/><path class="x" d="M1038.7,162.9l6,9.1L1011,185.7,998.7,164l10.8-4.1Z"/><path class="q" d="M987.3,83.8l33.2-6.3-3.7,8.8-8,4.9h-9Z"/><path class="v" d="M1020.5,77.5l31.4,14.8-5.1,4.2-6.2.2L1024,94.9l-15.2-3.7,11.7-13.7Zm20.1,79.2,8.2,12L1019,193.2l-5.4,24.4h-4.8l4.8-25.6-15.7-27.9,5.1-10.6,4,3-4,5.9,13.8,24.3,24.6-19L1037,160l3.6-3.3Z"/><path class="x" d="M987.3,83.8l-18,64.8,40.2,11.3,4,8.8,24.9-9.2,13.5-35.1-11.3-27.7-31.8-5.5Z"/><path class="l" d="M1040.6,96.7,1019.3,163l-9.8-3.1L1015,172l6.5-1.6,16.9-6.9,17.5-37.1Z"/><path class="v" d="M1013.6,217.6l6.9,33.1-6.9,1.3-4.8-34.4Z"/><circle class="q" cx="1017.73" cy="254.71" r="8.1" transform="translate(291.63 1011.96) rotate(-60.25)"/><path class="b" d="M1021.4,254.7a3.7,3.7,0,1,1-3.7-3.7A3.76,3.76,0,0,1,1021.4,254.7Z"/><path class="j" d="M1009.5,159.9l14.5,3.9-2.5,6.6-8,3.3Zm34.8-8.9-7.3-2.5,4.7,8,2.6-5.5Zm-3.7-5.7,2.7-7,3.5,1.5Z"/><path class="q" d="M1040.6,96.7l11.3-4.4,10.6,16-8.7,2-8.5-3-4.7-10.6Z"/><path class="v" d="M1062.5,108.3V128l-11.7,9.2-9-3.9-2.5,3.9-4.3-2.8,10.3-27.1Z"/><path class="l" d="M989.8,103.8H1000l8.8,2.6,13,7.1-21.3,14.7Z"/><path class="m" d="M1008.8,106.4l-8.3,21.8-6.7-2,6.2-22.4Z"/><path class="j" d="M1000.5,128.2l-4.2,3.6-2.5-5.6,6.7,2Z"/><path class="v" d="M1021.8,113.5l-9.8-9.7-3.2,2.6Zm-21.8-9.7V99.5l-10.2,4.3Z"/><circle class="ac" cx="1013.6" cy="116.5" r="3"/><circle class="ac" cx="992.8" cy="110.3" r="3"/><path class="ad" d="M978,220.7l9.3,5.8v3.6l56.4,14.2V226.6l-19.7-5.9Z"/><path class="j" d="M988,134l16.5,6.5-.2,7.3L988,142.5Z"/><path class="m" d="M990.3,137l-.5,3.5,13.2,2.8-.2-2Z"/><path class="b" d="M1044.7,172l12.2,10.8,4.4,44.5-20.7-9.7-8.9-12.9,13-32.7Z"/><path class="x" d="M1061.3,227.3l-61.3-2.4-1.3-7.3,3.3-4.6,29.7-8.3Z"/><path class="l" d="M1002,213l-14.7-9L985,215l2.3,8.7,12.7,1.2Z"/><path class="x" d="M987.3,204,976,212l2,8.7,9.3,3Z"/><path class="q" d="M987.3,190.7l18.5,5.3-1.3,4.5-17.2-4.9v-4.9Z"/><path class="i" d="M1003,284.3l48.5,51.4-23.8,8.6-24.7-60Z"/><circle class="u" cx="715.39" cy="340.34" r="9.6" transform="translate(220.4 958.89) rotate(-76.77)"/><path class="b" d="M719.4,340.4a4.1,4.1,0,1,1-4.1-4.1A4.06,4.06,0,0,1,719.4,340.4Z"/><path class="t" d="M707.2,335.3h16.3a9.62,9.62,0,0,0-8.2-4.5A9.45,9.45,0,0,0,707.2,335.3Z"/><path class="q" d="M718.4,291l8.8-10.7-7.8-1.6-8.1,1.6v47.2l-6,5.5h19.9l-6.8-5.8V291Z"/><circle class="u" cx="745.39" cy="340.34" r="9.6" transform="translate(243.54 988.09) rotate(-76.77)"/><path class="b" d="M749.4,340.4a4.1,4.1,0,1,1-4.1-4.1A4.06,4.06,0,0,1,749.4,340.4Z"/><path class="t" d="M737.2,335.3h16.3a9.62,9.62,0,0,0-8.2-4.5A9.45,9.45,0,0,0,737.2,335.3Z"/><path class="q" d="M748.4,291l8.8-10.7-7.9-1.6-8,1.6v47.2l-6,5.5h19.9l-6.8-5.8Z"/><path class="t" d="M748.4,295.5V291l8.8-10.7-7.9-1-8,1v10.5l7.1,4.7Z"/><path class="u" d="M922.6,340.4a9.6,9.6,0,1,0,9.6-9.6A9.6,9.6,0,0,0,922.6,340.4Z"/><path class="b" d="M928.1,340.4a4.1,4.1,0,1,0,4.1-4.1A4.12,4.12,0,0,0,928.1,340.4Z"/><path class="t" d="M940.4,335.3H924.1a9.62,9.62,0,0,1,8.2-4.5A9.45,9.45,0,0,1,940.4,335.3Z"/><path class="q" d="M929.1,291l-8.8-10.7,8.7-1.9,7.2,1.9v47.2l6,5.5H922.3l6.8-5.8Z"/><circle class="u" cx="902.22" cy="340.37" r="9.6" transform="translate(-48.48 179.04) rotate(-11.04)"/><path class="b" d="M898.1,340.4a4.1,4.1,0,1,0,4.1-4.1A4.12,4.12,0,0,0,898.1,340.4Z"/><path class="t" d="M910.4,335.3H894.1a9.62,9.62,0,0,1,8.2-4.5A9.45,9.45,0,0,1,910.4,335.3Z"/><path class="q" d="M899.1,291l-8.8-10.7,8-1.9,7.9,1.9v47.2l6,5.5H892.3l6.8-5.8Z"/><path class="t" d="M899.1,295.5V291l-8.8-10.7,8-1.9,7.9,1.9v10.5l-7.1,4.7Z"/><path class="q" d="M703,262.6H945v17.8H703Z"/><path class="q" d="M703,267.5v-68c0-10.6,7.4-19.2,16.4-19.2s16.4,8.6,16.4,19.2v58.2h7.8V199.5c0-15.6-10.9-28.3-24.2-28.3s-24.2,12.7-24.2,28.3v68Zm242,0v-68c0-10.6-7.4-19.2-16.4-19.2s-16.4,8.6-16.4,19.2v58.2h-7.8V199.5c0-15.6,10.9-28.3,24.2-28.3s24.2,12.7,24.2,28.3v68Z"/><path class="x" d="M878.3,257.7l33.9-36.9,32.8,8.1v30.8Z"/><path class="j" d="M945,228.9l-20.9,28.8,20.9,2V228.9Z"/><path class="a" d="M901.3,257.7l-11.5-12.6-43.3-3.6L785,248.7l-41.4-7.2L703,257.7Z"/><path class="j" d="M703,257.7l43.3-6.7,37.7,6.9-33.1,1.8Zm163,0,19.3-3.8,16,3.8L885.9,259,866,257.7Z"/><path class="s" d="M703,257.7H945v9.8H703Z"/><path class="t" d="M945,267.5H862.2l2.5-4.8-3.2-1.3-8.2,6.1h-4.2l3.2-7.8-1.8-1.9L834,264.1l-.1,1.7H797.2l-2-6.1L784,257.9l4.2,9.6H703v4h84.1l2.5,8.8h12.5l-3-8.8h34.3l-.7,8.8h12.5l2.4-8.8h1.7l5.2,8.8,4.2-5,1.4-3.8H945v-4Z"/><path class="v" d="M839.9,267.5l10.7-9.8L844,231.5l-4.1,36Zm-49.3-4.8-6.6-5,2-17.3,9.2,7.4-4.6,14.9Z"/><path class="v" d="M778.2,190.2,772.6,234l13.4,6.4L785,211l-6.8-20.8Z"/><path class="x" d="M874,215.7l-8.3,33-9.7-2-2.7-24.5Z"/><path class="m" d="M866,257.7V247.5l-10.2-2.4-6.2,8.8,4.1,8.8,12.3-5Z"/><path class="l" d="M866,257.7l-16.4-3.8,3.7,13.6,11.4-4.9Z"/><path class="ad" d="M874,215.7l-19.7,15.8-1-9.3,7.7-6.5Z"/><path class="v" d="M856,175.3l18,40.4-24.9,7.8V199.4Z"/><path class="i" d="M832.5,166.6l23.5,8.7-9.5,66.2-55.9-5.6-12.4-45.7L797,179Z"/><path class="x" d="M746.2,136l32,54.2,18.8-9.5,19-.4,12.7-15.4,1-36-31-13.6h-6.9Z"/><path class="l" d="M791.8,115.3,819,169l-22,11.7,19,3.5,16.5-17.6V131.4L798,111.7Z"/><path class="j" d="M797,180.7l27-14.1-8,17.6Zm35.5-36.8-9.8,2.9,9.8,5.1Zm-4.9-9.2-4.9.9,2.4,7.1Z"/><path class="l" d="M791.8,138.7l-27.5,15.7,24.5,7.7Z"/><path class="m" d="M779.1,146l9.7,16.1-5.6,2.9-8.6-16.5,4.5-2.5Z"/><path class="j" d="M788.8,162.1l-1.1,4.5-4.5-1.6Z"/><path class="v" d="M794.2,147.2l-3.9,3.2H786v2.3h5.8l3.4-3.7Zm-18,10-3.9,3.2H768v2.3h5.8l3.4-3.7Zm15.6-18.5L779.1,146l-1-3.7Zm-17.2,9.8-3.9-1.7-6.4,7.6,10.3-5.9Z"/><path class="j" d="M785,174.3l14.8-6.8,1.2,3.2-15,6.1Z"/><path class="s" d="M746.2,136,797,125.5l6.3-13.8L806,96.9l-45.5,20Z"/><path class="q" d="M797,125.5l13.5,3.4,1.7,8.5h7.1v-8l13.2,2-8.5-29-18-5.5Z"/><path class="v" d="M837.3,221.7v19.6l-42.1-2.5V222.7Z"/><path class="x" d="M837.3,221.7l10.8,8.6-1.6,11.2-9.2-.2Z"/><path class="l" d="M848.1,230.3l3.6,8.5-5.2,2.7,1.6-11.2ZM797,180.7l40.3,60.6-31.3-.6-10.8-27.6-7.8-27.6,9.6-4.8Z"/><path class="b" d="M787.4,185.5,806,240.7l-20-.3-7.8-50.2Z"/><path class="j" d="M787.4,185.5,806,240.7l-6-2.7Z"/><path class="t" d="M816,184.2l-37.8,6,18.8-9.5Z"/><path class="i" d="M786,240.4l30-5.2.3,32.3L812.4,293h-9.1l-7.3-4.6Z"/><path class="u" d="M812.4,293l-1.9,12.3-24.5,7,10-23.9Z"/><path class="i" d="M786,312.3l3.5,6,21-6.5v-6.5Z"/><path class="s" d="M816,235.2l30.5,6.3-14,54.8H819.3l-6.9-3.3,3.6-57.8Z"/><path class="v" d="M812.4,293,806,313.2l13.3,1.8,13.4-1.8-.2-16.9L812.4,293Z"/><path class="i" d="M806,313.2v6.1l25-1,1.7-5.1Z"/><path class="ae" d="M347.9,309.8,325,333.43,314.8,339.9l1.05-8,5-17.79,27-4.3Z"/><path class="af" d="M337.4,320.7l10.5-10.9H334.4l-13.5,4.3Z"/><path class="ae" d="M383.8,304.1l-4.7,32.3-8.4,3.5-.2-5.1-10.7-26.9,24-3.8Z"/><path class="af" d="M363.1,316.4l20.7-12.3H368.9l-9.1,3.8Z"/><path class="ae" d="M292.7,214.9l-27.1,12.6-1.1,5.2,2.8,4.7,37.2-1.3Z"/><path class="ag" d="M267.3,237.4l-10.7,5-3.1-6V224.5l12.1,3Z"/><path class="af" d="M253.5,224.5,239,232.2l4.8,10.2h12.8Z"/><path class="ah" d="M265.6,227.5l-12.1-5-7,5.7.6,3,7.2-2,6.1,3.4,6.1-.4Z"/><path class="af" d="M292.7,214.9l3,21.5,8.8-.3-5.1-8.5-6.7-12.7Z"/><path class="ai" d="M321.3,193.1l-28.6,21.8,9.2,18.1,6.1,7.6,6.6-7.4,6.7-22.5V193.1Z"/><path class="aj" d="M256.6,141.4,248.3,159l20.2,7.9L264,153.2Z"/><path class="ak" d="M319.4,101.7l2.8-7.7-.8-15.8-59.5,8.6,3.7,15,5.5,10,27.5-2Z"/><path class="al" d="M261.9,86.8l-23.7,33.8,18.4,20.8,10.1-14.5,4.4-15.1Z"/><path class="ai" d="M321.4,78.2,336.1,110l-9.9-3.8-6.8-4.5,2-23.5Z"/><path class="am" d="M263.7,91.9l2.4-.4,2.3,5.9,5.6-1,1.6,3.9-5.8,1.2,2.1,5.5-2.4.6-3.9-5.8-1.9-9.9Z"/><path class="an" d="M263.7,91.9l-1.5,2.5,1.8,5.2-3.1,5,2,3.1,2.7-4,2.3,5.9,1.6-2Z"/><path class="ak" d="M344.2,184.9l19.7,2.6,2.6,16.5-1.1,14.5-50.8,14.7,3.5-18.8Z"/><path class="ae" d="M256.6,141.4l27.9,59.5,30.1-12.8,21.3,15.7,7.9-40.3,6-24.4-14.1.9.7,11-27.2-24.8-12.4.3-15.5,5-24.7,9.9Z"/><path class="ag" d="M309.2,126.2l24.4,53.5-19,8.4,8.7,1.7,1.8,6.1,10.8,7.9,8.32-18.9,5.58-45.8-14.1.9.7,11-10.1-13.7-17.1-11.1Zm-39,26.7,18.9,7.5,8.9,3.4,4.6-24.7Z"/><path class="ah" d="M289.4,144.6l8.6,19.2-6.2,2.9-8.5-19.4Z"/><path class="af" d="M291.8,166.7l4.9,2.2,1.3-5.1-6.2,2.9Zm22.8,21.4,10.5,7.8,14.1-18.8Zm25.7-32.6,6.8,5.9.8-6.4-7.6.5Zm.5-3.9-.2-8.1,5-.2Z"/><path class="aj" d="M287.1,132.6l-10.2-9-5.8-11.8,48.3-10.1,32,15.9-19.8,4.8-22.4,3.8-9.6,2.8-12.5,3.6Z"/><path class="ao" d="M309.2,126.2,336.4,151l-.7-11,14.1-.9,1.6-21.5Z"/><path class="ap" d="M271.1,111.8l-14.5,29.6,30.5-8.8Z"/><path class="aj" d="M289.4,144.6l-1.8-4.2,15-1.3Zm-6.1,2.7-13.1,5.6,11.1-9.7,2,4.1Z"/><path class="aq" d="M311,169.3,302.2,182l-14.4-2.6,12.8-1.5,10.4-8.6Z"/><path class="ar" d="M306.5,173l-8.1.1-5.3,5.7,7.5-.9,5.9-4.9Z"/><path class="e" d="M335.9,203.8l19,4.72L344.2,184.9Z"/><path class="e" d="M321.3,193.1l-3.2,21.3,17.8-10.6-14.6-10.7Z"/><path class="aq" d="M365.4,218.5l5.1,11.7,19,19.5L367,261.3l-28.2,1.3-6.4-14.1-17.8-15.3Z"/><path class="ai" d="M338.8,262.6m0,0,19.8,22.1,25.2,19.4,5.7-54.4Z"/><path class="aq" d="M338.8,262.6l-17.9,51.5,62.9-10Z"/><path class="ai" d="M383.8,304.1,329.6,289l-8.7,25.1Z"/><path class="am" d="M345,257l14-1.2-3.9-4.8-4.8,1.7L345,257Z"/><path class="ar" d="M380.4,240.3l-19.3,9.1-2.1,6.4,2.6,13.4,5.4,4.6.2,6.1-25.6,30.9-16-10.1,16-46.6,9-10.7,23.7-9.3,6.1,6.2Z"/><path class="as" d="M301.9,233l8.4,10.4,2.8-2.2-6.1-7.6,4.5-3.7,6.2,7.5,2.7-2.2L312,224.8Z"/><path class="at" d="M371,270.5l-35.2,28.6-40.9-48.8,36.5-28.5Z"/><path class="an" d="M335.8,299.1l-3.4.1-39.6-48.7,3.4-.1Z"/><path class="au" d="M296.2,250.4l35.2-28.6-4.1.6-34.5,28.1Z"/><path class="ae" d="M365.4,218.5l-11.2,18.3,2.1,4.8,3.5,2.9,32-16.7-15.2-6-11.2-3.3Z"/><path class="ah" d="M354.2,236.8H343.6l4.6,8.9,6.9,5.3,4.7-6.5Z"/><path class="ag" d="M343.6,236.8l-7.3,14.4L345,257l10.1-6-11.5-14.2Z"/><path class="aq" d="M363.9,187.5l27.9,40.3-26.4-9.3Z"/><polygon class="am" points="379.68 332.4 384.46 347.55 374.11 349.1 363.85 347.55 368.96 331.01 379.68 332.4"/><polygon class="at" points="378.02 341.52 370.39 341.52 363.85 347.55 363.85 350 384.46 350 384.46 347.55 378.02 341.52"/><polygon class="am" points="315.85 331.89 307.24 339.83 315.52 349.03 325.6 347.63 324.96 333.43 315.85 331.89"/><polygon class="at" points="307.24 339.83 318.34 347.63 325.6 347.63 325.6 350 296.14 350 296.14 344.65 307.24 339.83"/><circle cx="280.86" cy="158.33" r="3.04"/><circle cx="299.65" cy="150.45" r="3.04"/></svg>