<svg xmlns="http://www.w3.org/2000/svg" viewBox="0 0 900 350"><defs><style>.cls-1{fill:#ececeb;}.cls-2{fill:#e5c828;}.cls-3{fill:#ccad14;}.cls-18,.cls-26,.cls-4{fill:#2b2b2b;}.cls-4{fill-opacity:0.1;}.cls-5{fill:#dddddc;}.cls-6{fill:#c4c4c4;}.cls-7{fill:#cececd;}.cls-8{fill:#a3a3a3;}.cls-9{fill:#fff;}.cls-10{fill:#bc8f2d;}.cls-11{fill:#e2a942;}.cls-12{fill:#f2bd68;}.cls-13{fill:#737373;}.cls-14{fill:#9e7700;}.cls-15{fill:#8f8f8f;}.cls-16{fill:#858686;}.cls-17{fill:#9da1a2;}.cls-18{fill-opacity:0.2;}.cls-19{fill:#856400;}.cls-20{fill:#6f7173;}.cls-21{fill:#4f5253;}.cls-22{fill:#dfbda5;}.cls-23{fill:#8b6651;}.cls-24{fill:#c3987b;}.cls-25{fill:#e8cab6;}.cls-27{fill:#b58b00;}.cls-28{fill:#bf8f00;}.cls-29{fill:#f4d75d;}.cls-30{fill:#474747;}.cls-31{fill:#755800;}</style></defs><title>explorers_Virtuoso_ISTP_parenthood</title><g id="illustration_copy" data-name="illustration copy"><g id="Layer_1"><g id="_475635808" data-name=" 475635808"><path class="cls-1" d="M900,347,628.55,279.7l-21-100.24,25.61-96.34,217.3-71.61C889.61,276.72,847-11.59,900,347Z"/><polygon class="cls-2" points="698.3 109.56 692.15 109.05 688.56 131.18 687.91 179.4 690.38 191.76 690.2 193.07 695.08 193.72 698.3 109.56"/><polygon class="cls-3" points="657.28 194.36 649.12 192.43 655.98 189.81 685.96 189.81 690.38 191.76 695.08 193.72 657.28 194.36"/><path class="cls-1" d="M0,350l270.79-73.58,21.66-93.94L266.86,86.11,49.56,14.5C10.39,279.73,53-8.59,0,350Z"/><polygon class="cls-4" points="47.72 178.42 79.01 98.94 144.16 337.35 77.02 350 31.73 341.37 47.72 178.42"/><polygon class="cls-4" points="676.12 314.02 666.61 315.69 725.52 335.13 747.55 335.78 848.51 334.22 860.91 287.85 827.52 252.86 745.91 274.45 736.46 306.45 676.12 314.02"/><polygon class="cls-5" points="633.14 83.12 266.86 86.11 270.79 276.42 510.95 278.62 522.3 273.34 598.8 272.78 606.65 279.5 628.55 279.7 633.14 83.12"/><polygon class="cls-6" points="351.37 119.79 479.4 120.65 478.94 128.95 352.01 131.51 351.37 119.79"/><polygon class="cls-4" points="263.73 256.25 247.35 282.78 270.94 286.9 272.23 270.21 263.73 256.25"/><polygon class="cls-6" points="266.98 269.93 277.08 274.17 402.51 280.34 413.15 277.71 419.13 258.52 410 255.28 284.9 254.61 263.73 256.25 266.98 269.93"/><polygon class="cls-7" points="290.32 245.34 263.73 256.25 419.13 258.52 408.26 251.92 402.85 249.41 298.6 242.66 290.32 245.34"/><polygon class="cls-6" points="295.2 226.12 308.35 224.66 393.72 224 405.78 228.24 408.26 251.92 290.32 245.34 295.2 226.12"/><polygon class="cls-7" points="304.44 221.73 295.2 226.12 339.19 226.42 405.78 228.24 393.39 221.73 304.44 221.73"/><polygon class="cls-8" points="266.98 269.93 413.15 277.71 409.82 288.31 341.73 286.92 270.94 286.9 266.98 269.93"/><polygon class="cls-4" points="663.48 204.79 695.08 193.72 669.77 186.33 657.28 194.36 663.48 204.79"/><polygon class="cls-4" points="819.52 148.45 791.28 141.15 831.28 102.32 841.68 113.28 838.42 134.13 819.52 148.45"/><polygon class="cls-4" points="44.32 49.89 267.19 102.22 374.95 101.88 632.72 100.8 856.23 50.68 850.44 11.51 633.14 83.12 266.86 86.11 49.56 14.5 44.32 49.89"/><polygon class="cls-1" points="394.91 22.78 418.02 42.4 472.31 45.43 498.15 22.78 448.03 18.18 394.91 22.78"/><polygon class="cls-5" points="389.94 8.36 394.91 22.78 498.15 22.78 506.13 0 389.94 8.36"/><polygon class="cls-5" points="412.58 28.26 419.26 28.21 450.65 31.81 474.64 27.82 481.5 27.77 469.69 39.37 425.06 38.36 412.58 28.26"/><polygon class="cls-9" points="419.26 28.21 474.64 27.82 466.41 35.33 429 35.33 419.26 28.21"/><polygon class="cls-1" points="523.82 126.66 518.16 276.35 592.11 277.4 600.33 275.76 592.44 126.15 523.82 126.66"/><polygon class="cls-8" points="523.52 134.84 588.83 133.7 592.11 277.4 596.93 279.4 599.95 268.75 595.06 127.79 523.62 129.26 523.52 134.84"/><polygon class="cls-6" points="513.77 119.82 604.18 121.41 606.65 279.5 596.93 279.4 592.66 130.34 526.14 131.2 523.19 240.16 522.15 278.72 510.95 278.62 513.77 119.82"/><polygon class="cls-10" points="79.01 98.94 135.37 85.6 142.64 93.35 149.05 326.59 144.16 337.35 69.96 330.98 79.01 98.94"/><polygon class="cls-11" points="248.74 117.51 135.37 85.6 144.16 337.35 247.2 301.8 248.74 117.51"/><polygon class="cls-10" points="681.91 278.04 668.65 280.94 660.75 264.58 679.51 262.76 812.91 268.87 801.57 285.18 785.17 283.11 736.69 291.55 681.91 278.04"/><polygon class="cls-11" points="725.52 335.13 721.3 287.76 736.87 279.1 751.76 288.94 747.55 335.78 735.96 338.44 725.52 335.13"/><polygon class="cls-11" points="812.07 329.06 812.91 268.87 799.12 280.74 785.17 283.11 792.92 328.52 802.56 331.06 812.07 329.06"/><polygon class="cls-11" points="658.43 313.01 660.75 264.58 671.28 274.96 681.91 278.04 676.12 314.02 666.61 315.69 658.43 313.01"/><polygon class="cls-11" points="827.52 267.65 827.52 252.86 651.69 250.28 651.39 263.27 736.87 279.1 827.52 267.65"/><path class="cls-4" d="M792.92,328.53l9.64,2.53-3.44-50.32-14,2.37Zm-55.6-63.12-.45,13.69,90.65-11.45V252.86Zm-70.71,50.28L671.28,275,681.92,278l-5.8,36ZM736,338.44l11.59-2.66,4.21-46.84-14.89-9.84Z"/><polygon class="cls-12" points="734.5 243.72 827.52 252.86 737.32 265.41 651.69 250.28 734.5 243.72"/><polygon class="cls-4" points="712.31 252.28 735.43 250.01 759.88 252.94 736.09 256.52 712.31 252.28"/><polygon class="cls-5" points="151.34 115.53 204.93 120.77 207.1 296.32 152.38 227.99 151.34 115.53"/><polygon class="cls-13" points="155.56 185.9 162.09 184.93 165.66 179.71 165.4 176.5 158.49 180.37 155.56 185.9"/><polygon class="cls-10" points="165.81 202.39 161.11 197.29 170.12 194 172.24 201.52 165.81 202.39"/><polygon class="cls-5" points="176.84 299.98 153.07 302.86 152.38 227.13 176.3 227.91 176.84 299.98"/><polygon class="cls-10" points="204.75 122.39 195.96 127.27 199.55 291.09 207.1 296.32 230.72 297.48 240.59 294.35 239.29 122.39 230.61 120.35 204.75 122.39"/><polygon class="cls-14" points="151.2 101.74 151.34 115.53 195.96 127.27 239.29 122.39 151.2 101.74"/><polygon class="cls-12" points="199.49 288.18 240.59 294.35 153.24 319.44 153.07 302.86 199.49 288.18"/><polygon class="cls-11" points="831.28 102.32 817.62 88.47 808.51 86.76 814.43 96.51 821.72 103.85 825.7 104.16 831.28 102.32"/><polygon class="cls-10" points="814.88 129.68 809.22 141.13 817.28 140.85 830.19 126.48 825.78 122.77 820.45 125.25 814.88 129.68"/><polygon class="cls-11" points="823.03 102.01 831.28 102.32 830.19 126.48 822.34 126.27 818.49 112.52 823.03 102.01"/><polygon class="cls-12" points="777.5 107.82 778.74 131.2 791.28 141.15 809.22 141.13 822.34 126.27 823.03 102.01 808.51 86.76 787.9 91.38 777.5 107.82"/><polygon class="cls-9" points="791.74 99.94 784.57 109.66 786.01 127.89 795.72 134.31 805.56 133.88 815.4 124.03 816.04 103.7 808.47 97.9 791.74 99.94"/><polygon class="cls-11" points="804.43 94.99 808.26 97.75 792.82 99.26 786.25 110.17 787.55 128.5 795.72 134.31 793.12 134.43 784.54 128.23 783 109.81 791.28 96.81 804.43 94.99"/><polygon class="cls-12" points="792.29 111.83 791.45 113.58 798.07 117.62 799.99 117.01 800.49 114.97 792.29 111.83"/><polygon class="cls-12" points="808.72 104 800.49 114.97 801.37 116.36 803.06 116.3 810.28 104.69 808.72 104"/><polygon class="cls-10" points="800.32 114.89 798.07 117.62 801.04 119.44 803.06 116.3 800.32 114.89"/><polygon class="cls-10" points="798.88 101.41 799.35 105.77 801.3 105.52 801.1 101.13 798.88 101.41"/><polygon class="cls-10" points="809.62 114.05 813.76 113.02 813.57 115.29 809.72 116.23 809.62 114.05"/><polygon class="cls-10" points="800.04 127.49 802.38 126.94 802.58 131.61 800.44 131.89 800.04 127.49"/><polygon class="cls-10" points="788.51 118.28 791.98 117.42 791.83 119.33 788.6 120.14 788.51 118.28"/><polygon class="cls-15" points="152.38 227.99 176.3 227.91 178.02 301.62 175.17 305.79 153.07 302.86 152.38 227.99"/><polygon class="cls-8" points="209.64 228.24 176.3 227.91 174.13 231.83 175.17 305.79 205.23 296.55 209.64 228.24"/><polygon class="cls-6" points="178.32 224.58 152.38 227.99 174.13 231.83 209.64 228.24 178.32 224.58"/><polygon class="cls-8" points="178.3 227.1 178.53 192.1 180.65 192.1 180.32 227.26 178.3 227.1"/><polygon class="cls-16" points="185.21 237.69 200.84 235.74 200.84 237.69 185.21 239.98 185.21 237.69"/><polygon class="cls-16" points="185.21 241.92 200.84 239.65 200.84 241.6 185.21 244.2 185.21 241.92"/><polygon class="cls-16" points="192.43 245.23 200.84 243.56 200.84 245.51 192.38 246.97 192.43 245.23"/><polygon class="cls-12" points="185.87 143.24 175.44 151.05 180.65 152.36 185.66 150.47 185.87 143.24"/><polygon class="cls-11" points="185.87 143.24 184.56 149.1 185.9 154.38 189.78 155.62 185.87 143.24"/><polygon class="cls-15" points="175.44 151.05 162.09 184.93 167.62 187.53 174.56 185.49 180.65 168.65 184.56 149.1 175.44 151.05"/><polygon class="cls-17" points="189.78 155.62 184.56 149.1 172.84 183.62 174.79 189.48 180.65 192.1 189.78 155.62"/><polygon class="cls-12" points="161.11 197.29 162.09 184.93 172.84 183.62 175.04 192.56 169.44 196.62 161.11 197.29"/><polygon class="cls-11" points="172.24 201.52 169.44 196.62 172.84 183.62 180.65 192.1 172.24 201.52"/><polygon class="cls-15" points="180.97 174.83 178.04 184.28 187.49 188.5 189.13 183.04 180.97 174.83"/><polygon class="cls-14" points="164.04 198.27 168.26 198.27 169.9 200.56 166.31 200.56 164.04 198.27"/><polygon class="cls-18" points="171.41 161.27 180.92 159.81 187 166.75 185.66 172.08 179.21 164.84 169.34 166.53 171.41 161.27"/><polygon class="cls-3" points="752.08 206.86 750.12 211.68 754.58 214.61 756.81 221.5 775.89 224.22 765.57 213.57 752.08 206.86"/><polygon class="cls-2" points="767.86 205.99 775.89 224.22 752.08 206.86 767.86 205.99"/><polygon class="cls-19" points="747.69 215.26 748.38 218.9 746.15 226.4 740.81 228.95 738.76 226.58 743.69 214.76 747.69 215.26"/><polygon class="cls-14" points="741.52 213.11 736.41 226.65 740.81 228.95 745.7 215.04 741.52 213.11"/><polygon class="cls-14" points="715.24 179.33 717.61 180.22 729.19 208.78 732.71 212.13 732.56 217.23 736.41 226.65 733.91 228.7 732.15 226.68 714.21 181.52 715.24 179.33"/><polygon class="cls-14" points="720.95 213.17 732.15 226.68 730.46 228.6 726.29 226.6 717.96 216.1 718.73 213.35 720.95 213.17"/><polygon class="cls-10" points="763.26 190.52 768.13 199.15 753.62 201 752.06 196.81 753.88 184.36 763.26 190.52"/><polygon class="cls-12" points="768.85 181.45 768.13 199.15 762.26 193.09 763.32 186.81 768.85 181.45"/><polygon class="cls-11" points="768.85 181.45 753.88 184.36 762.26 193.09 768.85 181.45"/><polygon class="cls-10" points="718.82 170.44 717.61 180.22 714.21 181.52 707.65 176.91 711.36 171.9 718.82 170.44"/><polygon class="cls-11" points="707.27 164.86 711.28 168.58 712.62 174.01 707.65 176.91 707.27 164.86"/><polygon class="cls-12" points="707.27 164.86 712.62 174.01 718.82 170.44 707.27 164.86"/><polygon class="cls-3" points="738.31 178.04 728.31 185.44 727.02 203.44 733.1 199.93 738.43 191.52 738.31 178.04"/><polygon class="cls-2" points="738.31 178.04 727.02 203.44 725.59 187.38 738.31 178.04"/><polygon class="cls-12" points="752.56 193.65 756.89 200.61 752.08 206.93 748.35 208.65 744.75 205.44 742.22 194.96 744.01 194.18 752.56 193.65"/><polygon class="cls-11" points="748.03 207.21 752.08 206.86 754.58 214.61 748.38 218.9 740.48 215.92 740.86 207.63 748.03 207.21"/><polygon class="cls-12" points="742.3 210.29 740.48 215.92 732.56 217.23 729.19 208.78 731.64 204.63 735.61 201.25 740.65 202.74 742.3 210.29"/><polygon class="cls-11" points="738.43 191.52 744.01 194.18 744.11 199.96 738.58 204.56 731.64 204.63 730.38 195.82 738.43 191.52"/><polygon class="cls-10" points="748.41 207.18 742.3 210.29 737.68 204.58 744.11 199.96 748.41 207.18"/><polygon class="cls-11" points="718.42 199.63 727.02 203.44 726.98 213.75 717.96 216.1 714.51 212.31 713.8 206.2 718.42 199.63"/><polygon class="cls-12" points="713.04 206.9 715.75 209.73 717.96 216.1 712.69 219.41 708.81 219.55 705.6 217.01 705.07 209.79 707.42 206.1 713.04 206.9"/><polygon class="cls-11" points="711.94 200.82 712.84 204.63 710.39 207.31 705.07 209.79 698.2 204.58 702.27 196.33 708.17 196.68 711.94 200.82"/><polygon class="cls-12" points="714.26 189.73 708.17 196.68 710.92 201.47 717.26 203.42 722.05 201.24 722.99 193.45 714.26 189.73"/><polygon class="cls-10" points="715.75 209.73 709.48 207.78 710.62 200.87 718.37 202.96 715.75 209.73"/><polygon class="cls-3" points="689.87 224.45 700.37 219.86 712.69 219.41 710.24 225.16 703.51 229.22 689.87 224.45"/><polygon class="cls-2" points="698.51 214.55 689.87 224.45 712.69 219.41 698.51 214.55"/><polygon class="cls-20" points="747.59 233.74 750.52 236.09 745.95 240.48 743.28 251.95 734.72 254.17 732.75 249.62 732.32 233.17 747.59 233.74"/><polygon class="cls-16" points="725.72 232.89 722.61 235.26 723.62 239.7 726.47 251.4 734.72 254.17 734.3 233.26 725.72 232.89"/><polygon class="cls-21" points="751.33 234.43 752.56 236.4 745.95 240.48 734.45 241.97 732.38 236.34 737.95 234.35 751.33 234.43"/><polygon class="cls-20" points="733.34 234.1 734.37 236.5 734.45 241.97 723.62 239.7 717.71 235.23 720.79 233.31 733.34 234.1"/><polygon class="cls-20" points="752.23 226.27 752.56 236.4 734.35 237.65 732.25 231.65 733.81 226.68 752.23 226.27"/><polygon class="cls-16" points="717.71 235.23 734.35 237.65 733.81 226.68 726.29 226.6 720.67 230.39 717.71 235.23"/><polygon class="cls-3" points="703.51 229.22 717.71 235.23 726.29 226.6 712.74 225.39 703.51 229.22"/><polygon class="cls-2" points="712.69 219.41 726.29 226.6 703.51 229.22 712.69 219.41"/><polygon class="cls-4" points="152.89 282.8 174.94 288.43 206.41 278.37 205.71 289.1 175.04 295.91 152.99 292.83 152.89 282.8"/><polygon class="cls-4" points="398.8 319.01 443.27 329.82 490.15 317.2 445.68 306.99 398.8 319.01"/><polygon class="cls-10" points="413.3 239.48 424.58 222.93 430.11 235.76 425.14 250.36 413.3 239.48"/><polygon class="cls-10" points="467.16 250.33 463.33 239.8 468.44 226.42 478.95 242.66 467.16 250.33"/><polygon class="cls-22" points="431.78 286.62 425.42 291.07 425.42 304.14 429.56 307.65 434.96 304.88 436.34 297.45 431.78 286.62"/><polygon class="cls-22" points="462.37 287.89 458.17 296.95 460.47 305.1 464.92 307.65 469.5 304.8 468.48 291.36 462.37 287.89"/><polygon class="cls-10" points="413.94 313.29 425.42 304.14 434.96 304.88 435.29 313.06 427.01 315.3 413.94 313.29"/><polygon class="cls-12" points="413.94 317.37 413.94 313.29 435.29 313.06 435.29 317.2 413.94 317.37"/><polygon class="cls-10" points="473.83 313.21 469.44 304.19 460.47 304.88 458.88 313.06 466.35 315.18 473.83 313.21"/><polygon class="cls-12" points="473.83 317.3 473.83 313.21 458.88 313.06 458.88 317.2 473.83 317.3"/><polygon class="cls-23" points="432.74 289.17 425.42 291.07 436.34 297.45 437.3 292.28 432.74 289.17"/><polygon class="cls-23" points="460.52 289.6 457.01 292.83 458.17 296.95 468.48 291.36 460.52 289.6"/><polygon class="cls-8" points="425.42 291.07 425.42 264.32 445.81 276.42 466.2 266.24 468.48 291.36 448.36 293.95 446.02 283.9 444.52 293.01 425.42 291.07"/><polygon class="cls-15" points="445.86 259.71 425.42 264.32 446.02 283.9 466.2 266.24 445.86 259.71"/><polygon class="cls-11" points="424.79 233.31 431.53 225.46 444.8 223.21 463.33 229.6 467.94 237.3 466.2 266.24 425.42 264.32 424.79 233.31"/><polygon class="cls-12" points="424.58 222.93 424.79 233.31 444.1 226.19 467.94 237.3 468.44 226.42 458.07 220.96 438.26 217.63 424.58 222.93"/><polygon class="cls-23" points="436.68 210.16 438.26 217.63 444.1 226.19 457.6 217.49 452.44 210.97 436.68 210.16"/><polygon class="cls-24" points="451.66 214.17 455.43 215.34 444.1 226.19 458.07 220.96 468.27 203.88 467.37 173.37 464.43 170.11 461.86 172.46 458.91 174.73 450.89 208.42 451.66 214.17"/><polygon class="cls-23" points="468.29 203.88 464.43 197.16 470.32 197.25 471.53 198.75 468.29 203.88"/><polygon class="cls-22" points="416.63 205.9 451.66 214.17 461.86 172.46 452.78 168.07 424.63 168.62 416.63 205.9"/><polygon class="cls-10" points="485.11 178.24 471.53 198.75 470.54 195.36 465.29 193.97 461.86 172.46 475.84 174.05 485.11 178.24"/><polygon class="cls-3" points="461.86 172.46 485.11 178.24 475.61 159 465.02 165.06 461.86 172.46"/><polygon class="cls-10" points="417.01 161.22 424.34 169.89 461.86 172.46 438.8 162.71 417.01 161.22"/><polygon class="cls-2" points="475.61 159 461.86 172.46 445.23 159.53 446.46 147.08 475.61 159"/><polygon class="cls-3" points="446.46 147.08 461.86 172.46 417.01 161.22 446.46 147.08"/><polygon class="cls-22" points="467.23 186.88 464.43 197.16 471.53 198.75 474.55 189 467.23 186.88"/><polygon class="cls-23" points="468.96 190.14 471.6 190.82 467.67 194.6 468.96 190.14"/><polygon class="cls-24" points="427.46 177.36 432.82 178.12 435.54 179.41 435.92 181.56 437.89 184.66 434.2 191.17 427.46 177.36"/><polygon class="cls-24" points="438.17 191.75 437.89 184.66 440.44 182.39 442.81 180.77 447.19 180.69 453.08 182.43 438.17 191.75"/><polygon class="cls-25" points="434.2 191.17 435.67 192.38 438.17 191.75 440.44 182.39 435.92 181.56 434.2 191.17"/><polygon class="cls-23" points="435.72 193.67 434.2 191.17 438.17 191.75 435.72 193.67"/><polygon class="cls-14" points="427.46 177.36 432.53 176.61 435.54 179.41 427.46 177.36"/><polygon class="cls-14" points="442.81 180.77 447.5 179.33 453.08 182.43 442.81 180.77"/><polygon class="cls-23" points="428.54 194.58 430.75 202.08 438.67 203.49 444.44 197.31 428.54 194.58"/><path class="cls-26" d="M430.62,182.28a2.5,2.5,0,0,1,2.5,2.45,2.38,2.38,0,0,1-2.4,2.45,2.51,2.51,0,0,1-2.5-2.45A2.39,2.39,0,0,1,430.62,182.28Z"/><path class="cls-26" d="M446.27,184.55a2.52,2.52,0,0,1,2.5,2.45,2.39,2.39,0,0,1-2.4,2.45,2.5,2.5,0,0,1-2.5-2.45A2.39,2.39,0,0,1,446.27,184.55Z"/><polygon class="cls-9" points="441.01 198.25 430.8 196.27 431.37 199.12 439.6 200.24 441.01 198.25"/><polygon class="cls-22" points="431.78 249.66 413.3 239.48 416.49 254.13 427.95 256.68 431.07 254.58 431.78 249.66"/><polygon class="cls-22" points="459.81 251.92 478.95 242.66 476.72 256.35 466.73 257.61 460.52 256.82 459.81 251.92"/><polygon class="cls-5" points="434.63 243.87 429.71 248.06 435.9 250.89 455.04 252.16 462.7 249.98 459.01 245.71 434.63 243.87"/><polygon class="cls-23" points="440.89 257.75 431.78 262.1 429.23 256.35 440.89 257.75"/><polygon class="cls-23" points="451.92 258.59 459.39 264.05 463.17 257.02 451.92 258.59"/><polygon class="cls-6" points="429.71 248.06 430.94 257 460.47 259.22 462.7 249.98 429.71 248.06"/><polygon class="cls-24" points="431.78 262.1 425.25 256.07 429.48 248.41 431.78 262.1"/><polygon class="cls-24" points="459.39 264.05 466.73 257.61 462.7 249.98 459.39 264.05"/><path class="cls-1" d="M433.14,250.62l25.74,1.3-.33,1.63-25.41-1Zm16.61,3.91,8.55.25L458,256.4l-8.23.09Z"/><polygon class="cls-4" points="524.17 339.92 489.9 328.49 525.38 319.37 565.53 330.73 524.17 339.92"/><polygon class="cls-22" points="508.15 309.2 511.91 298.44 521.88 296.29 524.48 301.21 516.62 311.37 508.15 309.2"/><path class="cls-15" d="M524.17,299.24c-.58.29-4.26,2-4.26,2l9.74,3.09,18.29-3.09Z"/><polygon class="cls-15" points="513.67 292.02 518.57 274.88 522.86 289.39 519.51 293.57 517.94 294.32 513.67 292.02"/><polygon class="cls-17" points="511.91 298.44 513.67 292.02 519.51 293.57 521.88 296.29 519.91 301.21 511.91 298.44"/><polygon class="cls-22" points="536.06 300.21 529.65 304.3 531.29 314.65 535.56 318.26 541.11 315.41 543.45 301.97 536.06 300.21"/><polygon class="cls-3" points="519.48 324.09 531.29 314.65 541.11 315.41 542.22 323.84 532.93 326.14 519.48 324.09"/><polygon class="cls-3" points="494.64 308.74 508.96 306.59 516.62 311.37 513.95 318.69 505.42 316.62 494.64 308.74"/><polygon class="cls-27" points="519.48 328.28 519.48 324.09 542.22 323.84 542.55 328.11 519.48 328.28"/><polygon class="cls-27" points="492.67 312.04 494.64 308.74 513.95 318.69 512.01 322.81 492.67 312.04"/><polygon class="cls-23" points="538.85 299.24 529.15 301.21 529.65 304.3 543.45 301.97 543.57 301.21 538.85 299.24"/><polygon class="cls-1" points="548.95 189.13 536.99 199.51 546.15 212.76 559.02 202.23 548.95 189.13"/><polygon class="cls-23" points="533.98 218.49 547.41 216.83 534.32 229.63 533.98 218.49"/><polygon class="cls-24" points="544.44 167.14 534.69 192.64 533.98 218.49 542.74 218.72 534.32 229.63 548.17 229.27 561.85 216 575.53 197.28 573.91 178.49 552.87 166.22 544.44 167.14"/><polygon class="cls-25" points="517.28 198.72 522.83 185.24 523.18 195.26 521.42 199.93 517.28 198.72"/><polygon class="cls-22" points="523.94 173.57 535.05 164.35 540.7 173.65 533.98 218.49 520 214.79 523.94 173.57"/><polygon class="cls-10" points="517.44 163.57 523.94 173.57 540.7 173.65 557.18 177.39 583.91 173.85 537.93 161.53 517.44 163.57"/><polygon class="cls-28" points="540.7 173.65 549.64 197.26 569.65 190.21 579.31 179.69 583.91 173.85 540.7 173.65"/><polygon class="cls-14" points="576.58 202.87 561.85 216 557.31 203.14 554.83 196.76 559.98 192.63 583.91 173.85 576.58 202.87"/><polygon class="cls-3" points="517.44 163.57 583.91 173.85 550.29 151.08 517.44 163.57"/><polygon class="cls-23" points="528.11 202.77 521.14 202.82 520.49 209.58 524.7 209.61 528.11 202.77"/><polygon class="cls-24" points="527.35 184.2 531.62 185.61 525.3 191.02 521.42 199.93 522.83 185.24 527.35 184.2"/><polygon class="cls-14" points="523.04 182.94 526.37 182.66 531.62 185.61 522.83 185.24 523.04 182.94"/><path class="cls-26" d="M526.05,189.25a2.26,2.26,0,1,0,2,2.51A2.26,2.26,0,0,0,526.05,189.25Z"/><polygon class="cls-23" points="552.54 208.12 549.25 203.27 553.98 200.79 557.31 203.14 552.54 208.12"/><polygon class="cls-22" points="550.04 191.23 549.25 203.27 557.31 203.14 559.98 192.63 550.04 191.23"/><polygon class="cls-23" points="553.07 194.53 556.78 194.83 552.52 199.03 553.07 194.53"/><polygon class="cls-10" points="548.47 273.64 548.37 260.34 540.2 244.81 548.17 229.27 523.19 240.16 519.25 247.06 520.81 258.04 518.57 274.88 533.05 283.85 548.47 273.64"/><polygon class="cls-17" points="548.04 295.73 548.47 273.64 518.57 274.88 519.51 293.57 532.14 296.95 548.04 295.73"/><polygon class="cls-12" points="532.05 257.89 533.77 237.96 536.97 232.63 548.17 229.27 548.37 260.34 532.05 257.89"/><polygon class="cls-22" points="517.83 251.78 532.9 248.07 548.37 260.34 520.81 258.04 516.62 256.25 517.83 251.78"/><polygon class="cls-29" points="498.58 240.18 493.98 243.46 509.08 245.43 522.66 244.05 523.19 240.16 498.58 240.18"/><polygon class="cls-24" points="517.83 251.78 520.81 258.04 511.68 260.41 507.11 256.59 507.76 250.01 517.83 251.78"/><polygon class="cls-23" points="501.2 250.68 500.47 253.51 511.68 260.41 507.76 250.01 501.2 250.68"/><polygon class="cls-3" points="493.98 243.46 522.66 244.05 521.77 250.81 517.83 251.78 513.72 250.31 511.81 252.38 495.95 253.95 493.98 243.46"/><polygon class="cls-22" points="512.69 247.06 517.83 251.78 511.81 252.38 510.72 248.06 512.69 247.06"/><polygon class="cls-9" points="520.99 204.43 525.49 204.08 523.84 207.69 520.64 208.04 520.99 204.43"/><polygon class="cls-6" points="519.51 293.57 548.04 295.73 547.94 301.21 519.91 301.21 519.51 293.57"/><polygon class="cls-11" points="534.32 229.63 523.19 240.16 534.29 237.65 548.17 229.27 534.32 229.63"/><polygon class="cls-4" points="548.47 273.64 520.81 258.04 548.37 260.34 548.47 273.64"/><path class="cls-27" d="M497.65,249.22l10.25-.17v1.72L498,251Zm-.66-3.46,10.75-.19v1.73l-10.42.2Z"/><polygon class="cls-4" points="378.83 333.79 316.7 320.53 259.18 334.22 315.41 350 378.83 333.79"/><polygon class="cls-19" points="332.45 325.84 329.12 329.4 329.01 333.97 357 333.87 357.21 329.37 332.45 325.84"/><polygon class="cls-3" points="340.25 317.46 357.21 329.37 329.12 329.4 329.32 320.17 336.25 307.93 340.25 317.46"/><polygon class="cls-20" points="341.83 290.48 341.1 318.05 329.32 320.17 323.74 305.23 331.19 284.02 341.83 290.48"/><polygon class="cls-21" points="320.48 297.02 323.66 305.31 341.73 294 329.7 289.19 320.48 297.02"/><polygon class="cls-20" points="287.62 295.51 285.89 321.04 289.52 329.85 298.32 320.84 305.55 304.25 300.72 296.95 287.62 295.51"/><polygon class="cls-21" points="304.11 292.75 308.93 297.13 305.55 304.25 287.62 295.51 304.11 292.75"/><polygon class="cls-2" points="326.99 263.67 334.94 282.93 323.92 291.7 304.76 295.54 288.16 286.52 290.32 252.41 312.46 252.6 326.99 263.67"/><polygon class="cls-22" points="310.18 172.04 340.54 167.81 350.94 189.12 355.36 198.34 342.72 213.32 310.18 172.04"/><polygon class="cls-21" points="283.76 168.27 288.18 196.17 296.73 224.43 326.94 220.03 329.9 210.44 345.12 187.61 340.54 167.81 333.78 162.03 301.2 159.43 291.72 165.44 283.76 168.27"/><polygon class="cls-3" points="285.89 321.04 281.14 334.15 288.69 337.7 302.42 334.07 298.32 320.84 285.89 321.04"/><polygon class="cls-30" points="328.23 196.76 289.11 206.25 291.36 233.19 292.58 235.96 331.71 239.55 339.19 233.5 344.31 204.23 328.23 196.76"/><polygon class="cls-3" points="287.62 295.51 288.16 286.52 322.71 288.23 328.48 291.02 320.88 298.03 287.62 295.51"/><polygon class="cls-3" points="347.44 283.14 339.91 239.3 327.09 252.02 326.99 263.67 322.71 288.23 334.27 291.92 347.44 283.14"/><polygon class="cls-19" points="290.67 246.29 290.32 252.41 311.58 258.94 340.55 243.01 339.19 233.49 319.4 233.26 290.67 246.29"/><polygon class="cls-10" points="290.6 247.56 308.44 252.4 319.4 233.26 291.36 233.19 290.6 247.56"/><polygon class="cls-10" points="322.71 288.23 347.44 283.14 349.43 292.51 320.88 298.03 322.71 288.23"/><polygon class="cls-10" points="311.58 258.94 326.99 263.67 340.55 243.01 321.8 243.49 311.58 258.94"/><polygon class="cls-19" points="281.14 334.15 302.42 334.07 302.49 338.53 281.32 338.36 281.14 334.15"/><polygon class="cls-22" points="290.07 217.69 298.86 203.72 283.76 168.27 275.03 195.87 290.07 217.69"/><polygon class="cls-24" points="295.75 196.45 290.07 217.69 330.8 202.26 329.87 200.49 312.08 195.04 295.75 196.45"/><polygon class="cls-31" points="310.06 216.27 312.94 202.19 325.48 190.67 343.2 188.2 330.98 202.86 310.06 216.27"/><polygon class="cls-19" points="310.06 216.27 314.55 208.59 325.48 190.67 301.18 192.92 310.06 216.27"/><polygon class="cls-31" points="336.97 194.16 344.92 186.63 337.21 183.14 325.48 190.67 336.97 194.16"/><polygon class="cls-19" points="325.48 190.67 354.22 184.71 355.46 189.66 345.79 193.65 344.31 204.23 330.98 202.86 325.48 190.67"/><polygon class="cls-24" points="351.91 191.12 342.72 213.32 362.6 205.64 362.8 193.24 355.46 189.66 351.91 191.12"/><polygon class="cls-31" points="360.05 211.09 363.67 200.39 376.21 188.87 383.68 195.18 381.69 201.05 360.05 211.09"/><polygon class="cls-19" points="360.05 211.09 379.44 188.7 355.46 189.66 360.05 211.09"/><polygon class="cls-31" points="392.68 202.18 399.98 198.62 404.58 192.28 391.25 188.29 387.81 194.48 392.68 202.18"/><polygon class="cls-19" points="376.21 188.87 391.25 188.29 392.68 202.18 381.69 201.05 376.21 188.87"/><polygon class="cls-10" points="378.88 183.63 378.7 179.35 386.73 182.15 378.88 183.63"/><path class="cls-15" d="M389.31,185.34a3,3,0,0,1,2.54,4.55l-1.74,2-5-3.78,2.27-2.1A3,3,0,0,1,389.31,185.34Z"/><path class="cls-13" d="M387.92,186.73a3,3,0,1,1-3,3A3,3,0,0,1,387.92,186.73Z"/><path class="cls-8" d="M387.92,188.32a1.39,1.39,0,1,1-1.39,1.39A1.39,1.39,0,0,1,387.92,188.32Z"/><path class="cls-15" d="M405.66,185.34a3,3,0,0,1,3,3,2.91,2.91,0,0,1-.45,1.57l-1.73,2-5-3.78,2.29-2.1A2.92,2.92,0,0,1,405.66,185.34Z"/><path class="cls-13" d="M404.27,186.73a3,3,0,1,1-3,3A3,3,0,0,1,404.27,186.73Z"/><path class="cls-8" d="M404.27,188.32a1.39,1.39,0,1,1-1.39,1.39A1.39,1.39,0,0,1,404.27,188.32Z"/><path class="cls-15" d="M379.24,188.7a4.73,4.73,0,0,1,4,7.24L381,198.32l-7.45-5.83,2.73-2.71A4.72,4.72,0,0,1,379.24,188.7Z"/><path class="cls-13" d="M377,190.92a4.74,4.74,0,1,1-4.74,4.74A4.74,4.74,0,0,1,377,190.92Z"/><path class="cls-8" d="M377,193.44a2.22,2.22,0,1,1-2.22,2.22A2.21,2.21,0,0,1,377,193.44Z"/><polygon class="cls-11" points="389.89 195.47 395.67 191.88 404.58 192.28 406.16 190.27 404.83 188.44 397.35 187.34 387.99 190.29 379.23 188.88 384 195.42 389.89 195.47"/><polygon class="cls-12" points="383.91 184.68 382.21 184.63 382.21 186.22 379.23 188.88 389.15 192.43 394.5 189.68 403.82 189.89 405.06 188.62 402.71 187.96 404.82 188.44 395.04 185.34 383.91 184.68"/><polygon class="cls-4" points="389.15 192.43 389.89 195.47 395.67 191.88 394.5 189.68 389.15 192.43"/><path class="cls-15" d="M399.15,192a3.38,3.38,0,0,1,3.38,3.39,3.44,3.44,0,0,1-.5,1.79l-2,2.27-5.65-4.29,2.6-2.38A3.35,3.35,0,0,1,399.15,192Z"/><path class="cls-13" d="M397.56,193.6a3.4,3.4,0,1,1-3.39,3.4A3.4,3.4,0,0,1,397.56,193.6Z"/><path class="cls-8" d="M397.56,195.41A1.59,1.59,0,1,1,396,197,1.59,1.59,0,0,1,397.56,195.41Z"/><polygon class="cls-13" points="382.21 186.22 389.81 183.53 392.29 188.32 382.21 186.22"/><polygon class="cls-15" points="391.76 182.87 386.73 182.15 382.67 183.42 382.21 186.22 388.73 185.39 391.52 185.14 391.76 182.87"/><polygon class="cls-8" points="388.73 185.39 391.76 182.87 395.09 185.29 392.29 188.32 388.73 185.39"/><polygon class="cls-11" points="378.8 181.5 373.84 184.63 377.16 185.84 382.21 186.22 386.73 182.15 378.8 181.5"/><polygon class="cls-10" points="372.8 189.18 372.49 182.82 382.21 186.22 379.23 188.88 372.8 189.18"/><polygon class="cls-24" points="302.39 161.25 303.47 126.98 304.26 100.02 318.85 101.26 320.18 91.69 373.61 92.98 370.46 100.72 333.94 114.28 322.81 166.6 311 169.3 302.39 161.25"/><polygon class="cls-10" points="304.18 116.23 313.21 70.23 359.81 76.58 373.05 92.32 370.46 100.72 347.51 104.92 319.63 104.44 318.42 113.48 313.09 116.3 312.23 117.8 304.18 116.23"/><polygon class="cls-3" points="313.21 70.23 298.9 83.36 291.79 89.49 283.92 113.12 279.07 155.74 291.72 165.44 305.44 160.95 304.18 116.23 313.21 70.23"/><polygon class="cls-9" points="309.84 90.24 302.94 95.34 304.66 102.34 309.84 90.24"/><polygon class="cls-19" points="309.84 90.24 304.18 116.23 294.71 86.13 295.95 76.89 313.21 70.23 309.84 90.24"/><polygon class="cls-2" points="283.92 113.12 304.18 116.23 279.07 155.74 268.12 147.36 283.92 113.12"/><polygon class="cls-22" points="311.38 133.58 302.74 132.18 304.18 116.23 313.09 116.3 311.38 133.58"/><polygon class="cls-2" points="374.95 101.89 373.05 92.32 313.21 70.23 345.6 100.34 374.95 101.89"/><polygon class="cls-3" points="319.43 96.89 311.1 83.8 313.21 70.23 347.01 100.34 319.43 96.89"/><polygon class="cls-31" points="304.18 116.23 291.79 89.49 295.95 76.89 304.18 116.23"/><polygon class="cls-23" points="331.69 164.11 314.58 164.81 305.44 160.95 300.44 162.57 318.37 179.15 331.69 164.11"/><polygon class="cls-23" points="309.56 126 306.51 118.65 310.14 118.8 309.56 126"/><polygon class="cls-9" points="304.89 129.79 301.23 134.13 305.29 137.74 309.21 133.17 304.89 129.79"/><polygon class="cls-22" points="361.24 170.21 314.58 164.81 319.43 96.89 374.95 101.88 361.24 170.21"/><polygon class="cls-24" points="328.28 114.33 346.4 134.91 367.12 118.67 349.38 119.36 328.28 114.33"/><polygon class="cls-25" points="354.25 117.65 344.68 116.35 343.98 138.58 351.33 139.46 354.25 117.65"/><polygon class="cls-23" points="343.98 138.58 347.89 141.6 351.33 139.46 343.98 138.58"/><polygon class="cls-14" points="354.25 117.65 367.12 118.67 353.69 121.83 354.25 117.65"/><polygon class="cls-14" points="344.68 116.35 328.28 114.33 344.54 120.69 344.68 116.35"/><polygon class="cls-10" points="347.61 150.19 332.4 146.43 328.43 142.27 330.63 149.66 341.94 154.69 347.61 150.19"/><polygon class="cls-19" points="328.43 142.27 332.69 147.82 341.56 150.97 347.61 150.19 343.8 148.1 334.13 146.2 328.43 142.27"/><path class="cls-26" d="M360.33,124.38a2.9,2.9,0,1,0-1.13,5.68,2.83,2.83,0,0,0,3.3-2.44A2.73,2.73,0,0,0,360.33,124.38Z"/><path class="cls-26" d="M336.58,121.78a3,3,0,0,0-3.51,2.12,3.06,3.06,0,0,0,2.4,3.56,2.81,2.81,0,0,0,3.28-2.44A2.73,2.73,0,0,0,336.58,121.78Z"/><polygon class="cls-29" points="646.54 119.14 692.15 109.05 690.38 191.76 649.12 192.43 646.54 119.14"/><path class="cls-3" d="M653.39,144.46,683,141.18l0,2-29.65,3.27Zm-.31-18.05,29.66-5.64L683,136l-29.68,3.64S653.23,126.4,653.08,126.41Zm1.09,59,15.6-1v2l-15.56,1Zm-.11-5.87,29.49-2.21,0,1.95-29.48,2.22Zm-.1-5.86,29.51-2.51,0,2L654,175.64Zm-.12-5.84,29.55-2.52,0,2-29.54,2.51Zm-.12-5.83,29.59-2.55v1.95L653.76,164Zm-.11-5.86,29.6-2.83,0,2-29.58,2.85Zm-.1-5.83,29.61-2.86,0,2-29.62,2.85Z"/></g></g></g></svg>