<svg xmlns="http://www.w3.org/2000/svg" viewBox="0 0 1170 350"><defs><style>.a,.h{fill:#dddddc;}.b,.j,.l{fill:#ececeb;}.c,.d,.e,.f,.g,.h,.j,.k,.l,.m,.o{fill-rule:evenodd;}.c,.s{opacity:0.1;isolation:isolate;}.d,.i{fill:#8f8f8f;}.e,.v{fill:#c4c4c4;}.f,.n{fill:#a3a3a3;}.g{fill:#cececd;}.k,.r{fill:#9da1a2;}.l{stroke:#9da1a2;stroke-miterlimit:10;stroke-width:4px;}.m,.t{fill:#fff;}.o,.p{fill:#858686;}.q{fill:#6f7173;}.u{fill:#737373;}.aj,.w{fill:#2b2b2b;}.w{opacity:0.1;}.x{fill:#27788c;}.y{fill:#4f5253;}.z{fill:#318fa6;}.aa{fill:#474747;}.ab{fill:#3aa0ba;}.ac{fill:#dfbda5;}.ad{fill:#c3987b;}.ae{fill:#8b6651;}.af{fill:#e8cab6;}.ag{fill:#1c7678;}.ah{fill:#369496;}.ai{fill:#72cbcc;}</style></defs><title>istj-logistician-personality-header</title><path class="a" d="M-10-11H1180V358H-10Z"/><path class="b" d="M-10,282H1180v76H-10Z"/><path class="c" d="M19,290H893v3.6H19Zm649,5h82v3H668Z"/><path class="d" d="M45,52.1l6.4-2.7,14.4,34-6.4,2.7Zm10,0,6.4-2.7,14.4,34-6.4,2.7Zm10,0,6.4-2.7,14.4,34-6.4,2.7Zm10,0,6.4-2.7,14.4,34-6.4,2.7Z"/><path class="e" d="M44.5,64.6v63.6h58.1V64.6ZM89.4,80.2H57.6V71.8H89.4Z"/><path class="d" d="M109,52.1l6.4-2.7,14.4,34-6.4,2.7Zm10,0,6.4-2.7,14.4,34-6.4,2.7Zm10,0,6.4-2.7,14.4,34-6.4,2.7Zm10,0,6.4-2.7,14.4,34-6.4,2.7Z"/><path class="e" d="M108.5,64.6v63.6h58.1V64.6Zm44.9,15.6H121.6V71.8h31.8Z"/><path class="e" d="M30,132.4H180.7V291.7H30Z"/><path class="f" d="M30,133.1H180.7v7.7H30Z"/><path class="g" d="M30,126.3H180.7v12H30Z"/><path class="h" d="M45.8,154.1h56.6v37.1H45.8Z"/><path class="f" d="M45.8,188.4h56.6v2.7H45.8Z"/><path class="f" d="M67.4,154a6.7,6.7,0,0,0,13.4,0Z"/><path class="h" d="M69.9,154a4.12,4.12,0,0,0,4.1,4.1,4.06,4.06,0,0,0,4.1-4.1Z"/><path class="i" d="M76.5,178.3H71.1l-.8,2.1H67.5l4.6-12h3.2l4.6,12H77.1l-.6-2.1Zm-4.7-2.2h4l-2-5.5Z"/><path class="h" d="M109.8,154.1h56.6v37.1H109.8Z"/><path class="f" d="M109.8,188.4h56.6v2.7H109.8Z"/><path class="f" d="M131.4,154a6.7,6.7,0,0,0,13.4,0Z"/><path class="h" d="M133.9,154a4.1,4.1,0,0,0,8.2,0Z"/><path class="i" d="M133.1,168.3h6.3a3.17,3.17,0,0,1,3.5,3.1,2.74,2.74,0,0,1-2.1,2.8,2.87,2.87,0,0,1,2.3,3c0,1.8-1.2,3.2-3.5,3.2h-6.5Zm5.7,4.9a1.3,1.3,0,1,0,0-2.6h-3.2v2.6Zm.1,5a1.4,1.4,0,1,0,0-2.8h-3.3v2.8Z"/><path class="h" d="M45.8,198.1h56.6v37.1H45.8Z"/><path class="f" d="M45.8,232.4h56.6v2.7H45.8Z"/><path class="f" d="M67.4,198a6.7,6.7,0,0,0,13.4,0Z"/><path class="h" d="M69.9,198a4.12,4.12,0,0,0,4.1,4.1,4.06,4.06,0,0,0,4.1-4.1Z"/><path class="i" d="M68.3,218.4a6.07,6.07,0,0,1,6.3-6.2,5.48,5.48,0,0,1,5.1,2.9l-2.2,1.1a3.21,3.21,0,0,0-2.9-1.7,3.91,3.91,0,0,0,0,7.8,3.4,3.4,0,0,0,2.9-1.7l2.2,1.1a5.66,5.66,0,0,1-5.1,3A6.27,6.27,0,0,1,68.3,218.4Z"/><path class="h" d="M109.8,198.1h56.6v37.1H109.8Z"/><path class="f" d="M109.8,232.4h56.6v2.7H109.8Z"/><path class="f" d="M131.4,198a6.7,6.7,0,1,0,13.4,0Z"/><path class="h" d="M133.9,198a4.1,4.1,0,0,0,8.2,0Z"/><path class="i" d="M132.6,212.3h4.7c3.8,0,6.4,2.4,6.4,6s-2.6,6-6.4,6h-4.7Zm4.7,9.8a3.75,3.75,0,1,0,0-7.5h-2.2v7.5Z"/><path class="h" d="M45.8,242.1h56.6v37.1H45.8Z"/><path class="f" d="M45.8,276.4h56.6v2.7H45.8Z"/><path class="f" d="M67.4,242a6.7,6.7,0,0,0,13.4,0Z"/><path class="h" d="M69.9,242a4.12,4.12,0,0,0,4.1,4.1,4.06,4.06,0,0,0,4.1-4.1Z"/><path class="i" d="M69.8,256.3h8.5v2.2H72.4v2.6h5.8v2.2H72.4v2.8h5.9v2.2H69.8v-12Z"/><path class="h" d="M109.8,242.1h56.6v37.1H109.8Z"/><path class="f" d="M109.8,276.4h56.6v2.7H109.8Z"/><path class="f" d="M131.4,242a6.7,6.7,0,0,0,13.4,0Z"/><path class="h" d="M133.9,242a4.1,4.1,0,0,0,8.2,0Z"/><path class="i" d="M133.9,256.3h8.5v2.2h-5.9v2.6h5.8v2.2h-5.8v5h-2.6v-12Z"/><path class="d" d="M331.4,20H564.6V260.4H331.4Z"/><path class="g" d="M359.4,45.7h27.3v87H359.4Z"/><path class="f" d="M359.4,86.9h27.3v45.8H359.4Z"/><path class="j" d="M367.9,96.2h10.3v29.3H367.9Z"/><path class="k" d="M367.9,120.4h10.3v5.1H367.9Z"/><path class="l" d="M379,58.9a5.9,5.9,0,1,1-5.9-5.9A5.91,5.91,0,0,1,379,58.9Z"/><path class="i" d="M372.2,75.9,371,77.1l-.9-.9,2.3-2.3h1.4v7.3h-1.6V75.9Z"/><path class="g" d="M389.4,45.7h27.3v87H389.4Z"/><path class="f" d="M389.4,86.9h27.3v45.8H389.4Z"/><path class="j" d="M397.9,96.2h10.3v29.3H397.9Z"/><path class="k" d="M397.9,120.4h10.3v5.1H397.9Z"/><path class="l" d="M409,58.9a5.9,5.9,0,1,1-5.9-5.9A5.91,5.91,0,0,1,409,58.9Z"/><path class="i" d="M399.4,79.9c3-2.2,3.9-3,3.9-3.9a1.12,1.12,0,0,0-1.2-1,2.79,2.79,0,0,0-2,.8l-.9-1a3.78,3.78,0,0,1,2.8-1.2c1.6,0,2.8.9,2.8,2.3s-1,2.3-3,3.7h3.1V81h-5.5V79.9Z"/><path class="g" d="M419.4,45.7h27.3v87H419.4Z"/><path class="f" d="M419.4,86.9h27.3v45.8H419.4Z"/><path class="j" d="M427.9,96.2h10.3v29.3H427.9Z"/><path class="k" d="M427.9,120.4h10.3v5.1H427.9Z"/><path class="l" d="M439,58.9a5.9,5.9,0,1,1-5.9-5.9A5.91,5.91,0,0,1,439,58.9Z"/><path class="i" d="M430,79.1a3,3,0,0,0,2,.8c.9,0,1.4-.4,1.4-.9s-.5-.9-1.5-.9H431V76.7h.9c.8,0,1.4-.3,1.4-.8s-.6-.9-1.4-.9a2.73,2.73,0,0,0-1.9.8l-.8-1a3.51,3.51,0,0,1,2.8-1.2c1.7,0,2.8.8,2.8,2a1.91,1.91,0,0,1-1.6,1.7,1.93,1.93,0,0,1,1.7,1.8c0,1.3-1.1,2.2-2.9,2.2a3.45,3.45,0,0,1-2.9-1.2Z"/><path class="g" d="M449.4,45.7h27.3v87H449.4Z"/><path class="f" d="M449.4,86.9h27.3v45.8H449.4Z"/><path class="j" d="M457.9,96.2h10.3v29.3H457.9Z"/><path class="k" d="M457.9,120.4h10.3v5.1H457.9Z"/><path class="l" d="M469,58.9a5.9,5.9,0,1,1-5.9-5.9A5.91,5.91,0,0,1,469,58.9Z"/><path class="i" d="M462.7,79.7h-3.5V78.5l2.9-4.6h2.2v4.4h.9v1.4h-.9v1.5h-1.6Zm-2-1.4h2V75.2Z"/><path class="g" d="M479.4,45.7h27.3v87H479.4Z"/><path class="f" d="M479.4,86.9h27.3v45.8H479.4Z"/><path class="j" d="M487.9,96.2h10.3v29.3H487.9Z"/><path class="k" d="M487.9,120.4h10.3v5.1H487.9Z"/><path class="l" d="M499,58.9a5.9,5.9,0,1,1-5.9-5.9A5.91,5.91,0,0,1,499,58.9Z"/><path class="i" d="M490.3,79.2a2.79,2.79,0,0,0,2,.8c.9,0,1.4-.5,1.4-1.1s-.5-1.1-1.3-1.1a2,2,0,0,0-1.5.6l-1.1-.3V73.9h5v1.3h-3.5V77a2.89,2.89,0,0,1,1.7-.6,2.37,2.37,0,0,1,2.4,2.4c0,1.6-1.2,2.5-2.9,2.5a3.47,3.47,0,0,1-2.8-1.1l.6-1Z"/><path class="g" d="M509.4,45.7h27.3v87H509.4v-87Z"/><path class="f" d="M509.4,86.9h27.3v45.8H509.4V86.9Z"/><path class="j" d="M517.9,96.2h10.3v29.3H517.9Z"/><path class="k" d="M517.9,120.4h10.3v5.1H517.9Z"/><path class="l" d="M529,58.9a5.9,5.9,0,1,1-5.9-5.9A5.91,5.91,0,0,1,529,58.9Z"/><path class="i" d="M522.7,73.7a3.29,3.29,0,0,1,2.2.8l-.7,1.2a1.89,1.89,0,0,0-1.5-.6,1.93,1.93,0,0,0-1.8,2.1v.2a2.49,2.49,0,0,1,4.4,1.5,2.56,2.56,0,0,1-2.8,2.5c-2.2,0-3.2-1.7-3.2-3.8,0-2.3,1.2-3.9,3.4-3.9Zm-.4,4a1.91,1.91,0,0,0-1.4.7,1.54,1.54,0,0,0,1.5,1.5,1.23,1.23,0,0,0,1.3-1.1,1.32,1.32,0,0,0-1.4-1.1Z"/><path class="f" d="M331.4,132.2H564.6v16.5H331.4Z"/><path class="g" d="M331.4,132.2H564.6v2.6H331.4Z"/><path class="g" d="M359.4,167.7h27.3v87H359.4Z"/><path class="f" d="M359.4,208.9h27.3v45.8H359.4Z"/><path class="j" d="M367.9,218.2h10.3v29.3H367.9Z"/><path class="k" d="M367.9,242.4h10.3v5.1H367.9Z"/><path class="l" d="M379,180.9a5.9,5.9,0,1,1-5.9-5.9A5.91,5.91,0,0,1,379,180.9Z"/><path class="i" d="M373.2,197.2h-3.7v-1.4H375v1.1l-2.7,6.3h-1.7l2.6-6Z"/><path class="g" d="M389.4,167.7h27.3v87H389.4Z"/><path class="f" d="M389.4,208.9h27.3v45.8H389.4Z"/><path class="j" d="M397.9,218.2h10.3v29.3H397.9Z"/><path class="k" d="M397.9,242.4h10.3v5.1H397.9Z"/><path class="l" d="M409,180.9a5.9,5.9,0,1,1-5.9-5.9A5.91,5.91,0,0,1,409,180.9Z"/><path class="i" d="M400.8,199.4c-.8-.3-1.5-.8-1.5-1.7,0-1.4,1.5-1.9,2.8-1.9s2.8.6,2.8,1.9a1.72,1.72,0,0,1-1.5,1.7,2.11,2.11,0,0,1,1.6,1.9c0,1.4-1.4,2-2.9,2s-2.9-.7-2.9-2A2.4,2.4,0,0,1,400.8,199.4Zm1.4.7c-.5.1-1.4.4-1.4,1s.6.9,1.4.9,1.4-.3,1.4-.9S402.7,200.1,402.2,200.1Zm0-3c-.7,0-1.2.3-1.2.8s.8.8,1.2.9c.5-.1,1.2-.3,1.2-.9S402.9,197.1,402.2,197.1Z"/><path class="g" d="M419.4,167.7h27.3v87H419.4Z"/><path class="f" d="M419.4,208.9h27.3v45.8H419.4Z"/><path class="j" d="M427.9,218.2h10.3v29.3H427.9Z"/><path class="k" d="M427.9,242.4h10.3v5.1H427.9Z"/><path class="l" d="M439,180.9a5.9,5.9,0,1,1-5.9-5.9A5.91,5.91,0,0,1,439,180.9Z"/><path class="i" d="M430.3,201.4a1.91,1.91,0,0,0,3.3-1.5v-.2a2.48,2.48,0,0,1-1.9.9,2.33,2.33,0,0,1-2.5-2.4,2.56,2.56,0,0,1,2.8-2.5c2.2,0,3.2,1.7,3.2,3.8s-1.2,3.8-3.4,3.8a3.29,3.29,0,0,1-2.2-.8Zm1.8-4.3a1.23,1.23,0,0,0-1.3,1.1c0,.8.6,1.1,1.4,1.1a1.75,1.75,0,0,0,1.4-.7,1.54,1.54,0,0,0-1.5-1.5Z"/><path class="g" d="M449.4,167.7h27.3v87H449.4Z"/><path class="f" d="M449.4,208.9h27.3v45.8H449.4Z"/><path class="j" d="M457.9,218.2h10.3v29.3H457.9Z"/><path class="k" d="M457.9,242.4h10.3v5.1H457.9Z"/><path class="l" d="M469,180.9a5.9,5.9,0,1,1-5.9-5.9A5.91,5.91,0,0,1,469,180.9Z"/><path class="i" d="M458.8,197.9l-1.2,1.2-.9-.9,2.3-2.3h1.4v7.3h-1.6v-5.3Zm5.7-2.2c2.1,0,3,1.9,3,3.8s-.9,3.8-3,3.8-3-1.9-3-3.8S462.4,195.7,464.5,195.7Zm0,1.4c-1.1,0-1.5,1-1.5,2.4s.4,2.4,1.5,2.4,1.4-1.1,1.4-2.4S465.5,197.1,464.5,197.1Z"/><path class="g" d="M479.4,167.7h27.3v87H479.4Z"/><path class="f" d="M479.4,208.9h27.3v45.8H479.4Z"/><path class="j" d="M487.9,218.2h10.3v29.3H487.9Z"/><path class="k" d="M487.9,242.4h10.3v5.1H487.9Z"/><path class="l" d="M499,180.9a5.9,5.9,0,1,1-5.9-5.9A5.91,5.91,0,0,1,499,180.9Z"/><path class="i" d="M489.9,197.9l-1.2,1.2-.9-.9,2.3-2.3h1.4v7.3h-1.6v-5.3Zm4.5,0-1.2,1.2-.9-.9,2.3-2.3H496v7.3h-1.6v-5.3Z"/><path class="g" d="M509.4,167.7h27.3v87H509.4v-87Z"/><path class="f" d="M509.4,208.9h27.3v45.8H509.4V208.9Z"/><path class="j" d="M517.9,218.2h10.3v29.3H517.9Z"/><path class="k" d="M517.9,242.4h10.3v5.1H517.9Z"/><path class="l" d="M529,180.9a5.9,5.9,0,1,1-5.9-5.9A5.91,5.91,0,0,1,529,180.9Z"/><path class="i" d="M518.9,197.9l-1.2,1.2-.9-.9,2.3-2.3h1.4v7.3h-1.6Zm2.8,4c3-2.2,3.9-3,3.9-3.9a1.12,1.12,0,0,0-1.2-1,2.79,2.79,0,0,0-2,.8l-.9-1a3.78,3.78,0,0,1,2.8-1.2c1.6,0,2.8.9,2.8,2.3s-1,2.3-3,3.7h3.1V203h-5.5v-1.1Z"/><path class="f" d="M331.4,254.2H564.6v16.5H331.4V254.2Z"/><path class="g" d="M331.4,252.2H564.6v2.6H331.4Z"/><path class="f" d="M325.2,9.2h16.5V291.8H325.2Zm230,0h16.5V291.8H555.2Z"/><path class="f" d="M325.2,9.2h244V25.7h-244Z"/><path class="j" d="M825.2,121.6h39v49h-39Z"/><path class="m" d="M821.2,121.6h39v49h-39Z"/><path class="f" d="M821.2,121.6h39v7.9h-39Z"/><path class="n" d="M835.9,152.1a5.88,5.88,0,0,0,4.4,1.8c2,0,3.1-1.1,3.1-2.5s-1.1-2.5-3-2.5a4.6,4.6,0,0,0-3.5,1.4l-2.5-.7V140h11.4v3h-8v4.2a5.6,5.6,0,0,1,3.7-1.4,5.17,5.17,0,0,1,5.3,5.4c0,3.5-2.6,5.7-6.7,5.7a8.06,8.06,0,0,1-6.4-2.5l2.2-2.3Z"/><path class="e" d="M655,61.4H808.3v86.3H655Z"/><path class="o" d="M663.3,68.8H800.1v71.5H663.3Z"/><path class="m" d="M642.9,118.1H615.4a6.5,6.5,0,1,0,0,13h27.5Z"/><path class="f" d="M615.4,131.1a6.5,6.5,0,1,1,0-13h29.5v-2.2H614.7a8.7,8.7,0,0,0,0,17.4h30.2v-2.2Z"/><path class="m" d="M642.9,136.1H615.4a6.5,6.5,0,1,0,0,13h27.5Z"/><path class="f" d="M615.4,149.1a6.5,6.5,0,1,1,0-13h29.5v-2.2H614.7a8.7,8.7,0,0,0,0,17.4h30.2v-2.2Z"/><path class="m" d="M642.9,154.1H615.4a6.5,6.5,0,1,0,0,13h27.5Z"/><path class="f" d="M615.4,167.1a6.5,6.5,0,1,1,0-13h29.5v-2.2H614.7a8.7,8.7,0,0,0,0,17.4h30.2v-2.2Z"/><path class="e" d="M606.8,183.3h13.4V292.4H606.8Z"/><path class="f" d="M606.8,183.3h13.4v11.5H606.8Z"/><path class="e" d="M856.8,183.3h13.4V292.4H856.8Z"/><path class="f" d="M856.8,183.3h13.4v11.5H856.8Z"/><path class="e" d="M599.4,169.9H877.8v18.4H599.4Z"/><path class="f" d="M775.9,203.2h65.3v25.9H775.9Z"/><path class="d" d="M775.9,229.1h65.3v3H775.9Z"/><path class="o" d="M813.3,218.3c0,3.8-2.1,6.9-4.7,6.9s-4.7-3.1-4.7-6.9,2.1-6.9,4.7-6.9S813.3,214.5,813.3,218.3Z"/><path class="e" d="M813.3,216.1a4.7,4.7,0,1,1-4.7-4.7A4.76,4.76,0,0,1,813.3,216.1Z"/><path class="f" d="M775.9,232.2h65.3v25.9H775.9V232.2Z"/><path class="d" d="M775.9,258.1h65.3v3H775.9Z"/><path class="o" d="M813.3,247.3c0,3.8-2.1,6.9-4.7,6.9s-4.7-3.1-4.7-6.9,2.1-6.9,4.7-6.9S813.3,243.5,813.3,247.3Z"/><path class="e" d="M813.3,245.1a4.7,4.7,0,1,1-4.7-4.7A4.76,4.76,0,0,1,813.3,245.1Z"/><path class="f" d="M775.9,261.2h65.3v25.9H775.9Z"/><path class="o" d="M813.3,276.3c0,3.8-2.1,6.9-4.7,6.9s-4.7-3.1-4.7-6.9,2.1-6.9,4.7-6.9S813.3,272.5,813.3,276.3Z"/><path class="e" d="M813.3,274.1a4.7,4.7,0,1,1-4.7-4.7A4.76,4.76,0,0,1,813.3,274.1Z"/><path class="f" d="M709.1,242.1h10.5V281H709.1Zm-50.5-61.2h19.9v14.4H658.6Zm91,0h19.9v14.4H749.6Z"/><path class="f" d="M669.5,114.6h89.7v141H669.5Z"/><path class="f" d="M696,289.9a7,7,0,1,1-7-7A7.15,7.15,0,0,1,696,289.9Z"/><path class="d" d="M725,289.9a7,7,0,1,1-7-7A7.15,7.15,0,0,1,725,289.9Z"/><path class="f" d="M746,289.9a7,7,0,1,1-7-7A7.15,7.15,0,0,1,746,289.9Z"/><path class="f" d="M685.9,277.5h56.8V284H685.9Z"/><path class="c" d="M540.3,310.9l67.7-6.8,66,7-62.2,7.7-71.5-7.9Z"/><path class="b" d="M561.4,94.4h10.7v23.5H561.4Z"/><path class="a" d="M568,118l-6.6-23.6H572Z"/><path class="b" d="M642.4,94.4h10.7v23.5H642.4Z"/><path class="a" d="M646.4,118l-4-23.6H653Z"/><path class="p" d="M575.7,53.3l-7.8,14.2L554.8,91.9,573.9,111l69.8.4,15.5-22.1L646.1,67.5l-7.9-13.9Zm-7.8,91.6-22.8,45.7,26.3,21.2Z"/><path class="q" d="M545.1,190.6l26.7-6.2-.4,47.6Z"/><path class="p" d="M646,144.9l22.8,45.7-26.3,21.2Z"/><path class="q" d="M668.8,190.6l-26.7-6.2.4,47.6Z"/><path class="r" d="M567.9,144.5h78.2v97.4H567.9Z"/><path class="b" d="M592.8,144.6l14.7,16.6,14.1-16.3Z"/><path class="s" d="M567.9,144.9l38.5,7.7,39.7-7.7Z"/><path class="b" d="M567.9,67.5h78.2v77.4H567.9Z"/><path class="s" d="M585.9,89.7l16.9,12.4-2.3,12.1,5.8,6.6,6.6-6.6-2.3-12.1,17-12.4Z"/><path class="t" d="M600.5,88.1h12.4v26.1H600.5Z"/><path class="p" d="M585.9,83.5h41.6v6.2H585.9Zm10.3,16.1a4.1,4.1,0,1,1-4.1-4.1A4.12,4.12,0,0,1,596.2,99.6Zm30,0a4.1,4.1,0,1,1-4.1-4.1A4.12,4.12,0,0,1,626.2,99.6Z"/><path class="r" d="M587.1,122.8h38.5l-7.8,9.8H594.9Z"/><path class="t" d="M593.7,124.8H619l-4.3,5.9H598.1Z"/><path class="i" d="M567.9,241.9,607,267.7v28.2H591.2Z"/><path class="u" d="M607,295.9v14.7H581.8l9.4-14.7Zm39.1-54L607,267.7v28.2h15.9l23.2-54Z"/><path class="i" d="M607,295.9v14.7h25.2l-9.3-14.7Z"/><path class="q" d="M567.9,241.9,607,267.7l39.1-25.8Zm38.2-47.3h-5.4l-.8,2.1h-2.8l4.6-12h3.2l4.6,12h-2.8Zm-4.7-2.2h4l-2-5.5Zm9.4-7.8h2.6v9.8h5.1v2.3h-7.6Z"/><path class="c" d="M690.3,310.9l67.7-6.8,66,7-62.2,7.7-71.5-7.9Z"/><path class="b" d="M711.4,94.4h10.7v23.5H711.4Z"/><path class="a" d="M718,118l-6.6-23.6H722Z"/><path class="b" d="M792.4,94.4h10.7v23.5H792.4Z"/><path class="a" d="M796.4,118l-4-23.6H803Z"/><path class="p" d="M725.7,53.3l-7.8,14.2L704.8,91.9,723.9,111l69.8.4,15.5-22.1L796.1,67.5l-7.9-13.9Zm-7.8,91.6-22.8,45.7,26.3,21.2Z"/><path class="q" d="M695.1,190.6l26.7-6.2-.4,47.6Z"/><path class="p" d="M796,144.9l22.8,45.7-26.3,21.2Z"/><path class="q" d="M818.8,190.6l-26.7-6.2.4,47.6Z"/><path class="r" d="M717.9,144.5h78.2v97.4H717.9Z"/><path class="b" d="M742.8,144.6l14.7,16.6,14.1-16.3Z"/><path class="s" d="M717.9,144.9l38.5,7.7,39.7-7.7Z"/><path class="b" d="M717.9,67.5h78.2v77.4H717.9Z"/><path class="p" d="M737.1,131.8h38.5l-7.8-17.6H744.9Z"/><path class="s" d="M735.9,89.7l16.9,12.4-2.3,12.1,5.8,6.6,6.6-6.6-2.3-12.1,17-12.4Z"/><path class="t" d="M750.5,88.1h12.4v26.1H750.5Z"/><path class="p" d="M735.9,83.5h41.6v6.2H735.9Zm10.3,16.1a4.1,4.1,0,1,1-4.1-4.1A4.12,4.12,0,0,1,746.2,99.6Zm30,0a4.1,4.1,0,1,1-4.1-4.1A4.12,4.12,0,0,1,776.2,99.6Z"/><path class="i" d="M717.9,241.9,757,267.7v28.2H741.2Z"/><path class="u" d="M757,295.9v14.7H731.8l9.4-14.7Zm39.1-54L757,267.7v28.2h15.9l23.2-54Z"/><path class="i" d="M757,295.9v14.7h25.2l-9.3-14.7Z"/><path class="q" d="M717.9,241.9,757,267.7l39.1-25.8Zm23.6-57.3h6.3a3.17,3.17,0,0,1,3.5,3.1,2.74,2.74,0,0,1-2.1,2.8,2.87,2.87,0,0,1,2.3,3c0,1.8-1.2,3.2-3.5,3.2h-6.5Zm5.8,4.9a1.3,1.3,0,1,0,0-2.6h-3.2v2.6Zm.1,5a1.4,1.4,0,1,0,0-2.8h-3.3v2.8Zm6.1-9.9H762v2.2h-6v2.6h5.8v2.2H756v2.8h5.9v2.2h-8.5l.1-12Zm13,4v8.1H764v-12h2.6l5.6,7.8v-7.8h2.6v12h-2.5Z"/><path class="c" d="M840.3,310.9l67.7-6.8,66,7-62.2,7.7-71.5-7.9Z"/><path class="b" d="M861.4,94.4h10.7v23.5H861.4Z"/><path class="a" d="M868,118l-6.6-23.6H872Z"/><path class="b" d="M942.4,94.4h10.7v23.5H942.4Z"/><path class="a" d="M946.4,118l-4-23.6H953Z"/><path class="p" d="M875.7,53.3l-7.8,14.2L854.8,91.9,873.9,111l69.8.4,15.5-22.1L946.1,67.5l-7.9-13.9Zm-7.8,91.6-22.8,45.7,26.3,21.2Z"/><path class="q" d="M845.1,190.6l26.7-6.2-.4,47.6Z"/><path class="p" d="M946,144.9l22.8,45.7-26.3,21.2Z"/><path class="q" d="M968.8,190.6l-26.7-6.2.4,47.6Z"/><path class="r" d="M867.9,144.5h78.2v97.4H867.9Z"/><path class="b" d="M892.8,144.6l14.7,16.6,14.1-16.3Z"/><path class="s" d="M867.9,144.9l38.5,7.7,39.7-7.7Z"/><path class="b" d="M867.9,67.5h78.2v77.4H867.9Z"/><path class="p" d="M892.1,127.8l14.4,3,14.1-3-14.1-3.6Z"/><path class="v" d="M886.1,124.8l20.4,13,20.1-13-20.1,5.4Z"/><path class="s" d="M885.9,89.7l16.9,12.4-2.3,12.1,5.8,6.6,6.6-6.6-2.3-12.1,17-12.4-14.5-5.5-12.6-.1-14.6,5.6Z"/><path class="t" d="M900.5,84.1h12.4v30.1H900.5Z"/><path class="p" d="M885.9,89.7V83.5l14.6.6Zm41.7-6.2-14.7.6,14.7,5.6"/><path class="u" d="M896.2,99.6a4.1,4.1,0,1,1-4.1-4.1A4.12,4.12,0,0,1,896.2,99.6Zm30,0a4.1,4.1,0,1,1-4.1-4.1A4.12,4.12,0,0,1,926.2,99.6Z"/><path class="i" d="M867.9,241.9,907,267.7v28.2H891.2Z"/><path class="u" d="M907,295.9v14.7H881.8l9.4-14.7Zm39.1-54L907,267.7v28.2h15.9l23.2-54Z"/><path class="i" d="M907,295.9v14.7h25.2l-9.3-14.7Z"/><path class="q" d="M867.9,241.9,907,267.7l39.1-25.8Zm13.7-51.2a6.07,6.07,0,0,1,6.3-6.2,5.48,5.48,0,0,1,5.1,2.9l-2.2,1.1a3.21,3.21,0,0,0-2.9-1.7,3.91,3.91,0,0,0,0,7.8,3.4,3.4,0,0,0,2.9-1.7L893,194a5.66,5.66,0,0,1-5.1,3A6.21,6.21,0,0,1,881.6,190.7Zm13-6.1h2.6v12h-2.6Zm7.4,4v8.1h-2.6v-12H902l5.6,7.8v-7.8h2.6v12h-2.5l-5.7-8.1Zm10.6-4h4.7c3.8,0,6.4,2.4,6.4,6s-2.6,6-6.4,6h-4.7Zm4.7,9.8a3.75,3.75,0,1,0,0-7.5h-2.2v7.5Zm10.9-2.7-4.6-7.1h2.9l3,4.8,3-4.8h2.9l-4.6,7.1v4.9h-2.6v-4.9Z"/><path class="q" d="M881.6,190.7a6.07,6.07,0,0,1,6.3-6.2,5.48,5.48,0,0,1,5.1,2.9l-2.2,1.1a3.21,3.21,0,0,0-2.9-1.7,3.91,3.91,0,0,0,0,7.8,3.4,3.4,0,0,0,2.9-1.7L893,194a5.66,5.66,0,0,1-5.1,3A6.21,6.21,0,0,1,881.6,190.7Zm13-6.1h2.6v12h-2.6Zm7.4,4v8.1h-2.6v-12H902l5.6,7.8v-7.8h2.6v12h-2.5l-5.7-8.1Zm10.6-4h4.7c3.8,0,6.4,2.4,6.4,6s-2.6,6-6.4,6h-4.7Zm4.7,9.8a3.75,3.75,0,1,0,0-7.5h-2.2v7.5Zm10.9-2.7-4.6-7.1h2.9l3,4.8,3-4.8h2.9l-4.6,7.1v4.9h-2.6v-4.9Z"/><path class="p" d="M867.9,67.5l19.3-1L866.9,87.3Zm78.4,0-19.4-1,20.3,20.8-.9-19.8Z"/><polygon class="w" points="373.49 329.91 453.49 324.04 529.32 330.13 456.87 339.11 373.49 329.91"/><polygon class="x" points="443.4 329.63 460.42 329.86 460.36 326.08 429.48 322.87 439.74 330.69 443.4 329.63"/><polygon class="x" points="421.5 324.42 415.4 328.91 415.35 332.63 443.51 333.35 443.4 329.63 421.5 324.42"/><polygon class="y" points="450.88 241.6 456.81 239.33 476.6 240.72 460.58 281.07 443.51 295.54 431.31 293.32 432.09 261.61 450.88 241.6"/><polygon class="q" points="460.58 281.07 448.22 311.12 441.29 313.83 431.31 316.88 440.18 285.84 460.58 281.07"/><polygon class="z" points="448.22 311.12 460.36 326.08 433.2 326.08 433.09 320.26 436.08 312.67 448.22 311.12"/><polygon class="q" points="443.95 263.28 440.18 285.84 423.77 299.64 411.52 285.01 405.48 257.73 424.88 245.87 443.95 263.28"/><polygon class="aa" points="470.17 232.29 476.6 240.72 448.72 257.23 435.97 240.99 470.17 232.29"/><polygon class="y" points="440.18 285.84 436.08 312.67 428.87 319.93 418.34 315.66 411.52 285.01 440.18 285.84"/><polygon class="ab" points="436.08 312.67 443.4 329.63 415.4 328.91 418.34 315.66 436.08 312.67"/><polygon class="ac" points="468.18 36.55 444.34 41.42 430.54 47.41 418.73 43.42 401.71 43.42 405.98 52.18 413.3 55.84 408.97 66.59 410.14 77.46 414.18 90.76 421.72 101.41 418.4 101.79 415.74 104.45 413.74 98.47 408.64 89.1 399.71 91.04 394 94.64 402.76 109.56 409.08 117.2 409.31 122.75 413.52 129.79 416.18 133 415.79 136.44 426.71 143.2 443.79 150.02 448.5 145.2 450.71 139.38 450.71 128.62 482.7 121.81 477.32 84.55 478.76 77.35 476.11 64.65 473.11 61.05 468.18 36.55"/><polygon class="ad" points="416.12 45.42 423.61 70.75 428.6 94.2 437.52 131.18 450.71 128.62 449.5 133.78 450.71 139.38 443.79 150.02 415.79 136.44 408.92 122.14 404.48 109.56 415.74 104.45 412.92 98.38 412.16 92.82 416.79 94.53 410.14 77.46 410.19 67.26 413.3 55.84 406.98 50.96 401.71 43.42 410.91 43.92 416.12 45.42"/><polygon class="ae" points="404.48 109.56 415.74 104.45 408.92 122.14 404.76 114.88 404.48 109.56"/><polygon class="ae" points="450.71 128.62 431.98 132.23 443.79 150.02 448.94 145.03 450.71 139.38 450.71 128.62"/><polygon class="ad" points="432.81 87.66 433.81 77.18 443.95 74.74 448.89 85.55 428.6 94.2 449.72 92.04 453.76 95.64 448 66.04 430.48 75.35 428.54 81.84 432.81 87.66"/><polygon class="ad" points="465.74 80.45 465.96 71.36 475.16 68.37 477.77 69.75 477.32 81.61 460.8 87.77 461.42 91.15 477.32 84.55 480.15 74.46 476.77 62.66 459.97 67.42 461.36 80.84 465.74 80.45"/><polygon class="ae" points="453.76 95.64 458.59 99.19 462.02 94.2 453.76 95.64"/><polygon class="af" points="449.33 71.8 457.37 70.03 462.02 94.2 453.76 95.64 449.33 71.8"/><polygon class="x" points="449.33 71.8 447.5 68.97 448 66.04 456.2 64.38 458.59 66.98 457.37 70.03 449.33 71.8"/><path class="z" d="M448,66l-24.39,4.71.94,8.87,2.16,5.43,1.89,9.15,23.94-5L449.33,71.8Zm-17.52,9.31h0l13.08-2.55L446,85l-13.14,2.66Z"/><path class="z" d="M456.2,64.37l23.9-4.65,4.43,23.34L460.8,87.77,457.37,70ZM463.52,69h0l2.22,11.42,11.36-2-2.27-11.64Z"/><polygon class="ae" points="445.89 110.66 469.73 105.95 470.12 107.84 446.28 112.6 445.89 110.66"/><polygon class="ae" points="410.02 102.39 405.15 93.09 400.16 95.36 410.02 102.39"/><polygon class="a" points="468.18 36.55 422.94 31.11 425.99 40.98 430.54 47.41 468.18 36.55"/><polygon class="v" points="401.71 43.42 391.9 48.13 389.51 67.53 400.71 64.32 413.3 55.84 401.71 43.42"/><polygon class="a" points="389.51 67.53 385.08 100.63 399.71 91.04 411.25 80.28 413.3 55.84 389.51 67.53"/><polygon class="r" points="412.02 81.73 418.88 95.64 412.92 98.38 408.36 88.55 395.83 95.2 404.2 109.11 408.92 122.14 385.52 100.24 392.06 95.03 412.02 81.73"/><polygon class="v" points="430.54 47.41 422.94 31.11 401.71 43.42 430.54 47.41"/><polygon class="x" points="423.61 70.75 392.06 95.03 395.56 103.57 395.83 95.2 425.82 80.95 423.61 70.75"/><polygon class="ae" points="414.4 86.33 425.82 80.95 426.1 82.17 426.71 85.05 415.55 88.88 414.4 86.33"/><polygon class="u" points="408.64 89.1 414.4 86.33 415.55 88.88 409.53 91.09 408.64 89.1"/><polygon class="a" points="415.79 136.44 413.19 147.25 437.08 160.44 446.89 163.6 454.15 155.46 458.14 145.09 450.71 139.38 443.79 150.02 415.79 136.44"/><polygon class="v" points="458.14 145.09 468.9 148.41 460.42 165.27 450.38 178.85 425.16 167.37 403.87 154.29 413.19 147.25 446.89 163.6 458.14 145.09"/><polygon class="ag" points="403.87 154.29 440.51 173.64 445.01 174.97 450.38 178.85 425.77 207.51 403.98 170.7 403.87 154.29"/><polygon class="ag" points="450.38 178.85 452.38 173.36 456.81 168.26 468.9 148.41 480.48 174.8 472.89 194.59 461.75 208.26 455.1 216.05 447.61 197.53 450.38 178.85"/><polygon class="y" points="443.79 150.02 437.91 159.22 446.89 163.6 452.55 154.46 443.79 150.02"/><polygon class="u" points="446.89 163.6 440.51 173.64 450.38 178.85 456.81 168.26 446.89 163.6"/><polygon class="i" points="402.26 170.42 450.38 178.85 460.58 180.62 455.11 216.05 461.75 223.85 451.16 241.6 447.72 263.83 389.18 254.91 402.26 170.42"/><polygon class="q" points="451.16 241.6 391.68 239.22 393.29 228.52 431.7 232.12 439.96 236.06 445.28 237.39 451.16 241.6"/><polygon class="ah" points="472.89 194.59 455.1 216.05 454.15 222.25 461.75 224.81 458.14 231.29 451.16 241.6 476.77 240.72 472.89 194.59"/><polygon class="ai" points="403.87 154.29 404.48 207.18 380.31 226.25 384.75 165.38 403.87 154.29"/><polygon class="ah" points="404.48 205.99 430.62 215.3 433.23 216.68 437.16 217.29 434.78 234.87 430.73 233.26 426.8 233.54 380.31 226.25 404.48 205.99"/><polygon class="a" points="430.62 215.3 437.16 217.29 437 225.44 434.78 234.87 426.8 233.54 430.62 215.3"/><polygon class="ad" points="437.16 217.29 446.24 213.27 455.01 216.59 454.44 220.34 447.61 220.34 437.16 217.29"/><polygon class="ah" points="468.9 148.41 491.74 182.84 483.42 190.27 472.89 194.59 468.9 148.41"/><polygon class="ai" points="472.89 194.59 491.74 182.84 507.15 172.81 510.03 172.7 512.36 169.43 519.12 175.25 517.63 183.28 517.4 188.61 488.74 210.89 472.89 194.59"/><polygon class="a" points="512.36 169.43 518.96 176.3 522.73 184.39 517.4 188.61 507.15 172.81 512.36 169.43"/><polygon class="i" points="527.72 140.43 532.59 129.01 534.81 141.26 530.65 142.26 527.72 140.43"/><polygon class="ae" points="516.96 175.97 522.73 184.39 527.44 181.4 525.94 165.88 516.96 175.97"/><polygon class="y" points="527.72 140.43 534.81 141.26 528.93 192.87 521.78 192.04 522.66 184.39 527.11 177.94 525.02 163.88 527.72 140.43"/><path class="aj" d="M442.4,78.4A2.47,2.47,0,1,1,440,76,2.46,2.46,0,0,1,442.4,78.4Z"/><path class="aj" d="M472.81,72.8a2.39,2.39,0,0,1-2.44,2.44,2.41,2.41,0,1,1,0-4.82A2.38,2.38,0,0,1,472.81,72.8Z"/><polygon class="ad" points="524.35 162.84 537.18 166.65 530.12 185.3 522.73 184.39 524.25 168.38 524.35 162.84"/><polygon class="ac" points="512.36 169.43 525.39 160.66 529.18 173.81 523.66 174.59 522.04 170.46 518.31 177.94 512.36 169.43"/><polygon class="ac" points="437.16 217.29 454.44 220.34 455.73 227.4 457.7 232.01 454.71 236.22 451.16 241.6 434.78 234.87 437.16 217.29"/><polygon class="ad" points="454.44 220.34 451.16 241.6 456.29 237.81 461.75 224.81 454.44 220.34"/><polygon class="aa" points="443.95 263.28 407.64 267.98 405.38 257.34 443.95 263.28"/></svg>