<svg id="ILLUSTRATION" xmlns="http://www.w3.org/2000/svg" viewBox="0 0 900 350"><defs><style>.cls-1,.cls-21,.cls-27,.cls-40{fill:#2b2b2b;}.cls-1,.cls-27{opacity:0.1;}.cls-15,.cls-2{fill:#cecdcc;}.cls-3{fill:#8e8e8e;}.cls-16,.cls-4{fill:#dcdcdb;}.cls-5{fill:#a2a1a1;}.cls-35,.cls-6{fill:#ebebea;}.cls-31,.cls-7{fill:#5ebfd8;}.cls-23,.cls-8{fill:#6f7273;}.cls-10,.cls-11,.cls-12,.cls-13,.cls-14,.cls-15,.cls-16,.cls-17,.cls-18,.cls-19,.cls-20,.cls-21,.cls-22,.cls-27,.cls-28,.cls-29,.cls-30,.cls-31,.cls-34,.cls-35,.cls-36,.cls-37,.cls-38,.cls-39,.cls-8,.cls-9{fill-rule:evenodd;}.cls-24,.cls-9{fill:#848585;}.cls-10,.cls-44{fill:#50a8a9;}.cls-11,.cls-47,.cls-60{fill:#474748;}.cls-12,.cls-41{fill:#4f5353;}.cls-13,.cls-46{fill:#1d7678;}.cls-14,.cls-32{fill:#debca4;}.cls-17,.cls-43{fill:#369395;}.cls-18,.cls-56{fill:#72cbcb;}.cls-19,.cls-57{fill:#8a6651;}.cls-20,.cls-33{fill:#c2977a;}.cls-22,.cls-58{fill:#e8c9b6;}.cls-25{fill:#9b9fa0;}.cls-26{fill:#c3c3c3;}.cls-28,.cls-53{fill:#74cee4;}.cls-29,.cls-55{fill:#3a9fb9;}.cls-30,.cls-54{fill:#318ea5;}.cls-34,.cls-59{fill:#737474;}.cls-36{fill:#fbe3d4;}.cls-37{fill:#f4cab2;}.cls-38{fill:#c18f7c;}.cls-39{fill:#fff0e8;}.cls-42{fill:#92d5d5;}.cls-45{fill:#906a59;}.cls-48{fill:#66493b;}.cls-49{fill:#b08c79;}.cls-50{fill:#b89d8d;}.cls-51{fill:#fff;}.cls-52{fill:#28788b;}.cls-60{fill-opacity:0.3;}</style></defs><title>sentinels_Logistician_ISTJ_workplace_habits</title><g id="shadows"><polygon class="cls-1" points="185.43 314.34 115.23 302.98 50.22 319.66 120.14 331.51 185.43 314.34"/><polygon class="cls-1" points="393.17 318.89 322.17 304.46 243.67 317.46 326.67 331.96 393.17 318.89"/><polygon class="cls-1" points="331.5 291.5 712.17 342.83 900.83 307.83 850.5 301.83 835 283.42 581.5 261.17 503 272.92 402.17 246.5 409.5 282.17 331.5 291.5"/></g><polygon class="cls-2" points="299.6 48.51 334.5 58.54 467.19 39.24 898.33 33.42 893.57 275.08 331.1 228.59 299.6 48.51"/><polygon class="cls-3" points="299.6 48.51 334.5 36.42 899.5 0 898.33 33.42 334.5 58.54 299.6 48.51"/><polygon class="cls-4" points="6.5 272.5 331.5 241.5 334.5 58.54 56.39 16.33 1.08 32.58 6.5 272.5"/><polygon class="cls-5" points="1.08 32.58 334.5 58.54 334.5 36.42 0.33 0.33 1.08 32.58"/><polygon class="cls-1" points="475.5 123.17 485.83 94.92 489.75 172.42 426.25 170.42 426.75 136.92 475.5 123.17"/><polygon class="cls-6" points="420.88 99.54 421.25 164.92 485.83 167.92 485.75 99.92 443.25 94.92 420.88 99.54"/><polygon class="cls-7" points="420.83 94.92 420.88 99.54 485.75 99.92 485.75 93.92 420.83 94.92"/><polygon class="cls-4" points="426.63 111.13 479.88 111.13 480 159.25 427.25 157.88 426.63 111.13"/><polygon class="cls-6" points="437.21 109.25 437.5 160.13 442.24 160.5 441.06 109 437.21 109.25"/><polygon class="cls-6" points="450.82 109.63 451.11 160.5 455.85 160.88 454.67 109.38 450.82 109.63"/><polygon class="cls-6" points="464.43 110 464.72 160.88 469.46 161.25 468.27 109.75 464.43 110"/><polygon class="cls-6" points="425.17 122.96 482.04 123.46 481.92 120.58 424.42 120.58 425.17 122.96"/><polygon class="cls-6" points="425.17 135.79 482.04 136.29 481.92 133.42 424.42 133.42 425.17 135.79"/><polygon class="cls-6" points="425.17 148.46 482.04 148.96 481.92 146.08 424.42 146.08 425.17 148.46"/><polygon class="cls-4" points="439.42 104.33 464.25 104.33 464.08 107.5 439.58 107.33 439.42 104.33"/><g id="worker_2" data-name="worker 2"><polygon class="cls-8" points="599.64 173.8 607.08 166.35 617.36 173.44 610.63 222.7 593.62 221.28 599.64 173.8"/><polygon class="cls-9" points="573.42 181.59 588 164.38 607.08 166.35 598.93 215.61 575.19 211.71 573.42 181.59"/><polygon class="cls-10" points="519.03 192.93 510.6 196.17 510.92 203.47 528.46 200.9 526.34 191.07 519.03 192.93"/><polygon class="cls-11" points="580.15 140.44 580.42 155.77 602.48 152.49 580.15 140.44"/><polygon class="cls-8" points="586.97 123.44 597.34 127.82 580.42 155.77 573.11 137.25 586.97 123.44"/><polygon class="cls-8" points="529.85 81.06 521.15 74.76 511.23 95.31 516.91 111.5 537.02 94.83 529.85 81.06"/><polygon class="cls-12" points="573.11 94.07 556.06 69.09 521.15 74.76 527.98 91.93 573.11 94.07"/><polygon class="cls-8" points="580.89 100.69 574.31 82.55 556.06 69.09 527.98 91.93 542.07 105.95 580.89 100.69"/><polygon class="cls-13" points="588 164.38 594.06 192.58 582.47 211.48 575.62 189.79 575.58 180.26 588 164.38"/><polygon class="cls-14" points="548.52 154.65 540.96 157.21 538.67 166.57 549.34 185.13 573.18 167.01 572.37 157.32 564.5 153.29 548.52 154.65"/><polygon class="cls-15" points="538.81 170.04 536.59 181.04 534.29 190.4 544.96 208.96 566.69 211.36 570.86 182.62 571.69 172.18 538.81 170.04"/><polygon class="cls-16" points="538.81 170.04 536.59 181.04 544.01 185.13 555.99 186.24 566.69 211.36 570.86 182.62 571.69 172.18 538.81 170.04"/><polygon class="cls-10" points="578.03 191.91 588 164.38 572.37 157.32 567.45 169.19 557.73 185.97 563.67 192.36 578.03 191.91"/><polygon class="cls-13" points="534.15 159.14 529.73 160.36 510.6 196.17 529.78 196.02 531.95 190.13 534.15 159.14"/><polygon class="cls-17" points="577.1 211.44 578.03 191.91 567.2 187.43 557.38 189.81 555.07 203.42 554.37 216.46 577.1 211.44"/><polygon class="cls-10" points="567.2 187.43 565.46 180.35 555.99 186.24 555.07 203.42 567.2 187.43"/><polygon class="cls-18" points="572.37 157.32 567.2 187.43 555.99 186.24 572.37 157.32"/><polygon class="cls-17" points="530.23 213.06 543.04 215.32 543.67 202.81 541.18 178.33 527.78 182.57 530.23 213.06"/><polygon class="cls-10" points="541.99 156.86 529.73 160.36 527.78 182.57 534.78 183.73 541.99 156.86"/><polygon class="cls-10" points="538.83 179.02 533.75 183.51 543.67 202.81 544.01 185.13 538.83 179.02"/><polygon class="cls-18" points="541.99 156.86 533.75 183.51 544.01 185.13 541.99 156.86"/><polygon class="cls-12" points="574.31 82.55 593.97 89.11 584.9 107.24 563.32 99.08 540.76 100.25 536.2 98.88 574.31 82.55"/><polygon class="cls-14" points="527.98 91.93 516.91 111.5 524.68 154.04 542.55 151.61 555.35 156.79 564.63 149.28 571.48 138.93 563.32 99.08 527.98 91.93"/><polygon class="cls-19" points="542.55 151.61 553.89 169.22 569.54 148.49 564.63 149.28 542.55 151.61"/><polygon class="cls-20" points="553.89 169.22 569.9 155.99 574.69 140.91 579.71 132.69 582.46 115.75 571.58 103.74 563.32 99.08 564.63 149.28 568.05 148.89 553.89 169.22"/><polygon class="cls-12" points="573.08 118.59 577.96 118.34 582.46 115.75 571.58 103.74 563.32 99.08 566.93 118.3 573.08 118.59"/><polygon class="cls-19" points="569.49 126.18 577.23 134.2 578.63 126.86 575.53 124.04 569.49 126.18"/><polygon class="cls-8" points="563.32 99.08 593.97 89.11 588.52 123.97 585.98 121.47 579.67 112.68 563.32 99.08"/><polygon class="cls-11" points="574.69 140.91 588.52 123.97 579.67 112.68 578.63 126.86 574.69 140.91"/><polygon class="cls-20" points="530.31 112.49 522.99 116.14 529.92 120.06 536.46 129.54 540.73 126.9 544.13 128.56 550.03 117.25 556.75 111.71 548.63 110.41 543.73 111.35 542.05 115.99 539.21 117.59 535.97 116.54 534.33 112.89 530.31 112.49"/><polygon class="cls-19" points="540.26 128.26 536.46 129.54 540.59 132.81 544.13 128.56 540.26 128.26"/><path class="cls-21" d="M530.6,119.11a2.35,2.35,0,1,1-2.69-1.94A2.35,2.35,0,0,1,530.6,119.11Z"/><path class="cls-21" d="M552.2,116.76a2.35,2.35,0,1,1-2.7-1.94A2.35,2.35,0,0,1,552.2,116.76Z"/><polygon class="cls-22" points="535.97 116.54 536.46 129.54 544.13 128.56 542.05 115.99 535.97 116.54"/><polygon class="cls-12" points="545.77 110.15 557.27 113.61 544.26 112.91 545.77 110.15"/><polygon class="cls-12" points="532.15 110.3 522.99 116.14 534.33 112.89 532.15 110.3"/><polygon class="cls-20" points="569.98 112.38 579.67 112.68 578.63 126.86 569.49 126.18 569.98 112.38"/><polygon class="cls-19" points="576.77 116.2 573.02 116.4 573.17 122.13 576.77 116.2"/><polygon class="cls-18" points="541.63 137.68 532.96 141.61 541.92 143.18 552.36 139.65 541.63 137.68"/><polygon class="cls-17" points="532.96 141.61 540.94 135.41 552.36 139.65 541.53 139.44 532.96 141.61"/><polygon class="cls-23" points="393.06 260.35 404.76 293.15 416.44 291.08 424.95 261.41 393.06 260.35"/><polygon class="cls-23" points="502.55 269.12 517.08 304.19 532.67 302.07 534.83 285.5 592.5 280.83 586.89 229.07 495.46 234.39 502.55 269.12"/><polygon class="cls-24" points="388.1 230.14 390.93 291.79 404.76 293.15 407.83 278.83 497.83 286.5 503.35 302.87 517.08 304.19 519.12 247.23 388.1 230.14"/><polygon class="cls-4" points="540.73 230.58 634.99 210.03 489.8 199.31 373.21 212.42 519.47 239.79 540.73 230.58"/><polygon class="cls-25" points="512.74 231.64 519.12 221.01 634.99 210.03 634.28 234.12 519.12 247.23 512.74 231.64"/><polygon class="cls-26" points="519.12 247.23 519.12 221.01 373.21 212.42 374.01 237.67 519.12 247.23"/><polygon class="cls-27" points="414.29 212.15 473.23 214.55 516.19 208.43 467.23 205.41 414.29 212.15"/><polygon class="cls-28" points="482.19 207.39 499.84 202.11 464.98 201.54 477.69 209.87 482.19 207.39"/><polygon class="cls-29" points="461.6 199.07 472.96 212.6 501.05 208.88 499.84 202.11 473.86 205.03 461.6 199.07"/><polygon class="cls-30" points="439.11 195.58 430.79 204.58 431.69 210.65 472.96 212.6 472.4 205.71 439.11 195.58"/><polygon class="cls-31" points="464.08 171.96 471.73 170.39 477.31 204.66 472.4 205.71 453.5 175.34 464.08 171.96"/><polygon class="cls-28" points="438.88 187.71 422.69 173.09 427.19 169.72 471.73 170.39 467 173.99 438.88 187.71"/><polygon class="cls-29" points="422.69 173.09 430.79 204.58 472.4 205.71 467 173.99 422.69 173.09"/><polygon class="cls-1" points="519.38 202.23 513.54 201.04 510.79 200.81 521.15 207.46 550.57 212.95 577.94 211.98 597.96 207.33 549.25 203.69 534.44 202.68 519.38 202.23"/><polygon class="cls-32" points="527.8 201.08 535.86 196.7 528.55 193.15 513.54 201.04 527.8 201.08"/><polygon class="cls-33" points="513.54 201.04 521.15 207.46 533.38 207.46 535.86 196.7 513.54 201.04"/><polygon class="cls-20" points="563.59 203.29 558.98 198.38 549.21 203.68 550.21 210.82 560.22 211.36 563.59 203.29"/><polygon class="cls-14" points="571.56 200.9 567.93 199.22 558.98 198.38 560.22 211.36 571.91 209.19 571.56 200.9"/><polygon class="cls-10" points="567.93 199.22 594.06 192.58 597.96 207.33 571.91 209.19 567.93 199.22"/></g><g id="worker_1" data-name="worker 1"><polygon class="cls-8" points="826.07 185.13 844.14 170.96 856.19 181.59 845.2 248.21 822.88 247.85 826.07 185.13"/><polygon class="cls-9" points="797.37 176.28 813.05 167.24 844.14 170.96 832.09 242.19 794.89 241.48 797.37 176.28"/><polygon class="cls-34" points="758.52 83.7 756.62 70.33 714.23 85.61 711.79 108.13 756.4 101.24 758.52 83.7"/><polygon class="cls-9" points="737.84 113.56 729.64 93.98 756.62 70.33 788.33 84.72 775.53 112.76 737.84 113.56"/><polygon class="cls-13" points="799.62 183.94 813.05 167.24 824.12 199.22 797.19 225.93 802.8 205.21 799.62 183.94"/><polygon class="cls-13" points="754.76 208.26 742 167.77 715.69 186.46 721.27 207.46 754.76 208.26"/><polygon class="cls-17" points="781.27 159.84 799.67 163.61 813.05 167.24 805.16 229.43 743.51 228.01 742 167.77 751.04 163.61 781.27 159.84"/><polygon class="cls-35" points="781.27 159.84 792.5 156.97 800.07 163.74 784.79 189.65 771.29 179.46 757.38 188.2 748.51 164.94 753.83 157.63 781.27 159.84"/><polygon class="cls-36" points="729.64 93.98 711.79 108.13 721.09 162.32 749.13 162.46 767.68 159.78 763.89 114.79 761.89 97.35 753.65 97.08 729.64 93.98"/><polygon class="cls-37" points="757.57 163.66 766.07 167.33 767.05 160.43 759.76 99.21 773.3 111 773.61 113.32 774.1 119.16 775.79 122.64 777.7 114.27 778.94 111.25 788.46 117.19 785.13 121.99 786.31 125.57 785.66 129.49 785.06 136.11 786.39 135.53 790.93 143.51 792.5 156.97 771.29 179.46 757.57 163.66"/><polygon class="cls-37" points="778.08 126.55 778.07 133.77 790.64 134.37 789.92 120.02 779.14 115.81 778.08 126.55"/><polygon class="cls-34" points="788.33 84.72 799.27 109.04 784.41 110.52 770.22 110.81 753.65 97.08 788.33 84.72"/><polygon class="cls-9" points="770.22 110.81 771.68 123.48 778.05 124.01 779.03 116.77 789.92 120.02 790.64 134.37 799.27 109.04 770.22 110.81"/><polygon class="cls-38" points="786.24 121.78 782.54 121.06 782.46 127.3 786.24 121.78"/><polygon class="cls-38" points="790.64 134.37 782.25 133.82 790.93 143.51 790.64 134.37"/><polygon class="cls-38" points="778.76 157.68 766.89 158.9 721.09 162.32 749.93 163.79 771.29 179.46 778.76 157.68"/><polygon class="cls-38" points="730.93 146.69 746.96 146.87 747.4 148.73 730.93 148.73 730.93 146.69"/><polygon class="cls-37" points="722.6 117.9 728.18 117.28 731.1 124.28 734.12 127.2 737.39 123.66 738.55 116.48 741.03 115.24 753.78 116.75 739.61 137.39 734.65 132.25 732.17 137.92 718.08 120.56 722.6 117.9"/><polygon class="cls-38" points="735.71 133.4 732.17 137.92 736.6 141.46 739.61 137.39 735.71 133.4"/><polygon class="cls-39" points="731.1 124.28 732.17 137.92 739.61 137.39 737.39 123.66 731.1 124.28"/><circle class="cls-40" cx="724.64" cy="127.02" r="2.75"/><path class="cls-21" d="M749.26,125a2.75,2.75,0,1,1-2.74-2.74A2.75,2.75,0,0,1,749.26,125Z"/><polygon class="cls-34" points="738.55 110.81 754.31 114.36 753.78 116.75 738.55 116.48 738.55 110.81"/><polygon class="cls-34" points="725.61 112.23 717.37 118.78 718.08 120.56 728.18 117.28 725.61 112.23"/><polygon class="cls-23" points="591.97 261.88 598.97 314.35 614.09 312.12 633.69 242.48 608.92 243.88 591.97 261.88"/><polygon class="cls-41" points="854.73 260.17 842.25 310.5 830.5 310.25 818.37 254.58 848.94 248.77 854.73 260.17"/><polygon class="cls-24" points="751.02 273.04 733.76 323.6 717.78 322.2 713.17 305.17 600.17 295.17 598.97 314.35 585.78 313.15 584.14 239.23 754.67 245.59 751.02 273.04"/><polygon class="cls-23" points="859.24 238.15 855.75 308 842.25 310.5 840.5 293.17 756 305 751.81 321.56 733.76 323.6 733.38 255.02 859.24 238.15"/><polygon class="cls-26" points="752.76 217.4 733.23 259.55 569.52 251.75 568.75 223.97 752.76 217.4"/><polygon class="cls-25" points="759.31 221.54 872.69 220.95 871.42 254.23 733.23 259.55 732.7 235.45 759.31 221.54"/><polygon class="cls-4" points="872.69 220.95 693.27 211.87 568.75 223.97 732.7 235.45 872.69 220.95"/><polygon class="cls-35" points="677.33 153.07 724.11 148.46 732.43 209.85 687.25 208.26 677.33 153.07"/><polygon class="cls-36" points="686.37 174.59 680.08 169.54 676.09 178.67 684.66 193.64 686.37 174.59"/><polygon class="cls-37" points="691.77 173.18 680.08 169.54 684.66 193.64 691.86 185.31 691.77 173.18"/><polygon class="cls-27" points="793.56 216.76 763 222.87 714.89 213.04 758.48 214.9 793.56 216.76"/><polygon class="cls-37" points="778.67 217.56 767.51 210.38 751.83 218.09 758.88 229.38 775.49 227.66 778.67 217.56"/><polygon class="cls-36" points="791.7 214.9 785.5 211.98 767.51 210.38 775.49 227.66 791.08 224.47 791.7 214.9"/><polygon class="cls-37" points="785.5 211.98 824.12 199.22 831.63 218.95 791.08 224.47 785.5 211.98"/></g><g id="suitcase"><polygon class="cls-42" points="308.33 269.63 305.92 267.21 321.08 265.54 323.5 270.21 308.33 269.63"/><polygon class="cls-43" points="308.67 279.63 277.17 277.96 277.67 313.96 291.17 316.96 308.67 279.63"/><polygon class="cls-42" points="311.5 291.63 290.5 281.13 277.17 277.96 327.83 273.46 335.5 292.63 311.5 291.63"/><polygon class="cls-44" points="290.5 281.13 337 280.13 338.33 314.96 291.17 316.96 290.5 281.13"/><polygon class="cls-44" points="308.25 271.21 311 268.46 322.92 267.88 324.83 271.88 316.58 271.79 314.58 278.38 309.83 278.88 308.25 271.21"/><polygon class="cls-43" points="304.33 277.13 305.92 267.21 311 268.46 309.83 278.88 304.33 277.13"/></g><g id="boss"><polygon class="cls-45" points="200.53 169.23 199.47 157.71 219.67 152.04 220.73 174.72 207.44 177.91 200.53 169.23"/><polygon class="cls-4" points="181.22 179.51 188.13 162.67 199.47 157.71 207.44 177.91 199.29 182.34 181.22 179.51"/><polygon class="cls-44" points="132.26 158.06 144.3 150.62 180.98 177.19 169.64 201.47 132.43 193.14 132.26 158.06"/><polygon class="cls-41" points="107.04 61.43 85.25 61.96 78.22 74.34 77.57 97.76 114.1 114.47 107.04 61.43"/><polygon class="cls-41" points="117.14 62.67 112.18 44.77 155.05 53.1 169.73 82.05 135.56 84.28 117.14 62.67"/><polygon class="cls-23" points="143.54 79.68 142.83 69.93 112.18 44.77 85.25 61.96 108.36 79.63 143.54 79.68"/><polygon class="cls-46" points="135.73 301.71 154.23 306.57 154.23 311.44 103.42 311.44 106.83 294.23 135.73 301.71"/><polygon class="cls-43" points="127.58 289.48 134.6 294.01 154.23 306.57 112.9 305.56 127.58 289.48"/><polygon class="cls-46" points="101.14 313.71 120.38 319.37 119.58 325.03 86.46 325.03 86.46 319.37 101.14 313.71"/><polygon class="cls-43" points="100.04 298.76 112.9 305.56 120.38 319.37 86.46 319.37 87.49 308.05 100.04 298.76"/><polygon class="cls-47" points="135.51 265.02 144.42 271.13 134.6 294.01 112.9 305.56 102.15 280.01 106.17 266.15 135.51 265.02"/><polygon class="cls-41" points="107.92 270.91 117.87 282.68 112.9 305.56 87.49 308.05 81.21 288.47 107.92 270.91"/><polygon class="cls-41" points="131.13 248.94 157.4 240.96 144.42 271.13 117.87 282.68 112.66 255.96 131.13 248.94"/><polygon class="cls-23" points="109.24 252.56 121.8 265.02 117.87 282.68 81.21 288.47 70.82 260.04 109.24 252.56"/><polygon class="cls-47" points="94.35 230.6 157.4 240.96 121.8 265.02 70.82 260.04 68.65 240.71 94.35 230.6"/><polygon class="cls-26" points="149.48 186.53 153.26 233.48 97.86 239.87 87.49 168.38 123.47 153.2 149.48 186.53"/><polygon class="cls-2" points="149.48 186.53 153.26 233.48 124.86 238.4 119.58 162.71 123.47 153.2 149.48 186.53"/><polygon class="cls-6" points="119.68 168.56 140.05 176.38 132.79 145.5 114.33 143.16 85.65 146.54 85.27 176.38 93.38 182.83 119.68 168.56"/><polygon class="cls-43" points="94.87 170.73 122.16 201.29 130.84 239.29 123.84 245.76 68.65 240.71 66.64 205.21 61.79 155.81 85.31 146.9 94.87 170.73"/><polygon class="cls-46" points="136.55 149.02 144.3 150.62 157.4 240.96 123.84 245.76 122.16 201.29 136.55 149.02"/><polygon class="cls-42" points="122.16 201.29 134.23 145.83 145.01 163.73 137.57 171.97 140.23 187.91 122.16 201.29"/><polygon class="cls-42" points="122.16 201.29 85.65 146.54 74.85 166.83 93.1 172.5 92.39 190.22 122.16 201.29"/><polygon class="cls-45" points="83.79 114.2 81.35 118.45 85.65 146.54 119.68 168.56 108.36 79.63 97.06 87.22 95.94 99.59 86.78 101.6 83.79 114.2"/><polygon class="cls-48" points="85.6 110.12 88.49 111.73 81.71 120.31 80.6 114.47 85.6 110.12"/><polygon class="cls-48" points="113.93 137.72 106.49 147.42 99.91 147.8 119.68 168.56 147.06 141.26 113.93 137.72"/><polygon class="cls-49" points="169.73 82.05 163.45 146.86 106.49 147.42 108.36 79.63 142.83 69.93 169.73 82.05"/><polygon class="cls-45" points="92.04 111.82 80.6 114.47 77.57 97.76 89.61 95.5 92.04 111.82"/><polygon class="cls-48" points="81.09 100.36 85.92 99.92 87.34 107.11 81.09 100.36"/><polygon class="cls-45" points="141.71 115.86 137.15 116.49 126.52 101.17 118.34 95.7 125.65 92.98 134.25 97.21 137.51 101.76 141.45 105.48 145.09 102.18 148.09 98.26 156.56 94.9 160.22 98.97 151.95 104.97 144.68 117.17 141.71 115.86"/><polygon class="cls-48" points="140.86 111.05 144.69 117.17 140.92 120.27 137.16 116.5 140.86 111.05"/><polygon class="cls-50" points="145.1 102.19 144.69 117.17 137.16 116.5 137.52 101.77 145.1 102.19"/><path class="cls-40" d="M132.41,100.79A3,3,0,1,1,130,97.22,3,3,0,0,1,132.41,100.79Z"/><path class="cls-40" d="M158.29,102.49a3,3,0,1,1-2.41-3.58A3,3,0,0,1,158.29,102.49Z"/><polygon class="cls-41" points="134.77 92.44 126.32 89.01 117.14 93.11 118.53 95.76 126.03 94.24 134.25 97.21 134.77 92.44"/><polygon class="cls-41" points="147.7 93.47 156.34 91.72 162.07 96.56 160.22 98.97 156.06 95.99 148.09 98.26 147.7 93.47"/><polygon class="cls-48" points="123.84 124.31 154.84 125.37 145.99 137.06 133.76 136.97 123.84 124.31"/><polygon class="cls-51" points="130.31 127.41 149.8 127.94 146.43 132.19 133.58 131.84 130.31 127.41"/><polygon class="cls-46" points="188.13 162.67 164.74 171 169.88 200 199.29 182.34 188.13 162.67"/><polygon class="cls-46" points="103.73 194.56 61.79 155.81 59.08 210.86 92.39 225.74 105.86 215.11 103.73 194.56"/><polygon class="cls-45" points="153.87 219.18 148.91 208.46 155.65 206.49 161.22 218.56 153.87 219.18"/><polygon class="cls-52" points="176.9 174 171.06 161.6 156.02 159.12 156.53 188.18 164.91 191.6 176.9 174"/><polygon class="cls-53" points="184.34 173.65 188.24 162.61 181.69 158.59 156.02 159.12 164.5 164.08 184.34 173.65"/><polygon class="cls-53" points="161.62 213.25 155.65 203.84 171.19 201.16 185.28 206.87 167.47 223.61 161.62 213.25"/><polygon class="cls-54" points="166.41 222.02 172.38 210.32 185.28 206.87 187.71 234.6 171.59 238.14 166.41 222.02"/><polygon class="cls-52" points="155.65 203.84 151.92 233.89 171.59 238.14 172.38 210.32 155.65 203.84"/><polygon class="cls-54" points="169.2 197.83 173.18 186.54 177.97 186.58 176.77 205.28 171.46 206.21 169.2 197.83"/><polygon class="cls-52" points="166.01 204.34 167.2 190.13 173.45 185.87 171.46 206.21 166.01 204.34"/><polygon class="cls-1" points="166.65 196.73 167.2 190.13 177.75 188.69 177.48 192.74 166.65 196.73"/><polygon class="cls-55" points="164.5 164.08 188.24 162.61 186.29 190.3 164.91 191.6 164.5 164.08"/><polygon class="cls-52" points="178.28 168.33 174.41 168.33 172.34 171.63 172.29 174.88 174.86 174.72 174.45 181.8 171.76 181.92 171.81 184.81 180.76 184.61 180.76 181.6 178.23 181.44 178.28 168.33"/><polygon class="cls-45" points="161.27 225.34 164.06 230.92 176.37 225.74 176.99 209.17 165.79 210.72 161.27 225.34"/><polygon class="cls-49" points="142 217.1 148.91 208.46 165.79 210.72 164.06 230.92 146.78 227.86 142 217.1"/><polygon class="cls-4" points="130.31 219.36 137.88 205.54 148.91 208.46 146.78 227.86 135.09 227.6 130.31 219.36"/><polygon class="cls-44" points="137.88 205.54 103.27 194.2 92.39 225.74 135.09 227.6 137.88 205.54"/></g><g id="main_characer" data-name="main characer"><polygon class="cls-33" points="262.12 185.92 256.94 188.17 250.76 186.75 256.34 175.29 263.19 179.94 262.12 185.92"/><polygon class="cls-6" points="219.14 136.98 262.37 145.49 254.22 197.05 212.09 190.67 219.14 136.98"/><polygon class="cls-26" points="228.7 147.66 250.72 150.63 250.32 153.11 228.3 149.7 228.7 147.66"/><polygon class="cls-26" points="218.38 177.67 234.09 180.28 233.73 182.32 218.09 179.71 218.38 177.67"/><polygon class="cls-26" points="218.03 181.48 233.73 184.09 233.38 186.13 217.74 183.51 218.03 181.48"/><polygon class="cls-26" points="221.31 154.13 252.8 159.22 252.44 161.39 220.95 156.03 221.31 154.13"/><polygon class="cls-26" points="220.42 161.17 251.91 166.26 251.56 168.43 220.07 163.07 220.42 161.17"/><polygon class="cls-26" points="219.53 168.21 251.03 173.31 250.67 175.47 219.18 170.12 219.53 168.21"/><polygon class="cls-56" points="239.82 185.97 236.9 192.93 240.93 191.82 244.78 194.34 242.83 186.37 239.82 185.97"/><polygon class="cls-42" points="242.61 178.22 236.14 182.12 241.28 189.25 246.95 184.6 242.61 178.22"/><polygon class="cls-56" points="241.99 181.37 239.6 182.83 241.41 185.84 243.9 183.85 241.99 181.37"/><polygon class="cls-32" points="267.86 184.11 266.31 174.63 261.39 166.84 252.56 160.6 248.99 165.16 256.43 171.09 257.07 178.81 266.8 184.73 267.86 184.11"/><polygon class="cls-32" points="286.93 62.65 308.92 62.24 322.29 64.8 331.92 58.94 346.94 55.58 344.9 64.15 339.17 68.83 345.11 77.46 346.23 87.28 345.28 99.82 340.74 110.7 343.75 110.39 346.62 112.21 347.2 106.53 349.85 97.26 358.11 97.21 363.86 99.26 359.07 114.15 355.01 122.15 355.91 127.08 353.58 134.13 351.87 137.49 352.89 140.45 344.59 148.57 330.87 157.96 325.76 154.64 322.65 149.94 320.53 140.45 290.96 140.75 288.34 106.82 285.64 100.75 285.48 89.02 287.41 85.25 286.93 62.65"/><polygon class="cls-33" points="334.61 60.19 333.01 84.02 333.25 105.7 332.68 140.09 320.53 140.45 322.63 144.76 322.65 149.94 330.87 157.96 353.52 144.91 356.13 126.47 357.56 114.49 346.62 112.21 347.9 106.3 347.48 101.24 343.73 103.66 346.23 87.28 344.16 78.29 339.17 68.83 343.78 63.27 346.94 55.58 338.91 57.84 334.61 60.19"/><polygon class="cls-57" points="357.56 114.49 346.62 112.21 356.13 126.47 358.37 119.24 357.56 114.49"/><polygon class="cls-57" points="320.53 140.45 337.78 139.93 334.12 158.78 325.13 157.94 322.65 149.94 320.53 140.45"/><polygon class="cls-33" points="328.24 100.76 325.28 91.71 315.85 91.57 313.63 102.08 333.25 105.7 314.18 107.97 311.32 111.95 310.56 84.69 327.86 89.44 330.85 94.78 328.24 100.76"/><polygon class="cls-33" points="297.75 100.91 295.76 92.93 287.05 92.11 285.02 93.85 287.76 104.23 303.55 106.39 303.68 109.5 288.34 106.82 283.85 98.48 284.5 87.39 300.27 88.28 301.69 100.39 297.75 100.91"/><polygon class="cls-57" points="311.32 111.95 307.77 116.03 303.75 112.31 311.32 111.95"/><polygon class="cls-58" points="310.52 90.04 303.08 90.06 303.75 112.31 311.32 111.95 310.52 90.04"/><polygon class="cls-52" points="310.52 90.04 311.58 87.18 310.56 84.69 302.99 84.84 301.4 87.61 303.08 90.06 310.52 90.04"/><path class="cls-54" d="M310.52,90l.6,15.94,22.13-.28-.15-8.44.83-5.22L333,84l-22.45.67Zm17.71,10.72-12.11.25-.31-11.23,12.05-.34h0Z"/><path class="cls-54" d="M303.08,90.06l.47,16.33-21.86.53L281,85.45l22-.61ZM287,90.62l.29,10.73,10.43-.44-.3-10.51h0Z"/><polygon class="cls-57" points="321.32 120.77 298.46 121.7 302.58 131.94 317.33 131.4 321.32 120.77"/><polygon class="cls-57" points="351.25 109.26 353.72 100.09 358.57 101.11 351.25 109.26"/><polygon class="cls-2" points="286.93 62.65 324.84 48.82 325.03 58.23 322.29 64.8 286.93 62.65"/><polygon class="cls-26" points="346.94 55.58 356.52 57.8 362.46 74.45 351.95 73.83 339.17 68.83 346.94 55.58"/><polygon class="cls-4" points="362.46 74.45 372.92 102.78 358.11 97.21 345.81 90 339.17 68.83 362.46 74.45"/><polygon class="cls-5" points="345.41 91.42 342.1 105.05 347.9 106.3 349.98 96.71 362.35 100.11 357.72 114.04 356.13 126.47 372.45 102.52 365.65 99.22 345.41 91.42"/><polygon class="cls-26" points="322.29 64.8 324.84 48.82 346.94 55.58 322.29 64.8"/><polygon class="cls-52" points="333.01 84.02 365.65 99.22 364.25 107.44 362.35 100.11 333.07 93.46 333.01 84.02"/><polygon class="cls-57" points="344.21 95.95 333.07 93.46 333.07 94.59 333.1 97.26 343.71 98.43 344.21 95.95"/><polygon class="cls-59" points="349.85 97.26 344.21 95.95 343.71 98.43 349.46 99.19 349.85 97.26"/><path class="cls-40" d="M317.19,97.63A2.23,2.23,0,1,0,318.86,95,2.21,2.21,0,0,0,317.19,97.63Z"/><path class="cls-40" d="M288.63,98a2.16,2.16,0,0,0,2.64,1.67,2.18,2.18,0,1,0-1-4.25A2.15,2.15,0,0,0,288.63,98Z"/><polygon class="cls-51" points="300.9 123.21 318.26 122.63 317.2 126.13 302.3 126.47 300.9 123.21"/><polygon class="cls-46" points="328.67 319.51 313.28 319.71 313.33 316.3 341.25 313.39 331.98 320.46 328.67 319.51"/><polygon class="cls-46" points="348.47 314.8 353.98 318.86 354.03 322.21 328.57 322.87 328.67 319.51 348.47 314.8"/><polygon class="cls-41" points="321.9 239.9 316.54 237.85 298.64 239.1 313.13 275.59 328.57 288.68 339.6 286.67 338.89 258 321.9 239.9"/><polygon class="cls-41" points="313.13 275.59 324.31 302.76 330.57 305.22 339.6 307.98 331.58 279.9 313.13 275.59"/><polygon class="cls-54" points="324.31 302.76 313.33 316.3 337.89 316.3 337.99 311.04 335.29 304.17 324.31 302.76"/><polygon class="cls-23" points="328.17 259.5 331.58 279.9 346.42 292.39 357.49 279.15 363.97 250.29 345.41 243.76 328.17 259.5"/><polygon class="cls-41" points="304.46 231.48 298.64 239.1 323.86 254.04 335.39 239.35 304.46 231.48"/><polygon class="cls-41" points="331.58 279.9 335.29 304.17 341.8 310.73 351.33 306.88 357.49 279.15 331.58 279.9"/><polygon class="cls-52" points="335.29 304.17 328.67 319.51 353.98 318.86 351.33 306.88 335.29 304.17"/><polygon class="cls-60" points="328.17 259.5 361.4 262.41 363.66 250.58 345.76 255.49 328.17 259.5"/><polygon class="cls-4" points="353.63 144.81 355.99 154.58 334.38 166.51 325.51 169.37 318.94 162 315.33 152.63 322.05 147.47 328.32 157.09 353.63 144.81"/><polygon class="cls-26" points="315.33 152.63 305.61 155.64 313.28 170.88 322.35 183.16 345.16 172.78 364.41 160.95 355.99 154.58 325.51 169.37 315.33 152.63"/><polygon class="cls-52" points="364.41 160.95 331.28 178.44 327.21 179.65 322.35 183.16 344.61 209.07 364.31 175.79 364.41 160.95"/><polygon class="cls-52" points="322.35 183.16 320.55 178.19 316.54 173.58 305.61 155.64 295.13 179.5 302 197.39 312.08 209.75 318.09 216.79 324.86 200.05 322.35 183.16"/><polygon class="cls-41" points="328.32 157.09 333.63 165.41 325.51 169.37 320.4 161.1 328.32 157.09"/><polygon class="cls-59" points="325.51 169.37 331.28 178.44 322.35 183.16 316.54 173.58 325.51 169.37"/><polygon class="cls-3" points="365.86 175.54 322.35 183.16 313.13 184.76 318.08 216.8 312.08 223.85 321.65 239.9 324.76 260 376.86 248.56 365.86 175.54"/><polygon class="cls-59" points="321.65 239.9 375.44 237.75 373.99 228.07 339.25 231.33 331.78 234.89 326.96 236.09 321.65 239.9"/><polygon class="cls-43" points="302 197.39 318.09 216.79 318.94 222.41 312.08 224.71 315.33 230.58 321.65 239.9 298.49 239.1 302 197.39"/><polygon class="cls-56" points="364.41 160.95 363.86 208.77 385.72 226.02 381.71 170.97 364.41 160.95"/><polygon class="cls-43" points="363.86 207.69 340.22 216.12 337.87 217.37 334.31 217.92 336.46 233.81 340.12 232.36 343.68 232.61 385.72 226.02 363.86 207.69"/><polygon class="cls-4" points="340.22 216.12 334.31 217.92 334.46 225.29 336.46 233.81 343.68 232.61 340.22 216.12"/><polygon class="cls-33" points="334.31 217.92 326.1 214.28 318.17 217.28 318.68 220.68 324.86 220.68 334.31 217.92"/><polygon class="cls-43" points="305.61 155.64 284.96 186.76 292.48 193.48 302 197.39 305.61 155.64"/><polygon class="cls-56" points="302 197.39 284.96 186.76 271.02 177.69 268.41 177.59 266.31 174.63 261.55 187.17 261.75 191.98 287.66 212.13 302 197.39"/><polygon class="cls-4" points="266.31 174.63 256.94 188.17 261.75 191.98 271.02 177.69 266.31 174.63"/><polygon class="cls-32" points="334.31 217.92 318.68 220.68 317.52 227.06 315.74 231.23 318.44 235.04 321.65 239.9 336.46 233.81 334.31 217.92"/><polygon class="cls-33" points="318.68 220.68 321.65 239.9 317.01 236.47 312.08 224.71 318.68 220.68"/><polygon class="cls-49" points="199 157.98 211.52 147.79 226.04 148.5 225.69 153.99 213.64 156.65 210.63 166.22 203.99 169.41 199 157.98"/></g></svg>