<svg xmlns="http://www.w3.org/2000/svg" viewBox="0 0 1170 350"><defs><style>.a,.ab{fill:#dddddc;}.b,.l{fill:#c4c4c4;}.c,.o,.r,.u{fill:#fff;}.d,.p{opacity:0.1;}.d,.o,.p,.r,.t,.u{isolation:isolate;}.e,.q{fill:#9da1a2;}.f,.i{fill:#8f8f8f;}.g,.j{fill:#a3a3a3;}.h,.y{fill:#858686;}.aa,.ab,.ac,.ad,.ae,.af,.ag,.ah,.ai,.aj,.ak,.al,.am,.an,.ao,.aq,.as,.i,.j,.k,.l,.m,.n,.o,.p,.q,.y{fill-rule:evenodd;}.k,.z{fill:#6f7173;}.m,.w{fill:#737373;}.n,.s{fill:#cececd;}.o,.u{opacity:0.4;}.r,.t{opacity:0.2;}.v{fill:none;stroke:#6f7173;stroke-miterlimit:10;stroke-width:4px;}.aa,.x{fill:#4f5253;}.ac{fill:#856400;}.ad{fill:#9e7700;}.ae{fill:#755800;}.af{fill:#bc8f2d;}.ag{fill:#b58b00;}.ah{fill:#bf8f00;}.ai{fill:#e5c828;}.aj,.an,.ar{fill:#2b2b2b;}.aj{opacity:0.2;}.ak,.at{fill:#ccad14;}.al{fill:#dfbda5;}.am{fill:#c3987b;}.an{opacity:0.15;}.ao,.ap{fill:#8b6651;}.aq{fill:#474747;}.as{fill:#e8cab6;}</style></defs><title>istp-virtuoso-personality-header</title><path class="a" d="M-7-5H1177V354H-7Z"/><path class="b" d="M207-8h3V350h-3ZM587-8h3V350h-3ZM967-8h3V350h-3Z"/><path class="b" d="M126.1,42H226.8V75.9H126.1Z"/><path class="c" d="M126.1,46H226.8V79.9H126.1Z"/><path class="d" d="M224.1,95H127.9L119,86.1H233Z"/><path class="b" d="M119,77.2H233v8.9H119Z"/><path class="b" d="M-23.9,42H76.8V75.9H-23.9Z"/><path class="c" d="M-23.9,46H76.8V79.9H-23.9Z"/><path class="d" d="M74.1,95H-22.1L-31,86.1H83Z"/><path class="b" d="M-31,77.2H83v8.9H-31Z"/><path class="b" d="M276.1,42H376.8V75.9H276.1Z"/><path class="c" d="M276.1,46H376.8V79.9H276.1Z"/><path class="d" d="M374.1,95H277.9L269,86.1H383L374.1,95Z"/><path class="b" d="M269,77.2H383v8.9H269Z"/><path class="b" d="M1116.1,42h100.7V75.9H1116.1Z"/><path class="c" d="M1116.1,46h100.7V79.9H1116.1Z"/><path class="d" d="M1214.1,95h-96.2l-8.9-8.9h114Z"/><path class="b" d="M1109,77.2h114v8.9H1109Z"/><path class="d" d="M35.9,154.4l-1,13.7,8.5,12.7L36.8,296.2,54.3,308l-1.4,13.7,18.9-1.9-1-27.4,6.7-2.9-3.4-39.2,16.6-7.1L77,161.5l7.1-3.3L77,146.8,63.3,129.3,35.9,154.4Z"/><path class="e" d="M56.7,135.9,54.3,298,34,282.9l7.5-120Z"/><path class="f" d="M63.3,129.3l14.2,26,14.6,76.6L72.3,243.7l-9-114.4Z"/><path class="g" d="M63.3,129.3l9,25.5,6.6,128.1-8.5,3.3L63.3,129.3Z"/><path class="b" d="M63.3,129.3l10.8,181-22.2-.9,4.8-173.5,6.6-6.6Z"/><path class="b" d="M63.3,129.3,41.1,167.6,34,153.4l27.9-31.6,1.4,7.5Z"/><path class="b" d="M61.9,121.8,84.5,153l-7,2.3L60.9,131.2Z"/><path class="f" d="M64.7,133.1a2.8,2.8,0,0,1-5.6,0V113.3a2.8,2.8,0,0,1,5.6,0Z"/><path class="g" d="M1038.1,214.5l18.6-35.8,5.2,2.7-18.6,35.8Z"/><path class="h" d="M1049.4,192.8l2.8-5.4,5.2,2.7-2.8,5.4Z"/><path class="b" d="M1066.8,199.4,1047,189.1l4.8-9.3,13.4,7Z"/><path class="g" d="M1103.7,196.9l8,1.4,1.6-8.9-6.6,4.6-3.2-4.5,6.6-4.6-8.9-1.5-1.4,8-23.2,16.4-4.6-.8-1.1,6.4,5.7-4,2.3,3.3-5.7,4,6.5,1.2.8-4.6,23.2-16.4Z"/><path class="b" d="M1063,217.8l10.8-28.6,5.4,2-10.8,28.6Z"/><path class="i" d="M1095.7,223.1H1035l-10-17.2h80.7Z"/><path class="j" d="M1100.8,214.3l2.8-4.8h-76.5l2.8,4.8Z"/><path class="i" d="M983.6,224.1h146.9V330.2H983.6Z"/><path class="k" d="M1015.9,274.7h12.8v18.1h-12.8V274.7Z"/><path class="j" d="M1015.9,277.9h12.8v2.5h-12.8v-2.5Z"/><path class="k" d="M1015.9,238.7h12.8v18.1h-12.8V238.7Z"/><path class="j" d="M1015.9,241.9h12.8v2.5h-12.8v-2.5Z"/><path class="k" d="M1035.9,238.7h12.8v18.1h-12.8V238.7Z"/><path class="j" d="M1035.9,241.9h12.8v2.5h-12.8Z"/><path class="k" d="M1055.9,238.7h12.8v18.1h-12.8V238.7Z"/><path class="j" d="M1055.9,241.9h12.8v2.5h-12.8Z"/><path class="k" d="M995.9,238.7h12.8v18.1H995.9V238.7Z"/><path class="j" d="M995.9,241.9h12.8v2.5H995.9Z"/><path class="k" d="M997.9,274.7h12.8v18.1H997.9Z"/><path class="j" d="M997.9,277.9h12.8v2.5H997.9Z"/><path class="j" d="M1093.9,282.7l7.1-12.3,5.8,3.3-7.1,12.3Zm-12,0,7.1-12.3,5.8,3.3-7.1,12.3Z"/><path class="l" d="M1050.9,278.4l19.2-7.3,4.2,10.9-19.2,7.3Z"/><path class="m" d="M1043.5,280.4h65.2v12.8h-65.2Z"/><path class="j" d="M1078.6,241.1h36.9v16.3h-36.9V241.1Z"/><path class="n" d="M1078.6,241.1h36.9v2.1h-36.9Z"/><path class="j" d="M1000.2,309.8h50.3v16.3h-50.3Z"/><path class="n" d="M1000.2,309.8h50.3v2.1h-50.3Z"/><path class="l" d="M1061.3,307.8h12.2v17.4h-12.2Z"/><path class="j" d="M1071.8,307.8H1084v17.4h-12.2Z"/><path class="l" d="M1083.8,307.8H1096v17.4h-12.2Z"/><path class="j" d="M1094.3,307.8h12.2v17.4h-12.2Z"/><path class="l" d="M1104.8,307.8h10.3v17.4h-10.3Z"/><path class="o" d="M1061.3,307.8h53.8v2h-53.8Z"/><path class="j" d="M983.6,256.5h146.9v10.4H983.6Z"/><path class="n" d="M983.6,256.5h146.9v1.6H983.6Z"/><path class="j" d="M983.6,291.5h146.9v10.4H983.6Z"/><path class="n" d="M983.6,291.5h146.9v1.6H983.6Z"/><path class="j" d="M983.6,326.3h146.9v10.4H983.6Z"/><path class="n" d="M983.6,325.1h146.9v1.6H983.6Z"/><path class="j" d="M979.7,222.7h10.4V350H979.7Zm144.9,0H1135V350h-10.4Z"/><path class="j" d="M979.7,222h155.1v10.4H979.7Z"/><path class="p" d="M619.8,45a58.5,58.5,0,1,0,58.5,58.5A58.51,58.51,0,0,0,619.8,45Zm0,86.5a28,28,0,1,1,28-28A28,28,0,0,1,619.8,131.5Z"/><path class="q" d="M619.8,35a58.5,58.5,0,1,0,58.5,58.5A58.51,58.51,0,0,0,619.8,35Zm0,86.5a28,28,0,1,1,28-28A28,28,0,0,1,619.8,121.5Z"/><path class="l" d="M619.8,32a58.5,58.5,0,1,0,58.5,58.5A58.51,58.51,0,0,0,619.8,32Zm0,86.5a28,28,0,1,1,28-28A28,28,0,0,1,619.8,118.5Z"/><path class="i" d="M624.6,67.9a4.9,4.9,0,0,1-9.8,0v-42a4.9,4.9,0,0,1,9.8,0Z"/><path class="p" d="M749.8,45a58.5,58.5,0,1,0,58.5,58.5A58.51,58.51,0,0,0,749.8,45Zm0,86.5a28,28,0,1,1,28-28A28,28,0,0,1,749.8,131.5Z"/><path class="q" d="M749.8,35a58.5,58.5,0,1,0,58.5,58.5A58.51,58.51,0,0,0,749.8,35Zm0,86.5a28,28,0,1,1,28-28A28,28,0,0,1,749.8,121.5Z"/><path class="l" d="M749.8,32a58.5,58.5,0,1,0,58.5,58.5A58.51,58.51,0,0,0,749.8,32Zm0,86.5a28,28,0,1,1,28-28A28,28,0,0,1,749.8,118.5Z"/><path class="i" d="M754.6,67.9a4.9,4.9,0,0,1-9.8,0v-42a4.9,4.9,0,0,1,9.8,0Z"/><path class="p" d="M879.8,45a58.5,58.5,0,1,0,58.5,58.5A58.51,58.51,0,0,0,879.8,45Zm0,86.5a28,28,0,1,1,28-28A28,28,0,0,1,879.8,131.5Z"/><path class="q" d="M879.8,35a58.5,58.5,0,1,0,58.5,58.5A58.51,58.51,0,0,0,879.8,35Zm0,86.5a28,28,0,1,1,28-28A28,28,0,0,1,879.8,121.5Z"/><path class="l" d="M879.8,32a58.5,58.5,0,1,0,58.5,58.5A58.51,58.51,0,0,0,879.8,32Zm0,86.5a28,28,0,1,1,28-28A28,28,0,0,1,879.8,118.5Z"/><path class="i" d="M884.6,67.9a4.9,4.9,0,0,1-9.8,0v-42a4.9,4.9,0,0,1,9.8,0Z"/><path class="p" d="M1009.8,45a58.5,58.5,0,1,0,58.5,58.5A58.51,58.51,0,0,0,1009.8,45Zm0,86.5a28,28,0,1,1,28-28,28,28,0,0,1-28,28Z"/><path class="q" d="M1009.8,35a58.5,58.5,0,1,0,58.5,58.5A58.51,58.51,0,0,0,1009.8,35Zm0,86.5a28,28,0,1,1,28-28,28,28,0,0,1-28,28Z"/><path class="l" d="M1009.8,32a58.5,58.5,0,1,0,58.5,58.5A58.51,58.51,0,0,0,1009.8,32Zm0,86.5a28,28,0,1,1,28-28,28,28,0,0,1-28,28Z"/><path class="i" d="M1014.6,67.9a4.9,4.9,0,0,1-9.8,0v-42a4.9,4.9,0,0,1,9.8,0Z"/><path class="r" d="M-9-10H1183V359H-9Z"/><path class="b" d="M228.8,307.9h4.4l-.1-25.4s-.3-6.2,3.4-8.9c6.6-4.8,12-12.1,11.2-19.4s-8-9.4-8-9.4a16.13,16.13,0,0,1,3.5,10.1c-.1,6-3.3,10.1-5.9,12.7-2.4,2.3-5.6,3.2-7.3,7a18.64,18.64,0,0,0-1.4,7.6l.2,25.7Z"/><path class="g" d="M235.4,269c-.9.6-1.7,1.2-2.6,1.8l1.1,1.1a19.71,19.71,0,0,0,2.6,1.6,21.72,21.72,0,0,0,2.9-2.4A25.65,25.65,0,0,1,235.4,269Z"/><path class="s" d="M257.1,303.3l-4.2,1.3L245,280.4s-1.7-6-6.1-7.4c-7.8-2.5-15.2-7.7-16.8-14.9s4.6-11.5,4.6-11.5a16.17,16.17,0,0,0-.1,10.7,18.56,18.56,0,0,0,9.6,10.2c3,1.5,6.3,1.2,9.1,4.3a19.47,19.47,0,0,1,3.7,6.7Z"/><path class="g" d="M238.4,270.3a1.2,1.2,0,1,1-1.2-1.2A1.16,1.16,0,0,1,238.4,270.3Z"/><path class="b" d="M196.7,231.5l-6.4,11.4,4.1,2.3-2.2,4.1,4.1,2.2-2.2,4.1,4.1,2.2-2.3,4.2,4.2,2.2-2.3,4.1,4.1,2.2-2.2,4.1,4.1,2.3-2.2,4.1,4.1,2.2-2.2,4.1,4.1,2.2-2.2,4.2,9-2.7-17.7-59.5Z"/><path class="g" d="M216.1,290l-12,3.6,5.1,17,12-3.6ZM211,307.5l-3.7-12.4,6.9-2.1,3.7,12.4Z"/><path class="s" d="M194.8,219.9l-19,71-8.6-2.3,19-71.2,8.6,2.5Z"/><path class="b" d="M194.8,219.9l-8.6-2.5,7.1,8Z"/><path class="g" d="M168.1,285.2l.4-1.5,3.5.9-.4,1.5Zm1.3-4.9.4-1.5,3.5.9-.4,1.5Zm1.3-4.8.4-1.5,3.5.9-.4,1.5Zm1.3-4.8.4-1.5,3.5.9-.4,1.5Zm1.3-4.8.4-1.5,3.5.9-.4,1.5Zm1.3-4.8.4-1.5,3.5.9-.4,1.5Zm1.2-4.9.4-1.5,3.5.9-.4,1.5Zm1.4-4.8.4-1.5,3.5.9-.4,1.5Zm1.3-4.8.4-1.5,3.5.9-.4,1.5Zm1.2-4.9.4-1.5,3.5.9-.4,1.5Zm1.3-4.8.4-1.5,3.5.9-.4,1.5Zm1.3-4.8.4-1.5,3.5.9-.4,1.5Zm1.3-4.9.4-1.5,3.5.9-.4,1.5Zm1.3-4.8.4-1.5,3.5.9-.4,1.5Z"/><path class="s" d="M218.1,246.6l-31.9-29.2,6-6.5L224.1,240l-6,6.6Z"/><path class="b" d="M221.5,237.6l-2.4-2.2-5.4,7.1v.1l7.8-5Z"/><path class="g" d="M192.4,215.9l2.4-2.7,1.2,1.1-2.4,2.7Zm3.7,3.3,2.4-2.7,1.2,1.1-2.4,2.7Zm3.6,3.4,2.4-2.7,1.2,1.1-2.4,2.7Zm3.7,3.4,2.4-2.7,1.2,1.1-2.4,2.7Zm3.7,3.4,2.4-2.7,1.2,1.1-2.4,2.7Zm3.7,3.4,2.4-2.7,1.2,1.1-2.4,2.7Zm3.7,3.3,2.4-2.7,1.2,1.1-2.4,2.7Zm3.7,3.4,2.4-2.7,1.2,1.1-2.4,2.7Z"/><path class="a" d="M249.4,216.6l-29.1,31.9-6.6-5.9,29.1-32Z"/><path class="g" d="M216.1,239.9l1.1-1.2,2.7,2.4-1.1,1.2Zm3.3-3.6,1.1-1.2,2.7,2.4-1.1,1.2Zm3.4-3.7,1.1-1.2,2.7,2.4-1.1,1.2Zm3.4-3.8,1.1-1.2L230,230l-1.1,1.2Zm3.3-3.6,1.1-1.2,2.7,2.4-1.1,1.2Zm3.4-3.7,1.1-1.2,2.7,2.4-1.1,1.2Zm3.4-3.8,1.1-1.2,2.7,2.4-1.1,1.2Zm3.3-3.6,1.1-1.2,2.7,2.4-1.1,1.2Z"/><path class="g" d="M108.8,221.8l8.7-2.5,17.2,59.9-8.7,2.5-17.2-59.9Z"/><path class="h" d="M113,236.4l8.7-2.5,2.6,9-8.7,2.5Z"/><path class="b" d="M142.2,234.2,109,243.7l-4.5-15.5,22.4-6.4Z"/><path class="g" d="M260.1,243.6l2.9-7.5-8.4-3.3,3.3,7.3-5.1,2.3-3.2-7.4-3.3,8.4,7.6,3,11.5,25.9-1.7,4.4,6.2,2.3-2.8-6.3,3.6-1.7,2.9,6.4,2.3-6.1-4.3-1.7-11.5-26Zm-97.7-7.5,10.5-4.5L167.8,220l-4.1,10.5-7.2-2.8,4.1-10.5-11.6,5,4.6,10.5-14.5,37-6,2.6,3.7,8.5,3.6-9.1,5.2,2-3.6,9.1,8.5-3.7-2.6-5.9,14.5-37.1Z"/><path class="g" d="M114.5,262.1h49V310h-49Z"/><path class="a" d="M141.3,286.4a10.81,10.81,0,0,1-9.8-10h-5.1a15.89,15.89,0,0,0,14.9,15.1Z"/><path class="t" d="M114.5,273.6h49v6.6h-49Z"/><path class="b" d="M109,262.1h60v14.4H109Z"/><path class="g" d="M144.5,282.1h49V330h-49Z"/><path class="a" d="M171.3,306.4a10.81,10.81,0,0,1-9.8-10h-5.1a15.89,15.89,0,0,0,14.9,15.1v-5.1Z"/><path class="t" d="M144.5,293.6h49v6.6h-49Z"/><path class="b" d="M139,282.1h60v14.4H139Z"/><path class="g" d="M254.5,262.1h49V310h-49Z"/><path class="a" d="M276.6,286.4a10.81,10.81,0,0,0,9.8-10h5.1a15.89,15.89,0,0,1-14.9,15.1Z"/><path class="t" d="M254.5,273.6h49v6.6h-49Z"/><path class="b" d="M249,262.1h60v14.4H249Z"/><path class="g" d="M224.5,282.1h49V330h-49Z"/><path class="a" d="M246.6,306.4a10.81,10.81,0,0,0,9.8-10h5.1a15.89,15.89,0,0,1-14.9,15.1Z"/><path class="t" d="M224.5,293.6h49v6.6h-49Z"/><path class="b" d="M219,282.1h60v14.4H219Z"/><path class="g" d="M176.4,302.1h64.9V350H176.4Z"/><path class="t" d="M176.4,313.6h64.9v6.6H176.4Z"/><path class="b" d="M171.1,302.1h76v14.4h-76Z"/><path class="b" d="M490.2,68.3h7.6V350h-7.6Z"/><path class="c" d="M502.2,75.6a16.66,16.66,0,0,1-32-8.6Z"/><path class="f" d="M514.8,80.7a30.22,30.22,0,0,0-58-15.8Z"/><path class="u" d="M456.9,65,213.4,357.9l487.2-.4L514.8,80.7,456.9,65"/><path class="v" d="M471.2,208.3s-1.3-23.2,5.1-23.3c5.5,0,4.9,11.8,4.9,11.8m10,11.5s-1.3-23.2,5.1-23.3c5.5,0,4.9,11.8,4.9,11.8m10,11.5s-1.3-23.2,5.1-23.3c5.5,0,4.9,11.8,4.9,11.8"/><path class="w" d="M449.8,207.3h82.7v22.8H449.8Z"/><path class="g" d="M454.8,196.1h12.5v29H454.8Zm20,0h12.5v29H474.8Zm20,0h12.5v29H494.8Zm20,0h12.5v29H514.8Z"/><path class="x" d="M464,211.1a2.9,2.9,0,1,1-2.9-2.9A2.9,2.9,0,0,1,464,211.1Zm20,0a2.9,2.9,0,1,1-2.9-2.9A2.9,2.9,0,0,1,484,211.1Zm20,0a2.9,2.9,0,1,1-2.9-2.9A2.9,2.9,0,0,1,504,211.1Zm20,0a2.9,2.9,0,1,1-2.9-2.9A2.9,2.9,0,0,1,524,211.1Z"/><path class="g" d="M561.8,196.9l6.1-15-52.1-51.3L489.4,127Z"/><path class="x" d="M501.2,139.1l4.9-5,52.6,50.8-4.9,5-52.6-50.8Z"/><path class="g" d="M545.6,182.1l4,3.9,4.8-5-4-3.9Zm-4.1-3.9,4.8-5.1-4-3.9-4.8,5.1Zm-8.1-7.9,4.8-5.1-4.1-3.8-4.7,5,4,3.9Zm-8.2-7.9,4.8-5-4-3.9-4.8,5.1,4,3.8Zm-8.1-7.8,4.8-5.1-4-3.9-4.8,5.1Zm-8.1-7.9,4.7-5-4-3.9-4.7,5.1,4,3.8Z"/><path class="h" d="M564.2,210.3,481,129.5l2.5-11.1L571,203.1Z"/><path class="f" d="M481,129.5l-14.5,2.3-7.2-10.4,24.2-3Z"/><path class="g" d="M727.6,164.3l36.1-29.7L932.3,168l30.8,49.5-51.2,9.3Z"/><path class="x" d="M924.4,186.5l-63-13.9,43.1,46.8Z"/><path class="f" d="M912.3,183.8l-2-.4-6,29.7,2.1.4ZM896.8,211l1.7,1.9,6.1-30.8-2-.4Zm-6.6-7.2,1.7,1.9,5.1-25.3-2.1-.4Zm-6.6-7.1,1.7,1.9,4-19.9-2-.4Zm-6.6-7.1,1.8,1.8,2.8-14.3-2-.5Zm-6.5-7.2,1.7,1.9,1.8-8.9-2-.5Z"/><path class="h" d="M932.3,168l-29.9,39.4,60.7,10.1"/><path class="f" d="M763.7,134.6l10.2,33.8-44-5.5Z"/><path class="q" d="M902.4,207.4l-43-39.7-215.5-8.8-79.7,51.4L435.7,222.5l-11.9,19.4,41.8,35.9,22.1,15v-4.1H904.5l40.9-21.9,17.7-49.3-60.7-10.1Z"/><path class="y" d="M487.7,288.7H904.5l40.9-21.9-286.7-3.5-196,12,2.9,2.5,22.1,15Z"/><path class="z" d="M722.5,181.1l-92.6-13.2-65.7,42.4,75.4,4.3,82.9-33.5Z"/><path class="x" d="M722.5,181.1l11.6,51.3-74.9,11.9-19.6-29.7Zm10.4.9,116.3,1.9L864,209.3,744.6,230.5,732.9,182Zm-72.7,70.6,75.5-11.3-4.9,47.2-75.2,1.9,4.6-37.8Z"/><path class="aa" d="M638.2,288.7v-1.3c0-34.6-29-62.7-64.7-62.7s-64.7,28.1-64.7,62.7v1.3Z"/><path class="k" d="M632.1,291.5A58.5,58.5,0,1,1,573.6,233,58.51,58.51,0,0,1,632.1,291.5Z"/><path class="ab" d="M601.6,291.5a28,28,0,1,1-28-28A28,28,0,0,1,601.6,291.5Z"/><path class="i" d="M593.1,291.5A19.5,19.5,0,1,1,573.6,272,19.46,19.46,0,0,1,593.1,291.5Z"/><path class="aa" d="M899.2,288.7v-1.3c0-34.6-29-62.7-64.7-62.7s-64.7,28.1-64.7,62.7v1.3Z"/><path class="k" d="M893.1,291.5A58.5,58.5,0,1,1,834.6,233,58.51,58.51,0,0,1,893.1,291.5Z"/><circle class="a" cx="834.6" cy="291.5" r="28"/><path class="i" d="M854.1,291.5A19.5,19.5,0,1,1,834.6,272,19.46,19.46,0,0,1,854.1,291.5Z"/><path class="l" d="M638.2,286.6H769.8v17.7H638.2Zm312.5-3.9-51.5,21.7V286.7l46.2-19.9Zm-472.1,3.9h30.3v17.7H478.6Z"/><path class="l" d="M478.6,286.6l-15.9-11.3,3.8,19.5,12.1,9.5Z"/><path class="g" d="M629.9,167.9l92.6,13.2,10.4.9,116.3,1.9,10.2-16.2-215.5-8.8-14,9Z"/><path class="f" d="M849.2,183.9l10.2-16.2,43,39.7L864,209.3Zm-126.7-2.8,10.4.9,11.7,48.5-10.5,1.9-11.6-51.3Z"/><path class="g" d="M864,209.3l99.1,8.2-60.7-10.1L864,209.3Zm-224.4,5.3-203.9,7.9,128.5-12.2Z"/><path class="a" d="M423.8,241.9l7.5,6.4h38.6l10-15.6H429.5l-5.7,9.2Z"/><path class="g" d="M423.9,241.9h-.1l7.5,6.4h38.6l4.1-6.4Z"/><path class="a" d="M957.6,232.7H939.8l-5,15.6H952Z"/><path class="g" d="M936.9,241.9l-2.1,6.4H952l2.3-6.4Z"/><polygon class="aa" points="304.64 154.94 312.22 151.27 322.21 171.88 314.83 175.61 304.64 154.94"/><polygon class="y" points="326.25 148.36 293.66 164.17 295.01 182.08 333.06 164.34 326.25 148.36"/><polygon class="k" points="295.01 182.08 304.64 183.49 339.56 168.03 335.3 163.28 331.38 163.39 295.01 182.08"/><polygon class="aa" points="337.18 202.75 322.21 171.88 314.83 175.61 329.6 206.42 337.18 202.75"/><polygon class="k" points="326.25 148.36 330.13 148.22 335.66 148.22 339.56 168.03 331.38 163.39 326.25 148.36"/><polygon class="ac" points="409.97 267.1 402.38 286.62 394.95 295.71 393.56 309.32 388.68 326.46 379.74 326.21 368.68 329.22 373.28 291.21 409.97 267.1"/><polygon class="ad" points="370.75 320.57 391.12 317.91 388.68 326.46 378.99 329.22 368.68 329.22 368.68 325.56 370.75 320.57"/><polygon class="ae" points="388.68 326.46 405.28 345.44 373.4 345.44 368.68 329.22 388.68 326.46"/><polygon class="af" points="363.8 350 405.28 350 405.28 345.44 363.65 345.44 363.8 350"/><polygon class="ad" points="396.96 291.9 387.52 290.79 382.54 310.17 393.56 309.32 396.87 300.81 396.96 291.9"/><polygon class="ag" points="387.52 290.79 396.82 300.79 402.38 286.62 387.52 290.79"/><polygon class="ad" points="377.01 294.53 368.68 329.22 362.74 331.34 340.92 335.44 336.58 281.73 377.01 294.53"/><polygon class="ah" points="409.97 267.1 377.01 294.53 336.58 281.73 359.13 275.92 409.97 267.1"/><polygon class="ai" points="345.49 180.48 379.82 188.52 400.42 245.5 405.4 255.79 349.1 258.92 335.87 262.52 335.14 251.94 345.49 180.48"/><polygon class="ah" points="331.05 189.62 345.49 180.48 354.98 222 346.69 222.59 336.36 203.44 331.05 189.62"/><polygon class="ah" points="335.14 251.94 375.55 224.23 397.21 232.94 405.96 256.38 349.36 260.33 335.87 262.52 335.14 251.94"/><polygon class="aj" points="372.69 243.13 385.91 251.22 404.57 252.64 401.88 245.46 377.93 230.45 356.27 239.98 335.14 251.94 372.69 243.13"/><polygon class="ak" points="402.43 206.49 408.56 209.46 405.06 218.02 397.21 232.94 396.96 215.1 397.89 208.27 402.43 206.49"/><polygon class="aa" points="373.16 218.01 385.91 251.22 401.88 245.46 389.12 211.73 373.16 218.01"/><polygon class="ac" points="405.96 256.38 389.12 257.17 384.41 261.67 378.99 257.64 357.04 258.67 357.08 267.59 358.48 277.2 380.8 272.82 384.41 269.05 390.76 270.87 409.97 267.1 405.96 256.38"/><polygon class="ak" points="378.99 257.64 380.8 272.82 390.76 270.87 389.12 257.17 378.99 257.64"/><polygon class="al" points="405.35 112.34 407.55 139.36 405.64 165.22 384.51 171.53 374.41 182.4 358.53 182.82 345.49 180.48 336.99 160.58 330.13 148.22 323.22 133.73 320.22 110.65 342.14 118.53 372.94 115.69 380.05 105.33 388.66 113.09 405.35 112.34"/><polygon class="am" points="349.1 118.72 352.51 145.66 346.69 149.91 340.46 147.04 337.79 136.21 343.32 135.73 342.14 119.43 349.1 118.72"/><polygon class="am" points="376.75 142.88 366.96 128.22 349.1 118.72 375.19 113.68 376.75 142.88"/><polygon class="am" points="390.42 137.47 394.73 123.25 403.28 112.56 385.18 111.51 390.42 137.47"/><polygon class="am" points="407.55 139.36 330.13 148.22 345.49 180.48 356.17 182.96 365.41 184.5 379.82 188.52 382.64 178.05 385.67 172.3 409.97 169.17 407.55 139.36"/><polygon class="am" points="352.51 145.66 356.38 175.72 363.88 178.11 366.61 186 364.26 194.68 345.49 180.48 334.57 157.55 334.05 153.11 330.13 148.22 340.46 147.04 352.51 145.66"/><polygon class="an" points="352.51 145.66 356.38 175.72 363.88 178.11 366.61 186 364.26 194.68 345.49 180.48 334.57 157.55 334.05 153.11 330.13 148.22 340.46 147.04 352.51 145.66"/><polygon class="ao" points="385.67 172.3 352.56 176.19 364.26 194.68 379.82 188.52 385.67 172.3"/><polygon class="ao" points="340.46 147.04 334.57 157.55 330.13 148.22 340.46 147.04"/><rect class="ap" x="373.97" y="141.26" width="2.43" height="31.09" transform="translate(171.03 508.48) rotate(-82.55)"/><polygon class="ao" points="376.75 142.88 384.56 147.06 390.79 141.28 383.73 141.33 376.75 142.88"/><polygon class="aq" points="349.1 118.72 374.41 123.09 373.71 116.21 363.9 116.33 349.1 118.72"/><polygon class="aq" points="388.95 121.98 388.14 114.12 394.77 112.4 403.28 112.56 388.95 121.98"/><rect class="ar" x="362.42" y="123.31" width="2.54" height="11.67" transform="translate(195.59 476.55) rotate(-83.73)"/><polygon class="aq" points="342.14 119.43 343.32 135.73 337.79 136.21 335.72 128.39 323.22 133.73 312.67 111.57 329.4 112.22 342.14 119.43"/><polygon class="ao" points="327.69 135.97 332.5 134.04 335.66 143.26 327.69 135.97"/><polygon class="ad" points="339.71 90.19 329.06 90.53 319.72 92.73 315.59 101.13 312.67 111.57 330.11 99.25 339.71 90.19"/><polygon class="ac" points="319.72 92.73 346.79 77.99 370.92 68 401.16 84.21 367.61 89.08 339.71 90.19 330.83 91.32 319.72 92.73"/><polygon class="ah" points="370.92 68 327.92 71.47 319.72 92.73 370.92 68"/><polygon class="ad" points="319.72 92.73 306.54 80.48 290.13 95.39 304.05 95.29 319.72 92.73"/><polygon class="ah" points="290.13 95.39 265.97 117.81 301.62 101.95 319.72 92.73 290.13 95.39"/><polygon class="ae" points="265.97 117.81 312.67 111.57 319.72 92.73 265.97 117.81"/><polygon class="ai" points="339.71 90.19 415.65 82.79 418.42 111 388.14 114.12 380.05 105.33 373.71 116.21 342.14 119.43 339.56 102.68 339.71 90.19"/><polygon class="aq" points="348.38 96.2 376.24 93.43 368.03 108.92 349.65 110.65 348.38 96.2"/><polygon class="aq" points="409.64 90.15 381.78 92.79 392.81 106.41 411.18 104.58 409.64 90.15"/><polygon class="ak" points="342.14 119.43 312.67 111.57 339.71 90.19 342.14 119.43"/><path class="ar" d="M398.17,127.12a3.44,3.44,0,1,1-3.44-3.44A3.44,3.44,0,0,1,398.17,127.12Z"/><polygon class="as" points="380.05 105.33 388.14 114.12 390.79 141.28 376.75 142.88 373.81 116.2 380.05 105.33"/><polygon class="ak" points="322.87 225.95 310.36 200.21 331.05 189.62 346.69 222.59 338.33 229.92 322.87 225.95"/><polygon class="ai" points="355.6 241.83 335.14 251.94 322.87 225.95 346.69 222.59 354.87 231.47 355.6 241.83"/><polygon class="al" points="373.16 218.01 346.69 222.59 355.6 241.83 377.93 230.45 378.99 224.23 373.16 218.01"/><polygon class="am" points="377.93 230.45 397.21 232.94 392.85 218.43 389.12 211.73 382.42 212.12 373.16 218.01 377.93 230.45"/><polygon class="ao" points="397.21 232.94 402.74 221.5 402.43 206.49 395.71 207.26 389.12 211.73 397.21 232.94"/><polygon class="ac" points="368.68 329.22 373.4 345.44 340.46 345.44 340.92 335.44 368.68 329.22"/><rect class="at" x="340.47" y="345.44" width="32.94" height="4.56"/><polygon class="ah" points="370.75 320.57 340.06 324.83 340.92 335.44 368.68 329.22 370.75 320.57"/><polygon class="ak" points="357.04 258.67 349.1 258.92 351.07 290.75 354.87 325.56 363.18 321.62 357.04 258.67"/><polygon class="ak" points="326.88 278.61 334.18 287.52 349.1 258.92 328.02 264.85 326.88 278.61"/><polygon class="aa" points="323.7 241.06 328.41 243.38 325.69 252.64 320.22 256.38 320.22 248.63 323.7 241.06"/><polygon class="aa" points="301.18 244.56 306.8 244.79 314.83 256.38 306.92 257.17 301.18 244.56"/><polygon class="y" points="325.69 252.64 343.32 280.81 341.97 285.7 327.69 269.17 320.99 254.14 325.69 252.64"/><polygon class="k" points="308.39 255.54 313.11 252.44 317.83 249.34 310.62 238.35 323.7 241.06 320.99 254.14 341.97 285.7 337.25 288.8 332.53 291.9 311.54 260.34 298.47 257.63 301.18 244.56 308.39 255.54"/><polygon class="ai" points="354.87 325.56 320.95 323.88 316.62 268.06 334.18 286.11 349.1 258.92 354.87 325.56"/><polygon class="am" points="425.85 212 435.48 204.54 435.48 193.47 427.3 201.53 425.85 212"/><polygon class="k" points="364.26 194.68 426.33 170.13 431.41 181.34 435.48 193.47 373.16 218.01 364.26 194.68"/><polygon class="aa" points="426.33 170.13 436.44 175.43 438.85 179.72 439.81 183.85 435.48 193.47 426.33 170.13"/><polygon class="aq" points="436.44 175.43 445.3 171.88 445.45 176.87 443.74 182.26 439.81 183.85 436.44 175.43"/><polygon class="k" points="445.3 171.88 452.62 168.95 452.98 173.43 451.06 179.32 443.74 182.26 445.3 171.88"/><polygon class="aq" points="452.62 168.95 459.84 166.07 459.47 170.97 458.28 176.41 451.06 179.32 452.62 168.95"/><polygon class="k" points="459.84 166.07 466.8 163.28 466.7 167.97 465.25 173.61 458.28 176.41 459.84 166.07"/><polygon class="aq" points="466.8 163.28 473.73 160.51 473.52 165.14 472.17 170.82 465.35 173.58 466.8 163.28"/><polygon class="k" points="473.73 160.51 480.23 157.86 478.54 168.21 472.17 170.82 473.73 160.51"/><polygon class="am" points="397.21 232.94 411.78 202.8 423.63 201.29 425.85 212 419.35 237.5 397.21 232.94"/><polygon class="ao" points="411.78 202.8 423.17 197.47 435.48 193.47 425.85 212 411.78 202.8"/><polygon class="al" points="411.78 202.8 415.26 187.98 430.38 180.48 435.48 193.47 411.78 202.8"/><rect class="x" x="372.83" y="195.87" width="16.1" height="2.4" transform="translate(-45.21 148.5) rotate(-20.85)"/><rect class="x" x="374.37" y="199.92" width="16.1" height="2.4" transform="translate(-46.54 149.32) rotate(-20.85)"/><rect class="x" x="375.91" y="203.96" width="16.1" height="2.4" transform="translate(-47.88 150.13) rotate(-20.85)"/></svg>