<svg id="Layer_1" data-name="Layer 1" xmlns="http://www.w3.org/2000/svg" viewBox="0 0 400 400"><defs><style>.cls-1,.cls-16,.cls-21{fill:#2b2b2b;}.cls-1{fill-opacity:0.1;}.cls-2{fill:#fce3d4;}.cls-3{fill:#369395;}.cls-4{fill:#165e60;}.cls-5{fill:none;}.cls-6{fill:#1c7678;}.cls-7{fill:#3a9fb9;}.cls-8{fill:#8bdfdb;}.cls-9{fill:#5ebfd8;}.cls-10{fill:#c1907d;}.cls-11{fill:#f4c9b2;}.cls-12{fill:#8a6651;}.cls-13{fill:#a8836c;}.cls-14{fill:#c2977b;}.cls-15{fill:#debca4;}.cls-17{fill:#ffefe7;}.cls-18{fill:#72cacb;}.cls-19{fill:#fff;}.cls-20{fill:#50a8a9;}.cls-21{fill-opacity:0.15;}</style></defs><title>sentinels_ESTJ_famous_real_judge_judy</title><g id="Layer_1-2" data-name="Layer_1"><polygon class="cls-1" points="114.91 383.14 209.72 399.35 300.49 380.71 208.91 364.5 114.91 383.14"/><polygon class="cls-2" points="195.95 164.34 185.41 154.62 182.98 163.53 187.84 191.9 191.9 191.9 198.38 191.9 226.74 158.67 225.12 150.57 195.95 164.34"/><polygon class="cls-3" points="131.93 266.45 151.38 272.12 147.33 261.59 135.17 250.24 126.26 247.81 131.93 266.45"/><polygon class="cls-4" points="178.12 369.37 174.07 360.45 168.4 368.56 168.4 382.33 178.12 369.37"/><line class="cls-5" x1="275.36" y1="88.98" x2="192.71" y2="190.28"/><line class="cls-5" x1="129.5" y1="83.31" x2="208.1" y2="29.01"/><line class="cls-5" x1="165.96" y1="10.37" x2="145.71" y2="71.96"/><polygon class="cls-4" points="135.98 382.33 159.48 382.33 159.48 370.18 149.76 366.13 135.98 382.33"/><polygon class="cls-6" points="154.62 357.21 149.76 366.13 159.48 382.33 168.4 382.33 174.07 360.45 164.34 355.59 154.62 357.21"/><polygon class="cls-4" points="240.52 361.26 234.03 371.8 242.14 386.38 244.57 369.37 240.52 361.26"/><polygon class="cls-4" points="274.55 385.57 242.14 386.38 252.67 370.18 262.4 368.56 274.55 385.57"/><polygon class="cls-6" points="248.62 356.4 240.52 361.26 242.14 386.38 262.4 368.56 258.35 358.83 248.62 356.4"/><polygon class="cls-7" points="159.48 345.87 154.62 349.92 154.62 357.21 174.07 360.45 176.5 349.11 172.45 345.87 159.48 345.87"/><polygon class="cls-7" points="239.71 345.87 236.47 350.73 240.52 361.26 258.35 358.83 258.35 350.73 254.29 345.87 239.71 345.87"/><polygon class="cls-6" points="154.62 267.26 151.38 272.12 126.26 247.81 133.55 233.22 153.81 225.12 154.62 267.26"/><polygon class="cls-3" points="160.29 178.93 158.67 172.45 135.98 228.36 142.46 229.17 153 225.12 160.29 178.93"/><polygon class="cls-6" points="170.83 164.34 158.67 172.45 149.76 222.69 149.76 225.93 178.12 214.59 173.26 196.76 178.12 191.09 177.31 170.02 170.83 164.34"/><polygon class="cls-6" points="149.76 225.93 154.62 349.92 258.35 350.73 256.73 268.88 247.81 271.31 243.76 276.98 244.57 272.93 238.9 274.55 216.21 264.83 213.78 251.86 177.31 245.38 180.55 225.12 178.12 214.59 149.76 225.93"/><polygon class="cls-6" points="258.35 192.71 261.59 174.07 240.52 160.29 228.36 165.15 204.86 196.76 198.38 191.9 191.9 191.9 191.9 191.9 187.03 200.81 191.09 221.88 197.57 225.93 210.53 241.33 244.57 229.98 258.35 192.71"/><polygon class="cls-2" points="197.57 225.93 197.57 244.57 208.91 241.33 211.35 236.47 200.81 225.12 197.57 225.93"/><polygon class="cls-4" points="213.78 251.86 212.97 255.91 213.78 269.69 245.38 281.04 242.95 275.36 221.07 252.67 213.78 251.86"/><polygon class="cls-8" points="171.64 200.81 169.21 199.19 174.88 187.84 170.02 182.17 174.88 173.26 170.83 164.34 185.41 154.62 191.9 191.9 188.66 196.76 171.64 200.81"/><polygon class="cls-7" points="100.33 242.95 171.64 213.78 174.88 215.4 172.45 221.88 102.76 249.43 99.51 247 100.33 242.95"/><line class="cls-5" x1="185.41" y1="154.62" x2="202.43" y2="253.48"/><polygon class="cls-9" points="171.64 200.81 170.02 205.67 174.07 228.36 200.81 240.52 192.71 199.19 190.28 195.14 180.55 195.14 171.64 200.81"/><polygon class="cls-7" points="170.02 205.67 180.55 198.38 192.71 199.19 191.9 191.9 179.74 191.9 169.21 199.19 170.02 205.67"/><polygon class="cls-3" points="242.14 225.12 225.93 230.79 218.64 243.76 220.26 256.73 245.38 281.04 263.21 260.78 263.21 249.43 248.62 226.74 242.14 225.12"/><polygon class="cls-4" points="261.59 174.07 288.33 231.6 263.21 260.78 242.14 225.12 261.59 174.07"/><polygon class="cls-8" points="204.86 202.43 215.4 197.57 216.21 187.03 227.55 182.98 227.55 171.64 240.52 160.29 225.12 150.57 191.9 191.9 204.86 202.43"/><polygon class="cls-10" points="178.93 145.71 197.57 174.07 220.26 140.84 183.79 140.84 178.93 145.71"/><polygon class="cls-11" points="202.43 144.9 212.97 144.9 197.57 174.07 225.12 150.57 248.62 121.39 249.43 110.05 232.41 68.72 225.12 68.72 221.88 72.77 220.26 111.67 200.81 140.84 202.43 144.9"/><polygon class="cls-10" points="248.62 121.39 234.85 106 240.52 103.57 248.62 108.43 248.62 121.39"/><polygon class="cls-2" points="234.03 88.98 234.85 106 242.14 106 241.33 93.84 234.03 88.98"/><polygon class="cls-12" points="152.19 110.05 148.95 114.91 129.5 83.31 136.79 71.15 145.71 71.96 149.76 76.02 152.19 110.05"/><polygon class="cls-13" points="139.22 33.06 129.5 83.31 145.71 71.96 152.19 62.24 158.67 43.6 156.24 38.74 150.57 29.01 139.22 33.06"/><polygon class="cls-14" points="165.96 10.37 139.22 33.06 156.24 38.74 166.78 28.2 165.96 10.37"/><polygon class="cls-15" points="208.1 29.01 187.03 37.12 158.67 43.6 156.24 38.74 165.96 10.37 222.69 0.65 221.88 14.43 208.1 29.01"/><polygon class="cls-14" points="235.66 29.01 208.1 29.01 222.69 0.65 253.48 20.1 235.66 29.01"/><polygon class="cls-13" points="275.36 88.98 263.21 84.93 219.45 44.41 208.1 29.01 253.48 20.1 275.36 88.98"/><polygon class="cls-14" points="156.24 38.74 208.1 29.01 198.38 38.74 156.24 67.91 145.71 71.96 156.24 38.74"/><polygon class="cls-2" points="148.95 114.91 164.34 145.71 202.43 144.9 223.5 113.29 225.12 68.72 215.4 65.48 156.24 67.91 145.71 71.96 148.95 114.91"/><polygon class="cls-13" points="198.38 69.53 225.12 68.72 227.55 63.86 219.45 44.41 208.1 29.01 195.95 63.05 198.38 69.53"/><polygon class="cls-15" points="145.71 71.96 185.41 70.34 193.52 64.67 208.1 29.01 145.71 71.96"/><polygon class="cls-14" points="185.41 70.34 198.38 69.53 208.1 29.01 185.41 70.34"/><polygon class="cls-14" points="248.62 121.39 208.1 29.01 275.36 88.98 248.62 121.39"/><path class="cls-11" d="M150.57,80.07c-.81,0,7.29-4.87,7.29-4.87l13,5.68,3.24,5.67v8.91l-2.43,9.73-9.73-19.45Z"/><polygon class="cls-11" points="180.55 86.55 178.12 95.46 180.55 105.19 192.71 86.55 206.48 77.64 200 75.2 184.6 80.88 180.55 86.55"/><polygon class="cls-12" points="169.21 77.64 170.83 80.88 157.86 76.82 150.57 80.06 157.86 73.58 169.21 77.64"/><polygon class="cls-12" points="187.03 76.02 184.6 80.88 199.19 76.02 206.48 77.64 199.19 73.58 187.03 76.02"/><path class="cls-16" d="M161.91,82.85a3.7,3.7,0,1,1-3.7,3.7A3.69,3.69,0,0,1,161.91,82.85Z"/><path class="cls-16" d="M193.52,82.85a3.7,3.7,0,1,1-3.7,3.7A3.7,3.7,0,0,1,193.52,82.85Z"/><polygon class="cls-10" points="175.69 110.86 171.64 105.19 175.69 102.76 180.55 105.19 175.69 110.86"/><polygon class="cls-17" points="174.07 86.55 180.55 86.55 180.55 105.19 171.64 105.19 174.07 86.55"/><polygon class="cls-11" points="155.43 89.79 150.57 88.98 147.33 93.84 155.43 89.79"/><polygon class="cls-11" points="203.24 88.98 213.78 92.22 208.1 87.36 203.24 88.98"/><polygon class="cls-18" points="171.64 125.45 161.1 118.15 176.5 117.34 198.38 118.15 185.41 125.45 171.64 125.45"/><polygon class="cls-19" points="172.45 123.02 165.15 118.15 176.5 117.34 193.52 117.34 183.79 123.02 172.45 123.02"/><polygon class="cls-20" points="161.1 118.15 198.38 118.15 175.69 114.1 161.1 118.15"/><polygon class="cls-11" points="174.07 250.24 177.31 244.57 192.71 238.9 200.81 240.52 211.35 236.47 212.16 247 203.24 254.29 174.07 250.24"/><polygon class="cls-2" points="174.07 228.36 174.07 250.24 200.81 240.52 186.22 222.69 174.07 228.36"/><path class="cls-1" d="M179.74,191.9l6.48,30.79,14.59,17.83L191.9,191.9ZM99.51,247l11.35-4.86,2.43,3.24-10.53,4.05ZM136,232.42l36.47-14.59v4L136,236.47Z"/><polygon class="cls-11" points="123.83 245.38 126.26 247.81 135.98 245.38 135.98 241.33 129.5 241.33 123.83 245.38"/><polygon class="cls-2" points="107.62 238.9 114.91 248.62 135.98 241.33 135.98 228.36 125.45 229.98 112.48 234.84 107.62 238.9"/><polygon class="cls-11" points="130.31 220.26 111.67 228.36 107.62 238.9 135.98 228.36 130.31 220.26"/><path class="cls-21" d="M170,182.17l-20.26,40.52,9.72-4.05,15.4-30.8Zm68.07,173.42,20.26-4.86h-5.68L245.38,281,230,275.36l6.49,75.37Zm-63.21-.81-20.26-4.86-4.86-119.13,9.72-4,5.67,123.18H176.5l-2.43-99.68,12.15,1.62,4.06,98.06s-13.78-.81-13.78,0Zm65.64-194.49,1.62,64.83-16.21,5.67,1.62-59.15ZM215.4,197.57l-4.05,38.9-10.54-11.35,4.05-22.69ZM203.24,349.92l-4.86-96.44L213,255.92l7.29,94.81Z"/><path class="cls-20" d="M227.55,161.1l.81,4.05,4-.81-1.62-3.24ZM203.24,196l.81,2.43,1.62-.81V196Zm3.24-4.86.81,3.24,3.24-.81-.81-3.24Zm4.87-4.87.81,1.62h1.62l-.81-1.62Zm3.24-4.86.81,1.62H217v-1.62Zm2.43-5.67.81,3.24h4l-.81-4.05Zm4.86-4.86.81,1.62h1.62V170Zm3.24-4.06v1.63h2.43l-.81-1.63Z"/><path class="cls-20" d="M175.69,163.53l2.43,2.43,3.24-2.43-3.24-2.43Zm.81,23.5,1.62,1.62,1.62-1.62-1.62-.81Zm-1.62-5.67,3.24,2.43,2.43-2.43-2.43-2.43Zm1.62-7.29,1.62,1.62,1.62-1.62-1.62-.81Zm0-4,1.62.81,1.62-.81-1.62-1.62Z"/><polygon class="cls-18" points="225.93 230.79 211.35 236.47 203.24 254.29 220.26 257.54 225.93 230.79"/><path class="cls-11" d="M160.29,123.83l-1.62-7.3,8.1-8.91-5.67,10.53Zm38.09,1.62v-7.3l-10.54-10.53,13.78,8.1Z"/></g></svg>