<svg id="Layer_1" data-name="Layer 1" xmlns="http://www.w3.org/2000/svg" viewBox="0 0 400 400"><defs><style>.cls-1{fill:#2b2c2b;}.cls-2{fill:#fce3d4;}.cls-3{fill:#c3c3c3;}.cls-4{fill:#99c16d;}.cls-5{fill:#ebebea;}.cls-6{fill:#dcdcda;}.cls-7{opacity:0.1;}.cls-23,.cls-8{fill:#f4c9b2;}.cls-22,.cls-9{fill:#c0907c;}.cls-10{fill:#45622d;}.cls-11{fill:#5b763e;}.cls-12{fill:#9fce7f;}.cls-13{fill:#bfdb8e;}.cls-14,.cls-15{fill:#709c53;}.cls-14{opacity:0.5;}.cls-16{fill:#408f70;}.cls-17{fill:#74c7a5;}.cls-18{fill:#55af8b;}.cls-19{fill:#36795e;}.cls-20{fill:#fff0e8;}.cls-21,.cls-25{fill:#505354;}.cls-22,.cls-23,.cls-24,.cls-25{fill-rule:evenodd;}.cls-24{fill:#fff;}.cls-26{fill:#707274;}.cls-27{fill:#484848;}.cls-28{fill:#010101;opacity:0.22;}</style></defs><title>diplomats_INFJ_famous_real_marie_kondo</title><polygon class="cls-1" points="173.05 84.1 173.23 53.49 153.32 64.1 172.81 167.9 219.8 157.13 173.05 84.1"/><polygon class="cls-2" points="210.05 139.83 206.41 142.41 200.36 145.56 198.35 159.13 216.35 167.2 249.57 160.18 251.2 150.24 237.5 140.12 213.33 139.95 210.05 139.83"/><polygon class="cls-3" points="139.53 195.89 123.82 182.19 136.46 167.9 142.25 167.9 139.16 177.45 137.04 181.89 144.05 188.58 139.53 195.89"/><polygon class="cls-4" points="188.6 149.85 178.73 154.43 172.91 201.22 189.16 207.56 188.6 149.85"/><polygon class="cls-5" points="187.06 197.55 148.75 180.92 139.53 195.89 178.59 221.52 192.65 215.04 187.06 197.55"/><polygon class="cls-5" points="123.82 182.19 125.41 161.13 139.28 157.13 135.89 168.6 123.82 182.19"/><polygon class="cls-6" points="144.05 188.58 136.25 183.23 142.25 167.9 149.34 161.77 148.75 180.92 144.05 188.58"/><g class="cls-7"><polygon class="cls-1" points="147.24 385.89 229.25 377.4 291.32 388.49 213.21 400 147.24 385.89"/></g><polygon class="cls-8" points="191.03 305.52 211.54 366.97 182.73 389.43 211.25 383.58 229.01 371.89 229.01 349.78 216.93 328.02 191.03 305.52"/><polygon class="cls-9" points="194.3 315.11 204.63 346.27 221.88 348.5 225.37 343.23 216.78 327.68 201.65 316.92 194.3 315.11"/><polygon class="cls-2" points="211.1 383.24 227.26 368.73 221.88 348.5 225.37 343.23 245.9 346.04 243.7 370.49 241.08 377.74 225.66 390.37 211.1 383.24"/><polygon class="cls-8" points="221.88 348.5 219.23 337.85 248.54 316.68 245.9 346.04 221.88 348.5"/><polygon class="cls-10" points="242.91 394.46 244.87 378.44 241.2 376.86 236.26 378.61 237.63 394.46 242.91 394.46"/><polygon class="cls-10" points="198.59 377.03 183.02 386.49 182.59 389.08 208.05 388.97 210.67 389.43 211.1 383.24 198.59 377.03"/><polygon class="cls-11" points="211.1 383.24 224.93 386.98 243.7 370.49 244.87 378.44 228.27 394.46 198.74 394.34 198.68 391.69 211.1 383.24"/><polygon class="cls-12" points="237.5 140.12 263.64 152.65 265.55 159.25 262.41 161.12 248.94 164.98 244.03 156.09 237.5 140.12"/><polygon class="cls-13" points="201.53 204.28 196.37 214.76 192.94 223.71 199.53 232.91 212.13 238.8 253.11 227.04 246.23 215.02 201.53 204.28"/><polygon class="cls-12" points="206.41 142.41 188.6 149.85 187.28 159.25 196.97 166.97 204.27 156.56 206.41 142.41"/><polygon class="cls-13" points="181.11 178.74 187.28 159.25 204.27 156.56 244.03 155.86 262.41 161.12 266.18 180.53 258.75 180.54 218.11 195.04 181.11 178.74"/><polygon class="cls-12" points="262.41 161.12 266.18 180.53 258.75 180.54 252.34 185.57 262.41 161.12"/><polygon class="cls-12" points="186.26 197.24 181.11 178.74 262.05 180.52 267.31 199.83 255.49 207.56 213.2 212.35 186.26 197.24"/><polygon class="cls-14" points="254.49 180.36 262.4 180.62 267.31 199.83 255.49 207.56 243.78 206.62 254.49 180.36"/><polyline class="cls-13" points="188.79 237.03 192.65 215.04 186.26 197.24 255.49 207.56 251.2 232.84"/><polygon class="cls-4" points="244.06 205.95 255.49 207.56 259.39 215.39 241.63 212.17 244.06 205.95"/><polygon class="cls-4" points="274.8 158.43 263.64 152.65 255.49 207.56 272.78 226.27 274.8 158.43"/><polygon class="cls-11" points="251.39 327 260.27 337.74 279.6 327 253.11 227.04 239.64 222.43 251.39 327"/><polygon class="cls-15" points="234.2 328.79 243.08 337.23 260.27 337.74 245.95 223.2 233.91 225.76 234.2 328.79"/><polygon class="cls-11" points="207.26 320.35 226.18 340.55 243.08 337.23 238.5 225.76 221.02 228.82 207.26 320.35"/><polygon class="cls-15" points="202.39 323.68 208.7 337.23 226.18 340.55 228.18 230.1 213.57 226.52 202.39 323.68"/><polygon class="cls-11" points="184.34 318.31 188.92 337.48 208.7 337.23 212.71 233.94 210.7 222.12 194.94 224.73 184.34 318.31"/><polygon class="cls-15" points="192.94 228.31 189.21 232.41 167.15 327 188.92 337.48 200.1 227.04 192.94 228.31"/><polygon class="cls-6" points="192.65 215.04 178.59 221.52 180.62 234.09 192.18 234.09 195.77 227.44 192.65 215.04"/><polygon class="cls-2" points="255.49 207.56 272.78 226.27 212.01 233.53 208.81 221.44 255.49 207.56"/><polygon class="cls-16" points="190.44 205.72 196.15 239.98 200.29 219.48 196.4 192.12 190.44 205.72"/><polygon class="cls-17" points="192.27 205.49 191.28 193.32 97.59 204.83 99.44 216.31 192.27 205.49"/><polygon class="cls-18" points="107.12 249.1 196.15 239.98 190.44 205.72 100.07 216.1 107.12 249.1"/><polygon class="cls-18" points="192.27 205.49 197.32 191.72 195.69 180.19 191.28 193.32 192.27 205.49"/><polygon class="cls-19" points="195.69 180.19 118.27 185.47 97.59 204.83 191.28 193.32 195.69 180.19"/><polygon class="cls-16" points="169.94 171.07 172.81 193.7 181.51 182.15 179.17 161.13 169.94 171.07"/><polygon class="cls-17" points="171.33 170.89 169.34 159.4 106.6 165.92 107.83 178.91 171.33 170.89"/><polygon class="cls-18" points="111.56 200.83 172.81 193.7 169.94 171.07 109.08 178.76 111.56 200.83"/><polygon class="cls-18" points="171.33 170.89 179.88 160.82 178.64 152.05 169.34 159.4 171.33 170.89"/><polygon class="cls-19" points="178.64 152.05 130.88 155.27 106.6 165.92 169.34 159.4 178.64 152.05"/><polygon class="cls-16" points="156.37 137.63 158.73 158.8 170.36 152.35 168.38 132.88 156.37 137.63"/><polygon class="cls-17" points="157.48 137.52 156.21 126.98 110.61 131.67 111.3 142.32 157.48 137.52"/><polygon class="cls-18" points="114.69 163.3 158.73 158.8 156.37 137.63 112.29 142.22 114.69 163.3"/><polygon class="cls-18" points="157.48 137.52 168.94 132.64 167.87 123.96 156.21 126.98 157.48 137.52"/><polygon class="cls-19" points="167.87 123.96 132.58 127.01 110.61 131.67 156.21 126.98 167.87 123.96"/><polygon class="cls-8" points="208.81 221.44 192.65 222.08 192.18 241.12 212.01 233.53 208.81 221.44"/><polygon class="cls-20" points="192.65 222.08 181.11 227.04 181.11 238.55 192.18 241.12 192.65 222.08"/><polyline class="cls-8" points="238.88 140.69 272.78 52.87 244.3 45.02 244 51.82 242.29 101.44 215.01 125.84 213.25 156.44"/><polygon class="cls-9" points="210.23 126.88 197.17 128.31 213.25 156.44 237.43 120.43 210.23 126.88"/><polygon class="cls-21" points="273.83 37.3 261.4 169.16 274.8 158.43 273.83 37.3"/><polygon class="cls-2" points="189.88 135.72 214.66 136.36 237.43 120.43 248.49 83.82 243.18 23.34 162.78 31.81 169.01 108.74 189.88 135.72"/><polygon class="cls-22" points="183.39 108.65 184.52 110.92 219.26 111.09 221.13 108.72 199.77 104.97 183.39 108.65"/><polygon class="cls-23" points="184.52 110.92 195.33 122.12 208.51 121.46 219.26 111.09 184.52 110.92"/><polygon class="cls-24" points="189.69 110.95 196.17 116.21 209.54 115.55 214.78 111.07 189.69 110.95"/><polygon class="cls-9" points="189.02 94.5 211.08 93.97 198.9 100.06 189.02 94.5"/><polygon class="cls-20" points="189.02 94.5 192.66 87.75 195.37 70.5 203.39 69.78 207.81 86.58 211.33 89.63 211.08 93.97 189.02 94.5"/><polygon class="cls-25" points="206.56 62.19 206.48 67.17 227.56 61.93 236.02 65.51 236.34 63.97 227.97 60.79 206.56 62.19"/><polygon class="cls-25" points="193.87 67.08 193.75 63.16 176.54 61.63 169.85 64.74 169.94 65.86 176.65 63.28 193.87 67.08"/><polygon class="cls-23" points="206.59 66.49 203.39 69.78 205.8 86.58 211.08 93.97 219.81 73.94 236.02 65.51 227.56 61.93 206.59 66.49"/><polygon class="cls-23" points="189.02 94.5 193.66 86.75 195.37 70.5 193.87 67.08 176.65 63.28 169.94 65.86 184.12 75.28 189.02 94.5"/><circle class="cls-1" cx="184.12" cy="75.28" r="3.83"/><circle class="cls-1" cx="219.8" cy="73.49" r="3.83"/><polygon class="cls-26" points="163.96 29.74 161.98 52.9 187.91 7.7 177.55 9.08 163.96 29.74"/><polyline class="cls-1" points="261.4 169.16 224.78 171.07 253.22 87.61 244.3 45.02 247.16 35.53 250.54 9.79 273.83 37.3"/><polygon class="cls-1" points="204.08 55.41 188.9 57.61 191.1 40.42 210.41 0 208.67 44.29 204.08 55.41"/><polygon class="cls-21" points="207.24 8.39 174.57 55.3 153.32 64.1 162.98 28.25 171.53 11.49 210.41 0 207.24 8.39"/><polygon class="cls-27" points="210.41 0 250.54 9.79 253.22 87.61 247.35 62.68 224.05 55.06 208.67 44.29 210.41 0"/><polygon class="cls-27" points="210.41 0 188.9 57.61 174.57 55.3 210.41 0"/><polygon class="cls-21" points="210.41 0 204.08 55.41 224.05 55.06 210.41 0"/><polygon class="cls-2" points="252.7 64.49 253.22 87.61 269.16 85.71 268.66 61.89 252.7 64.49"/><polygon class="cls-9" points="258.53 70.05 258.17 79.27 264.63 68.51 258.53 70.05"/><polygon class="cls-28" points="253.22 87.61 248.7 100.89 269.16 85.71 253.22 87.61"/></svg>