<svg id="Layer_1" data-name="Layer 1" xmlns="http://www.w3.org/2000/svg" viewBox="0 0 400 400"><defs><style>.cls-1{fill:#f4c9b2;}.cls-1,.cls-10,.cls-11,.cls-12,.cls-13,.cls-14,.cls-15,.cls-16,.cls-17,.cls-18,.cls-19,.cls-2,.cls-20,.cls-3,.cls-4,.cls-5,.cls-6,.cls-7,.cls-8,.cls-9{fill-rule:evenodd;}.cls-2{fill:#fce3d4;}.cls-3{fill:#e4c728;}.cls-4{fill:#cbac14;}.cls-19,.cls-5{fill:#2b2b2b;}.cls-5{opacity:0.1;}.cls-6{fill:#c2b070;}.cls-7{fill:#846400;}.cls-8{fill:#c1907d;}.cls-9{fill:#decf7d;}.cls-10{fill:#fff7ad;}.cls-11{fill:#ab913c;}.cls-12{fill:#755800;}.cls-13{fill:#474747;}.cls-14{fill:#bb8e2d;}.cls-15{fill:#4f5253;}.cls-16{fill:#6f7173;}.cls-17{fill:#9d7700;}.cls-18{fill:#ffefe7;}.cls-20{fill:#fff;}</style></defs><title>explorers_ISFP_famous_real_avril_lavigne</title><polygon class="cls-1" points="292.07 153.54 285.82 144.67 279.71 157.14 294.11 160.19 292.07 153.54"/><polygon class="cls-2" points="294.83 175.42 291.93 170.71 285.82 144.67 316.5 147.99 307.92 179.03 294.83 175.42"/><polygon class="cls-3" points="288.87 180.41 288.58 176.12 291.93 170.71 307.92 179.03 305.3 185.68 288.87 180.41"/><polygon class="cls-4" points="286.55 193.3 284.95 182.49 288.58 176.12 305.3 185.68 302.68 193.16 286.55 193.3"/><polygon class="cls-1" points="236.38 189.69 242.23 161.71 251.53 168.94 257.36 165.78 261.62 176.42 283.04 192.19 281.89 206.18 269.53 212.28 243.06 207.95 236.38 189.69"/><polygon class="cls-2" points="284.95 182.49 269.54 212.28 294.92 216.43 302.68 193.16 284.95 182.49"/><polygon class="cls-5" points="121 383.68 203.74 372.31 270.73 382.92 246.64 400.38 121 383.68"/><polygon class="cls-6" points="167.87 132.79 174.55 130.04 185.3 134.82 191.82 143.55 191.76 152.02 185.18 161.03 172.38 159.17 164.52 147.94 167.87 132.79"/><polygon class="cls-6" points="172.07 9.2 174.29 14.77 221.55 19.88 243.34 16.2 220.78 1.38 172.07 9.2"/><polygon class="cls-7" points="185.53 156.3 176.02 159.68 162.27 173.39 164.3 190.86 204.98 205.6 243.06 207.95 240.58 163.33 226.53 156.13 226.53 156.12 189.56 154.65 185.53 156.3"/><polygon class="cls-6" points="160.2 36.7 158.03 71 148.93 104.15 141.59 59.08 150.92 40.03 159.1 32.7 160.2 36.7"/><polygon class="cls-2" points="171.37 40.95 156.29 55.3 148.93 104.15 162.93 138.91 167.44 145.55 172.75 140.45 193.16 143.65 218.15 121.49 228.56 75.63 240.56 56.8 256.94 30.94 215 27.2 181.92 14.46 171.5 28.19 171.37 40.95"/><polygon class="cls-8" points="157.84 47.94 156.29 55.3 199.13 46.54 219.13 29.02 214.26 26.91 181.92 14.46 171.5 28.19 157.84 47.94"/><polygon class="cls-1" points="239.99 94.68 239.32 123.15 226.97 156.35 204.25 179.07 190.68 173.86 189.56 154.65 193.5 143.36 218.15 121.48 233.35 54.5 236.62 84.11 239.99 94.68"/><polygon class="cls-6" points="228.56 75.63 233.32 99.47 242.85 93.53 244.07 88.56 249.42 77.42 245.78 55.86 235.38 45.57 228.56 75.63"/><polygon class="cls-9" points="169.94 23.82 169.44 33 160.2 36.71 141.59 59.08 151.09 31.21 165.91 23.49 169.94 23.82"/><polygon class="cls-6" points="235.81 167.56 226.97 156.35 237.13 95.84 248.28 70.66 259.69 94.34 268.6 117.67 261.63 155.89 251.53 168.94 246.29 171.27 235.81 167.56"/><polygon class="cls-10" points="244.76 19.97 261.45 20.05 273.37 67.45 268.6 117.67 235.38 45.57 219.13 29.02 244.76 19.97"/><polygon class="cls-9" points="224.53 19.37 243.34 16.2 261.45 20.05 219.13 29.02 224.53 19.37"/><polygon class="cls-9" points="163.23 165.2 176.02 159.7 172.75 140.45 162.93 138.91 159.66 159.02 163.23 165.2"/><polygon class="cls-10" points="172.07 9.2 160.2 36.71 164.53 41.65 196.47 36.56 219.13 29.02 243.34 16.2 172.07 9.2"/><polygon class="cls-9" points="160.2 36.7 160.2 36.71 157.84 47.94 180.73 47.16 219.13 29.02 160.2 36.7"/><polygon class="cls-8" points="185.02 142.38 195.5 170.67 223.02 146.77 185.02 142.38"/><polygon class="cls-11" points="173.31 319.64 175.87 357.6 190.24 368.3 198.29 362.59 202.11 332.5 197.97 313.62 188.67 314.41 173.31 319.64"/><polygon class="cls-11" points="174.34 250.44 170.29 275.1 187.47 291 208.07 296.4 227.19 295.21 247.74 277.11 234.75 250.48 230.15 246.29 177.71 247.04 174.34 250.44"/><polygon class="cls-3" points="247.61 277.11 206.7 296.4 215.61 334.2 232.28 344.61 243.92 334.67 247.61 277.11"/><polygon class="cls-11" points="215.61 334.2 223.05 365.83 233.38 374.57 243.24 365.65 243.92 334.67 215.61 334.2"/><polygon class="cls-12" points="164.3 190.86 243.06 207.95 230.65 242.07 229.51 246.29 177.71 247.04 175.7 242.07 174.17 234.93 182.76 220.19 170.62 218.47 164.3 190.86"/><polygon class="cls-3" points="206.7 296.4 170.29 275.1 173.31 319.64 202.08 332.74 206.7 296.4"/><polygon class="cls-13" points="234.75 250.48 174.34 250.44 175.7 242.07 230.65 242.07 234.75 250.48"/><polygon class="cls-13" points="198.29 362.59 175.87 357.6 148.84 378.85 151.27 382.62 195.35 383.67 197.91 379.59 198.29 362.59"/><polygon class="cls-13" points="223.05 365.83 243.24 365.65 248.69 388.12 246.65 392.04 217.11 391.8 215.4 388.12 223.05 365.83"/><polygon class="cls-14" points="215.4 388.12 248.69 388.12 248.5 394.85 215.55 394.62 215.4 388.12"/><polygon class="cls-14" points="197.55 385.44 197.91 379.59 148.85 378.85 148.84 384.47 197.55 385.44"/><polygon class="cls-15" points="137.99 113.8 141.13 119.69 147.82 111.81 141.59 93.25 131.13 92.46 129.39 100.96 137.99 113.8"/><polygon class="cls-16" points="125.06 103.22 124.54 94.92 131.13 92.46 141.13 119.69 134.31 122.04 125.06 103.22"/><polygon class="cls-15" points="118.88 108.56 116.55 100.92 122.04 98.48 124.54 94.92 130.37 110.34 134.31 122.04 130.9 121.21 118.38 114.74 118.88 108.56"/><path class="cls-1" d="M110.55,108.9l3.35-8.79,2-11.56,7.42-.2L122,98.48l-2,4.59s-3.91,6.41-4.55,6.47-5-.64-5-.64"/><polygon class="cls-17" points="113.96 127.22 113.52 127.22 98.53 127.18 87.42 132.15 81.82 122.26 94.83 115.73 100.36 116.41 120.07 103.07 125.5 115.88 113.96 127.22"/><path class="cls-7" d="M120.07,103.07c0,.22-1.82,14.05-2.2,14.38s-17.3,6.06-17.3,6.06l-5.74-7.78,19.67-9.87Z"/><polygon class="cls-2" points="123.15 137.66 127.08 130.52 134.72 111.91 130.04 109.48 114.2 122.05 108.29 127.21 111.88 135.86 123.15 137.66"/><polygon class="cls-1" points="114.2 122.05 98.53 127.18 105.3 134.81 111.88 135.86 115.12 132.88 114.2 122.05"/><polygon class="cls-3" points="111.32 145.98 106.41 143.03 105.3 134.81 127.08 130.52 128.42 138.34 111.32 145.98"/><polygon class="cls-4" points="112.79 156.22 107.71 150.99 106.41 143.03 128.42 138.34 129.47 145.28 112.79 156.22"/><polygon class="cls-1" points="176.02 159.68 164.3 190.86 138.13 185.18 125.13 172.26 132.37 157.92 176.02 159.68"/><polygon class="cls-2" points="107.71 150.99 110.81 179.25 138.13 185.18 129.47 145.28 107.71 150.99"/><polygon class="cls-2" points="113.9 100.11 115.5 115.52 101.97 121.51 94.83 115.73 113.9 100.11"/><polygon class="cls-1" points="164.59 66.57 159.7 69.76 167.46 79.55 175.9 90.96 182.61 94.58 184.26 100.56 199.52 84.6 210.93 76.08 206.24 71.69 190.26 73.18 186.1 74.43 181.88 80.46 178.88 73.46 176.8 71.26 164.59 66.57"/><polygon class="cls-8" points="180.82 93.81 172.16 99.17 176.31 106.08 183.55 100.64 180.82 93.81"/><polygon class="cls-6" points="159.67 68.07 165.07 65.1 177.31 67.9 176.8 71.26 164.3 68.13 159.7 69.76 159.67 68.07"/><polygon class="cls-6" points="190.3 69.66 208.15 70.03 211.53 75.43 210.93 76.08 206 73.17 190.26 73.18 190.3 69.66"/><polygon class="cls-18" points="178.88 73.46 178.87 81.5 172.16 99.17 183.55 100.64 183.53 82.06 186.1 74.43 178.88 73.46"/><path class="cls-19" d="M167.45,75.47a4.26,4.26,0,0,1,3.56,5A4.44,4.44,0,0,1,165.9,84a4.28,4.28,0,0,1-3.57-5,4.44,4.44,0,0,1,5.12-3.52"/><path class="cls-19" d="M200,80.39a4.29,4.29,0,0,1,3.57,5,4.45,4.45,0,0,1-5.12,3.52,4.28,4.28,0,0,1-3.57-5A4.45,4.45,0,0,1,200,80.39"/><polygon class="cls-14" points="164.3 112.56 170.08 124.1 180.82 125.86 190.01 115.49 185.23 114.69 168.91 112.5 164.3 112.56"/><polygon class="cls-20" points="168.56 113.22 170.22 118.08 181.66 120.18 184.97 115.9 176.19 113.47 168.56 113.22"/><polygon class="cls-7" points="164.3 112.56 168.56 113.22 177.13 114.62 184.97 115.9 190.01 115.49 180.07 111.63 176.62 112.78 173.85 111.1 164.3 112.56"/><polygon class="cls-14" points="176.02 159.68 176.18 183.47 195.5 170.67 189.56 154.65 176.02 159.68"/><polygon class="cls-14" points="210.37 191.05 200.93 172.58 226.73 156.5 227.93 162.43 229.01 169.31 210.37 191.05"/><polygon class="cls-4" points="190.91 198.3 192.56 212.31 202.74 206.66 197.81 187.75 190.91 198.3"/><polygon class="cls-3" points="195.88 180.78 190.64 185.28 170.62 218.47 174.17 234.93 189.67 225.79 197.81 187.75 195.88 180.78"/><polygon class="cls-4" points="204.91 180.38 200.93 172.58 195.5 170.67 188.12 175.56 190.63 185.28 197.81 187.75 204.91 180.38"/><polygon class="cls-16" points="191.35 246.16 196.15 242.07 200.71 246.18 196.28 250.39 191.35 246.16"/><polygon class="cls-14" points="187.37 363.01 188.53 368.61 194.48 369.28 189.25 372.06 190.43 377.65 186.03 373.76 180.81 376.55 183.33 371.38 178.92 367.5 184.87 368.19 187.37 363.01"/><polygon class="cls-14" points="245.51 374.99 240.04 377.74 242.8 372.77 238.8 369.04 244.21 369.68 245.51 374.99"/><polygon class="cls-10" points="223.29 185.8 226.73 156.5 237.2 156.08 251.53 168.94 241.82 185.64 223.29 185.8"/><polygon class="cls-9" points="243.06 207.95 223.29 185.8 251.53 168.94 243.06 207.95"/><polygon class="cls-9" points="268.6 117.67 236.86 33.18 219.13 29.02 268.6 117.67"/><polygon class="cls-9" points="251.53 168.94 237.9 61.21 226.74 156.57 251.53 168.94"/><polygon class="cls-9" points="268.6 117.67 261.62 176.42 251.53 168.94 268.6 117.67"/><polygon class="cls-9" points="268.6 117.67 261.45 20.05 282.86 70.94 268.6 117.67"/></svg>