<svg id="illustration_layer_copy" data-name="illustration_layer copy" xmlns="http://www.w3.org/2000/svg" viewBox="0 0 400 400"><defs><style>.cls-1{fill:#5a753d;}.cls-2{fill:#446125;}.cls-15,.cls-16,.cls-3{fill:#2b2b2b;}.cls-3{opacity:0.1;}.cls-4{fill:#4f5253;}.cls-5{fill:#474747;}.cls-6{fill:#7f5d4e;}.cls-7{fill:#738c57;}.cls-8{fill:#fff;}.cls-9{fill:#dcdcdb;}.cls-10{fill:#a17e6e;}.cls-11{fill:#593e35;}.cls-12{fill:#a98c80;}.cls-13{fill:#98c16d;}.cls-14{fill:#beda8d;}.cls-15{opacity:0.14;}.cls-17{fill:#6f7173;}.cls-18{fill:#35785d;}.cls-19{fill:#3f8e6f;}.cls-20{fill:#54af8a;}</style></defs><title>diplomats_INFJ_famous_real_martin_luther_king</title><g id="character_copy" data-name="character copy"><polygon class="cls-1" points="176.55 279.13 192.97 318.94 216.75 341.61 237.03 338.25 241.34 306.55 234.33 306.55 221.23 273.58 176.55 279.13"/><polygon class="cls-1" points="234.33 306.55 243.71 336.43 264.94 348.5 286.17 346.74 299.5 286.94 255.12 292.01 234.33 306.55"/><polygon class="cls-2" points="243.71 336.43 286.17 346.74 281.16 369.22 261.74 368.76 251.51 361.28 243.71 336.43"/><polygon class="cls-2" points="233.49 364.29 237.03 338.25 192.97 318.94 207.5 354.14 217 362.5 233.49 364.29"/><polygon class="cls-3" points="35.65 383.6 211.5 369.36 335.24 386.73 177.33 400 76.73 396.04 35.65 383.6"/><polygon class="cls-4" points="207.5 354.14 185.39 372.35 207.5 374.38 233.49 372.35 233.49 364.29 207.5 354.14"/><rect class="cls-5" x="185.39" y="372.35" width="48.11" height="6.85"/><polygon class="cls-4" points="251.51 361.28 245 381.68 281.45 381.68 281.16 369.22 251.51 361.28"/><rect class="cls-5" x="245" y="381.68" width="36.45" height="6.85"/><polygon class="cls-2" points="209.46 294.81 234.33 306.55 221.28 277.88 209.46 294.81"/><polygon class="cls-6" points="128.24 137.57 117.63 113.23 109.39 115.34 117.46 141.38 123.54 141.38 128.24 137.57"/><polygon class="cls-7" points="184.79 153.63 143.16 199.85 180.97 218.68 185.3 191.84 184.79 153.63"/><polygon class="cls-1" points="311.57 169.87 340 225.99 298.66 251.92 311.57 169.87"/><polygon class="cls-8" points="209.78 143.67 223.28 222.81 280.76 149.8 238.55 161.41 209.78 143.67"/><polygon class="cls-9" points="238.6 162.41 214.97 174.85 225.31 207.58 250.94 184.71 238.6 162.41"/><polygon class="cls-4" points="246.26 176.26 238.6 162.41 223.88 170.16 229.09 182.88 221.1 190.26 224.29 213.67 236.58 195.84 234.43 183.95 246.26 176.26"/><polygon class="cls-10" points="192.48 13.6 213.02 6.76 283.64 29.09 287.6 78.46 303.82 86.74 273.73 145.66 238.6 159.17 218.06 142.95 202.21 127.82 172.44 118.17 169.32 91.09 192.48 13.6"/><polygon class="cls-6" points="283.64 29.09 253.13 121.03 236.57 139.1 211.03 134.53 209.78 143.67 263.53 154.95 280.76 149.8 303.82 86.74 287.6 78.46 283.64 29.09"/><polygon class="cls-11" points="202.21 127.82 261.21 147.19 263.53 154.95 238.6 162.41 209.78 143.67 202.21 127.82"/><polygon class="cls-11" points="296.12 107.81 282.38 102.69 291.01 121.77 296.12 107.81"/><polygon class="cls-11" points="288.05 99.17 291.3 88.64 298.05 91.07 288.05 99.17"/><polygon class="cls-4" points="209.37 7.97 234.55 0 298.05 19.73 283.02 31.11 209.37 7.97"/><polygon class="cls-5" points="298.05 19.73 313.46 59.72 303.82 86.74 284.54 79.18 283.02 31.11 298.05 19.73"/><polygon class="cls-6" points="249.06 57.18 221.58 79.78 195.44 41.51 207 41.91 213.58 46.4 229.48 51.23 238 51.66 249.06 57.18"/><polygon class="cls-12" points="229.48 51.23 222.49 61.58 221.58 79.78 202.48 74.22 212.58 58.26 213.58 46.41 229.48 51.23"/><polygon class="cls-11" points="221.58 79.78 209.52 84.74 202.48 74.22 221.58 79.78"/><polygon class="cls-5" points="249.06 57.18 238.63 52.25 229.48 51.23 233.17 48.25 242.37 49.23 249.06 57.18"/><polygon class="cls-5" points="213.58 46.41 213.58 41.96 203.58 37.52 195.44 41.51 205 42 213.58 46.41"/><polygon class="cls-13" points="209.78 143.67 184.79 153.63 176.55 279.13 209.46 294.81 220.28 282.88 228.16 249.92 225.31 207.58 214.97 174.85 209.78 143.67"/><polygon class="cls-7" points="280.76 149.8 256.81 180.18 225.31 207.58 220.28 282.88 234.33 306.55 299.5 286.94 311.57 169.87 280.76 149.8"/><polygon class="cls-14" points="209.78 143.67 194.26 174.6 225.31 207.58 209.78 143.67"/><polygon class="cls-13" points="225.31 207.58 278.12 195.9 280.76 149.8 225.31 207.58"/><polygon class="cls-2" points="237.29 220.82 241.34 226.91 235.51 230.71 231.45 225.77 237.29 220.82"/><polygon class="cls-2" points="235.22 241.72 239.27 247.8 233.44 251.61 229.38 246.66 235.22 241.72"/><polygon class="cls-2" points="234.06 263.64 238.12 269.72 232.29 273.53 228.23 268.58 234.06 263.64"/><polygon class="cls-15" points="255.54 242.56 280.23 272.32 301.01 272.32 302.75 255.41 280.38 241.23 255.54 242.56"/><polygon class="cls-13" points="340 225.99 294.96 225.71 286.17 235.72 289.25 251.6 325.14 261.57 340 225.99"/><polygon class="cls-8" points="285.14 225.51 278.9 237.1 279.19 248.7 289.25 251.6 294.96 225.71 285.14 225.51"/><polygon class="cls-11" points="285.14 225.51 275.04 212.57 263.31 216.46 274.73 224.16 285.14 225.51"/><polygon class="cls-6" points="285.14 225.51 263.31 216.46 255.11 231.1 257.24 244.63 279.19 248.7 285.14 225.51"/><polygon class="cls-10" points="263.31 216.46 245.79 213.28 244.34 229.23 257.24 244.63 263.31 216.46"/><polygon class="cls-1" points="180.97 218.68 140.16 176.67 125.96 178.58 120.86 190.81 140.6 234.07 180.97 218.68"/><polygon class="cls-9" points="120.86 190.81 140.16 176.67 133.57 169.87 122.7 171.81 115.77 178.58 120.86 190.81"/><polygon class="cls-11" points="115.77 178.58 101.09 164.42 113.53 155.07 134.84 151.01 133.57 169.87 115.77 178.58"/><polygon class="cls-6" points="101.09 164.42 98.8 147.69 113.26 141.73 134.84 151.01 101.09 164.42"/><polygon class="cls-10" points="123.36 154.45 112.27 150 113.26 141.73 128.24 137.57 134.84 151.01 128.77 158.37 123.36 154.45"/><polygon class="cls-6" points="134.84 151.01 123.36 154.45 122.7 175.19 133.57 169.87 134.84 151.01"/><polygon class="cls-6" points="221.58 79.78 227.83 86.63 224.71 99.88 221.58 79.78"/><polygon class="cls-6" points="202.48 74.22 191.41 90.02 194.33 77.17 202.48 74.22"/><polygon class="cls-5" points="209.52 84.74 224.71 99.88 208.26 91.9 209.52 84.74"/><polygon class="cls-5" points="209.52 84.74 206.18 90.69 191.41 90.02 209.52 84.74"/><polygon class="cls-11" points="191.41 90.02 224.71 99.88 217.86 113.84 191.13 105.62 191.41 90.02"/><polygon class="cls-8" points="194.63 93.62 220.13 101.62 218.25 105.12 194.5 97.75 194.63 93.62"/><circle class="cls-16" cx="238.17" cy="64.71" r="4.05"/><circle class="cls-16" cx="201" cy="52.71" r="4.05"/></g><g id="podium_copy" data-name="podium copy"><polygon class="cls-4" points="129.96 190.49 134.84 151.01 141.83 152.71 143.94 156.68 141.74 190.49 129.96 190.49"/><polygon class="cls-17" points="134.84 151.01 155.62 138.84 159.69 141.55 160.67 143.92 143.94 156.68 134.84 151.01"/><polygon class="cls-5" points="155.62 138.84 162.7 126.92 169.53 134.45 173.44 143.15 160.67 143.92 155.62 138.84"/><polygon class="cls-17" points="162.7 126.92 179.02 125.91 182.19 131.74 173.44 143.15 162.7 126.92"/><polygon class="cls-18" points="61.28 205.35 179.28 198.79 206.85 269.91 87.66 269.91 61.28 205.35"/><polygon class="cls-19" points="206.85 269.91 212.67 255.33 180.94 188.7 174.96 197.03 178.26 203.87 206.85 269.91"/><polygon class="cls-20" points="180.94 188.7 69.13 192.64 61.28 205.35 178.26 203.87 180.94 188.7"/><polygon class="cls-20" points="85.32 223.79 168 225.82 173.27 300.13 170.54 396.04 76.73 390.84 85.32 223.79"/><polygon class="cls-19" points="168 225.82 184.77 259.05 194.32 389.27 170.54 396.04 168 225.82"/></g></svg>