<svg id="Layer_1" data-name="Layer 1" xmlns="http://www.w3.org/2000/svg" viewBox="0 0 400 400"><defs><style>.cls-1{fill:#070908;opacity:0.15;}.cls-1,.cls-10,.cls-11,.cls-12,.cls-13,.cls-14,.cls-15,.cls-16,.cls-17,.cls-18,.cls-19,.cls-2,.cls-20,.cls-22,.cls-3,.cls-4,.cls-5,.cls-6,.cls-7,.cls-8,.cls-9{fill-rule:evenodd;}.cls-2{fill:#414042;}.cls-3{fill:#808285;}.cls-4{fill:#58595b;}.cls-5{fill:#474748;}.cls-6{fill:#6d6e71;}.cls-7{fill:#44622d;}.cls-8{fill:#5a753d;}.cls-9{fill:#738d57;}.cls-10{fill:#d9e256;}.cls-10,.cls-11{opacity:0.7;}.cls-11{fill:#b8c744;}.cls-12{fill:#6f9d52;}.cls-13{fill:#b38c71;}.cls-14{fill:#d1ab92;}.cls-15{fill:#83624e;}.cls-16{fill:#c4c4c4;}.cls-17{fill:#cfcfcd;}.cls-18{fill:#dddddc;}.cls-19{fill:#d7bca9;}.cls-20{fill:#fff;}.cls-21{fill:#2b2b2b;}.cls-22{fill:#858686;}</style></defs><title>diplomats_INFJ_famous_real_nelson_mandela</title><polygon class="cls-1" points="215.57 399.36 88.7 382.97 197.51 366.12 321.5 386.83 215.57 399.36"/><polygon class="cls-2" points="174.27 368.36 173.49 381.12 162.81 383.66 130.27 383.51 125.99 381.86 146.11 364.79 160.06 364.79 174.27 368.36"/><polygon class="cls-3" points="136.12 276.88 146.11 364.79 158.1 366.31 161.41 361.22 186.93 282.83 174.93 267.02 159.53 279.39 136.12 276.88"/><polygon class="cls-4" points="179.84 290.43 169.33 281.67 158.1 366.31 174.27 368.36 197.38 304.63 179.84 290.43"/><polygon class="cls-2" points="232.26 386.83 235.11 369.99 252.31 366.12 264.04 368.73 271.99 387.7 266.39 389.7 242.96 389.38 232.26 386.83"/><polygon class="cls-3" points="228.38 291.18 252.37 364.18 250.58 369.31 235.11 369.99 197.38 304.63 203.06 286.91 222.37 288.88 228.38 291.18"/><polygon class="cls-4" points="222.37 288.88 250.58 369.31 264.04 368.73 262.69 276.87 243.61 275.3 229.85 279.67 222.37 288.88"/><polygon class="cls-5" points="136.12 276.88 172.9 272.32 262.69 276.87 197.38 304.63 136.12 276.88"/><polygon class="cls-6" points="126 386.16 173.49 386.16 173.49 381.12 125.93 381.86 126 386.16"/><polygon class="cls-6" points="232.26 392 271.99 392 271.99 387.7 232.26 386.83 232.26 392"/><polygon class="cls-7" points="142.14 135.63 145.45 167.25 139.7 197.46 108 153.03 108.5 129.54 124.56 122.19 142.14 135.63"/><polygon class="cls-8" points="160.18 136.83 142.14 135.63 140.99 168.74 138.1 233.22 137.58 244.79 136.12 277.35 182.63 277.18 187.59 258.8 191.5 153.32 188.82 143.33 172.22 153.68 160.18 136.83"/><polygon class="cls-7" points="250.66 130.09 247.73 161.58 256.02 195.53 284.04 156.81 293.97 119.51 272.31 115.53 250.66 130.09"/><polygon class="cls-9" points="250.66 130.09 231.02 132.87 205.42 157.53 188.1 147.42 184.04 256.83 183.28 277.18 262.69 276.87 253.88 169.42 250.66 130.09"/><polygon class="cls-10" points="184.04 256.83 172.51 277.22 183.28 277.18 189.37 271.64 184.04 256.83"/><polygon class="cls-11" points="184.04 256.83 183.28 277.18 198.29 277.12 184.04 256.83"/><polygon class="cls-10" points="225.47 207.57 213.32 235.62 228.6 248.76 225.47 207.57"/><polygon class="cls-11" points="228.6 248.76 225.47 207.57 240.31 233.54 228.6 248.76"/><polygon class="cls-11" points="202.53 226.34 205.66 241.98 228.6 248.76 202.53 226.34"/><polygon class="cls-10" points="249.46 221.65 228.6 248.76 248.41 240.42 249.46 221.65"/><polygon class="cls-10" points="149.12 209.02 138.1 233.22 149.12 250.41 155.85 229.71 149.12 209.02"/><polygon class="cls-11" points="149.12 250.41 161.54 235.21 149.12 209.02 149.12 250.41"/><polygon class="cls-10" points="169.33 225.38 149.12 250.41 167.4 241.26 169.33 225.38"/><polygon class="cls-11" points="137.58 244.79 149.12 250.41 138.1 233.22 137.58 244.79"/><polygon class="cls-10" points="174.62 188.67 187.43 165.38 185.99 204.22 174.62 188.67"/><polygon class="cls-11" points="187.43 165.38 185.99 204.22 199.06 189.88 187.43 165.38"/><polygon class="cls-11" points="167.16 178.46 169.19 197.11 185.99 204.22 167.16 178.46"/><polygon class="cls-10" points="209.03 178.94 185.99 204.22 207.24 197.03 209.03 178.94"/><polygon class="cls-10" points="242.76 155.53 253.88 169.42 250.66 130.09 242.76 155.53"/><polygon class="cls-11" points="236.46 147.66 237.42 163.06 253.88 169.42 236.46 147.66"/><polygon class="cls-11" points="149.49 156.06 142.14 135.63 140.99 168.74 149.49 156.06"/><polygon class="cls-10" points="155.61 162.58 140.99 168.74 155.13 147.66 155.61 162.58"/><polygon class="cls-8" points="284.04 156.81 272.31 115.53 294.23 99.12 310.95 102.6 312.34 117.24 284.04 156.81"/><polygon class="cls-12" points="306.34 90.31 294.23 99.12 312.34 117.24 323 103.09 319.91 91.7 306.34 90.31"/><polygon class="cls-13" points="319.24 68.69 314.9 74.72 314.19 96.33 323 103.09 341.68 89.03 335.94 71.93 319.24 68.69"/><polygon class="cls-14" points="339.61 54.09 319.24 68.69 341.68 89.03 352.09 67.45 339.61 54.09"/><polygon class="cls-14" points="301.98 62.96 306.34 90.31 314.19 96.33 321.5 86.84 307.62 61.34 301.98 62.96"/><polygon class="cls-8" points="108 153.03 124.56 122.19 103.08 103.52 85.74 104.77 83.7 119.96 108 153.03"/><polygon class="cls-12" points="91.83 93.83 103.08 103.52 83.7 119.96 74.32 106.9 78.3 94.08 91.83 93.83"/><polygon class="cls-13" points="80.37 71.63 83.76 78.2 83.71 99.89 74.32 106.9 56.91 90.41 63.63 73.83 80.37 71.63"/><polygon class="cls-14" points="61.08 55.93 80.37 71.63 56.91 90.41 47.91 68.41 61.08 55.93"/><polygon class="cls-14" points="97.81 67 91.83 93.83 83.71 99.89 76.06 90.03 92.32 65.05 97.81 67"/><polygon class="cls-15" points="162 115.53 166.44 132.26 177.99 145.49 188.1 147.42 202.53 144.53 217.54 132.12 220.34 117.1 205.19 122.27 162 115.53"/><polygon class="cls-13" points="203.01 127.21 215.05 126.93 214.1 134.97 220.34 134.91 225.15 128.17 239.65 98.02 240.55 68.24 220.34 17.67 220.82 72.35 203.01 127.21"/><polygon class="cls-15" points="241.99 83.41 233.33 83.9 239.65 98.02 244.24 88.47 241.99 83.41"/><polygon class="cls-16" points="242.96 17.48 231.41 17 223.36 26.63 231.41 67.05 237.21 68.94 255.47 65.13 242.96 17.48"/><polygon class="cls-16" points="137.77 62.19 145.26 46.84 150.56 26.63 150.56 18.45 137.64 19.9 137.77 62.19"/><polygon class="cls-17" points="170.91 13.63 161.76 23.74 150.22 26.63 137.64 19.9 172.35 1.6 175.72 7.38 170.91 13.63"/><polygon class="cls-18" points="207.35 0.64 172.7 1.6 171.25 13.63 180.4 16.52 199.65 12.19 208.79 6.9 207.35 0.64"/><polygon class="cls-17" points="242.96 17.96 207.35 1.12 199.65 12.67 209.75 21.82 223.36 26.63 242.96 17.96"/><polygon class="cls-14" points="155.61 125.64 203.01 127.21 220.34 98.02 223.36 26.63 199.65 12.19 171.25 13.63 149.36 26.17 137.77 62.19 139.76 100.83 155.61 125.64"/><polygon class="cls-13" points="159.7 46.95 152.97 52.25 161.63 56.82 169.33 76.31 176.76 57.54 159.7 46.95"/><polygon class="cls-13" points="179.26 57.54 186.65 76.31 195.31 56.58 206.86 54.17 196.28 46.47 179.26 57.54"/><polygon class="cls-13" points="161.15 45.03 196.28 45.03 185.88 58.09 173.17 56.1 161.15 45.03"/><polygon class="cls-13" points="151.7 84.13 155.61 101.02 155.61 85.67 167.35 77.19 151.7 84.13"/><polygon class="cls-13" points="188.29 76.95 201 85.11 202.51 99.63 204.01 83.13 188.29 76.95"/><polygon class="cls-13" points="146.71 55.13 146.23 57.54 152.48 58.5 146.71 55.13"/><polygon class="cls-13" points="210.23 57.54 217.45 54.65 218.9 57.54 210.23 57.54"/><polygon class="cls-19" points="169.33 76.31 172.11 66.88 173.01 55.13 183.54 55.56 184.25 67.56 186.65 76.31 178.95 77.75 169.33 76.31"/><polygon class="cls-15" points="178.95 82.56 169.33 76.31 186.65 76.31 178.95 82.56"/><polygon class="cls-15" points="158.26 90.75 198.68 90.26 192.31 104.72 161.63 105.18 158.26 90.75"/><polygon class="cls-20" points="162 93.03 163.31 98.2 192.06 97.53 194.35 92.43 162 93.03"/><polygon class="cls-14" points="240.07 57.91 233.33 83.9 244.24 88.47 255.47 65.13 240.07 57.91"/><polygon class="cls-15" points="243.44 65.61 241.03 74.75 249.69 68.02 243.44 65.61"/><polygon class="cls-9" points="165.87 130.09 160.18 136.83 170.29 164.26 188.1 147.42 165.87 130.09"/><polygon class="cls-8" points="225.15 128.17 188.1 147.42 208.79 164.26 231.02 132.87 225.15 128.17"/><circle class="cls-21" cx="160.8" cy="59.83" r="3.73"/><circle class="cls-21" cx="196.28" cy="59.83" r="3.73"/><polygon class="cls-22" points="173.17 51.78 161.15 45.03 151.76 49.6 152.97 52.25 161.39 49.36 173.01 55.13 173.17 51.78"/><polygon class="cls-22" points="196.28 45.03 183.54 52 183.54 55.56 195.79 48.4 206.86 54.17 208.79 50.8 196.28 45.03"/><path class="cls-13" d="M159.88,35s14.38-2.88,14.88-2.88,11.37-.74,11.37-.74l-11.75-1.75Z"/><polygon class="cls-13" points="186.13 36 196.84 36.21 209.38 39.63 197.76 34.13 186.13 36"/></svg>