<svg id="Layer_1" data-name="Layer 1" xmlns="http://www.w3.org/2000/svg" viewBox="0 0 400 400"><defs><style>.cls-1{fill:#a09160;}.cls-2{fill:#c1b274;}.cls-3{fill:#369395;}.cls-4{fill:#c1907d;}.cls-5{fill:#fce3d4;}.cls-6{fill:#f4c9b2;}.cls-7{fill:#72cacb;}.cls-19,.cls-21,.cls-8{fill:#2b2b2b;}.cls-8{fill-opacity:0.1;}.cls-9{fill:#1c7678;}.cls-10{fill:none;}.cls-11{fill:#3a9fb9;}.cls-12{fill:#318ea5;}.cls-13{fill:#27788b;}.cls-14{fill:#50a8a9;}.cls-15{fill:#fff;}.cls-16{fill:#73cee4;}.cls-17{fill:#8bdfdb;}.cls-18{fill:#e2d086;}.cls-20{fill:#ffefe7;}.cls-21{fill-opacity:0.15;}.cls-22{fill:#fff7ae;}</style></defs><title>sentinels_ISTJ_famous_real_angela_merkel</title><g id="Layer_1-2" data-name="Layer_1"><polygon class="cls-1" points="303.58 78.41 275.06 124.44 248.03 131.45 259.55 111.44 289.57 83.91 303.58 78.41"/><polygon class="cls-2" points="272.05 78.41 267.05 83.91 253.54 93.92 248.03 131.45 303.58 78.41 296.07 74.91 272.05 78.41"/><polygon class="cls-3" points="113.94 151.97 104.93 165.97 113.94 166.97 137.46 157.47 140.46 149.96 113.94 151.97"/><polygon class="cls-4" points="105.93 143.46 120.94 158.47 128.95 161.47 137.46 157.47 140.46 149.96 134.95 135.95 125.95 127.45 105.93 143.46"/><polygon class="cls-5" points="110.94 118.44 105.93 143.46 123.44 140.96 125.95 127.45 136.96 123.44 100.93 97.42 96.42 103.43 110.94 118.44"/><polygon class="cls-6" points="136.96 123.44 114.44 112.94 110.94 118.44 140.46 149.96 136.96 123.44"/><polygon class="cls-3" points="173.48 145.46 172.98 153.97 147.96 201 141.46 195.5 138.96 171.48 142.46 164.47 173.48 145.46"/><polygon class="cls-7" points="126.45 224.02 149.96 214.01 152.47 203.5 146.96 194.5 140.46 149.96 104.93 165.97 126.45 224.02"/><polygon class="cls-8" points="130.45 383.64 197.5 399.65 261.05 380.63 196.5 365.62 130.45 383.64"/><polygon class="cls-9" points="210.01 363.62 204 348.61 198 364.62 198.5 373.63 210.01 363.62"/><line class="cls-10" x1="176.98" y1="360.62" x2="227.02" y2="391.14"/><polygon class="cls-9" points="186.99 391.14 227.02 391.14 215.01 377.63 198.5 373.63 186.99 391.14"/><polygon class="cls-9" points="176.98 360.62 167.98 373.13 198.5 373.63 190.49 362.62 176.98 360.62"/><polygon class="cls-9" points="182.49 352.61 176.98 360.62 198.5 373.63 204.5 353.61 190.99 347.61 182.49 352.61"/><polygon class="cls-9" points="220.52 372.13 227.02 391.14 233.03 375.63 225.52 364.12 220.52 372.13"/><polygon class="cls-9" points="206.51 362.12 198.5 373.63 227.02 391.14 225.52 364.12 215.01 360.12 206.51 362.12"/><polygon class="cls-11" points="143.96 283.56 182.49 352.61 193 353.11 194 349.11 169.98 290.56 148.96 281.06 143.96 283.56"/><polygon class="cls-12" points="169.98 290.56 168.48 294.07 192.5 352.61 204.5 353.61 207.01 345.61 198 302.57 169.98 290.56"/><polygon class="cls-11" points="214.51 362.62 206.51 362.12 192.5 300.07 226.02 294.57 218.01 359.12 214.51 362.62"/><polygon class="cls-13" points="177.98 252.54 166.48 289.06 168.48 294.07 194 305.58 197 299.57 185.99 251.04 181.49 250.04 177.98 252.54"/><polygon class="cls-12" points="226.02 294.57 222.52 298.57 214.51 362.62 225.52 364.12 256.54 290.56 248.54 287.06 226.02 294.57"/><polygon class="cls-14" points="155.47 251.54 143.96 283.56 168.48 294.07 181.49 250.04 180.49 245.53 159.47 247.53 155.47 251.54"/><polygon class="cls-5" points="188.49 156.97 181.99 216.51 187.99 217.51 238.53 157.97 241.53 147.46 231.53 145.96 202.5 157.97 193.5 145.46 188.49 156.97"/><polygon class="cls-15" points="185.49 184.49 213.01 189.49 185.49 212.51 185.49 184.49"/><polygon class="cls-16" points="190.99 168.48 195 170.48 196 176.48 189.49 178.98 186.49 173.48 190.99 168.48"/><polygon class="cls-16" points="200.5 172.98 196 176.48 199 181.99 205.51 182.49 209.51 177.98 206 173.48 200.5 172.98"/><polygon class="cls-16" points="213.51 173.98 209.51 177.98 212.51 181.49 219.01 178.48 219.01 173.48 213.51 173.98"/><polygon class="cls-3" points="155.47 251.54 181.49 250.04 178.99 220.01 185.49 212.51 179.99 205 152.47 191.99 146.96 194.5 155.47 251.54"/><polygon class="cls-14" points="256.54 290.56 194 305.58 180.49 245.53 194 245.03 202.5 259.54 250.54 272.55 256.54 290.56"/><polygon class="cls-3" points="196.5 244.53 194.5 249.03 201 259.54 206.51 260.04 210.01 244.03 196.5 244.53"/><polygon class="cls-3" points="279.56 257.04 270.05 258.04 233.03 240.03 231.02 234.03 273.05 171.98 280.56 167.98 279.56 257.04"/><line class="cls-10" x1="145.96" y1="194" x2="279.56" y2="257.04"/><polygon class="cls-14" points="172.48 168.48 188.49 156.97 193.5 145.46 173.48 145.46 146.96 194.5 185.49 212.51 183.99 196.5 172.48 168.48"/><polygon class="cls-14" points="241.53 147.46 238.53 157.97 242.03 183.49 198 202 185.49 212.51 196 213.01 208.51 229.02 233.03 240.03 280.56 167.98 241.53 147.46"/><polygon class="cls-17" points="241.53 147.46 246.53 185.99 196.5 208.01 196 213.01 185.49 212.51 241.53 147.46"/><path class="cls-17" d="M168,166.48c-1.5-1,17.51,46,17.51,46l8-67Z"/><polygon class="cls-6" points="174.48 217.51 185.49 212.51 188.99 220.01 186.99 243.53 181.49 250.04 174.48 217.51"/><polygon class="cls-6" points="196.5 208.01 185.49 212.51 188.99 220.01 202.5 226.02 210.01 224.02 196.5 208.01"/><polygon class="cls-5" points="181.49 250.04 185.49 212.51 210.01 224.02 213.01 231.02 210.01 244.03 203.5 248.54 181.49 250.04"/><polygon class="cls-4" points="194 126.45 188.99 129.95 199 164.47 215.01 153.97 228.02 135.95 194 126.45"/><polygon class="cls-6" points="241.53 69.4 249.54 72.91 254.04 94.42 255.54 111.94 241.53 147.46 199 164.47 219.01 138.45 198.5 132.95 201.5 124.94 223.52 112.94 241.53 69.4"/><polygon class="cls-4" points="247.54 98.42 253.54 93.92 259.05 104.43 255.54 111.94 247.54 98.42"/><polygon class="cls-1" points="244.53 75.91 247.54 98.42 267.05 83.91 257.04 75.41 244.53 75.91"/><polygon class="cls-1" points="162.97 43.38 157.47 50.39 164.97 78.41 172.98 70.41 186.49 30.88 180.49 32.38 162.97 43.38"/><polygon class="cls-18" points="247.03 11.36 232.02 0.35 233.03 12.86 257.04 72.41 267.05 83.91 303.58 78.41 294.57 63.4 247.03 11.36"/><polygon class="cls-2" points="275.06 6.36 232.02 0.35 303.58 78.41 275.06 6.36"/><polygon class="cls-5" points="253.54 79.41 247.54 98.42 259.05 104.43 267.05 83.91 257.04 75.41 253.54 79.41"/><polygon class="cls-4" points="256.54 85.42 253.54 94.42 262.05 87.42 256.54 85.42"/><polygon class="cls-5" points="158.47 97.92 170.98 124.94 198.5 132.95 227.02 118.44 244.53 75.91 245.53 70.9 218.01 61.4 185.49 35.88 179.49 35.38 158.47 97.92"/><polygon class="cls-6" points="180.99 30.88 179.49 35.38 217.01 65.9 214.01 56.9 186.49 25.87 180.99 30.88"/><polygon class="cls-6" points="176.98 61.4 184.49 59.4 194.5 68.4 195.5 76.41 194 84.42 184.99 91.42 184.99 72.41 176.98 61.4"/><polygon class="cls-6" points="201 77.91 196.5 84.92 198 95.92 211.51 80.41 229.02 77.91 223.52 70.9 206.51 72.91 201 77.91"/><polygon class="cls-1" points="185.49 57.4 194.5 64.9 194.5 68.4 184.49 60.4 176.98 61.4 185.49 57.4"/><polygon class="cls-1" points="209.51 69.4 206.51 72.91 223.02 72.91 229.02 77.91 224.02 70.41 209.51 69.4"/><path class="cls-19" d="M185,69.9a3,3,0,1,1-3,3A3,3,0,0,1,185,69.9Z"/><path class="cls-19" d="M211.51,78.91a3,3,0,1,1-3,3A3,3,0,0,1,211.51,78.91Z"/><polygon class="cls-4" points="189.99 98.42 184.99 91.42 191.5 91.42 198 95.92 189.99 98.42"/><polygon class="cls-20" points="195.5 76.41 201 77.91 198 95.92 184.99 91.42 195.5 76.41"/><polygon class="cls-6" points="168.98 97.92 174.48 98.93 177.48 94.92 168.98 97.92"/><polygon class="cls-6" points="206.51 104.43 205.51 110.44 210.51 112.94 206.51 104.43"/><polygon class="cls-6" points="219.52 84.42 228.02 89.42 226.52 84.92 219.52 84.42"/><polygon class="cls-6" points="174.48 70.41 178.99 72.41 170.98 72.91 174.48 70.41"/><polygon class="cls-7" points="185.99 111.44 178.49 101.93 186.99 106.93 200.5 109.43 185.99 111.44"/><path class="cls-21" d="M236.53,279.56l14-7,6,18ZM190,174.48l6,2,13.51,1.5,5.5.5-2.5,3-3-3.51-4,4.51L199,182l-3-5.51-6.51,2.5Z"/><polygon class="cls-7" points="201 259.54 210.01 224.02 279.56 257.04 236.53 279.56 201 259.54"/><polygon class="cls-2" points="214.51 50.89 217.01 65.9 267.05 83.91 232.02 0.35 223.52 10.86 214.51 50.89"/><polygon class="cls-18" points="188.99 26.37 185.99 31.38 217.01 65.9 232.02 0.35 224.02 2.86 188.99 26.37"/><polygon class="cls-22" points="157.47 50.39 232.02 0.35 171.98 9.36 157.47 50.39"/><polygon class="cls-14" points="178.49 101.93 184.49 103.43 188.99 102.93 192 105.93 200.5 109.43 186.99 107.93 178.49 101.93"/></g></svg>