<svg id="illustration_layer_copy" data-name="illustration_layer copy" xmlns="http://www.w3.org/2000/svg" viewBox="0 0 400 400"><defs><style>.cls-1,.cls-18{fill:#2b2b2b;}.cls-1,.cls-10,.cls-11,.cls-12,.cls-13,.cls-14,.cls-15,.cls-16,.cls-17,.cls-2,.cls-3,.cls-4,.cls-5,.cls-6,.cls-7,.cls-8,.cls-9{fill-rule:evenodd;}.cls-1{opacity:0.1;}.cls-2{fill:#755800;}.cls-3{fill:#b48a00;}.cls-19,.cls-4{fill:#c1907d;}.cls-5{fill:#f4c9b2;}.cls-6{fill:#cbac14;}.cls-7{fill:#fce3d4;}.cls-8{fill:#846400;}.cls-9{fill:#8c7c2f;}.cls-10{fill:#ab913c;}.cls-11{fill:#9d7700;}.cls-12{fill:#a09160;}.cls-13{fill:#fff7ae;}.cls-14{fill:#c1b274;}.cls-15{fill:#ffefe7;}.cls-16{fill:#e2d086;}.cls-17{fill:#fff;}</style></defs><title>explorers_ESFP_famous_real_marilyn_monroe</title><polygon class="cls-1" points="138.52 388.74 242.88 371.89 324.28 387.01 215.19 400 138.52 388.74"/><polygon class="cls-2" points="254.19 302.64 320.61 290.42 258.4 277.96 254.19 302.64"/><polygon class="cls-3" points="257.74 359.93 263.29 367.01 255.52 384.92 250.72 384.92 247.45 369.73 257.74 359.93"/><polygon class="cls-4" points="228.53 322.27 257.74 359.93 248.09 366.29 241.85 361.13 218.64 344.07 228.53 322.27"/><polygon class="cls-5" points="241.85 361.13 229.4 373.76 236.25 382.99 257.74 359.93 241.85 361.13"/><polygon class="cls-6" points="235.25 379.84 229.4 373.76 219.29 384.92 240.15 384.92 257.74 359.93 235.25 379.84"/><polygon class="cls-3" points="226.19 364.25 229.4 373.76 225.6 391.34 220.62 391.34 216.84 378.01 226.19 364.25"/><polygon class="cls-4" points="254.19 302.64 228.53 322.27 215.19 329.54 199.46 319.15 215.19 284.65 247.57 290.42 254.19 302.64"/><polygon class="cls-3" points="254.19 302.64 215.19 284.65 247.23 280.38 273.53 287.85 254.19 302.64"/><polygon class="cls-5" points="228.53 322.27 226.19 364.25 218.55 369.14 213.15 363.26 199.46 319.15 228.53 322.27"/><polygon class="cls-7" points="226.19 364.25 208.29 389.71 198.58 386.73 198.81 378.51 213.15 363.26 226.19 364.25"/><polygon class="cls-8" points="199.46 319.15 178.17 277.23 142.88 233.31 150.76 286.26 199.46 319.15"/><polygon class="cls-9" points="142.88 233.31 181.53 221.95 196.88 242.66 197.38 254.43 176.24 253.04 142.88 233.31"/><polygon class="cls-10" points="175.74 283.15 142.88 233.31 197.38 254.43 199.46 278.31 175.74 283.15"/><polygon class="cls-9" points="253.19 221.95 304.68 233.85 266.95 257.89 253.19 221.95"/><polygon class="cls-6" points="253.19 221.95 273.53 242.66 243.26 262.04 253.19 221.95"/><polygon class="cls-9" points="211.58 244.04 213.48 271.04 225.94 265.85 234.01 233.31 211.58 244.04"/><polygon class="cls-9" points="158.85 157.05 160.78 208.71 232.97 215.94 244.65 178.52 241.34 158.82 229.18 153.32 158.85 157.05"/><polygon class="cls-5" points="179.12 219.09 198.42 276.23 213.48 271.04 211.58 244.04 179.12 219.09"/><polygon class="cls-8" points="160.78 208.71 211.58 244.04 231.31 240.58 232.97 215.94 197.38 206.03 160.78 208.71"/><polygon class="cls-7" points="232.97 215.94 244.65 215.58 253.19 221.95 243.26 262.04 225.94 265.85 232.97 215.94"/><polygon class="cls-5" points="232.97 215.94 253.19 221.95 266.95 168.83 241.34 158.82 232.97 215.94"/><polygon class="cls-8" points="187.78 283.15 226.81 259.14 305.33 239.99 331.33 256.15 320.61 290.42 187.78 283.15"/><polygon class="cls-11" points="187.78 283.15 226.81 259.14 316.8 219.66 331.33 256.15 187.78 283.15"/><polygon class="cls-10" points="232.97 215.94 229.18 153.32 204.31 183.71 197.38 206.11 232.97 215.94"/><polygon class="cls-10" points="169.13 157.05 160.78 208.71 197.38 206.11 187.78 186.13 169.13 157.05"/><polygon class="cls-6" points="226.81 259.14 199.46 319.15 175.74 283.15 226.81 259.14"/><polygon class="cls-6" points="206.26 385.56 198.81 378.51 185.93 391.34 212.36 391.34 226.19 364.25 206.26 385.56"/><polygon class="cls-12" points="238.7 117.82 227.32 123.86 230.9 142.31 253.14 150.89 268.81 141.49 257.45 123.92 238.7 117.82"/><polygon class="cls-13" points="118.72 86.08 101.18 104.18 123.18 102.61 118.72 86.08"/><polygon class="cls-14" points="101.18 104.18 112.73 119.45 124.63 114.75 122.01 100.25 101.18 104.18"/><polygon class="cls-13" points="122.09 108.95 98.83 130.03 126.43 128.27 122.09 108.95"/><polygon class="cls-12" points="98.83 130.03 140.19 157.05 126.43 125.92 98.83 130.03"/><polygon class="cls-7" points="112.73 45.43 124.65 126.29 140.19 157.05 169.13 157.05 196.3 164.69 229.82 129.03 241.98 98.89 213.58 38.9 163.25 32.51 112.73 45.43"/><polygon class="cls-5" points="213.58 38.9 199.22 130.99 176.91 160.62 169.13 157.05 197.38 206.11 229.18 153.32 231.03 142.34 230.9 134.35 233.27 129.05 241.98 98.89 213.58 38.9"/><polygon class="cls-5" points="189.4 82.91 159.85 111.11 125.07 82.47 133 75.86 146.35 78.21 149.35 82.21 154.72 86.08 160.32 82.21 163.32 78.21 180.59 75.93 189.4 82.91"/><polygon class="cls-15" points="160.32 82.21 156.58 97.67 159.85 111.11 149.13 111.11 152.39 97.48 149.35 82.21 160.32 82.21"/><polygon class="cls-4" points="159.85 111.11 154.83 116.2 149.13 111.11 159.85 111.11"/><polygon class="cls-4" points="169.13 157.05 218.48 155.89 183.43 181.88 169.13 157.05"/><polygon class="cls-4" points="219.82 105.4 225.86 118.64 221.11 118.44 230.9 142.31 233.27 129.05 241.98 109.27 219.82 105.4"/><polygon class="cls-4" points="179.7 44.26 145.63 51.6 125.07 72.02 136.52 36.91 179.7 44.26"/><polygon class="cls-16" points="196.74 43.87 192.48 22.74 183.43 6.66 143.48 0 109.01 32.51 149.35 28.62 179.7 44.26 196.74 43.87"/><polygon class="cls-12" points="179.7 44.26 152.88 23.89 137.7 44.26 179.7 44.26"/><polygon class="cls-13" points="152.88 23.89 125.07 72.02 114.49 67.17 109.01 56.01 109.01 32.51 152.88 23.89"/><polygon class="cls-16" points="125.07 72.02 109.01 56.01 93.73 71.28 118.72 86.08 125.07 72.02"/><polygon class="cls-13" points="196.74 43.87 206.9 25.46 210.25 11.36 183.43 6.66 196.74 43.87"/><polygon class="cls-16" points="196.74 43.87 210.25 11.36 232.28 36.91 226.12 44.26 212.78 44.26 196.74 43.87"/><polygon class="cls-14" points="212.78 44.26 221.87 88.91 247.27 107.31 261.07 70.71 232.28 36.91 212.78 44.26"/><polygon class="cls-12" points="146.35 78.21 134.23 72.37 125.07 82.47 134.17 77.03 146.35 78.21"/><polygon class="cls-12" points="163.32 78.21 181.27 72.37 189.4 82.91 179.41 77.03 163.32 78.21"/><polygon class="cls-4" points="137.47 125.05 144.3 125.05 155.59 122.59 168 124.6 175.21 125.05 155.8 130.86 137.47 125.05"/><polygon class="cls-4" points="175.21 125.05 163.03 139.21 147.93 139 137.47 125.05 155.18 128.59 175.21 125.05"/><polygon class="cls-17" points="141.43 125.84 149.96 134.49 161.59 134.49 170.73 125.84 155.8 128.6 141.43 125.84"/><ellipse class="cls-18" cx="174.42" cy="92.45" rx="5.29" ry="5.43"/><ellipse class="cls-18" cx="137.96" cy="92.45" rx="5.29" ry="5.43"/><circle class="cls-19" cx="179.6" cy="112.5" r="2.25"/><polygon class="cls-12" points="261.07 70.71 271.94 83.62 265.67 112.8 246.09 102.61 261.07 70.71"/><polygon class="cls-8" points="225.76 109.92 221.11 118.44 233.27 129.05 238.52 119.33 225.76 109.92"/><polygon class="cls-16" points="221.87 88.91 219.82 105.4 268.81 141.49 270.18 124.46 265.67 112.8 221.87 88.91"/><polygon class="cls-14" points="268.81 141.49 286.43 119.45 265.67 112.8 268.81 141.49"/></svg>