<svg id="Layer_1" data-name="Layer 1" xmlns="http://www.w3.org/2000/svg" viewBox="0 0 400 400"><defs><style>.cls-1{fill:#755445;}.cls-2{fill:#916d5a;}.cls-3{fill:#ebebea;}.cls-4{fill:#c3c3c3;}.cls-5{fill:#b48a00;}.cls-6{fill:#9d7700;}.cls-7,.cls-8{fill:#2b2b2b;}.cls-7{fill-opacity:0.1;}.cls-9{fill:#474747;}.cls-10{fill:#755800;}.cls-11{fill:#846400;}.cls-12{fill:#bb8e2d;}.cls-13{fill:#e1a842;}.cls-14{fill:#f1bc68;}.cls-15{fill:#51362a;}.cls-16{fill:#4f5253;}.cls-17{fill:#98796a;}.cls-18{fill:#fff;}.cls-19{fill:none;}</style></defs><title>explorers_ESTP_famous_real_eddie_murphy</title><g id="Layer_1-2" data-name="Layer_1"><g id="_867868720" data-name=" 867868720"><polygon class="cls-1" points="117.07 208.06 117.07 202.37 113.28 179.63 106.65 179.63 104.75 190.05 73.47 185.31 72.53 192.89 90.53 198.58 107.59 221.32 117.07 208.06"/><polygon class="cls-2" points="90.53 217.53 90.53 198.58 106.65 200.47 107.59 221.32 90.53 217.53"/><polygon class="cls-3" points="127.5 214.69 122.76 205.21 117.07 202.37 112.33 210.9 116.12 215.64 125.6 217.53 127.5 214.69"/><polygon class="cls-4" points="112.33 210.9 107.59 221.32 116.12 227.01 125.6 217.53 112.33 210.9"/><polygon class="cls-5" points="143.61 210.9 131.29 207.11 122.76 205.21 116.12 227.01 137.92 240.28 143.61 210.9"/><path class="cls-6" d="M162.57,180.57S148.35,172,148.35,173s-17.06,35.07-17.06,35.07l6.63,33.17,19.9-17.06Z"/><polygon class="cls-1" points="282.93 215.64 286.72 202.37 286.72 181.52 293.35 180.57 295.25 191 325.58 184.36 327.47 190.05 307.57 198.58 296.19 224.17 282.93 215.64"/><polygon class="cls-3" points="274.4 224.17 274.4 223.22 277.24 208.06 286.72 202.37 291.46 214.69 285.77 223.22 276.29 226.06 274.4 224.17"/><polygon class="cls-4" points="291.46 214.69 296.19 224.17 287.67 231.75 276.29 226.06 291.46 214.69"/><polygon class="cls-5" points="258.29 224.17 267.76 214.69 277.24 208.06 287.67 231.75 263.97 251.65 258.29 224.17"/><polygon class="cls-6" points="244.07 170.15 249.76 165.41 267.76 214.69 263.97 251.65 242.18 229.85 244.07 170.15"/><polygon class="cls-7" points="105.7 378.65 204.27 398.56 288.61 381.5 201.42 372.02 105.7 378.65"/><polygon class="cls-8" points="151.19 374.86 136.97 379.6 136.97 384.34 192.89 385.29 191.94 379.6 185.31 372.02 151.19 374.86"/><polygon class="cls-8" points="209.95 377.7 205.21 385.29 205.21 390.02 245.97 390.02 245.97 386.23 209.95 377.7"/><path class="cls-9" d="M178.67,350.22l-13.26,5.68L137,380.54h55v-16.1l-13.27-13.27Z"/><polygon class="cls-9" points="220.38 343.59 231.75 359.69 245.97 386.23 205.21 385.29 207.11 364.44 220.38 343.59"/><polygon class="cls-10" points="204.27 304.73 202.37 329.37 207.11 364.44 231.75 359.69 236.49 321.79 204.27 304.73"/><polygon class="cls-10" points="173.94 302.83 161.62 318.94 165.41 355.9 191.94 364.44 195.73 330.32 173.94 302.83"/><polygon class="cls-11" points="157.82 275.34 161.62 318.94 195.73 330.32 197.63 299.99 196.68 261.13 167.3 267.76 156.88 269.66 157.82 275.34"/><polygon class="cls-11" points="221.32 262.08 191 266.82 197.63 299.04 202.37 329.37 236.49 321.79 245.02 260.18 221.32 262.08"/><path class="cls-6" d="M175.83,245,191,266.82l23.69,18L245,260.18l-1.9-30.33s-52.12-4.73-53.07-4.73S175.83,245,175.83,245Z"/><polygon class="cls-5" points="164.46 219.43 157.82 224.17 157.82 242.18 161.62 247.86 157.82 249.76 156.88 269.66 173.94 281.98 191 266.82 188.15 235.54 164.46 219.43"/><polygon class="cls-5" points="206.16 209 188.15 235.54 242.18 229.85 249.76 165.41 233.64 156.88 206.16 209"/><polygon class="cls-12" points="162.56 178.68 161.62 163.51 148.35 172.04 157.82 224.17 188.15 235.54 187.21 179.63 162.56 180.57 162.56 178.68"/><path class="cls-4" d="M227,174.88s-18.95,37.91-21.8,37.91c-1.89,0-32.22-.94-32.22-.94L163.51,172l37-10.42,25.59,14.21Z"/><polygon class="cls-9" points="189.1 175.83 184.36 183.42 177.73 207.11 176.78 213.74 188.15 235.54 203.32 212.79 201.42 208.06 195.73 183.42 189.1 175.83"/><polygon class="cls-13" points="214.69 191.94 201.42 208.06 188.15 235.54 229.85 206.16 224.17 189.1 214.69 191.94"/><polygon class="cls-13" points="168.25 194.79 177.73 208.06 188.15 235.54 159.72 204.27 165.41 188.15 168.25 194.79"/><polygon class="cls-14" points="213.74 170.15 214.69 180.57 201.42 208.06 237.44 187.21 233.64 156.88 213.74 170.15"/><polygon class="cls-14" points="171.09 172.04 167.3 179.63 177.73 208.06 154.98 185.31 161.62 163.51 171.09 172.04"/><polygon class="cls-8" points="176.78 167.3 184.36 183.42 195.73 183.42 206.16 168.25 192.89 155.93 176.78 167.3"/><polygon class="cls-1" points="206.16 149.3 222.27 159.72 227.01 146.45 233.64 115.18 233.64 49.78 194.79 33.67 194.79 152.14 206.16 149.3"/><polygon class="cls-15" points="169.2 140.76 173.94 154.98 174.88 163.51 185.31 164.46 194.79 164.46 210.9 160.67 221.32 136.97 212.79 140.76 181.52 135.08 169.2 140.76"/><polygon class="cls-15" points="226.06 94.32 221.32 100.02 233.64 115.18 235.54 103.81 226.06 94.32"/><polygon class="cls-8" points="221.32 43.15 221.32 55.47 220.38 79.16 233.64 81.06 241.23 76.32 246.91 44.1 221.32 43.15"/><polygon class="cls-9" points="192.89 12.82 221.32 1.45 246.91 44.1 221.32 55.47 214.69 45.99 194.79 33.67 192.89 12.82"/><polygon class="cls-16" points="151.19 37.46 141.72 22.3 156.88 1.45 221.32 1.45 200.47 23.25 151.19 37.46"/><polygon class="cls-2" points="141.72 22.3 133.18 35.56 131.29 101.91 150.24 142.66 212.79 140.76 214.69 45.99 200.47 23.25 141.72 22.3"/><path class="cls-1" d="M144.56,53.57,155,60.21l4.74,8.53,4.74,3.79,3.79-3.79,6.63-8.53,19.91-7.59,8.53,6.64L191,71.58,175.83,94.32l-11.37-1.89c-1,0-8.53,1.89-8.53,1.89l-9.48-20.85L137,58.31l6.64-3.79,2.84.95Z"/><polygon class="cls-8" points="166.36 95.27 164.46 98.11 167.3 102.86 192.89 107.6 189.1 100.02 168.25 94.32 166.36 95.27"/><polygon class="cls-8" points="160.67 94.32 144.56 101.91 143.61 106.65 162.56 102.86 164.46 98.11 160.67 94.32"/><polygon class="cls-15" points="160.67 85.8 154.03 92.43 164.46 98.11 173.94 92.43 160.67 85.8"/><polygon class="cls-8" points="136.03 56.41 143.61 51.68 156.88 55.47 154.98 60.21 143.61 54.52 136.97 58.31 136.03 56.41"/><polygon class="cls-8" points="172.99 55.47 193.84 49.78 203.32 55.47 202.37 58.31 193.84 54.52 173.94 59.26 172.99 55.47"/><polygon class="cls-17" points="159.72 67.79 168.25 67.79 173.94 92.43 154.03 92.43 159.72 67.79"/><polygon class="cls-15" points="148.35 108.54 188.15 107.6 178.68 123.71 156.88 123.71 148.35 108.54"/><polygon class="cls-2" points="225.12 72.53 241.23 76.32 235.54 103.81 221.32 100.02 225.12 72.53"/><polygon class="cls-15" points="228.91 89.59 229.85 80.11 235.54 82 228.91 89.59"/><polygon class="cls-3" points="227.01 97.17 226.06 103.81 230.8 105.7 231.75 98.11 227.01 97.17"/><polygon class="cls-3" points="227.01 146.45 194.79 164.46 214.69 180.57 233.64 156.88 227.01 146.45"/><polygon class="cls-3" points="161.62 163.51 173.94 154.98 185.31 164.46 167.3 179.63 161.62 163.51"/><polygon class="cls-12" points="157.82 242.18 174.88 244.07 173.94 251.65 157.82 249.76 157.82 242.18"/><polygon class="cls-12" points="207.11 244.07 232.7 240.28 233.64 248.81 209 252.6 207.11 244.07"/><path class="cls-2" d="M292.4,203.32l3.79,20.85s16.12-4.74,16.12-5.69-3.79-19.9-3.79-19.9l-15.17,4.74Z"/><polygon class="cls-18" points="152.14 110.44 183.41 110.44 176.78 121.81 157.82 120.86 152.14 110.44"/><circle class="cls-8" cx="150.24" cy="70.63" r="3.79"/><path class="cls-8" d="M189.1,65.89a3.79,3.79,0,1,1-3.79,3.79A3.79,3.79,0,0,1,189.1,65.89Z"/><polygon class="cls-10" points="197.63 299.04 173.94 281.98 191 266.82 214.69 285.77 197.63 299.04"/></g><rect class="cls-19" x="0.5" y="0.5" width="399" height="399"/></g></svg>