<svg id="Layer_1" data-name="Layer 1" xmlns="http://www.w3.org/2000/svg" viewBox="0 0 400 400"><defs><style>.cls-1{fill:#c1907d;}.cls-2{fill:#fce3d4;}.cls-3{fill:#f4c9b2;}.cls-28,.cls-4{fill:#2b2b2b;}.cls-4{opacity:0.1;}.cls-5{fill:#393b3c;}.cls-6{fill:#4e5152;}.cls-7{fill:#474747;}.cls-8{fill:#95637c;}.cls-9{fill:#734d60;}.cls-10{fill:#b2879c;}.cls-11{fill:#dcdcdb;}.cls-12{fill:#594165;}.cls-13{fill:#543042;}.cls-14{fill:#9da1a2;}.cls-15{fill:#737373;}.cls-16{fill:#c3c3c3;}.cls-17{fill:#848585;}.cls-18{fill:#785d87;}.cls-19{fill:#8f759f;}.cls-20{fill:#a3a3a3;}.cls-21{fill:#cececd;}.cls-22{fill:#8e8e8e;}.cls-23{fill:#a587b9;}.cls-24{fill:#c0b274;}.cls-25{fill:#d3c381;}.cls-26{fill:#a29065;}.cls-27{fill:#6f7173;}.cls-29{fill:#ffefe7;}</style></defs><title>analysts_INTJ_famous_real_christopher_nolan</title><polygon class="cls-1" points="77.14 140.25 81.46 151.26 89.53 158.1 97.8 151.26 97.01 142.62 77.14 140.25"/><polygon class="cls-2" points="104 159.9 83.19 157.52 81.46 151.26 106.08 141.61 110.19 149.68 104 159.9"/><polygon class="cls-3" points="106.16 137.72 61.95 132.83 65.98 140.53 95.64 145.5 104 159.9 107.23 147.44 106.16 137.72"/><polygon class="cls-4" points="86.57 374.37 209.11 362.78 337.47 378.26 182.47 400 86.57 374.37"/><polygon class="cls-5" points="243.23 375.52 239.27 379.34 239.27 382.5 275.77 382.79 275.92 379.34 243.23 375.52"/><polygon class="cls-5" points="194.42 371.42 186.79 373.72 185.28 376.89 229.63 376.67 229.7 373.43 217.82 366.95 194.42 371.42"/><polygon class="cls-6" points="229.55 361.7 229.7 373.43 213.28 373.58 186.79 373.72 203.06 356.37 220.77 351.33 229.55 361.7"/><polygon class="cls-7" points="249.42 360.04 239.27 379.34 275.99 379.34 274.69 362.06 264.76 351.33 249.42 360.04"/><path class="cls-8" d="M239.63,309.14l-3.52,18.58-10.66,8.49-5.33-8.56-13.24-6.84-4.47,3.6-2.09-28.3s29.09-14.18,29.23-15.26,17.5,4.68,17.5,4.68Z"/><polygon class="cls-9" points="236.1 327.72 229.55 361.7 204.72 353.92 202.41 324.41 206.88 320.81 218.97 324.05 236.1 327.72"/><polygon class="cls-10" points="237.33 296.11 243.31 327.72 252.45 333.33 275.41 327.79 261.09 278.11 237.33 296.11"/><polygon class="cls-8" points="243.31 327.72 249.42 360.04 274.69 362.06 278.44 339.09 259.36 327.72 243.31 327.72"/><polygon class="cls-9" points="206.8 280.85 237.33 296.11 275.92 280.85 266.92 256.52 240.21 255.15 217.39 259.39 206.8 280.85"/><polygon class="cls-11" points="219.62 264.58 263.03 262.06 267.57 196.33 247.05 163.07 220.48 159.9 215.88 169.83 219.62 264.58"/><polygon class="cls-7" points="219.33 263.93 219.47 266.88 259.65 264.51 255.04 255.15 223.72 256.52 219.33 263.93"/><polygon class="cls-7" points="229.55 241.04 237.54 248.16 245.18 241.04 238.91 236.36 229.55 241.04"/><polygon class="cls-6" points="233.15 169.11 232.15 188.99 221.99 225.13 229.55 241.04 245.18 241.04 245.18 225.13 243.09 170.27 233.15 169.11"/><polygon class="cls-12" points="223.87 163.64 223.87 188.91 220.91 204.53 223.72 256.52 223.87 344.85 183.12 344.85 185.28 274.37 183.69 187.19 198.16 156.01 206.8 144.42 223.51 155.51 223.87 163.64"/><polygon class="cls-13" points="206.59 376.75 212.2 382.22 214.51 381.57 213.28 373.58 209.54 373.58 206.59 376.75"/><polygon class="cls-9" points="210.55 374.8 212.2 382.22 214.51 381.57 213.28 373.58 210.55 374.8"/><polygon class="cls-14" points="184.56 271.71 177.43 269.62 175.2 273.15 206.59 376.75 213.28 373.58 184.56 271.71"/><polygon class="cls-15" points="177.21 279.7 183.69 281.06 183.69 274.51 181.17 269.62 175.2 273.15 177.21 279.7"/><path class="cls-16" d="M213.28,373.58,184.56,271.71l-2.45-.72a15.42,15.42,0,0,0-.94,1.29L210.55,374.8Z"/><polygon class="cls-17" points="183.69 281.06 186.43 278.9 184.56 271.78 181.46 270.27 181.17 272.71 183.69 281.06"/><polygon class="cls-13" points="125.95 375.16 120.41 380.85 118.11 380.13 119.33 372.21 123 372.21 125.95 375.16"/><polygon class="cls-9" points="121.99 373.36 120.41 380.85 118.11 380.13 119.33 372.21 121.99 373.36"/><polygon class="cls-14" points="147.12 274.59 154.25 272.5 156.41 275.95 125.95 375.16 119.33 372.21 147.12 274.59"/><polygon class="cls-15" points="154.39 282.58 147.98 283.87 147.98 277.39 150.5 272.5 156.41 276.02 154.39 282.58"/><path class="cls-16" d="M119.33,372.21l27.79-97.62,2.38-.72c.57.72,1,1.29,1,1.29L122,373.36Z"/><polygon class="cls-17" points="147.98 283.87 145.18 281.79 147.05 274.59 150.14 273.15 150.5 275.59 147.98 283.87"/><polygon class="cls-13" points="188.16 384.45 185.78 396.18 181.03 397.77 173.4 387.55 180.16 380.27 188.16 384.45"/><polygon class="cls-17" points="173.4 387.55 171.09 385.67 156.05 278.11 160.8 274.87 168.43 292.01 177.14 369.55 173.4 387.55"/><polygon class="cls-15" points="160.15 287.11 157.27 286.68 155.98 278.69 158.06 276.17 160.73 278.19 160.15 287.11"/><polygon class="cls-14" points="159 278.04 173.4 387.55 188.16 384.45 174.12 273.72 166.85 271.42 159 278.04"/><polygon class="cls-17" points="158.85 277.18 166.13 270.7 174.19 272.86 175.2 282.14 160.15 287.11 158.85 277.18"/><path class="cls-18" d="M204.36,160.55l-6.2,19.36s-15.91.36-15.91-.93.58-9.72.58-9.87Z"/><polygon class="cls-19" points="192.98 145.43 106.16 137.72 103.28 166.67 160.15 175.67 177.5 170.91 195.5 154.28 192.98 145.43"/><polygon class="cls-18" points="195.5 154.28 192.98 145.43 143.66 141.04 154.39 174.59 158.21 175.38 160.15 175.67 177.5 170.91 195.5 154.28"/><polygon class="cls-16" points="155.98 278.69 138.7 275.59 138.7 262.06 160.22 260.98 164.25 271.06 155.98 278.69"/><polygon class="cls-20" points="155.98 266.88 155.98 278.69 195.64 272.79 195.64 258.46 187.8 255.15 155.98 266.88"/><path class="cls-20" d="M127.11,241V227.29l11.59-7.49,16.56,7.49s4.75,11,5,12.16-5.68,8.71-5.68,8.71Z"/><polygon class="cls-21" points="121.42 255.15 127.11 241.04 155.98 241.04 145.9 255.15 128.62 262.06 121.42 255.15"/><polygon class="cls-16" points="130.42 266.88 121.42 265.44 121.42 255.15 130.42 256.52 135.75 260.4 130.42 266.88"/><polygon class="cls-20" points="155.98 266.88 130.42 266.88 130.42 256.52 155.98 241.04 164.25 249.6 155.98 266.88"/><polygon class="cls-22" points="229.55 241.04 223.72 256.52 155.98 266.88 155.98 241.04 176.57 229.44 229.55 241.04"/><polygon class="cls-21" points="167.21 169.11 127.11 186.1 129.63 199.5 151.37 199.5 167.57 186.1 167.21 169.11"/><path class="cls-8" d="M118.32,223.69l-4.25,15.76s-17.42-3.74-17.42-4.24-.57-3.25,0-3.68,8.28-5.9,8.28-5.9Z"/><polygon class="cls-9" points="98.38 235.21 114.44 225.63 117.46 192.44 103.42 190.14 98.38 192.44 96.65 196.83 98.38 235.21"/><polygon class="cls-13" points="98.38 192.44 123.79 198.42 116.23 182.72 98.38 192.44"/><path class="cls-10" d="M118,177.75,95.21,191v46.94l20.3,3.1,8.28-34.92Zm-5.9,59.76h0l-13.75-2.3V192.44l15.19-7Z"/><polygon class="cls-9" points="132.87 227.28 115.52 241.04 118.03 177.75 133.87 192.44 138.63 205.83 132.87 227.28"/><polygon class="cls-13" points="142.8 227.28 132.87 227.28 133.87 192.44 142.8 192.44 148.56 199.21 142.8 227.28"/><polygon class="cls-16" points="155.98 185.46 142.8 192.44 142.8 227.28 155.98 241.04 164.25 225.49 155.98 185.46"/><polygon class="cls-20" points="232.15 188.99 229.55 241.04 155.98 241.04 155.98 185.46 194.28 181.21 232.15 188.99"/><polygon class="cls-16" points="167.21 169.11 155.98 185.46 232.15 188.99 223.87 179.91 167.57 169.83 167.21 169.11"/><polygon class="cls-9" points="224.66 140.82 216.74 135.71 206.8 144.42 223.87 163.64 240.35 160.04 224.66 140.82"/><polygon class="cls-12" points="255.04 224.41 255.04 344.85 302.77 344.85 304.5 233.62 302.77 204.25 281.17 188.91 248.13 204.18 255.04 224.41"/><polygon class="cls-18" points="284.92 237.51 275.92 241.04 286.93 279.77 296.22 278.62 293.56 269.62 293.56 249.82 284.92 237.51"/><polygon class="cls-19" points="338.05 222.32 304.14 258.39 293.56 252.12 284.92 237.51 300.25 219.44 316.52 212.38 338.05 222.32"/><polygon class="cls-3" points="284.92 237.51 304.14 258.39 293.56 269.62 284.92 237.51"/><polygon class="cls-23" points="286.5 199.35 300.25 219.44 338.05 222.32 304.5 155.51 290.75 167.67 286.5 199.35"/><polygon class="cls-18" points="264.54 198.06 286.5 199.35 304.5 155.51 284.92 144.42 267.57 147.37 252.45 163.64 264.54 198.06"/><polygon class="cls-10" points="254.25 217.13 267.57 215.33 259.14 167.67 248.49 167.67 254.25 217.13"/><polygon class="cls-8" points="239.13 172.5 240.43 225.49 255.04 224.41 250.58 170.63 245.54 167.67 239.13 172.5"/><path class="cls-8" d="M284.92,144.42l-10.08,22.25s-4.54-5-5-5.83-2.88-11.16-2.88-11.16l7.92-5.26Z"/><polygon class="cls-9" points="238.91 172.5 274.84 166.67 274.84 153.13 249.21 159.47 238.91 172.5"/><path class="cls-24" d="M164.76,26.57l16.13,40.6s6.91-20.59,6.91-21.67-3.46-13.17-3.46-13.17Z"/><polygon class="cls-25" points="213.21 30.02 196.44 42.55 179.23 40.46 164.76 26.57 174.26 19.51 196.72 24.26 179.81 15.41 194.71 4.18 211.41 16.34 213.21 30.02"/><polygon class="cls-26" points="201.12 40.75 164.76 26.57 179.23 40.46 201.12 40.75"/><polygon class="cls-25" points="237.33 10.65 232.22 0 194.71 4.18 212.49 15.55 229.55 22.89 237.33 10.65"/><polygon class="cls-24" points="213.21 30.02 194.71 4.18 230.27 16.34 228.04 27.57 213.21 30.02"/><polygon class="cls-26" points="179.81 15.41 174.26 19.51 198.09 34.7 214.22 42.19 210.98 30.74 199.6 14.26 179.81 15.41"/><polygon class="cls-24" points="213.21 30.02 237.33 10.65 260.3 5.4 270.88 10.8 264.33 14.76 282.47 18.14 272.97 33.69 261.73 34.56 251.22 38.01 213.21 30.02"/><polygon class="cls-25" points="234.66 19.51 270.88 10.8 282.47 18.14 245.18 26.57 234.66 19.51"/><polygon class="cls-25" points="261.73 34.56 282.47 18.14 291.97 54.43 278.22 53.49 261.73 34.56"/><polygon class="cls-3" points="218.68 135.13 233.66 169.04 253.24 158.46 266.85 150.54 280.24 129.73 290.1 67.6 287.44 56.16 261.73 34.56 218.68 135.13"/><polygon class="cls-10" points="257.85 153.13 261.59 142.62 280.24 129.73 284.92 144.42 274.84 153.13 257.85 153.13"/><polygon class="cls-1" points="223.79 121.81 217.1 136.5 233.66 169.04 257.56 137.15 233.51 136.79 223.79 121.81"/><polygon class="cls-24" points="269.15 50.47 269.08 74.51 273.18 74.66 276.13 66.59 290.1 67.6 287.44 64.65 269.15 50.47"/><polygon class="cls-24" points="269.15 50.47 261.73 34.56 291.97 54.43 283.26 65.01 269.15 50.47"/><polygon class="cls-26" points="290.1 67.6 291.97 54.43 269.15 50.47 290.1 67.6"/><polygon class="cls-2" points="179.23 40.46 182.04 114.33 203.64 136.28 233.51 136.79 257.42 112.81 261.73 34.56 230.27 16.34 213.21 30.02 179.23 40.46"/><polygon class="cls-8" points="223.87 163.64 261.59 142.62 274.84 153.13 238.91 172.5 223.87 163.64"/><polygon class="cls-1" points="286.36 91.58 274.33 91.58 284.85 100.79 286.36 91.58"/><polygon class="cls-1" points="285.13 73.58 277.79 72.86 278.01 84.09 285.13 73.58"/><polygon class="cls-20" points="204.35 160.55 177.5 179.91 168.86 177.54 167.21 169.11 192.98 145.43 201.76 148.74 204.57 153.35 204.35 160.55"/><polygon class="cls-16" points="182.47 165.66 201.76 148.74 196.87 144.78 192.98 145.43 173.83 163.07 173.83 169.83 182.47 165.66"/><polygon class="cls-22" points="182.47 165.44 173.83 163.07 167.21 169.11 168.86 177.54 177.5 179.91 183.41 175.67 182.47 165.44"/><polygon class="cls-22" points="204.35 160.55 210.47 160.55 206.8 144.42 201.76 148.74 204.35 160.55"/><polygon class="cls-20" points="206.8 144.42 201.76 148.74 192.98 145.43 193.92 138.88 206.8 144.42"/><polygon class="cls-27" points="231.93 256.15 231.93 266.16 247.84 265.23 247.84 255.51 231.93 256.15"/><polygon class="cls-1" points="213.5 90.42 207.74 91.43 215.88 99.42 225.02 91.29 213.5 90.42"/><path class="cls-3" d="M244.6,61.91c.22-.71,6.34,3.17,6.34,3.17l-15.12,10.3L225,91.29l-9-4.1-8.28,4.24-8.42-16.34L186.43,64.87l14.4-3,8.71,5.4L214,69.69l2.09,2.52,4.39-2.45,3.39-3.17,10.8-4.68Z"/><circle class="cls-28" cx="202.05" cy="72.43" r="3.89"/><circle class="cls-28" cx="233.66" cy="72.21" r="3.89"/><polygon class="cls-29" points="214 69.69 212.71 83.08 207.74 91.43 215.66 94.31 225.02 91.29 220.77 82.86 220.48 69.76 214 69.69"/><polygon class="cls-26" points="210.26 64.87 199.96 59.11 185.71 63.43 186.43 64.87 199.6 63.93 209.54 67.24 210.26 64.87"/><polygon class="cls-26" points="223.36 64.15 234.88 58.6 251.73 62.99 250.94 65.08 235.24 63.28 223.87 66.59 223.36 64.15"/><polygon class="cls-3" points="184.49 73.07 193.27 72.79 189.67 76.17 184.49 73.07"/><polygon class="cls-3" points="248.13 72.21 257.7 72.35 252.52 75.52 248.13 72.21"/><polygon class="cls-3" points="206.88 92.22 196.8 102.45 200.4 92.58 206.88 92.22"/><polygon class="cls-3" points="226.03 92.15 241 103.96 233.01 91.86 226.03 92.15"/><polygon class="cls-1" points="202.63 106.12 233.73 106.48 229.27 109.43 205.87 108.71 202.63 106.12"/><polygon class="cls-3" points="190.82 101.08 193.48 110.66 197.08 119.15 188.95 110.87 190.82 101.08"/><polygon class="cls-3" points="248.56 102.38 245.32 109.65 240.28 119.44 249.28 111.59 248.56 102.38"/></svg>