<svg id="Layer_1" data-name="Layer 1" xmlns="http://www.w3.org/2000/svg" viewBox="0 0 400 400"><defs><style>.cls-1,.cls-3{fill:#2b2b2b;}.cls-1{fill-opacity:0.1;}.cls-2{fill:#165e60;}.cls-4{fill:#3f8f6f;}.cls-5{fill:#916a59;}.cls-6{fill:#66483a;}.cls-7{fill:#5a753d;}.cls-8{fill:#709d53;}.cls-9{fill:#99c26d;}.cls-10{fill:#446125;}.cls-11{fill:#b18d79;}.cls-12{fill:#a0cf7e;}.cls-13{fill:#54b08b;}.cls-14{fill:#738d57;}.cls-15{fill:#bfdb8e;}.cls-16{fill:#372614;}.cls-17{fill:#3e3229;}.cls-18{fill:#554537;}.cls-19{fill:#2d1f10;}.cls-20{fill:#6f6054;}.cls-21{fill:#ba9e8e;}.cls-22{fill:#fff;}.cls-23{fill:#72c9a6;}.cls-24{fill:#35785d;}.cls-25{fill:#e8f078;}.cls-26{fill:#cececd;}</style></defs><title>diplomats_ENFJ_famous_real_oprah_winfrey</title><g id="_522093088" data-name=" 522093088"><polygon class="cls-1" points="124.88 380.55 209.58 372.3 300.64 382.82 204.38 399.5 124.88 380.55"/><polygon class="cls-2" points="212.19 380.41 205.21 385.63 205.17 389.3 226.5 389.33 230.5 376.7 225.16 372.24 212.19 380.41"/><polygon class="cls-3" points="168.79 327.07 165.58 339.95 214.78 359.95 228.68 345.24 230.88 309.84 174.25 310.24 168.79 327.07"/><polygon class="cls-4" points="216.73 354.74 205.21 385.63 225.03 385.6 230.62 370.93 216.73 354.74"/><polygon class="cls-2" points="194.5 367.31 195.36 385.81 200.87 385.63 205.64 366.78 194.5 367.31"/><polygon class="cls-2" points="170.53 378.17 158.79 383.09 158.93 386.52 183.04 387.39 205.64 366.78 206.74 361.17 170.53 378.17"/><polygon class="cls-4" points="190.74 346.19 175.16 361.93 158.79 383.09 180.91 383.78 206.74 361.17 199.32 345.92 190.74 346.19"/><path class="cls-5" d="M177.49,315.26l7,32.39-9.35,14.28,24.16-16,6.49-35.81s-22.45-18.84-23.9-17.1-4.41,22.25-4.41,22.25Z"/><path class="cls-6" d="M177.49,315.26l1.8,8.31,23.11,5.35,3.41-18.81s-5.47-4.59-11.19-9c-5.23,1.38-10.8,2.88-15.55,4.21C178.19,310.45,177.49,315.26,177.49,315.26Z"/><polygon class="cls-7" points="237.85 319.35 274.3 331.81 236.21 367.08 237.85 319.35"/><polygon class="cls-8" points="231.05 358.4 239.36 348.23 274.3 331.81 266.71 374.06 231.05 358.4"/><polygon class="cls-9" points="209.22 303.19 193.5 306.6 224.47 384.25 226.5 389.33 266.71 374.06 239.36 348.23 209.22 303.19"/><polygon class="cls-10" points="190.39 282.3 173.85 265.43 162.61 282.44 165.58 339.95 208.96 288.13 190.39 282.3"/><polygon class="cls-7" points="259.23 250.83 266.48 266.35 239.36 348.23 162.61 282.44 234.81 238.62 259.23 250.83"/><polygon class="cls-10" points="267.18 253.76 270.27 254.9 266.48 266.35 258.84 258.83 267.18 253.76"/><polygon class="cls-5" points="262.22 234 255.48 228.88 242.99 238.89 244.81 244.18 258.84 258.83 270.27 254.9 262.22 234"/><polygon class="cls-11" points="271.44 227.22 263.91 228.85 255.6 228.71 270.27 254.9 275.34 242.82 271.44 227.22"/><polygon class="cls-10" points="273.52 192.63 269.42 205.78 267.94 211.99 274.23 227.34 288.38 220.45 300.8 199.14 273.52 192.63"/><path class="cls-12" d="M267.94,212l-1.36,5.7,7.65,9.65,11.28-2,2.88-4.93c-7.22-3-15.81-6.57-20.44-8.46Z"/><polygon class="cls-5" points="266.57 217.69 263.91 228.85 275.34 242.82 285.5 225.38 266.57 217.69"/><polygon class="cls-7" points="251.96 193.31 260.46 201.87 269.42 205.78 300.8 199.14 266.15 155.95 243.77 176.22 251.96 193.31"/><polygon class="cls-7" points="170.77 191.28 162.36 202.05 166.81 227.16 176.13 239.69 160.9 249.47 162.61 282.44 244.81 244.18 255.6 228.71 260.46 201.87 170.77 191.28"/><polygon class="cls-4" points="175.75 234.44 160.9 249.47 244.81 244.18 255.6 228.71 175.75 234.44"/><polygon class="cls-13" points="166.81 227.16 255.48 228.88 196.69 239.7 160.9 249.47 166.81 227.16"/><polygon class="cls-14" points="164.62 156.63 162.36 202.05 260.46 201.87 266.15 155.95 164.62 156.63"/><polygon class="cls-15" points="182.46 145.22 164.62 156.63 181.54 187.29 194.53 180.98 191.55 163.67 182.46 145.22"/><polygon class="cls-12" points="217.01 172.89 205.58 169.37 191.55 163.67 187.89 172.72 181.54 187.29 215.62 196.57 217.01 172.89"/><polygon class="cls-9" points="232.08 156.07 225.48 159.75 205.58 169.37 215.62 196.57 250.53 179.68 232.08 156.07"/><polygon class="cls-12" points="250.53 179.68 268 153.14 243.26 138.76 225.48 159.75 250.53 179.68"/><polygon class="cls-5" points="248.5 52.86 262.68 65.98 248.08 161.18 235.6 144.89 205.34 143.83 248.5 52.86"/><polygon class="cls-16" points="201.53 160.51 179.06 157.73 166.17 144.18 173.76 135.48 196.02 136.38 201.73 145.25 201.53 160.51"/><polygon class="cls-11" points="163.88 40.38 156.05 94.96 156.26 114.21 177.84 140.45 205.34 143.83 240.2 117.58 248.5 52.86 205.34 22.39 163.88 40.38"/><polygon class="cls-5" points="165.57 72.33 177 80.58 190.32 93.16 202.7 97.92 217.72 86.61 231.26 79.63 218.14 72.64 206.29 76.66 202.28 78.78 197.52 80.89 192.44 77.61 186.73 73.59 177.21 67.67 165.57 72.33"/><polygon class="cls-16" points="204.5 37.84 183.14 36.06 171.63 28.44 181.86 16.05 201.4 21.64 204.5 37.84"/><polygon class="cls-17" points="170.93 44.24 187.34 30.2 177.46 25.69 160.1 26.29 147.8 35.72 157.15 45.71 170.93 44.24"/><polygon class="cls-18" points="147.8 35.72 157.95 37.63 177.42 25.78 182.46 16.37 179.95 11.14 161.55 13.72 147.8 35.72"/><polygon class="cls-16" points="155.94 65.3 140.79 58.49 148.32 47.67 147.8 35.72 157.95 37.63 170.93 44.24 162.72 48.42 155.94 65.3"/><polygon class="cls-18" points="144.96 70.48 148.86 59.63 162.72 48.42 158.6 77.19 155.35 82.48 144.96 70.48"/><polygon class="cls-17" points="134.1 94.01 142.38 81.08 154.15 76.77 158.6 77.19 156.05 94.96 156.26 114.21 143.02 111.84 134.1 94.01"/><polygon class="cls-19" points="134.47 76.34 133.34 90.06 141.87 93.69 147.88 85.4 154.15 76.77 145.95 71.38 134.47 76.34"/><polygon class="cls-16" points="148.86 59.63 138.58 59.81 134.47 76.34 143.35 76.53 154.15 76.77 148.86 59.63"/><polygon class="cls-18" points="130.66 56.03 134.47 76.34 148.86 59.63 148.6 53.77 148.32 47.67 130.66 56.03"/><polygon class="cls-16" points="135.53 111.67 145.15 110.56 141.87 93.69 134.47 76.34 123.04 93.27 135.53 111.67"/><polygon class="cls-19" points="134.05 125.64 135.53 111.67 141.87 93.69 156.26 114.21 148.75 127.44 134.05 125.64"/><polygon class="cls-16" points="151.4 140.66 134.05 125.64 156.26 114.21 163.45 135.26 151.4 140.66"/><polygon class="cls-19" points="179.06 157.73 160.66 151.41 151.4 140.66 156.26 114.21 177.84 140.45 179.06 157.73"/><polygon class="cls-16" points="174.45 159.7 147.37 151.24 151.4 140.66 179.06 157.73 174.45 159.7"/><polygon class="cls-11" points="266.15 155.95 207.25 173.87 164.62 156.63 193.78 142.41 235.6 144.89 257.94 142.17 266.15 155.95"/><polygon class="cls-6" points="207.25 173.87 195.81 147.15 193.78 142.41 235.6 144.89 207.25 173.87"/><polygon class="cls-18" points="236.02 57.94 247.72 61.47 258.49 74.32 272.21 67.5 261.41 50.96 240.56 28.71 220.79 28.32 218.63 36.32 227.64 41.64 236.02 57.94"/><polygon class="cls-17" points="204.5 37.84 220.03 36.16 220.79 28.32 261.41 50.96 258.13 21.02 249.49 17.73 246.71 4.52 231.5 10.45 205.22 11.35 204.51 24.46 204.5 37.84"/><polygon class="cls-18" points="188.31 8.12 204.92 8.96 210.31 17.42 208.69 23.14 204.5 37.84 198.99 25.15 182.46 16.37 179.95 11.14 188.31 8.12"/><polygon class="cls-17" points="178.37 6.85 188.31 8.12 185.08 12.68 182.46 16.37 161.55 13.72 178.37 6.85"/><polygon class="cls-20" points="210.53 0.5 188.31 8.12 210.31 17.42 223.56 12.65 221.53 7.91 210.53 0.5"/><polygon class="cls-18" points="246.71 4.52 221.53 7.91 210.31 17.42 228.9 17.06 242.69 16.79 246.71 4.52"/><polygon class="cls-16" points="258.13 21.02 246.71 4.52 242.69 16.79 247.97 26.43 258.13 21.02"/><polygon class="cls-20" points="272.51 23.35 258.13 21.02 247.97 26.43 248.77 27.89 256.15 41.35 270.07 47.59 271.46 40.27 272.51 23.35"/><polygon class="cls-18" points="290.29 53.6 271.46 40.27 256.15 41.35 261.41 50.96 275.37 72.33 288 69.52 290.29 53.6"/><polygon class="cls-20" points="288.98 94.43 274.58 79.95 278.44 63.12 290.29 53.6 292.93 83.43 288.98 94.43"/><polygon class="cls-16" points="269.87 91.9 274.09 108.48 288.98 94.43 278.44 63.12 260.56 49.41 262.68 65.98 254.23 80.5 269.87 91.9"/><polygon class="cls-17" points="244.35 85.22 262.01 96.85 269.87 91.9 262.68 65.98 247.72 61.47 244.35 85.22"/><polygon class="cls-19" points="264.16 108.82 255.38 113.58 253.16 98.79 244.35 85.22 269.87 91.9 274.15 105.41 264.16 108.82"/><polygon class="cls-16" points="248.5 112.63 253.16 98.79 264.16 108.82 269.66 128.49 258.01 136.44 253.86 123.49 248.5 112.63"/><polygon class="cls-17" points="270.26 131.45 285.75 114.35 288.98 94.43 269.87 91.9 258.87 124.26 270.26 131.45"/><polygon class="cls-16" points="292.51 121.94 278.57 135.77 269.66 128.49 288.98 94.43 297.16 109.24 292.51 121.94"/><polygon class="cls-19" points="266.15 155.95 264.95 148.2 269.66 128.49 292.51 121.94 287.32 140.55 266.15 155.95"/><polygon class="cls-16" points="273.41 165 266.15 155.95 292.51 121.94 299.92 139.92 273.41 165"/><polygon class="cls-19" points="235.6 144.89 266.15 155.95 269.66 128.49 258.87 124.26 253.86 123.49 235.6 144.89"/><polygon class="cls-16" points="266.15 155.95 269.66 128.49 250.87 150.42 266.15 155.95"/><polygon class="cls-5" points="221.21 106.07 236.87 103.53 229.89 114.32 221.21 106.07"/><polygon class="cls-5" points="207.25 102.47 215.71 106.07 215.92 116.86 213.38 120.03 212.96 114.53 207.25 102.47"/><polygon class="cls-5" points="181.65 99.51 171.92 110.3 171.71 114.11 169.8 107.55 174.88 99.09 181.65 99.51"/><polygon class="cls-5" points="158.38 95.28 168.53 100.15 162.61 106.28 158.38 95.28"/><polygon class="cls-21" points="192.44 77.61 193.6 86.92 184.93 95.81 202.7 97.92 197.83 87.77 202.28 78.78 192.44 77.61"/><polygon class="cls-6" points="193.07 104.06 184.93 95.81 202.7 97.92 193.07 104.06"/><polygon class="cls-18" points="206.29 76.66 219.41 75.08 231.26 79.63 220.58 70.32 206.4 71.37 206.29 76.66"/><polygon class="cls-18" points="186.73 73.59 177.1 70.53 165.57 72.33 177.21 65.45 188.42 69.15 186.73 73.59"/><path class="cls-3" d="M177,76.34a4.24,4.24,0,1,1-4.24,4.24A4.24,4.24,0,0,1,177,76.34Z"/><polygon class="cls-5" points="120.67 232.6 102.32 218.84 122.89 217.4 120.67 232.6"/><path class="cls-3" d="M216.13,81.1a4.24,4.24,0,1,1-4.23,4.24A4.23,4.23,0,0,1,216.13,81.1Z"/><polygon class="cls-10" points="174.88 109.03 185.67 109.77 192.33 109.24 198.58 112.94 210.53 114.95 196.04 127.86 182.07 125 174.88 109.03"/><polygon class="cls-22" points="181.12 112.84 183.13 120.14 196.78 122.78 202.91 116.54 189.58 115.27 181.12 112.84"/><polygon class="cls-16" points="227.64 41.64 204.5 37.84 220.79 28.32 227.64 41.64"/><polygon class="cls-6" points="162.72 48.42 204.5 37.84 187.34 30.2 162.72 48.42"/><polygon class="cls-23" points="123.97 179.84 129.88 167 171.69 153.18 196.69 239.7 166.85 247.99 124.52 251.02 114.17 201.55 123.97 179.84"/><polygon class="cls-24" points="108.42 174.1 129.88 167 135.25 195.27 114.17 201.55 108.42 174.1"/><polygon class="cls-1" points="149.98 242.15 165.11 237.57 182.09 236.19 165.15 242.72 149.98 242.15"/><polygon class="cls-2" points="165.88 238.96 164.8 240.16 164.93 240.83 168.81 240.06 169.08 237.62 167.95 237 165.88 238.96"/><polygon class="cls-3" points="156.04 230.81 155.92 233.28 165.61 235.14 167.61 231.95 166.73 225.42 156.42 227.55 156.04 230.81"/><polygon class="cls-4" points="165.78 234.11 164.8 240.16 168.41 239.44 168.9 236.56 165.78 234.11"/><polygon class="cls-2" points="162.18 237.21 163.01 240.56 164.01 240.32 164.19 236.71 162.18 237.21"/><polygon class="cls-2" points="158.21 240.06 156.25 241.39 156.4 242 160.82 241.29 164.19 236.71 164.19 235.65 158.21 240.06"/><polygon class="cls-4" points="160.73 233.5 158.46 236.94 156.25 241.39 160.3 240.71 164.19 235.65 162.29 233.14 160.73 233.5"/><path class="cls-5" d="M157.2,228.35l2.45,5.64-1.19,2.94,3.83-3.79-.12-6.76s-4.77-2.62-5-2.25a28.05,28.05,0,0,0,0,4.21Z"/><path class="cls-6" d="M157.2,228.35l.63,1.44,4.4.14-.06-3.55s-1.17-.64-2.37-1.24l-2.68,1.33C157.15,227.44,157.2,228.35,157.2,228.35Z"/><polygon class="cls-7" points="168.34 226.9 175.44 227.85 169.78 235.66 168.34 226.9"/><polygon class="cls-8" points="168.52 234.26 169.67 232.11 175.44 227.85 175.59 235.82 168.52 234.26"/><polygon class="cls-9" points="162.54 224.99 159.8 226.19 168.26 239.21 168.81 240.06 175.59 235.82 169.67 232.11 162.54 224.99"/><polygon class="cls-10" points="158.35 221.87 154.72 219.4 153.85 222.61 155.92 233.28 161.94 222.26 158.35 221.87"/><polygon class="cls-10" points="169.75 213.63 171.64 216.2 169.67 232.11 153.85 222.61 164.86 212.3 169.75 213.63"/><polygon class="cls-10" points="171.31 213.88 171.91 213.98 171.64 216.2 169.97 215.11 171.31 213.88"/><polygon class="cls-5" points="169.68 210.46 168.27 209.77 166.36 212.05 166.88 212.95 169.97 215.11 171.91 213.98 169.68 210.46"/><polygon class="cls-11" points="171.12 208.89 169.81 209.46 168.29 209.74 171.91 213.98 172.4 211.59 171.12 208.89"/><polygon class="cls-10" points="170.24 202.51 169.97 205.06 169.93 206.24 171.63 208.81 173.96 207.04 175.45 202.71 170.24 202.51"/><path class="cls-12" d="M169.93,206.24l0,1.09,1.74,1.48,2-.77.34-1Z"/><polygon class="cls-5" points="169.89 207.33 169.81 209.46 172.4 211.59 173.62 208.04 169.89 207.33"/><polygon class="cls-7" points="166.34 203.42 168.2 204.67 169.97 205.06 175.45 202.71 167.57 196.1 164.22 200.6 166.34 203.42"/><polygon class="cls-7" points="151.47 206 150.33 208.26 152.05 212.68 151.78 216.96 152.2 219.8 153.85 222.61 166.88 212.95 168.29 209.74 168.2 204.67 151.47 206"/><polygon class="cls-4" points="153.94 213.68 154.03 215.23 166.88 212.95 168.29 209.74 153.94 213.68"/><polygon class="cls-13" points="150.45 214.65 152.05 212.68 168.27 209.77 154.06 215.17 150.45 214.65"/><polygon class="cls-10" points="151.32 216.88 151.13 217.96 152.2 219.8 152.59 217.93 151.32 216.88"/><polygon class="cls-5" points="150.76 213.68 152.05 212.68 154.06 215.17 152.88 217.87 151.13 217.96 150.76 213.68"/><polygon class="cls-11" points="149.11 213.17 150.33 213.18 152.05 212.68 151.13 217.96 148.56 216.35 149.11 213.17"/><polygon class="cls-10" points="146.53 207.25 143.53 209.07 145.64 212.2 148.07 213.39 149.17 211.08 148.77 210.11 146.53 207.25"/><polygon class="cls-12" points="145.64 212.2 146.31 213.22 148.07 213.39 149.55 212.02 149.17 211.08 145.64 212.2"/><polygon class="cls-5" points="148.56 216.35 150.05 213.24 149.55 212.02 146.31 213.22 148.56 216.35"/><polygon class="cls-7" points="151.47 206 151.19 199.5 149.09 199.9 143.53 209.07 148.77 210.11 150.33 208.26 151.47 206"/><polygon class="cls-14" points="149.09 199.9 150.33 208.26 168.2 204.67 167.57 196.1 149.09 199.9"/><polygon class="cls-15" points="151.93 197.18 149.09 199.9 153.37 204.88 155.43 203.25 154.25 200.21 151.93 197.18"/><polygon class="cls-12" points="159.23 200.97 157.02 200.74 154.25 200.21 153.91 201.99 153.37 204.88 159.83 205.33 159.23 200.97"/><polygon class="cls-9" points="161.37 197.35 160.3 198.26 157.02 200.74 159.83 205.33 165.58 200.99 161.37 197.35"/><polygon class="cls-9" points="165.58 200.99 167.8 195.52 162.77 193.79 160.3 198.26 165.58 200.99"/><polygon class="cls-5" points="160.61 177.95 163.67 179.82 164.46 197.7 161.6 195.19 156.05 196.09 160.61 177.95"/><polygon class="cls-16" points="155.96 199.27 151.76 199.58 148.92 197.58 149.99 195.72 154.08 195.07 155.44 196.48 155.96 199.27"/><polygon class="cls-11" points="144.73 178.75 145.29 188.98 146.03 192.48 150.91 196.47 156.05 196.09 161.44 190.04 160.61 177.95 151.64 173.96 144.73 178.75"/><polygon class="cls-5" points="146.2 184.51 148.58 185.6 151.47 187.41 153.9 187.82 156.23 185.22 158.44 183.45 155.79 182.66 153.78 183.82 153.13 184.35 152.34 184.91 151.29 184.5 150.1 183.97 148.15 183.24 146.2 184.51"/><polygon class="cls-16" points="152.05 176.81 148.09 177.26 145.72 176.29 147.13 173.66 150.9 173.97 152.05 176.81"/><polygon class="cls-17" points="146.16 179.19 148.64 176.04 146.68 175.57 143.54 176.32 141.64 178.48 143.7 179.96 146.16 179.19"/><polygon class="cls-18" points="141.64 178.48 143.56 178.46 146.67 175.6 147.25 173.7 146.6 172.83 143.34 173.97 141.64 178.48"/><polygon class="cls-16" points="144.19 183.58 141.19 182.88 142.17 180.64 141.64 178.48 143.56 178.46 146.16 179.19 144.81 180.25 144.19 183.58"/><polygon class="cls-18" points="142.38 184.92 142.69 182.8 144.81 180.25 145.11 185.65 144.71 186.73 142.38 184.92"/><polygon class="cls-17" points="141.25 189.6 142.29 186.94 144.28 185.73 145.11 185.65 145.29 188.98 146.03 192.48 143.53 192.53 141.25 189.6"/><polygon class="cls-19" points="140.68 186.37 140.97 188.91 142.66 189.26 143.46 187.53 144.28 185.73 142.59 185.04 140.68 186.37"/><polygon class="cls-16" points="142.69 182.8 140.83 183.21 140.68 186.37 142.31 186.08 144.28 185.73 142.69 182.8"/><polygon class="cls-18" points="139.25 182.81 140.68 186.37 142.69 182.8 142.44 181.74 142.17 180.64 139.25 182.81"/><polygon class="cls-16" points="142.16 192.77 143.87 192.22 142.66 189.26 140.68 186.37 139.21 189.87 142.16 192.77"/><polygon class="cls-19" points="142.39 195.37 142.16 192.77 142.66 189.26 146.03 192.48 145.14 195.16 142.39 195.37"/><polygon class="cls-16" points="146.1 197.47 142.39 195.37 146.03 192.48 148.1 196.05 146.1 197.47"/><polygon class="cls-19" points="151.76 199.58 148.18 199.09 146.1 197.47 146.03 192.48 150.91 196.47 151.76 199.58"/><polygon class="cls-16" points="150.99 200.11 145.75 199.55 146.1 197.47 151.76 199.58 150.99 200.11"/><polygon class="cls-11" points="167.57 196.1 157.48 201.5 149.09 199.9 153.89 196.25 161.6 195.19 165.57 193.88 167.57 196.1"/><polygon class="cls-6" points="157.48 201.5 154.43 197.04 153.89 196.25 161.6 195.19 157.48 201.5"/><polygon class="cls-18" points="158.52 179.33 160.78 179.54 163.21 181.5 165.46 179.76 162.89 177.13 158.28 173.84 154.67 174.48 154.56 176.02 156.4 176.66 158.52 179.33"/><polygon class="cls-17" points="152.05 176.81 154.82 175.94 154.67 174.48 162.89 177.13 161.21 171.8 159.52 171.51 158.53 169.21 155.97 170.84 151.22 171.96 151.56 174.37 152.05 176.81"/><polygon class="cls-18" points="148.02 171.98 151.07 171.53 152.37 172.88 152.27 173.98 152.05 176.81 150.58 174.7 147.25 173.7 146.6 172.83 148.02 171.98"/><polygon class="cls-17" points="146.16 172.11 148.02 171.98 147.59 172.93 147.25 173.7 143.34 173.97 146.16 172.11"/><polygon class="cls-20" points="151.79 169.79 148.02 171.98 152.37 172.88 154.6 171.53 154.06 170.74 151.79 169.79"/><polygon class="cls-18" points="158.53 169.21 154.06 170.74 152.37 172.88 155.74 172.14 158.24 171.59 158.53 169.21"/><polygon class="cls-16" points="161.21 171.8 158.53 169.21 158.24 171.59 159.55 173.15 161.21 171.8"/><polygon class="cls-20" points="163.91 171.7 161.21 171.8 159.55 173.15 159.75 173.39 161.58 175.57 164.35 176.21 164.34 174.82 163.91 171.7"/><polygon class="cls-18" points="168.25 176.57 164.34 174.82 161.58 175.57 162.89 177.13 166.21 180.52 168.41 179.55 168.25 176.57"/><polygon class="cls-20" points="169.5 184.05 166.34 181.94 166.44 178.73 168.25 176.57 169.82 181.91 169.5 184.05"/><polygon class="cls-16" points="165.92 184.28 167.29 187.15 169.5 184.05 166.44 178.73 162.68 176.88 163.67 179.82 162.66 182.78 165.92 184.28"/><polygon class="cls-17" points="161.03 184 164.67 185.47 165.92 184.28 163.67 179.82 160.78 179.54 161.03 184"/><polygon class="cls-19" points="165.5 187.58 164.07 188.76 163.13 186.15 161.03 184 165.92 184.28 167.19 186.6 165.5 187.58"/><polygon class="cls-16" points="162.78 188.84 163.13 186.15 165.5 187.58 167.21 190.96 165.38 192.84 164.15 190.63 162.78 188.84"/><polygon class="cls-17" points="167.43 191.48 169.63 187.8 169.5 184.05 165.92 184.28 165.09 190.59 167.43 191.48"/><polygon class="cls-16" points="171.14 188.94 169.1 191.97 167.21 190.96 169.5 184.05 171.52 186.46 171.14 188.94"/><polygon class="cls-19" points="167.57 196.1 167.07 194.73 167.21 190.96 171.14 188.94 170.87 192.52 167.57 196.1"/><polygon class="cls-16" points="169.22 197.48 167.57 196.1 171.14 188.94 173.14 191.95 169.22 197.48"/><polygon class="cls-19" points="161.6 195.19 167.57 196.1 167.21 190.96 165.09 190.59 164.15 190.63 161.6 195.19"/><polygon class="cls-16" points="167.57 196.1 167.21 190.96 164.58 195.64 167.57 196.1"/><polygon class="cls-5" points="157.57 188.64 160.33 187.6 159.45 189.83 157.57 188.64"/><polygon class="cls-5" points="154.89 188.49 156.56 188.83 157 190.79 156.65 191.47 156.37 190.48 154.89 188.49"/><polygon class="cls-5" points="150.12 188.88 148.74 191.19 148.84 191.9 148.25 190.77 148.87 189.05 150.12 188.88"/><polygon class="cls-5" points="145.72 188.95 147.75 189.47 146.9 190.8 145.72 188.95"/><polygon class="cls-21" points="151.29 184.5 151.84 186.15 150.58 188.09 153.9 187.82 152.64 186.15 153.13 184.35 151.29 184.5"/><polygon class="cls-6" points="152.37 189.29 150.58 188.09 153.9 187.82 152.37 189.29"/><polygon class="cls-18" points="153.78 183.82 156.12 183.05 158.44 183.45 156.16 182.14 153.61 182.85 153.78 183.82"/><polygon class="cls-18" points="150.1 183.97 148.24 183.76 146.2 184.51 148.07 182.83 150.25 183.1 150.1 183.97"/><path class="cls-3" d="M148.43,184.83a.79.79,0,0,1,.93.61.79.79,0,1,1-1.55.31A.79.79,0,0,1,148.43,184.83Z"/><path class="cls-3" d="M155.74,184.27a.78.78,0,1,1-.62.93A.79.79,0,0,1,155.74,184.27Z"/><polygon class="cls-10" points="149.23 190.86 151.22 190.6 152.42 190.26 153.69 190.71 155.94 190.64 153.77 193.52 151.12 193.51 149.23 190.86"/><polygon class="cls-22" points="150.51 191.32 151.14 192.58 153.72 192.57 154.61 191.21 152.14 191.46 150.51 191.32"/><polygon class="cls-16" points="156.4 176.66 152.05 176.81 154.67 174.48 156.4 176.66"/><polygon class="cls-6" points="144.81 180.25 152.05 176.81 148.64 176.04 144.81 180.25"/><path class="cls-25" d="M129,178.49l-5.15-6.11-8,2.91-1.42,6.26h0l2.24,12.59,4.62,2.39,6.18-1.72,2.76-3.5Zm-6.71,14.31-5-14.23h0l6.18-1.94,2.31,14.76Z"/><path class="cls-4" d="M125.87,223.55l17.27-5,.6,3-17.26,5.15Zm2.41,12.22,8.75-2.35.3,3.28-8.4,2.36Zm-1.17-5.9L141.5,226l.6,2.68-14.43,4Z"/><polygon class="cls-26" points="127.58 254.76 124.52 251.02 196.69 239.7 196.26 247.24 127.58 254.76"/><polygon class="cls-13" points="120.67 232.6 118.4 221.79 118.4 221.79 126.94 217.88 120.67 232.6"/><polygon class="cls-5" points="108.03 201.11 112.49 193.54 127.49 202 126.94 217.88 118.4 221.79 108.03 201.11"/><polygon class="cls-11" points="99.2 203.94 112.49 193.54 118.4 221.79 102.32 218.84 99.2 203.94"/></g></svg>