<svg id="Layer_1" data-name="Layer 1" xmlns="http://www.w3.org/2000/svg" viewBox="0 0 400 400"><defs><style>.cls-1,.cls-24{fill:#2b2b2b;}.cls-1,.cls-10,.cls-11,.cls-12,.cls-13,.cls-14,.cls-15,.cls-16,.cls-17,.cls-18,.cls-19,.cls-2,.cls-20,.cls-21,.cls-22,.cls-23,.cls-24,.cls-3,.cls-4,.cls-5,.cls-6,.cls-7,.cls-8,.cls-9{fill-rule:evenodd;}.cls-1{opacity:0.1;}.cls-2{fill:#f4cab2;}.cls-3{fill:#474748;}.cls-4{fill:#6f7273;}.cls-5{fill:#3a9fb9;}.cls-6{fill:#318ea5;}.cls-7{fill:#1d7678;}.cls-8{fill:#185e60;}.cls-9{fill:#5ebfd8;}.cls-10{fill:#74cee4;}.cls-11{fill:#ebebea;}.cls-12{fill:#50a8a9;}.cls-13{fill:#369395;}.cls-14{fill:#fbe3d4;}.cls-15{fill:#dcdcdb;}.cls-16{fill:#848585;}.cls-17{fill:#72cbcb;}.cls-18{fill:#c18f7c;}.cls-19{fill:#a2a1a1;}.cls-20{fill:#c3c3c3;}.cls-21{fill:#cecdcc;}.cls-22{fill:#fff0e8;}.cls-23{fill:#28788b;}</style></defs><title>sentinels_ESTJ_famous_real_john_d_rockefeller</title><polygon class="cls-1" points="213.4 370.47 291.64 387.53 214.01 402.16 120.54 383.17 213.4 370.47"/><polygon class="cls-2" points="120.54 215.47 118.1 208.84 107.87 202.69 106.05 214.28 120.54 215.47"/><polygon class="cls-3" points="246.62 381.96 257.13 386.14 257.08 390.62 223.26 390.67 223.24 385.81 246.62 381.96"/><polygon class="cls-3" points="173.99 373.62 152.16 381 152.01 384.98 197.28 385.12 197.12 381.18 174.86 374.77 173.99 373.62"/><polygon class="cls-4" points="243.08 356.21 235.46 366.76 223.24 385.81 257.13 386.14 254.51 366.76 243.08 356.21"/><polygon class="cls-4" points="188.28 351.83 178.37 360.48 152.16 381 197.12 381.18 198.16 363.01 188.28 351.83"/><polygon class="cls-5" points="172.45 313.83 174.06 326.54 174.06 326.54 192.69 338.08 205.71 327.61 211.25 297.75 201.91 288.19 196.43 280.27 175.45 283.86 172.45 313.83"/><polygon class="cls-6" points="174.06 326.54 178.37 360.48 188.19 361.74 198.16 363.01 205.71 327.61 174.06 326.54 174.06 326.54"/><polygon class="cls-1" points="172.52 314.37 174.06 326.54 187.85 319.2 181.21 315.57 172.52 314.37"/><polygon class="cls-5" points="207.85 283.75 211.25 297.75 215.37 305.07 213.98 308.68 221.18 328.14 236.34 334.77 255.69 329.31 256.44 305.39 207.85 283.75"/><polygon class="cls-6" points="221.18 328.14 235.46 366.76 254.51 366.76 255.69 329.31 221.18 328.14"/><polygon class="cls-1" points="255.69 329.31 256.12 315.47 217.79 318.42 255.69 329.31"/><polygon class="cls-7" points="258.38 243.87 270.5 318.69 233.98 318.58 226.07 318.48 230.33 269.6 258.38 243.87"/><path class="cls-8" d="M260.48,256.84l1.55,9.57-16,2.64-4.86,22.34-3-21s8.16-13.81,7.8-14.2S254,256.38,260.48,256.84Z"/><path class="cls-6" d="M180.35,281.54l30.9,16.21s19.57-24.36,18.88-24.13S221,244.89,221,244.89s-42.42,15.5-42.48,14.8S180.35,281.54,180.35,281.54Z"/><polygon class="cls-9" points="235.04 266.42 241.43 269.56 240.67 283.75 251.52 294.1 242.43 294.94 245.7 308.12 236.13 302.54 237.25 315.5 229.18 306.97 226.07 318.48 222.22 315.17 222.76 301.06 218.54 287.24 225.62 272.78 235.04 266.42"/><polygon class="cls-5" points="240.67 283.75 253.85 293.89 251.75 298.11 242.43 294.94 249.82 308.56 245.52 312.15 236.13 302.54 240.06 315.94 233.98 318.58 229.18 306.97 226.07 318.48 217.79 318.42 222.76 301.06 240.67 283.75"/><polygon class="cls-10" points="224.01 273.84 219.83 278.28 211.25 297.75 213.98 308.68 222.76 301.06 226.47 277.21 224.01 273.84"/><path class="cls-3" d="M210.56,210.09c.66.55-23.19,22.07-23.19,22.07l10,30.83s29.63-2.49,29.5-10.62c.1-.53-.63-46-.63-46Z"/><polygon class="cls-4" points="191.96 217.38 198.96 225.3 199.03 263.29 176.95 259.17 175.5 220.54 185.55 205.15 191.96 217.38"/><polygon class="cls-11" points="180 264.14 184.78 259.72 213.46 259.18 226.94 266.18 181.54 265.94 180 264.14"/><polygon class="cls-12" points="160.7 220.24 154.73 218.13 137.49 217.22 134.12 228.13 139.09 242.96 167.91 250.31 160.7 220.24"/><path class="cls-7" d="M184.94,173.28l-11.62-4-4.89,6.28-13.7,42.53,13.18,32.18s12.62-21.31,12.64-22.58S184.94,173.28,184.94,173.28Z"/><polygon class="cls-6" points="57.45 271.98 51.81 288.02 78.98 290.77 106.37 265.01 61.76 258.68 57.45 271.98"/><polygon class="cls-5" points="47.17 250.66 32.92 274.09 51.81 288.02 72.3 265.31 68.69 232.3 47.17 250.66"/><polygon class="cls-9" points="62.27 245.39 42.79 226.04 28.81 243.47 32.92 274.09 62.27 245.39"/><polygon class="cls-10" points="112.32 209.88 103.43 195.5 57.59 187.21 42.79 226.04 72.3 265.31 116.47 272.06 128.57 240.71 124.19 231.69 115.58 212.48 112.32 209.88"/><polygon class="cls-5" points="90.53 233.75 100.58 251.48 112.02 254.01 115.33 238.18 90.53 233.75"/><polygon class="cls-6" points="73.61 211.69 70.16 230.16 81.06 246.62 100.58 251.48 115.33 238.18 105.14 218.6 105.61 216.79 101.59 211.8 96.92 202.83 73.61 211.69"/><polygon class="cls-11" points="123.57 219.4 126.2 214.96 137.49 217.22 139.13 242.97 128.57 240.71 123.57 219.4"/><polygon class="cls-7" points="173.16 245.32 167.91 250.31 166.11 319.41 187.85 319.2 185.45 253.58 173.16 245.32"/><polygon class="cls-13" points="177.99 194.66 173.32 169.32 174.23 208.76 171.66 214.78 167.91 250.31 185.67 259.7 177.99 194.66"/><polygon class="cls-7" points="256.51 186.35 258.76 170.73 266.25 175.59 285.23 216.43 268.04 237.01 249.1 239.41 256.51 186.35"/><path class="cls-13" d="M235.27,192.26l11-20.3,12.48-1.23-.2,65.23-27.63,17.73s-7.45-12.71-7.34-16.26S235.27,192.26,235.27,192.26Z"/><polygon class="cls-2" points="215.14 256.96 213.4 259.18 219.83 278.28 232.19 282.29 235.21 265.51 223.71 255.69 215.14 256.96"/><polygon class="cls-14" points="244.26 247.67 237.22 241.87 228.88 241.66 225.28 261.08 232.19 282.29 247.21 264.33 244.26 247.67"/><polygon class="cls-11" points="258.38 243.87 251.29 234.43 237.22 241.87 247.21 264.33 260.59 257.52 258.38 243.87"/><polygon class="cls-10" points="224.78 226.99 220.09 233.85 201.52 243.03 213.4 259.18 225.28 261.08 230.93 253.69 230.32 233.95 224.78 226.99"/><polygon class="cls-9" points="225.28 261.08 230.93 253.69 230.32 233.95 228.45 231.6 220.09 233.85 220.54 237.33 220.38 242.33 219.91 246.3 225.28 261.08"/><polygon class="cls-15" points="184.59 178.86 182.79 188.47 186.42 210.42 198.96 225.3 216.96 203.77 221.06 190.36 207.66 167.04 184.59 178.86"/><path class="cls-6" d="M200.72,184.45l-3.11,6.86L192,217.38s6,8.39,7,7.92S214,213,214,213l-7.64-21.64Z"/><polygon class="cls-16" points="178.13 198.91 182.79 188.47 198.96 225.3 180.72 214.95 178.13 198.91"/><polygon class="cls-12" points="183.32 183.82 182.79 188.47 183.95 216.78 180.01 224.41 171.66 214.78 173.32 169.32 179.05 166.04 183.32 183.82"/><polygon class="cls-17" points="183.95 216.78 185.67 259.7 171.66 214.78 183.95 216.78"/><polygon class="cls-4" points="226.02 195.32 221.06 190.36 198.96 225.3 228.62 211.16 226.02 195.32"/><polygon class="cls-12" points="223.01 183.72 221.06 190.36 220.51 215.02 220.51 215.02 228.75 216.25 240.75 211.16 258.76 170.73 249.69 165.67 223.01 183.72"/><polygon class="cls-17" points="220.51 215.02 220.09 233.85 230.32 233.95 240.75 211.16 220.51 215.02 220.51 215.02"/><polygon class="cls-5" points="190.2 178.44 190.34 181.4 197.61 191.31 206.37 191.31 216.18 177.38 202.1 165.46 190.2 178.44"/><polygon class="cls-11" points="204.13 164.09 202.43 174.24 182.79 188.47 179.05 166.04 185.22 155.23 204.13 164.09"/><polygon class="cls-2" points="212.76 145.93 228.06 168.73 246.87 149.91 257.27 105.37 245.58 75.01 235.9 22.81 216.45 46.62 212.76 145.93"/><polygon class="cls-18" points="180.4 149.91 202.43 174.24 232.69 159.13 228.62 158.48 221.06 151.04 180.4 149.91"/><polygon class="cls-18" points="248.45 99.55 244.08 103.41 254.04 119.11 257.27 105.37 248.45 99.55"/><polygon class="cls-14" points="254.81 73.27 246.87 77.99 244.08 103.41 257.27 105.37 263.99 79.29 254.81 73.27"/><polygon class="cls-19" points="250.42 56.25 267.16 66.98 263.99 79.29 246.87 77.99 245.58 87.09 239.63 87.09 240.75 62.48 250.42 56.25"/><polygon class="cls-20" points="238.45 34.98 237.38 40.09 240.75 62.48 267.16 66.98 263.99 40.09 238.45 34.98"/><polygon class="cls-21" points="230.39 31.92 237.38 40.09 263.99 40.09 247.88 26.01 209.89 31.71 230.39 31.92"/><path class="cls-19" d="M197.65,37.83l18.36-1L247.88,26,234.37,2.16s-34.18,13.74-34.4,15S197.65,37.83,197.65,37.83Z"/><polygon class="cls-20" points="174.43 13.98 168.1 3 234.37 2.16 216.49 21.32 174.43 13.98"/><polygon class="cls-21" points="148.15 39.73 142.57 30.39 168.1 3 216.49 21.32 155.22 43.64 148.15 39.73"/><polygon class="cls-15" points="171.1 37.57 155.06 33.35 142.57 30.39 143.35 66.8 171.1 37.57"/><polygon class="cls-14" points="143.35 66.8 144.82 94.56 162.64 152.86 221.06 151.04 227.52 117.39 230.39 31.92 216.49 21.32 171.28 35.56 155.06 33.35 143.35 66.8"/><polygon class="cls-2" points="174.31 123.11 164.52 132.41 181.38 132.57 208.98 130.54 174.31 123.11"/><polygon class="cls-2" points="158.98 65.27 151.73 70.46 161.85 83.02 175.19 105.27 184.04 108.79 201.49 81.54 214.92 67.43 208.86 64.09 194.52 67.67 183.15 74.77 180.5 83.73 178.6 74.82 168.94 67.16 158.98 65.27"/><polygon class="cls-18" points="177.02 105.37 172.66 109.14 179.56 113.68 184.04 108.79 177.02 105.37"/><polygon class="cls-19" points="194.52 67.67 206.07 62.48 214.92 67.43 205.6 66.66 194.52 67.67"/><polygon class="cls-19" points="168.94 67.16 159.51 63.51 151.73 70.46 160.33 66.98 168.94 67.16"/><polygon class="cls-22" points="178.6 74.82 172.66 109.14 184.04 108.79 183.15 74.77 178.6 74.82"/><polygon class="cls-18" points="259.33 84.2 253.21 83.27 251.29 95.77 259.33 84.2"/><polygon class="cls-11" points="247.55 147.09 202.43 174.24 221.06 190.36 249.69 165.67 247.55 147.09"/><polygon class="cls-7" points="220.54 237.33 226.65 237.54 219.91 246.3 208.05 243.66 220.54 237.33"/><polygon class="cls-12" points="285.23 216.43 251.29 234.43 260.59 257.52 284.43 245.09 285.23 216.43"/><polygon class="cls-14" points="126.2 214.96 118.1 208.84 101.59 211.8 105.14 218.6 117.23 219.61 128.57 240.71 126.2 214.96"/><polygon class="cls-23" points="68.81 199.87 96.92 202.83 70.16 230.16 64.2 221.72 68.81 199.87"/><polygon class="cls-2" points="162.09 55.21 175.28 55.95 190.48 55 174.75 54.26 162.09 55.21"/><polygon class="cls-2" points="180.7 51.33 192.06 51.88 205.99 51.35 191.07 50.65 180.7 51.33"/><path class="cls-24" d="M165.1,85.12a3.56,3.56,0,1,0-3.56-3.56A3.56,3.56,0,0,0,165.1,85.12Z"/><path class="cls-24" d="M197.94,85.1a3.56,3.56,0,1,0-3.56-3.56A3.56,3.56,0,0,0,197.94,85.1Z"/><polygon class="cls-20" points="180.78 129.5 180.92 129.48 208.98 130.54 201.31 117.06 179.56 113.68 178.22 124.47 180.78 129.5"/><polygon class="cls-21" points="167.04 120.67 164.52 132.41 180.78 129.5 179.56 113.68 167.04 120.67"/></svg>