<svg id="Layer_1" data-name="Layer 1" xmlns="http://www.w3.org/2000/svg" viewBox="0 0 400 400"><defs><style>.cls-1{fill:#5a753d;}.cls-2{fill:#474747;}.cls-3{fill:#6f7173;}.cls-4{fill:#a2a2a2;}.cls-5{fill:#c3c3c3;}.cls-6{fill:#ebebea;}.cls-7{fill:#dcdcdb;}.cls-8{fill:#cdcdcc;}.cls-9{fill:#8e8e8e;}.cls-10{fill:#fce3d4;}.cls-11{fill:#f4c9b2;}.cls-12{fill:#b7c645;}.cls-13{fill:#9fce7e;}.cls-14{fill:#709c53;}.cls-15{fill:#4f5253;}.cls-16{fill:#54af8a;}.cls-17{fill:#72c8a5;}.cls-18{fill:#3f8e6f;}.cls-19{fill:#35785d;}.cls-20{fill:#7f5d4e;}.cls-21{fill:#593e35;}.cls-22{fill:#573a2f;}.cls-23{fill:#848585;}.cls-24{fill:#98796a;}.cls-25{fill:#c1907d;}.cls-26{fill:#ffefe7;}.cls-27{fill:#33231b;fill-opacity:0.15;}.cls-28{fill:#e7ef78;}.cls-29{fill:#2b2b2b;}.cls-30{fill:none;}</style></defs><title>diplomats_INFP_famous_real_william_shakespeare</title><g id="Layer_1-2" data-name="Layer_1"><g id="_897666096" data-name=" 897666096"><polygon class="cls-1" points="291.12 252.01 296.89 246.71 333.65 212.66 303.96 200.06 286.88 202.41 266.38 229.4 291.12 252.01"/><polygon class="cls-2" points="339.3 186.16 329.88 202.41 318.33 199.59 320.69 175.91 339.3 186.16"/><path class="cls-3" d="M60.58,131.14,66.47,146l9.19-3.3,5.54,2.12,1-4.48,27.1-9.66S77,100,78.25,98.63,60.46,131,60.46,131Z"/><polygon class="cls-4" points="66.94 104.75 43.03 117.36 66.47 145.99 74.01 120.31 66.94 104.75"/><polygon class="cls-5" points="73.42 82.61 58.58 80.02 43.03 117.36 88.03 129.26 92.74 121.95 89.91 115 94.04 90.62 73.42 82.61"/><polygon class="cls-6" points="87.56 102.4 82.73 99.81 58.58 80.02 94.74 67.65 127.37 85.08 111.59 105.46 87.56 102.4"/><polygon class="cls-7" points="96.98 106.17 89.91 115 89.21 120.31 88.03 129.26 133.26 121.25 120.78 110.53 96.98 106.17"/><polygon class="cls-8" points="118.66 98.28 110.29 95.8 82.73 99.81 89.91 115 120.78 110.53 118.66 98.28"/><polygon class="cls-5" points="120.78 110.53 133.26 102.4 139.86 105.11 130.32 122.07 128.79 117.95 120.78 110.53"/><polygon class="cls-9" points="132.2 126.67 133.85 121.13 139.86 105.11 128.79 117.95 126.78 125.02 129.26 130.67 127.96 132.32 132.2 126.67"/><polygon class="cls-4" points="128.79 117.95 88.03 129.26 109.47 130.91 127.96 132.32 129.26 130.67 129.97 125.02 128.79 117.95"/><polygon class="cls-5" points="127.96 134.09 134.68 137.86 137.98 133.85 134.56 119.6 129.97 125.02 127.96 134.09"/><polygon class="cls-8" points="118.42 139.04 127.37 143.63 134.68 137.86 129.97 125.02 121.37 129.85 118.42 139.04"/><polygon class="cls-7" points="117.24 147.52 127.37 143.63 121.37 129.85 109.47 130.91 117.24 147.52"/><polygon class="cls-10" points="127.73 158.36 116.3 160.24 90.86 159.89 88.26 150.46 99.34 151.52 128.55 146.93 127.73 158.36"/><path class="cls-11" d="M90.86,159.89,75.78,142.81l3.3-1.18,3.41-1.18,16,7.19,29-4,.12,5.77C120.66,151.52,90.86,159.89,90.86,159.89Z"/><polygon class="cls-1" points="174.02 175.67 166.01 166.37 139.98 151.64 127.37 143.63 129.73 170.61 159.77 199.71 174.02 175.67"/><polygon class="cls-12" points="132.32 155.88 137.27 144.22 127.37 143.63 116.3 160.24 119.6 170.02 132.32 155.88"/><polygon class="cls-13" points="188.63 154.23 177.21 156.94 166.01 166.37 159.77 199.71 179.68 194.52 182.86 184.75 194.88 190.4 188.63 154.23"/><polygon class="cls-14" points="179.68 194.52 177.21 156.94 186.87 168.84 194.88 190.4 179.68 194.52"/><polygon class="cls-15" points="178.03 154.47 170.61 152.47 166.01 166.37 177.44 159.53 178.03 154.47"/><polygon class="cls-15" points="234.34 315.04 214.9 307.26 217.49 280.05 244.12 277.81 244.94 310.08 242.7 313.62 234.34 315.04"/><path class="cls-2" d="M235,318.69l7.66-5.07h0c.36,0-14.25-3.3-27.92-6.36L213.49,321l13.19-2.82,2.83,12.36,2.47.59,3-12.48Z"/><polygon class="cls-15" points="213.49 268.03 234.93 278.99 247.89 310.91 248.12 311.5 268.03 309.73 296.89 293.12 286.17 246.12 219.26 247.06 213.49 268.03"/><polygon class="cls-2" points="248.12 311.5 254.96 315.39 268.5 328.46 272.74 327.76 287.35 309.5 296.89 293.12 248.12 311.5"/><path class="cls-2" d="M234.93,278.64l7.77,35,12-1.77,1.3-3.29-21.09-29.92Zm33.57,49.82,2.36,1.3,1.88-2Z"/><polygon class="cls-2" points="242.7 313.62 255.31 318.69 268.5 328.46 272.74 327.76 275.57 324.81 262.38 315.74 256.02 308.56 242.7 313.62"/><polygon class="cls-3" points="200.41 239.05 205.12 252.13 194.28 302.66 208.78 311.03 227.62 310.08 234.93 278.64 229.74 258.61 200.41 239.05"/><path class="cls-15" d="M194.29,302.66l8.6,12,10.24,12.37,13.67-8.83.82-8.14C212.55,306.67,194.29,302.66,194.29,302.66Z"/><polygon class="cls-2" points="208.78 235.64 229.74 258.61 286.17 246.12 284.05 235.64 208.78 235.64"/><polygon class="cls-3" points="207.83 226.33 200.41 235.99 212.9 252.72 229.74 258.61 229.39 246.47 207.83 226.33"/><polygon class="cls-16" points="197.82 211.96 199.71 226.45 203.71 231.63 200.41 235.99 204.3 244.12 229.39 246.47 250.24 208.66 240.81 188.04 217.26 191.58 197.82 211.96"/><polygon class="cls-6" points="199.71 226.45 200.41 235.99 204.3 244.12 229.39 246.47 235.17 235.99 229.51 237.17 199.71 226.45"/><polygon class="cls-17" points="205.95 171.2 194.88 190.4 197.82 211.96 229.63 223.74 236.58 211.6 258.25 178.26 224.91 153.64 205.95 171.2"/><polygon class="cls-18" points="243.29 208.89 229.63 223.74 229.51 237.17 232.22 241.29 277.45 230.81 282.17 225.98 286.17 225.15 278.64 207.6 243.29 208.89"/><polygon class="cls-19" points="284.05 235.64 284.05 235.64 283.94 227.98 286.17 225.15 289.82 207.13 278.64 207.6 284.05 235.64"/><polygon class="cls-7" points="229.51 237.17 229.39 246.47 258.96 247.65 284.05 235.64 283.94 227.98 282.17 225.98 229.51 237.17"/><polygon class="cls-5" points="284.05 235.64 286.17 225.15 282.17 225.98 284.05 235.64"/><polygon class="cls-20" points="273.69 98.98 306.79 109.7 321.51 88.73 291 76.48 273.69 98.98"/><polygon class="cls-21" points="289 124.78 289.59 124.9 310.08 128.91 306.79 109.7 284.05 93.21 289 124.78"/><polygon class="cls-22" points="264.62 132.2 283.47 142.81 310.08 128.91 284.05 93.21 261.9 125.96 264.62 132.2"/><polygon class="cls-23" points="228.1 150.23 215.72 133.03 197.82 142.22 186.16 149.4 170.61 152.47 194.88 190.4 230.34 161.3 228.1 150.23"/><polygon class="cls-8" points="198.17 152.59 230.34 161.3 234.22 132.09 202.3 130.44 195.94 130.32 195.23 139.51 198.17 152.59"/><polygon class="cls-6" points="199.35 132.09 188.87 132.56 186.16 149.4 198.17 152.59 197.23 133.85 199.35 132.09"/><path class="cls-24" d="M202.06,22.76l-2.47-12L212.19,1l75.28,4S269,40.08,271,39.85,202.06,22.76,202.06,22.76Z"/><polygon class="cls-11" points="246 33.6 243.17 138.45 282.64 89.91 282.99 15.93 270.03 15.58 246 33.6"/><polygon class="cls-20" points="280.64 47.74 268.85 43.5 270.03 15.58 287.47 4.98 305.96 35.49 280.64 47.74"/><polygon class="cls-21" points="293 70.12 301.13 59.87 305.96 35.49 268.85 43.5 272.51 56.93 276.04 69.77 293 70.12"/><polygon class="cls-24" points="278.04 79.55 276.75 77.54 272.39 69.65 274.51 54.81 301.13 59.87 321.51 88.73 291.47 82.14 278.04 79.55"/><path class="cls-10" d="M273.57,98.16l-3.3-7.78,3.89-21.2,17.2,5.42-7.31,18.61S273.57,98,273.57,98.16Z"/><polygon class="cls-21" points="252.25 132.91 248.95 125.02 255.54 117.72 270.27 90.27 284.17 92.98 280.05 118.19 269.56 130.79 252.25 132.91"/><polygon class="cls-10" points="175.56 118.19 174.97 43.38 199.59 10.75 270.03 15.58 256.72 52.8 255.54 117.72 196.88 129.97 175.56 118.19"/><polygon class="cls-11" points="182.15 109.58 180.39 115.83 181.44 117.48 189.46 113.83 213.49 115.24 229.74 121.95 240.47 108.29 231.75 112.06 200.29 103.34 182.15 109.58"/><polygon class="cls-11" points="184.86 49.39 177.91 53.87 188.04 68.94 195.94 90.74 202.41 85.55 205.36 91.21 221.74 73.19 242.82 56.46 226.68 49.86 210.31 57.52 205.83 63.52 202.18 67.41 199.12 63.64 198.06 57.4 184.86 49.39"/><polygon class="cls-21" points="219.26 105.82 227.51 108.29 240.47 108.29 228.8 117.95 219.26 105.82"/><polygon class="cls-20" points="208.07 106.88 213.13 111.12 228.8 117.95 227.51 108.29 209.72 99.1 208.07 106.88"/><polygon class="cls-21" points="183.8 107.7 181.21 106.64 175.44 106.99 180.5 115.83 183.8 107.7"/><polygon class="cls-20" points="194.05 102.4 190.75 98.51 181.21 106.64 180.5 115.83 188.28 109.82 194.05 102.4"/><polygon class="cls-25" points="200.18 87.32 195.94 90.74 200.06 95.8 205.36 91.21 200.18 87.32"/><polygon class="cls-16" points="256.02 149.52 230.34 161.3 229.63 223.74 279.11 210.07 284.99 199.47 291.83 181.92 256.02 149.52"/><polygon class="cls-18" points="279.11 210.07 289.82 207.13 291.83 181.92 270.62 162.72 273.69 181.56 279.11 210.07"/><polygon class="cls-23" points="294.77 168.02 307.14 152.59 272.86 135.38 263.79 140.1 242.11 138.68 240.47 154.35 230.34 161.3 273.69 181.56 294.77 168.02"/><polygon class="cls-6" points="260.02 140.69 276.16 152.59 287.59 142.81 280.05 118.19 269.32 130.08 260.02 140.69"/><polygon class="cls-8" points="269.32 130.08 252.25 132.91 247.18 143.16 258.61 158.71 276.16 152.59 269.32 130.08"/><polygon class="cls-6" points="251.54 130.32 234.22 132.09 230.34 161.3 258.61 158.71 251.54 130.32"/><polygon class="cls-21" points="210.07 52.33 227.04 47.74 243.41 54.69 242.82 56.46 226.8 52.1 210.31 57.52 210.07 52.33"/><polygon class="cls-21" points="198.29 52.8 185.45 47.39 177.79 52.1 177.91 53.87 185.69 51.27 198.06 57.4 198.29 52.8"/><polygon class="cls-26" points="199.12 63.64 195.94 90.74 205.36 91.21 205.83 63.52 199.12 63.64"/><polygon class="cls-24" points="190.75 98.51 209.72 99.1 213.13 111.12 188.28 109.82 190.75 98.51"/><polygon class="cls-25" points="285.23 76.72 278.04 74.48 275.57 84.02 285.23 76.72"/><polygon class="cls-26" points="275.33 88.97 270.03 99.92 276.51 101.93 278.51 90.27 275.33 88.97"/><polygon class="cls-7" points="120.78 110.53 110.29 95.8 127.37 85.08 133.26 102.4 120.78 110.53"/><polygon class="cls-3" points="108.64 100.87 115.24 109.58 96.63 111.82 91.92 102.99 108.64 100.87"/><polygon class="cls-3" points="116.65 98.87 126.08 90.74 129.14 101.58 121.95 106.99 116.65 98.87"/><polygon class="cls-27" points="139.15 383.13 263.91 373.81 356.85 383.95 258.02 398.91 139.15 383.13"/><polygon class="cls-15" points="205.24 359.68 180.97 380.06 205.83 382.42 230.57 380.06 228.8 359.68 227.39 354.97 215.96 350.85 207.36 354.97 205.24 359.68"/><polygon class="cls-7" points="292.06 347.31 289 316.1 286.29 313.39 257.9 320.57 256.84 326.34 265.91 349.55 278.64 353.79 289.59 351.67 292.06 347.31"/><path class="cls-5" d="M289,316.09l-.7-8.24L253,317.62l3.89,8.61c10.72-4.13,21.09-6.84,32.16-10.25Z"/><polygon class="cls-3" points="294.18 360.62 292.06 347.31 265.91 349.55 270.5 362.74 271.92 367.69 283.7 373.23 293.83 366.51 294.18 360.62"/><polygon class="cls-7" points="203.59 321.28 205.24 348.61 218.32 355.8 228.57 353.2 230.45 349.32 233.87 326.93 231.16 323.63 223.62 324.46 215.96 320.57 203.59 321.28"/><polygon class="cls-5" points="202.89 314.68 203.71 323.28 233.87 326.93 235.04 318.69 202.89 314.68"/><polygon class="cls-3" points="205.24 359.68 205.24 348.61 230.45 349.32 228.8 359.68 223.5 359.68 205.24 359.68"/><polygon class="cls-28" points="139.98 151.64 129.73 170.61 119.6 170.02 137.27 144.22 139.98 151.64"/><polygon class="cls-16" points="229.39 246.47 296.89 293.12 304.2 282.29 270.98 249.53 229.39 246.47"/><polygon class="cls-16" points="229.39 246.47 304.2 282.29 284.05 235.64 229.39 246.47"/><polygon class="cls-16" points="203.71 248.12 183.57 288.41 194.28 302.66 229.39 246.47 203.71 248.12"/><path class="cls-19" d="M186,285.47l5.54,16.61Z"/><polygon class="cls-17" points="183.57 288.41 200.41 235.99 229.39 246.47 183.57 288.41"/><polygon class="cls-2" points="235.04 279.22 215.14 269.21 229.39 246.47 255.78 264.73 235.04 279.22"/><polygon class="cls-29" points="180.97 380.06 230.57 380.06 230.69 384.89 181.09 384.89 180.97 380.06"/><polygon class="cls-15" points="266.97 383.48 270.5 362.74 294.18 360.62 306.67 383.48 287.59 387.01 266.97 383.48"/><polygon class="cls-29" points="267.21 389.61 266.97 383.48 306.67 383.48 306.44 389.84 267.21 389.61"/><path class="cls-29" d="M223.74,66.35a4.36,4.36,0,1,1-4.36,4.36A4.36,4.36,0,0,1,223.74,66.35Z"/><path class="cls-29" d="M188,64.59a4.36,4.36,0,1,1-4.36,4.35A4.36,4.36,0,0,1,188,64.59Z"/><polygon class="cls-20" points="268.85 43.5 265.79 79.19 271.45 83.32 274.15 69.18 274.51 54.81 268.85 43.5"/><polygon class="cls-20" points="197.35 134.21 192.87 130.08 197.59 127.14 255.54 117.72 252.25 132.91 197.35 134.21"/><polygon class="cls-24" points="197.35 134.21 182.15 131.85 175.56 117.36 197.59 127.14 197.35 134.21"/><polygon class="cls-13" points="289.82 207.13 279.11 190.05 294.18 184.98 323.4 184.98 329.88 202.41 333.65 212.66 289.82 207.13"/><polygon class="cls-14" points="279.11 190.05 273.69 181.56 304.9 172.38 323.4 184.98 279.11 190.05"/><polygon class="cls-15" points="339.3 186.16 323.4 184.98 273.69 181.56 307.14 152.59 339.3 186.16"/><polygon class="cls-28" points="284.05 235.64 296.89 246.71 294.18 258.96 284.05 235.64"/></g><rect class="cls-30" x="0.5" y="0.5" width="399" height="399"/></g></svg>