<svg id="Layer_1" data-name="Layer 1" xmlns="http://www.w3.org/2000/svg" viewBox="0 0 400 400"><defs><style>.cls-1,.cls-15,.cls-3{fill:#2b2b2b;}.cls-2{fill:#4f5353;}.cls-3{opacity:0.1;}.cls-4{fill:#28788b;}.cls-5{fill:#1d7678;}.cls-6{fill:#369395;}.cls-7{fill:#eed2c1;}.cls-8{fill:#d0ae95;}.cls-9{fill:#50a8a9;}.cls-10{fill:#185e60;}.cls-11{fill:#74cee4;}.cls-12{fill:#5ebfd8;}.cls-13{fill:#3a9fb9;}.cls-14{fill:#318ea5;}.cls-15{fill-opacity:0.2;}.cls-16{fill:#474748;}.cls-17{fill:#a8836c;}.cls-18{fill:#fff;}.cls-19{fill:#72cbcb;}.cls-20{fill:#f6e5db;}</style></defs><title>sentinels_ESTJ_famous_real_sonia_sotomayor</title><polygon class="cls-1" points="164.47 143.28 147.8 163.53 160.55 166.61 165.31 175.79 183.25 160.87 170.99 144.75 164.47 143.28"/><polygon class="cls-2" points="146.33 130.67 137.08 129.9 131.47 154.56 147.8 163.53 180.45 146.44 169.17 120.23 146.33 130.67"/><polygon class="cls-3" points="117.18 387.18 198.17 376.18 281.9 388.58 197.75 400 117.18 387.18"/><polygon class="cls-4" points="147.24 326.15 161.53 320.48 179.4 326.08 179.4 359.92 167.14 363.01 155.37 357.89 147.24 326.15"/><polygon class="cls-5" points="137.57 385.22 135.75 379.61 155.78 370.78 169.38 368.26 179.4 369.52 179.4 381.78 172.74 382.83 171.62 377.51 164.47 385.08 137.57 385.22"/><polygon class="cls-6" points="159.92 380.03 169.87 369.52 179.4 369.73 179.4 359.85 155.37 357.89 135.75 379.61 159.92 380.03"/><polygon class="cls-7" points="264.81 257.84 258.92 277.53 263.75 279.77 269.36 272.2 270.9 256.16 264.81 257.84"/><polygon class="cls-7" points="272.02 280.75 281.69 272.13 296.26 271.71 293.74 292.59 278.82 297.64 272.02 280.75"/><polygon class="cls-8" points="264.81 257.84 272.02 280.75 296.26 271.71 283.37 256.72 272.65 254.2 264.81 257.84"/><polygon class="cls-9" points="291.22 256.23 255.56 267.23 243.79 258.82 246.03 213.63 278.4 223.58 291.22 256.23"/><polygon class="cls-6" points="250.58 223.02 278.4 223.58 258.5 170.19 244.77 165.14 242.03 167.38 241.47 197.44 250.58 223.02"/><polygon class="cls-4" points="245.61 326.01 225.78 319.92 210.09 326.08 221.09 359.92 233.63 363.01 244.35 359.99 245.61 326.01"/><path class="cls-10" d="M134.27,221.41,132,326.22c13.81-.07,32.79-.14,52.2-.14l-2.45-84.36-26.84-16.18Z"/><path class="cls-5" d="M250.58,223l-33.42-5.61-40.36,21.3,2.6,87.37c33.77-.07,69.85-.07,82.81.07Z"/><polygon class="cls-9" points="192.92 187.35 216.39 172.08 234.68 156.46 240.14 164.23 244.77 165.14 250.58 223.02 212.19 224.21 192.92 187.35"/><polygon class="cls-6" points="201.12 191.84 239.51 160.24 227.04 157.79 193.41 168.3 188.93 173.97 196.14 189.6 201.12 191.84"/><polygon class="cls-7" points="89.5 123.39 106.11 117.99 114.31 135.51 102.33 141.53 88.87 143.28 89.5 123.39"/><polygon class="cls-8" points="94.9 163.04 88.87 143.28 114.31 135.51 113.33 150.92 99.03 167.31 94.9 163.04"/><polygon class="cls-7" points="121.8 144.12 102.05 153.44 102.19 162.34 109.68 167.31 124.82 148.19 121.8 144.12"/><polygon class="cls-6" points="73.18 165.14 114.1 161.01 112.77 192.89 101.77 206.76 87.05 212.37 73.18 165.14"/><polygon class="cls-9" points="134.28 221.41 87.05 212.37 141.21 171.38 143.24 176.91 139.25 218.46 134.28 221.41"/><polygon class="cls-6" points="141.21 171.38 134.28 221.41 144.78 214.61 166.57 184.48 160.55 166.61 141.21 171.38"/><polygon class="cls-10" points="163.14 188.54 160.55 166.61 175.54 163.32 177.15 169.84 175.54 173.55 163.14 188.54"/><polygon class="cls-9" points="171.13 262.74 177.29 256.02 183.74 262.46 177.72 268.7 171.13 262.74"/><polygon class="cls-9" points="172.18 299.11 178.41 292.38 184.86 298.9 178.77 305.06 172.18 299.11"/><polygon class="cls-11" points="214.01 223.02 223.47 223.86 188.93 173.97 192.85 196.67 204.55 227.57 214.01 223.02"/><polygon class="cls-12" points="175.4 175.16 188.29 208.3 204.55 227.57 188.93 173.97 175.4 175.16"/><polygon class="cls-11" points="195.16 227.78 187.31 237.17 177.72 213.91 178.7 177.97 204.55 227.57 195.16 227.78"/><polygon class="cls-12" points="167.56 238.15 177.44 233.81 187.31 237.17 178.7 177.97 169.1 210.34 167.56 238.15"/><polygon class="cls-11" points="151.37 231.07 160.2 229.81 167.56 238.15 178.7 177.97 160.97 202.21 151.37 231.07"/><polygon class="cls-12" points="176.03 170.68 159.71 198.21 151.37 231.07 178.7 177.97 176.94 172.36 176.03 170.68"/><polygon class="cls-11" points="144.01 223.72 134.28 221.41 176.03 170.68 151.37 231.07 144.01 223.72"/><polygon class="cls-13" points="134.28 221.41 144.01 223.72 151.37 231.07 138.2 233.39 134.28 221.41"/><polygon class="cls-13" points="154.94 241.23 151.37 231.07 160.97 231.56 167.56 238.15 154.94 241.23"/><polygon class="cls-14" points="177.09 247.61 167.56 238.15 177.15 235.42 187.31 237.17 177.09 247.61"/><polygon class="cls-13" points="204.55 227.57 194.88 230.09 187.31 237.17 198.94 238.71 204.55 227.57"/><polygon class="cls-13" points="223.47 223.86 213.87 223.72 204.55 227.57 217.44 234.02 223.47 223.86"/><polygon class="cls-12" points="146.33 220.5 134.28 221.41 151.37 231.07 146.33 220.5"/><polygon class="cls-12" points="162.51 227.01 151.37 231.07 167.56 238.15 162.51 227.01"/><polygon class="cls-13" points="176.73 229.46 167.56 238.15 187.31 237.17 176.73 229.46"/><polygon class="cls-12" points="192.85 225.05 187.94 236.82 204.55 227.57 192.85 225.05"/><polygon class="cls-12" points="212.61 218.46 204.55 227.57 223.47 223.86 212.61 218.46"/><path class="cls-15" d="M147.24,326.15l32.16,11.56V326.08Zm63-.14h0l3.36,10.93,32-10.93Z"/><path class="cls-8" d="M166.15,144.19l21.58,30.27,33.71-14.29,17-47.58-8.83-8.82L231,81.56l12.9,1s-8.69-24.88-6.73-23.55-64.32,4-62.36,3.44S166.15,144.19,166.15,144.19Z"/><polygon class="cls-1" points="236.36 136.28 221.51 141.39 221.44 160.17 244.77 165.14 249.6 136.84 236.36 136.28"/><polygon class="cls-16" points="235.03 84.78 230.69 86.32 226.83 102.22 244.91 119.18 274.69 129.9 262.28 93.96 259.69 86.6 235.03 84.78"/><polygon class="cls-2" points="235.03 69.5 271.11 76.93 262.28 93.96 223.05 84.43 235.03 69.5"/><polygon class="cls-1" points="242.88 42.88 255.98 64.04 271.11 76.93 223.05 84.43 195.23 26 209.59 21.58 242.88 42.88"/><polygon class="cls-16" points="194.6 28.66 213.45 17.66 229.14 12.61 249.46 30.48 255.98 64.04 205.81 25.43 194.6 28.66"/><path class="cls-1" d="M138.55,105.59l-5.82,4.27L126,130.53l5.46,24,19.9-20.39,1.89-12.54s-4.69-9.53-3.64-12.26S138.55,105.59,138.55,105.59Z"/><polygon class="cls-16" points="121.73 100.61 113.89 115.05 126.92 134.81 138.69 127.31 146.33 113.5 145.69 99.84 121.73 100.61"/><polygon class="cls-16" points="127.13 53.04 119.42 76.37 123.34 93.4 138.69 103.7 149.83 96.13 146.54 62.57 127.13 53.04"/><polygon class="cls-1" points="140.93 89.4 123.34 93.4 113.89 115.05 137.08 103.98 140.93 89.4"/><polygon class="cls-2" points="179.68 0 124.54 32.16 171.9 29.36 164.75 25.57 177.29 17.94 179.68 0"/><polygon class="cls-16" points="213.45 17.66 179.68 0 164.75 25.57 171.9 29.36 179.68 28.87 213.45 17.66"/><polygon class="cls-16" points="124.54 32.16 119.42 76.37 146.26 46.03 201.12 43.09 203.15 40.08 192.36 40.08 183.39 31.04 164.75 25.57 124.54 32.16"/><polygon class="cls-1" points="203.15 40.08 205.81 25.43 213.45 17.66 164.75 25.57 192.36 40.08 203.15 40.08"/><polygon class="cls-1" points="171.69 54.37 192.36 40.08 143.59 34.82 119.42 76.37 137.01 65.72 171.69 54.37"/><polygon class="cls-2" points="205.81 25.43 192.36 40.08 198.81 60.12 223.05 84.43 205.81 25.43"/><polygon class="cls-17" points="175.26 144.05 191.45 151.69 216.11 152.04 187.73 174.46 178.7 177.97 166.29 152.11 175.26 144.05"/><polygon class="cls-7" points="137.01 65.72 138.69 127.31 166.29 152.11 191.45 151.69 221.85 127.17 223.05 84.43 192.36 40.08 151.37 44.49 137.01 65.72"/><path class="cls-18" d="M158.8,122.19c.07-.28,33.07,0,33.07,0L181.22,130h-13C168,130,158.8,122.19,158.8,122.19Z"/><polygon class="cls-2" points="230.19 130.74 221.51 141.39 244.77 165.14 263.19 136.14 243.86 126.96 230.19 130.74"/><polygon class="cls-8" points="151.58 73.15 162.3 77.42 170.22 84.85 172.95 87.51 176.59 84.85 184.37 76.86 185.42 74.83 201.89 71.4 210.44 73.08 196.14 85.83 181.29 109.93 171.06 104.4 166.85 103.77 152.77 87.23 138.83 75.95 149.27 72.73 151.58 73.15"/><polygon class="cls-19" points="169.45 128.15 180.24 127.8 189.63 122.26 189.84 121.28 196.42 120.51 181.43 131.79 168.89 132 155.29 120.79 159.78 122.12 169.45 128.15"/><polygon class="cls-17" points="170.57 106.01 165.73 109.93 173.44 114.14 181.29 109.93 170.57 106.01"/><polygon class="cls-20" points="170.22 84.85 165.73 109.93 181.29 109.93 176.59 84.85 170.22 84.85"/><polygon class="cls-9" points="155.29 120.79 160.76 121.21 169.8 119.6 179.96 119.39 188.57 120.72 196.42 120.51 193.41 122.75 174.7 123.73 158.03 122.96 155.29 120.79"/><polygon class="cls-8" points="163.07 107.9 152.28 116.24 150.11 120.72 148.99 112.94 163.07 107.9"/><polygon class="cls-8" points="185.35 107.9 199.23 115.4 202.73 120.58 202.59 112.73 185.35 107.9"/><path class="cls-1" d="M155.92,81.07a4.34,4.34,0,1,1-4.34,4.34A4.34,4.34,0,0,1,155.92,81.07Z"/><polygon class="cls-2" points="163.35 74.9 149.55 71.05 138.83 75.95 148.29 74.06 162.3 77.42 163.35 74.9"/><polygon class="cls-2" points="183.53 74.34 199.65 69.86 210.44 73.08 201.47 72.87 184.37 76.86 183.53 74.34"/><polygon class="cls-1" points="226.83 102.22 230.19 130.74 263.19 136.14 274.69 129.9 226.83 102.22"/><path class="cls-1" d="M195.58,80.58a4.34,4.34,0,1,1-4.34,4.34A4.34,4.34,0,0,1,195.58,80.58Z"/><polygon class="cls-8" points="140.23 108.25 146.33 112.94 142.05 117.85 140.23 108.25"/><polygon class="cls-8" points="208.12 112.73 218.07 107.62 216.67 117.78 208.12 112.73"/><polygon class="cls-6" points="215.62 380.03 230.05 381.85 252.54 379.61 244.35 359.99 221.09 359.92 215.62 380.03"/><polygon class="cls-5" points="218 386.9 250.86 386.9 252.54 379.61 215.62 380.03 218 386.9"/></svg>