<svg id="illustration_layer_copy_3" data-name="illustration_layer copy 3" xmlns="http://www.w3.org/2000/svg" viewBox="0 0 400 400"><defs><style>.cls-1,.cls-16,.cls-22{fill:#2b2b2b;}.cls-1{opacity:0.1;}.cls-2{fill:#709c53;}.cls-3{fill:#5a753d;}.cls-4{fill:#c1907d;}.cls-5{fill:#446125;}.cls-6{fill:#595959;}.cls-7{fill:#f4c9b2;}.cls-8{fill:#fce3d4;}.cls-9{fill:#3f8e6f;}.cls-10{fill:#35785d;}.cls-11{fill:#444;}.cls-12{fill:#515151;}.cls-13{fill:#636363;}.cls-14{fill:#ffefe7;}.cls-15{fill:#474747;}.cls-17{fill:#666;}.cls-18{fill:#54af8a;}.cls-19{fill:#e7ef78;}.cls-20{fill:#ececeb;}.cls-21{fill:#c4c4c4;}.cls-22{opacity:0.2;}.cls-23{fill:#fff;}.cls-24{fill:#4c4c4c;}.cls-25{fill:#6d6d6d;}.cls-26{fill:#878787;}.cls-27{fill:#5b5b5b;}.cls-28{fill:#939393;}.cls-29{fill:#9fce7e;}</style></defs><title>diplomats_ENFP_famous_real_quentin_tarantino</title><polygon class="cls-1" points="102 383.18 207.69 367.34 309.5 386.5 213 400 102 383.18"/><polygon class="cls-2" points="240 362.67 231.67 383.67 250.64 387.5 272.75 383.67 268.94 365.33 252.33 359 240 362.67"/><rect class="cls-3" x="231.67" y="383.67" width="41.08" height="7.67"/><polygon class="cls-2" points="152.34 353.68 119.8 377.34 154.5 379.68 177 377.34 177.31 368.34 165.67 354.45 152.34 353.68"/><polygon class="cls-3" points="119.8 377.34 119.92 385.01 177.31 385.01 177 377.34 119.8 377.34"/><polygon class="cls-4" points="101.97 175.44 91.47 170.52 107.97 144.27 116.88 153.85 113.35 167.52 101.97 175.44"/><polyline class="cls-5" points="165.62 161.01 139.63 170.21 128.97 183.77 131.97 205.69 167.97 209.35 168 168.83"/><polygon class="cls-2" points="139.63 170.21 130.91 164.06 123.36 157.42 116.77 154.02 101.97 175.44 131.97 205.69 139.63 170.21"/><rect class="cls-6" x="88.17" y="134.9" width="15" height="46.45" transform="translate(109.29 -26.18) rotate(35.4)"/><polygon class="cls-7" points="89.75 134.85 80.26 147.52 80.27 166.85 97.7 159.85 100.56 140.11 89.75 134.85"/><polygon class="cls-8" points="107.44 167.52 101.97 153.77 97.7 159.85 91.11 155.02 100.56 140.11 116.77 154.02 107.44 167.52"/><polygon class="cls-9" points="208.67 309.34 194.2 334.65 171.63 338.68 155.73 311.96 159.33 264.5 196 286.42 208.67 309.34"/><polygon class="cls-9" points="208.67 309.34 221.72 331.07 249.33 337 267.3 322.55 265.67 288.76 250.64 247.67 231 269.5 208.67 309.34"/><polygon class="cls-10" points="159.33 264.5 208.67 309.34 240 269.5 159.33 264.5"/><polygon class="cls-10" points="297.82 86.74 285.53 92.19 273.94 77.44 280.27 66.29 297.82 86.74"/><polygon class="cls-11" points="277.11 106.93 277.11 122.13 261.21 128.31 252.53 115.36 262.36 106.93 271.81 101.89 277.11 106.93"/><polygon class="cls-12" points="285.53 92.19 277.11 106.93 262.36 106.93 275.35 83.76 285.53 92.19"/><polygon class="cls-13" points="158.78 33.55 146.84 54.49 154.49 74.28 158.78 59.53 158.78 33.55"/><polygon class="cls-8" points="158.78 33.55 148.6 130.1 174.58 133.62 195.65 147.31 206.18 179.61 212.85 192.25 219.87 177.15 251.47 152.58 270.08 91.13 257.79 80.25 243.31 43.77 158.78 33.55"/><polygon class="cls-7" points="243.31 43.77 230.06 142.04 189 138.88 192.02 151.35 204.07 180.67 210.29 200.49 223.74 184.18 251.47 152.58 261.21 128.31 262.36 116.64 268.27 110.71 277.11 88.67 263.06 76.03 254.63 45.14 243.31 43.77"/><polygon class="cls-7" points="222.33 69.01 190.73 94.64 160.53 60.94 172.3 59.53 184.27 64.04 192.88 65.16 208.46 63.74 222.33 69.01"/><polygon class="cls-4" points="177.56 92.89 183.53 101.89 190.73 94.64 177.56 92.89"/><polygon class="cls-14" points="192.88 65.16 190.73 94.64 183.89 95.84 177.56 92.89 184.27 64.04 192.88 65.16"/><polygon class="cls-4" points="162.6 98.2 183.27 106.23 213.29 104.12 213.29 108.34 182.74 110.71 161.68 101.89 162.6 98.2"/><polygon class="cls-7" points="213.29 104.12 194.2 95.3 207.63 95.84 213.29 104.12"/><polygon class="cls-7" points="162.6 98.2 174.58 92.89 164.84 92.89 162.6 98.2"/><polygon class="cls-15" points="192.88 65.16 194.94 61.81 209.34 60.94 222.86 66.03 222.33 69.01 207.61 64.97 192.88 65.16"/><polygon class="cls-15" points="184.27 64.04 184.15 60.94 172.12 56.72 160.53 58.13 160.53 60.94 171.24 60.94 184.27 64.04"/><circle class="cls-16" cx="208.81" cy="74.28" r="3.16"/><circle class="cls-16" cx="170.37" cy="69.45" r="3.16"/><polygon class="cls-17" points="257.19 54.49 249.72 66.29 256.68 77.44 244.1 98.2 254.28 101.89 264.46 83.76 277.11 88.67 285.53 92.19 277.11 69.01 257.19 54.49"/><polygon class="cls-4" points="158.78 33.55 254 59.53 257.19 54.49 213.29 40.14 158.78 33.55"/><polygon class="cls-4" points="268.27 110.71 255.34 106.93 261.21 128.31 268.27 110.71"/><polygon class="cls-4" points="261.8 101.89 266.22 90.17 272.28 92.89 261.8 101.89"/><polygon class="cls-11" points="254 59.53 285.53 92.19 280.27 66.29 257.19 54.49 254 59.53"/><polygon class="cls-18" points="158.78 33.55 189 0 252.53 9.48 252.53 35.3 242.51 49.69 158.78 33.55"/><polygon class="cls-9" points="252.53 9.48 292.55 60.59 297.82 86.74 242.51 49.69 252.53 9.48"/><polygon class="cls-19" points="195.72 40.67 202.03 41.89 212.56 3.52 207 2.69 195.72 40.67"/><polygon class="cls-19" points="184.16 38.44 194.4 0.81 189 0 177.59 37.18 184.16 38.44"/><polygon class="cls-4" points="172.4 133.32 242.51 143.45 208.81 166.8 172.4 133.32"/><polygon class="cls-20" points="251.47 152.58 227 220.51 226.3 286.92 213 289.34 203 275.67 195.75 288 184 286.92 190.69 212.01 192.02 151.35 207 179.68 210.9 199.49 221.66 182.01 251.47 152.58"/><polygon class="cls-21" points="207 179.68 193 191.68 193.5 172.68 207 179.68"/><polygon class="cls-21" points="221.66 182.01 235.49 195.95 246.33 186.84 238.71 175.73 221.66 182.01"/><polygon class="cls-3" points="192.02 151.35 165.62 161.01 159.33 264.5 184 286.92 197.07 216.01 190.69 190.34 192.02 151.35"/><polygon class="cls-3" points="251.47 152.58 238.71 189.01 216.5 218.51 226.3 286.92 248.79 274.61 252.33 261.58 278.5 236.68 278.5 163.01 251.47 152.58"/><polygon class="cls-2" points="250 167.51 256.56 179.68 262.66 203.51 216.5 218.51 238.71 175.73 250 167.51"/><polygon class="cls-2" points="189.25 162.84 177 175.73 168 191.68 197.07 216.01 193.46 172.68 189.25 162.84"/><polygon class="cls-22" points="234 184.82 256.57 179.68 238.71 175.73 234 184.82"/><polygon class="cls-22" points="177 175.73 194.25 182.18 193.5 172.68 177 175.73"/><polygon class="cls-23" points="238.71 175.73 256.57 179.68 251.47 152.58 238.71 175.73"/><polygon class="cls-23" points="193.5 172.68 177 175.73 192.02 151.35 193.5 172.68"/><polygon class="cls-10" points="155.73 311.96 152.34 353.68 177.31 368.34 194.2 334.65 155.73 311.96"/><polygon class="cls-10" points="240 362.67 268.94 365.33 267.3 322.55 221.72 331.07 240 362.67"/><polygon class="cls-5" points="278.5 163.01 309.66 237.34 289.33 237.01 271.33 228.01 278.5 163.01"/><polygon class="cls-2" points="271.33 228.01 256.67 253.88 259.57 259.67 272.75 271.01 309.66 237.34 271.33 228.01"/><polygon class="cls-7" points="256.67 253.88 252.33 261.58 265.67 288.76 272.75 271.01 256.67 253.88"/><rect class="cls-24" x="70.8" y="98.42" width="12" height="14.29" transform="translate(78.25 236.09) rotate(-144.6)"/><rect class="cls-25" x="61.1" y="88.24" width="14" height="22.29" transform="translate(70.16 -21.08) rotate(35.4)"/><polygon class="cls-26" points="116.77 154.02 69.2 120.28 88.2 93.55 149.87 137.38 132.37 151.9 116.77 154.02"/><polygon class="cls-27" points="124.07 142.62 91.47 119.45 102.63 103.73 120.93 112.52 135.24 126.9 124.07 142.62"/><polygon class="cls-28" points="132.32 113.73 116.03 102.15 102.63 103.73 135.24 126.9 132.32 113.73"/><polygon class="cls-25" points="149.87 137.38 116.77 154.02 130.91 164.06 149.87 137.38"/><rect class="cls-29" x="119.36" y="131.42" width="2.88" height="5.5" transform="translate(-58.4 156.09) rotate(-54.98)"/><polygon class="cls-21" points="210.9 199.49 208 242.76 203 275.67 203.75 241.76 210.9 199.49"/></svg>