<svg id="Layer_1" data-name="Layer 1" xmlns="http://www.w3.org/2000/svg" viewBox="0 0 400 400"><defs><style>.cls-1{fill:#6f9d52;}.cls-1,.cls-10,.cls-11,.cls-12,.cls-13,.cls-14,.cls-15,.cls-16,.cls-17,.cls-2,.cls-3,.cls-4,.cls-5,.cls-6,.cls-7,.cls-8,.cls-9{fill-rule:evenodd;}.cls-2{fill:#a0cf7f;}.cls-3{fill:#54b08b;}.cls-17,.cls-4{fill:#2b2b2b;}.cls-4{opacity:0.1;}.cls-5{fill:#737474;}.cls-6{fill:#99c26c;}.cls-7{fill:#c0db8f;}.cls-8{fill:#ececeb;}.cls-9{fill:#c2987a;}.cls-10{fill:#8b6651;}.cls-11{fill:#dfbda5;}.cls-12{fill:#74c7a5;}.cls-13{fill:#e9cbb7;}.cls-14{fill:#fff;}.cls-15{fill:#070908;opacity:0.15;}.cls-16{fill:#4f5353;}</style></defs><title>diplomats_INFJ_famous_real_mother_teresa</title><polygon class="cls-1" points="220.03 126.87 220.03 141.65 206.2 163.11 178.65 156.92 171.86 151.67 172.35 145.8 200 146.42 220.03 126.87"/><polygon class="cls-2" points="139.91 190.78 120.35 188.87 126.55 168.84 130.84 161.21 127.62 155.39 127.84 152.58 128.71 151.11 128.16 148.93 128.4 146.12 128.92 145.74 128.68 142.61 128.94 138.79 147.06 128.3 164.95 133.54 167.3 136.3 152.82 164.77 150.64 181.48 139.91 190.78"/><polygon class="cls-3" points="128.68 142.61 168.87 132.47 176.62 136.1 167.3 136.3 128.4 146.12 128.68 142.61"/><polygon class="cls-3" points="149.92 162.64 149.92 162.64 157.55 156.91 161.72 145.74 127.62 155.39 126.58 168.42 149.92 162.64"/><polygon class="cls-3" points="128.16 148.93 166.92 138.79 165.35 142.62 127.84 152.58 128.16 148.93"/><polygon class="cls-1" points="146.79 211.59 145.15 204.61 132.97 212.3 134.18 221.3 141.34 227.83 146.79 211.59"/><polygon class="cls-1" points="261.52 377.74 209.26 375.46 119.04 363.58 196.44 352.48 253.89 372.01 261.52 377.74"/><polygon class="cls-4" points="272.73 389.14 189.35 400 102.23 385.03 199.52 375.25 272.73 389.14"/><polygon class="cls-5" points="236.93 384.45 229.16 388.98 210.93 388.23 205.3 384.45 211.24 357.72 220.47 355.55 227.53 362.61 236.93 384.45"/><polygon class="cls-5" points="186.41 357.15 186.69 379.84 175.62 381.3 150.54 381.44 139.6 379.84 167.06 357.69 177.81 353.93 186.41 357.15"/><polygon class="cls-6" points="119.04 363.58 123.69 335.29 131.8 331.95 196.44 352.48 196.88 357.83 119.04 363.58"/><path class="cls-7" d="M261.53,377.74l-3.94-6,4.26-2.61,0-1.19-1.33-2.36,1.47-1.37.06-1.52-2.49-2.17,2.63-1.49,3.37-87.86-1.7-5.55,2.17-6.87h0l.22-5.54-9.54-7.15-63.44-13.83-1.43-18.6L158,187.91l-6.68,9.54-.83,4-5.37,3.16L127,315.45l.93,2.27-1.47,1-.3,1.85,2.2,3.17-2.74.12-.35,2.09,2.89,4.82-4.42,4.5,137.84,42.45ZM208.11,183.15h0L223.37,208l-10.21-.46L172.33,189.1l9.82-26,10.67,2.9Z"/><polygon class="cls-8" points="160.21 225.05 162.71 220.45 166.15 222.72 167.05 224.23 165.23 227.93 160.21 225.05"/><polygon class="cls-3" points="224.62 214.64 224.47 218.47 191.96 210.51 171.15 180.61 172.02 178.33 175.63 180.76 194.59 207.43 224.62 214.64"/><polygon class="cls-3" points="265.28 279.71 265.13 283.54 229.47 274.87 202.61 236.81 203.48 234.53 207.09 236.96 232.09 271.79 265.28 279.71"/><polygon class="cls-6" points="253.67 224.46 262 234.18 266.3 253.25 245.79 247.06 253.67 224.46"/><polygon class="cls-2" points="225.75 151.73 208.11 165.98 193.8 164.54 191.83 167.47 218.84 206.28 223.85 198.88 225.75 151.73"/><polygon class="cls-6" points="225.75 148.33 223.85 156.44 209.54 170.75 183.78 165.98 177.11 161.21 177.15 155.76 204.77 159.3 220.03 141.65 225.75 148.33"/><polygon class="cls-3" points="244.08 252.7 244.08 252.7 183.78 165.98 178.06 172.65 178.62 179.65 237.43 263.92 265.61 271.21 266.08 258.79 244.08 252.7"/><polygon class="cls-3" points="265.51 273.73 265.36 277.56 232.85 269.6 212.04 239.7 212.91 237.42 216.52 239.85 235.48 266.52 265.51 273.73"/><polygon class="cls-3" points="261.52 377.74 123.69 335.29 125.22 325.97 261.85 369.17 261.52 377.74"/><polygon class="cls-9" points="150.64 181.48 120.35 188.87 124.64 208.66 132.53 214.93 158.98 195.72 156.6 184.1 150.64 181.48"/><polygon class="cls-7" points="107.95 228.46 141.34 227.83 120.35 188.87 107.95 228.46"/><polygon class="cls-9" points="167.3 136.3 168.52 168.84 157.08 174.56 149.92 162.64 167.3 136.3"/><polygon class="cls-10" points="150.64 181.48 149.92 162.64 166.14 174.56 158.98 195.72 150.64 181.48"/><polygon class="cls-9" points="162.47 171.86 158.98 195.72 171.26 196.17 175.68 187.44 183.78 165.98 171.39 163.11 162.47 171.86"/><polygon class="cls-11" points="188.56 224.64 162.5 199.16 161.43 199.64 158.98 195.72 175.68 187.44 198.33 197.45 195.96 213.84 188.56 224.64"/><polygon class="cls-2" points="182.83 237.04 198.33 197.45 218.84 206.28 233.86 218.92 245.79 247.06 182.83 237.04"/><polygon class="cls-7" points="223.85 156.44 218.84 206.28 245.79 247.06 256.76 226.55 253.42 210.81 233.86 166.45 223.85 156.44"/><polygon class="cls-2" points="297.77 181.24 279.79 222.84 277.46 225.48 277.28 228.13 276.12 230.79 272.78 232.39 273.56 237.01 272.21 240.28 265.25 242.85 266.3 253.25 254.31 225.92 223.85 156.44 260.57 162.16 297.77 181.24"/><polygon class="cls-7" points="270.59 134.5 297.77 181.24 223.85 156.44 243.88 140.7 270.59 134.5"/><polygon class="cls-3" points="276.12 230.79 245.6 163.74 241.96 160.54 242.01 162.53 273.56 237.01 276.12 230.79"/><polygon class="cls-3" points="279.79 222.84 252.58 166.07 248.94 162.88 248.99 164.87 277.28 228.13 279.79 222.84"/><polygon class="cls-2" points="273.93 67.73 270.59 134.5 223.85 156.44 217.78 128 237.2 95.87 273.93 67.73"/><polygon class="cls-7" points="262 31.96 273.93 67.73 252.69 89.58 250.08 89.19 245.6 96.87 241.02 101.59 226.23 77.26 222.42 57.23 243.4 35.29 262 31.96"/><polygon class="cls-2" points="236.25 6.2 262 31.96 222.42 57.23 224.8 25.28 236.25 6.2"/><polygon class="cls-7" points="121.31 73.93 131.8 68.2 143.83 72.11 147.06 101.59 157.83 132.34 128.94 138.79 121.31 73.93"/><polygon class="cls-2" points="136.57 28.14 149.92 47.37 143.83 72.11 121.31 73.93 136.57 28.14"/><polygon class="cls-7" points="154.69 45.79 151.35 59.62 142.74 59.63 139.96 51.83 136.57 28.14 150.4 31.48 154.69 45.79"/><polygon class="cls-2" points="167.57 0 164.94 25.51 154.69 45.79 136.57 28.14 167.57 0"/><polygon class="cls-12" points="139.36 30.86 139.36 30.86 141.55 31.04 141.48 32.92 138.13 39.1 137.54 34.98 139.36 30.86"/><polygon class="cls-7" points="236.25 6.2 167.57 0 154.69 45.79 181.88 56.28 222.42 57.23 236.25 6.2"/><polygon class="cls-12" points="230.05 29.05 230.05 29.05 230.71 31.73 228.82 33.59 161.01 23.07 159.8 22.04 162.15 19 230.05 29.05"/><path class="cls-10" d="M200,150.71l-27.65-4.91s-3-3.22-3.83-3.19-1.22-6.31-1.22-6.31l4.56-1.8,31.48.95,4.24,5.42Z"/><polygon class="cls-9" points="229.46 115.43 206.11 142.78 194.48 139.74 212.88 105.4 225.93 54.99 235.26 87.38 229.46 115.43"/><polygon class="cls-10" points="229.46 115.43 228.14 101.59 233.44 102.09 236.53 106.97 229.46 115.43"/><polygon class="cls-11" points="235.26 87.38 228.14 101.59 236.53 106.97 241.02 101.59 239.42 97.64 237.44 96.58 237.37 92.57 235.26 87.38"/><polygon class="cls-10" points="237.37 92.57 234.1 98.96 239.42 97.64 237.37 92.57"/><polygon class="cls-11" points="222.42 57.23 233.51 69.01 222.97 108.27 194.48 139.74 157.83 132.34 139.96 93.72 143.83 72.11 142.64 64.03 153.47 44.59 222.42 57.23"/><path class="cls-9" d="M203.34,63.91l-11.45-.48-7.79,2.4-1.57,12.55L182.64,89,211.3,66.59l-8-2.68ZM178.7,65.2l-5.41-4.15-3.81-3.34H156.12L171.27,86l8.86-8.46Z"/><polygon class="cls-9" points="201.43 107.79 184.4 92.69 181.59 89.62 184.38 87.59 190.06 92.45 201.43 107.79"/><polygon class="cls-9" points="172.81 84.42 169.95 91.1 157.08 100.16 165.92 89.38 172.81 84.42"/><polygon class="cls-9" points="221.36 80 212.75 76.66 219.76 84.42 221.36 80"/><polygon class="cls-9" points="154.93 68.99 147.78 70.9 149.92 75.23 154.93 68.99"/><polygon class="cls-5" points="211.3 66.59 209.06 62 195.91 59.82 191.89 63.43 211.3 66.59"/><polygon class="cls-5" points="173.29 61.05 171.86 56.28 159.22 54.37 156.12 57.71 173.29 61.05"/><polygon class="cls-13" points="184.4 92.69 184.3 65.82 178.7 65.2 168.9 91.02 175.92 93.72 184.4 92.69"/><polygon class="cls-10" points="175.57 98.41 184.4 92.69 168.9 91.02 175.57 98.41"/><polygon class="cls-10" points="193.32 108.03 162.32 103.02 167.57 114.71 184.26 117.33 193.32 108.03"/><polygon class="cls-14" points="188.08 109.7 166.62 106.36 169.24 112.32 183.31 114.94 188.08 109.7"/><polygon class="cls-12" points="143.83 72.11 153.66 44.7 151.06 39.61 148.12 39.38 139.96 51.83 143.83 72.11"/><polygon class="cls-12" points="158.19 33.34 155.08 37.28 153.64 44.76 222.42 57.23 228.5 45.88 226.17 43.39 158.19 33.34"/><polygon class="cls-12" points="252.69 89.58 237.87 47.37 232.91 47.7 222.42 57.23 241.02 101.59 252.69 89.58"/><polygon class="cls-12" points="143.52 34.91 143.52 34.91 145.71 35.08 145.63 36.96 139.28 47.13 138.66 42.81 143.52 34.91"/><polygon class="cls-12" points="228.27 35.63 228.27 35.63 228.93 38.3 227.04 40.17 159.23 29.64 158.02 28.61 160.37 25.58 228.27 35.63"/><polygon class="cls-12" points="256.82 85.33 254.45 87.77 240.09 45.95 231.74 40.36 243.36 43.86 256.82 85.33"/><polygon class="cls-3" points="148.12 39.38 147.62 38.9 153.64 44.76 158.19 33.34 148.12 39.38"/><polygon class="cls-3" points="237.87 47.37 226.17 43.39 222.42 57.23 237.87 47.37"/><polygon class="cls-3" points="160.37 25.58 160.37 25.58 159.23 29.64 145.63 36.96 143.52 34.91 160.37 25.58"/><polygon class="cls-3" points="243.36 43.86 240.09 45.95 227.04 40.17 228.27 35.63 243.36 43.86"/><polygon class="cls-3" points="216.27 130.77 226.51 118.86 234.87 155.98 233.92 159.81 223.85 156.44 216.27 130.77"/><polygon class="cls-3" points="266.3 253.25 223.85 156.44 233.1 157.88 238.18 161.25 272.21 240.28 266.3 253.25"/><polygon class="cls-3" points="236.98 150.27 239.61 150.26 240.6 148.57 233.98 110.02 229.46 115.43 236.98 150.27"/><polygon class="cls-11" points="183.78 165.98 162.47 171.86 167.3 136.3 183.78 165.98"/><polygon class="cls-3" points="261.9 367.98 125.56 323.88 126.11 320.59 262.04 364.25 261.9 367.98"/><path class="cls-15" d="M187.84,252.6l57.95-5.54-63-10,5,15.56Zm20.74-50.74h0l10.26,4.42,5-49.84-15.27,45.42ZM182.83,237h0l-9.08-26.88L187.93,224l-5.1,13ZM159,195.72h0l-14,10.2-3.6,21.91,15.14-27.51.77-.07Z"/><polygon class="cls-8" points="156.48 200.32 158.98 195.72 162.43 199.09 160.48 204.21 156.48 200.32"/><polygon class="cls-12" points="223.85 156.44 223.85 156.44 233.91 151.71 238.18 161.25 223.85 156.44"/><polygon class="cls-12" points="242.01 162.53 245.6 163.74 240.6 148.57 236.98 150.27 242.01 162.53"/><path class="cls-8" d="M176.63,234.45l-7.87-.24L169,228l-5.3-.12-2.33,1.31,4.29,8.11,7.4.72,1.93,4.34,1.89-1.19-.25-6.73Zm-7.74,7.44h0l1.07,14.5-1.89,1.69-1.21-4.79-.24-12.64,2.27,1.24Zm-7-5h0l-6.92-1.67,1.14-1,7.21.08Z"/><polygon class="cls-14" points="174.64 236.48 167.13 235.98 166.86 229.44 161.37 229.21 161.65 235.62 154.93 235.17 154.27 240.73 161.29 241.29 160.21 258.08 168.07 258.08 167.38 241.77 174.99 242.37 174.64 236.48"/><polygon class="cls-16" points="139.64 387.07 186.72 387.07 186.69 379.84 139.6 379.84 139.64 387.07"/><polygon class="cls-16" points="205.42 391.09 237.05 391.09 236.93 384.45 205.3 384.45 205.42 391.09"/><polygon class="cls-12" points="260.91 81.22 258.54 83.66 245.34 42.59 236.72 35.22 248.39 40.65 260.91 81.22"/><polygon class="cls-3" points="248.39 40.65 245.34 42.59 228.82 33.59 230.05 29.05 248.39 40.65"/><polygon class="cls-3" points="162.15 19 162.15 19 161.01 23.07 141.48 32.92 139.36 30.86 162.15 19"/><polygon class="cls-3" points="242.72 147.58 245.36 147.57 246.34 145.88 240.43 102.29 236.53 106.97 242.72 147.58"/><polygon class="cls-12" points="248.99 164.87 252.58 166.07 246.34 145.88 242.72 147.58 248.99 164.87"/><polygon class="cls-3" points="262.1 362.73 126.41 318.74 126.95 315.45 262.24 359.07 262.1 362.73"/><polygon class="cls-14" points="173.77 190.54 177.58 188.28 179.42 192.3 175.43 194.58 173.77 190.54"/><polygon class="cls-14" points="173.43 202.82 171.14 197.88 175.43 194.58 177.47 199.31 173.43 202.82"/><polygon class="cls-14" points="175.84 207.84 173.43 202.82 169.76 206.26 171.84 211.74 175.84 207.84"/><polygon class="cls-14" points="174.25 216.76 171.84 211.74 168.28 214.31 169.69 219.93 174.25 216.76"/><polygon class="cls-14" points="172.02 224.79 169.69 219.93 166.15 222.72 165.23 227.93 172.02 224.79"/><polygon class="cls-8" points="157.98 208.81 160.48 204.21 163.93 207.58 161.59 212.33 157.98 208.81"/><polygon class="cls-8" points="159.09 216.93 161.59 212.33 165.04 215.7 162.71 220.45 159.09 216.93"/><path class="cls-17" d="M163.94,72a3.86,3.86,0,1,0-3.67-3.86A3.77,3.77,0,0,0,163.94,72Z"/><path class="cls-17" d="M198.62,77.47A3.86,3.86,0,1,0,195,73.61,3.77,3.77,0,0,0,198.62,77.47Z"/></svg>