<svg id="illustration_layer_copy_2" data-name="illustration_layer copy 2" xmlns="http://www.w3.org/2000/svg" viewBox="0 0 400 400"><defs><style>.cls-1{fill:#3f8e6f;}.cls-2{fill:#35785d;}.cls-15,.cls-25,.cls-3{fill:#2b2b2b;}.cls-3{opacity:0.1;}.cls-4{fill:#6f7173;}.cls-5{fill:#4f5253;}.cls-6{fill:#c1907d;}.cls-7{fill:#5a753d;}.cls-8{fill:#54af8a;}.cls-9{fill:#cdcdcc;}.cls-10{fill:#474747;}.cls-11{fill:#ebebea;}.cls-12{fill:#fce3d4;}.cls-13{fill:#f4c9b2;}.cls-14{fill:#ffefe7;}.cls-16{fill:#8e8e8e;}.cls-17{fill:#a2a2a2;}.cls-18{fill:#c3c3c3;}.cls-19{fill:#737373;}.cls-20{fill:#709c53;}.cls-21{fill:#98c16d;}.cls-22{fill:#b7c645;}.cls-23{fill:#e7ef78;}.cls-24{fill:none;stroke:#b7c645;stroke-miterlimit:10;}.cls-25{opacity:0.2;}.cls-26{fill:#848585;}</style></defs><title>diplomats_INFP_famous_real_j_r_r_tolkien</title><polygon class="cls-1" points="203.55 307.77 207.55 340.12 193.03 342.84 170.47 327.34 145.99 269.45 162.99 250.75 203.55 307.77"/><polygon class="cls-2" points="170.47 327.34 204.4 339.22 211.04 349.25 211.04 368.29 196.05 368.29 184.01 359.34 170.47 327.34"/><polygon class="cls-3" points="107.26 383.1 211.04 371.39 292.29 385.16 203.24 400 107.26 383.1"/><polygon class="cls-4" points="184.01 359.34 161.06 377.59 184.95 380.69 209.75 377.59 211.04 368.29 184.01 359.34"/><rect class="cls-5" x="161.06" y="377.59" width="48.69" height="6.89"/><polygon class="cls-6" points="119.61 169.04 121.93 146.47 106.7 149.58 109.28 162.75 119.61 169.04"/><polygon class="cls-7" points="161.96 148.26 125.8 195.31 144.86 216.57 157.83 183.91 161.96 148.26"/><polygon class="cls-8" points="198.13 311.73 204.4 339.22 225.58 352.59 244.7 351.3 255.84 288.2 256.29 282.8 232.9 273.65 198.13 311.73"/><polygon class="cls-2" points="159.42 265.58 198.13 311.73 218.52 295.09 227.21 281.71 219.14 261.79 158.85 255.92 159.42 265.58"/><polygon class="cls-9" points="184.95 140.51 184.95 169.1 197.09 202.81 221.89 177.58 238.68 145.68 184.95 140.51"/><polygon class="cls-10" points="194.57 154.46 201.48 169.7 191.93 181.58 197.09 202.81 211.82 186.56 204.99 170 215.92 160.68 209.49 146.19 194.57 154.46"/><polygon class="cls-11" points="183.25 139.93 187.53 163.24 208.46 148.26 221.93 173.77 241 145.48 207.06 140.51 183.25 139.93"/><polygon class="cls-12" points="158.82 21.1 136.61 108.28 183.25 136.59 208.52 144.92 235.44 142.14 269.87 83.01 255.99 68.57 246 18.6 189.91 15.55 179.37 11.6 158.82 21.1"/><polygon class="cls-13" points="246 18.6 202.57 126.32 136.61 108.28 186.59 136.59 208.52 148.25 241 145.48 252.47 123.96 253.02 114.04 260.05 109.75 274.31 83.01 260.43 68.57 246 18.6"/><polygon class="cls-13" points="209.91 55.52 174.51 76.63 158.54 41.92 168.54 36.92 177.83 43.08 181.31 45.67 187.14 45.53 199.63 44.97 209.91 55.52"/><polygon class="cls-14" points="187.14 45.53 179 59.5 174.51 76.63 164.89 74.22 170.03 56.77 177.83 43.08 187.14 45.53"/><polygon class="cls-6" points="174.51 76.63 169 80.42 164.89 74.22 174.51 76.63"/><polygon class="cls-13" points="197.41 105.5 197.09 84.87 174.51 76.63 190.47 87.61 197.41 105.5"/><polygon class="cls-13" points="185.06 122.85 187.56 113.13 161.18 119.94 147.02 103.28 145.22 112.16 166.39 123.96 185.06 122.85"/><polygon class="cls-6" points="192.17 91.88 167.57 91.06 155.49 84.54 154.1 90.37 166.39 95.58 193.59 95.58 192.17 91.88"/><circle class="cls-15" cx="194.68" cy="55.99" r="3.19"/><circle class="cls-15" cx="166" cy="47.15" r="3.19"/><polygon class="cls-16" points="209.91 55.52 205.05 44.14 189.92 39.15 187.14 45.53 198.52 46.09 209.91 55.52"/><polygon class="cls-16" points="177.83 43.08 180.48 36.78 167.5 33.45 158.54 41.92 168.54 39.15 177.83 43.08"/><polygon class="cls-17" points="189.78 19.71 214.9 16.38 236.13 13.16 225.82 7.48 203.24 0.83 193.59 10.27 189.78 19.71"/><polygon class="cls-9" points="189.78 19.71 179.37 11.6 203.24 0.83 189.78 19.71"/><polygon class="cls-9" points="214.9 16.38 225.82 7.48 253.22 15.55 251.27 19.71 246 18.6 214.9 16.38"/><polygon class="cls-17" points="246 18.6 246 40.86 249.05 55.52 246 66.91 239.06 86.34 249.33 87.83 257.94 74.22 274.31 83.01 275.57 71.09 269.87 64.13 276.76 59.85 278.76 40.86 253.22 15.55 246 18.6"/><polygon class="cls-18" points="246 40.86 276.76 59.85 275.57 71.09 246 66.91 246 40.86"/><polygon class="cls-6" points="260.05 109.75 246 104.11 252.47 123.96 260.05 109.75"/><polygon class="cls-6" points="253.02 98 260.05 83.43 266.82 86.62 253.02 98"/><polygon class="cls-6" points="202.57 126.32 208.52 148.25 183.25 139.93 136.61 108.28 202.57 126.32"/><polygon class="cls-19" points="183.25 139.93 152.66 259.36 184.43 274.18 197.09 232.51 197.09 200.74 183.25 139.93"/><polygon class="cls-5" points="184.43 274.18 197.09 200.74 241 145.48 224.99 274.19 184.43 274.18"/><polygon class="cls-20" points="241 145.48 275.06 163.76 248.59 272.12 232.9 273.65 226.56 294.28 197.09 297.27 210.09 248.86 232.22 194.19 241 145.48"/><polygon class="cls-21" points="241 145.48 249.87 187.67 217.8 220.11 241 145.48"/><polygon class="cls-2" points="203.61 244.67 237.48 183.16 304.64 232.63 270.97 288.2 203.61 244.67"/><polygon class="cls-9" points="237.85 188.42 234.47 186.5 236.74 178.88 299.72 221.02 304.64 232.63 237.85 188.42"/><polygon class="cls-11" points="236.74 178.88 203.94 232.79 203.61 244.67 237.85 188.42 236.74 178.88"/><polygon class="cls-22" points="244.83 238.74 241.13 238.41 239.06 228.9 242.57 232.8 246.48 232.61 245.84 229.61 243.33 228.07 248.42 227.02 252.37 228.37 255.05 220.35 257.62 224.93 269.64 217.34 266.41 227.53 270.98 228.88 265.34 234.69 272.63 236.45 264.93 238.2 268.02 239.95 267.72 244.68 269.03 248.13 265.12 245.1 264.33 242.88 262.3 243.99 263.64 247.5 265.59 248.13 262.76 249.79 259.55 247.81 257.85 249.65 257.04 255.5 253.85 250.47 251.81 257.19 249.6 252.1 241.27 253.94 244.7 247.9 239.66 244.87 245.1 242.44 244.83 238.74"/><polygon class="cls-23" points="262.53 226.83 261.28 242.05 248.16 249.5 248.91 234.43 262.53 226.83"/><polygon class="cls-7" points="258.57 234.51 258.82 240.53 254.08 243.09 251.37 235.94 258.57 234.51"/><line class="cls-24" x1="219.61" y1="237.4" x2="239.57" y2="205.01"/><line class="cls-24" x1="226.56" y1="236.2" x2="241.35" y2="212.11"/><polygon class="cls-20" points="144.86 216.57 119.61 169.04 106.7 169.04 99.64 175.66 110.98 229.79 144.86 216.57"/><polygon class="cls-13" points="154.1 90.37 136.61 108.28 139.11 93 154.1 90.37"/><polygon class="cls-1" points="155.49 84.54 136.5 90 127.58 113.42 122.72 133.64 129.95 133.56 136.01 116.02 141.49 95.14 154.1 90.37 155.49 84.54"/><polygon class="cls-21" points="127.58 113.42 118.83 136.4 129.95 139.16 136.01 116.02 127.58 113.42"/><polygon class="cls-8" points="126.85 139.16 114.45 122.58 106.7 121.42 96.89 125.55 96.89 147.25 113.42 154.23 126.85 139.16"/><polygon class="cls-1" points="116.52 121.55 107.99 123.62 107.99 127.88 113.42 154.23 129.95 139.16 116.52 121.55"/><polygon class="cls-4" points="116.52 121.55 107.99 127.88 96.89 125.55 106.7 119.35 116.52 121.55"/><polygon class="cls-13" points="119.61 169.04 114.45 162.75 101.79 154.23 89.14 153.03 99.64 175.66 119.61 169.04"/><polygon class="cls-12" points="96.89 131.75 89.14 153.03 114.45 162.75 113.42 154.23 96.89 131.75"/><polygon class="cls-25" points="183.25 139.93 172.56 281.25 159.9 302.34 156.04 293.22 157.83 231.56 183.25 139.93"/><polygon class="cls-20" points="183.25 139.93 169.54 179.77 168.46 224.55 156.04 293.22 129.41 278.3 161.96 148.26 183.25 139.93"/><polygon class="cls-21" points="183.25 139.93 155.58 173.77 164.03 180.46 154.04 191.14 168.46 224.55 183.25 139.93"/><polygon class="cls-25" points="197.09 297.27 198.13 311.73 231.43 297.82 232.9 273.65 226.56 294.28 197.09 297.27"/><polygon class="cls-25" points="232.9 273.65 206.94 260.6 210.09 248.86 240.52 268.52 232.9 273.65"/><polygon class="cls-25" points="260.15 281.2 262.53 263.91 298.88 228.81 294.43 249.5 270.97 288.2 260.15 281.2"/><polygon class="cls-7" points="249.87 187.67 262.53 226.83 278.44 230.79 298.88 228.81 275.06 163.76 249.87 187.67"/><polygon class="cls-20" points="262.53 226.83 243.39 263.91 251.66 275.7 263.65 274.18 298.88 228.81 262.53 226.83"/><polygon class="cls-13" points="243.39 263.91 232.9 273.65 255.84 288.2 263.65 274.18 243.39 263.91"/><polygon class="cls-1" points="204.4 339.22 244.7 351.3 240.85 375.89 225.58 376.17 211.04 368.29 204.4 339.22"/><polygon class="cls-26" points="211.04 368.29 203.55 384.48 219.82 386.55 241.88 384.48 240.85 375.89 211.04 368.29"/><rect class="cls-4" x="203.55" y="384.48" width="38.33" height="7.58"/><polygon class="cls-13" points="194.68 64.6 204.24 69.33 194.59 71.09 194.68 64.6"/><polygon class="cls-13" points="164.21 54.24 154.04 55.52 158.85 61.33 164.21 54.24"/><polygon class="cls-13" points="164.89 74.22 155.49 84.54 157.33 75.62 164.89 74.22"/></svg>