<svg width="29" height="29" viewBox="0 0 29 29" fill="none" xmlns="http://www.w3.org/2000/svg">
<path d="M3.625 7.25H6.04167H25.375" stroke="#484848" stroke-width="2" stroke-linecap="round" stroke-linejoin="round"/>
<path d="M22.9577 7.24984V24.1665C22.9577 24.8074 22.7031 25.4221 22.2499 25.8753C21.7966 26.3286 21.182 26.5832 20.541 26.5832H8.45768C7.81674 26.5832 7.20205 26.3286 6.74884 25.8753C6.29563 25.4221 6.04102 24.8074 6.04102 24.1665V7.24984M9.66602 7.24984V4.83317C9.66602 4.19223 9.92063 3.57754 10.3738 3.12433C10.8271 2.67112 11.4417 2.4165 12.0827 2.4165H16.916C17.557 2.4165 18.1716 2.67112 18.6249 3.12433C19.0781 3.57754 19.3327 4.19223 19.3327 4.83317V7.24984" stroke="#484848" stroke-width="2" stroke-linecap="round" stroke-linejoin="round"/>
<path d="M12.084 13.2915V20.5415" stroke="#484848" stroke-width="2" stroke-linecap="round" stroke-linejoin="round"/>
<path d="M16.916 13.2915V20.5415" stroke="#484848" stroke-width="2" stroke-linecap="round" stroke-linejoin="round"/>
</svg>
