<svg id="illustration_layer_copy_4" data-name="illustration_layer copy 4" xmlns="http://www.w3.org/2000/svg" viewBox="0 0 400 400"><defs><style>.cls-1,.cls-10,.cls-15,.cls-16{fill:#2b2b2b;}.cls-1,.cls-10,.cls-11,.cls-12,.cls-13,.cls-14,.cls-16,.cls-17,.cls-18,.cls-19,.cls-2,.cls-20,.cls-21,.cls-22,.cls-23,.cls-24,.cls-25,.cls-3,.cls-4,.cls-5,.cls-6,.cls-7,.cls-8,.cls-9{fill-rule:evenodd;}.cls-1{opacity:0.1;}.cls-2{fill:#3f8e6f;}.cls-3{fill:#54af8a;}.cls-4{fill:#35785d;}.cls-5{fill:#709c53;}.cls-6{fill:#5a753d;}.cls-7{fill:#fce3d4;}.cls-8{fill:#f4c9b2;}.cls-9{fill:#738c57;}.cls-10{opacity:0.16;}.cls-11{fill:#9fce7e;}.cls-12{fill:#ffefe7;}.cls-13{fill:#c1907d;}.cls-14{fill:#fff;}.cls-17{fill:#82624d;}.cls-18{fill:#a0a0a0;}.cls-19{fill:#848484;}.cls-20{fill:#66483a;}.cls-21{fill:#51362a;}.cls-22{fill:#98796a;}.cls-23{fill:#98c16d;}.cls-24{fill:#666;}.cls-25{fill:#565656;}</style></defs><title>diplomats_ENFP_famous_real_robin_williams</title><polygon class="cls-1" points="74.34 388.05 210.02 374.54 312.53 390.34 208.02 400 74.34 388.05"/><polygon class="cls-2" points="156.05 271.43 141.09 305.65 147.63 324.64 171.68 339.28 211.87 309.28 156.05 271.43"/><polygon class="cls-3" points="192.04 302.92 223.75 334.18 254.49 336.65 271.52 319.69 264.68 267.7 199.14 262.2 192.04 302.92"/><polygon class="cls-4" points="192.04 302.92 216.41 290.87 190.85 271.97 170.09 284.41 192.04 302.92"/><polygon class="cls-2" points="223.75 334.18 271.52 319.69 275.47 349.68 262.47 358.55 248.47 358.55 223.75 334.18"/><polygon class="cls-4" points="141.09 305.65 171.68 339.28 148.6 356.5 130 355.21 124.62 340.97 141.09 305.65"/><polygon class="cls-5" points="248.47 358.55 241.2 377.03 227.23 385.9 264.28 388.68 281.75 362.62 275.47 349.68 248.47 358.55"/><polygon class="cls-6" points="227.23 385.9 227.23 392.56 266.42 392.56 284.47 368.9 281.75 362.62 263.7 385.9 227.23 385.9"/><polygon class="cls-5" points="148.6 356.5 136.17 372.39 119.39 362.97 89.03 338.02 124.62 340.97 148.6 356.5"/><polygon class="cls-6" points="136.17 372.39 132.08 377.94 85.31 343.38 89.03 338.02 136.17 372.39"/><polygon class="cls-7" points="138.85 192.89 114.01 190.43 107.18 200.07 108.56 209.3 160.22 235.28 149.75 202.12 138.85 192.89"/><polygon class="cls-6" points="181.26 159.79 138.85 192.89 160.22 235.28 181.26 159.79"/><polygon class="cls-8" points="287.7 221.38 273.32 234.75 276.08 256.23 285.06 235.79 287.7 221.38"/><polygon class="cls-9" points="237.01 153.34 293.78 165.49 292.68 209.12 255.01 209.12 237.01 153.34"/><polygon class="cls-9" points="238.13 146.39 242.33 187.6 238.4 259.89 212.3 273.99 190.85 276.21 170.09 284.41 156.05 271.43 163.25 192.89 187.81 171.02 238.13 146.39"/><polygon class="cls-6" points="234.7 168.41 255.48 182.98 264.68 267.7 216.41 290.87 190.85 276.21 197.58 212.84 206.81 173.76 234.7 168.41"/><polygon class="cls-10" points="255.48 182.98 211.87 200.51 184.92 200.51 163.25 192.89 176.22 181.7 233.59 168.62 255.48 182.98"/><polygon class="cls-11" points="241.02 142.13 251.11 156.4 255.48 182.98 234.7 178.88 211.87 200.51 228.75 160.37 241.02 142.13"/><polygon class="cls-11" points="184.92 200.51 175.16 186.51 163.25 192.89 178.1 162.09 194.41 166.67 184.92 200.51"/><polygon class="cls-7" points="132.78 32.84 130.34 65.33 127.48 114.32 137.61 139.89 167.42 143.75 194.97 166.53 192.37 194.54 209.75 201.89 249.73 85.5 248.29 72.05 232.58 34.33 167.79 35.07 132.78 32.84"/><polygon class="cls-8" points="232.58 34.33 216.04 131.7 200.23 148.76 167.42 143.75 181.85 158.97 186.78 176.99 184.92 200.51 197.58 212.84 211.87 200.51 241.02 142.13 249.97 123.19 249.73 113.27 257.17 108.78 269.15 85.5 248.29 72.05 232.58 34.33"/><polygon class="cls-8" points="197.58 69.81 162.57 100.06 139.12 64.95 149.91 58.23 163.32 61.97 163.32 65.33 174.12 66.45 197.58 69.81"/><polygon class="cls-12" points="174.12 66.45 164.53 85.87 162.57 100.06 151.96 98.75 153.08 85.85 163.32 65.33 174.12 66.45"/><polygon class="cls-13" points="225.13 150.63 167.42 143.75 186.78 176.99 225.13 150.63"/><polygon class="cls-13" points="257.17 108.78 242.99 104.35 249.97 123.19 257.17 108.78"/><polygon class="cls-13" points="249.73 98.75 253.04 87.27 260.58 89.23 249.73 98.75"/><polygon class="cls-13" points="151.96 98.75 156.71 104.35 162.57 100.06 151.96 98.75"/><polygon class="cls-13" points="143.31 108.44 160.62 112.15 205.93 105.28 194 122.84 153.36 123.31 143.31 108.44"/><polygon class="cls-14" points="148.61 112.64 160.71 114.62 200.31 108.78 192.92 120.5 154.85 120.97 148.61 112.64"/><polygon class="cls-8" points="177.25 98.75 213.54 107.01 210.61 98.75 177.25 98.75"/><polygon class="cls-8" points="194.22 78.73 198.74 77.33 204.74 78.73 197.06 80.13 194.22 78.73"/><ellipse class="cls-15" cx="150.1" cy="72.24" rx="3.72" ry="3.73"/><polygon class="cls-16" points="176.28 76.53 182.94 74.67 190.22 78.03 189.52 80.13 183.05 78.03 176.47 78.73 176.28 76.53"/><polygon class="cls-17" points="209.84 37.05 232.58 34.33 245.69 35.08 266.36 29.85 203 0.72 194.22 23 209.84 37.05"/><polygon class="cls-18" points="258.35 57.49 262.89 68.5 269.15 85.5 248.29 80.27 242.99 97.63 233.17 93.01 240.61 65.33 258.35 57.49"/><polygon class="cls-17" points="235.29 44.94 246.81 39.94 267.19 46.42 268.14 65.33 242.99 60.01 235.29 44.94"/><polygon class="cls-19" points="235.29 44.94 268.14 65.33 269.15 85.5 240.61 65.33 235.29 44.94"/><polygon class="cls-20" points="192.46 39.12 186.41 18.89 170.37 4.2 146.38 13.05 120.5 36.57 151.96 25.75 170.02 41.8 192.46 39.12"/><polygon class="cls-21" points="170.02 41.8 133.9 33.96 130.34 65.33 120.5 36.57 141.72 19.92 151.96 21.26 170.02 41.8"/><polygon class="cls-22" points="170.37 4.2 151.96 21.26 120.5 36.57 143.31 7.07 170.37 4.2"/><polygon class="cls-22" points="170.37 4.2 192.46 39.12 209.84 37.05 203 0.72 170.37 4.2"/><polygon class="cls-17" points="197.58 69.81 197.58 65.33 174.12 66.45 171.26 72.24 197.58 69.81"/><polygon class="cls-17" points="163.32 61.97 164.62 55.99 150.1 55.06 139.12 61.78 139.12 64.95 149.91 59.35 163.32 61.97"/><polygon class="cls-23" points="203.26 226.11 209.36 221.7 212.77 227.57 208.04 230.92 203.26 226.11"/><polygon class="cls-23" points="201.29 243.89 206.88 240.77 210 246.38 204.65 249.25 201.29 243.89"/><polygon class="cls-23" points="199.31 262.75 204.14 259.64 208.02 265.25 201.91 268.88 199.31 262.75"/><polygon class="cls-20" points="266.36 29.85 267.19 46.42 235.29 44.94 232.58 34.33 266.36 29.85"/><polygon class="cls-8" points="293.78 165.49 287.7 221.38 296.29 226.18 308.38 227.19 327.62 171.81 293.78 165.49"/><polygon class="cls-7" points="287.7 221.38 277.79 241.68 290.95 249.23 304.9 247.93 308.38 227.19 287.7 221.38"/><polygon class="cls-13" points="304.9 247.93 299.64 257.88 276.08 256.23 277.79 241.68 304.9 247.93"/><polygon class="cls-13" points="108.56 209.3 93.84 205.08 99.01 179.22 111.65 198.57 108.56 209.3"/><polygon class="cls-24" points="93.84 222.97 110.26 177.04 93.84 177.04 85.04 220.66 93.84 222.97"/><polygon class="cls-25" points="93.84 177.04 90.84 158.64 107.18 161.84 120.31 167.84 110.26 177.04 93.84 177.04"/><polygon class="cls-19" points="90.84 158.64 104.55 143.31 118.65 147.62 120.31 167.84 90.84 158.64"/><polygon class="cls-8" points="93.84 205.08 77.89 198.57 85.86 173.76 103.79 176.34 93.84 205.08"/><polygon class="cls-8" points="111.65 198.57 100.35 186.27 103.79 176.34 110.26 177.04 114.01 190.43 111.65 198.57"/><polygon class="cls-7" points="110.26 177.04 95.65 175.17 90.84 187.46 98.06 192.89 110.26 177.04"/><polygon class="cls-8" points="151.96 98.75 144.26 98.75 143.31 108.44 151.96 98.75"/></svg>