<svg width="497" height="555" viewBox="0 0 497 555" fill="none" xmlns="http://www.w3.org/2000/svg">
<path d="M132.5 4.50018C-240 390.5 580 185.905 580 476" stroke="#525E61" stroke-dasharray="19 19"/>
<path d="M136.671 235.574C136.465 235.507 136.257 235.482 136.048 235.499C135.844 235.519 135.653 235.574 135.476 235.664C135.299 235.754 135.141 235.878 135.003 236.036C134.866 236.189 134.764 236.368 134.697 236.574L132.703 242.663L131.676 242.327L134.476 233.773L134.819 233.886L135.094 234.938C135.432 234.697 135.806 234.542 136.217 234.473C136.636 234.4 137.054 234.432 137.471 234.569L138.073 234.766L137.698 235.91L136.671 235.574Z" fill="#B5BEF6"/>
<path d="M149.528 245.346C149.424 245.694 149.258 246.002 149.031 246.271C148.809 246.541 148.549 246.756 148.25 246.918C147.951 247.079 147.627 247.18 147.278 247.223C146.93 247.259 146.582 247.225 146.234 247.121L145.544 246.914C145.196 246.81 144.887 246.647 144.617 246.425C144.349 246.198 144.134 245.935 143.973 245.636C143.812 245.337 143.71 245.013 143.668 244.664C143.631 244.316 143.665 243.969 143.769 243.621L144.935 239.731C145.039 239.383 145.202 239.074 145.424 238.804C145.651 238.536 145.914 238.321 146.213 238.16C146.512 237.999 146.835 237.9 147.183 237.863C147.532 237.821 147.88 237.852 148.228 237.956L148.919 238.163C149.267 238.267 149.575 238.433 149.843 238.66C150.113 238.882 150.329 239.142 150.49 239.441C150.651 239.74 150.75 240.064 150.787 240.411C150.829 240.76 150.798 241.109 150.693 241.457L149.528 245.346ZM149.676 241.087C149.738 240.88 149.757 240.674 149.732 240.471C149.709 240.262 149.65 240.07 149.556 239.895C149.461 239.72 149.333 239.566 149.172 239.432C149.016 239.299 148.834 239.202 148.626 239.14L147.936 238.933C147.728 238.871 147.52 238.851 147.311 238.874C147.108 238.899 146.919 238.958 146.744 239.053C146.569 239.147 146.414 239.275 146.28 239.437C146.148 239.593 146.05 239.775 145.988 239.982L144.787 243.99C144.725 244.198 144.705 244.406 144.728 244.615C144.753 244.818 144.813 245.007 144.907 245.182C145.001 245.357 145.127 245.511 145.283 245.643C145.444 245.777 145.629 245.875 145.837 245.938L146.527 246.144C146.735 246.207 146.94 246.225 147.143 246.201C147.352 246.178 147.544 246.119 147.719 246.025C147.894 245.93 148.048 245.805 148.18 245.649C148.314 245.487 148.413 245.303 148.475 245.095L149.676 241.087Z" fill="#B5BEF6"/>
<path d="M163.831 251.934L163.487 250.913C163.166 251.16 162.801 251.331 162.393 251.428C161.986 251.519 161.571 251.507 161.146 251.392L160.883 251.322C160.533 251.227 160.219 251.073 159.943 250.859C159.668 250.639 159.446 250.382 159.277 250.088C159.107 249.793 158.997 249.472 158.945 249.125C158.898 248.778 158.922 248.43 159.017 248.079L159.04 247.994C159.134 247.643 159.288 247.33 159.502 247.054C159.722 246.779 159.979 246.557 160.273 246.388C160.568 246.218 160.888 246.11 161.234 246.064C161.582 246.012 161.931 246.033 162.282 246.128L164.489 246.722L164.85 245.381C164.906 245.172 164.919 244.966 164.889 244.764C164.86 244.556 164.796 244.365 164.696 244.193C164.597 244.021 164.465 243.87 164.3 243.74C164.14 243.612 163.955 243.52 163.746 243.464L163.135 243.299C162.926 243.243 162.717 243.229 162.509 243.258C162.307 243.288 162.119 243.353 161.947 243.452C161.774 243.552 161.624 243.684 161.494 243.849C161.366 244.009 161.274 244.194 161.217 244.403L161.133 244.717L160.135 244.266L160.158 244.181C160.252 243.83 160.406 243.517 160.62 243.241C160.84 242.966 161.097 242.744 161.391 242.575C161.686 242.405 162.006 242.297 162.352 242.251C162.7 242.199 163.049 242.22 163.4 242.315L164.011 242.479C164.362 242.574 164.675 242.731 164.949 242.95C165.225 243.164 165.448 243.418 165.618 243.713C165.787 244.007 165.895 244.328 165.941 244.674C165.993 245.022 165.972 245.371 165.878 245.722L164.179 252.027L163.831 251.934ZM164.269 247.537L162.063 246.942C161.853 246.886 161.645 246.872 161.437 246.901C161.234 246.932 161.046 246.999 160.872 247.104C160.7 247.204 160.549 247.336 160.419 247.501C160.291 247.661 160.199 247.845 160.143 248.055L160.045 248.42C159.988 248.629 159.975 248.838 160.003 249.046C160.034 249.248 160.099 249.435 160.198 249.608C160.297 249.78 160.427 249.93 160.586 250.058C160.752 250.188 160.939 250.281 161.148 250.337L161.844 250.525C162.054 250.581 162.26 250.594 162.462 250.563C162.67 250.535 162.86 250.47 163.033 250.371C163.205 250.272 163.355 250.143 163.483 249.983C163.612 249.817 163.705 249.63 163.762 249.421L164.269 247.537Z" fill="#B5BEF6"/>
<path d="M178.336 255.58L177.968 254.551C177.651 254.819 177.289 255.007 176.884 255.114C176.48 255.216 176.064 255.216 175.637 255.114L175.372 255.051C175.019 254.966 174.701 254.821 174.419 254.614C174.138 254.403 173.909 254.152 173.731 253.862C173.554 253.573 173.434 253.255 173.372 252.909C173.316 252.564 173.331 252.215 173.415 251.862L174.361 247.913C174.445 247.56 174.591 247.242 174.797 246.96C175.009 246.679 175.259 246.45 175.549 246.272C175.838 246.095 176.156 245.978 176.5 245.922C176.847 245.86 177.196 245.872 177.55 245.956L177.815 246.02C178.208 246.114 178.553 246.281 178.851 246.521C179.149 246.761 179.384 247.052 179.555 247.394L180.57 243.155L181.622 243.407L178.686 255.664L178.336 255.58ZM179.17 249.001C179.221 248.79 179.228 248.584 179.192 248.383C179.157 248.176 179.088 247.987 178.984 247.818C178.88 247.648 178.743 247.501 178.574 247.376C178.411 247.253 178.224 247.166 178.013 247.115L177.312 246.948C177.101 246.897 176.892 246.889 176.685 246.924C176.484 246.96 176.298 247.03 176.129 247.134C175.959 247.238 175.812 247.375 175.687 247.544C175.564 247.707 175.477 247.894 175.426 248.105L174.452 252.173C174.402 252.384 174.394 252.593 174.429 252.8C174.465 253.002 174.535 253.187 174.639 253.357C174.743 253.526 174.876 253.673 175.04 253.796C175.209 253.921 175.398 254.009 175.609 254.059L176.31 254.227C176.521 254.277 176.727 254.285 176.929 254.248C177.136 254.214 177.324 254.144 177.494 254.04C177.663 253.936 177.81 253.803 177.933 253.639C178.058 253.471 178.145 253.281 178.196 253.07L179.17 249.001Z" fill="#B5BEF6"/>
<path d="M197.674 259.804L198.994 253.346C199.037 253.133 199.038 252.927 198.995 252.727C198.953 252.521 198.878 252.335 198.768 252.169C198.658 252.003 198.517 251.861 198.344 251.742C198.177 251.624 197.987 251.543 197.774 251.5L197.249 251.392C197.037 251.349 196.828 251.348 196.622 251.39C196.422 251.433 196.236 251.508 196.064 251.617C195.898 251.726 195.756 251.868 195.637 252.041C195.519 252.208 195.438 252.398 195.395 252.61L194.075 259.068L193.024 258.854L194.344 252.395C194.387 252.183 194.388 251.977 194.345 251.777C194.303 251.571 194.225 251.384 194.109 251.217C194 251.051 193.858 250.909 193.685 250.79C193.518 250.672 193.328 250.591 193.116 250.548L192.591 250.44C192.378 250.397 192.169 250.396 191.963 250.438C191.763 250.481 191.58 250.557 191.414 250.666C191.248 250.776 191.106 250.917 190.987 251.09C190.869 251.258 190.788 251.448 190.745 251.66L189.425 258.118L188.366 257.902L190.168 249.084L190.521 249.156L190.915 250.17C191.223 249.892 191.577 249.695 191.977 249.579C192.384 249.459 192.803 249.443 193.234 249.531L193.32 249.549C193.819 249.651 194.245 249.866 194.596 250.195C194.948 250.524 195.191 250.915 195.326 251.367C195.476 251.188 195.648 251.032 195.843 250.899C196.038 250.765 196.244 250.661 196.463 250.586C196.683 250.505 196.914 250.457 197.157 250.44C197.4 250.418 197.646 250.433 197.892 250.483L197.979 250.501C198.335 250.573 198.656 250.711 198.944 250.913C199.233 251.11 199.471 251.35 199.658 251.633C199.845 251.917 199.973 252.23 200.04 252.573C200.113 252.916 200.114 253.266 200.041 253.622L198.734 260.02L197.674 259.804Z" fill="#B5BEF6"/>
<path d="M214.492 262.885L214.054 261.9C213.757 262.177 213.41 262.382 213.012 262.516C212.616 262.645 212.201 262.672 211.768 262.598L211.499 262.552C211.141 262.491 210.815 262.367 210.52 262.18C210.226 261.987 209.98 261.752 209.784 261.475C209.588 261.198 209.447 260.888 209.363 260.547C209.284 260.207 209.275 259.858 209.337 259.499L209.351 259.413C209.412 259.055 209.536 258.728 209.724 258.433C209.916 258.139 210.151 257.894 210.429 257.698C210.706 257.501 211.015 257.364 211.355 257.285C211.696 257.201 212.046 257.189 212.404 257.25L214.657 257.634L214.89 256.265C214.927 256.052 214.92 255.846 214.871 255.647C214.823 255.442 214.741 255.259 214.626 255.097C214.511 254.935 214.365 254.797 214.188 254.683C214.017 254.571 213.825 254.497 213.611 254.46L212.987 254.354C212.774 254.317 212.565 254.323 212.36 254.372C212.162 254.421 211.981 254.503 211.819 254.618C211.657 254.733 211.519 254.879 211.405 255.056C211.293 255.227 211.219 255.419 211.182 255.633L211.127 255.953L210.091 255.598L210.106 255.512C210.167 255.153 210.291 254.827 210.478 254.532C210.671 254.238 210.906 253.993 211.183 253.796C211.461 253.6 211.769 253.462 212.11 253.384C212.451 253.299 212.801 253.288 213.159 253.349L213.783 253.455C214.141 253.516 214.467 253.643 214.761 253.836C215.056 254.023 215.302 254.255 215.498 254.532C215.694 254.81 215.832 255.118 215.911 255.459C215.995 255.8 216.007 256.15 215.946 256.508L214.847 262.945L214.492 262.885ZM214.515 258.466L212.262 258.082C212.048 258.045 211.839 258.051 211.635 258.1C211.436 258.149 211.255 258.234 211.092 258.355C210.93 258.47 210.792 258.615 210.679 258.792C210.566 258.963 210.492 259.156 210.455 259.369L210.392 259.742C210.355 259.956 210.361 260.165 210.41 260.369C210.459 260.568 210.541 260.748 210.656 260.91C210.771 261.073 210.914 261.21 211.085 261.322C211.262 261.436 211.457 261.511 211.671 261.547L212.381 261.668C212.595 261.705 212.801 261.698 213 261.649C213.204 261.601 213.388 261.519 213.55 261.404C213.712 261.289 213.849 261.146 213.962 260.975C214.075 260.798 214.15 260.603 214.187 260.389L214.515 258.466Z" fill="#B5BEF6"/>
<path d="M229.978 262.757C229.927 263.117 229.809 263.446 229.624 263.746C229.446 264.046 229.22 264.298 228.949 264.502C228.677 264.706 228.372 264.855 228.033 264.949C227.695 265.037 227.346 265.056 226.987 265.005L226.717 264.967C226.317 264.91 225.957 264.776 225.638 264.565C225.318 264.354 225.058 264.086 224.855 263.761L224.243 268.078L223.172 267.926L224.943 255.447L225.3 255.498L225.754 256.485C226.045 256.189 226.386 255.972 226.779 255.832C227.178 255.687 227.595 255.646 228.031 255.708L228.3 255.746C228.66 255.797 228.989 255.915 229.289 256.099C229.589 256.278 229.841 256.503 230.045 256.775C230.249 257.046 230.395 257.351 230.484 257.689C230.578 258.028 230.599 258.377 230.548 258.737L229.978 262.757ZM229.486 258.524C229.517 258.309 229.505 258.104 229.45 257.906C229.396 257.703 229.309 257.522 229.189 257.363C229.07 257.204 228.92 257.071 228.74 256.962C228.566 256.855 228.372 256.786 228.157 256.755L227.444 256.654C227.229 256.624 227.02 256.636 226.817 256.69C226.62 256.744 226.442 256.832 226.283 256.951C226.124 257.071 225.99 257.22 225.882 257.4C225.774 257.574 225.705 257.769 225.675 257.983L225.087 262.125C225.057 262.34 225.068 262.549 225.123 262.752C225.177 262.949 225.265 263.127 225.384 263.286C225.504 263.445 225.65 263.578 225.824 263.686C226.004 263.794 226.202 263.864 226.416 263.894L227.13 263.995C227.345 264.026 227.55 264.014 227.748 263.959C227.951 263.905 228.132 263.818 228.291 263.698C228.45 263.579 228.583 263.432 228.69 263.258C228.799 263.078 228.868 262.881 228.899 262.666L229.486 258.524Z" fill="#B5BEF6"/>
</svg>
